G04 #@! TF.GenerationSoftware,KiCad,Pcbnew,8.0.3*
G04 #@! TF.CreationDate,2024-07-11T15:41:43-04:00*
G04 #@! TF.ProjectId,_HW_Mini-Scoreboard,5f48575f-4d69-46e6-992d-53636f726562,v1.0*
G04 #@! TF.SameCoordinates,Original*
G04 #@! TF.FileFunction,Paste,Bot*
G04 #@! TF.FilePolarity,Positive*
%FSLAX46Y46*%
G04 Gerber Fmt 4.6, Leading zero omitted, Abs format (unit mm)*
G04 Created by KiCad (PCBNEW 8.0.3) date 2024-07-11 15:41:43*
%MOMM*%
%LPD*%
G01*
G04 APERTURE LIST*
G04 Aperture macros list*
%AMRoundRect*
0 Rectangle with rounded corners*
0 $1 Rounding radius*
0 $2 $3 $4 $5 $6 $7 $8 $9 X,Y pos of 4 corners*
0 Add a 4 corners polygon primitive as box body*
4,1,4,$2,$3,$4,$5,$6,$7,$8,$9,$2,$3,0*
0 Add four circle primitives for the rounded corners*
1,1,$1+$1,$2,$3*
1,1,$1+$1,$4,$5*
1,1,$1+$1,$6,$7*
1,1,$1+$1,$8,$9*
0 Add four rect primitives between the rounded corners*
20,1,$1+$1,$2,$3,$4,$5,0*
20,1,$1+$1,$4,$5,$6,$7,0*
20,1,$1+$1,$6,$7,$8,$9,0*
20,1,$1+$1,$8,$9,$2,$3,0*%
G04 Aperture macros list end*
%ADD10C,0.000000*%
%ADD11C,0.010000*%
%ADD12RoundRect,0.250000X0.262500X0.450000X-0.262500X0.450000X-0.262500X-0.450000X0.262500X-0.450000X0*%
%ADD13RoundRect,0.250000X0.450000X-0.262500X0.450000X0.262500X-0.450000X0.262500X-0.450000X-0.262500X0*%
%ADD14RoundRect,0.250000X-0.262500X-0.450000X0.262500X-0.450000X0.262500X0.450000X-0.262500X0.450000X0*%
%ADD15RoundRect,0.200000X-0.200000X-0.275000X0.200000X-0.275000X0.200000X0.275000X-0.200000X0.275000X0*%
%ADD16RoundRect,0.200000X0.275000X-0.200000X0.275000X0.200000X-0.275000X0.200000X-0.275000X-0.200000X0*%
%ADD17RoundRect,0.225000X0.250000X-0.225000X0.250000X0.225000X-0.250000X0.225000X-0.250000X-0.225000X0*%
%ADD18RoundRect,0.200000X0.200000X0.275000X-0.200000X0.275000X-0.200000X-0.275000X0.200000X-0.275000X0*%
%ADD19RoundRect,0.200000X-0.275000X0.200000X-0.275000X-0.200000X0.275000X-0.200000X0.275000X0.200000X0*%
%ADD20RoundRect,0.225000X-0.225000X-0.250000X0.225000X-0.250000X0.225000X0.250000X-0.225000X0.250000X0*%
%ADD21RoundRect,0.243750X-0.243750X-0.456250X0.243750X-0.456250X0.243750X0.456250X-0.243750X0.456250X0*%
%ADD22RoundRect,0.225000X0.225000X0.250000X-0.225000X0.250000X-0.225000X-0.250000X0.225000X-0.250000X0*%
%ADD23RoundRect,0.150000X-0.825000X-0.150000X0.825000X-0.150000X0.825000X0.150000X-0.825000X0.150000X0*%
%ADD24RoundRect,0.225000X-0.250000X0.225000X-0.250000X-0.225000X0.250000X-0.225000X0.250000X0.225000X0*%
%ADD25RoundRect,0.032500X-0.397500X-0.097500X0.397500X-0.097500X0.397500X0.097500X-0.397500X0.097500X0*%
%ADD26RoundRect,0.032500X-0.097500X0.397500X-0.097500X-0.397500X0.097500X-0.397500X0.097500X0.397500X0*%
G04 APERTURE END LIST*
D10*
G36*
X211022999Y-212225001D02*
G01*
X210223001Y-212225001D01*
X210223001Y-211994999D01*
X211022999Y-211994999D01*
X211022999Y-212225001D01*
G37*
G36*
X211022999Y-212725000D02*
G01*
X210223001Y-212725000D01*
X210223001Y-212495000D01*
X211022999Y-212495000D01*
X211022999Y-212725000D01*
G37*
G36*
X211022999Y-213224999D02*
G01*
X210223001Y-213224999D01*
X210223001Y-212994999D01*
X211022999Y-212994999D01*
X211022999Y-213224999D01*
G37*
G36*
X211022999Y-213725001D02*
G01*
X210223001Y-213725001D01*
X210223001Y-213495001D01*
X211022999Y-213495001D01*
X211022999Y-213725001D01*
G37*
G36*
X211022999Y-214225000D02*
G01*
X210223001Y-214225000D01*
X210223001Y-213995000D01*
X211022999Y-213995000D01*
X211022999Y-214225000D01*
G37*
G36*
X211022999Y-214725001D02*
G01*
X210223001Y-214725001D01*
X210223001Y-214494999D01*
X211022999Y-214494999D01*
X211022999Y-214725001D01*
G37*
G36*
X211462686Y-211784999D02*
G01*
X211232684Y-211784999D01*
X211232684Y-210985001D01*
X211462686Y-210985001D01*
X211462686Y-211784999D01*
G37*
G36*
X211462686Y-215734999D02*
G01*
X211232684Y-215734999D01*
X211232684Y-214935001D01*
X211462686Y-214935001D01*
X211462686Y-215734999D01*
G37*
G36*
X211962812Y-211784999D02*
G01*
X211732810Y-211784999D01*
X211732810Y-210985001D01*
X211962812Y-210985001D01*
X211962812Y-211784999D01*
G37*
G36*
X211962812Y-215734999D02*
G01*
X211732810Y-215734999D01*
X211732810Y-214935001D01*
X211962812Y-214935001D01*
X211962812Y-215734999D01*
G37*
G36*
X212462938Y-211784999D02*
G01*
X212232936Y-211784999D01*
X212232936Y-210985001D01*
X212462938Y-210985001D01*
X212462938Y-211784999D01*
G37*
G36*
X212462938Y-215734999D02*
G01*
X212232936Y-215734999D01*
X212232936Y-214935001D01*
X212462938Y-214935001D01*
X212462938Y-215734999D01*
G37*
G36*
X212963064Y-211784999D02*
G01*
X212733062Y-211784999D01*
X212733062Y-210985001D01*
X212963064Y-210985001D01*
X212963064Y-211784999D01*
G37*
G36*
X212963064Y-215734999D02*
G01*
X212733062Y-215734999D01*
X212733062Y-214935001D01*
X212963064Y-214935001D01*
X212963064Y-215734999D01*
G37*
G36*
X213463190Y-211784999D02*
G01*
X213233188Y-211784999D01*
X213233188Y-210985001D01*
X213463190Y-210985001D01*
X213463190Y-211784999D01*
G37*
G36*
X213463190Y-215734999D02*
G01*
X213233188Y-215734999D01*
X213233188Y-214935001D01*
X213463190Y-214935001D01*
X213463190Y-215734999D01*
G37*
G36*
X213963316Y-211784999D02*
G01*
X213733314Y-211784999D01*
X213733314Y-210985001D01*
X213963316Y-210985001D01*
X213963316Y-211784999D01*
G37*
G36*
X213963316Y-215734999D02*
G01*
X213733314Y-215734999D01*
X213733314Y-214935001D01*
X213963316Y-214935001D01*
X213963316Y-215734999D01*
G37*
G36*
X214972999Y-212225001D02*
G01*
X214173001Y-212225001D01*
X214173001Y-211994999D01*
X214972999Y-211994999D01*
X214972999Y-212225001D01*
G37*
G36*
X214972999Y-212725000D02*
G01*
X214173001Y-212725000D01*
X214173001Y-212495000D01*
X214972999Y-212495000D01*
X214972999Y-212725000D01*
G37*
G36*
X214972999Y-213224999D02*
G01*
X214173001Y-213224999D01*
X214173001Y-212994999D01*
X214972999Y-212994999D01*
X214972999Y-213224999D01*
G37*
G36*
X214972999Y-213725001D02*
G01*
X214173001Y-213725001D01*
X214173001Y-213495001D01*
X214972999Y-213495001D01*
X214972999Y-213725001D01*
G37*
G36*
X214972999Y-214225000D02*
G01*
X214173001Y-214225000D01*
X214173001Y-213995000D01*
X214972999Y-213995000D01*
X214972999Y-214225000D01*
G37*
G36*
X214972999Y-214725001D02*
G01*
X214173001Y-214725001D01*
X214173001Y-214494999D01*
X214972999Y-214494999D01*
X214972999Y-214725001D01*
G37*
G36*
X211710600Y-214388821D02*
G01*
X211710600Y-214510070D01*
X211447930Y-214510070D01*
X211447930Y-214247400D01*
X211569179Y-214247400D01*
X211710600Y-214388821D01*
G37*
G36*
X211710600Y-212331179D02*
G01*
X211569179Y-212472600D01*
X211447930Y-212472600D01*
X211447930Y-212209930D01*
X211710600Y-212209930D01*
X211710600Y-212331179D01*
G37*
G36*
X213748070Y-212472600D02*
G01*
X213626821Y-212472600D01*
X213485400Y-212331179D01*
X213485400Y-212209930D01*
X213748070Y-212209930D01*
X213748070Y-212472600D01*
G37*
G36*
X213748070Y-214510070D02*
G01*
X213485400Y-214510070D01*
X213485400Y-214388821D01*
X213626821Y-214247400D01*
X213748070Y-214247400D01*
X213748070Y-214510070D01*
G37*
G36*
X211710600Y-212814021D02*
G01*
X211710600Y-213118579D01*
X211569179Y-213260000D01*
X211447930Y-213260000D01*
X211447930Y-212672600D01*
X211569179Y-212672600D01*
X211710600Y-212814021D01*
G37*
G36*
X211710600Y-213601421D02*
G01*
X211710600Y-213905979D01*
X211569179Y-214047400D01*
X211447930Y-214047400D01*
X211447930Y-213460000D01*
X211569179Y-213460000D01*
X211710600Y-213601421D01*
G37*
G36*
X212498000Y-214388821D02*
G01*
X212498000Y-214510070D01*
X211910600Y-214510070D01*
X211910600Y-214388821D01*
X212052021Y-214247400D01*
X212356579Y-214247400D01*
X212498000Y-214388821D01*
G37*
G36*
X212498000Y-212331179D02*
G01*
X212356579Y-212472600D01*
X212052021Y-212472600D01*
X211910600Y-212331179D01*
X211910600Y-212209930D01*
X212498000Y-212209930D01*
X212498000Y-212331179D01*
G37*
G36*
X213285400Y-214388821D02*
G01*
X213285400Y-214510070D01*
X212698000Y-214510070D01*
X212698000Y-214388821D01*
X212839421Y-214247400D01*
X213143979Y-214247400D01*
X213285400Y-214388821D01*
G37*
G36*
X213285400Y-212331179D02*
G01*
X213143979Y-212472600D01*
X212839421Y-212472600D01*
X212698000Y-212331179D01*
X212698000Y-212209930D01*
X213285400Y-212209930D01*
X213285400Y-212331179D01*
G37*
G36*
X213748070Y-213260000D02*
G01*
X213626821Y-213260000D01*
X213485400Y-213118579D01*
X213485400Y-212814021D01*
X213626821Y-212672600D01*
X213748070Y-212672600D01*
X213748070Y-213260000D01*
G37*
G36*
X213748070Y-214047400D02*
G01*
X213626821Y-214047400D01*
X213485400Y-213905979D01*
X213485400Y-213601421D01*
X213626821Y-213460000D01*
X213748070Y-213460000D01*
X213748070Y-214047400D01*
G37*
G36*
X212498000Y-212814021D02*
G01*
X212498000Y-213118579D01*
X212356579Y-213260000D01*
X212052021Y-213260000D01*
X211910600Y-213118579D01*
X211910600Y-212814021D01*
X212052021Y-212672600D01*
X212356579Y-212672600D01*
X212498000Y-212814021D01*
G37*
G36*
X212498000Y-213601421D02*
G01*
X212498000Y-213905979D01*
X212356579Y-214047400D01*
X212052021Y-214047400D01*
X211910600Y-213905979D01*
X211910600Y-213601421D01*
X212052021Y-213460000D01*
X212356579Y-213460000D01*
X212498000Y-213601421D01*
G37*
G36*
X213285400Y-212814021D02*
G01*
X213285400Y-213118579D01*
X213143979Y-213260000D01*
X212839421Y-213260000D01*
X212698000Y-213118579D01*
X212698000Y-212814021D01*
X212839421Y-212672600D01*
X213143979Y-212672600D01*
X213285400Y-212814021D01*
G37*
G36*
X213285400Y-213601421D02*
G01*
X213285400Y-213905979D01*
X213143979Y-214047400D01*
X212839421Y-214047400D01*
X212698000Y-213905979D01*
X212698000Y-213601421D01*
X212839421Y-213460000D01*
X213143979Y-213460000D01*
X213285400Y-213601421D01*
G37*
G36*
X142163599Y-190889001D02*
G01*
X141363601Y-190889001D01*
X141363601Y-190658999D01*
X142163599Y-190658999D01*
X142163599Y-190889001D01*
G37*
G36*
X142163599Y-191389000D02*
G01*
X141363601Y-191389000D01*
X141363601Y-191159000D01*
X142163599Y-191159000D01*
X142163599Y-191389000D01*
G37*
G36*
X142163599Y-191888999D02*
G01*
X141363601Y-191888999D01*
X141363601Y-191658999D01*
X142163599Y-191658999D01*
X142163599Y-191888999D01*
G37*
G36*
X142163599Y-192389001D02*
G01*
X141363601Y-192389001D01*
X141363601Y-192159001D01*
X142163599Y-192159001D01*
X142163599Y-192389001D01*
G37*
G36*
X142163599Y-192889000D02*
G01*
X141363601Y-192889000D01*
X141363601Y-192659000D01*
X142163599Y-192659000D01*
X142163599Y-192889000D01*
G37*
G36*
X142163599Y-193389001D02*
G01*
X141363601Y-193389001D01*
X141363601Y-193158999D01*
X142163599Y-193158999D01*
X142163599Y-193389001D01*
G37*
G36*
X142603286Y-190448999D02*
G01*
X142373284Y-190448999D01*
X142373284Y-189649001D01*
X142603286Y-189649001D01*
X142603286Y-190448999D01*
G37*
G36*
X142603286Y-194398999D02*
G01*
X142373284Y-194398999D01*
X142373284Y-193599001D01*
X142603286Y-193599001D01*
X142603286Y-194398999D01*
G37*
G36*
X143103412Y-190448999D02*
G01*
X142873410Y-190448999D01*
X142873410Y-189649001D01*
X143103412Y-189649001D01*
X143103412Y-190448999D01*
G37*
G36*
X143103412Y-194398999D02*
G01*
X142873410Y-194398999D01*
X142873410Y-193599001D01*
X143103412Y-193599001D01*
X143103412Y-194398999D01*
G37*
G36*
X143603538Y-190448999D02*
G01*
X143373536Y-190448999D01*
X143373536Y-189649001D01*
X143603538Y-189649001D01*
X143603538Y-190448999D01*
G37*
G36*
X143603538Y-194398999D02*
G01*
X143373536Y-194398999D01*
X143373536Y-193599001D01*
X143603538Y-193599001D01*
X143603538Y-194398999D01*
G37*
G36*
X144103664Y-190448999D02*
G01*
X143873662Y-190448999D01*
X143873662Y-189649001D01*
X144103664Y-189649001D01*
X144103664Y-190448999D01*
G37*
G36*
X144103664Y-194398999D02*
G01*
X143873662Y-194398999D01*
X143873662Y-193599001D01*
X144103664Y-193599001D01*
X144103664Y-194398999D01*
G37*
G36*
X144603790Y-190448999D02*
G01*
X144373788Y-190448999D01*
X144373788Y-189649001D01*
X144603790Y-189649001D01*
X144603790Y-190448999D01*
G37*
G36*
X144603790Y-194398999D02*
G01*
X144373788Y-194398999D01*
X144373788Y-193599001D01*
X144603790Y-193599001D01*
X144603790Y-194398999D01*
G37*
G36*
X145103916Y-190448999D02*
G01*
X144873914Y-190448999D01*
X144873914Y-189649001D01*
X145103916Y-189649001D01*
X145103916Y-190448999D01*
G37*
G36*
X145103916Y-194398999D02*
G01*
X144873914Y-194398999D01*
X144873914Y-193599001D01*
X145103916Y-193599001D01*
X145103916Y-194398999D01*
G37*
G36*
X146113599Y-190889001D02*
G01*
X145313601Y-190889001D01*
X145313601Y-190658999D01*
X146113599Y-190658999D01*
X146113599Y-190889001D01*
G37*
G36*
X146113599Y-191389000D02*
G01*
X145313601Y-191389000D01*
X145313601Y-191159000D01*
X146113599Y-191159000D01*
X146113599Y-191389000D01*
G37*
G36*
X146113599Y-191888999D02*
G01*
X145313601Y-191888999D01*
X145313601Y-191658999D01*
X146113599Y-191658999D01*
X146113599Y-191888999D01*
G37*
G36*
X146113599Y-192389001D02*
G01*
X145313601Y-192389001D01*
X145313601Y-192159001D01*
X146113599Y-192159001D01*
X146113599Y-192389001D01*
G37*
G36*
X146113599Y-192889000D02*
G01*
X145313601Y-192889000D01*
X145313601Y-192659000D01*
X146113599Y-192659000D01*
X146113599Y-192889000D01*
G37*
G36*
X146113599Y-193389001D02*
G01*
X145313601Y-193389001D01*
X145313601Y-193158999D01*
X146113599Y-193158999D01*
X146113599Y-193389001D01*
G37*
G36*
X142851200Y-193052821D02*
G01*
X142851200Y-193174070D01*
X142588530Y-193174070D01*
X142588530Y-192911400D01*
X142709779Y-192911400D01*
X142851200Y-193052821D01*
G37*
G36*
X142851200Y-190995179D02*
G01*
X142709779Y-191136600D01*
X142588530Y-191136600D01*
X142588530Y-190873930D01*
X142851200Y-190873930D01*
X142851200Y-190995179D01*
G37*
G36*
X144888670Y-191136600D02*
G01*
X144767421Y-191136600D01*
X144626000Y-190995179D01*
X144626000Y-190873930D01*
X144888670Y-190873930D01*
X144888670Y-191136600D01*
G37*
G36*
X144888670Y-193174070D02*
G01*
X144626000Y-193174070D01*
X144626000Y-193052821D01*
X144767421Y-192911400D01*
X144888670Y-192911400D01*
X144888670Y-193174070D01*
G37*
G36*
X142851200Y-191478021D02*
G01*
X142851200Y-191782579D01*
X142709779Y-191924000D01*
X142588530Y-191924000D01*
X142588530Y-191336600D01*
X142709779Y-191336600D01*
X142851200Y-191478021D01*
G37*
G36*
X142851200Y-192265421D02*
G01*
X142851200Y-192569979D01*
X142709779Y-192711400D01*
X142588530Y-192711400D01*
X142588530Y-192124000D01*
X142709779Y-192124000D01*
X142851200Y-192265421D01*
G37*
G36*
X143638600Y-193052821D02*
G01*
X143638600Y-193174070D01*
X143051200Y-193174070D01*
X143051200Y-193052821D01*
X143192621Y-192911400D01*
X143497179Y-192911400D01*
X143638600Y-193052821D01*
G37*
G36*
X143638600Y-190995179D02*
G01*
X143497179Y-191136600D01*
X143192621Y-191136600D01*
X143051200Y-190995179D01*
X143051200Y-190873930D01*
X143638600Y-190873930D01*
X143638600Y-190995179D01*
G37*
G36*
X144426000Y-193052821D02*
G01*
X144426000Y-193174070D01*
X143838600Y-193174070D01*
X143838600Y-193052821D01*
X143980021Y-192911400D01*
X144284579Y-192911400D01*
X144426000Y-193052821D01*
G37*
G36*
X144426000Y-190995179D02*
G01*
X144284579Y-191136600D01*
X143980021Y-191136600D01*
X143838600Y-190995179D01*
X143838600Y-190873930D01*
X144426000Y-190873930D01*
X144426000Y-190995179D01*
G37*
G36*
X144888670Y-191924000D02*
G01*
X144767421Y-191924000D01*
X144626000Y-191782579D01*
X144626000Y-191478021D01*
X144767421Y-191336600D01*
X144888670Y-191336600D01*
X144888670Y-191924000D01*
G37*
G36*
X144888670Y-192711400D02*
G01*
X144767421Y-192711400D01*
X144626000Y-192569979D01*
X144626000Y-192265421D01*
X144767421Y-192124000D01*
X144888670Y-192124000D01*
X144888670Y-192711400D01*
G37*
G36*
X143638600Y-191478021D02*
G01*
X143638600Y-191782579D01*
X143497179Y-191924000D01*
X143192621Y-191924000D01*
X143051200Y-191782579D01*
X143051200Y-191478021D01*
X143192621Y-191336600D01*
X143497179Y-191336600D01*
X143638600Y-191478021D01*
G37*
G36*
X143638600Y-192265421D02*
G01*
X143638600Y-192569979D01*
X143497179Y-192711400D01*
X143192621Y-192711400D01*
X143051200Y-192569979D01*
X143051200Y-192265421D01*
X143192621Y-192124000D01*
X143497179Y-192124000D01*
X143638600Y-192265421D01*
G37*
G36*
X144426000Y-191478021D02*
G01*
X144426000Y-191782579D01*
X144284579Y-191924000D01*
X143980021Y-191924000D01*
X143838600Y-191782579D01*
X143838600Y-191478021D01*
X143980021Y-191336600D01*
X144284579Y-191336600D01*
X144426000Y-191478021D01*
G37*
G36*
X144426000Y-192265421D02*
G01*
X144426000Y-192569979D01*
X144284579Y-192711400D01*
X143980021Y-192711400D01*
X143838600Y-192569979D01*
X143838600Y-192265421D01*
X143980021Y-192124000D01*
X144284579Y-192124000D01*
X144426000Y-192265421D01*
G37*
G36*
X189102714Y-179910001D02*
G01*
X188302716Y-179910001D01*
X188302716Y-179679999D01*
X189102714Y-179679999D01*
X189102714Y-179910001D01*
G37*
G36*
X189102714Y-180410000D02*
G01*
X188302716Y-180410000D01*
X188302716Y-180180000D01*
X189102714Y-180180000D01*
X189102714Y-180410000D01*
G37*
G36*
X189102714Y-180909999D02*
G01*
X188302716Y-180909999D01*
X188302716Y-180679999D01*
X189102714Y-180679999D01*
X189102714Y-180909999D01*
G37*
G36*
X189102714Y-181410001D02*
G01*
X188302716Y-181410001D01*
X188302716Y-181180001D01*
X189102714Y-181180001D01*
X189102714Y-181410001D01*
G37*
G36*
X189102714Y-181910000D02*
G01*
X188302716Y-181910000D01*
X188302716Y-181680000D01*
X189102714Y-181680000D01*
X189102714Y-181910000D01*
G37*
G36*
X189102714Y-182410001D02*
G01*
X188302716Y-182410001D01*
X188302716Y-182179999D01*
X189102714Y-182179999D01*
X189102714Y-182410001D01*
G37*
G36*
X189542401Y-179469999D02*
G01*
X189312399Y-179469999D01*
X189312399Y-178670001D01*
X189542401Y-178670001D01*
X189542401Y-179469999D01*
G37*
G36*
X189542401Y-183419999D02*
G01*
X189312399Y-183419999D01*
X189312399Y-182620001D01*
X189542401Y-182620001D01*
X189542401Y-183419999D01*
G37*
G36*
X190042527Y-179469999D02*
G01*
X189812525Y-179469999D01*
X189812525Y-178670001D01*
X190042527Y-178670001D01*
X190042527Y-179469999D01*
G37*
G36*
X190042527Y-183419999D02*
G01*
X189812525Y-183419999D01*
X189812525Y-182620001D01*
X190042527Y-182620001D01*
X190042527Y-183419999D01*
G37*
G36*
X190542653Y-179469999D02*
G01*
X190312651Y-179469999D01*
X190312651Y-178670001D01*
X190542653Y-178670001D01*
X190542653Y-179469999D01*
G37*
G36*
X190542653Y-183419999D02*
G01*
X190312651Y-183419999D01*
X190312651Y-182620001D01*
X190542653Y-182620001D01*
X190542653Y-183419999D01*
G37*
G36*
X191042779Y-179469999D02*
G01*
X190812777Y-179469999D01*
X190812777Y-178670001D01*
X191042779Y-178670001D01*
X191042779Y-179469999D01*
G37*
G36*
X191042779Y-183419999D02*
G01*
X190812777Y-183419999D01*
X190812777Y-182620001D01*
X191042779Y-182620001D01*
X191042779Y-183419999D01*
G37*
G36*
X191542905Y-179469999D02*
G01*
X191312903Y-179469999D01*
X191312903Y-178670001D01*
X191542905Y-178670001D01*
X191542905Y-179469999D01*
G37*
G36*
X191542905Y-183419999D02*
G01*
X191312903Y-183419999D01*
X191312903Y-182620001D01*
X191542905Y-182620001D01*
X191542905Y-183419999D01*
G37*
G36*
X192043031Y-179469999D02*
G01*
X191813029Y-179469999D01*
X191813029Y-178670001D01*
X192043031Y-178670001D01*
X192043031Y-179469999D01*
G37*
G36*
X192043031Y-183419999D02*
G01*
X191813029Y-183419999D01*
X191813029Y-182620001D01*
X192043031Y-182620001D01*
X192043031Y-183419999D01*
G37*
G36*
X193052714Y-179910001D02*
G01*
X192252716Y-179910001D01*
X192252716Y-179679999D01*
X193052714Y-179679999D01*
X193052714Y-179910001D01*
G37*
G36*
X193052714Y-180410000D02*
G01*
X192252716Y-180410000D01*
X192252716Y-180180000D01*
X193052714Y-180180000D01*
X193052714Y-180410000D01*
G37*
G36*
X193052714Y-180909999D02*
G01*
X192252716Y-180909999D01*
X192252716Y-180679999D01*
X193052714Y-180679999D01*
X193052714Y-180909999D01*
G37*
G36*
X193052714Y-181410001D02*
G01*
X192252716Y-181410001D01*
X192252716Y-181180001D01*
X193052714Y-181180001D01*
X193052714Y-181410001D01*
G37*
G36*
X193052714Y-181910000D02*
G01*
X192252716Y-181910000D01*
X192252716Y-181680000D01*
X193052714Y-181680000D01*
X193052714Y-181910000D01*
G37*
G36*
X193052714Y-182410001D02*
G01*
X192252716Y-182410001D01*
X192252716Y-182179999D01*
X193052714Y-182179999D01*
X193052714Y-182410001D01*
G37*
G36*
X189790315Y-182073821D02*
G01*
X189790315Y-182195070D01*
X189527645Y-182195070D01*
X189527645Y-181932400D01*
X189648894Y-181932400D01*
X189790315Y-182073821D01*
G37*
G36*
X189790315Y-180016179D02*
G01*
X189648894Y-180157600D01*
X189527645Y-180157600D01*
X189527645Y-179894930D01*
X189790315Y-179894930D01*
X189790315Y-180016179D01*
G37*
G36*
X191827785Y-180157600D02*
G01*
X191706536Y-180157600D01*
X191565115Y-180016179D01*
X191565115Y-179894930D01*
X191827785Y-179894930D01*
X191827785Y-180157600D01*
G37*
G36*
X191827785Y-182195070D02*
G01*
X191565115Y-182195070D01*
X191565115Y-182073821D01*
X191706536Y-181932400D01*
X191827785Y-181932400D01*
X191827785Y-182195070D01*
G37*
G36*
X189790315Y-180499021D02*
G01*
X189790315Y-180803579D01*
X189648894Y-180945000D01*
X189527645Y-180945000D01*
X189527645Y-180357600D01*
X189648894Y-180357600D01*
X189790315Y-180499021D01*
G37*
G36*
X189790315Y-181286421D02*
G01*
X189790315Y-181590979D01*
X189648894Y-181732400D01*
X189527645Y-181732400D01*
X189527645Y-181145000D01*
X189648894Y-181145000D01*
X189790315Y-181286421D01*
G37*
G36*
X190577715Y-182073821D02*
G01*
X190577715Y-182195070D01*
X189990315Y-182195070D01*
X189990315Y-182073821D01*
X190131736Y-181932400D01*
X190436294Y-181932400D01*
X190577715Y-182073821D01*
G37*
G36*
X190577715Y-180016179D02*
G01*
X190436294Y-180157600D01*
X190131736Y-180157600D01*
X189990315Y-180016179D01*
X189990315Y-179894930D01*
X190577715Y-179894930D01*
X190577715Y-180016179D01*
G37*
G36*
X191365115Y-182073821D02*
G01*
X191365115Y-182195070D01*
X190777715Y-182195070D01*
X190777715Y-182073821D01*
X190919136Y-181932400D01*
X191223694Y-181932400D01*
X191365115Y-182073821D01*
G37*
G36*
X191365115Y-180016179D02*
G01*
X191223694Y-180157600D01*
X190919136Y-180157600D01*
X190777715Y-180016179D01*
X190777715Y-179894930D01*
X191365115Y-179894930D01*
X191365115Y-180016179D01*
G37*
G36*
X191827785Y-180945000D02*
G01*
X191706536Y-180945000D01*
X191565115Y-180803579D01*
X191565115Y-180499021D01*
X191706536Y-180357600D01*
X191827785Y-180357600D01*
X191827785Y-180945000D01*
G37*
G36*
X191827785Y-181732400D02*
G01*
X191706536Y-181732400D01*
X191565115Y-181590979D01*
X191565115Y-181286421D01*
X191706536Y-181145000D01*
X191827785Y-181145000D01*
X191827785Y-181732400D01*
G37*
G36*
X190577715Y-180499021D02*
G01*
X190577715Y-180803579D01*
X190436294Y-180945000D01*
X190131736Y-180945000D01*
X189990315Y-180803579D01*
X189990315Y-180499021D01*
X190131736Y-180357600D01*
X190436294Y-180357600D01*
X190577715Y-180499021D01*
G37*
G36*
X190577715Y-181286421D02*
G01*
X190577715Y-181590979D01*
X190436294Y-181732400D01*
X190131736Y-181732400D01*
X189990315Y-181590979D01*
X189990315Y-181286421D01*
X190131736Y-181145000D01*
X190436294Y-181145000D01*
X190577715Y-181286421D01*
G37*
G36*
X191365115Y-180499021D02*
G01*
X191365115Y-180803579D01*
X191223694Y-180945000D01*
X190919136Y-180945000D01*
X190777715Y-180803579D01*
X190777715Y-180499021D01*
X190919136Y-180357600D01*
X191223694Y-180357600D01*
X191365115Y-180499021D01*
G37*
G36*
X191365115Y-181286421D02*
G01*
X191365115Y-181590979D01*
X191223694Y-181732400D01*
X190919136Y-181732400D01*
X190777715Y-181590979D01*
X190777715Y-181286421D01*
X190919136Y-181145000D01*
X191223694Y-181145000D01*
X191365115Y-181286421D01*
G37*
G36*
X161410999Y-179967001D02*
G01*
X160611001Y-179967001D01*
X160611001Y-179736999D01*
X161410999Y-179736999D01*
X161410999Y-179967001D01*
G37*
G36*
X161410999Y-180467000D02*
G01*
X160611001Y-180467000D01*
X160611001Y-180237000D01*
X161410999Y-180237000D01*
X161410999Y-180467000D01*
G37*
G36*
X161410999Y-180966999D02*
G01*
X160611001Y-180966999D01*
X160611001Y-180736999D01*
X161410999Y-180736999D01*
X161410999Y-180966999D01*
G37*
G36*
X161410999Y-181467001D02*
G01*
X160611001Y-181467001D01*
X160611001Y-181237001D01*
X161410999Y-181237001D01*
X161410999Y-181467001D01*
G37*
G36*
X161410999Y-181967000D02*
G01*
X160611001Y-181967000D01*
X160611001Y-181737000D01*
X161410999Y-181737000D01*
X161410999Y-181967000D01*
G37*
G36*
X161410999Y-182467001D02*
G01*
X160611001Y-182467001D01*
X160611001Y-182236999D01*
X161410999Y-182236999D01*
X161410999Y-182467001D01*
G37*
G36*
X161850686Y-179526999D02*
G01*
X161620684Y-179526999D01*
X161620684Y-178727001D01*
X161850686Y-178727001D01*
X161850686Y-179526999D01*
G37*
G36*
X161850686Y-183476999D02*
G01*
X161620684Y-183476999D01*
X161620684Y-182677001D01*
X161850686Y-182677001D01*
X161850686Y-183476999D01*
G37*
G36*
X162350812Y-179526999D02*
G01*
X162120810Y-179526999D01*
X162120810Y-178727001D01*
X162350812Y-178727001D01*
X162350812Y-179526999D01*
G37*
G36*
X162350812Y-183476999D02*
G01*
X162120810Y-183476999D01*
X162120810Y-182677001D01*
X162350812Y-182677001D01*
X162350812Y-183476999D01*
G37*
G36*
X162850938Y-179526999D02*
G01*
X162620936Y-179526999D01*
X162620936Y-178727001D01*
X162850938Y-178727001D01*
X162850938Y-179526999D01*
G37*
G36*
X162850938Y-183476999D02*
G01*
X162620936Y-183476999D01*
X162620936Y-182677001D01*
X162850938Y-182677001D01*
X162850938Y-183476999D01*
G37*
G36*
X163351064Y-179526999D02*
G01*
X163121062Y-179526999D01*
X163121062Y-178727001D01*
X163351064Y-178727001D01*
X163351064Y-179526999D01*
G37*
G36*
X163351064Y-183476999D02*
G01*
X163121062Y-183476999D01*
X163121062Y-182677001D01*
X163351064Y-182677001D01*
X163351064Y-183476999D01*
G37*
G36*
X163851190Y-179526999D02*
G01*
X163621188Y-179526999D01*
X163621188Y-178727001D01*
X163851190Y-178727001D01*
X163851190Y-179526999D01*
G37*
G36*
X163851190Y-183476999D02*
G01*
X163621188Y-183476999D01*
X163621188Y-182677001D01*
X163851190Y-182677001D01*
X163851190Y-183476999D01*
G37*
G36*
X164351316Y-179526999D02*
G01*
X164121314Y-179526999D01*
X164121314Y-178727001D01*
X164351316Y-178727001D01*
X164351316Y-179526999D01*
G37*
G36*
X164351316Y-183476999D02*
G01*
X164121314Y-183476999D01*
X164121314Y-182677001D01*
X164351316Y-182677001D01*
X164351316Y-183476999D01*
G37*
G36*
X165360999Y-179967001D02*
G01*
X164561001Y-179967001D01*
X164561001Y-179736999D01*
X165360999Y-179736999D01*
X165360999Y-179967001D01*
G37*
G36*
X165360999Y-180467000D02*
G01*
X164561001Y-180467000D01*
X164561001Y-180237000D01*
X165360999Y-180237000D01*
X165360999Y-180467000D01*
G37*
G36*
X165360999Y-180966999D02*
G01*
X164561001Y-180966999D01*
X164561001Y-180736999D01*
X165360999Y-180736999D01*
X165360999Y-180966999D01*
G37*
G36*
X165360999Y-181467001D02*
G01*
X164561001Y-181467001D01*
X164561001Y-181237001D01*
X165360999Y-181237001D01*
X165360999Y-181467001D01*
G37*
G36*
X165360999Y-181967000D02*
G01*
X164561001Y-181967000D01*
X164561001Y-181737000D01*
X165360999Y-181737000D01*
X165360999Y-181967000D01*
G37*
G36*
X165360999Y-182467001D02*
G01*
X164561001Y-182467001D01*
X164561001Y-182236999D01*
X165360999Y-182236999D01*
X165360999Y-182467001D01*
G37*
G36*
X162098600Y-182130821D02*
G01*
X162098600Y-182252070D01*
X161835930Y-182252070D01*
X161835930Y-181989400D01*
X161957179Y-181989400D01*
X162098600Y-182130821D01*
G37*
G36*
X162098600Y-180073179D02*
G01*
X161957179Y-180214600D01*
X161835930Y-180214600D01*
X161835930Y-179951930D01*
X162098600Y-179951930D01*
X162098600Y-180073179D01*
G37*
G36*
X164136070Y-180214600D02*
G01*
X164014821Y-180214600D01*
X163873400Y-180073179D01*
X163873400Y-179951930D01*
X164136070Y-179951930D01*
X164136070Y-180214600D01*
G37*
G36*
X164136070Y-182252070D02*
G01*
X163873400Y-182252070D01*
X163873400Y-182130821D01*
X164014821Y-181989400D01*
X164136070Y-181989400D01*
X164136070Y-182252070D01*
G37*
G36*
X162098600Y-180556021D02*
G01*
X162098600Y-180860579D01*
X161957179Y-181002000D01*
X161835930Y-181002000D01*
X161835930Y-180414600D01*
X161957179Y-180414600D01*
X162098600Y-180556021D01*
G37*
G36*
X162098600Y-181343421D02*
G01*
X162098600Y-181647979D01*
X161957179Y-181789400D01*
X161835930Y-181789400D01*
X161835930Y-181202000D01*
X161957179Y-181202000D01*
X162098600Y-181343421D01*
G37*
G36*
X162886000Y-182130821D02*
G01*
X162886000Y-182252070D01*
X162298600Y-182252070D01*
X162298600Y-182130821D01*
X162440021Y-181989400D01*
X162744579Y-181989400D01*
X162886000Y-182130821D01*
G37*
G36*
X162886000Y-180073179D02*
G01*
X162744579Y-180214600D01*
X162440021Y-180214600D01*
X162298600Y-180073179D01*
X162298600Y-179951930D01*
X162886000Y-179951930D01*
X162886000Y-180073179D01*
G37*
G36*
X163673400Y-182130821D02*
G01*
X163673400Y-182252070D01*
X163086000Y-182252070D01*
X163086000Y-182130821D01*
X163227421Y-181989400D01*
X163531979Y-181989400D01*
X163673400Y-182130821D01*
G37*
G36*
X163673400Y-180073179D02*
G01*
X163531979Y-180214600D01*
X163227421Y-180214600D01*
X163086000Y-180073179D01*
X163086000Y-179951930D01*
X163673400Y-179951930D01*
X163673400Y-180073179D01*
G37*
G36*
X164136070Y-181002000D02*
G01*
X164014821Y-181002000D01*
X163873400Y-180860579D01*
X163873400Y-180556021D01*
X164014821Y-180414600D01*
X164136070Y-180414600D01*
X164136070Y-181002000D01*
G37*
G36*
X164136070Y-181789400D02*
G01*
X164014821Y-181789400D01*
X163873400Y-181647979D01*
X163873400Y-181343421D01*
X164014821Y-181202000D01*
X164136070Y-181202000D01*
X164136070Y-181789400D01*
G37*
G36*
X162886000Y-180556021D02*
G01*
X162886000Y-180860579D01*
X162744579Y-181002000D01*
X162440021Y-181002000D01*
X162298600Y-180860579D01*
X162298600Y-180556021D01*
X162440021Y-180414600D01*
X162744579Y-180414600D01*
X162886000Y-180556021D01*
G37*
G36*
X162886000Y-181343421D02*
G01*
X162886000Y-181647979D01*
X162744579Y-181789400D01*
X162440021Y-181789400D01*
X162298600Y-181647979D01*
X162298600Y-181343421D01*
X162440021Y-181202000D01*
X162744579Y-181202000D01*
X162886000Y-181343421D01*
G37*
G36*
X163673400Y-180556021D02*
G01*
X163673400Y-180860579D01*
X163531979Y-181002000D01*
X163227421Y-181002000D01*
X163086000Y-180860579D01*
X163086000Y-180556021D01*
X163227421Y-180414600D01*
X163531979Y-180414600D01*
X163673400Y-180556021D01*
G37*
G36*
X163673400Y-181343421D02*
G01*
X163673400Y-181647979D01*
X163531979Y-181789400D01*
X163227421Y-181789400D01*
X163086000Y-181647979D01*
X163086000Y-181343421D01*
X163227421Y-181202000D01*
X163531979Y-181202000D01*
X163673400Y-181343421D01*
G37*
G36*
X136067599Y-170061001D02*
G01*
X135267601Y-170061001D01*
X135267601Y-169830999D01*
X136067599Y-169830999D01*
X136067599Y-170061001D01*
G37*
G36*
X136067599Y-170561000D02*
G01*
X135267601Y-170561000D01*
X135267601Y-170331000D01*
X136067599Y-170331000D01*
X136067599Y-170561000D01*
G37*
G36*
X136067599Y-171060999D02*
G01*
X135267601Y-171060999D01*
X135267601Y-170830999D01*
X136067599Y-170830999D01*
X136067599Y-171060999D01*
G37*
G36*
X136067599Y-171561001D02*
G01*
X135267601Y-171561001D01*
X135267601Y-171331001D01*
X136067599Y-171331001D01*
X136067599Y-171561001D01*
G37*
G36*
X136067599Y-172061000D02*
G01*
X135267601Y-172061000D01*
X135267601Y-171831000D01*
X136067599Y-171831000D01*
X136067599Y-172061000D01*
G37*
G36*
X136067599Y-172561001D02*
G01*
X135267601Y-172561001D01*
X135267601Y-172330999D01*
X136067599Y-172330999D01*
X136067599Y-172561001D01*
G37*
G36*
X136507286Y-169620999D02*
G01*
X136277284Y-169620999D01*
X136277284Y-168821001D01*
X136507286Y-168821001D01*
X136507286Y-169620999D01*
G37*
G36*
X136507286Y-173570999D02*
G01*
X136277284Y-173570999D01*
X136277284Y-172771001D01*
X136507286Y-172771001D01*
X136507286Y-173570999D01*
G37*
G36*
X137007412Y-169620999D02*
G01*
X136777410Y-169620999D01*
X136777410Y-168821001D01*
X137007412Y-168821001D01*
X137007412Y-169620999D01*
G37*
G36*
X137007412Y-173570999D02*
G01*
X136777410Y-173570999D01*
X136777410Y-172771001D01*
X137007412Y-172771001D01*
X137007412Y-173570999D01*
G37*
G36*
X137507538Y-169620999D02*
G01*
X137277536Y-169620999D01*
X137277536Y-168821001D01*
X137507538Y-168821001D01*
X137507538Y-169620999D01*
G37*
G36*
X137507538Y-173570999D02*
G01*
X137277536Y-173570999D01*
X137277536Y-172771001D01*
X137507538Y-172771001D01*
X137507538Y-173570999D01*
G37*
G36*
X138007664Y-169620999D02*
G01*
X137777662Y-169620999D01*
X137777662Y-168821001D01*
X138007664Y-168821001D01*
X138007664Y-169620999D01*
G37*
G36*
X138007664Y-173570999D02*
G01*
X137777662Y-173570999D01*
X137777662Y-172771001D01*
X138007664Y-172771001D01*
X138007664Y-173570999D01*
G37*
G36*
X138507790Y-169620999D02*
G01*
X138277788Y-169620999D01*
X138277788Y-168821001D01*
X138507790Y-168821001D01*
X138507790Y-169620999D01*
G37*
G36*
X138507790Y-173570999D02*
G01*
X138277788Y-173570999D01*
X138277788Y-172771001D01*
X138507790Y-172771001D01*
X138507790Y-173570999D01*
G37*
G36*
X139007916Y-169620999D02*
G01*
X138777914Y-169620999D01*
X138777914Y-168821001D01*
X139007916Y-168821001D01*
X139007916Y-169620999D01*
G37*
G36*
X139007916Y-173570999D02*
G01*
X138777914Y-173570999D01*
X138777914Y-172771001D01*
X139007916Y-172771001D01*
X139007916Y-173570999D01*
G37*
G36*
X140017599Y-170061001D02*
G01*
X139217601Y-170061001D01*
X139217601Y-169830999D01*
X140017599Y-169830999D01*
X140017599Y-170061001D01*
G37*
G36*
X140017599Y-170561000D02*
G01*
X139217601Y-170561000D01*
X139217601Y-170331000D01*
X140017599Y-170331000D01*
X140017599Y-170561000D01*
G37*
G36*
X140017599Y-171060999D02*
G01*
X139217601Y-171060999D01*
X139217601Y-170830999D01*
X140017599Y-170830999D01*
X140017599Y-171060999D01*
G37*
G36*
X140017599Y-171561001D02*
G01*
X139217601Y-171561001D01*
X139217601Y-171331001D01*
X140017599Y-171331001D01*
X140017599Y-171561001D01*
G37*
G36*
X140017599Y-172061000D02*
G01*
X139217601Y-172061000D01*
X139217601Y-171831000D01*
X140017599Y-171831000D01*
X140017599Y-172061000D01*
G37*
G36*
X140017599Y-172561001D02*
G01*
X139217601Y-172561001D01*
X139217601Y-172330999D01*
X140017599Y-172330999D01*
X140017599Y-172561001D01*
G37*
G36*
X136755200Y-172224821D02*
G01*
X136755200Y-172346070D01*
X136492530Y-172346070D01*
X136492530Y-172083400D01*
X136613779Y-172083400D01*
X136755200Y-172224821D01*
G37*
G36*
X136755200Y-170167179D02*
G01*
X136613779Y-170308600D01*
X136492530Y-170308600D01*
X136492530Y-170045930D01*
X136755200Y-170045930D01*
X136755200Y-170167179D01*
G37*
G36*
X138792670Y-170308600D02*
G01*
X138671421Y-170308600D01*
X138530000Y-170167179D01*
X138530000Y-170045930D01*
X138792670Y-170045930D01*
X138792670Y-170308600D01*
G37*
G36*
X138792670Y-172346070D02*
G01*
X138530000Y-172346070D01*
X138530000Y-172224821D01*
X138671421Y-172083400D01*
X138792670Y-172083400D01*
X138792670Y-172346070D01*
G37*
G36*
X136755200Y-170650021D02*
G01*
X136755200Y-170954579D01*
X136613779Y-171096000D01*
X136492530Y-171096000D01*
X136492530Y-170508600D01*
X136613779Y-170508600D01*
X136755200Y-170650021D01*
G37*
G36*
X136755200Y-171437421D02*
G01*
X136755200Y-171741979D01*
X136613779Y-171883400D01*
X136492530Y-171883400D01*
X136492530Y-171296000D01*
X136613779Y-171296000D01*
X136755200Y-171437421D01*
G37*
G36*
X137542600Y-172224821D02*
G01*
X137542600Y-172346070D01*
X136955200Y-172346070D01*
X136955200Y-172224821D01*
X137096621Y-172083400D01*
X137401179Y-172083400D01*
X137542600Y-172224821D01*
G37*
G36*
X137542600Y-170167179D02*
G01*
X137401179Y-170308600D01*
X137096621Y-170308600D01*
X136955200Y-170167179D01*
X136955200Y-170045930D01*
X137542600Y-170045930D01*
X137542600Y-170167179D01*
G37*
G36*
X138330000Y-172224821D02*
G01*
X138330000Y-172346070D01*
X137742600Y-172346070D01*
X137742600Y-172224821D01*
X137884021Y-172083400D01*
X138188579Y-172083400D01*
X138330000Y-172224821D01*
G37*
G36*
X138330000Y-170167179D02*
G01*
X138188579Y-170308600D01*
X137884021Y-170308600D01*
X137742600Y-170167179D01*
X137742600Y-170045930D01*
X138330000Y-170045930D01*
X138330000Y-170167179D01*
G37*
G36*
X138792670Y-171096000D02*
G01*
X138671421Y-171096000D01*
X138530000Y-170954579D01*
X138530000Y-170650021D01*
X138671421Y-170508600D01*
X138792670Y-170508600D01*
X138792670Y-171096000D01*
G37*
G36*
X138792670Y-171883400D02*
G01*
X138671421Y-171883400D01*
X138530000Y-171741979D01*
X138530000Y-171437421D01*
X138671421Y-171296000D01*
X138792670Y-171296000D01*
X138792670Y-171883400D01*
G37*
G36*
X137542600Y-170650021D02*
G01*
X137542600Y-170954579D01*
X137401179Y-171096000D01*
X137096621Y-171096000D01*
X136955200Y-170954579D01*
X136955200Y-170650021D01*
X137096621Y-170508600D01*
X137401179Y-170508600D01*
X137542600Y-170650021D01*
G37*
G36*
X137542600Y-171437421D02*
G01*
X137542600Y-171741979D01*
X137401179Y-171883400D01*
X137096621Y-171883400D01*
X136955200Y-171741979D01*
X136955200Y-171437421D01*
X137096621Y-171296000D01*
X137401179Y-171296000D01*
X137542600Y-171437421D01*
G37*
G36*
X138330000Y-170650021D02*
G01*
X138330000Y-170954579D01*
X138188579Y-171096000D01*
X137884021Y-171096000D01*
X137742600Y-170954579D01*
X137742600Y-170650021D01*
X137884021Y-170508600D01*
X138188579Y-170508600D01*
X138330000Y-170650021D01*
G37*
G36*
X138330000Y-171437421D02*
G01*
X138330000Y-171741979D01*
X138188579Y-171883400D01*
X137884021Y-171883400D01*
X137742600Y-171741979D01*
X137742600Y-171437421D01*
X137884021Y-171296000D01*
X138188579Y-171296000D01*
X138330000Y-171437421D01*
G37*
D11*
X213070000Y-236692000D02*
X211109436Y-236692000D01*
X211109436Y-234731436D01*
X213070000Y-234731436D01*
X213070000Y-236692000D01*
G36*
X213070000Y-236692000D02*
G01*
X211109436Y-236692000D01*
X211109436Y-234731436D01*
X213070000Y-234731436D01*
X213070000Y-236692000D01*
G37*
D10*
G36*
X212800999Y-170315001D02*
G01*
X212001001Y-170315001D01*
X212001001Y-170084999D01*
X212800999Y-170084999D01*
X212800999Y-170315001D01*
G37*
G36*
X212800999Y-170815000D02*
G01*
X212001001Y-170815000D01*
X212001001Y-170585000D01*
X212800999Y-170585000D01*
X212800999Y-170815000D01*
G37*
G36*
X212800999Y-171314999D02*
G01*
X212001001Y-171314999D01*
X212001001Y-171084999D01*
X212800999Y-171084999D01*
X212800999Y-171314999D01*
G37*
G36*
X212800999Y-171815001D02*
G01*
X212001001Y-171815001D01*
X212001001Y-171585001D01*
X212800999Y-171585001D01*
X212800999Y-171815001D01*
G37*
G36*
X212800999Y-172315000D02*
G01*
X212001001Y-172315000D01*
X212001001Y-172085000D01*
X212800999Y-172085000D01*
X212800999Y-172315000D01*
G37*
G36*
X212800999Y-172815001D02*
G01*
X212001001Y-172815001D01*
X212001001Y-172584999D01*
X212800999Y-172584999D01*
X212800999Y-172815001D01*
G37*
G36*
X213240686Y-169874999D02*
G01*
X213010684Y-169874999D01*
X213010684Y-169075001D01*
X213240686Y-169075001D01*
X213240686Y-169874999D01*
G37*
G36*
X213240686Y-173824999D02*
G01*
X213010684Y-173824999D01*
X213010684Y-173025001D01*
X213240686Y-173025001D01*
X213240686Y-173824999D01*
G37*
G36*
X213740812Y-169874999D02*
G01*
X213510810Y-169874999D01*
X213510810Y-169075001D01*
X213740812Y-169075001D01*
X213740812Y-169874999D01*
G37*
G36*
X213740812Y-173824999D02*
G01*
X213510810Y-173824999D01*
X213510810Y-173025001D01*
X213740812Y-173025001D01*
X213740812Y-173824999D01*
G37*
G36*
X214240938Y-169874999D02*
G01*
X214010936Y-169874999D01*
X214010936Y-169075001D01*
X214240938Y-169075001D01*
X214240938Y-169874999D01*
G37*
G36*
X214240938Y-173824999D02*
G01*
X214010936Y-173824999D01*
X214010936Y-173025001D01*
X214240938Y-173025001D01*
X214240938Y-173824999D01*
G37*
G36*
X214741064Y-169874999D02*
G01*
X214511062Y-169874999D01*
X214511062Y-169075001D01*
X214741064Y-169075001D01*
X214741064Y-169874999D01*
G37*
G36*
X214741064Y-173824999D02*
G01*
X214511062Y-173824999D01*
X214511062Y-173025001D01*
X214741064Y-173025001D01*
X214741064Y-173824999D01*
G37*
G36*
X215241190Y-169874999D02*
G01*
X215011188Y-169874999D01*
X215011188Y-169075001D01*
X215241190Y-169075001D01*
X215241190Y-169874999D01*
G37*
G36*
X215241190Y-173824999D02*
G01*
X215011188Y-173824999D01*
X215011188Y-173025001D01*
X215241190Y-173025001D01*
X215241190Y-173824999D01*
G37*
G36*
X215741316Y-169874999D02*
G01*
X215511314Y-169874999D01*
X215511314Y-169075001D01*
X215741316Y-169075001D01*
X215741316Y-169874999D01*
G37*
G36*
X215741316Y-173824999D02*
G01*
X215511314Y-173824999D01*
X215511314Y-173025001D01*
X215741316Y-173025001D01*
X215741316Y-173824999D01*
G37*
G36*
X216750999Y-170315001D02*
G01*
X215951001Y-170315001D01*
X215951001Y-170084999D01*
X216750999Y-170084999D01*
X216750999Y-170315001D01*
G37*
G36*
X216750999Y-170815000D02*
G01*
X215951001Y-170815000D01*
X215951001Y-170585000D01*
X216750999Y-170585000D01*
X216750999Y-170815000D01*
G37*
G36*
X216750999Y-171314999D02*
G01*
X215951001Y-171314999D01*
X215951001Y-171084999D01*
X216750999Y-171084999D01*
X216750999Y-171314999D01*
G37*
G36*
X216750999Y-171815001D02*
G01*
X215951001Y-171815001D01*
X215951001Y-171585001D01*
X216750999Y-171585001D01*
X216750999Y-171815001D01*
G37*
G36*
X216750999Y-172315000D02*
G01*
X215951001Y-172315000D01*
X215951001Y-172085000D01*
X216750999Y-172085000D01*
X216750999Y-172315000D01*
G37*
G36*
X216750999Y-172815001D02*
G01*
X215951001Y-172815001D01*
X215951001Y-172584999D01*
X216750999Y-172584999D01*
X216750999Y-172815001D01*
G37*
G36*
X213488600Y-172478821D02*
G01*
X213488600Y-172600070D01*
X213225930Y-172600070D01*
X213225930Y-172337400D01*
X213347179Y-172337400D01*
X213488600Y-172478821D01*
G37*
G36*
X213488600Y-170421179D02*
G01*
X213347179Y-170562600D01*
X213225930Y-170562600D01*
X213225930Y-170299930D01*
X213488600Y-170299930D01*
X213488600Y-170421179D01*
G37*
G36*
X215526070Y-170562600D02*
G01*
X215404821Y-170562600D01*
X215263400Y-170421179D01*
X215263400Y-170299930D01*
X215526070Y-170299930D01*
X215526070Y-170562600D01*
G37*
G36*
X215526070Y-172600070D02*
G01*
X215263400Y-172600070D01*
X215263400Y-172478821D01*
X215404821Y-172337400D01*
X215526070Y-172337400D01*
X215526070Y-172600070D01*
G37*
G36*
X213488600Y-170904021D02*
G01*
X213488600Y-171208579D01*
X213347179Y-171350000D01*
X213225930Y-171350000D01*
X213225930Y-170762600D01*
X213347179Y-170762600D01*
X213488600Y-170904021D01*
G37*
G36*
X213488600Y-171691421D02*
G01*
X213488600Y-171995979D01*
X213347179Y-172137400D01*
X213225930Y-172137400D01*
X213225930Y-171550000D01*
X213347179Y-171550000D01*
X213488600Y-171691421D01*
G37*
G36*
X214276000Y-172478821D02*
G01*
X214276000Y-172600070D01*
X213688600Y-172600070D01*
X213688600Y-172478821D01*
X213830021Y-172337400D01*
X214134579Y-172337400D01*
X214276000Y-172478821D01*
G37*
G36*
X214276000Y-170421179D02*
G01*
X214134579Y-170562600D01*
X213830021Y-170562600D01*
X213688600Y-170421179D01*
X213688600Y-170299930D01*
X214276000Y-170299930D01*
X214276000Y-170421179D01*
G37*
G36*
X215063400Y-172478821D02*
G01*
X215063400Y-172600070D01*
X214476000Y-172600070D01*
X214476000Y-172478821D01*
X214617421Y-172337400D01*
X214921979Y-172337400D01*
X215063400Y-172478821D01*
G37*
G36*
X215063400Y-170421179D02*
G01*
X214921979Y-170562600D01*
X214617421Y-170562600D01*
X214476000Y-170421179D01*
X214476000Y-170299930D01*
X215063400Y-170299930D01*
X215063400Y-170421179D01*
G37*
G36*
X215526070Y-171350000D02*
G01*
X215404821Y-171350000D01*
X215263400Y-171208579D01*
X215263400Y-170904021D01*
X215404821Y-170762600D01*
X215526070Y-170762600D01*
X215526070Y-171350000D01*
G37*
G36*
X215526070Y-172137400D02*
G01*
X215404821Y-172137400D01*
X215263400Y-171995979D01*
X215263400Y-171691421D01*
X215404821Y-171550000D01*
X215526070Y-171550000D01*
X215526070Y-172137400D01*
G37*
G36*
X214276000Y-170904021D02*
G01*
X214276000Y-171208579D01*
X214134579Y-171350000D01*
X213830021Y-171350000D01*
X213688600Y-171208579D01*
X213688600Y-170904021D01*
X213830021Y-170762600D01*
X214134579Y-170762600D01*
X214276000Y-170904021D01*
G37*
G36*
X214276000Y-171691421D02*
G01*
X214276000Y-171995979D01*
X214134579Y-172137400D01*
X213830021Y-172137400D01*
X213688600Y-171995979D01*
X213688600Y-171691421D01*
X213830021Y-171550000D01*
X214134579Y-171550000D01*
X214276000Y-171691421D01*
G37*
G36*
X215063400Y-170904021D02*
G01*
X215063400Y-171208579D01*
X214921979Y-171350000D01*
X214617421Y-171350000D01*
X214476000Y-171208579D01*
X214476000Y-170904021D01*
X214617421Y-170762600D01*
X214921979Y-170762600D01*
X215063400Y-170904021D01*
G37*
G36*
X215063400Y-171691421D02*
G01*
X215063400Y-171995979D01*
X214921979Y-172137400D01*
X214617421Y-172137400D01*
X214476000Y-171995979D01*
X214476000Y-171691421D01*
X214617421Y-171550000D01*
X214921979Y-171550000D01*
X215063400Y-171691421D01*
G37*
G36*
X175234399Y-197747001D02*
G01*
X174434401Y-197747001D01*
X174434401Y-197516999D01*
X175234399Y-197516999D01*
X175234399Y-197747001D01*
G37*
G36*
X175234399Y-198247000D02*
G01*
X174434401Y-198247000D01*
X174434401Y-198017000D01*
X175234399Y-198017000D01*
X175234399Y-198247000D01*
G37*
G36*
X175234399Y-198746999D02*
G01*
X174434401Y-198746999D01*
X174434401Y-198516999D01*
X175234399Y-198516999D01*
X175234399Y-198746999D01*
G37*
G36*
X175234399Y-199247001D02*
G01*
X174434401Y-199247001D01*
X174434401Y-199017001D01*
X175234399Y-199017001D01*
X175234399Y-199247001D01*
G37*
G36*
X175234399Y-199747000D02*
G01*
X174434401Y-199747000D01*
X174434401Y-199517000D01*
X175234399Y-199517000D01*
X175234399Y-199747000D01*
G37*
G36*
X175234399Y-200247001D02*
G01*
X174434401Y-200247001D01*
X174434401Y-200016999D01*
X175234399Y-200016999D01*
X175234399Y-200247001D01*
G37*
G36*
X175674086Y-197306999D02*
G01*
X175444084Y-197306999D01*
X175444084Y-196507001D01*
X175674086Y-196507001D01*
X175674086Y-197306999D01*
G37*
G36*
X175674086Y-201256999D02*
G01*
X175444084Y-201256999D01*
X175444084Y-200457001D01*
X175674086Y-200457001D01*
X175674086Y-201256999D01*
G37*
G36*
X176174212Y-197306999D02*
G01*
X175944210Y-197306999D01*
X175944210Y-196507001D01*
X176174212Y-196507001D01*
X176174212Y-197306999D01*
G37*
G36*
X176174212Y-201256999D02*
G01*
X175944210Y-201256999D01*
X175944210Y-200457001D01*
X176174212Y-200457001D01*
X176174212Y-201256999D01*
G37*
G36*
X176674338Y-197306999D02*
G01*
X176444336Y-197306999D01*
X176444336Y-196507001D01*
X176674338Y-196507001D01*
X176674338Y-197306999D01*
G37*
G36*
X176674338Y-201256999D02*
G01*
X176444336Y-201256999D01*
X176444336Y-200457001D01*
X176674338Y-200457001D01*
X176674338Y-201256999D01*
G37*
G36*
X177174464Y-197306999D02*
G01*
X176944462Y-197306999D01*
X176944462Y-196507001D01*
X177174464Y-196507001D01*
X177174464Y-197306999D01*
G37*
G36*
X177174464Y-201256999D02*
G01*
X176944462Y-201256999D01*
X176944462Y-200457001D01*
X177174464Y-200457001D01*
X177174464Y-201256999D01*
G37*
G36*
X177674590Y-197306999D02*
G01*
X177444588Y-197306999D01*
X177444588Y-196507001D01*
X177674590Y-196507001D01*
X177674590Y-197306999D01*
G37*
G36*
X177674590Y-201256999D02*
G01*
X177444588Y-201256999D01*
X177444588Y-200457001D01*
X177674590Y-200457001D01*
X177674590Y-201256999D01*
G37*
G36*
X178174716Y-197306999D02*
G01*
X177944714Y-197306999D01*
X177944714Y-196507001D01*
X178174716Y-196507001D01*
X178174716Y-197306999D01*
G37*
G36*
X178174716Y-201256999D02*
G01*
X177944714Y-201256999D01*
X177944714Y-200457001D01*
X178174716Y-200457001D01*
X178174716Y-201256999D01*
G37*
G36*
X179184399Y-197747001D02*
G01*
X178384401Y-197747001D01*
X178384401Y-197516999D01*
X179184399Y-197516999D01*
X179184399Y-197747001D01*
G37*
G36*
X179184399Y-198247000D02*
G01*
X178384401Y-198247000D01*
X178384401Y-198017000D01*
X179184399Y-198017000D01*
X179184399Y-198247000D01*
G37*
G36*
X179184399Y-198746999D02*
G01*
X178384401Y-198746999D01*
X178384401Y-198516999D01*
X179184399Y-198516999D01*
X179184399Y-198746999D01*
G37*
G36*
X179184399Y-199247001D02*
G01*
X178384401Y-199247001D01*
X178384401Y-199017001D01*
X179184399Y-199017001D01*
X179184399Y-199247001D01*
G37*
G36*
X179184399Y-199747000D02*
G01*
X178384401Y-199747000D01*
X178384401Y-199517000D01*
X179184399Y-199517000D01*
X179184399Y-199747000D01*
G37*
G36*
X179184399Y-200247001D02*
G01*
X178384401Y-200247001D01*
X178384401Y-200016999D01*
X179184399Y-200016999D01*
X179184399Y-200247001D01*
G37*
G36*
X175922000Y-199910821D02*
G01*
X175922000Y-200032070D01*
X175659330Y-200032070D01*
X175659330Y-199769400D01*
X175780579Y-199769400D01*
X175922000Y-199910821D01*
G37*
G36*
X175922000Y-197853179D02*
G01*
X175780579Y-197994600D01*
X175659330Y-197994600D01*
X175659330Y-197731930D01*
X175922000Y-197731930D01*
X175922000Y-197853179D01*
G37*
G36*
X177959470Y-197994600D02*
G01*
X177838221Y-197994600D01*
X177696800Y-197853179D01*
X177696800Y-197731930D01*
X177959470Y-197731930D01*
X177959470Y-197994600D01*
G37*
G36*
X177959470Y-200032070D02*
G01*
X177696800Y-200032070D01*
X177696800Y-199910821D01*
X177838221Y-199769400D01*
X177959470Y-199769400D01*
X177959470Y-200032070D01*
G37*
G36*
X175922000Y-198336021D02*
G01*
X175922000Y-198640579D01*
X175780579Y-198782000D01*
X175659330Y-198782000D01*
X175659330Y-198194600D01*
X175780579Y-198194600D01*
X175922000Y-198336021D01*
G37*
G36*
X175922000Y-199123421D02*
G01*
X175922000Y-199427979D01*
X175780579Y-199569400D01*
X175659330Y-199569400D01*
X175659330Y-198982000D01*
X175780579Y-198982000D01*
X175922000Y-199123421D01*
G37*
G36*
X176709400Y-199910821D02*
G01*
X176709400Y-200032070D01*
X176122000Y-200032070D01*
X176122000Y-199910821D01*
X176263421Y-199769400D01*
X176567979Y-199769400D01*
X176709400Y-199910821D01*
G37*
G36*
X176709400Y-197853179D02*
G01*
X176567979Y-197994600D01*
X176263421Y-197994600D01*
X176122000Y-197853179D01*
X176122000Y-197731930D01*
X176709400Y-197731930D01*
X176709400Y-197853179D01*
G37*
G36*
X177496800Y-199910821D02*
G01*
X177496800Y-200032070D01*
X176909400Y-200032070D01*
X176909400Y-199910821D01*
X177050821Y-199769400D01*
X177355379Y-199769400D01*
X177496800Y-199910821D01*
G37*
G36*
X177496800Y-197853179D02*
G01*
X177355379Y-197994600D01*
X177050821Y-197994600D01*
X176909400Y-197853179D01*
X176909400Y-197731930D01*
X177496800Y-197731930D01*
X177496800Y-197853179D01*
G37*
G36*
X177959470Y-198782000D02*
G01*
X177838221Y-198782000D01*
X177696800Y-198640579D01*
X177696800Y-198336021D01*
X177838221Y-198194600D01*
X177959470Y-198194600D01*
X177959470Y-198782000D01*
G37*
G36*
X177959470Y-199569400D02*
G01*
X177838221Y-199569400D01*
X177696800Y-199427979D01*
X177696800Y-199123421D01*
X177838221Y-198982000D01*
X177959470Y-198982000D01*
X177959470Y-199569400D01*
G37*
G36*
X176709400Y-198336021D02*
G01*
X176709400Y-198640579D01*
X176567979Y-198782000D01*
X176263421Y-198782000D01*
X176122000Y-198640579D01*
X176122000Y-198336021D01*
X176263421Y-198194600D01*
X176567979Y-198194600D01*
X176709400Y-198336021D01*
G37*
G36*
X176709400Y-199123421D02*
G01*
X176709400Y-199427979D01*
X176567979Y-199569400D01*
X176263421Y-199569400D01*
X176122000Y-199427979D01*
X176122000Y-199123421D01*
X176263421Y-198982000D01*
X176567979Y-198982000D01*
X176709400Y-199123421D01*
G37*
G36*
X177496800Y-198336021D02*
G01*
X177496800Y-198640579D01*
X177355379Y-198782000D01*
X177050821Y-198782000D01*
X176909400Y-198640579D01*
X176909400Y-198336021D01*
X177050821Y-198194600D01*
X177355379Y-198194600D01*
X177496800Y-198336021D01*
G37*
G36*
X177496800Y-199123421D02*
G01*
X177496800Y-199427979D01*
X177355379Y-199569400D01*
X177050821Y-199569400D01*
X176909400Y-199427979D01*
X176909400Y-199123421D01*
X177050821Y-198982000D01*
X177355379Y-198982000D01*
X177496800Y-199123421D01*
G37*
G36*
X138912399Y-212199601D02*
G01*
X138112401Y-212199601D01*
X138112401Y-211969599D01*
X138912399Y-211969599D01*
X138912399Y-212199601D01*
G37*
G36*
X138912399Y-212699600D02*
G01*
X138112401Y-212699600D01*
X138112401Y-212469600D01*
X138912399Y-212469600D01*
X138912399Y-212699600D01*
G37*
G36*
X138912399Y-213199599D02*
G01*
X138112401Y-213199599D01*
X138112401Y-212969599D01*
X138912399Y-212969599D01*
X138912399Y-213199599D01*
G37*
G36*
X138912399Y-213699601D02*
G01*
X138112401Y-213699601D01*
X138112401Y-213469601D01*
X138912399Y-213469601D01*
X138912399Y-213699601D01*
G37*
G36*
X138912399Y-214199600D02*
G01*
X138112401Y-214199600D01*
X138112401Y-213969600D01*
X138912399Y-213969600D01*
X138912399Y-214199600D01*
G37*
G36*
X138912399Y-214699601D02*
G01*
X138112401Y-214699601D01*
X138112401Y-214469599D01*
X138912399Y-214469599D01*
X138912399Y-214699601D01*
G37*
G36*
X139352086Y-211759599D02*
G01*
X139122084Y-211759599D01*
X139122084Y-210959601D01*
X139352086Y-210959601D01*
X139352086Y-211759599D01*
G37*
G36*
X139352086Y-215709599D02*
G01*
X139122084Y-215709599D01*
X139122084Y-214909601D01*
X139352086Y-214909601D01*
X139352086Y-215709599D01*
G37*
G36*
X139852212Y-211759599D02*
G01*
X139622210Y-211759599D01*
X139622210Y-210959601D01*
X139852212Y-210959601D01*
X139852212Y-211759599D01*
G37*
G36*
X139852212Y-215709599D02*
G01*
X139622210Y-215709599D01*
X139622210Y-214909601D01*
X139852212Y-214909601D01*
X139852212Y-215709599D01*
G37*
G36*
X140352338Y-211759599D02*
G01*
X140122336Y-211759599D01*
X140122336Y-210959601D01*
X140352338Y-210959601D01*
X140352338Y-211759599D01*
G37*
G36*
X140352338Y-215709599D02*
G01*
X140122336Y-215709599D01*
X140122336Y-214909601D01*
X140352338Y-214909601D01*
X140352338Y-215709599D01*
G37*
G36*
X140852464Y-211759599D02*
G01*
X140622462Y-211759599D01*
X140622462Y-210959601D01*
X140852464Y-210959601D01*
X140852464Y-211759599D01*
G37*
G36*
X140852464Y-215709599D02*
G01*
X140622462Y-215709599D01*
X140622462Y-214909601D01*
X140852464Y-214909601D01*
X140852464Y-215709599D01*
G37*
G36*
X141352590Y-211759599D02*
G01*
X141122588Y-211759599D01*
X141122588Y-210959601D01*
X141352590Y-210959601D01*
X141352590Y-211759599D01*
G37*
G36*
X141352590Y-215709599D02*
G01*
X141122588Y-215709599D01*
X141122588Y-214909601D01*
X141352590Y-214909601D01*
X141352590Y-215709599D01*
G37*
G36*
X141852716Y-211759599D02*
G01*
X141622714Y-211759599D01*
X141622714Y-210959601D01*
X141852716Y-210959601D01*
X141852716Y-211759599D01*
G37*
G36*
X141852716Y-215709599D02*
G01*
X141622714Y-215709599D01*
X141622714Y-214909601D01*
X141852716Y-214909601D01*
X141852716Y-215709599D01*
G37*
G36*
X142862399Y-212199601D02*
G01*
X142062401Y-212199601D01*
X142062401Y-211969599D01*
X142862399Y-211969599D01*
X142862399Y-212199601D01*
G37*
G36*
X142862399Y-212699600D02*
G01*
X142062401Y-212699600D01*
X142062401Y-212469600D01*
X142862399Y-212469600D01*
X142862399Y-212699600D01*
G37*
G36*
X142862399Y-213199599D02*
G01*
X142062401Y-213199599D01*
X142062401Y-212969599D01*
X142862399Y-212969599D01*
X142862399Y-213199599D01*
G37*
G36*
X142862399Y-213699601D02*
G01*
X142062401Y-213699601D01*
X142062401Y-213469601D01*
X142862399Y-213469601D01*
X142862399Y-213699601D01*
G37*
G36*
X142862399Y-214199600D02*
G01*
X142062401Y-214199600D01*
X142062401Y-213969600D01*
X142862399Y-213969600D01*
X142862399Y-214199600D01*
G37*
G36*
X142862399Y-214699601D02*
G01*
X142062401Y-214699601D01*
X142062401Y-214469599D01*
X142862399Y-214469599D01*
X142862399Y-214699601D01*
G37*
G36*
X139600000Y-214363421D02*
G01*
X139600000Y-214484670D01*
X139337330Y-214484670D01*
X139337330Y-214222000D01*
X139458579Y-214222000D01*
X139600000Y-214363421D01*
G37*
G36*
X139600000Y-212305779D02*
G01*
X139458579Y-212447200D01*
X139337330Y-212447200D01*
X139337330Y-212184530D01*
X139600000Y-212184530D01*
X139600000Y-212305779D01*
G37*
G36*
X141637470Y-212447200D02*
G01*
X141516221Y-212447200D01*
X141374800Y-212305779D01*
X141374800Y-212184530D01*
X141637470Y-212184530D01*
X141637470Y-212447200D01*
G37*
G36*
X141637470Y-214484670D02*
G01*
X141374800Y-214484670D01*
X141374800Y-214363421D01*
X141516221Y-214222000D01*
X141637470Y-214222000D01*
X141637470Y-214484670D01*
G37*
G36*
X139600000Y-212788621D02*
G01*
X139600000Y-213093179D01*
X139458579Y-213234600D01*
X139337330Y-213234600D01*
X139337330Y-212647200D01*
X139458579Y-212647200D01*
X139600000Y-212788621D01*
G37*
G36*
X139600000Y-213576021D02*
G01*
X139600000Y-213880579D01*
X139458579Y-214022000D01*
X139337330Y-214022000D01*
X139337330Y-213434600D01*
X139458579Y-213434600D01*
X139600000Y-213576021D01*
G37*
G36*
X140387400Y-214363421D02*
G01*
X140387400Y-214484670D01*
X139800000Y-214484670D01*
X139800000Y-214363421D01*
X139941421Y-214222000D01*
X140245979Y-214222000D01*
X140387400Y-214363421D01*
G37*
G36*
X140387400Y-212305779D02*
G01*
X140245979Y-212447200D01*
X139941421Y-212447200D01*
X139800000Y-212305779D01*
X139800000Y-212184530D01*
X140387400Y-212184530D01*
X140387400Y-212305779D01*
G37*
G36*
X141174800Y-214363421D02*
G01*
X141174800Y-214484670D01*
X140587400Y-214484670D01*
X140587400Y-214363421D01*
X140728821Y-214222000D01*
X141033379Y-214222000D01*
X141174800Y-214363421D01*
G37*
G36*
X141174800Y-212305779D02*
G01*
X141033379Y-212447200D01*
X140728821Y-212447200D01*
X140587400Y-212305779D01*
X140587400Y-212184530D01*
X141174800Y-212184530D01*
X141174800Y-212305779D01*
G37*
G36*
X141637470Y-213234600D02*
G01*
X141516221Y-213234600D01*
X141374800Y-213093179D01*
X141374800Y-212788621D01*
X141516221Y-212647200D01*
X141637470Y-212647200D01*
X141637470Y-213234600D01*
G37*
G36*
X141637470Y-214022000D02*
G01*
X141516221Y-214022000D01*
X141374800Y-213880579D01*
X141374800Y-213576021D01*
X141516221Y-213434600D01*
X141637470Y-213434600D01*
X141637470Y-214022000D01*
G37*
G36*
X140387400Y-212788621D02*
G01*
X140387400Y-213093179D01*
X140245979Y-213234600D01*
X139941421Y-213234600D01*
X139800000Y-213093179D01*
X139800000Y-212788621D01*
X139941421Y-212647200D01*
X140245979Y-212647200D01*
X140387400Y-212788621D01*
G37*
G36*
X140387400Y-213576021D02*
G01*
X140387400Y-213880579D01*
X140245979Y-214022000D01*
X139941421Y-214022000D01*
X139800000Y-213880579D01*
X139800000Y-213576021D01*
X139941421Y-213434600D01*
X140245979Y-213434600D01*
X140387400Y-213576021D01*
G37*
G36*
X141174800Y-212788621D02*
G01*
X141174800Y-213093179D01*
X141033379Y-213234600D01*
X140728821Y-213234600D01*
X140587400Y-213093179D01*
X140587400Y-212788621D01*
X140728821Y-212647200D01*
X141033379Y-212647200D01*
X141174800Y-212788621D01*
G37*
G36*
X141174800Y-213576021D02*
G01*
X141174800Y-213880579D01*
X141033379Y-214022000D01*
X140728821Y-214022000D01*
X140587400Y-213880579D01*
X140587400Y-213576021D01*
X140728821Y-213434600D01*
X141033379Y-213434600D01*
X141174800Y-213576021D01*
G37*
G36*
X159486399Y-212250401D02*
G01*
X158686401Y-212250401D01*
X158686401Y-212020399D01*
X159486399Y-212020399D01*
X159486399Y-212250401D01*
G37*
G36*
X159486399Y-212750400D02*
G01*
X158686401Y-212750400D01*
X158686401Y-212520400D01*
X159486399Y-212520400D01*
X159486399Y-212750400D01*
G37*
G36*
X159486399Y-213250399D02*
G01*
X158686401Y-213250399D01*
X158686401Y-213020399D01*
X159486399Y-213020399D01*
X159486399Y-213250399D01*
G37*
G36*
X159486399Y-213750401D02*
G01*
X158686401Y-213750401D01*
X158686401Y-213520401D01*
X159486399Y-213520401D01*
X159486399Y-213750401D01*
G37*
G36*
X159486399Y-214250400D02*
G01*
X158686401Y-214250400D01*
X158686401Y-214020400D01*
X159486399Y-214020400D01*
X159486399Y-214250400D01*
G37*
G36*
X159486399Y-214750401D02*
G01*
X158686401Y-214750401D01*
X158686401Y-214520399D01*
X159486399Y-214520399D01*
X159486399Y-214750401D01*
G37*
G36*
X159926086Y-211810399D02*
G01*
X159696084Y-211810399D01*
X159696084Y-211010401D01*
X159926086Y-211010401D01*
X159926086Y-211810399D01*
G37*
G36*
X159926086Y-215760399D02*
G01*
X159696084Y-215760399D01*
X159696084Y-214960401D01*
X159926086Y-214960401D01*
X159926086Y-215760399D01*
G37*
G36*
X160426212Y-211810399D02*
G01*
X160196210Y-211810399D01*
X160196210Y-211010401D01*
X160426212Y-211010401D01*
X160426212Y-211810399D01*
G37*
G36*
X160426212Y-215760399D02*
G01*
X160196210Y-215760399D01*
X160196210Y-214960401D01*
X160426212Y-214960401D01*
X160426212Y-215760399D01*
G37*
G36*
X160926338Y-211810399D02*
G01*
X160696336Y-211810399D01*
X160696336Y-211010401D01*
X160926338Y-211010401D01*
X160926338Y-211810399D01*
G37*
G36*
X160926338Y-215760399D02*
G01*
X160696336Y-215760399D01*
X160696336Y-214960401D01*
X160926338Y-214960401D01*
X160926338Y-215760399D01*
G37*
G36*
X161426464Y-211810399D02*
G01*
X161196462Y-211810399D01*
X161196462Y-211010401D01*
X161426464Y-211010401D01*
X161426464Y-211810399D01*
G37*
G36*
X161426464Y-215760399D02*
G01*
X161196462Y-215760399D01*
X161196462Y-214960401D01*
X161426464Y-214960401D01*
X161426464Y-215760399D01*
G37*
G36*
X161926590Y-211810399D02*
G01*
X161696588Y-211810399D01*
X161696588Y-211010401D01*
X161926590Y-211010401D01*
X161926590Y-211810399D01*
G37*
G36*
X161926590Y-215760399D02*
G01*
X161696588Y-215760399D01*
X161696588Y-214960401D01*
X161926590Y-214960401D01*
X161926590Y-215760399D01*
G37*
G36*
X162426716Y-211810399D02*
G01*
X162196714Y-211810399D01*
X162196714Y-211010401D01*
X162426716Y-211010401D01*
X162426716Y-211810399D01*
G37*
G36*
X162426716Y-215760399D02*
G01*
X162196714Y-215760399D01*
X162196714Y-214960401D01*
X162426716Y-214960401D01*
X162426716Y-215760399D01*
G37*
G36*
X163436399Y-212250401D02*
G01*
X162636401Y-212250401D01*
X162636401Y-212020399D01*
X163436399Y-212020399D01*
X163436399Y-212250401D01*
G37*
G36*
X163436399Y-212750400D02*
G01*
X162636401Y-212750400D01*
X162636401Y-212520400D01*
X163436399Y-212520400D01*
X163436399Y-212750400D01*
G37*
G36*
X163436399Y-213250399D02*
G01*
X162636401Y-213250399D01*
X162636401Y-213020399D01*
X163436399Y-213020399D01*
X163436399Y-213250399D01*
G37*
G36*
X163436399Y-213750401D02*
G01*
X162636401Y-213750401D01*
X162636401Y-213520401D01*
X163436399Y-213520401D01*
X163436399Y-213750401D01*
G37*
G36*
X163436399Y-214250400D02*
G01*
X162636401Y-214250400D01*
X162636401Y-214020400D01*
X163436399Y-214020400D01*
X163436399Y-214250400D01*
G37*
G36*
X163436399Y-214750401D02*
G01*
X162636401Y-214750401D01*
X162636401Y-214520399D01*
X163436399Y-214520399D01*
X163436399Y-214750401D01*
G37*
G36*
X160174000Y-214414221D02*
G01*
X160174000Y-214535470D01*
X159911330Y-214535470D01*
X159911330Y-214272800D01*
X160032579Y-214272800D01*
X160174000Y-214414221D01*
G37*
G36*
X160174000Y-212356579D02*
G01*
X160032579Y-212498000D01*
X159911330Y-212498000D01*
X159911330Y-212235330D01*
X160174000Y-212235330D01*
X160174000Y-212356579D01*
G37*
G36*
X162211470Y-212498000D02*
G01*
X162090221Y-212498000D01*
X161948800Y-212356579D01*
X161948800Y-212235330D01*
X162211470Y-212235330D01*
X162211470Y-212498000D01*
G37*
G36*
X162211470Y-214535470D02*
G01*
X161948800Y-214535470D01*
X161948800Y-214414221D01*
X162090221Y-214272800D01*
X162211470Y-214272800D01*
X162211470Y-214535470D01*
G37*
G36*
X160174000Y-212839421D02*
G01*
X160174000Y-213143979D01*
X160032579Y-213285400D01*
X159911330Y-213285400D01*
X159911330Y-212698000D01*
X160032579Y-212698000D01*
X160174000Y-212839421D01*
G37*
G36*
X160174000Y-213626821D02*
G01*
X160174000Y-213931379D01*
X160032579Y-214072800D01*
X159911330Y-214072800D01*
X159911330Y-213485400D01*
X160032579Y-213485400D01*
X160174000Y-213626821D01*
G37*
G36*
X160961400Y-214414221D02*
G01*
X160961400Y-214535470D01*
X160374000Y-214535470D01*
X160374000Y-214414221D01*
X160515421Y-214272800D01*
X160819979Y-214272800D01*
X160961400Y-214414221D01*
G37*
G36*
X160961400Y-212356579D02*
G01*
X160819979Y-212498000D01*
X160515421Y-212498000D01*
X160374000Y-212356579D01*
X160374000Y-212235330D01*
X160961400Y-212235330D01*
X160961400Y-212356579D01*
G37*
G36*
X161748800Y-214414221D02*
G01*
X161748800Y-214535470D01*
X161161400Y-214535470D01*
X161161400Y-214414221D01*
X161302821Y-214272800D01*
X161607379Y-214272800D01*
X161748800Y-214414221D01*
G37*
G36*
X161748800Y-212356579D02*
G01*
X161607379Y-212498000D01*
X161302821Y-212498000D01*
X161161400Y-212356579D01*
X161161400Y-212235330D01*
X161748800Y-212235330D01*
X161748800Y-212356579D01*
G37*
G36*
X162211470Y-213285400D02*
G01*
X162090221Y-213285400D01*
X161948800Y-213143979D01*
X161948800Y-212839421D01*
X162090221Y-212698000D01*
X162211470Y-212698000D01*
X162211470Y-213285400D01*
G37*
G36*
X162211470Y-214072800D02*
G01*
X162090221Y-214072800D01*
X161948800Y-213931379D01*
X161948800Y-213626821D01*
X162090221Y-213485400D01*
X162211470Y-213485400D01*
X162211470Y-214072800D01*
G37*
G36*
X160961400Y-212839421D02*
G01*
X160961400Y-213143979D01*
X160819979Y-213285400D01*
X160515421Y-213285400D01*
X160374000Y-213143979D01*
X160374000Y-212839421D01*
X160515421Y-212698000D01*
X160819979Y-212698000D01*
X160961400Y-212839421D01*
G37*
G36*
X160961400Y-213626821D02*
G01*
X160961400Y-213931379D01*
X160819979Y-214072800D01*
X160515421Y-214072800D01*
X160374000Y-213931379D01*
X160374000Y-213626821D01*
X160515421Y-213485400D01*
X160819979Y-213485400D01*
X160961400Y-213626821D01*
G37*
G36*
X161748800Y-212839421D02*
G01*
X161748800Y-213143979D01*
X161607379Y-213285400D01*
X161302821Y-213285400D01*
X161161400Y-213143979D01*
X161161400Y-212839421D01*
X161302821Y-212698000D01*
X161607379Y-212698000D01*
X161748800Y-212839421D01*
G37*
G36*
X161748800Y-213626821D02*
G01*
X161748800Y-213931379D01*
X161607379Y-214072800D01*
X161302821Y-214072800D01*
X161161400Y-213931379D01*
X161161400Y-213626821D01*
X161302821Y-213485400D01*
X161607379Y-213485400D01*
X161748800Y-213626821D01*
G37*
G36*
X208990999Y-190889001D02*
G01*
X208191001Y-190889001D01*
X208191001Y-190658999D01*
X208990999Y-190658999D01*
X208990999Y-190889001D01*
G37*
G36*
X208990999Y-191389000D02*
G01*
X208191001Y-191389000D01*
X208191001Y-191159000D01*
X208990999Y-191159000D01*
X208990999Y-191389000D01*
G37*
G36*
X208990999Y-191888999D02*
G01*
X208191001Y-191888999D01*
X208191001Y-191658999D01*
X208990999Y-191658999D01*
X208990999Y-191888999D01*
G37*
G36*
X208990999Y-192389001D02*
G01*
X208191001Y-192389001D01*
X208191001Y-192159001D01*
X208990999Y-192159001D01*
X208990999Y-192389001D01*
G37*
G36*
X208990999Y-192889000D02*
G01*
X208191001Y-192889000D01*
X208191001Y-192659000D01*
X208990999Y-192659000D01*
X208990999Y-192889000D01*
G37*
G36*
X208990999Y-193389001D02*
G01*
X208191001Y-193389001D01*
X208191001Y-193158999D01*
X208990999Y-193158999D01*
X208990999Y-193389001D01*
G37*
G36*
X209430686Y-190448999D02*
G01*
X209200684Y-190448999D01*
X209200684Y-189649001D01*
X209430686Y-189649001D01*
X209430686Y-190448999D01*
G37*
G36*
X209430686Y-194398999D02*
G01*
X209200684Y-194398999D01*
X209200684Y-193599001D01*
X209430686Y-193599001D01*
X209430686Y-194398999D01*
G37*
G36*
X209930812Y-190448999D02*
G01*
X209700810Y-190448999D01*
X209700810Y-189649001D01*
X209930812Y-189649001D01*
X209930812Y-190448999D01*
G37*
G36*
X209930812Y-194398999D02*
G01*
X209700810Y-194398999D01*
X209700810Y-193599001D01*
X209930812Y-193599001D01*
X209930812Y-194398999D01*
G37*
G36*
X210430938Y-190448999D02*
G01*
X210200936Y-190448999D01*
X210200936Y-189649001D01*
X210430938Y-189649001D01*
X210430938Y-190448999D01*
G37*
G36*
X210430938Y-194398999D02*
G01*
X210200936Y-194398999D01*
X210200936Y-193599001D01*
X210430938Y-193599001D01*
X210430938Y-194398999D01*
G37*
G36*
X210931064Y-190448999D02*
G01*
X210701062Y-190448999D01*
X210701062Y-189649001D01*
X210931064Y-189649001D01*
X210931064Y-190448999D01*
G37*
G36*
X210931064Y-194398999D02*
G01*
X210701062Y-194398999D01*
X210701062Y-193599001D01*
X210931064Y-193599001D01*
X210931064Y-194398999D01*
G37*
G36*
X211431190Y-190448999D02*
G01*
X211201188Y-190448999D01*
X211201188Y-189649001D01*
X211431190Y-189649001D01*
X211431190Y-190448999D01*
G37*
G36*
X211431190Y-194398999D02*
G01*
X211201188Y-194398999D01*
X211201188Y-193599001D01*
X211431190Y-193599001D01*
X211431190Y-194398999D01*
G37*
G36*
X211931316Y-190448999D02*
G01*
X211701314Y-190448999D01*
X211701314Y-189649001D01*
X211931316Y-189649001D01*
X211931316Y-190448999D01*
G37*
G36*
X211931316Y-194398999D02*
G01*
X211701314Y-194398999D01*
X211701314Y-193599001D01*
X211931316Y-193599001D01*
X211931316Y-194398999D01*
G37*
G36*
X212940999Y-190889001D02*
G01*
X212141001Y-190889001D01*
X212141001Y-190658999D01*
X212940999Y-190658999D01*
X212940999Y-190889001D01*
G37*
G36*
X212940999Y-191389000D02*
G01*
X212141001Y-191389000D01*
X212141001Y-191159000D01*
X212940999Y-191159000D01*
X212940999Y-191389000D01*
G37*
G36*
X212940999Y-191888999D02*
G01*
X212141001Y-191888999D01*
X212141001Y-191658999D01*
X212940999Y-191658999D01*
X212940999Y-191888999D01*
G37*
G36*
X212940999Y-192389001D02*
G01*
X212141001Y-192389001D01*
X212141001Y-192159001D01*
X212940999Y-192159001D01*
X212940999Y-192389001D01*
G37*
G36*
X212940999Y-192889000D02*
G01*
X212141001Y-192889000D01*
X212141001Y-192659000D01*
X212940999Y-192659000D01*
X212940999Y-192889000D01*
G37*
G36*
X212940999Y-193389001D02*
G01*
X212141001Y-193389001D01*
X212141001Y-193158999D01*
X212940999Y-193158999D01*
X212940999Y-193389001D01*
G37*
G36*
X209678600Y-193052821D02*
G01*
X209678600Y-193174070D01*
X209415930Y-193174070D01*
X209415930Y-192911400D01*
X209537179Y-192911400D01*
X209678600Y-193052821D01*
G37*
G36*
X209678600Y-190995179D02*
G01*
X209537179Y-191136600D01*
X209415930Y-191136600D01*
X209415930Y-190873930D01*
X209678600Y-190873930D01*
X209678600Y-190995179D01*
G37*
G36*
X211716070Y-191136600D02*
G01*
X211594821Y-191136600D01*
X211453400Y-190995179D01*
X211453400Y-190873930D01*
X211716070Y-190873930D01*
X211716070Y-191136600D01*
G37*
G36*
X211716070Y-193174070D02*
G01*
X211453400Y-193174070D01*
X211453400Y-193052821D01*
X211594821Y-192911400D01*
X211716070Y-192911400D01*
X211716070Y-193174070D01*
G37*
G36*
X209678600Y-191478021D02*
G01*
X209678600Y-191782579D01*
X209537179Y-191924000D01*
X209415930Y-191924000D01*
X209415930Y-191336600D01*
X209537179Y-191336600D01*
X209678600Y-191478021D01*
G37*
G36*
X209678600Y-192265421D02*
G01*
X209678600Y-192569979D01*
X209537179Y-192711400D01*
X209415930Y-192711400D01*
X209415930Y-192124000D01*
X209537179Y-192124000D01*
X209678600Y-192265421D01*
G37*
G36*
X210466000Y-193052821D02*
G01*
X210466000Y-193174070D01*
X209878600Y-193174070D01*
X209878600Y-193052821D01*
X210020021Y-192911400D01*
X210324579Y-192911400D01*
X210466000Y-193052821D01*
G37*
G36*
X210466000Y-190995179D02*
G01*
X210324579Y-191136600D01*
X210020021Y-191136600D01*
X209878600Y-190995179D01*
X209878600Y-190873930D01*
X210466000Y-190873930D01*
X210466000Y-190995179D01*
G37*
G36*
X211253400Y-193052821D02*
G01*
X211253400Y-193174070D01*
X210666000Y-193174070D01*
X210666000Y-193052821D01*
X210807421Y-192911400D01*
X211111979Y-192911400D01*
X211253400Y-193052821D01*
G37*
G36*
X211253400Y-190995179D02*
G01*
X211111979Y-191136600D01*
X210807421Y-191136600D01*
X210666000Y-190995179D01*
X210666000Y-190873930D01*
X211253400Y-190873930D01*
X211253400Y-190995179D01*
G37*
G36*
X211716070Y-191924000D02*
G01*
X211594821Y-191924000D01*
X211453400Y-191782579D01*
X211453400Y-191478021D01*
X211594821Y-191336600D01*
X211716070Y-191336600D01*
X211716070Y-191924000D01*
G37*
G36*
X211716070Y-192711400D02*
G01*
X211594821Y-192711400D01*
X211453400Y-192569979D01*
X211453400Y-192265421D01*
X211594821Y-192124000D01*
X211716070Y-192124000D01*
X211716070Y-192711400D01*
G37*
G36*
X210466000Y-191478021D02*
G01*
X210466000Y-191782579D01*
X210324579Y-191924000D01*
X210020021Y-191924000D01*
X209878600Y-191782579D01*
X209878600Y-191478021D01*
X210020021Y-191336600D01*
X210324579Y-191336600D01*
X210466000Y-191478021D01*
G37*
G36*
X210466000Y-192265421D02*
G01*
X210466000Y-192569979D01*
X210324579Y-192711400D01*
X210020021Y-192711400D01*
X209878600Y-192569979D01*
X209878600Y-192265421D01*
X210020021Y-192124000D01*
X210324579Y-192124000D01*
X210466000Y-192265421D01*
G37*
G36*
X211253400Y-191478021D02*
G01*
X211253400Y-191782579D01*
X211111979Y-191924000D01*
X210807421Y-191924000D01*
X210666000Y-191782579D01*
X210666000Y-191478021D01*
X210807421Y-191336600D01*
X211111979Y-191336600D01*
X211253400Y-191478021D01*
G37*
G36*
X211253400Y-192265421D02*
G01*
X211253400Y-192569979D01*
X211111979Y-192711400D01*
X210807421Y-192711400D01*
X210666000Y-192569979D01*
X210666000Y-192265421D01*
X210807421Y-192124000D01*
X211111979Y-192124000D01*
X211253400Y-192265421D01*
G37*
G36*
X190448999Y-212479001D02*
G01*
X189649001Y-212479001D01*
X189649001Y-212248999D01*
X190448999Y-212248999D01*
X190448999Y-212479001D01*
G37*
G36*
X190448999Y-212979000D02*
G01*
X189649001Y-212979000D01*
X189649001Y-212749000D01*
X190448999Y-212749000D01*
X190448999Y-212979000D01*
G37*
G36*
X190448999Y-213478999D02*
G01*
X189649001Y-213478999D01*
X189649001Y-213248999D01*
X190448999Y-213248999D01*
X190448999Y-213478999D01*
G37*
G36*
X190448999Y-213979001D02*
G01*
X189649001Y-213979001D01*
X189649001Y-213749001D01*
X190448999Y-213749001D01*
X190448999Y-213979001D01*
G37*
G36*
X190448999Y-214479000D02*
G01*
X189649001Y-214479000D01*
X189649001Y-214249000D01*
X190448999Y-214249000D01*
X190448999Y-214479000D01*
G37*
G36*
X190448999Y-214979001D02*
G01*
X189649001Y-214979001D01*
X189649001Y-214748999D01*
X190448999Y-214748999D01*
X190448999Y-214979001D01*
G37*
G36*
X190888686Y-212038999D02*
G01*
X190658684Y-212038999D01*
X190658684Y-211239001D01*
X190888686Y-211239001D01*
X190888686Y-212038999D01*
G37*
G36*
X190888686Y-215988999D02*
G01*
X190658684Y-215988999D01*
X190658684Y-215189001D01*
X190888686Y-215189001D01*
X190888686Y-215988999D01*
G37*
G36*
X191388812Y-212038999D02*
G01*
X191158810Y-212038999D01*
X191158810Y-211239001D01*
X191388812Y-211239001D01*
X191388812Y-212038999D01*
G37*
G36*
X191388812Y-215988999D02*
G01*
X191158810Y-215988999D01*
X191158810Y-215189001D01*
X191388812Y-215189001D01*
X191388812Y-215988999D01*
G37*
G36*
X191888938Y-212038999D02*
G01*
X191658936Y-212038999D01*
X191658936Y-211239001D01*
X191888938Y-211239001D01*
X191888938Y-212038999D01*
G37*
G36*
X191888938Y-215988999D02*
G01*
X191658936Y-215988999D01*
X191658936Y-215189001D01*
X191888938Y-215189001D01*
X191888938Y-215988999D01*
G37*
G36*
X192389064Y-212038999D02*
G01*
X192159062Y-212038999D01*
X192159062Y-211239001D01*
X192389064Y-211239001D01*
X192389064Y-212038999D01*
G37*
G36*
X192389064Y-215988999D02*
G01*
X192159062Y-215988999D01*
X192159062Y-215189001D01*
X192389064Y-215189001D01*
X192389064Y-215988999D01*
G37*
G36*
X192889190Y-212038999D02*
G01*
X192659188Y-212038999D01*
X192659188Y-211239001D01*
X192889190Y-211239001D01*
X192889190Y-212038999D01*
G37*
G36*
X192889190Y-215988999D02*
G01*
X192659188Y-215988999D01*
X192659188Y-215189001D01*
X192889190Y-215189001D01*
X192889190Y-215988999D01*
G37*
G36*
X193389316Y-212038999D02*
G01*
X193159314Y-212038999D01*
X193159314Y-211239001D01*
X193389316Y-211239001D01*
X193389316Y-212038999D01*
G37*
G36*
X193389316Y-215988999D02*
G01*
X193159314Y-215988999D01*
X193159314Y-215189001D01*
X193389316Y-215189001D01*
X193389316Y-215988999D01*
G37*
G36*
X194398999Y-212479001D02*
G01*
X193599001Y-212479001D01*
X193599001Y-212248999D01*
X194398999Y-212248999D01*
X194398999Y-212479001D01*
G37*
G36*
X194398999Y-212979000D02*
G01*
X193599001Y-212979000D01*
X193599001Y-212749000D01*
X194398999Y-212749000D01*
X194398999Y-212979000D01*
G37*
G36*
X194398999Y-213478999D02*
G01*
X193599001Y-213478999D01*
X193599001Y-213248999D01*
X194398999Y-213248999D01*
X194398999Y-213478999D01*
G37*
G36*
X194398999Y-213979001D02*
G01*
X193599001Y-213979001D01*
X193599001Y-213749001D01*
X194398999Y-213749001D01*
X194398999Y-213979001D01*
G37*
G36*
X194398999Y-214479000D02*
G01*
X193599001Y-214479000D01*
X193599001Y-214249000D01*
X194398999Y-214249000D01*
X194398999Y-214479000D01*
G37*
G36*
X194398999Y-214979001D02*
G01*
X193599001Y-214979001D01*
X193599001Y-214748999D01*
X194398999Y-214748999D01*
X194398999Y-214979001D01*
G37*
G36*
X191136600Y-214642821D02*
G01*
X191136600Y-214764070D01*
X190873930Y-214764070D01*
X190873930Y-214501400D01*
X190995179Y-214501400D01*
X191136600Y-214642821D01*
G37*
G36*
X191136600Y-212585179D02*
G01*
X190995179Y-212726600D01*
X190873930Y-212726600D01*
X190873930Y-212463930D01*
X191136600Y-212463930D01*
X191136600Y-212585179D01*
G37*
G36*
X193174070Y-212726600D02*
G01*
X193052821Y-212726600D01*
X192911400Y-212585179D01*
X192911400Y-212463930D01*
X193174070Y-212463930D01*
X193174070Y-212726600D01*
G37*
G36*
X193174070Y-214764070D02*
G01*
X192911400Y-214764070D01*
X192911400Y-214642821D01*
X193052821Y-214501400D01*
X193174070Y-214501400D01*
X193174070Y-214764070D01*
G37*
G36*
X191136600Y-213068021D02*
G01*
X191136600Y-213372579D01*
X190995179Y-213514000D01*
X190873930Y-213514000D01*
X190873930Y-212926600D01*
X190995179Y-212926600D01*
X191136600Y-213068021D01*
G37*
G36*
X191136600Y-213855421D02*
G01*
X191136600Y-214159979D01*
X190995179Y-214301400D01*
X190873930Y-214301400D01*
X190873930Y-213714000D01*
X190995179Y-213714000D01*
X191136600Y-213855421D01*
G37*
G36*
X191924000Y-214642821D02*
G01*
X191924000Y-214764070D01*
X191336600Y-214764070D01*
X191336600Y-214642821D01*
X191478021Y-214501400D01*
X191782579Y-214501400D01*
X191924000Y-214642821D01*
G37*
G36*
X191924000Y-212585179D02*
G01*
X191782579Y-212726600D01*
X191478021Y-212726600D01*
X191336600Y-212585179D01*
X191336600Y-212463930D01*
X191924000Y-212463930D01*
X191924000Y-212585179D01*
G37*
G36*
X192711400Y-214642821D02*
G01*
X192711400Y-214764070D01*
X192124000Y-214764070D01*
X192124000Y-214642821D01*
X192265421Y-214501400D01*
X192569979Y-214501400D01*
X192711400Y-214642821D01*
G37*
G36*
X192711400Y-212585179D02*
G01*
X192569979Y-212726600D01*
X192265421Y-212726600D01*
X192124000Y-212585179D01*
X192124000Y-212463930D01*
X192711400Y-212463930D01*
X192711400Y-212585179D01*
G37*
G36*
X193174070Y-213514000D02*
G01*
X193052821Y-213514000D01*
X192911400Y-213372579D01*
X192911400Y-213068021D01*
X193052821Y-212926600D01*
X193174070Y-212926600D01*
X193174070Y-213514000D01*
G37*
G36*
X193174070Y-214301400D02*
G01*
X193052821Y-214301400D01*
X192911400Y-214159979D01*
X192911400Y-213855421D01*
X193052821Y-213714000D01*
X193174070Y-213714000D01*
X193174070Y-214301400D01*
G37*
G36*
X191924000Y-213068021D02*
G01*
X191924000Y-213372579D01*
X191782579Y-213514000D01*
X191478021Y-213514000D01*
X191336600Y-213372579D01*
X191336600Y-213068021D01*
X191478021Y-212926600D01*
X191782579Y-212926600D01*
X191924000Y-213068021D01*
G37*
G36*
X191924000Y-213855421D02*
G01*
X191924000Y-214159979D01*
X191782579Y-214301400D01*
X191478021Y-214301400D01*
X191336600Y-214159979D01*
X191336600Y-213855421D01*
X191478021Y-213714000D01*
X191782579Y-213714000D01*
X191924000Y-213855421D01*
G37*
G36*
X192711400Y-213068021D02*
G01*
X192711400Y-213372579D01*
X192569979Y-213514000D01*
X192265421Y-213514000D01*
X192124000Y-213372579D01*
X192124000Y-213068021D01*
X192265421Y-212926600D01*
X192569979Y-212926600D01*
X192711400Y-213068021D01*
G37*
G36*
X192711400Y-213855421D02*
G01*
X192711400Y-214159979D01*
X192569979Y-214301400D01*
X192265421Y-214301400D01*
X192124000Y-214159979D01*
X192124000Y-213855421D01*
X192265421Y-213714000D01*
X192569979Y-213714000D01*
X192711400Y-213855421D01*
G37*
G36*
X174954999Y-162161601D02*
G01*
X174155001Y-162161601D01*
X174155001Y-161931599D01*
X174954999Y-161931599D01*
X174954999Y-162161601D01*
G37*
G36*
X174954999Y-162661600D02*
G01*
X174155001Y-162661600D01*
X174155001Y-162431600D01*
X174954999Y-162431600D01*
X174954999Y-162661600D01*
G37*
G36*
X174954999Y-163161599D02*
G01*
X174155001Y-163161599D01*
X174155001Y-162931599D01*
X174954999Y-162931599D01*
X174954999Y-163161599D01*
G37*
G36*
X174954999Y-163661601D02*
G01*
X174155001Y-163661601D01*
X174155001Y-163431601D01*
X174954999Y-163431601D01*
X174954999Y-163661601D01*
G37*
G36*
X174954999Y-164161600D02*
G01*
X174155001Y-164161600D01*
X174155001Y-163931600D01*
X174954999Y-163931600D01*
X174954999Y-164161600D01*
G37*
G36*
X174954999Y-164661601D02*
G01*
X174155001Y-164661601D01*
X174155001Y-164431599D01*
X174954999Y-164431599D01*
X174954999Y-164661601D01*
G37*
G36*
X175394686Y-161721599D02*
G01*
X175164684Y-161721599D01*
X175164684Y-160921601D01*
X175394686Y-160921601D01*
X175394686Y-161721599D01*
G37*
G36*
X175394686Y-165671599D02*
G01*
X175164684Y-165671599D01*
X175164684Y-164871601D01*
X175394686Y-164871601D01*
X175394686Y-165671599D01*
G37*
G36*
X175894812Y-161721599D02*
G01*
X175664810Y-161721599D01*
X175664810Y-160921601D01*
X175894812Y-160921601D01*
X175894812Y-161721599D01*
G37*
G36*
X175894812Y-165671599D02*
G01*
X175664810Y-165671599D01*
X175664810Y-164871601D01*
X175894812Y-164871601D01*
X175894812Y-165671599D01*
G37*
G36*
X176394938Y-161721599D02*
G01*
X176164936Y-161721599D01*
X176164936Y-160921601D01*
X176394938Y-160921601D01*
X176394938Y-161721599D01*
G37*
G36*
X176394938Y-165671599D02*
G01*
X176164936Y-165671599D01*
X176164936Y-164871601D01*
X176394938Y-164871601D01*
X176394938Y-165671599D01*
G37*
G36*
X176895064Y-161721599D02*
G01*
X176665062Y-161721599D01*
X176665062Y-160921601D01*
X176895064Y-160921601D01*
X176895064Y-161721599D01*
G37*
G36*
X176895064Y-165671599D02*
G01*
X176665062Y-165671599D01*
X176665062Y-164871601D01*
X176895064Y-164871601D01*
X176895064Y-165671599D01*
G37*
G36*
X177395190Y-161721599D02*
G01*
X177165188Y-161721599D01*
X177165188Y-160921601D01*
X177395190Y-160921601D01*
X177395190Y-161721599D01*
G37*
G36*
X177395190Y-165671599D02*
G01*
X177165188Y-165671599D01*
X177165188Y-164871601D01*
X177395190Y-164871601D01*
X177395190Y-165671599D01*
G37*
G36*
X177895316Y-161721599D02*
G01*
X177665314Y-161721599D01*
X177665314Y-160921601D01*
X177895316Y-160921601D01*
X177895316Y-161721599D01*
G37*
G36*
X177895316Y-165671599D02*
G01*
X177665314Y-165671599D01*
X177665314Y-164871601D01*
X177895316Y-164871601D01*
X177895316Y-165671599D01*
G37*
G36*
X178904999Y-162161601D02*
G01*
X178105001Y-162161601D01*
X178105001Y-161931599D01*
X178904999Y-161931599D01*
X178904999Y-162161601D01*
G37*
G36*
X178904999Y-162661600D02*
G01*
X178105001Y-162661600D01*
X178105001Y-162431600D01*
X178904999Y-162431600D01*
X178904999Y-162661600D01*
G37*
G36*
X178904999Y-163161599D02*
G01*
X178105001Y-163161599D01*
X178105001Y-162931599D01*
X178904999Y-162931599D01*
X178904999Y-163161599D01*
G37*
G36*
X178904999Y-163661601D02*
G01*
X178105001Y-163661601D01*
X178105001Y-163431601D01*
X178904999Y-163431601D01*
X178904999Y-163661601D01*
G37*
G36*
X178904999Y-164161600D02*
G01*
X178105001Y-164161600D01*
X178105001Y-163931600D01*
X178904999Y-163931600D01*
X178904999Y-164161600D01*
G37*
G36*
X178904999Y-164661601D02*
G01*
X178105001Y-164661601D01*
X178105001Y-164431599D01*
X178904999Y-164431599D01*
X178904999Y-164661601D01*
G37*
G36*
X175642600Y-164325421D02*
G01*
X175642600Y-164446670D01*
X175379930Y-164446670D01*
X175379930Y-164184000D01*
X175501179Y-164184000D01*
X175642600Y-164325421D01*
G37*
G36*
X175642600Y-162267779D02*
G01*
X175501179Y-162409200D01*
X175379930Y-162409200D01*
X175379930Y-162146530D01*
X175642600Y-162146530D01*
X175642600Y-162267779D01*
G37*
G36*
X177680070Y-162409200D02*
G01*
X177558821Y-162409200D01*
X177417400Y-162267779D01*
X177417400Y-162146530D01*
X177680070Y-162146530D01*
X177680070Y-162409200D01*
G37*
G36*
X177680070Y-164446670D02*
G01*
X177417400Y-164446670D01*
X177417400Y-164325421D01*
X177558821Y-164184000D01*
X177680070Y-164184000D01*
X177680070Y-164446670D01*
G37*
G36*
X175642600Y-162750621D02*
G01*
X175642600Y-163055179D01*
X175501179Y-163196600D01*
X175379930Y-163196600D01*
X175379930Y-162609200D01*
X175501179Y-162609200D01*
X175642600Y-162750621D01*
G37*
G36*
X175642600Y-163538021D02*
G01*
X175642600Y-163842579D01*
X175501179Y-163984000D01*
X175379930Y-163984000D01*
X175379930Y-163396600D01*
X175501179Y-163396600D01*
X175642600Y-163538021D01*
G37*
G36*
X176430000Y-164325421D02*
G01*
X176430000Y-164446670D01*
X175842600Y-164446670D01*
X175842600Y-164325421D01*
X175984021Y-164184000D01*
X176288579Y-164184000D01*
X176430000Y-164325421D01*
G37*
G36*
X176430000Y-162267779D02*
G01*
X176288579Y-162409200D01*
X175984021Y-162409200D01*
X175842600Y-162267779D01*
X175842600Y-162146530D01*
X176430000Y-162146530D01*
X176430000Y-162267779D01*
G37*
G36*
X177217400Y-164325421D02*
G01*
X177217400Y-164446670D01*
X176630000Y-164446670D01*
X176630000Y-164325421D01*
X176771421Y-164184000D01*
X177075979Y-164184000D01*
X177217400Y-164325421D01*
G37*
G36*
X177217400Y-162267779D02*
G01*
X177075979Y-162409200D01*
X176771421Y-162409200D01*
X176630000Y-162267779D01*
X176630000Y-162146530D01*
X177217400Y-162146530D01*
X177217400Y-162267779D01*
G37*
G36*
X177680070Y-163196600D02*
G01*
X177558821Y-163196600D01*
X177417400Y-163055179D01*
X177417400Y-162750621D01*
X177558821Y-162609200D01*
X177680070Y-162609200D01*
X177680070Y-163196600D01*
G37*
G36*
X177680070Y-163984000D02*
G01*
X177558821Y-163984000D01*
X177417400Y-163842579D01*
X177417400Y-163538021D01*
X177558821Y-163396600D01*
X177680070Y-163396600D01*
X177680070Y-163984000D01*
G37*
G36*
X176430000Y-162750621D02*
G01*
X176430000Y-163055179D01*
X176288579Y-163196600D01*
X175984021Y-163196600D01*
X175842600Y-163055179D01*
X175842600Y-162750621D01*
X175984021Y-162609200D01*
X176288579Y-162609200D01*
X176430000Y-162750621D01*
G37*
G36*
X176430000Y-163538021D02*
G01*
X176430000Y-163842579D01*
X176288579Y-163984000D01*
X175984021Y-163984000D01*
X175842600Y-163842579D01*
X175842600Y-163538021D01*
X175984021Y-163396600D01*
X176288579Y-163396600D01*
X176430000Y-163538021D01*
G37*
G36*
X177217400Y-162750621D02*
G01*
X177217400Y-163055179D01*
X177075979Y-163196600D01*
X176771421Y-163196600D01*
X176630000Y-163055179D01*
X176630000Y-162750621D01*
X176771421Y-162609200D01*
X177075979Y-162609200D01*
X177217400Y-162750621D01*
G37*
G36*
X177217400Y-163538021D02*
G01*
X177217400Y-163842579D01*
X177075979Y-163984000D01*
X176771421Y-163984000D01*
X176630000Y-163842579D01*
X176630000Y-163538021D01*
X176771421Y-163396600D01*
X177075979Y-163396600D01*
X177217400Y-163538021D01*
G37*
D12*
X220005062Y-209296000D03*
X218180062Y-209296000D03*
D13*
X211582000Y-221892500D03*
X211582000Y-220067500D03*
D12*
X170584500Y-179324000D03*
X168759500Y-179324000D03*
D14*
X155551500Y-183896000D03*
X157376500Y-183896000D03*
X130255000Y-169926000D03*
X132080000Y-169926000D03*
X155551500Y-185928000D03*
X157376500Y-185928000D03*
D12*
X169465000Y-213868000D03*
X167640000Y-213868000D03*
D15*
X169101000Y-199898000D03*
X170751000Y-199898000D03*
D16*
X176530000Y-206057000D03*
X176530000Y-204407000D03*
D15*
X169101000Y-195326000D03*
X170751000Y-195326000D03*
D12*
X145081000Y-174218600D03*
X143256000Y-174218600D03*
D14*
X207217000Y-169897200D03*
X209042000Y-169897200D03*
D12*
X170584500Y-181356000D03*
X168759500Y-181356000D03*
D13*
X137871200Y-179142400D03*
X137871200Y-177317400D03*
D12*
X221638500Y-174469200D03*
X219813500Y-174469200D03*
D13*
X161311463Y-220265000D03*
X161311463Y-218440000D03*
D14*
X168525185Y-165639600D03*
X170350185Y-165639600D03*
D17*
X161467315Y-174962000D03*
X161467315Y-173412000D03*
D14*
X204827500Y-217932000D03*
X206652500Y-217932000D03*
D12*
X145081000Y-170154600D03*
X143256000Y-170154600D03*
D18*
X165859999Y-233680000D03*
X164209999Y-233680000D03*
D19*
X179578000Y-191199000D03*
X179578000Y-192849000D03*
D17*
X187879778Y-174384000D03*
X187879778Y-172834000D03*
D12*
X218715600Y-187452000D03*
X216890600Y-187452000D03*
X198270500Y-182766000D03*
X196445500Y-182766000D03*
D13*
X176276000Y-171632100D03*
X176276000Y-169807100D03*
D14*
X168525185Y-167671600D03*
X170350185Y-167671600D03*
D18*
X198945000Y-211779000D03*
X197295000Y-211779000D03*
D20*
X217678000Y-234442000D03*
X219228000Y-234442000D03*
D15*
X184087000Y-215335000D03*
X185737000Y-215335000D03*
D13*
X213334600Y-200707000D03*
X213334600Y-198882000D03*
X159279463Y-220265000D03*
X159279463Y-218440000D03*
X211016400Y-179342200D03*
X211016400Y-177517200D03*
X163343463Y-220265000D03*
X163343463Y-218440000D03*
D19*
X195322063Y-206439000D03*
X195322063Y-208089000D03*
D16*
X179578000Y-206057000D03*
X179578000Y-204407000D03*
D13*
X209270600Y-200707000D03*
X209270600Y-198882000D03*
D14*
X155551500Y-179832000D03*
X157376500Y-179832000D03*
D12*
X198270500Y-184798000D03*
X196445500Y-184798000D03*
D19*
X178054000Y-191199000D03*
X178054000Y-192849000D03*
D12*
X184046500Y-158781600D03*
X182221500Y-158781600D03*
D20*
X217678000Y-235966001D03*
X219228000Y-235966001D03*
D17*
X210820000Y-207722000D03*
X210820000Y-206172000D03*
D12*
X169465000Y-219964000D03*
X167640000Y-219964000D03*
X169465000Y-215900000D03*
X167640000Y-215900000D03*
D14*
X207217000Y-173961200D03*
X209042000Y-173961200D03*
D13*
X139903200Y-179142400D03*
X139903200Y-177317400D03*
D17*
X189226063Y-208039000D03*
X189226063Y-206489000D03*
X158771463Y-207722000D03*
X158771463Y-206172000D03*
D12*
X220013362Y-217445372D03*
X218188362Y-217445372D03*
D18*
X165859999Y-231902000D03*
X164209999Y-231902000D03*
D13*
X157247463Y-220218000D03*
X157247463Y-218393000D03*
D18*
X183705000Y-198374000D03*
X182055000Y-198374000D03*
X198945000Y-216351000D03*
X197295000Y-216351000D03*
D13*
X211302600Y-200707000D03*
X211302600Y-198882000D03*
D17*
X212344000Y-166053000D03*
X212344000Y-164503000D03*
D13*
X165862000Y-188789000D03*
X165862000Y-186964000D03*
D21*
X132744998Y-227584000D03*
X134620000Y-227584000D03*
D12*
X151431000Y-196870000D03*
X149606000Y-196870000D03*
D15*
X169101000Y-201422000D03*
X170751000Y-201422000D03*
D17*
X135331200Y-165379400D03*
X135331200Y-163829400D03*
D22*
X205994000Y-235966000D03*
X204444000Y-235966000D03*
D15*
X169101000Y-196850000D03*
X170751000Y-196850000D03*
D19*
X193798063Y-206439000D03*
X193798063Y-208089000D03*
X164592000Y-173376000D03*
X164592000Y-175026000D03*
D14*
X153136463Y-212820400D03*
X154961463Y-212820400D03*
D18*
X198945000Y-217875000D03*
X197295000Y-217875000D03*
D12*
X170584500Y-175260000D03*
X168759500Y-175260000D03*
X151431000Y-188742000D03*
X149606000Y-188742000D03*
D15*
X190437000Y-234696000D03*
X192087000Y-234696000D03*
D18*
X147383000Y-211582000D03*
X145733000Y-211582000D03*
D19*
X213842600Y-184595000D03*
X213842600Y-186245000D03*
D12*
X145081000Y-176276000D03*
X143256000Y-176276000D03*
D13*
X190419778Y-188007000D03*
X190419778Y-186182000D03*
D15*
X190437000Y-236220000D03*
X192087000Y-236220000D03*
X207449600Y-168148000D03*
X209099600Y-168148000D03*
D18*
X183705000Y-196850000D03*
X182055000Y-196850000D03*
D17*
X209120600Y-186195000D03*
X209120600Y-184645000D03*
D19*
X143541600Y-183599000D03*
X143541600Y-185249000D03*
D17*
X160295463Y-207722000D03*
X160295463Y-206172000D03*
D15*
X133541000Y-217200600D03*
X135191000Y-217200600D03*
D13*
X142525600Y-201338500D03*
X142525600Y-199513500D03*
D19*
X192274063Y-206439000D03*
X192274063Y-208089000D03*
D12*
X145081000Y-172186600D03*
X143256000Y-172186600D03*
D16*
X191258063Y-222002000D03*
X191258063Y-220352000D03*
D15*
X130482700Y-166141400D03*
X132132700Y-166141400D03*
D20*
X182359000Y-238252000D03*
X183909000Y-238252000D03*
D17*
X190750063Y-208039000D03*
X190750063Y-206489000D03*
X173755685Y-158192000D03*
X173755685Y-156642000D03*
D19*
X143600200Y-205453600D03*
X143600200Y-207103600D03*
X164867463Y-206122000D03*
X164867463Y-207772000D03*
D18*
X183705000Y-195326000D03*
X182055000Y-195326000D03*
D19*
X138379200Y-163792400D03*
X138379200Y-165442400D03*
X178327685Y-156592000D03*
X178327685Y-158242000D03*
D13*
X188387778Y-188007000D03*
X188387778Y-186182000D03*
D14*
X130255000Y-167894000D03*
X132080000Y-167894000D03*
D15*
X133541000Y-210088600D03*
X135191000Y-210088600D03*
D12*
X184046500Y-168941600D03*
X182221500Y-168941600D03*
D13*
X217112400Y-179342200D03*
X217112400Y-177517200D03*
D18*
X192087000Y-233172000D03*
X190437000Y-233172000D03*
D14*
X181990778Y-184544000D03*
X183815778Y-184544000D03*
D18*
X198945000Y-213303000D03*
X197295000Y-213303000D03*
D15*
X135795600Y-188234000D03*
X137445600Y-188234000D03*
X217628000Y-232918000D03*
X219278000Y-232918000D03*
D19*
X193975778Y-172797000D03*
X193975778Y-174447000D03*
D13*
X209550000Y-221892500D03*
X209550000Y-220067500D03*
D12*
X198270500Y-186830000D03*
X196445500Y-186830000D03*
D15*
X153414963Y-209010400D03*
X155064963Y-209010400D03*
D13*
X178308000Y-171632100D03*
X178308000Y-169807100D03*
D16*
X175006000Y-206057000D03*
X175006000Y-204407000D03*
D23*
X180659000Y-236474000D03*
X180659000Y-235204000D03*
X180659000Y-233934000D03*
X180659000Y-232664000D03*
X180659000Y-231394000D03*
X180659000Y-230124000D03*
X180659000Y-228854000D03*
X185609000Y-228854000D03*
X185609000Y-230124000D03*
X185609000Y-231394000D03*
X185609000Y-232664000D03*
X185609000Y-233934000D03*
X185609000Y-235204000D03*
X185609000Y-236474000D03*
D14*
X204831924Y-213859251D03*
X206656924Y-213859251D03*
X168525185Y-163607600D03*
X170350185Y-163607600D03*
X153136463Y-216884400D03*
X154961463Y-216884400D03*
D12*
X218715600Y-191516000D03*
X216890600Y-191516000D03*
D19*
X192451778Y-172797000D03*
X192451778Y-174447000D03*
X142076200Y-205453600D03*
X142076200Y-207103600D03*
D12*
X218715600Y-189484000D03*
X216890600Y-189484000D03*
D17*
X142017600Y-185186000D03*
X142017600Y-183636000D03*
D14*
X130255000Y-171983400D03*
X132080000Y-171983400D03*
X207217000Y-175993200D03*
X209042000Y-175993200D03*
D12*
X145081000Y-168148000D03*
X143256000Y-168148000D03*
D16*
X173482000Y-206057000D03*
X173482000Y-204407000D03*
D12*
X218715600Y-195580000D03*
X216890600Y-195580000D03*
D14*
X130255000Y-174015400D03*
X132080000Y-174015400D03*
D12*
X184046500Y-164877600D03*
X182221500Y-164877600D03*
D16*
X192782063Y-222002000D03*
X192782063Y-220352000D03*
D19*
X145065600Y-183599000D03*
X145065600Y-185249000D03*
X140552200Y-205453600D03*
X140552200Y-207103600D03*
D21*
X204470000Y-237744000D03*
X206345002Y-237744000D03*
D13*
X163830000Y-188789000D03*
X163830000Y-186964000D03*
D14*
X155551500Y-181864000D03*
X157376500Y-181864000D03*
D12*
X170584500Y-183388000D03*
X168759500Y-183388000D03*
D15*
X184087000Y-213811000D03*
X185737000Y-213811000D03*
X133541000Y-211866600D03*
X135191000Y-211866600D03*
D18*
X183705000Y-202946000D03*
X182055000Y-202946000D03*
D14*
X153136463Y-214852400D03*
X154961463Y-214852400D03*
X202262100Y-190246000D03*
X204087100Y-190246000D03*
D18*
X198945000Y-210255000D03*
X197295000Y-210255000D03*
D17*
X210820000Y-166053000D03*
X210820000Y-164503000D03*
D12*
X145081000Y-166116000D03*
X143256000Y-166116000D03*
X221638500Y-170405200D03*
X219813500Y-170405200D03*
D18*
X147383000Y-214660600D03*
X145733000Y-214660600D03*
D16*
X215392000Y-242887000D03*
X215392000Y-241237000D03*
D18*
X192086999Y-231648000D03*
X190436999Y-231648000D03*
D19*
X163068000Y-173376000D03*
X163068000Y-175026000D03*
D12*
X218715600Y-197612000D03*
X216890600Y-197612000D03*
D17*
X207492600Y-186195000D03*
X207492600Y-184645000D03*
D12*
X220022702Y-219516980D03*
X218197702Y-219516980D03*
D24*
X211836000Y-241287000D03*
X211836000Y-242837000D03*
D21*
X193880499Y-233172000D03*
X195755501Y-233172000D03*
D14*
X168525185Y-161575600D03*
X170350185Y-161575600D03*
D12*
X221638500Y-176501200D03*
X219813500Y-176501200D03*
D14*
X202262100Y-192278000D03*
X204087100Y-192278000D03*
D12*
X151431000Y-194838000D03*
X149606000Y-194838000D03*
X184046500Y-160813600D03*
X182221500Y-160813600D03*
D15*
X169101000Y-202946000D03*
X170751000Y-202946000D03*
D13*
X140493600Y-201338500D03*
X140493600Y-199513500D03*
D16*
X138774200Y-220281000D03*
X138774200Y-218631000D03*
X143346200Y-220281000D03*
X143346200Y-218631000D03*
X213867999Y-231203000D03*
X213867999Y-229553000D03*
D12*
X151431000Y-192806000D03*
X149606000Y-192806000D03*
X218715600Y-193548000D03*
X216890600Y-193548000D03*
X151431000Y-186710000D03*
X149606000Y-186710000D03*
D13*
X192451778Y-188007000D03*
X192451778Y-186182000D03*
D16*
X137250200Y-220281000D03*
X137250200Y-218631000D03*
D12*
X170584500Y-177292000D03*
X168759500Y-177292000D03*
X170584500Y-185420000D03*
X168759500Y-185420000D03*
D19*
X181102000Y-191199000D03*
X181102000Y-192849000D03*
D15*
X155789500Y-178054000D03*
X157439500Y-178054000D03*
X148462000Y-232664000D03*
X150112000Y-232664000D03*
D17*
X189403778Y-174384000D03*
X189403778Y-172834000D03*
D14*
X153136463Y-210788400D03*
X154961463Y-210788400D03*
D12*
X184046500Y-166909600D03*
X182221500Y-166909600D03*
D16*
X213360001Y-242887000D03*
X213360001Y-241237000D03*
D12*
X221638500Y-168373200D03*
X219813500Y-168373200D03*
D18*
X183705000Y-199898000D03*
X182055000Y-199898000D03*
D17*
X209042000Y-207722000D03*
X209042000Y-206172000D03*
D12*
X169465000Y-217932000D03*
X167640000Y-217932000D03*
D14*
X135517100Y-196108000D03*
X137342100Y-196108000D03*
D19*
X141427200Y-163792400D03*
X141427200Y-165442400D03*
D16*
X194306063Y-222002000D03*
X194306063Y-220352000D03*
D19*
X190927778Y-172797000D03*
X190927778Y-174447000D03*
D18*
X147383000Y-216184600D03*
X145733000Y-216184600D03*
D15*
X133541000Y-215422600D03*
X135191000Y-215422600D03*
D13*
X186355778Y-188007000D03*
X186355778Y-186182000D03*
D15*
X133541000Y-208310600D03*
X135191000Y-208310600D03*
D14*
X181990778Y-182512000D03*
X183815778Y-182512000D03*
D13*
X207238600Y-200707000D03*
X207238600Y-198882000D03*
X213614000Y-221892500D03*
X213614000Y-220067500D03*
D25*
X209655000Y-237462000D03*
X209655000Y-236961999D03*
X209655000Y-236462000D03*
X209655000Y-235962000D03*
X209655000Y-235462000D03*
X209655000Y-234962000D03*
X209655000Y-234462001D03*
X209655000Y-233962000D03*
D26*
X210340000Y-233277000D03*
X210840001Y-233277000D03*
X211340000Y-233277000D03*
X211840000Y-233277000D03*
X212340000Y-233277000D03*
X212840000Y-233277000D03*
X213339999Y-233277000D03*
X213840000Y-233277000D03*
D25*
X214525000Y-233962000D03*
X214525000Y-234462001D03*
X214525000Y-234962000D03*
X214525000Y-235462000D03*
X214525000Y-235962000D03*
X214525000Y-236462000D03*
X214525000Y-236961999D03*
X214525000Y-237462000D03*
D26*
X213840000Y-238147000D03*
X213339999Y-238147000D03*
X212840000Y-238147000D03*
X212340000Y-238147000D03*
X211840000Y-238147000D03*
X211340000Y-238147000D03*
X210840001Y-238147000D03*
X210340000Y-238147000D03*
D19*
X166116000Y-173376000D03*
X166116000Y-175026000D03*
D20*
X182359000Y-239776000D03*
X183909000Y-239776000D03*
D12*
X220005062Y-213360000D03*
X218180062Y-213360000D03*
D13*
X174244000Y-171632100D03*
X174244000Y-169807100D03*
D19*
X216916000Y-164466000D03*
X216916000Y-166116000D03*
D13*
X215646000Y-221892500D03*
X215646000Y-220067500D03*
D12*
X198270500Y-180734000D03*
X196445500Y-180734000D03*
X221638500Y-166341200D03*
X219813500Y-166341200D03*
D16*
X210312000Y-242887000D03*
X210312000Y-241237000D03*
D20*
X156451000Y-238282000D03*
X158001000Y-238282000D03*
D17*
X140493600Y-185186000D03*
X140493600Y-183636000D03*
D13*
X133807200Y-179142400D03*
X133807200Y-177317400D03*
D23*
X154751000Y-236474000D03*
X154751000Y-235204000D03*
X154751000Y-233934000D03*
X154751000Y-232664000D03*
X154751000Y-231394000D03*
X154751000Y-230124000D03*
X154751000Y-228854000D03*
X159701000Y-228854000D03*
X159701000Y-230124000D03*
X159701000Y-231394000D03*
X159701000Y-232664000D03*
X159701000Y-233934000D03*
X159701000Y-235204000D03*
X159701000Y-236474000D03*
D12*
X169465000Y-211804400D03*
X167640000Y-211804400D03*
D18*
X183705000Y-201422000D03*
X182055000Y-201422000D03*
D15*
X164210000Y-237236000D03*
X165860000Y-237236000D03*
D17*
X159943315Y-174962000D03*
X159943315Y-173412000D03*
D19*
X214376000Y-206122000D03*
X214376000Y-207772000D03*
D15*
X184087000Y-210763000D03*
X185737000Y-210763000D03*
D20*
X156464000Y-240030000D03*
X158014000Y-240030000D03*
D12*
X221638500Y-172437200D03*
X219813500Y-172437200D03*
X220011000Y-215415661D03*
X218186000Y-215415661D03*
X151431000Y-190774000D03*
X149606000Y-190774000D03*
X184046500Y-162845600D03*
X182221500Y-162845600D03*
D14*
X135517100Y-194076000D03*
X137342100Y-194076000D03*
D18*
X198945000Y-214827000D03*
X197295000Y-214827000D03*
X192087000Y-230124000D03*
X190437000Y-230124000D03*
D14*
X204830079Y-211816325D03*
X206655079Y-211816325D03*
D15*
X169101000Y-198374000D03*
X170751000Y-198374000D03*
X202540600Y-188468000D03*
X204190600Y-188468000D03*
D17*
X136855200Y-165379400D03*
X136855200Y-163829400D03*
D12*
X198270500Y-178702000D03*
X196445500Y-178702000D03*
D13*
X213048400Y-179342200D03*
X213048400Y-177517200D03*
D19*
X213868000Y-164466000D03*
X213868000Y-166116000D03*
D16*
X140298200Y-220281000D03*
X140298200Y-218631000D03*
D18*
X147383000Y-217708600D03*
X145733000Y-217708600D03*
D16*
X212344001Y-231203000D03*
X212344001Y-229553000D03*
D13*
X180340000Y-171632100D03*
X180340000Y-169807100D03*
X146589600Y-201338500D03*
X146589600Y-199513500D03*
D19*
X146589600Y-183599000D03*
X146589600Y-185249000D03*
X176803685Y-156592000D03*
X176803685Y-158242000D03*
D15*
X133541000Y-213644600D03*
X135191000Y-213644600D03*
D19*
X163343463Y-206122000D03*
X163343463Y-207772000D03*
D18*
X165860000Y-230124000D03*
X164210000Y-230124000D03*
D12*
X169465000Y-209772400D03*
X167640000Y-209772400D03*
D16*
X141822200Y-220281000D03*
X141822200Y-218631000D03*
D17*
X175006000Y-192799000D03*
X175006000Y-191249000D03*
D14*
X181990778Y-178448000D03*
X183815778Y-178448000D03*
D19*
X139903200Y-163792400D03*
X139903200Y-165442400D03*
X215392000Y-164466000D03*
X215392000Y-166116000D03*
D13*
X135839200Y-179142400D03*
X135839200Y-177317400D03*
D19*
X212318600Y-184595000D03*
X212318600Y-186245000D03*
D17*
X139028200Y-207053600D03*
X139028200Y-205503600D03*
D21*
X167464499Y-233680000D03*
X169339501Y-233680000D03*
D15*
X174942999Y-232664000D03*
X176592999Y-232664000D03*
D13*
X159766000Y-188789000D03*
X159766000Y-186964000D03*
D18*
X147383000Y-213106000D03*
X145733000Y-213106000D03*
D13*
X144557600Y-201338500D03*
X144557600Y-199513500D03*
D15*
X184087000Y-216859000D03*
X185737000Y-216859000D03*
D14*
X135517100Y-192044000D03*
X137342100Y-192044000D03*
D16*
X189734063Y-222002000D03*
X189734063Y-220352000D03*
D19*
X179851685Y-156592000D03*
X179851685Y-158242000D03*
D14*
X204827500Y-215900000D03*
X206652500Y-215900000D03*
D19*
X216154000Y-206122000D03*
X216154000Y-207772000D03*
D14*
X135517100Y-190012000D03*
X137342100Y-190012000D03*
D17*
X176530000Y-192799000D03*
X176530000Y-191249000D03*
D15*
X184087000Y-218383000D03*
X185737000Y-218383000D03*
D18*
X206120000Y-239522000D03*
X204470000Y-239522000D03*
D15*
X184087000Y-212287000D03*
X185737000Y-212287000D03*
D14*
X207217000Y-171929200D03*
X209042000Y-171929200D03*
D16*
X188210063Y-222002000D03*
X188210063Y-220352000D03*
D14*
X181990778Y-180480000D03*
X183815778Y-180480000D03*
D13*
X161798000Y-188789000D03*
X161798000Y-186964000D03*
D19*
X210794600Y-184595000D03*
X210794600Y-186245000D03*
D15*
X204917579Y-210058000D03*
X206567579Y-210058000D03*
D22*
X205994000Y-234442000D03*
X204444000Y-234442000D03*
D12*
X198270500Y-176670000D03*
X196445500Y-176670000D03*
D18*
X147383000Y-210058000D03*
X145733000Y-210058000D03*
D17*
X137504200Y-207040600D03*
X137504200Y-205490600D03*
D15*
X132716000Y-230886000D03*
X134366000Y-230886000D03*
D14*
X202262100Y-196342000D03*
X204087100Y-196342000D03*
D19*
X212598000Y-206122000D03*
X212598000Y-207772000D03*
D13*
X215080400Y-179342200D03*
X215080400Y-177517200D03*
D15*
X182165778Y-176670000D03*
X183815778Y-176670000D03*
D16*
X178054000Y-206057000D03*
X178054000Y-204407000D03*
D14*
X202262100Y-194310000D03*
X204087100Y-194310000D03*
D17*
X175279685Y-158192000D03*
X175279685Y-156642000D03*
D12*
X220005062Y-211328000D03*
X218180062Y-211328000D03*
D15*
X164210000Y-235458000D03*
X165860000Y-235458000D03*
D19*
X161819463Y-206122000D03*
X161819463Y-207772000D03*
D15*
X168803685Y-159797600D03*
X170453685Y-159797600D03*
M02*
