G04 #@! TF.GenerationSoftware,KiCad,Pcbnew,8.0.3*
G04 #@! TF.CreationDate,2024-07-11T15:41:43-04:00*
G04 #@! TF.ProjectId,_HW_Mini-Scoreboard,5f48575f-4d69-46e6-992d-53636f726562,v1.0*
G04 #@! TF.SameCoordinates,Original*
G04 #@! TF.FileFunction,Copper,L4,Bot*
G04 #@! TF.FilePolarity,Positive*
%FSLAX46Y46*%
G04 Gerber Fmt 4.6, Leading zero omitted, Abs format (unit mm)*
G04 Created by KiCad (PCBNEW 8.0.3) date 2024-07-11 15:41:43*
%MOMM*%
%LPD*%
G01*
G04 APERTURE LIST*
G04 Aperture macros list*
%AMRoundRect*
0 Rectangle with rounded corners*
0 $1 Rounding radius*
0 $2 $3 $4 $5 $6 $7 $8 $9 X,Y pos of 4 corners*
0 Add a 4 corners polygon primitive as box body*
4,1,4,$2,$3,$4,$5,$6,$7,$8,$9,$2,$3,0*
0 Add four circle primitives for the rounded corners*
1,1,$1+$1,$2,$3*
1,1,$1+$1,$4,$5*
1,1,$1+$1,$6,$7*
1,1,$1+$1,$8,$9*
0 Add four rect primitives between the rounded corners*
20,1,$1+$1,$2,$3,$4,$5,0*
20,1,$1+$1,$4,$5,$6,$7,0*
20,1,$1+$1,$6,$7,$8,$9,0*
20,1,$1+$1,$8,$9,$2,$3,0*%
G04 Aperture macros list end*
G04 #@! TA.AperFunction,ComponentPad*
%ADD10R,1.700000X1.700000*%
G04 #@! TD*
G04 #@! TA.AperFunction,ComponentPad*
%ADD11O,1.700000X1.700000*%
G04 #@! TD*
G04 #@! TA.AperFunction,ComponentPad*
%ADD12C,3.600000*%
G04 #@! TD*
G04 #@! TA.AperFunction,ConnectorPad*
%ADD13C,5.600000*%
G04 #@! TD*
G04 #@! TA.AperFunction,SMDPad,CuDef*
%ADD14RoundRect,0.250000X0.262500X0.450000X-0.262500X0.450000X-0.262500X-0.450000X0.262500X-0.450000X0*%
G04 #@! TD*
G04 #@! TA.AperFunction,SMDPad,CuDef*
%ADD15RoundRect,0.250000X0.450000X-0.262500X0.450000X0.262500X-0.450000X0.262500X-0.450000X-0.262500X0*%
G04 #@! TD*
G04 #@! TA.AperFunction,SMDPad,CuDef*
%ADD16R,0.850000X0.280000*%
G04 #@! TD*
G04 #@! TA.AperFunction,SMDPad,CuDef*
%ADD17R,0.280000X0.850000*%
G04 #@! TD*
G04 #@! TA.AperFunction,ComponentPad*
%ADD18C,0.508000*%
G04 #@! TD*
G04 #@! TA.AperFunction,SMDPad,CuDef*
%ADD19R,2.450000X2.450000*%
G04 #@! TD*
G04 #@! TA.AperFunction,SMDPad,CuDef*
%ADD20RoundRect,0.250000X-0.262500X-0.450000X0.262500X-0.450000X0.262500X0.450000X-0.262500X0.450000X0*%
G04 #@! TD*
G04 #@! TA.AperFunction,SMDPad,CuDef*
%ADD21RoundRect,0.200000X-0.200000X-0.275000X0.200000X-0.275000X0.200000X0.275000X-0.200000X0.275000X0*%
G04 #@! TD*
G04 #@! TA.AperFunction,SMDPad,CuDef*
%ADD22RoundRect,0.200000X0.275000X-0.200000X0.275000X0.200000X-0.275000X0.200000X-0.275000X-0.200000X0*%
G04 #@! TD*
G04 #@! TA.AperFunction,SMDPad,CuDef*
%ADD23RoundRect,0.225000X0.250000X-0.225000X0.250000X0.225000X-0.250000X0.225000X-0.250000X-0.225000X0*%
G04 #@! TD*
G04 #@! TA.AperFunction,SMDPad,CuDef*
%ADD24RoundRect,0.200000X0.200000X0.275000X-0.200000X0.275000X-0.200000X-0.275000X0.200000X-0.275000X0*%
G04 #@! TD*
G04 #@! TA.AperFunction,SMDPad,CuDef*
%ADD25RoundRect,0.200000X-0.275000X0.200000X-0.275000X-0.200000X0.275000X-0.200000X0.275000X0.200000X0*%
G04 #@! TD*
G04 #@! TA.AperFunction,SMDPad,CuDef*
%ADD26RoundRect,0.225000X-0.225000X-0.250000X0.225000X-0.250000X0.225000X0.250000X-0.225000X0.250000X0*%
G04 #@! TD*
G04 #@! TA.AperFunction,SMDPad,CuDef*
%ADD27RoundRect,0.243750X-0.243750X-0.456250X0.243750X-0.456250X0.243750X0.456250X-0.243750X0.456250X0*%
G04 #@! TD*
G04 #@! TA.AperFunction,SMDPad,CuDef*
%ADD28RoundRect,0.225000X0.225000X0.250000X-0.225000X0.250000X-0.225000X-0.250000X0.225000X-0.250000X0*%
G04 #@! TD*
G04 #@! TA.AperFunction,SMDPad,CuDef*
%ADD29RoundRect,0.150000X-0.825000X-0.150000X0.825000X-0.150000X0.825000X0.150000X-0.825000X0.150000X0*%
G04 #@! TD*
G04 #@! TA.AperFunction,SMDPad,CuDef*
%ADD30RoundRect,0.225000X-0.250000X0.225000X-0.250000X-0.225000X0.250000X-0.225000X0.250000X0.225000X0*%
G04 #@! TD*
G04 #@! TA.AperFunction,ComponentPad*
%ADD31O,2.500000X5.000000*%
G04 #@! TD*
G04 #@! TA.AperFunction,ComponentPad*
%ADD32O,2.250000X4.500000*%
G04 #@! TD*
G04 #@! TA.AperFunction,ComponentPad*
%ADD33O,4.500000X2.250000*%
G04 #@! TD*
G04 #@! TA.AperFunction,SMDPad,CuDef*
%ADD34RoundRect,0.032500X-0.397500X-0.097500X0.397500X-0.097500X0.397500X0.097500X-0.397500X0.097500X0*%
G04 #@! TD*
G04 #@! TA.AperFunction,SMDPad,CuDef*
%ADD35RoundRect,0.032500X-0.097500X0.397500X-0.097500X-0.397500X0.097500X-0.397500X0.097500X0.397500X0*%
G04 #@! TD*
G04 #@! TA.AperFunction,SMDPad,CuDef*
%ADD36R,3.100000X3.100000*%
G04 #@! TD*
G04 #@! TA.AperFunction,ViaPad*
%ADD37C,0.600000*%
G04 #@! TD*
G04 #@! TA.AperFunction,Conductor*
%ADD38C,0.203200*%
G04 #@! TD*
G04 #@! TA.AperFunction,Conductor*
%ADD39C,0.304800*%
G04 #@! TD*
G04 #@! TA.AperFunction,Conductor*
%ADD40C,0.635000*%
G04 #@! TD*
G04 #@! TA.AperFunction,Conductor*
%ADD41C,0.508000*%
G04 #@! TD*
G04 #@! TA.AperFunction,Conductor*
%ADD42C,0.254000*%
G04 #@! TD*
G04 APERTURE END LIST*
D10*
X128778000Y-230124000D03*
D11*
X128778000Y-227584000D03*
X128778000Y-225044001D03*
D12*
X222250000Y-156210000D03*
D13*
X222250000Y-156210000D03*
D12*
X130810000Y-247650000D03*
D13*
X130810000Y-247650000D03*
D12*
X222250000Y-247650000D03*
D13*
X222250000Y-247650000D03*
D12*
X130810000Y-156210000D03*
D13*
X130810000Y-156210000D03*
D14*
X220005062Y-209296000D03*
X218180062Y-209296000D03*
D15*
X211582000Y-221892500D03*
X211582000Y-220067500D03*
D14*
X170584500Y-179324000D03*
X168759500Y-179324000D03*
D16*
X214573000Y-212110000D03*
X214573000Y-212609999D03*
X214573000Y-213110000D03*
X214573000Y-213610000D03*
X214573000Y-214110001D03*
X214573000Y-214610000D03*
D17*
X213848315Y-215335000D03*
X213348189Y-215335000D03*
X212848063Y-215335000D03*
X212347937Y-215335000D03*
X211847811Y-215335000D03*
X211347685Y-215335000D03*
D16*
X210623000Y-214610000D03*
X210623000Y-214110001D03*
X210623000Y-213610000D03*
X210623000Y-213110000D03*
X210623000Y-212609999D03*
X210623000Y-212110000D03*
D17*
X211347685Y-211385000D03*
X211847811Y-211385000D03*
X212347937Y-211385000D03*
X212848063Y-211385000D03*
X213348189Y-211385000D03*
X213848315Y-211385000D03*
D18*
X213385400Y-214147400D03*
X213385400Y-213360000D03*
X213385400Y-212572600D03*
X212598000Y-214147400D03*
X212598000Y-213360000D03*
D19*
X212598000Y-213360000D03*
D18*
X212598000Y-212572600D03*
X211810600Y-214147400D03*
X211810600Y-213360000D03*
X211810600Y-212572600D03*
D20*
X155551500Y-183896000D03*
X157376500Y-183896000D03*
X130255000Y-169926000D03*
X132080000Y-169926000D03*
X155551500Y-185928000D03*
X157376500Y-185928000D03*
D14*
X169465000Y-213868000D03*
X167640000Y-213868000D03*
D21*
X169101000Y-199898000D03*
X170751000Y-199898000D03*
D22*
X176530000Y-206057000D03*
X176530000Y-204407000D03*
D21*
X169101000Y-195326000D03*
X170751000Y-195326000D03*
D14*
X145081000Y-174218600D03*
X143256000Y-174218600D03*
D20*
X207217000Y-169897200D03*
X209042000Y-169897200D03*
D14*
X170584500Y-181356000D03*
X168759500Y-181356000D03*
D16*
X145713600Y-190774000D03*
X145713600Y-191273999D03*
X145713600Y-191774000D03*
X145713600Y-192274000D03*
X145713600Y-192774001D03*
X145713600Y-193274000D03*
D17*
X144988915Y-193999000D03*
X144488789Y-193999000D03*
X143988663Y-193999000D03*
X143488537Y-193999000D03*
X142988411Y-193999000D03*
X142488285Y-193999000D03*
D16*
X141763600Y-193274000D03*
X141763600Y-192774001D03*
X141763600Y-192274000D03*
X141763600Y-191774000D03*
X141763600Y-191273999D03*
X141763600Y-190774000D03*
D17*
X142488285Y-190049000D03*
X142988411Y-190049000D03*
X143488537Y-190049000D03*
X143988663Y-190049000D03*
X144488789Y-190049000D03*
X144988915Y-190049000D03*
D18*
X144526000Y-192811400D03*
X144526000Y-192024000D03*
X144526000Y-191236600D03*
X143738600Y-192811400D03*
X143738600Y-192024000D03*
D19*
X143738600Y-192024000D03*
D18*
X143738600Y-191236600D03*
X142951200Y-192811400D03*
X142951200Y-192024000D03*
X142951200Y-191236600D03*
D15*
X137871200Y-179142400D03*
X137871200Y-177317400D03*
D14*
X221638500Y-174469200D03*
X219813500Y-174469200D03*
D16*
X192652715Y-179795000D03*
X192652715Y-180294999D03*
X192652715Y-180795000D03*
X192652715Y-181295000D03*
X192652715Y-181795001D03*
X192652715Y-182295000D03*
D17*
X191928030Y-183020000D03*
X191427904Y-183020000D03*
X190927778Y-183020000D03*
X190427652Y-183020000D03*
X189927526Y-183020000D03*
X189427400Y-183020000D03*
D16*
X188702715Y-182295000D03*
X188702715Y-181795001D03*
X188702715Y-181295000D03*
X188702715Y-180795000D03*
X188702715Y-180294999D03*
X188702715Y-179795000D03*
D17*
X189427400Y-179070000D03*
X189927526Y-179070000D03*
X190427652Y-179070000D03*
X190927778Y-179070000D03*
X191427904Y-179070000D03*
X191928030Y-179070000D03*
D18*
X191465115Y-181832400D03*
X191465115Y-181045000D03*
X191465115Y-180257600D03*
X190677715Y-181832400D03*
X190677715Y-181045000D03*
D19*
X190677715Y-181045000D03*
D18*
X190677715Y-180257600D03*
X189890315Y-181832400D03*
X189890315Y-181045000D03*
X189890315Y-180257600D03*
D15*
X161311463Y-220265000D03*
X161311463Y-218440000D03*
D20*
X168525185Y-165639600D03*
X170350185Y-165639600D03*
D23*
X161467315Y-174962000D03*
X161467315Y-173412000D03*
D20*
X204827500Y-217932000D03*
X206652500Y-217932000D03*
D14*
X145081000Y-170154600D03*
X143256000Y-170154600D03*
D24*
X165859999Y-233680000D03*
X164209999Y-233680000D03*
D25*
X179578000Y-191199000D03*
X179578000Y-192849000D03*
D23*
X187879778Y-174384000D03*
X187879778Y-172834000D03*
D14*
X218715600Y-187452000D03*
X216890600Y-187452000D03*
X198270500Y-182766000D03*
X196445500Y-182766000D03*
D15*
X176276000Y-171632100D03*
X176276000Y-169807100D03*
D20*
X168525185Y-167671600D03*
X170350185Y-167671600D03*
D24*
X198945000Y-211779000D03*
X197295000Y-211779000D03*
D26*
X217678000Y-234442000D03*
X219228000Y-234442000D03*
D21*
X184087000Y-215335000D03*
X185737000Y-215335000D03*
D15*
X213334600Y-200707000D03*
X213334600Y-198882000D03*
X159279463Y-220265000D03*
X159279463Y-218440000D03*
D10*
X135950000Y-248960000D03*
D11*
X135950000Y-246420000D03*
X138490000Y-248960000D03*
X138490000Y-246420000D03*
X141029999Y-248960000D03*
X141030000Y-246420000D03*
X143570000Y-248960000D03*
X143570000Y-246420000D03*
X146110000Y-248960000D03*
X146110000Y-246420000D03*
X148650000Y-248960000D03*
X148650000Y-246420000D03*
X151190000Y-248960000D03*
X151190000Y-246420000D03*
X153730001Y-248960000D03*
X153730000Y-246420000D03*
X156270000Y-248960000D03*
X156270000Y-246420000D03*
X158810000Y-248960000D03*
X158810000Y-246420000D03*
X161350000Y-248960000D03*
X161350000Y-246420000D03*
X163889999Y-248960000D03*
X163890000Y-246420000D03*
X166430000Y-248960000D03*
X166430000Y-246420000D03*
X168970000Y-248960000D03*
X168970000Y-246420000D03*
X171510000Y-248960000D03*
X171510000Y-246420000D03*
X174049999Y-248960000D03*
X174050000Y-246420000D03*
X176590001Y-248960000D03*
X176590000Y-246420000D03*
X179130000Y-248960000D03*
X179130000Y-246420000D03*
X181670000Y-248960000D03*
X181670000Y-246420000D03*
X184210000Y-248960000D03*
X184210000Y-246420000D03*
D15*
X211016400Y-179342200D03*
X211016400Y-177517200D03*
X163343463Y-220265000D03*
X163343463Y-218440000D03*
D25*
X195322063Y-206439000D03*
X195322063Y-208089000D03*
D22*
X179578000Y-206057000D03*
X179578000Y-204407000D03*
D15*
X209270600Y-200707000D03*
X209270600Y-198882000D03*
D20*
X155551500Y-179832000D03*
X157376500Y-179832000D03*
D14*
X198270500Y-184798000D03*
X196445500Y-184798000D03*
D25*
X178054000Y-191199000D03*
X178054000Y-192849000D03*
D14*
X184046500Y-158781600D03*
X182221500Y-158781600D03*
D26*
X217678000Y-235966001D03*
X219228000Y-235966001D03*
D23*
X210820000Y-207722000D03*
X210820000Y-206172000D03*
D14*
X169465000Y-219964000D03*
X167640000Y-219964000D03*
X169465000Y-215900000D03*
X167640000Y-215900000D03*
D20*
X207217000Y-173961200D03*
X209042000Y-173961200D03*
D15*
X139903200Y-179142400D03*
X139903200Y-177317400D03*
D23*
X189226063Y-208039000D03*
X189226063Y-206489000D03*
X158771463Y-207722000D03*
X158771463Y-206172000D03*
D14*
X220013362Y-217445372D03*
X218188362Y-217445372D03*
D24*
X165859999Y-231902000D03*
X164209999Y-231902000D03*
D15*
X157247463Y-220218000D03*
X157247463Y-218393000D03*
D24*
X183705000Y-198374000D03*
X182055000Y-198374000D03*
X198945000Y-216351000D03*
X197295000Y-216351000D03*
D15*
X211302600Y-200707000D03*
X211302600Y-198882000D03*
D23*
X212344000Y-166053000D03*
X212344000Y-164503000D03*
D15*
X165862000Y-188789000D03*
X165862000Y-186964000D03*
D27*
X132744998Y-227584000D03*
X134620000Y-227584000D03*
D14*
X151431000Y-196870000D03*
X149606000Y-196870000D03*
D21*
X169101000Y-201422000D03*
X170751000Y-201422000D03*
D23*
X135331200Y-165379400D03*
X135331200Y-163829400D03*
D28*
X205994000Y-235966000D03*
X204444000Y-235966000D03*
D21*
X169101000Y-196850000D03*
X170751000Y-196850000D03*
D25*
X193798063Y-206439000D03*
X193798063Y-208089000D03*
X164592000Y-173376000D03*
X164592000Y-175026000D03*
D20*
X153136463Y-212820400D03*
X154961463Y-212820400D03*
D24*
X198945000Y-217875000D03*
X197295000Y-217875000D03*
D14*
X170584500Y-175260000D03*
X168759500Y-175260000D03*
X151431000Y-188742000D03*
X149606000Y-188742000D03*
D21*
X190437000Y-234696000D03*
X192087000Y-234696000D03*
D24*
X147383000Y-211582000D03*
X145733000Y-211582000D03*
D25*
X213842600Y-184595000D03*
X213842600Y-186245000D03*
D14*
X145081000Y-176276000D03*
X143256000Y-176276000D03*
D15*
X190419778Y-188007000D03*
X190419778Y-186182000D03*
D21*
X190437000Y-236220000D03*
X192087000Y-236220000D03*
X207449600Y-168148000D03*
X209099600Y-168148000D03*
D24*
X183705000Y-196850000D03*
X182055000Y-196850000D03*
D23*
X209120600Y-186195000D03*
X209120600Y-184645000D03*
D25*
X143541600Y-183599000D03*
X143541600Y-185249000D03*
D23*
X160295463Y-207722000D03*
X160295463Y-206172000D03*
D21*
X133541000Y-217200600D03*
X135191000Y-217200600D03*
D15*
X142525600Y-201338500D03*
X142525600Y-199513500D03*
D25*
X192274063Y-206439000D03*
X192274063Y-208089000D03*
D14*
X145081000Y-172186600D03*
X143256000Y-172186600D03*
D22*
X191258063Y-222002000D03*
X191258063Y-220352000D03*
D21*
X130482700Y-166141400D03*
X132132700Y-166141400D03*
D26*
X182359000Y-238252000D03*
X183909000Y-238252000D03*
D23*
X190750063Y-208039000D03*
X190750063Y-206489000D03*
D10*
X207772000Y-248920000D03*
D11*
X210312000Y-248920000D03*
X212851999Y-248920000D03*
X215392000Y-248920000D03*
X217932000Y-248920000D03*
D23*
X173755685Y-158192000D03*
X173755685Y-156642000D03*
D25*
X143600200Y-205453600D03*
X143600200Y-207103600D03*
D16*
X164961000Y-179852000D03*
X164961000Y-180351999D03*
X164961000Y-180852000D03*
X164961000Y-181352000D03*
X164961000Y-181852001D03*
X164961000Y-182352000D03*
D17*
X164236315Y-183077000D03*
X163736189Y-183077000D03*
X163236063Y-183077000D03*
X162735937Y-183077000D03*
X162235811Y-183077000D03*
X161735685Y-183077000D03*
D16*
X161011000Y-182352000D03*
X161011000Y-181852001D03*
X161011000Y-181352000D03*
X161011000Y-180852000D03*
X161011000Y-180351999D03*
X161011000Y-179852000D03*
D17*
X161735685Y-179127000D03*
X162235811Y-179127000D03*
X162735937Y-179127000D03*
X163236063Y-179127000D03*
X163736189Y-179127000D03*
X164236315Y-179127000D03*
D18*
X163773400Y-181889400D03*
X163773400Y-181102000D03*
X163773400Y-180314600D03*
X162986000Y-181889400D03*
X162986000Y-181102000D03*
D19*
X162986000Y-181102000D03*
D18*
X162986000Y-180314600D03*
X162198600Y-181889400D03*
X162198600Y-181102000D03*
X162198600Y-180314600D03*
D25*
X164867463Y-206122000D03*
X164867463Y-207772000D03*
D24*
X183705000Y-195326000D03*
X182055000Y-195326000D03*
D25*
X138379200Y-163792400D03*
X138379200Y-165442400D03*
X178327685Y-156592000D03*
X178327685Y-158242000D03*
D15*
X188387778Y-188007000D03*
X188387778Y-186182000D03*
D20*
X130255000Y-167894000D03*
X132080000Y-167894000D03*
D21*
X133541000Y-210088600D03*
X135191000Y-210088600D03*
D14*
X184046500Y-168941600D03*
X182221500Y-168941600D03*
D15*
X217112400Y-179342200D03*
X217112400Y-177517200D03*
D24*
X192087000Y-233172000D03*
X190437000Y-233172000D03*
D20*
X181990778Y-184544000D03*
X183815778Y-184544000D03*
D24*
X198945000Y-213303000D03*
X197295000Y-213303000D03*
D21*
X135795600Y-188234000D03*
X137445600Y-188234000D03*
X217628000Y-232918000D03*
X219278000Y-232918000D03*
D25*
X193975778Y-172797000D03*
X193975778Y-174447000D03*
D15*
X209550000Y-221892500D03*
X209550000Y-220067500D03*
D14*
X198270500Y-186830000D03*
X196445500Y-186830000D03*
D21*
X153414963Y-209010400D03*
X155064963Y-209010400D03*
D15*
X178308000Y-171632100D03*
X178308000Y-169807100D03*
D22*
X175006000Y-206057000D03*
X175006000Y-204407000D03*
D29*
X180659000Y-236474000D03*
X180659000Y-235204000D03*
X180659000Y-233934000D03*
X180659000Y-232664000D03*
X180659000Y-231394000D03*
X180659000Y-230124000D03*
X180659000Y-228854000D03*
X185609000Y-228854000D03*
X185609000Y-230124000D03*
X185609000Y-231394000D03*
X185609000Y-232664000D03*
X185609000Y-233934000D03*
X185609000Y-235204000D03*
X185609000Y-236474000D03*
D20*
X204831924Y-213859251D03*
X206656924Y-213859251D03*
X168525185Y-163607600D03*
X170350185Y-163607600D03*
X153136463Y-216884400D03*
X154961463Y-216884400D03*
D14*
X218715600Y-191516000D03*
X216890600Y-191516000D03*
D25*
X192451778Y-172797000D03*
X192451778Y-174447000D03*
X142076200Y-205453600D03*
X142076200Y-207103600D03*
D14*
X218715600Y-189484000D03*
X216890600Y-189484000D03*
D23*
X142017600Y-185186000D03*
X142017600Y-183636000D03*
D20*
X130255000Y-171983400D03*
X132080000Y-171983400D03*
X207217000Y-175993200D03*
X209042000Y-175993200D03*
D16*
X139617600Y-169946000D03*
X139617600Y-170445999D03*
X139617600Y-170946000D03*
X139617600Y-171446000D03*
X139617600Y-171946001D03*
X139617600Y-172446000D03*
D17*
X138892915Y-173171000D03*
X138392789Y-173171000D03*
X137892663Y-173171000D03*
X137392537Y-173171000D03*
X136892411Y-173171000D03*
X136392285Y-173171000D03*
D16*
X135667600Y-172446000D03*
X135667600Y-171946001D03*
X135667600Y-171446000D03*
X135667600Y-170946000D03*
X135667600Y-170445999D03*
X135667600Y-169946000D03*
D17*
X136392285Y-169221000D03*
X136892411Y-169221000D03*
X137392537Y-169221000D03*
X137892663Y-169221000D03*
X138392789Y-169221000D03*
X138892915Y-169221000D03*
D18*
X138430000Y-171983400D03*
X138430000Y-171196000D03*
X138430000Y-170408600D03*
X137642600Y-171983400D03*
X137642600Y-171196000D03*
D19*
X137642600Y-171196000D03*
D18*
X137642600Y-170408600D03*
X136855200Y-171983400D03*
X136855200Y-171196000D03*
X136855200Y-170408600D03*
D14*
X145081000Y-168148000D03*
X143256000Y-168148000D03*
D22*
X173482000Y-206057000D03*
X173482000Y-204407000D03*
D14*
X218715600Y-195580000D03*
X216890600Y-195580000D03*
D20*
X130255000Y-174015400D03*
X132080000Y-174015400D03*
D14*
X184046500Y-164877600D03*
X182221500Y-164877600D03*
D22*
X192782063Y-222002000D03*
X192782063Y-220352000D03*
D25*
X145065600Y-183599000D03*
X145065600Y-185249000D03*
X140552200Y-205453600D03*
X140552200Y-207103600D03*
D27*
X204470000Y-237744000D03*
X206345002Y-237744000D03*
D10*
X197612000Y-248920000D03*
D11*
X200152000Y-248920000D03*
X202691999Y-248920000D03*
X205232000Y-248920000D03*
D15*
X163830000Y-188789000D03*
X163830000Y-186964000D03*
D20*
X155551500Y-181864000D03*
X157376500Y-181864000D03*
D14*
X170584500Y-183388000D03*
X168759500Y-183388000D03*
D21*
X184087000Y-213811000D03*
X185737000Y-213811000D03*
X133541000Y-211866600D03*
X135191000Y-211866600D03*
D24*
X183705000Y-202946000D03*
X182055000Y-202946000D03*
D20*
X153136463Y-214852400D03*
X154961463Y-214852400D03*
X202262100Y-190246000D03*
X204087100Y-190246000D03*
D24*
X198945000Y-210255000D03*
X197295000Y-210255000D03*
D23*
X210820000Y-166053000D03*
X210820000Y-164503000D03*
D14*
X145081000Y-166116000D03*
X143256000Y-166116000D03*
X221638500Y-170405200D03*
X219813500Y-170405200D03*
D24*
X147383000Y-214660600D03*
X145733000Y-214660600D03*
D22*
X215392000Y-242887000D03*
X215392000Y-241237000D03*
D24*
X192086999Y-231648000D03*
X190436999Y-231648000D03*
D25*
X163068000Y-173376000D03*
X163068000Y-175026000D03*
D14*
X218715600Y-197612000D03*
X216890600Y-197612000D03*
D23*
X207492600Y-186195000D03*
X207492600Y-184645000D03*
D14*
X220022702Y-219516980D03*
X218197702Y-219516980D03*
D30*
X211836000Y-241287000D03*
X211836000Y-242837000D03*
D27*
X193880499Y-233172000D03*
X195755501Y-233172000D03*
D20*
X168525185Y-161575600D03*
X170350185Y-161575600D03*
D14*
X221638500Y-176501200D03*
X219813500Y-176501200D03*
D20*
X202262100Y-192278000D03*
X204087100Y-192278000D03*
D14*
X151431000Y-194838000D03*
X149606000Y-194838000D03*
X184046500Y-160813600D03*
X182221500Y-160813600D03*
D21*
X169101000Y-202946000D03*
X170751000Y-202946000D03*
D15*
X140493600Y-201338500D03*
X140493600Y-199513500D03*
D22*
X138774200Y-220281000D03*
X138774200Y-218631000D03*
X143346200Y-220281000D03*
X143346200Y-218631000D03*
X213867999Y-231203000D03*
X213867999Y-229553000D03*
D14*
X151431000Y-192806000D03*
X149606000Y-192806000D03*
X218715600Y-193548000D03*
X216890600Y-193548000D03*
X151431000Y-186710000D03*
X149606000Y-186710000D03*
D15*
X192451778Y-188007000D03*
X192451778Y-186182000D03*
D22*
X137250200Y-220281000D03*
X137250200Y-218631000D03*
D14*
X170584500Y-177292000D03*
X168759500Y-177292000D03*
D31*
X137922000Y-239522000D03*
D32*
X131922000Y-239522000D03*
D33*
X134922000Y-234822000D03*
D14*
X170584500Y-185420000D03*
X168759500Y-185420000D03*
D25*
X181102000Y-191199000D03*
X181102000Y-192849000D03*
D21*
X155789500Y-178054000D03*
X157439500Y-178054000D03*
X148462000Y-232664000D03*
X150112000Y-232664000D03*
D23*
X189403778Y-174384000D03*
X189403778Y-172834000D03*
D20*
X153136463Y-210788400D03*
X154961463Y-210788400D03*
D14*
X184046500Y-166909600D03*
X182221500Y-166909600D03*
D22*
X213360001Y-242887000D03*
X213360001Y-241237000D03*
D14*
X221638500Y-168373200D03*
X219813500Y-168373200D03*
D24*
X183705000Y-199898000D03*
X182055000Y-199898000D03*
D23*
X209042000Y-207722000D03*
X209042000Y-206172000D03*
D14*
X169465000Y-217932000D03*
X167640000Y-217932000D03*
D20*
X135517100Y-196108000D03*
X137342100Y-196108000D03*
D25*
X141427200Y-163792400D03*
X141427200Y-165442400D03*
D22*
X194306063Y-222002000D03*
X194306063Y-220352000D03*
D25*
X190927778Y-172797000D03*
X190927778Y-174447000D03*
D24*
X147383000Y-216184600D03*
X145733000Y-216184600D03*
D21*
X133541000Y-215422600D03*
X135191000Y-215422600D03*
D15*
X186355778Y-188007000D03*
X186355778Y-186182000D03*
D21*
X133541000Y-208310600D03*
X135191000Y-208310600D03*
D20*
X181990778Y-182512000D03*
X183815778Y-182512000D03*
D15*
X207238600Y-200707000D03*
X207238600Y-198882000D03*
X213614000Y-221892500D03*
X213614000Y-220067500D03*
D34*
X209655000Y-237462000D03*
X209655000Y-236961999D03*
X209655000Y-236462000D03*
X209655000Y-235962000D03*
X209655000Y-235462000D03*
X209655000Y-234962000D03*
X209655000Y-234462001D03*
X209655000Y-233962000D03*
D35*
X210340000Y-233277000D03*
X210840001Y-233277000D03*
X211340000Y-233277000D03*
X211840000Y-233277000D03*
X212340000Y-233277000D03*
X212840000Y-233277000D03*
X213339999Y-233277000D03*
X213840000Y-233277000D03*
D34*
X214525000Y-233962000D03*
X214525000Y-234462001D03*
X214525000Y-234962000D03*
X214525000Y-235462000D03*
X214525000Y-235962000D03*
X214525000Y-236462000D03*
X214525000Y-236961999D03*
X214525000Y-237462000D03*
D35*
X213840000Y-238147000D03*
X213339999Y-238147000D03*
X212840000Y-238147000D03*
X212340000Y-238147000D03*
X211840000Y-238147000D03*
X211340000Y-238147000D03*
X210840001Y-238147000D03*
X210340000Y-238147000D03*
D36*
X212090000Y-235712000D03*
D25*
X166116000Y-173376000D03*
X166116000Y-175026000D03*
D26*
X182359000Y-239776000D03*
X183909000Y-239776000D03*
D14*
X220005062Y-213360000D03*
X218180062Y-213360000D03*
D15*
X174244000Y-171632100D03*
X174244000Y-169807100D03*
D25*
X216916000Y-164466000D03*
X216916000Y-166116000D03*
D15*
X215646000Y-221892500D03*
X215646000Y-220067500D03*
D16*
X216351000Y-170200000D03*
X216351000Y-170699999D03*
X216351000Y-171200000D03*
X216351000Y-171700000D03*
X216351000Y-172200001D03*
X216351000Y-172700000D03*
D17*
X215626315Y-173425000D03*
X215126189Y-173425000D03*
X214626063Y-173425000D03*
X214125937Y-173425000D03*
X213625811Y-173425000D03*
X213125685Y-173425000D03*
D16*
X212401000Y-172700000D03*
X212401000Y-172200001D03*
X212401000Y-171700000D03*
X212401000Y-171200000D03*
X212401000Y-170699999D03*
X212401000Y-170200000D03*
D17*
X213125685Y-169475000D03*
X213625811Y-169475000D03*
X214125937Y-169475000D03*
X214626063Y-169475000D03*
X215126189Y-169475000D03*
X215626315Y-169475000D03*
D18*
X215163400Y-172237400D03*
X215163400Y-171450000D03*
X215163400Y-170662600D03*
X214376000Y-172237400D03*
X214376000Y-171450000D03*
D19*
X214376000Y-171450000D03*
D18*
X214376000Y-170662600D03*
X213588600Y-172237400D03*
X213588600Y-171450000D03*
X213588600Y-170662600D03*
D14*
X198270500Y-180734000D03*
X196445500Y-180734000D03*
X221638500Y-166341200D03*
X219813500Y-166341200D03*
D22*
X210312000Y-242887000D03*
X210312000Y-241237000D03*
D26*
X156451000Y-238282000D03*
X158001000Y-238282000D03*
D23*
X140493600Y-185186000D03*
X140493600Y-183636000D03*
D15*
X133807200Y-179142400D03*
X133807200Y-177317400D03*
D29*
X154751000Y-236474000D03*
X154751000Y-235204000D03*
X154751000Y-233934000D03*
X154751000Y-232664000D03*
X154751000Y-231394000D03*
X154751000Y-230124000D03*
X154751000Y-228854000D03*
X159701000Y-228854000D03*
X159701000Y-230124000D03*
X159701000Y-231394000D03*
X159701000Y-232664000D03*
X159701000Y-233934000D03*
X159701000Y-235204000D03*
X159701000Y-236474000D03*
D14*
X169465000Y-211804400D03*
X167640000Y-211804400D03*
D24*
X183705000Y-201422000D03*
X182055000Y-201422000D03*
D21*
X164210000Y-237236000D03*
X165860000Y-237236000D03*
D23*
X159943315Y-174962000D03*
X159943315Y-173412000D03*
D25*
X214376000Y-206122000D03*
X214376000Y-207772000D03*
D21*
X184087000Y-210763000D03*
X185737000Y-210763000D03*
D26*
X156464000Y-240030000D03*
X158014000Y-240030000D03*
D14*
X221638500Y-172437200D03*
X219813500Y-172437200D03*
X220011000Y-215415661D03*
X218186000Y-215415661D03*
X151431000Y-190774000D03*
X149606000Y-190774000D03*
X184046500Y-162845600D03*
X182221500Y-162845600D03*
D20*
X135517100Y-194076000D03*
X137342100Y-194076000D03*
D24*
X198945000Y-214827000D03*
X197295000Y-214827000D03*
D16*
X178784400Y-197632000D03*
X178784400Y-198131999D03*
X178784400Y-198632000D03*
X178784400Y-199132000D03*
X178784400Y-199632001D03*
X178784400Y-200132000D03*
D17*
X178059715Y-200857000D03*
X177559589Y-200857000D03*
X177059463Y-200857000D03*
X176559337Y-200857000D03*
X176059211Y-200857000D03*
X175559085Y-200857000D03*
D16*
X174834400Y-200132000D03*
X174834400Y-199632001D03*
X174834400Y-199132000D03*
X174834400Y-198632000D03*
X174834400Y-198131999D03*
X174834400Y-197632000D03*
D17*
X175559085Y-196907000D03*
X176059211Y-196907000D03*
X176559337Y-196907000D03*
X177059463Y-196907000D03*
X177559589Y-196907000D03*
X178059715Y-196907000D03*
D18*
X177596800Y-199669400D03*
X177596800Y-198882000D03*
X177596800Y-198094600D03*
X176809400Y-199669400D03*
X176809400Y-198882000D03*
D19*
X176809400Y-198882000D03*
D18*
X176809400Y-198094600D03*
X176022000Y-199669400D03*
X176022000Y-198882000D03*
X176022000Y-198094600D03*
D24*
X192087000Y-230124000D03*
X190437000Y-230124000D03*
D20*
X204830079Y-211816325D03*
X206655079Y-211816325D03*
D21*
X169101000Y-198374000D03*
X170751000Y-198374000D03*
X202540600Y-188468000D03*
X204190600Y-188468000D03*
D10*
X187442000Y-248920000D03*
D11*
X189982000Y-248920000D03*
X192521999Y-248920000D03*
X195062000Y-248920000D03*
D23*
X136855200Y-165379400D03*
X136855200Y-163829400D03*
D14*
X198270500Y-178702000D03*
X196445500Y-178702000D03*
D15*
X213048400Y-179342200D03*
X213048400Y-177517200D03*
D25*
X213868000Y-164466000D03*
X213868000Y-166116000D03*
D22*
X140298200Y-220281000D03*
X140298200Y-218631000D03*
D24*
X147383000Y-217708600D03*
X145733000Y-217708600D03*
D22*
X212344001Y-231203000D03*
X212344001Y-229553000D03*
D15*
X180340000Y-171632100D03*
X180340000Y-169807100D03*
X146589600Y-201338500D03*
X146589600Y-199513500D03*
D25*
X146589600Y-183599000D03*
X146589600Y-185249000D03*
X176803685Y-156592000D03*
X176803685Y-158242000D03*
D21*
X133541000Y-213644600D03*
X135191000Y-213644600D03*
D25*
X163343463Y-206122000D03*
X163343463Y-207772000D03*
D24*
X165860000Y-230124000D03*
X164210000Y-230124000D03*
D14*
X169465000Y-209772400D03*
X167640000Y-209772400D03*
D22*
X141822200Y-220281000D03*
X141822200Y-218631000D03*
D16*
X142462400Y-212084600D03*
X142462400Y-212584599D03*
X142462400Y-213084600D03*
X142462400Y-213584600D03*
X142462400Y-214084601D03*
X142462400Y-214584600D03*
D17*
X141737715Y-215309600D03*
X141237589Y-215309600D03*
X140737463Y-215309600D03*
X140237337Y-215309600D03*
X139737211Y-215309600D03*
X139237085Y-215309600D03*
D16*
X138512400Y-214584600D03*
X138512400Y-214084601D03*
X138512400Y-213584600D03*
X138512400Y-213084600D03*
X138512400Y-212584599D03*
X138512400Y-212084600D03*
D17*
X139237085Y-211359600D03*
X139737211Y-211359600D03*
X140237337Y-211359600D03*
X140737463Y-211359600D03*
X141237589Y-211359600D03*
X141737715Y-211359600D03*
D18*
X141274800Y-214122000D03*
X141274800Y-213334600D03*
X141274800Y-212547200D03*
X140487400Y-214122000D03*
X140487400Y-213334600D03*
D19*
X140487400Y-213334600D03*
D18*
X140487400Y-212547200D03*
X139700000Y-214122000D03*
X139700000Y-213334600D03*
X139700000Y-212547200D03*
D23*
X175006000Y-192799000D03*
X175006000Y-191249000D03*
D20*
X181990778Y-178448000D03*
X183815778Y-178448000D03*
D25*
X139903200Y-163792400D03*
X139903200Y-165442400D03*
X215392000Y-164466000D03*
X215392000Y-166116000D03*
D15*
X135839200Y-179142400D03*
X135839200Y-177317400D03*
D25*
X212318600Y-184595000D03*
X212318600Y-186245000D03*
D23*
X139028200Y-207053600D03*
X139028200Y-205503600D03*
D27*
X167464499Y-233680000D03*
X169339501Y-233680000D03*
D21*
X174942999Y-232664000D03*
X176592999Y-232664000D03*
D15*
X159766000Y-188789000D03*
X159766000Y-186964000D03*
D24*
X147383000Y-213106000D03*
X145733000Y-213106000D03*
D15*
X144557600Y-201338500D03*
X144557600Y-199513500D03*
D21*
X184087000Y-216859000D03*
X185737000Y-216859000D03*
D20*
X135517100Y-192044000D03*
X137342100Y-192044000D03*
D22*
X189734063Y-222002000D03*
X189734063Y-220352000D03*
D25*
X179851685Y-156592000D03*
X179851685Y-158242000D03*
D16*
X163036400Y-212135400D03*
X163036400Y-212635399D03*
X163036400Y-213135400D03*
X163036400Y-213635400D03*
X163036400Y-214135401D03*
X163036400Y-214635400D03*
D17*
X162311715Y-215360400D03*
X161811589Y-215360400D03*
X161311463Y-215360400D03*
X160811337Y-215360400D03*
X160311211Y-215360400D03*
X159811085Y-215360400D03*
D16*
X159086400Y-214635400D03*
X159086400Y-214135401D03*
X159086400Y-213635400D03*
X159086400Y-213135400D03*
X159086400Y-212635399D03*
X159086400Y-212135400D03*
D17*
X159811085Y-211410400D03*
X160311211Y-211410400D03*
X160811337Y-211410400D03*
X161311463Y-211410400D03*
X161811589Y-211410400D03*
X162311715Y-211410400D03*
D18*
X161848800Y-214172800D03*
X161848800Y-213385400D03*
X161848800Y-212598000D03*
X161061400Y-214172800D03*
X161061400Y-213385400D03*
D19*
X161061400Y-213385400D03*
D18*
X161061400Y-212598000D03*
X160274000Y-214172800D03*
X160274000Y-213385400D03*
X160274000Y-212598000D03*
D20*
X204827500Y-215900000D03*
X206652500Y-215900000D03*
D25*
X216154000Y-206122000D03*
X216154000Y-207772000D03*
D20*
X135517100Y-190012000D03*
X137342100Y-190012000D03*
D23*
X176530000Y-192799000D03*
X176530000Y-191249000D03*
D21*
X184087000Y-218383000D03*
X185737000Y-218383000D03*
D24*
X206120000Y-239522000D03*
X204470000Y-239522000D03*
D21*
X184087000Y-212287000D03*
X185737000Y-212287000D03*
D20*
X207217000Y-171929200D03*
X209042000Y-171929200D03*
D22*
X188210063Y-222002000D03*
X188210063Y-220352000D03*
D16*
X212541000Y-190774000D03*
X212541000Y-191273999D03*
X212541000Y-191774000D03*
X212541000Y-192274000D03*
X212541000Y-192774001D03*
X212541000Y-193274000D03*
D17*
X211816315Y-193999000D03*
X211316189Y-193999000D03*
X210816063Y-193999000D03*
X210315937Y-193999000D03*
X209815811Y-193999000D03*
X209315685Y-193999000D03*
D16*
X208591000Y-193274000D03*
X208591000Y-192774001D03*
X208591000Y-192274000D03*
X208591000Y-191774000D03*
X208591000Y-191273999D03*
X208591000Y-190774000D03*
D17*
X209315685Y-190049000D03*
X209815811Y-190049000D03*
X210315937Y-190049000D03*
X210816063Y-190049000D03*
X211316189Y-190049000D03*
X211816315Y-190049000D03*
D18*
X211353400Y-192811400D03*
X211353400Y-192024000D03*
X211353400Y-191236600D03*
X210566000Y-192811400D03*
X210566000Y-192024000D03*
D19*
X210566000Y-192024000D03*
D18*
X210566000Y-191236600D03*
X209778600Y-192811400D03*
X209778600Y-192024000D03*
X209778600Y-191236600D03*
D20*
X181990778Y-180480000D03*
X183815778Y-180480000D03*
D15*
X161798000Y-188789000D03*
X161798000Y-186964000D03*
D16*
X193999000Y-212364000D03*
X193999000Y-212863999D03*
X193999000Y-213364000D03*
X193999000Y-213864000D03*
X193999000Y-214364001D03*
X193999000Y-214864000D03*
D17*
X193274315Y-215589000D03*
X192774189Y-215589000D03*
X192274063Y-215589000D03*
X191773937Y-215589000D03*
X191273811Y-215589000D03*
X190773685Y-215589000D03*
D16*
X190049000Y-214864000D03*
X190049000Y-214364001D03*
X190049000Y-213864000D03*
X190049000Y-213364000D03*
X190049000Y-212863999D03*
X190049000Y-212364000D03*
D17*
X190773685Y-211639000D03*
X191273811Y-211639000D03*
X191773937Y-211639000D03*
X192274063Y-211639000D03*
X192774189Y-211639000D03*
X193274315Y-211639000D03*
D18*
X192811400Y-214401400D03*
X192811400Y-213614000D03*
X192811400Y-212826600D03*
X192024000Y-214401400D03*
X192024000Y-213614000D03*
D19*
X192024000Y-213614000D03*
D18*
X192024000Y-212826600D03*
X191236600Y-214401400D03*
X191236600Y-213614000D03*
X191236600Y-212826600D03*
D25*
X210794600Y-184595000D03*
X210794600Y-186245000D03*
D21*
X204917579Y-210058000D03*
X206567579Y-210058000D03*
D28*
X205994000Y-234442000D03*
X204444000Y-234442000D03*
D14*
X198270500Y-176670000D03*
X196445500Y-176670000D03*
D24*
X147383000Y-210058000D03*
X145733000Y-210058000D03*
D23*
X137504200Y-207040600D03*
X137504200Y-205490600D03*
D21*
X132716000Y-230886000D03*
X134366000Y-230886000D03*
D20*
X202262100Y-196342000D03*
X204087100Y-196342000D03*
D16*
X178505000Y-162046600D03*
X178505000Y-162546599D03*
X178505000Y-163046600D03*
X178505000Y-163546600D03*
X178505000Y-164046601D03*
X178505000Y-164546600D03*
D17*
X177780315Y-165271600D03*
X177280189Y-165271600D03*
X176780063Y-165271600D03*
X176279937Y-165271600D03*
X175779811Y-165271600D03*
X175279685Y-165271600D03*
D16*
X174555000Y-164546600D03*
X174555000Y-164046601D03*
X174555000Y-163546600D03*
X174555000Y-163046600D03*
X174555000Y-162546599D03*
X174555000Y-162046600D03*
D17*
X175279685Y-161321600D03*
X175779811Y-161321600D03*
X176279937Y-161321600D03*
X176780063Y-161321600D03*
X177280189Y-161321600D03*
X177780315Y-161321600D03*
D18*
X177317400Y-164084000D03*
X177317400Y-163296600D03*
X177317400Y-162509200D03*
X176530000Y-164084000D03*
X176530000Y-163296600D03*
D19*
X176530000Y-163296600D03*
D18*
X176530000Y-162509200D03*
X175742600Y-164084000D03*
X175742600Y-163296600D03*
X175742600Y-162509200D03*
D25*
X212598000Y-206122000D03*
X212598000Y-207772000D03*
D15*
X215080400Y-179342200D03*
X215080400Y-177517200D03*
D21*
X182165778Y-176670000D03*
X183815778Y-176670000D03*
D22*
X178054000Y-206057000D03*
X178054000Y-204407000D03*
D20*
X202262100Y-194310000D03*
X204087100Y-194310000D03*
D23*
X175279685Y-158192000D03*
X175279685Y-156642000D03*
D14*
X220005062Y-211328000D03*
X218180062Y-211328000D03*
D21*
X164210000Y-235458000D03*
X165860000Y-235458000D03*
D25*
X161819463Y-206122000D03*
X161819463Y-207772000D03*
D21*
X168803685Y-159797600D03*
X170453685Y-159797600D03*
D37*
X220472000Y-237744000D03*
X139860400Y-163792400D03*
X216154000Y-205359000D03*
X175260000Y-155541600D03*
X159512000Y-238252000D03*
X215392000Y-164466000D03*
X218948000Y-238760000D03*
X211836000Y-242837000D03*
X146589600Y-183599000D03*
X190754000Y-205232000D03*
X137504200Y-204306200D03*
X167640000Y-159766000D03*
X142494000Y-163830000D03*
X189403778Y-172834000D03*
X198120000Y-240792000D03*
X152177600Y-209010400D03*
X139028200Y-204309600D03*
X210820000Y-205359000D03*
X135331200Y-163829400D03*
X176646500Y-240411000D03*
X175006000Y-191249000D03*
X212318600Y-184595000D03*
X198120000Y-239014000D03*
X185420000Y-237744000D03*
X193975778Y-172797000D03*
X189230000Y-205232000D03*
X136652000Y-186766006D03*
X213106000Y-234696000D03*
X195326000Y-205232000D03*
X176646500Y-238887000D03*
X212090000Y-234696000D03*
X212090000Y-236728000D03*
X151827000Y-242951000D03*
X164867463Y-205093063D03*
X160295463Y-205093063D03*
X212090000Y-235712000D03*
X179578000Y-189738000D03*
X207492600Y-184645000D03*
X158771463Y-205093063D03*
X212344000Y-164503000D03*
X203708000Y-210058000D03*
X173736000Y-155541600D03*
X209120600Y-184645000D03*
X142017600Y-183636000D03*
X136855200Y-163829400D03*
X172185500Y-242697000D03*
X213106000Y-235712000D03*
X187879778Y-172834000D03*
X216916000Y-164466000D03*
X140486900Y-183644146D03*
X192988396Y-242710396D03*
X161467315Y-173412000D03*
X209042000Y-205232000D03*
X164592000Y-173376000D03*
X129286000Y-166116000D03*
X176530000Y-191249000D03*
X159943315Y-173412000D03*
X202946000Y-235966000D03*
X182165778Y-176670000D03*
X213106000Y-236728000D03*
X179832000Y-155541600D03*
X210820000Y-164503000D03*
X213842600Y-184595000D03*
X159512000Y-240030000D03*
X220472000Y-234442000D03*
X192451778Y-172797000D03*
X143600200Y-204309600D03*
X202946000Y-234442000D03*
X218948000Y-240538000D03*
X166116000Y-173376000D03*
X178308000Y-155541600D03*
X186436000Y-238252000D03*
X163068000Y-173376000D03*
X132334000Y-208280000D03*
X163343463Y-205093063D03*
X145065600Y-183599000D03*
X176784000Y-155541600D03*
X157303000Y-207722000D03*
X213360001Y-243839999D03*
X215392000Y-243840000D03*
X169339501Y-231980499D03*
X216408000Y-235966000D03*
X207518000Y-187452000D03*
X182937000Y-210763000D03*
X178054000Y-191199000D03*
X207010000Y-236474000D03*
X181356000Y-239776000D03*
X192278000Y-205232000D03*
X139285600Y-185005600D03*
X209613000Y-166053000D03*
X142076200Y-204319600D03*
X212598000Y-205232000D03*
X138379200Y-163792400D03*
X202540600Y-188468000D03*
X167386000Y-231902000D03*
X186576000Y-174384000D03*
X167386000Y-230124000D03*
X190927778Y-172797000D03*
X174942999Y-233934000D03*
X196088000Y-230124000D03*
X196088000Y-231648000D03*
X172466000Y-158242000D03*
X161819463Y-205093063D03*
X154686000Y-178054000D03*
X210312000Y-242824000D03*
X140552200Y-204343000D03*
X193798063Y-205235937D03*
X136398000Y-205994000D03*
X207865600Y-206756000D03*
X154178000Y-237998000D03*
X173736000Y-193294000D03*
X213868000Y-164466000D03*
X143541600Y-183599000D03*
X205994000Y-232918000D03*
X158794000Y-174962000D03*
X169101000Y-195326000D03*
X207449600Y-168148000D03*
X134205600Y-165354000D03*
X187960000Y-207518000D03*
X214376000Y-205232000D03*
X210794600Y-184595000D03*
X197104000Y-233172000D03*
X148462000Y-234060000D03*
X179578000Y-191199000D03*
X139367500Y-174576499D03*
X141478000Y-179578000D03*
X141224000Y-181356000D03*
X141224000Y-177800000D03*
X148590000Y-173228000D03*
X145034000Y-179070000D03*
X143510000Y-164338000D03*
X141224000Y-175006000D03*
X133350000Y-174752000D03*
X134795501Y-174576499D03*
X134366000Y-180340000D03*
X129458099Y-179148499D03*
X132080000Y-175514000D03*
X131318000Y-177800000D03*
X132334000Y-182626000D03*
X154940000Y-161544000D03*
X154940000Y-166116000D03*
X156718000Y-169672000D03*
X156718000Y-164846000D03*
X160528000Y-161544000D03*
X160528000Y-166116000D03*
X156718000Y-160020000D03*
X147828000Y-160020000D03*
X151638000Y-161544000D03*
X151638000Y-166194499D03*
X146304000Y-166116000D03*
X146050000Y-161544000D03*
X147828000Y-164846000D03*
X147828000Y-169672000D03*
X147828000Y-169672000D03*
X131318000Y-211074000D03*
X137922000Y-228854000D03*
X137922000Y-221996000D03*
X133685206Y-221560894D03*
X134874000Y-205232000D03*
X147398500Y-221644998D03*
X149098000Y-211074000D03*
X156941899Y-206248000D03*
X165608000Y-221742000D03*
X159512000Y-226314000D03*
X170942000Y-211836000D03*
X153924000Y-221742000D03*
X158242000Y-223266000D03*
X153924000Y-206756000D03*
X132080000Y-215392000D03*
X133350000Y-194056000D03*
X132080000Y-211836000D03*
X141224000Y-189738000D03*
X132334000Y-197866000D03*
X132080000Y-213614000D03*
X139192000Y-197866000D03*
X132080000Y-210058000D03*
X131318000Y-164592000D03*
X140298200Y-221578200D03*
X133350000Y-192532000D03*
X132080000Y-217170000D03*
X138811000Y-221615000D03*
X132334000Y-160528000D03*
X135890000Y-220218000D03*
X132334000Y-188214000D03*
X148844000Y-216154000D03*
X147828000Y-156210000D03*
X143256000Y-236220000D03*
X148844000Y-214122000D03*
X156718000Y-156210000D03*
X148844000Y-217678000D03*
X143346200Y-221651800D03*
X136398000Y-160274000D03*
X138684000Y-160274000D03*
X141822200Y-221651800D03*
X157480000Y-234950000D03*
X148844000Y-212090000D03*
X151130000Y-236220000D03*
X148844000Y-213106000D03*
X147383000Y-208597000D03*
X170434000Y-234950000D03*
X198452500Y-199898000D03*
X205740000Y-184990499D03*
X221742000Y-201168000D03*
X202008500Y-183404000D03*
X222758000Y-196088000D03*
X220472000Y-196088000D03*
X196596000Y-188608600D03*
X213360000Y-195072000D03*
X196596000Y-193040000D03*
X198531000Y-191770000D03*
X194564000Y-200152000D03*
X183896000Y-189484000D03*
X190246000Y-193294000D03*
X192278000Y-189738000D03*
X187452000Y-198120000D03*
X186944000Y-194056000D03*
X184100000Y-191770000D03*
X181356000Y-188468000D03*
X185928000Y-167132000D03*
X185928000Y-165862000D03*
X185928000Y-164592000D03*
X181864000Y-170434000D03*
X185928000Y-160782000D03*
X185928000Y-163068000D03*
X185674000Y-158750000D03*
X171020500Y-155623500D03*
X173228000Y-166624000D03*
X172720000Y-170688000D03*
X166116000Y-166624000D03*
X167386000Y-163576000D03*
X165354000Y-165862000D03*
X166116000Y-167640000D03*
X175768000Y-209296000D03*
X176530000Y-223598499D03*
X175928400Y-207518000D03*
X168148000Y-198374000D03*
X199136000Y-202184000D03*
X175006000Y-187608998D03*
X149098000Y-179832000D03*
X175768000Y-177292000D03*
X174498000Y-179578000D03*
X175006000Y-195072000D03*
X171196000Y-204978000D03*
X151130000Y-204724000D03*
X166784400Y-202438000D03*
X175006000Y-207264000D03*
X192576396Y-201974396D03*
X173482000Y-207264000D03*
X184912000Y-202692000D03*
X179578000Y-181102000D03*
X175166400Y-185166000D03*
X158574499Y-176959501D03*
X175166400Y-178562000D03*
X187706000Y-202184000D03*
X181356000Y-204470000D03*
X176530000Y-212930499D03*
X169828998Y-204626998D03*
X178054000Y-207264000D03*
X157480000Y-203200000D03*
X193548000Y-178308000D03*
X184912000Y-197612000D03*
X185090499Y-195401501D03*
X200499600Y-178308000D03*
X207772000Y-177800000D03*
X205486000Y-174498000D03*
X208945000Y-181199000D03*
X207010000Y-179070000D03*
X223012000Y-176501200D03*
X218712200Y-179342200D03*
X217932000Y-180848000D03*
X221488000Y-179070000D03*
X224028000Y-172974000D03*
X217835000Y-182626000D03*
X224086800Y-171240396D03*
X211016400Y-180536400D03*
X210820000Y-175260000D03*
X203962000Y-172974000D03*
X193626500Y-164924499D03*
X191770000Y-161700998D03*
X193626500Y-169750499D03*
X191770000Y-166272998D03*
X200660000Y-161700998D03*
X202516500Y-164924499D03*
X200660000Y-166272998D03*
X206248000Y-166272998D03*
X206248000Y-161700998D03*
X202516500Y-169750499D03*
X202516500Y-160098499D03*
X197358000Y-166272998D03*
X197358000Y-161700998D03*
X193626500Y-160098499D03*
X193626500Y-156210000D03*
X198882000Y-208788000D03*
X200406000Y-213360000D03*
X219534500Y-162560000D03*
X200406000Y-216408000D03*
X211660500Y-160606500D03*
X200406000Y-211836000D03*
X202516500Y-156210000D03*
X219534500Y-164670500D03*
X200406000Y-217424000D03*
X208534000Y-160782000D03*
X200406000Y-214884000D03*
X182372000Y-216916000D03*
X183134000Y-234696000D03*
X182372000Y-223012000D03*
X216916000Y-185420000D03*
X191258063Y-223262063D03*
X221742000Y-191770000D03*
X215138000Y-199898000D03*
X194310000Y-223266000D03*
X192786000Y-223266000D03*
X221140400Y-193802000D03*
X220726000Y-190246000D03*
X182378000Y-222002000D03*
X182372000Y-212344000D03*
X217678000Y-237236000D03*
X197007000Y-236220000D03*
X182372000Y-215392000D03*
X182429000Y-218383000D03*
X219710000Y-199390000D03*
X207772000Y-234442000D03*
X182372000Y-213868000D03*
X187706000Y-218440000D03*
X190500000Y-226822000D03*
X189484000Y-224536000D03*
X185166000Y-209296000D03*
X189230000Y-209042000D03*
X201676000Y-208026000D03*
X198882000Y-221742000D03*
X209707000Y-209042000D03*
X221488000Y-211328000D03*
X205486000Y-221742000D03*
X210566000Y-226568000D03*
X220980000Y-222250000D03*
X204724000Y-208534000D03*
X215138000Y-224028000D03*
X216916000Y-246888000D03*
X141409000Y-242890000D03*
X168279401Y-231008599D03*
X159766000Y-178054000D03*
X135207367Y-207335600D03*
X132935600Y-164846000D03*
X156635396Y-208870604D03*
X135666820Y-206662400D03*
X168282915Y-229108000D03*
X133604000Y-164084000D03*
X161849918Y-177763126D03*
X154940000Y-207518000D03*
X209042000Y-188214000D03*
X138557000Y-183261000D03*
X173736000Y-194310000D03*
X152654000Y-156557600D03*
X172466000Y-159258000D03*
X216408000Y-243586000D03*
X173482000Y-160274000D03*
X214376000Y-243586000D03*
X174244000Y-195834000D03*
X153670000Y-156718000D03*
X137414000Y-183642000D03*
X208026000Y-188976000D03*
X161417000Y-238887000D03*
X161290000Y-240792000D03*
X161163000Y-242697000D03*
X201676000Y-239014000D03*
X201676000Y-240792000D03*
X201676000Y-242570000D03*
X186436000Y-209042000D03*
X205994000Y-208788000D03*
X187706000Y-231394000D03*
X187960000Y-177800000D03*
X211074000Y-168910000D03*
X207727604Y-166414396D03*
X186436000Y-207772000D03*
X187706000Y-230124000D03*
X206564210Y-207772000D03*
X187960000Y-176784000D03*
X179832000Y-238125000D03*
X179578000Y-241173000D03*
X179578000Y-242697000D03*
X194818000Y-240157000D03*
X153543000Y-240411000D03*
X216408000Y-239522000D03*
X173863000Y-240157000D03*
X194818000Y-241427000D03*
X173863000Y-241427000D03*
X153543000Y-241681000D03*
X216408000Y-240538000D03*
X168148000Y-191770000D03*
X168148000Y-189484000D03*
X164592000Y-199898000D03*
X162814000Y-196596000D03*
X153162000Y-186690000D03*
X168910000Y-188468000D03*
X171704000Y-188468000D03*
X153670000Y-189738000D03*
X171704000Y-192112791D03*
X153924000Y-199898000D03*
X157734000Y-193040000D03*
X157734000Y-188468000D03*
X142525600Y-201338500D03*
X150622000Y-183388000D03*
X144557600Y-201338500D03*
X136652000Y-185166000D03*
X153572998Y-188311002D03*
X154178000Y-191516000D03*
X136652000Y-185966003D03*
X154525600Y-196689600D03*
D38*
X213356000Y-235962000D02*
X213106000Y-235712000D01*
X195322063Y-205235937D02*
X195326000Y-205232000D01*
X140737463Y-214372063D02*
X140487400Y-214122000D01*
D39*
X192274063Y-215589000D02*
X192274063Y-214651463D01*
D38*
X139860400Y-163792400D02*
X139903200Y-163792400D01*
X192274063Y-214651463D02*
X192024000Y-214401400D01*
D40*
X216154000Y-206122000D02*
X216154000Y-205359000D01*
D38*
X176780063Y-164334063D02*
X176530000Y-164084000D01*
X210816063Y-193061463D02*
X210566000Y-192811400D01*
X175279685Y-155561285D02*
X175260000Y-155541600D01*
D40*
X186436000Y-239268000D02*
X186436000Y-238252000D01*
D38*
X211840000Y-235462000D02*
X212090000Y-235712000D01*
D41*
X136067994Y-186766006D02*
X136652000Y-186766006D01*
D39*
X210816063Y-193999000D02*
X210816063Y-193061463D01*
D40*
X204444000Y-234442000D02*
X202946000Y-234442000D01*
X219710000Y-237744000D02*
X220472000Y-237744000D01*
D41*
X135795600Y-188234000D02*
X135795600Y-187038400D01*
D40*
X195322063Y-206439000D02*
X195322063Y-205235937D01*
D38*
X179851685Y-155561285D02*
X179832000Y-155541600D01*
D39*
X179578000Y-189738000D02*
X179981200Y-190141200D01*
X212848063Y-215335000D02*
X212848063Y-214397463D01*
D41*
X135795600Y-187038400D02*
X136067994Y-186766006D01*
D40*
X159512000Y-240030000D02*
X158014000Y-240030000D01*
D38*
X212340000Y-235962000D02*
X212090000Y-235712000D01*
D39*
X176780063Y-165271600D02*
X176780063Y-164334063D01*
D38*
X137892663Y-172233463D02*
X137642600Y-171983400D01*
X212856000Y-235962000D02*
X212340000Y-235962000D01*
X190927778Y-182082463D02*
X190677715Y-181832400D01*
X190750063Y-205235937D02*
X190754000Y-205232000D01*
D41*
X158496000Y-236474000D02*
X158014000Y-236956000D01*
D39*
X161311463Y-215360400D02*
X161311463Y-214422863D01*
D38*
X134366000Y-234266000D02*
X134922000Y-234822000D01*
D41*
X183896000Y-236728000D02*
X183896000Y-239763000D01*
D38*
X189226063Y-205235937D02*
X189230000Y-205232000D01*
X178327685Y-155561285D02*
X178308000Y-155541600D01*
D40*
X219228000Y-235966001D02*
X219228000Y-237262000D01*
X183909000Y-239776000D02*
X185928000Y-239776000D01*
X139028200Y-204309600D02*
X139028200Y-205503600D01*
D39*
X190927778Y-183020000D02*
X190927778Y-182082463D01*
D38*
X177059463Y-199919463D02*
X176809400Y-199669400D01*
D40*
X137504200Y-204306200D02*
X137504200Y-205490600D01*
X143600200Y-204309600D02*
X143600200Y-205453600D01*
D39*
X180743200Y-190141200D02*
X181102000Y-190500000D01*
D40*
X179851685Y-156592000D02*
X179851685Y-155561285D01*
X152177600Y-209010400D02*
X153414963Y-209010400D01*
D38*
X213106000Y-235712000D02*
X212856000Y-235962000D01*
D40*
X168803685Y-159797600D02*
X167671600Y-159797600D01*
X160295463Y-205093063D02*
X160295463Y-206172000D01*
X209042000Y-206172000D02*
X209042000Y-205232000D01*
X158001000Y-238282000D02*
X159482000Y-238282000D01*
X204917579Y-210058000D02*
X203708000Y-210058000D01*
D39*
X214525000Y-235962000D02*
X213356000Y-235962000D01*
D40*
X210820000Y-206172000D02*
X210820000Y-205359000D01*
D42*
X209655000Y-235462000D02*
X211840000Y-235462000D01*
D41*
X184150000Y-236474000D02*
X183896000Y-236728000D01*
D38*
X129311400Y-166141400D02*
X129286000Y-166116000D01*
D40*
X158014000Y-236956000D02*
X158014000Y-240030000D01*
D38*
X167671600Y-159797600D02*
X167640000Y-159766000D01*
D40*
X164867463Y-205093063D02*
X164867463Y-206122000D01*
X190750063Y-206489000D02*
X190750063Y-205235937D01*
D38*
X143988663Y-193061463D02*
X143738600Y-192811400D01*
D39*
X177059463Y-200857000D02*
X177059463Y-199919463D01*
D38*
X142456400Y-163792400D02*
X142494000Y-163830000D01*
X212848063Y-214397463D02*
X212598000Y-214147400D01*
D40*
X175279685Y-156642000D02*
X175279685Y-155561285D01*
D38*
X161311463Y-214422863D02*
X161061400Y-214172800D01*
D39*
X140737463Y-215309600D02*
X140737463Y-214372063D01*
X181102000Y-190500000D02*
X181102000Y-191199000D01*
D38*
X163236063Y-182139463D02*
X162986000Y-181889400D01*
D40*
X219228000Y-237262000D02*
X219710000Y-237744000D01*
D39*
X214626063Y-173425000D02*
X214626063Y-172487463D01*
D40*
X183909000Y-238252000D02*
X184912000Y-238252000D01*
X141427200Y-163792400D02*
X142456400Y-163792400D01*
D41*
X185609000Y-236474000D02*
X184150000Y-236474000D01*
D40*
X134366000Y-230886000D02*
X134366000Y-234266000D01*
X173755685Y-156642000D02*
X173755685Y-155561285D01*
X178327685Y-156592000D02*
X178327685Y-155561285D01*
X158771463Y-205093063D02*
X158771463Y-206172000D01*
X189226063Y-206489000D02*
X189226063Y-205235937D01*
D41*
X159701000Y-236474000D02*
X158496000Y-236474000D01*
D38*
X173755685Y-155561285D02*
X173736000Y-155541600D01*
D39*
X143996389Y-193991274D02*
X143996389Y-193069189D01*
D40*
X204444000Y-235966000D02*
X202946000Y-235966000D01*
D39*
X137892663Y-173171000D02*
X137892663Y-172233463D01*
X143988663Y-193999000D02*
X143996389Y-193991274D01*
D38*
X183896000Y-239763000D02*
X183909000Y-239776000D01*
D40*
X184912000Y-238252000D02*
X185420000Y-237744000D01*
X219228000Y-234442000D02*
X220472000Y-234442000D01*
D39*
X143996389Y-193069189D02*
X143988663Y-193061463D01*
D38*
X159482000Y-238282000D02*
X159512000Y-238252000D01*
D40*
X130482700Y-166141400D02*
X129311400Y-166141400D01*
D38*
X214626063Y-172487463D02*
X214376000Y-172237400D01*
D39*
X179981200Y-190141200D02*
X180743200Y-190141200D01*
X163236063Y-183077000D02*
X163236063Y-182139463D01*
D40*
X185928000Y-239776000D02*
X186436000Y-239268000D01*
D39*
X212852000Y-167513000D02*
X212344000Y-167005000D01*
D38*
X207518000Y-187452000D02*
X207492600Y-187426600D01*
D40*
X175006000Y-192799000D02*
X174231000Y-192799000D01*
D41*
X174942999Y-233934000D02*
X174942999Y-232664000D01*
D38*
X161467315Y-176199315D02*
X162735937Y-177467937D01*
D41*
X217678000Y-235966000D02*
X217678000Y-234442000D01*
D39*
X143488537Y-188700537D02*
X142017600Y-187229600D01*
X213360000Y-167513000D02*
X212852000Y-167513000D01*
D41*
X205994000Y-234442000D02*
X205994000Y-232918000D01*
D40*
X157303000Y-207722000D02*
X158771463Y-207722000D01*
D39*
X212347937Y-210188937D02*
X210820000Y-208661000D01*
D40*
X135331200Y-165379400D02*
X134231000Y-165379400D01*
X140552200Y-204343000D02*
X140552200Y-205453600D01*
D39*
X142017600Y-187229600D02*
X142017600Y-185186000D01*
X210315937Y-188217937D02*
X210315937Y-190049000D01*
D41*
X207518000Y-236982000D02*
X207518000Y-237490000D01*
D39*
X136398000Y-205994000D02*
X136398000Y-206692500D01*
D41*
X154751000Y-236474000D02*
X156097000Y-236474000D01*
X155194000Y-240030000D02*
X154686000Y-239522000D01*
D40*
X139466000Y-185186000D02*
X140493600Y-185186000D01*
D38*
X205998000Y-235962000D02*
X205994000Y-235966000D01*
D41*
X167386000Y-231902000D02*
X165859999Y-231902000D01*
D38*
X134620000Y-227584000D02*
X134620000Y-226568000D01*
D39*
X190750063Y-209546063D02*
X191773937Y-210569937D01*
D40*
X193798063Y-206439000D02*
X193798063Y-205235937D01*
D39*
X140237337Y-209071337D02*
X140237337Y-211359600D01*
D38*
X216408001Y-235966001D02*
X216408000Y-235966000D01*
D40*
X158771463Y-207722000D02*
X160295463Y-207722000D01*
D39*
X160295463Y-209063463D02*
X160811337Y-209579337D01*
D40*
X207492600Y-187426600D02*
X207492600Y-186195000D01*
D38*
X176803685Y-155561285D02*
X176784000Y-155541600D01*
D39*
X160295463Y-207722000D02*
X160295463Y-209063463D01*
D38*
X134231000Y-165379400D02*
X134205600Y-165354000D01*
D41*
X154178000Y-239014000D02*
X154178000Y-237998000D01*
D39*
X191773937Y-210569937D02*
X191773937Y-211639000D01*
X214125937Y-168278937D02*
X213360000Y-167513000D01*
D38*
X192274063Y-205235937D02*
X192278000Y-205232000D01*
D40*
X142076200Y-204319600D02*
X142076200Y-205453600D01*
D39*
X175279685Y-158192000D02*
X175279685Y-159023685D01*
D40*
X133541000Y-208310600D02*
X132364600Y-208310600D01*
D38*
X190427652Y-176711652D02*
X190427652Y-179070000D01*
D40*
X137504200Y-207040600D02*
X139015200Y-207040600D01*
X142017600Y-185186000D02*
X140493600Y-185186000D01*
X208230000Y-207722000D02*
X209042000Y-207722000D01*
D38*
X133858000Y-225806000D02*
X131826000Y-225806000D01*
D39*
X175279685Y-159023685D02*
X176279937Y-160023937D01*
D40*
X175006000Y-192799000D02*
X176530000Y-192799000D01*
X209042000Y-207722000D02*
X210998000Y-207722000D01*
X189226063Y-208039000D02*
X188481000Y-208039000D01*
D39*
X136398000Y-206692500D02*
X136746100Y-207040600D01*
D41*
X181356000Y-239776000D02*
X182359000Y-239776000D01*
D39*
X176279937Y-160023937D02*
X176279937Y-161321600D01*
D41*
X213360001Y-243839999D02*
X213360001Y-242887000D01*
D40*
X176803685Y-156592000D02*
X176803685Y-155561285D01*
D41*
X192087000Y-230124000D02*
X196088000Y-230124000D01*
D40*
X212344000Y-166053000D02*
X210820000Y-166053000D01*
D39*
X214125937Y-169475000D02*
X214125937Y-168278937D01*
X176559337Y-192828337D02*
X176559337Y-196907000D01*
X176530000Y-192799000D02*
X176559337Y-192828337D01*
D40*
X207865600Y-206756000D02*
X207865600Y-207357600D01*
D39*
X160811337Y-209579337D02*
X160811337Y-211410400D01*
D40*
X163343463Y-205093063D02*
X163343463Y-206122000D01*
X173755685Y-158192000D02*
X175279685Y-158192000D01*
D41*
X207010000Y-236474000D02*
X207518000Y-236982000D01*
D38*
X189403778Y-175687778D02*
X190427652Y-176711652D01*
D41*
X156464000Y-236841000D02*
X156464000Y-240030000D01*
D40*
X172516000Y-158192000D02*
X173755685Y-158192000D01*
D38*
X162735937Y-177467937D02*
X162735937Y-179127000D01*
D40*
X182937000Y-210763000D02*
X184087000Y-210763000D01*
D38*
X139015200Y-207040600D02*
X139028200Y-207053600D01*
D39*
X210820000Y-208661000D02*
X210820000Y-207722000D01*
D41*
X217678000Y-235966001D02*
X216408001Y-235966001D01*
D39*
X137392537Y-169221000D02*
X137392537Y-167618537D01*
D38*
X132364600Y-208310600D02*
X132334000Y-208280000D01*
X159943315Y-174962000D02*
X161467315Y-174962000D01*
D39*
X139028200Y-207053600D02*
X139028200Y-207862200D01*
D40*
X209613000Y-166053000D02*
X210820000Y-166053000D01*
D38*
X131826000Y-225806000D02*
X130048000Y-227584000D01*
D41*
X205994000Y-235966000D02*
X205994000Y-234441999D01*
D39*
X190750063Y-208039000D02*
X190750063Y-209546063D01*
D38*
X189403778Y-174384000D02*
X189403778Y-175687778D01*
X130048000Y-227584000D02*
X128778000Y-227584000D01*
D40*
X136855200Y-165379400D02*
X135331200Y-165379400D01*
D41*
X154686000Y-239522000D02*
X154178000Y-239014000D01*
X214376000Y-206122000D02*
X214376000Y-205232000D01*
D39*
X209120600Y-187022600D02*
X210315937Y-188217937D01*
X136746100Y-207040600D02*
X137504200Y-207040600D01*
X217657999Y-234462001D02*
X214525000Y-234462001D01*
X137392537Y-167618537D02*
X136855200Y-167081200D01*
D41*
X156097000Y-236474000D02*
X156464000Y-236841000D01*
D39*
X217678000Y-234442000D02*
X217657999Y-234462001D01*
D41*
X195755501Y-233172000D02*
X197104000Y-233172000D01*
X182359000Y-239776000D02*
X182359000Y-236842000D01*
X169339501Y-231980499D02*
X169339501Y-233680000D01*
X156464000Y-240030000D02*
X155194000Y-240030000D01*
D38*
X161467315Y-174962000D02*
X161467315Y-176199315D01*
D41*
X196088000Y-231648000D02*
X192086999Y-231648000D01*
D39*
X209655000Y-235962000D02*
X205998000Y-235962000D01*
X209120600Y-186195000D02*
X209120600Y-187022600D01*
D41*
X181991000Y-236474000D02*
X180659000Y-236474000D01*
X207518000Y-237490000D02*
X207264000Y-237744000D01*
D38*
X209042000Y-207722000D02*
X210820000Y-207722000D01*
X187879778Y-174384000D02*
X189403778Y-174384000D01*
D40*
X139285600Y-185005600D02*
X139466000Y-185186000D01*
D38*
X155789500Y-178054000D02*
X154686000Y-178054000D01*
D39*
X212347937Y-211385000D02*
X212347937Y-210188937D01*
D38*
X186576000Y-174384000D02*
X187879778Y-174384000D01*
X193802000Y-205232000D02*
X193798063Y-205235937D01*
D40*
X174231000Y-192799000D02*
X173736000Y-193294000D01*
X189226063Y-208039000D02*
X190750063Y-208039000D01*
X207865600Y-207357600D02*
X208230000Y-207722000D01*
D41*
X207264000Y-237744000D02*
X206345002Y-237744000D01*
D38*
X134620000Y-226568000D02*
X133858000Y-225806000D01*
X172466000Y-158242000D02*
X172516000Y-158192000D01*
D39*
X143488537Y-190049000D02*
X143488537Y-188700537D01*
D40*
X207492600Y-186195000D02*
X209120600Y-186195000D01*
D39*
X212344000Y-167005000D02*
X212344000Y-166053000D01*
X139028200Y-207862200D02*
X140237337Y-209071337D01*
X136855200Y-167081200D02*
X136855200Y-165379400D01*
D40*
X188481000Y-208039000D02*
X187960000Y-207518000D01*
D38*
X158794000Y-174962000D02*
X159943315Y-174962000D01*
D41*
X165860000Y-230124000D02*
X167386000Y-230124000D01*
X182359000Y-236842000D02*
X181991000Y-236474000D01*
D40*
X161819463Y-205093063D02*
X161819463Y-206122000D01*
D41*
X212598000Y-206122000D02*
X212598000Y-205232000D01*
X215392000Y-243840000D02*
X215392000Y-242887000D01*
D40*
X192274063Y-206439000D02*
X192274063Y-205235937D01*
D41*
X148462000Y-234060000D02*
X148462000Y-232664000D01*
D38*
X215392000Y-246126000D02*
X213868000Y-244602000D01*
X213868000Y-244602000D02*
X209804000Y-244602000D01*
X211786001Y-241237000D02*
X211836000Y-241287000D01*
X209042000Y-241808000D02*
X209613000Y-241237000D01*
X211836000Y-241287000D02*
X211835999Y-240792000D01*
X209613000Y-241237000D02*
X210312000Y-241237000D01*
X211840000Y-240788000D02*
X211840000Y-238147000D01*
X209042000Y-243840000D02*
X209042000Y-241808000D01*
X215392000Y-248920000D02*
X215392000Y-246126000D01*
X210312000Y-241237000D02*
X211786001Y-241237000D01*
X211835999Y-240792000D02*
X211840000Y-240788000D01*
X209804000Y-244602000D02*
X209042000Y-243840000D01*
X165859999Y-233680000D02*
X167464499Y-233680000D01*
X204470000Y-237566000D02*
X204470000Y-239522000D01*
X204470000Y-239522000D02*
X204457000Y-239509000D01*
X204457000Y-239509000D02*
X204457000Y-239268000D01*
X139367500Y-174576499D02*
X142337001Y-177546000D01*
X143811000Y-177546000D02*
X145081000Y-176276000D01*
X142337001Y-177546000D02*
X143811000Y-177546000D01*
X142748000Y-179578000D02*
X141478000Y-179578000D01*
X145669000Y-177673000D02*
X144653000Y-177673000D01*
X146558000Y-175768000D02*
X146558000Y-176784000D01*
X145081000Y-174218600D02*
X145081000Y-174291000D01*
X144653000Y-177673000D02*
X142748000Y-179578000D01*
X146558000Y-176784000D02*
X145669000Y-177673000D01*
X145081000Y-174291000D02*
X146558000Y-175768000D01*
X144780000Y-178308000D02*
X141732000Y-181356000D01*
X141732000Y-181356000D02*
X141224000Y-181356000D01*
X146050000Y-178308000D02*
X144780000Y-178308000D01*
X145081000Y-172186600D02*
X146278600Y-172186600D01*
X147066000Y-172974000D02*
X147066000Y-177292000D01*
X147066000Y-177292000D02*
X146050000Y-178308000D01*
X146278600Y-172186600D02*
X147066000Y-172974000D01*
X140897600Y-179142400D02*
X141224000Y-178816000D01*
X139903200Y-179142400D02*
X140897600Y-179142400D01*
X141224000Y-178816000D02*
X141224000Y-177800000D01*
X146050000Y-168148000D02*
X146812000Y-168910000D01*
X148590000Y-171958000D02*
X148590000Y-173228000D01*
X146812000Y-170180000D02*
X148590000Y-171958000D01*
X145081000Y-168148000D02*
X146050000Y-168148000D01*
X146812000Y-168910000D02*
X146812000Y-170180000D01*
X146558000Y-179070000D02*
X145034000Y-179070000D01*
X145081000Y-170154600D02*
X146024600Y-170154600D01*
X146024600Y-170154600D02*
X147828000Y-171958000D01*
X147828000Y-177800000D02*
X146558000Y-179070000D01*
X147828000Y-171958000D02*
X147828000Y-177800000D01*
X145081000Y-164893000D02*
X144526000Y-164338000D01*
X144526000Y-164338000D02*
X143510000Y-164338000D01*
X145081000Y-166116000D02*
X145081000Y-164893000D01*
X132080000Y-176574396D02*
X132080000Y-180086000D01*
X133350000Y-175304396D02*
X132080000Y-176574396D01*
X132080000Y-180086000D02*
X133604000Y-181610000D01*
X137871200Y-180136800D02*
X137871200Y-179142400D01*
X133350000Y-174752000D02*
X133350000Y-175304396D01*
X133604000Y-181610000D02*
X136398000Y-181610000D01*
X136398000Y-181610000D02*
X137871200Y-180136800D01*
X134795501Y-174576499D02*
X134795047Y-174576499D01*
X135839200Y-180390800D02*
X135839200Y-179142400D01*
X132588000Y-180023790D02*
X133666210Y-181102000D01*
X134795047Y-174576499D02*
X132588000Y-176783546D01*
X133666210Y-181102000D02*
X135128000Y-181102000D01*
X135128000Y-181102000D02*
X135839200Y-180390800D01*
X132588000Y-176783546D02*
X132588000Y-180023790D01*
X133807200Y-179781200D02*
X133807200Y-179142400D01*
X134366000Y-180340000D02*
X133807200Y-179781200D01*
X129440900Y-179131300D02*
X129440900Y-172797500D01*
X129440900Y-172797500D02*
X130255000Y-171983400D01*
X129458099Y-179148499D02*
X129440900Y-179131300D01*
X132588000Y-183388000D02*
X131064000Y-183388000D01*
X131064000Y-183388000D02*
X128778000Y-181102000D01*
X128778000Y-171403000D02*
X130255000Y-169926000D01*
X130658200Y-179934200D02*
X132935600Y-182211600D01*
X128778000Y-181102000D02*
X128778000Y-171403000D01*
X130658200Y-176935800D02*
X130658200Y-179934200D01*
X132935600Y-183040400D02*
X132588000Y-183388000D01*
X132935600Y-182211600D02*
X132935600Y-183040400D01*
X132080000Y-175514000D02*
X130658200Y-176935800D01*
X128371600Y-181457600D02*
X128371600Y-169062400D01*
X131318000Y-180023790D02*
X133604000Y-182309790D01*
X132692800Y-184045200D02*
X130959200Y-184045200D01*
X128371600Y-169062400D02*
X129540000Y-167894000D01*
X131318000Y-177800000D02*
X131318000Y-180023790D01*
X129540000Y-167894000D02*
X130255000Y-167894000D01*
X133604000Y-182309790D02*
X133604000Y-183134000D01*
X130959200Y-184045200D02*
X128371600Y-181457600D01*
X133604000Y-183134000D02*
X132692800Y-184045200D01*
X130255000Y-174015400D02*
X130255000Y-180547000D01*
X130255000Y-180547000D02*
X132334000Y-182626000D01*
X157734000Y-161544000D02*
X158750000Y-160528000D01*
X160782000Y-160528000D02*
X163068000Y-162814000D01*
X171958000Y-185420000D02*
X170584500Y-185420000D01*
X169226210Y-169672000D02*
X173482000Y-173927790D01*
X164338000Y-169672000D02*
X169226210Y-169672000D01*
X158750000Y-160528000D02*
X160782000Y-160528000D01*
X163068000Y-162814000D02*
X163068000Y-168402000D01*
X154940000Y-161544000D02*
X157734000Y-161544000D01*
X173482000Y-173927790D02*
X173482000Y-183896000D01*
X163068000Y-168402000D02*
X164338000Y-169672000D01*
X173482000Y-183896000D02*
X171958000Y-185420000D01*
X172212000Y-183388000D02*
X172974000Y-182626000D01*
X172974000Y-173990000D02*
X169164000Y-170180000D01*
X162306000Y-165100000D02*
X161544000Y-164338000D01*
X172974000Y-182626000D02*
X172974000Y-173990000D01*
X163830000Y-170180000D02*
X162306000Y-168656000D01*
X158242000Y-166116000D02*
X154940000Y-166116000D01*
X169164000Y-170180000D02*
X163830000Y-170180000D01*
X160020000Y-164338000D02*
X158242000Y-166116000D01*
X161544000Y-164338000D02*
X160020000Y-164338000D01*
X170584500Y-183388000D02*
X172212000Y-183388000D01*
X162306000Y-168656000D02*
X162306000Y-165100000D01*
X156718000Y-168656000D02*
X160274000Y-165100000D01*
X161290000Y-165100000D02*
X161671000Y-165481000D01*
X169034420Y-170688000D02*
X172510400Y-174163980D01*
X161671000Y-165481000D02*
X161671000Y-169291000D01*
X172510400Y-174163980D02*
X172510400Y-180803600D01*
X156718000Y-169672000D02*
X156718000Y-168656000D01*
X171958000Y-181356000D02*
X170584500Y-181356000D01*
X160274000Y-165100000D02*
X161290000Y-165100000D01*
X172510400Y-180803600D02*
X171958000Y-181356000D01*
X163068000Y-170688000D02*
X169034420Y-170688000D01*
X161671000Y-169291000D02*
X163068000Y-170688000D01*
X163830000Y-167894000D02*
X163830000Y-162560000D01*
X173885200Y-185270800D02*
X173885200Y-173760780D01*
X154295474Y-161337735D02*
X154295474Y-163947474D01*
X173885200Y-173760780D02*
X169393220Y-169268800D01*
X163830000Y-162560000D02*
X161036000Y-159766000D01*
X167386000Y-188214000D02*
X167386000Y-187452000D01*
X165862000Y-188789000D02*
X166811000Y-188789000D01*
X154295474Y-163947474D02*
X155194000Y-164846000D01*
X155194000Y-164846000D02*
X156718000Y-164846000D01*
X166811000Y-188789000D02*
X167386000Y-188214000D01*
X158496000Y-159766000D02*
X157480000Y-160782000D01*
X172212000Y-186944000D02*
X173885200Y-185270800D01*
X157480000Y-160782000D02*
X154851209Y-160782000D01*
X169393220Y-169268800D02*
X165204800Y-169268800D01*
X161036000Y-159766000D02*
X158496000Y-159766000D01*
X167386000Y-187452000D02*
X167894000Y-186944000D01*
X165204800Y-169268800D02*
X163830000Y-167894000D01*
X167894000Y-186944000D02*
X172212000Y-186944000D01*
X154851209Y-160782000D02*
X154295474Y-161337735D01*
X157827600Y-165514400D02*
X160528000Y-162814000D01*
X170584500Y-177292000D02*
X171704000Y-176172500D01*
X171704000Y-174498000D02*
X168910000Y-171704000D01*
X171704000Y-176172500D02*
X171704000Y-174498000D01*
X154275366Y-169515366D02*
X154275366Y-165869436D01*
X156464000Y-171704000D02*
X154275366Y-169515366D01*
X160528000Y-162814000D02*
X160528000Y-161544000D01*
X168910000Y-171704000D02*
X156464000Y-171704000D01*
X154275366Y-165869436D02*
X154630402Y-165514400D01*
X154630402Y-165514400D02*
X157827600Y-165514400D01*
X171450000Y-179324000D02*
X170584500Y-179324000D01*
X168972210Y-171196000D02*
X172107200Y-174330990D01*
X172107200Y-174330990D02*
X172107200Y-178666800D01*
X162560000Y-171196000D02*
X168972210Y-171196000D01*
X172107200Y-178666800D02*
X171450000Y-179324000D01*
X160528000Y-166116000D02*
X160528000Y-169164000D01*
X160528000Y-169164000D02*
X162560000Y-171196000D01*
X170584500Y-174140500D02*
X168656000Y-172212000D01*
X154432000Y-160020000D02*
X156718000Y-160020000D01*
X153872166Y-164094377D02*
X153892274Y-164074269D01*
X155702000Y-172212000D02*
X153872166Y-170382166D01*
X170584500Y-175260000D02*
X170584500Y-174140500D01*
X153892274Y-160559726D02*
X154432000Y-160020000D01*
X153892274Y-164074269D02*
X153892274Y-160559726D01*
X168656000Y-172212000D02*
X155702000Y-172212000D01*
X153872166Y-170382166D02*
X153872166Y-164094377D01*
X163322000Y-190246000D02*
X156718000Y-190246000D01*
X149860000Y-162052000D02*
X147828000Y-160020000D01*
X149860000Y-183896000D02*
X149860000Y-162052000D01*
X153879600Y-186391600D02*
X152146000Y-184658000D01*
X150622000Y-184658000D02*
X149860000Y-183896000D01*
X163830000Y-189738000D02*
X163322000Y-190246000D01*
X156718000Y-190246000D02*
X153879600Y-187407600D01*
X153879600Y-187407600D02*
X153879600Y-186391600D01*
X163830000Y-188789000D02*
X163830000Y-189738000D01*
X152146000Y-184658000D02*
X150622000Y-184658000D01*
X150622000Y-182434210D02*
X150622000Y-162560000D01*
X160849000Y-189738000D02*
X156780210Y-189738000D01*
X161798000Y-188789000D02*
X160849000Y-189738000D01*
X154282800Y-187240590D02*
X154282800Y-186095010D01*
X156780210Y-189738000D02*
X154282800Y-187240590D01*
X150622000Y-162560000D02*
X151638000Y-161544000D01*
X154282800Y-186095010D02*
X150622000Y-182434210D01*
X154686000Y-185928000D02*
X154686000Y-187073580D01*
X158473396Y-188789000D02*
X159766000Y-188789000D01*
X151638000Y-166194499D02*
X151638000Y-182880000D01*
X151638000Y-182880000D02*
X154686000Y-185928000D01*
X156842420Y-189230000D02*
X158032396Y-189230000D01*
X154686000Y-187073580D02*
X156842420Y-189230000D01*
X158032396Y-189230000D02*
X158473396Y-188789000D01*
X150368000Y-157988000D02*
X152642800Y-160262800D01*
X152642800Y-182106800D02*
X154432000Y-183896000D01*
X148590000Y-162814000D02*
X146558000Y-160782000D01*
X146558000Y-160782000D02*
X146558000Y-159004000D01*
X147574000Y-157988000D02*
X150368000Y-157988000D01*
X152642800Y-160262800D02*
X152642800Y-182106800D01*
X146304000Y-166116000D02*
X147828000Y-166116000D01*
X148590000Y-165354000D02*
X148590000Y-162814000D01*
X147828000Y-166116000D02*
X148590000Y-165354000D01*
X146558000Y-159004000D02*
X147574000Y-157988000D01*
X154432000Y-183896000D02*
X155551500Y-183896000D01*
X154178000Y-181864000D02*
X153065766Y-180751766D01*
X153065766Y-159923766D02*
X150726800Y-157584800D01*
X150726800Y-157584800D02*
X147152989Y-157584800D01*
X146050000Y-158687789D02*
X146050000Y-161544000D01*
X153065766Y-180751766D02*
X153065766Y-159923766D01*
X155551500Y-181864000D02*
X154178000Y-181864000D01*
X147152989Y-157584800D02*
X146050000Y-158687789D01*
X153468966Y-159437966D02*
X153468966Y-178868966D01*
X144780000Y-159004000D02*
X146812000Y-156972000D01*
X146812000Y-156972000D02*
X151003000Y-156972000D01*
X146558000Y-164846000D02*
X144780000Y-163068000D01*
X153468966Y-178868966D02*
X154432000Y-179832000D01*
X147828000Y-164846000D02*
X146558000Y-164846000D01*
X144780000Y-163068000D02*
X144780000Y-159004000D01*
X151003000Y-156972000D02*
X153468966Y-159437966D01*
X154432000Y-179832000D02*
X155551500Y-179832000D01*
X147066000Y-160274000D02*
X149352000Y-162560000D01*
X147828000Y-158496000D02*
X147066000Y-159258000D01*
X150114000Y-158496000D02*
X147828000Y-158496000D01*
X152239600Y-182616100D02*
X152239600Y-160621600D01*
X147066000Y-159258000D02*
X147066000Y-160274000D01*
X155551500Y-185928000D02*
X152239600Y-182616100D01*
X149352000Y-162560000D02*
X149352000Y-168148000D01*
X149352000Y-168148000D02*
X147828000Y-169672000D01*
X152239600Y-160621600D02*
X150114000Y-158496000D01*
X131318000Y-211074000D02*
X130556000Y-211836000D01*
X145288000Y-220694894D02*
X146422094Y-219560800D01*
X130556000Y-216916000D02*
X137922000Y-224282000D01*
X146422094Y-219560800D02*
X148930990Y-219560800D01*
X151669600Y-212820400D02*
X153136463Y-212820400D01*
X130556000Y-211836000D02*
X130556000Y-216916000D01*
X137922000Y-224282000D02*
X144209790Y-224282000D01*
X150622000Y-217869790D02*
X150622000Y-213868000D01*
X145288000Y-223203790D02*
X145288000Y-220694894D01*
X150622000Y-213868000D02*
X151669600Y-212820400D01*
X144209790Y-224282000D02*
X145288000Y-223203790D01*
X148930990Y-219560800D02*
X150622000Y-217869790D01*
X151892000Y-217297000D02*
X152304600Y-216884400D01*
X152304600Y-216884400D02*
X153136463Y-216884400D01*
X151892000Y-218440000D02*
X151892000Y-217297000D01*
X141732000Y-228854000D02*
X146558000Y-224028000D01*
X149606000Y-220726000D02*
X151892000Y-218440000D01*
X137922000Y-228854000D02*
X141732000Y-228854000D01*
X147320000Y-220726000D02*
X149606000Y-220726000D01*
X146558000Y-224028000D02*
X146558000Y-221488000D01*
X146558000Y-221488000D02*
X147320000Y-220726000D01*
X144526000Y-220726000D02*
X144526000Y-223012000D01*
X146326200Y-218925800D02*
X144526000Y-220726000D01*
X139446000Y-223520000D02*
X137922000Y-221996000D01*
X148866200Y-218925800D02*
X146326200Y-218925800D01*
X149860000Y-217932000D02*
X148866200Y-218925800D01*
X144526000Y-223012000D02*
X144018000Y-223520000D01*
X144018000Y-223520000D02*
X139446000Y-223520000D01*
X152050600Y-210788400D02*
X149860000Y-212979000D01*
X153136463Y-210788400D02*
X152050600Y-210788400D01*
X149860000Y-212979000D02*
X149860000Y-217932000D01*
X153136463Y-214852400D02*
X152177600Y-214852400D01*
X137168312Y-225044000D02*
X133685206Y-221560894D01*
X145923000Y-223520000D02*
X144399000Y-225044000D01*
X144399000Y-225044000D02*
X137168312Y-225044000D01*
X152177600Y-214852400D02*
X151257000Y-215773000D01*
X151257000Y-215773000D02*
X151257000Y-218059000D01*
X151257000Y-218059000D02*
X149098000Y-220218000D01*
X145923000Y-221107000D02*
X145923000Y-223520000D01*
X146812000Y-220218000D02*
X145923000Y-221107000D01*
X149098000Y-220218000D02*
X146812000Y-220218000D01*
X136144000Y-229870000D02*
X137160000Y-230886000D01*
X132334000Y-205232000D02*
X129032000Y-208534000D01*
X142494000Y-230886000D02*
X152908000Y-220472000D01*
X134874000Y-205232000D02*
X132334000Y-205232000D01*
X154559000Y-220472000D02*
X156464000Y-222377000D01*
X136144000Y-226822000D02*
X136144000Y-229870000D01*
X160528000Y-222377000D02*
X161311463Y-221593537D01*
X161311463Y-221593537D02*
X161311463Y-220265000D01*
X152908000Y-220472000D02*
X154559000Y-220472000D01*
X137160000Y-230886000D02*
X142494000Y-230886000D01*
X129032000Y-219710000D02*
X136144000Y-226822000D01*
X129032000Y-208534000D02*
X129032000Y-219710000D01*
X156464000Y-222377000D02*
X160528000Y-222377000D01*
X154940000Y-218948000D02*
X152400000Y-218948000D01*
X156210000Y-220218000D02*
X154940000Y-218948000D01*
X152400000Y-218948000D02*
X149703002Y-221644998D01*
X149703002Y-221644998D02*
X147398500Y-221644998D01*
X157247463Y-220218000D02*
X156210000Y-220218000D01*
X149098000Y-205994000D02*
X149098000Y-211074000D01*
X135890000Y-204470000D02*
X136779000Y-203581000D01*
X132842000Y-205994000D02*
X135382000Y-205994000D01*
X154686000Y-219710000D02*
X152654000Y-219710000D01*
X137414000Y-229870000D02*
X136906000Y-229362000D01*
X156718000Y-221742000D02*
X154686000Y-219710000D01*
X129794000Y-209042000D02*
X132842000Y-205994000D01*
X142494000Y-229870000D02*
X137414000Y-229870000D01*
X136779000Y-203581000D02*
X146685000Y-203581000D01*
X159279463Y-220265000D02*
X159279463Y-221339537D01*
X136906000Y-226060000D02*
X129794000Y-218948000D01*
X136906000Y-229362000D02*
X136906000Y-226060000D01*
X135382000Y-205994000D02*
X135890000Y-205486000D01*
X129794000Y-218948000D02*
X129794000Y-209042000D01*
X135890000Y-205486000D02*
X135890000Y-204470000D01*
X146685000Y-203581000D02*
X149098000Y-205994000D01*
X159279463Y-221339537D02*
X158877000Y-221742000D01*
X158877000Y-221742000D02*
X156718000Y-221742000D01*
X152654000Y-219710000D02*
X142494000Y-229870000D01*
X165354000Y-204470000D02*
X165862000Y-204978000D01*
X156941899Y-205262101D02*
X157734000Y-204470000D01*
X165862000Y-206248000D02*
X167767000Y-208153000D01*
X169037000Y-208153000D02*
X169465000Y-208581000D01*
X169465000Y-208581000D02*
X169465000Y-209772400D01*
X157734000Y-204470000D02*
X165354000Y-204470000D01*
X165862000Y-204978000D02*
X165862000Y-206248000D01*
X156941899Y-206248000D02*
X156941899Y-205262101D01*
X167767000Y-208153000D02*
X169037000Y-208153000D01*
X172974000Y-220726000D02*
X170688000Y-223012000D01*
X170688000Y-223012000D02*
X166878000Y-223012000D01*
X172974000Y-215900000D02*
X172974000Y-220726000D01*
X169465000Y-213868000D02*
X170942000Y-213868000D01*
X166878000Y-223012000D02*
X165608000Y-221742000D01*
X170942000Y-213868000D02*
X172974000Y-215900000D01*
X165799790Y-221042210D02*
X165416211Y-221042210D01*
X169465000Y-215900000D02*
X170434000Y-215900000D01*
X170434000Y-215900000D02*
X171958000Y-217424000D01*
X171958000Y-220980000D02*
X170538800Y-222399200D01*
X164970421Y-224411579D02*
X163068000Y-226314000D01*
X171958000Y-217424000D02*
X171958000Y-220980000D01*
X164970421Y-221488000D02*
X164970421Y-224411579D01*
X163068000Y-226314000D02*
X159512000Y-226314000D01*
X167156780Y-222399200D02*
X165799790Y-221042210D01*
X170538800Y-222399200D02*
X167156780Y-222399200D01*
X165416211Y-221042210D02*
X164970421Y-221488000D01*
X169465000Y-211804400D02*
X170910400Y-211804400D01*
X170910400Y-211804400D02*
X170942000Y-211836000D01*
X169465000Y-217932000D02*
X170434000Y-217932000D01*
X155956000Y-225298000D02*
X153924000Y-223266000D01*
X164338000Y-221550211D02*
X164338000Y-223520000D01*
X170434000Y-217932000D02*
X171196000Y-218694000D01*
X167323790Y-221996000D02*
X165948990Y-220621200D01*
X169926000Y-221996000D02*
X167323790Y-221996000D01*
X164338000Y-223520000D02*
X162560000Y-225298000D01*
X165267011Y-220621200D02*
X164338000Y-221550211D01*
X171196000Y-218694000D02*
X171196000Y-220726000D01*
X153924000Y-223266000D02*
X153924000Y-221742000D01*
X171196000Y-220726000D02*
X169926000Y-221996000D01*
X165948990Y-220621200D02*
X165267011Y-220621200D01*
X162560000Y-225298000D02*
X155956000Y-225298000D01*
X161544000Y-223266000D02*
X163343463Y-221466537D01*
X163343463Y-221466537D02*
X163343463Y-220265000D01*
X158242000Y-223266000D02*
X161544000Y-223266000D01*
X167894000Y-207518000D02*
X169418000Y-207518000D01*
X152908000Y-223012000D02*
X152908000Y-221615000D01*
X166497000Y-204851000D02*
X166497000Y-206121000D01*
X153924000Y-206756000D02*
X156718000Y-203962000D01*
X156464000Y-224536000D02*
X161798000Y-224536000D01*
X154940000Y-221742000D02*
X154940000Y-223012000D01*
X163830000Y-221488000D02*
X165100000Y-220218000D01*
X154178000Y-220980000D02*
X154940000Y-221742000D01*
X169926000Y-227584000D02*
X157480000Y-227584000D01*
X152908000Y-221615000D02*
X153543000Y-220980000D01*
X166116000Y-220218000D02*
X167386000Y-221488000D01*
X167386000Y-221488000D02*
X169164000Y-221488000D01*
X173736000Y-211836000D02*
X173736000Y-223774000D01*
X169164000Y-221488000D02*
X169465000Y-221187000D01*
X161798000Y-224536000D02*
X163830000Y-222504000D01*
X154940000Y-223012000D02*
X156464000Y-224536000D01*
X156718000Y-203962000D02*
X165608000Y-203962000D01*
X166497000Y-206121000D02*
X167894000Y-207518000D01*
X157480000Y-227584000D02*
X152908000Y-223012000D01*
X173736000Y-223774000D02*
X169926000Y-227584000D01*
X163830000Y-222504000D02*
X163830000Y-221488000D01*
X165608000Y-203962000D02*
X166497000Y-204851000D01*
X165100000Y-220218000D02*
X166116000Y-220218000D01*
X153543000Y-220980000D02*
X154178000Y-220980000D01*
X169418000Y-207518000D02*
X173736000Y-211836000D01*
X169465000Y-221187000D02*
X169465000Y-219964000D01*
X132110600Y-215422600D02*
X132080000Y-215392000D01*
X133541000Y-215422600D02*
X132110600Y-215422600D01*
X133541000Y-211866600D02*
X132110600Y-211866600D01*
X132110600Y-211866600D02*
X132080000Y-211836000D01*
X133541000Y-213644600D02*
X132110600Y-213644600D01*
X132110600Y-213644600D02*
X132080000Y-213614000D01*
X133541000Y-210088600D02*
X132110600Y-210088600D01*
X132110600Y-210088600D02*
X132080000Y-210058000D01*
X140298200Y-221578200D02*
X140298200Y-220281000D01*
X132110600Y-217200600D02*
X132080000Y-217170000D01*
X133541000Y-217200600D02*
X132110600Y-217200600D01*
X138774200Y-221578200D02*
X138774200Y-220281000D01*
X138811000Y-221615000D02*
X138774200Y-221578200D01*
X137250200Y-220281000D02*
X135953000Y-220281000D01*
X135953000Y-220281000D02*
X135890000Y-220218000D01*
X147383000Y-216184600D02*
X148813400Y-216184600D01*
X148813400Y-216184600D02*
X148844000Y-216154000D01*
X148305400Y-214660600D02*
X147383000Y-214660600D01*
X148844000Y-214122000D02*
X148305400Y-214660600D01*
X147383000Y-217708600D02*
X148813400Y-217708600D01*
X148813400Y-217708600D02*
X148844000Y-217678000D01*
X143346200Y-221651800D02*
X143346200Y-220281000D01*
X141822200Y-221651800D02*
X141822200Y-220281000D01*
X147383000Y-211582000D02*
X148336000Y-211582000D01*
X148336000Y-211582000D02*
X148844000Y-212090000D01*
X147383000Y-213106000D02*
X148844000Y-213106000D01*
X147383000Y-208597000D02*
X147383000Y-210058000D01*
X221592800Y-195176800D02*
X221592800Y-199031200D01*
X218715600Y-193548000D02*
X219964000Y-193548000D01*
X202008500Y-203454000D02*
X198452500Y-199898000D01*
X221592800Y-199031200D02*
X217170000Y-203454000D01*
X219964000Y-193548000D02*
X221592800Y-195176800D01*
X217170000Y-203454000D02*
X202008500Y-203454000D01*
X205740000Y-183642000D02*
X205740000Y-184990499D01*
X220472000Y-187135790D02*
X216216210Y-182880000D01*
X206502000Y-182880000D02*
X205740000Y-183642000D01*
X220472000Y-188722000D02*
X220472000Y-187135790D01*
X216216210Y-182880000D02*
X206502000Y-182880000D01*
X219710000Y-189484000D02*
X220472000Y-188722000D01*
X218715600Y-189484000D02*
X219710000Y-189484000D01*
X220218000Y-191516000D02*
X221996000Y-193294000D01*
X221996000Y-200914000D02*
X221742000Y-201168000D01*
X221996000Y-193294000D02*
X221996000Y-200914000D01*
X218715600Y-191516000D02*
X220218000Y-191516000D01*
X205994000Y-185674000D02*
X206502000Y-185166000D01*
X202008500Y-183404000D02*
X204278500Y-185674000D01*
X204278500Y-185674000D02*
X205994000Y-185674000D01*
X206502000Y-185166000D02*
X206502000Y-183769000D01*
X218715600Y-186203600D02*
X218715600Y-187452000D01*
X206883000Y-183388000D02*
X215900000Y-183388000D01*
X215900000Y-183388000D02*
X218715600Y-186203600D01*
X206502000Y-183769000D02*
X206883000Y-183388000D01*
X219710000Y-197612000D02*
X220472000Y-196850000D01*
X201168000Y-183165105D02*
X201168000Y-186944000D01*
X222758000Y-188659790D02*
X216470210Y-182372000D01*
X201168000Y-186944000D02*
X199503400Y-188608600D01*
X201961105Y-182372000D02*
X201168000Y-183165105D01*
X199503400Y-188608600D02*
X196596000Y-188608600D01*
X222758000Y-196088000D02*
X222758000Y-188659790D01*
X218715600Y-197612000D02*
X219710000Y-197612000D01*
X216470210Y-182372000D02*
X201961105Y-182372000D01*
X220472000Y-196850000D02*
X220472000Y-196088000D01*
X213360000Y-196342000D02*
X213360000Y-195072000D01*
X218715600Y-195580000D02*
X219710000Y-195580000D01*
X219710000Y-195580000D02*
X220218000Y-195072000D01*
X217424000Y-200406000D02*
X213360000Y-196342000D01*
X220218000Y-195072000D02*
X220599000Y-195072000D01*
X221151395Y-198902395D02*
X219647790Y-200406000D01*
X219647790Y-200406000D02*
X217424000Y-200406000D01*
X221151395Y-195624395D02*
X221151395Y-198902395D01*
X220599000Y-195072000D02*
X221151395Y-195624395D01*
X194564000Y-200152000D02*
X195419600Y-199296400D01*
X212090000Y-202946000D02*
X213334600Y-201701400D01*
X198788400Y-199296400D02*
X202438000Y-202946000D01*
X195419600Y-199296400D02*
X198788400Y-199296400D01*
X202438000Y-202946000D02*
X212090000Y-202946000D01*
X213334600Y-201701400D02*
X213334600Y-200707000D01*
X210566000Y-202438000D02*
X211302600Y-201701400D01*
X180934990Y-187302800D02*
X180340000Y-187897790D01*
X180340000Y-188976000D02*
X182118000Y-190754000D01*
X192532000Y-200152000D02*
X194056000Y-198628000D01*
X182118000Y-190754000D02*
X182118000Y-192913000D01*
X183388000Y-194183000D02*
X185039000Y-194183000D01*
X180340000Y-187897790D02*
X180340000Y-188976000D01*
X183134000Y-188214000D02*
X182222800Y-187302800D01*
X183896000Y-189484000D02*
X183134000Y-188722000D01*
X203200000Y-202438000D02*
X210566000Y-202438000D01*
X194056000Y-198628000D02*
X199390000Y-198628000D01*
X185039000Y-194183000D02*
X186182000Y-195326000D01*
X183134000Y-188722000D02*
X183134000Y-188214000D01*
X186182000Y-199390000D02*
X186944000Y-200152000D01*
X182222800Y-187302800D02*
X180934990Y-187302800D01*
X211302600Y-201701400D02*
X211302600Y-200707000D01*
X186944000Y-200152000D02*
X192532000Y-200152000D01*
X182118000Y-192913000D02*
X183388000Y-194183000D01*
X186182000Y-195326000D02*
X186182000Y-199390000D01*
X199390000Y-198628000D02*
X203200000Y-202438000D01*
X207238600Y-200707000D02*
X204009000Y-200707000D01*
X194056000Y-197104000D02*
X190246000Y-193294000D01*
X200406000Y-197104000D02*
X194056000Y-197104000D01*
X204009000Y-200707000D02*
X200406000Y-197104000D01*
X182753000Y-190818790D02*
X180754400Y-188820190D01*
X203962000Y-201930000D02*
X199898000Y-197866000D01*
X180754400Y-188053600D02*
X181102000Y-187706000D01*
X199898000Y-197866000D02*
X192532000Y-197866000D01*
X180754400Y-188820190D02*
X180754400Y-188053600D01*
X184061209Y-190500000D02*
X191516000Y-190500000D01*
X209270600Y-200707000D02*
X209270600Y-201447400D01*
X181864000Y-187706000D02*
X182626000Y-188468000D01*
X181102000Y-187706000D02*
X181864000Y-187706000D01*
X182626000Y-189064791D02*
X184061209Y-190500000D01*
X191008000Y-199390000D02*
X187198000Y-199390000D01*
X183769000Y-193548000D02*
X182753000Y-192532000D01*
X182753000Y-192532000D02*
X182753000Y-190818790D01*
X182626000Y-188468000D02*
X182626000Y-189064791D01*
X208788000Y-201930000D02*
X203962000Y-201930000D01*
X209270600Y-201447400D02*
X208788000Y-201930000D01*
X187198000Y-199390000D02*
X186690000Y-198882000D01*
X191516000Y-190500000D02*
X192278000Y-189738000D01*
X192532000Y-197866000D02*
X191008000Y-199390000D01*
X186690000Y-198882000D02*
X186690000Y-194945000D01*
X185293000Y-193548000D02*
X183769000Y-193548000D01*
X186690000Y-194945000D02*
X185293000Y-193548000D01*
X187452000Y-198120000D02*
X188214000Y-197358000D01*
X194818000Y-196342000D02*
X202262100Y-196342000D01*
X189831600Y-192692400D02*
X191168400Y-192692400D01*
X191168400Y-192692400D02*
X194818000Y-196342000D01*
X188214000Y-197358000D02*
X188214000Y-194310000D01*
X188214000Y-194310000D02*
X189831600Y-192692400D01*
X188849000Y-192151000D02*
X192913000Y-192151000D01*
X192913000Y-192151000D02*
X195072000Y-194310000D01*
X195072000Y-194310000D02*
X202262100Y-194310000D01*
X186944000Y-194056000D02*
X188849000Y-192151000D01*
X195865390Y-190246000D02*
X202262100Y-190246000D01*
X184735000Y-191135000D02*
X194976390Y-191135000D01*
X194976390Y-191135000D02*
X195865390Y-190246000D01*
X184100000Y-191770000D02*
X184735000Y-191135000D01*
X195961000Y-191643000D02*
X196596000Y-191008000D01*
X183388000Y-190499999D02*
X183388000Y-192024000D01*
X187706000Y-191643000D02*
X195961000Y-191643000D01*
X199644000Y-191008000D02*
X201007600Y-192371600D01*
X202168500Y-192371600D02*
X202262100Y-192278000D01*
X181356000Y-188468000D02*
X182494611Y-189606610D01*
X201007600Y-192371600D02*
X202168500Y-192371600D01*
X196596000Y-191008000D02*
X199644000Y-191008000D01*
X186563000Y-192786000D02*
X187706000Y-191643000D01*
X183388000Y-192024000D02*
X184150000Y-192786000D01*
X184150000Y-192786000D02*
X186563000Y-192786000D01*
X182494611Y-189606610D02*
X183388000Y-190499999D01*
X185928000Y-168148000D02*
X185928000Y-167132000D01*
X185134400Y-168941600D02*
X185928000Y-168148000D01*
X184046500Y-168941600D02*
X185134400Y-168941600D01*
X184046500Y-166909600D02*
X184880400Y-166909600D01*
X184880400Y-166909600D02*
X185928000Y-165862000D01*
X184332100Y-164592000D02*
X185928000Y-164592000D01*
X184046500Y-164877600D02*
X184332100Y-164592000D01*
X181427900Y-171632100D02*
X180340000Y-171632100D01*
X181864000Y-171196000D02*
X181427900Y-171632100D01*
X181864000Y-170434000D02*
X181864000Y-171196000D01*
X185896400Y-160813600D02*
X185928000Y-160782000D01*
X184046500Y-160813600D02*
X185896400Y-160813600D01*
X184268900Y-163068000D02*
X185928000Y-163068000D01*
X184046500Y-162845600D02*
X184268900Y-163068000D01*
X185642400Y-158781600D02*
X185674000Y-158750000D01*
X184046500Y-158781600D02*
X185642400Y-158781600D01*
X184658000Y-154432000D02*
X188722000Y-158496000D01*
X188722000Y-166442530D02*
X182323730Y-172840800D01*
X172212000Y-154432000D02*
X184658000Y-154432000D01*
X182323730Y-172840800D02*
X178682800Y-172840800D01*
X178308000Y-172466000D02*
X178308000Y-171632100D01*
X178682800Y-172840800D02*
X178308000Y-172466000D01*
X171020500Y-155623500D02*
X172212000Y-154432000D01*
X188722000Y-158496000D02*
X188722000Y-166442530D01*
X171958000Y-169164000D02*
X171958000Y-168656000D01*
X176276000Y-171632100D02*
X176276000Y-172720000D01*
X173922630Y-173228000D02*
X173067315Y-172372685D01*
X176276000Y-172720000D02*
X175768000Y-173228000D01*
X171958000Y-168656000D02*
X173228000Y-167386000D01*
X175768000Y-173228000D02*
X173922630Y-173228000D01*
X171958000Y-171263370D02*
X171958000Y-169164000D01*
X173228000Y-167386000D02*
X173228000Y-166624000D01*
X173067315Y-172372685D02*
X171958000Y-171263370D01*
X172720000Y-171196000D02*
X173156100Y-171632100D01*
X172720000Y-170688000D02*
X172720000Y-171196000D01*
X173156100Y-171632100D02*
X174244000Y-171632100D01*
X167100400Y-165639600D02*
X168525185Y-165639600D01*
X166116000Y-166624000D02*
X167100400Y-165639600D01*
X168493585Y-163576000D02*
X168525185Y-163607600D01*
X167386000Y-163576000D02*
X168493585Y-163576000D01*
X165354000Y-163068000D02*
X165354000Y-165862000D01*
X166846400Y-161575600D02*
X165354000Y-163068000D01*
X168525185Y-161575600D02*
X166846400Y-161575600D01*
X166116000Y-167640000D02*
X168493585Y-167640000D01*
X168493585Y-167640000D02*
X168525185Y-167671600D01*
X169101000Y-201422000D02*
X168275000Y-202248000D01*
X170942000Y-205994000D02*
X172813600Y-207865600D01*
X168275000Y-202248000D02*
X168275000Y-205105000D01*
X168275000Y-205105000D02*
X169164000Y-205994000D01*
X169164000Y-205994000D02*
X170942000Y-205994000D01*
X174752000Y-210312000D02*
X174752000Y-221820499D01*
X175674400Y-207865600D02*
X176022000Y-207518000D01*
X175768000Y-209296000D02*
X174752000Y-210312000D01*
X172813600Y-207865600D02*
X175674400Y-207865600D01*
X174752000Y-221820499D02*
X176530000Y-223598499D01*
X176022000Y-207518000D02*
X175928400Y-207518000D01*
X169101000Y-198374000D02*
X168148000Y-198374000D01*
X173228000Y-189386998D02*
X175006000Y-187608998D01*
X171639210Y-193675000D02*
X173228000Y-192086210D01*
X173228000Y-192086210D02*
X173228000Y-189386998D01*
X168402000Y-199898000D02*
X167386000Y-198882000D01*
X167925105Y-193675000D02*
X171639210Y-193675000D01*
X169101000Y-199898000D02*
X168402000Y-199898000D01*
X167386000Y-198882000D02*
X167386000Y-194214105D01*
X167386000Y-194214105D02*
X167925105Y-193675000D01*
X167894000Y-196342000D02*
X167894000Y-194691000D01*
X168402000Y-196850000D02*
X167894000Y-196342000D01*
X169101000Y-196850000D02*
X168402000Y-196850000D01*
X168275000Y-194310000D02*
X171766210Y-194310000D01*
X167894000Y-194691000D02*
X168275000Y-194310000D01*
X175768000Y-188214000D02*
X175768000Y-177292000D01*
X173736000Y-190246000D02*
X175768000Y-188214000D01*
X171766210Y-194310000D02*
X173736000Y-192340210D01*
X173736000Y-192340210D02*
X173736000Y-190246000D01*
X171704000Y-193040000D02*
X172720000Y-192024000D01*
X168656000Y-206502000D02*
X167767000Y-205613000D01*
X167767000Y-201549000D02*
X166624000Y-200406000D01*
X167767000Y-193040000D02*
X171704000Y-193040000D01*
X167767000Y-205613000D02*
X167767000Y-201549000D01*
X176530000Y-207772000D02*
X176022000Y-208280000D01*
X174498000Y-185420000D02*
X174498000Y-179578000D01*
X170434000Y-206502000D02*
X168656000Y-206502000D01*
X166624000Y-200406000D02*
X166624000Y-194183000D01*
X166624000Y-194183000D02*
X167767000Y-193040000D01*
X172720000Y-192024000D02*
X172720000Y-187198000D01*
X176530000Y-206057000D02*
X176530000Y-207772000D01*
X172212000Y-208280000D02*
X170434000Y-206502000D01*
X172720000Y-187198000D02*
X174498000Y-185420000D01*
X176022000Y-208280000D02*
X172212000Y-208280000D01*
X169101000Y-204915000D02*
X169672000Y-205486000D01*
X169101000Y-202946000D02*
X169101000Y-204915000D01*
X170688000Y-205486000D02*
X171196000Y-204978000D01*
X169672000Y-205486000D02*
X170688000Y-205486000D01*
X166878000Y-202438000D02*
X153416000Y-202438000D01*
X153416000Y-202438000D02*
X151130000Y-204724000D01*
X175006000Y-206057000D02*
X175006000Y-207264000D01*
X173482000Y-206057000D02*
X173482000Y-207264000D01*
X184404000Y-201422000D02*
X184912000Y-201930000D01*
X183705000Y-201422000D02*
X184404000Y-201422000D01*
X184912000Y-201930000D02*
X184912000Y-202692000D01*
X186690000Y-202184000D02*
X184404000Y-199898000D01*
X187706000Y-202184000D02*
X186690000Y-202184000D01*
X184404000Y-199898000D02*
X183705000Y-199898000D01*
X175166400Y-178562000D02*
X175166400Y-185166000D01*
X183705000Y-202946000D02*
X183705000Y-203899000D01*
X183705000Y-203899000D02*
X183134000Y-204470000D01*
X183134000Y-204470000D02*
X181356000Y-204470000D01*
X179578000Y-209882499D02*
X179578000Y-206057000D01*
X179578000Y-209882499D02*
X176530000Y-212930499D01*
X178054000Y-206057000D02*
X178054000Y-207264000D01*
X176784000Y-210820000D02*
X176784000Y-209086400D01*
X186881790Y-202946000D02*
X180594000Y-209233790D01*
X188722000Y-201422000D02*
X188722000Y-202355395D01*
X168402000Y-207010000D02*
X167132000Y-205740000D01*
X188722000Y-202355395D02*
X188131395Y-202946000D01*
X180594000Y-211074000D02*
X177546000Y-214122000D01*
X177546000Y-214122000D02*
X176022000Y-214122000D01*
X176784000Y-209086400D02*
X176380800Y-208683200D01*
X176380800Y-208683200D02*
X171599200Y-208683200D01*
X188131395Y-202946000D02*
X186881790Y-202946000D01*
X185674000Y-197358000D02*
X185674000Y-200152000D01*
X185166000Y-196850000D02*
X185674000Y-197358000D01*
X165862000Y-203200000D02*
X157480000Y-203200000D01*
X183705000Y-196850000D02*
X185166000Y-196850000D01*
X175514000Y-213614000D02*
X175514000Y-212090000D01*
X188214000Y-200914000D02*
X188722000Y-201422000D01*
X175514000Y-212090000D02*
X176784000Y-210820000D01*
X180594000Y-209233790D02*
X180594000Y-211074000D01*
X167132000Y-205740000D02*
X167132000Y-204470000D01*
X185674000Y-200152000D02*
X186436000Y-200914000D01*
X169926000Y-207010000D02*
X168402000Y-207010000D01*
X176022000Y-214122000D02*
X175514000Y-213614000D01*
X167132000Y-204470000D02*
X165862000Y-203200000D01*
X171599200Y-208683200D02*
X169926000Y-207010000D01*
X186436000Y-200914000D02*
X188214000Y-200914000D01*
X184912000Y-197612000D02*
X184912000Y-198120000D01*
X184658000Y-198374000D02*
X183705000Y-198374000D01*
X184912000Y-198120000D02*
X184658000Y-198374000D01*
X185014998Y-195326000D02*
X183705000Y-195326000D01*
X185090499Y-195401501D02*
X185014998Y-195326000D01*
X132716000Y-230886000D02*
X132716000Y-227612998D01*
X132716000Y-227612998D02*
X132744998Y-227584000D01*
X192087000Y-233172000D02*
X193880499Y-233172000D01*
X207772000Y-177800000D02*
X207772000Y-179705000D01*
X206276800Y-169897200D02*
X207217000Y-169897200D01*
X204724000Y-178562000D02*
X204724000Y-171450000D01*
X204724000Y-171450000D02*
X206276800Y-169897200D01*
X207772000Y-179705000D02*
X207264000Y-180213000D01*
X207264000Y-180213000D02*
X206375000Y-180213000D01*
X206375000Y-180213000D02*
X204724000Y-178562000D01*
X205486000Y-174498000D02*
X205486000Y-172720000D01*
X206276800Y-171929200D02*
X207217000Y-171929200D01*
X205486000Y-172720000D02*
X206276800Y-171929200D01*
X208945000Y-177721200D02*
X207217000Y-175993200D01*
X208945000Y-181199000D02*
X208945000Y-177721200D01*
X207010000Y-179070000D02*
X205740000Y-177800000D01*
X205740000Y-177800000D02*
X205740000Y-175438200D01*
X205740000Y-175438200D02*
X207217000Y-173961200D01*
X223012000Y-176501200D02*
X221638500Y-176501200D01*
X218712200Y-179342200D02*
X217112400Y-179342200D01*
X219710000Y-178816000D02*
X219710000Y-180086000D01*
X221638500Y-174469200D02*
X222475200Y-174469200D01*
X223613600Y-177452400D02*
X223266000Y-177800000D01*
X219710000Y-180086000D02*
X218948000Y-180848000D01*
X223613600Y-175607600D02*
X223613600Y-177452400D01*
X223266000Y-177800000D02*
X220726000Y-177800000D01*
X222475200Y-174469200D02*
X223613600Y-175607600D01*
X218948000Y-180848000D02*
X217932000Y-180848000D01*
X220726000Y-177800000D02*
X219710000Y-178816000D01*
X224688400Y-174650400D02*
X222758000Y-172720000D01*
X221488000Y-179070000D02*
X223520000Y-179070000D01*
X224688400Y-177901600D02*
X224688400Y-174650400D01*
X223520000Y-179070000D02*
X224688400Y-177901600D01*
X222758000Y-172720000D02*
X222758000Y-170688000D01*
X222475200Y-170405200D02*
X221638500Y-170405200D01*
X222758000Y-170688000D02*
X222475200Y-170405200D01*
X223266000Y-169135200D02*
X222504000Y-168373200D01*
X224028000Y-172974000D02*
X223266000Y-172212000D01*
X222504000Y-168373200D02*
X221638500Y-168373200D01*
X223266000Y-172212000D02*
X223266000Y-169135200D01*
X224028000Y-174752000D02*
X224028000Y-177800000D01*
X218694000Y-182626000D02*
X217835000Y-182626000D01*
X221189604Y-178308000D02*
X220218000Y-179279604D01*
X220218000Y-179279604D02*
X220218000Y-181102000D01*
X223520000Y-178308000D02*
X221189604Y-178308000D01*
X221638500Y-172437200D02*
X221713200Y-172437200D01*
X220218000Y-181102000D02*
X218694000Y-182626000D01*
X221713200Y-172437200D02*
X224028000Y-174752000D01*
X224028000Y-177800000D02*
X223520000Y-178308000D01*
X224086800Y-171240396D02*
X224086800Y-167698800D01*
X222729200Y-166341200D02*
X221638500Y-166341200D01*
X224086800Y-167698800D02*
X222729200Y-166341200D01*
X211016400Y-180536400D02*
X211016400Y-179342200D01*
X209804000Y-177038000D02*
X209804000Y-180848000D01*
X212090000Y-181356000D02*
X213048400Y-180397600D01*
X210820000Y-175260000D02*
X210820000Y-176022000D01*
X210312000Y-181356000D02*
X212090000Y-181356000D01*
X209804000Y-180848000D02*
X210312000Y-181356000D01*
X213048400Y-180397600D02*
X213048400Y-179342200D01*
X210820000Y-176022000D02*
X209804000Y-177038000D01*
X203962000Y-179070000D02*
X206756000Y-181864000D01*
X206756000Y-181864000D02*
X213487000Y-181864000D01*
X203962000Y-172974000D02*
X203962000Y-179070000D01*
X213487000Y-181864000D02*
X215080400Y-180270600D01*
X215080400Y-180270600D02*
X215080400Y-179342200D01*
X180480000Y-178448000D02*
X180086000Y-178054000D01*
X181990778Y-178448000D02*
X180480000Y-178448000D01*
X197944499Y-164924499D02*
X193626500Y-164924499D01*
X187452000Y-171704000D02*
X197104000Y-171704000D01*
X197104000Y-171704000D02*
X198688400Y-170119600D01*
X180086000Y-177038000D02*
X181460800Y-175663200D01*
X180086000Y-178054000D02*
X180086000Y-177038000D01*
X198688400Y-165668400D02*
X197944499Y-164924499D01*
X181460800Y-175663200D02*
X183492800Y-175663200D01*
X198688400Y-170119600D02*
X198688400Y-165668400D01*
X183492800Y-175663200D02*
X187452000Y-171704000D01*
X191770000Y-161700998D02*
X191770000Y-163918790D01*
X191770000Y-163918790D02*
X193459210Y-165608000D01*
X179324000Y-179070000D02*
X180734000Y-180480000D01*
X179324000Y-177229790D02*
X179324000Y-179070000D01*
X183325790Y-175260000D02*
X181293790Y-175260000D01*
X187389790Y-171196000D02*
X183325790Y-175260000D01*
X198285200Y-166281200D02*
X198285200Y-169952590D01*
X193459210Y-165608000D02*
X197612000Y-165608000D01*
X197612000Y-165608000D02*
X198285200Y-166281200D01*
X181293790Y-175260000D02*
X179324000Y-177229790D01*
X180734000Y-180480000D02*
X181990778Y-180480000D01*
X198285200Y-169952590D02*
X197041790Y-171196000D01*
X197041790Y-171196000D02*
X187389790Y-171196000D01*
X180130400Y-174453600D02*
X178308000Y-176276000D01*
X182991770Y-174453600D02*
X180130400Y-174453600D01*
X187694871Y-169750499D02*
X182991770Y-174453600D01*
X178308000Y-176276000D02*
X178308000Y-181864000D01*
X180988000Y-184544000D02*
X181990778Y-184544000D01*
X193626500Y-169750499D02*
X187694871Y-169750499D01*
X178308000Y-181864000D02*
X180988000Y-184544000D01*
X187327580Y-170688000D02*
X183158780Y-174856800D01*
X196596000Y-169672000D02*
X195580000Y-170688000D01*
X194818000Y-166878000D02*
X196596000Y-168656000D01*
X195580000Y-170688000D02*
X187327580Y-170688000D01*
X180743200Y-174856800D02*
X178816000Y-176784000D01*
X191770000Y-166272998D02*
X192375002Y-166878000D01*
X192375002Y-166878000D02*
X194818000Y-166878000D01*
X178816000Y-179337222D02*
X181990778Y-182512000D01*
X183158780Y-174856800D02*
X180743200Y-174856800D01*
X178816000Y-176784000D02*
X178816000Y-179337222D01*
X196596000Y-168656000D02*
X196596000Y-169672000D01*
X203708000Y-168148000D02*
X200660000Y-165100000D01*
X202692000Y-172212000D02*
X203708000Y-171196000D01*
X202692000Y-179832000D02*
X202692000Y-172212000D01*
X200196400Y-182327600D02*
X202692000Y-179832000D01*
X200196400Y-185883600D02*
X200196400Y-182327600D01*
X203708000Y-171196000D02*
X203708000Y-168148000D01*
X200660000Y-165100000D02*
X200660000Y-161700998D01*
X199250000Y-186830000D02*
X200196400Y-185883600D01*
X198270500Y-186830000D02*
X199250000Y-186830000D01*
X203349200Y-172316800D02*
X204216000Y-171450000D01*
X204216000Y-171450000D02*
X204216000Y-166623999D01*
X192451778Y-188007000D02*
X199089000Y-188007000D01*
X200660000Y-186436000D02*
X200660000Y-182626000D01*
X204216000Y-166623999D02*
X202516500Y-164924499D01*
X199089000Y-188007000D02*
X200660000Y-186436000D01*
X200660000Y-182626000D02*
X203349200Y-179936800D01*
X203349200Y-179936800D02*
X203349200Y-172316800D01*
X199793200Y-181777010D02*
X199793200Y-184254800D01*
X199793200Y-184254800D02*
X199250000Y-184798000D01*
X200660000Y-166272998D02*
X203118100Y-168731098D01*
X203118100Y-168731098D02*
X203118100Y-170434000D01*
X199250000Y-184798000D02*
X198270500Y-184798000D01*
X201930000Y-171622100D02*
X201930000Y-179640210D01*
X201930000Y-179640210D02*
X199793200Y-181777010D01*
X203118100Y-170434000D02*
X201930000Y-171622100D01*
X199250000Y-180734000D02*
X198270500Y-180734000D01*
X201168000Y-160782000D02*
X200152000Y-160782000D01*
X200152000Y-160782000D02*
X199898000Y-161036000D01*
X206248000Y-166272998D02*
X206248000Y-164846000D01*
X199898000Y-180086000D02*
X199250000Y-180734000D01*
X199898000Y-161036000D02*
X199898000Y-180086000D01*
X203200000Y-162814000D02*
X201168000Y-160782000D01*
X206248000Y-164846000D02*
X204216000Y-162814000D01*
X204216000Y-162814000D02*
X203200000Y-162814000D01*
X201422000Y-160020000D02*
X200152000Y-160020000D01*
X206248000Y-161700998D02*
X203102998Y-161700998D01*
X199494800Y-178457200D02*
X199250000Y-178702000D01*
X199250000Y-178702000D02*
X198270500Y-178702000D01*
X199494800Y-160677200D02*
X199494800Y-178457200D01*
X203102998Y-161700998D02*
X201422000Y-160020000D01*
X200152000Y-160020000D02*
X199494800Y-160677200D01*
X199390000Y-182372000D02*
X199390000Y-181356000D01*
X201168000Y-179578000D02*
X201168000Y-171098999D01*
X201168000Y-171098999D02*
X202516500Y-169750499D01*
X198996000Y-182766000D02*
X199390000Y-182372000D01*
X198270500Y-182766000D02*
X198996000Y-182766000D01*
X199390000Y-181356000D02*
X201168000Y-179578000D01*
X199898000Y-159258000D02*
X201676001Y-159258000D01*
X198270500Y-176670000D02*
X198270500Y-175617500D01*
X201676001Y-159258000D02*
X202516500Y-160098499D01*
X198270500Y-175617500D02*
X199091600Y-174796400D01*
X199091600Y-174796400D02*
X199091600Y-160064400D01*
X199091600Y-160064400D02*
X199898000Y-159258000D01*
X185467000Y-188007000D02*
X186355778Y-188007000D01*
X177800000Y-183134000D02*
X180467000Y-185801000D01*
X197358000Y-166272998D02*
X192942998Y-166272998D01*
X192942998Y-166272998D02*
X192278000Y-165608000D01*
X191267160Y-165608000D02*
X182824760Y-174050400D01*
X180467000Y-185801000D02*
X183261000Y-185801000D01*
X177800000Y-176022000D02*
X177800000Y-183134000D01*
X179771600Y-174050400D02*
X177800000Y-176022000D01*
X192278000Y-165608000D02*
X191267160Y-165608000D01*
X183261000Y-185801000D02*
X185467000Y-188007000D01*
X182824760Y-174050400D02*
X179771600Y-174050400D01*
X182657750Y-173647200D02*
X189992000Y-166312950D01*
X189992000Y-166312950D02*
X189992000Y-161290000D01*
X179158800Y-173647200D02*
X182657750Y-173647200D01*
X190500000Y-160782000D02*
X195834000Y-160782000D01*
X177292000Y-175514000D02*
X179158800Y-173647200D01*
X185928000Y-189484000D02*
X182775200Y-186331200D01*
X196752998Y-161700998D02*
X197358000Y-161700998D01*
X179727200Y-186331200D02*
X177292000Y-183896000D01*
X177292000Y-183896000D02*
X177292000Y-175514000D01*
X188387778Y-189056222D02*
X187960000Y-189484000D01*
X195834000Y-160782000D02*
X196752998Y-161700998D01*
X182775200Y-186331200D02*
X179727200Y-186331200D01*
X188387778Y-188007000D02*
X188387778Y-189056222D01*
X189992000Y-161290000D02*
X190500000Y-160782000D01*
X187960000Y-189484000D02*
X185928000Y-189484000D01*
X188434778Y-189992000D02*
X185642894Y-189992000D01*
X189484000Y-161036000D02*
X190421501Y-160098499D01*
X178838200Y-186839200D02*
X176530000Y-184531000D01*
X185642894Y-189992000D02*
X182490094Y-186839200D01*
X176530000Y-184531000D02*
X176530000Y-175260000D01*
X182490740Y-173244000D02*
X189484000Y-166250740D01*
X176530000Y-175260000D02*
X178546000Y-173244000D01*
X178546000Y-173244000D02*
X182490740Y-173244000D01*
X182490094Y-186839200D02*
X178838200Y-186839200D01*
X190419778Y-188007000D02*
X188434778Y-189992000D01*
X190421501Y-160098499D02*
X193626500Y-160098499D01*
X189484000Y-166250740D02*
X189484000Y-161036000D01*
X198945000Y-208851000D02*
X198882000Y-208788000D01*
X198945000Y-210255000D02*
X198945000Y-208851000D01*
X200349000Y-213303000D02*
X200406000Y-213360000D01*
X198945000Y-213303000D02*
X200349000Y-213303000D01*
X200349000Y-216351000D02*
X200406000Y-216408000D01*
X198945000Y-216351000D02*
X200349000Y-216351000D01*
X198945000Y-211779000D02*
X200349000Y-211779000D01*
X200349000Y-211779000D02*
X200406000Y-211836000D01*
X199955000Y-217875000D02*
X200406000Y-217424000D01*
X198945000Y-217875000D02*
X199955000Y-217875000D01*
X200349000Y-214827000D02*
X200406000Y-214884000D01*
X198945000Y-214827000D02*
X200349000Y-214827000D01*
X184087000Y-216859000D02*
X182429000Y-216859000D01*
X182429000Y-216859000D02*
X182372000Y-216916000D01*
X189734063Y-222761937D02*
X189484000Y-223012000D01*
X189484000Y-223012000D02*
X182372000Y-223012000D01*
X189734063Y-222002000D02*
X189734063Y-222761937D01*
X191262000Y-223266000D02*
X191258063Y-223262063D01*
X191258063Y-222002000D02*
X191258063Y-223262063D01*
X194306063Y-222002000D02*
X194306063Y-223262063D01*
X194306063Y-223262063D02*
X194310000Y-223266000D01*
X192782063Y-223262063D02*
X192786000Y-223266000D01*
X192782063Y-222002000D02*
X192782063Y-223262063D01*
X188210063Y-222002000D02*
X182378000Y-222002000D01*
X182372000Y-221996000D02*
X182378000Y-222002000D01*
X182429000Y-212287000D02*
X182372000Y-212344000D01*
X184087000Y-212287000D02*
X182429000Y-212287000D01*
X182429000Y-215335000D02*
X182372000Y-215392000D01*
X184087000Y-215335000D02*
X182429000Y-215335000D01*
X184087000Y-218383000D02*
X182429000Y-218383000D01*
X182372000Y-218440000D02*
X182429000Y-218383000D01*
X182429000Y-213811000D02*
X182372000Y-213868000D01*
X184087000Y-213811000D02*
X182429000Y-213811000D01*
X181356000Y-209804000D02*
X181356000Y-219202000D01*
X202946000Y-205740000D02*
X200660000Y-203454000D01*
X200660000Y-203454000D02*
X187706000Y-203454000D01*
X202946000Y-211074000D02*
X202946000Y-205740000D01*
X181356000Y-219202000D02*
X182626000Y-220472000D01*
X203688325Y-211816325D02*
X202946000Y-211074000D01*
X204830079Y-211816325D02*
X203688325Y-211816325D01*
X187706000Y-203454000D02*
X181356000Y-209804000D01*
X185674000Y-220472000D02*
X187706000Y-218440000D01*
X182626000Y-220472000D02*
X185674000Y-220472000D01*
X195580000Y-226822000D02*
X198120000Y-224282000D01*
X198628000Y-220726000D02*
X200914000Y-220726000D01*
X203708000Y-217932000D02*
X204827500Y-217932000D01*
X190500000Y-226822000D02*
X195580000Y-226822000D01*
X198120000Y-221234000D02*
X198628000Y-220726000D01*
X200914000Y-220726000D02*
X203708000Y-217932000D01*
X198120000Y-224282000D02*
X198120000Y-221234000D01*
X197612000Y-220980000D02*
X197612000Y-223774000D01*
X197612000Y-223774000D02*
X195326000Y-226060000D01*
X191008000Y-226060000D02*
X189484000Y-224536000D01*
X203454000Y-215900000D02*
X202692000Y-216662000D01*
X195326000Y-226060000D02*
X191008000Y-226060000D01*
X202692000Y-216662000D02*
X202692000Y-217932000D01*
X204827500Y-215900000D02*
X203454000Y-215900000D01*
X202692000Y-217932000D02*
X200406000Y-220218000D01*
X200406000Y-220218000D02*
X198374000Y-220218000D01*
X198374000Y-220218000D02*
X197612000Y-220980000D01*
X203953251Y-213859251D02*
X202438000Y-212344000D01*
X204831924Y-213859251D02*
X203953251Y-213859251D01*
X187960000Y-203962000D02*
X185166000Y-206756000D01*
X202438000Y-212344000D02*
X202438000Y-206787105D01*
X199612895Y-203962000D02*
X187960000Y-203962000D01*
X185166000Y-206756000D02*
X185166000Y-209296000D01*
X202438000Y-206787105D02*
X199612895Y-203962000D01*
X197612000Y-219202000D02*
X199644000Y-219202000D01*
X195326000Y-224282000D02*
X196596000Y-223012000D01*
X213614000Y-223012000D02*
X212090000Y-224536000D01*
X199644000Y-219202000D02*
X201168000Y-217678000D01*
X206502000Y-220472000D02*
X204470000Y-220472000D01*
X187198000Y-226568000D02*
X187198000Y-224536000D01*
X188468000Y-209042000D02*
X189230000Y-209042000D01*
X213614000Y-221892500D02*
X213614000Y-223012000D01*
X187198000Y-224536000D02*
X188214000Y-223520000D01*
X196596000Y-223012000D02*
X196596000Y-220218000D01*
X190246000Y-223520000D02*
X191008000Y-224282000D01*
X196342000Y-228600000D02*
X189230000Y-228600000D01*
X208280000Y-224536000D02*
X207010000Y-223266000D01*
X207010000Y-223266000D02*
X207010000Y-220980000D01*
X204470000Y-220472000D02*
X196342000Y-228600000D01*
X187198000Y-207772000D02*
X188468000Y-209042000D01*
X191008000Y-224282000D02*
X195326000Y-224282000D01*
X197104000Y-204470000D02*
X188468000Y-204470000D01*
X201168000Y-208534000D02*
X197104000Y-204470000D01*
X201168000Y-217678000D02*
X201168000Y-208534000D01*
X187198000Y-205740000D02*
X187198000Y-207772000D01*
X212090000Y-224536000D02*
X208280000Y-224536000D01*
X189230000Y-228600000D02*
X187198000Y-226568000D01*
X207010000Y-220980000D02*
X206502000Y-220472000D01*
X196596000Y-220218000D02*
X197612000Y-219202000D01*
X188468000Y-204470000D02*
X187198000Y-205740000D01*
X188214000Y-223520000D02*
X190246000Y-223520000D01*
X203962000Y-219964000D02*
X206756000Y-219964000D01*
X191516000Y-225552000D02*
X189898400Y-223934400D01*
X188214000Y-224344210D02*
X188214000Y-226568000D01*
X199898000Y-219710000D02*
X197866000Y-219710000D01*
X197866000Y-219710000D02*
X197104000Y-220472000D01*
X201676000Y-217932000D02*
X199898000Y-219710000D01*
X189230000Y-227584000D02*
X196342000Y-227584000D01*
X197104000Y-223520000D02*
X195072000Y-225552000D01*
X207518000Y-222250000D02*
X209042000Y-223774000D01*
X189898400Y-223934400D02*
X188623810Y-223934400D01*
X210820000Y-223774000D02*
X211582000Y-223012000D01*
X211582000Y-223012000D02*
X211582000Y-221892500D01*
X188623810Y-223934400D02*
X188214000Y-224344210D01*
X188214000Y-226568000D02*
X189230000Y-227584000D01*
X207518000Y-220726000D02*
X207518000Y-222250000D01*
X206756000Y-219964000D02*
X207518000Y-220726000D01*
X196342000Y-227584000D02*
X203962000Y-219964000D01*
X195072000Y-225552000D02*
X191516000Y-225552000D01*
X209042000Y-223774000D02*
X210820000Y-223774000D01*
X197104000Y-220472000D02*
X197104000Y-223520000D01*
X201676000Y-208026000D02*
X201676000Y-217932000D01*
X207010000Y-219456000D02*
X208026000Y-220472000D01*
X208430500Y-221892500D02*
X209550000Y-221892500D01*
X208026000Y-221488000D02*
X208430500Y-221892500D01*
X198882000Y-221742000D02*
X200914000Y-221742000D01*
X203200000Y-219456000D02*
X207010000Y-219456000D01*
X200914000Y-221742000D02*
X203200000Y-219456000D01*
X208026000Y-220472000D02*
X208026000Y-221488000D01*
X208119600Y-204376400D02*
X217838400Y-204376400D01*
X220005062Y-206543062D02*
X220005062Y-209296000D01*
X207137000Y-207518000D02*
X207137000Y-205359000D01*
X208661000Y-209042000D02*
X207137000Y-207518000D01*
X209707000Y-209042000D02*
X208661000Y-209042000D01*
X217838400Y-204376400D02*
X220005062Y-206543062D01*
X207137000Y-205359000D02*
X208119600Y-204376400D01*
X221488000Y-211328000D02*
X220005062Y-211328000D01*
X220980000Y-217424000D02*
X220034734Y-217424000D01*
X221488000Y-220027500D02*
X221488000Y-217932000D01*
X205486000Y-224536000D02*
X206756000Y-225806000D01*
X220034734Y-217424000D02*
X220013362Y-217445372D01*
X205486000Y-221742000D02*
X205486000Y-224536000D01*
X221488000Y-217932000D02*
X220980000Y-217424000D01*
X215709500Y-225806000D02*
X221488000Y-220027500D01*
X206756000Y-225806000D02*
X215709500Y-225806000D01*
X220011000Y-215415661D02*
X221003661Y-215415661D01*
X221003661Y-215415661D02*
X222250000Y-216662000D01*
X222250000Y-216662000D02*
X222250000Y-219964000D01*
X222250000Y-219964000D02*
X215646000Y-226568000D01*
X215646000Y-226568000D02*
X210566000Y-226568000D01*
X221996000Y-222250000D02*
X223266000Y-220980000D01*
X222504000Y-213360000D02*
X220005062Y-213360000D01*
X223266000Y-214122000D02*
X222504000Y-213360000D01*
X223266000Y-220980000D02*
X223266000Y-214122000D01*
X220980000Y-222250000D02*
X221996000Y-222250000D01*
X215392000Y-225298000D02*
X220022702Y-220667298D01*
X207772000Y-225298000D02*
X215392000Y-225298000D01*
X204216000Y-225298000D02*
X204216000Y-221742000D01*
X204724000Y-208534000D02*
X204724000Y-206248000D01*
X206248000Y-227330000D02*
X204216000Y-225298000D01*
X220022702Y-220667298D02*
X220022702Y-219516980D01*
X204216000Y-221742000D02*
X204978000Y-220980000D01*
X224028000Y-223012000D02*
X219710000Y-227330000D01*
X207010000Y-203962000D02*
X219202000Y-203962000D01*
X206502000Y-221488000D02*
X206502000Y-224028000D01*
X204978000Y-220980000D02*
X205994000Y-220980000D01*
X219202000Y-203962000D02*
X224028000Y-208788000D01*
X224028000Y-208788000D02*
X224028000Y-223012000D01*
X205994000Y-220980000D02*
X206502000Y-221488000D01*
X219710000Y-227330000D02*
X206248000Y-227330000D01*
X204724000Y-206248000D02*
X207010000Y-203962000D01*
X206502000Y-224028000D02*
X207772000Y-225298000D01*
X215138000Y-224028000D02*
X215044400Y-224121600D01*
X215646000Y-221892500D02*
X215646000Y-223520000D01*
X215646000Y-223520000D02*
X215138000Y-224028000D01*
X192521999Y-245861999D02*
X192521999Y-248920000D01*
X190754000Y-244094000D02*
X192521999Y-245861999D01*
X165860000Y-237236000D02*
X165860000Y-239012000D01*
X170942000Y-244094000D02*
X190754000Y-244094000D01*
X165860000Y-239012000D02*
X170942000Y-244094000D01*
X160274000Y-238760000D02*
X160274000Y-240221790D01*
X152908000Y-242570000D02*
X150112000Y-239774000D01*
X154751000Y-232664000D02*
X150112000Y-232664000D01*
X187442000Y-248920000D02*
X187442000Y-245862000D01*
X187442000Y-245862000D02*
X186182000Y-244602000D01*
X157925790Y-242570000D02*
X152908000Y-242570000D01*
X161290000Y-237744000D02*
X160274000Y-238760000D01*
X160274000Y-240221790D02*
X157925790Y-242570000D01*
X150112000Y-239774000D02*
X150112000Y-232664000D01*
X168910000Y-244602000D02*
X162052000Y-237744000D01*
X162052000Y-237744000D02*
X161290000Y-237744000D01*
X186182000Y-244602000D02*
X168910000Y-244602000D01*
X168148000Y-240030000D02*
X171704000Y-243586000D01*
X191262000Y-243586000D02*
X195062000Y-247386000D01*
X195062000Y-247386000D02*
X195062000Y-248920000D01*
X165860000Y-235458000D02*
X166878000Y-235458000D01*
X171704000Y-243586000D02*
X191262000Y-243586000D01*
X166878000Y-235458000D02*
X168148000Y-236728000D01*
X168148000Y-236728000D02*
X168148000Y-240030000D01*
X203517000Y-229553000D02*
X212344001Y-229553000D01*
X201422000Y-245364000D02*
X199644000Y-243586000D01*
X214122000Y-246888000D02*
X212598000Y-245364000D01*
X214122000Y-249377200D02*
X214122000Y-246888000D01*
X212598000Y-245364000D02*
X201422000Y-245364000D01*
X216763600Y-250088400D02*
X214833200Y-250088400D01*
X217932000Y-248920000D02*
X216763600Y-250088400D01*
X199644000Y-233426000D02*
X203517000Y-229553000D01*
X199644000Y-243586000D02*
X199644000Y-233426000D01*
X214833200Y-250088400D02*
X214122000Y-249377200D01*
X219278000Y-232918000D02*
X220980000Y-232918000D01*
X220980000Y-232918000D02*
X221742000Y-233680000D01*
X221742000Y-233680000D02*
X221742000Y-242062000D01*
X221742000Y-242062000D02*
X216916000Y-246888000D01*
X198882000Y-232410000D02*
X203200000Y-228092000D01*
X207518000Y-246126000D02*
X200914000Y-246126000D01*
X200914000Y-246126000D02*
X198882000Y-244094000D01*
X203200000Y-228092000D02*
X213360000Y-228092000D01*
X198882000Y-244094000D02*
X198882000Y-232410000D01*
X210312000Y-248920000D02*
X207518000Y-246126000D01*
X213867999Y-228599999D02*
X213867999Y-229553000D01*
X213360000Y-228092000D02*
X213867999Y-228599999D01*
X143570000Y-245051000D02*
X143570000Y-246420000D01*
X141409000Y-242890000D02*
X143570000Y-245051000D01*
X193294000Y-234696000D02*
X196088000Y-237490000D01*
X198882000Y-246634000D02*
X202946000Y-246634000D01*
X196088000Y-243840000D02*
X198882000Y-246634000D01*
X192087000Y-234696000D02*
X193294000Y-234696000D01*
X202946000Y-246634000D02*
X205232000Y-248920000D01*
X196088000Y-237490000D02*
X196088000Y-243840000D01*
X193802000Y-242570000D02*
X198628000Y-247396000D01*
X201167999Y-247396000D02*
X202691999Y-248920000D01*
X198628000Y-247396000D02*
X201167999Y-247396000D01*
X192786000Y-236220000D02*
X193802000Y-237236000D01*
X193802000Y-237236000D02*
X193802000Y-242570000D01*
X192087000Y-236220000D02*
X192786000Y-236220000D01*
X176592999Y-232664000D02*
X180659000Y-232664000D01*
X176592999Y-232664000D02*
X176592999Y-235520999D01*
X180594000Y-237871000D02*
X180594000Y-240792000D01*
X180594000Y-240792000D02*
X181356000Y-241554000D01*
X180086000Y-237363000D02*
X180594000Y-237871000D01*
X176592999Y-235520999D02*
X178435000Y-237363000D01*
X190246000Y-241554000D02*
X197612000Y-248920000D01*
X178435000Y-237363000D02*
X180086000Y-237363000D01*
X181356000Y-241554000D02*
X190246000Y-241554000D01*
X159701000Y-235204000D02*
X161036000Y-235204000D01*
X161036000Y-235204000D02*
X163068000Y-237236000D01*
X163068000Y-237236000D02*
X164210000Y-237236000D01*
X161290000Y-233934000D02*
X159701000Y-233934000D01*
X162814000Y-235458000D02*
X161290000Y-233934000D01*
X164210000Y-235458000D02*
X162814000Y-235458000D01*
X161290000Y-232664000D02*
X159701000Y-232664000D01*
X162306000Y-233680000D02*
X161290000Y-232664000D01*
X164209999Y-233680000D02*
X162306000Y-233680000D01*
X135207367Y-207335600D02*
X135738705Y-207335600D01*
X164209999Y-231902000D02*
X162306000Y-231902000D01*
X161735685Y-179127000D02*
X161735685Y-178499685D01*
X159512000Y-210312000D02*
X159811085Y-210611085D01*
X135738705Y-207335600D02*
X138207105Y-209804000D01*
X159811085Y-210611085D02*
X159811085Y-211410400D01*
X158076792Y-210312000D02*
X159512000Y-210312000D01*
X161798000Y-231394000D02*
X159701000Y-231394000D01*
X138684000Y-209804000D02*
X139237085Y-210357085D01*
X139237085Y-210357085D02*
X139237085Y-211359600D01*
X168279401Y-231008599D02*
X165103400Y-231008599D01*
X156635396Y-208870604D02*
X158076792Y-210312000D01*
X135890000Y-167894000D02*
X135190210Y-167894000D01*
X162306000Y-231902000D02*
X161798000Y-231394000D01*
X135190210Y-167894000D02*
X132935600Y-165639390D01*
X136392285Y-168396285D02*
X135890000Y-167894000D01*
X138207105Y-209804000D02*
X138684000Y-209804000D01*
X132935600Y-165639390D02*
X132935600Y-164846000D01*
X161735685Y-178499685D02*
X161290000Y-178054000D01*
X161290000Y-178054000D02*
X159766000Y-178054000D01*
X136392285Y-169221000D02*
X136392285Y-168396285D01*
X165103400Y-231008599D02*
X164209999Y-231902000D01*
X138046420Y-209042000D02*
X138747500Y-209042000D01*
X156225900Y-207527170D02*
X158502730Y-209804000D01*
X156225900Y-207518000D02*
X156225900Y-207527170D01*
X165226000Y-229108000D02*
X164210000Y-230124000D01*
X135666820Y-206662400D02*
X138046420Y-209042000D01*
X136248800Y-167490800D02*
X135357220Y-167490800D01*
X161849918Y-177763126D02*
X162235811Y-178149019D01*
X135357220Y-167490800D02*
X133604000Y-165737580D01*
X136892411Y-169221000D02*
X136892411Y-168134411D01*
X139737211Y-210031711D02*
X139737211Y-211359600D01*
X168282915Y-229108000D02*
X165226000Y-229108000D01*
X133604000Y-165737580D02*
X133604000Y-164084000D01*
X158502730Y-209804000D02*
X159766000Y-209804000D01*
X160311211Y-210349211D02*
X160311211Y-211410400D01*
X136892411Y-168134411D02*
X136248800Y-167490800D01*
X159701000Y-230124000D02*
X164210000Y-230124000D01*
X162235811Y-178149019D02*
X162235811Y-179127000D01*
X159766000Y-209804000D02*
X160311211Y-210349211D01*
X154940000Y-207518000D02*
X156225900Y-207518000D01*
X138747500Y-209042000D02*
X139737211Y-210031711D01*
X207264000Y-239522000D02*
X206120000Y-239522000D01*
X207772000Y-238252000D02*
X207772000Y-239014000D01*
X209655000Y-237462000D02*
X208562000Y-237462000D01*
X207772000Y-239014000D02*
X207264000Y-239522000D01*
X208562000Y-237462000D02*
X207772000Y-238252000D01*
X213339999Y-233277000D02*
X213340000Y-232198999D01*
X213340000Y-232198999D02*
X212344001Y-231203000D01*
X213839999Y-231231000D02*
X213867999Y-231203000D01*
X213840000Y-233277000D02*
X213839999Y-231231000D01*
X215618000Y-233962000D02*
X216662000Y-232918000D01*
X214525000Y-233962000D02*
X215618000Y-233962000D01*
X216662000Y-232918000D02*
X217628000Y-232918000D01*
X216408000Y-242253000D02*
X215392000Y-241237000D01*
X141224000Y-187198000D02*
X142988411Y-188962411D01*
X209042000Y-188214000D02*
X209815811Y-188987811D01*
X213360000Y-239522000D02*
X212840000Y-239002000D01*
X138557000Y-183261000D02*
X138557000Y-186055000D01*
X176059211Y-194855211D02*
X176059211Y-196907000D01*
X214630000Y-239522000D02*
X213360000Y-239522000D01*
X216408000Y-243586000D02*
X216408000Y-242253000D01*
X174689790Y-159258000D02*
X172466000Y-159258000D01*
X175779811Y-161321600D02*
X175779811Y-160348021D01*
X173736000Y-194310000D02*
X175514000Y-194310000D01*
X215392000Y-241237000D02*
X215392000Y-240284000D01*
X175779811Y-160348021D02*
X175228895Y-159797105D01*
X138557000Y-186055000D02*
X139700000Y-187198000D01*
X139700000Y-187198000D02*
X141224000Y-187198000D01*
X152654000Y-156557600D02*
X155182800Y-154028800D01*
X175228895Y-159797105D02*
X174689790Y-159258000D01*
X215392000Y-240284000D02*
X214630000Y-239522000D01*
X142988411Y-188962411D02*
X142988411Y-190049000D01*
X167236800Y-154028800D02*
X172466000Y-159258000D01*
X155182800Y-154028800D02*
X167236800Y-154028800D01*
X175514000Y-194310000D02*
X176059211Y-194855211D01*
X209815811Y-188987811D02*
X209815811Y-190049000D01*
X212840000Y-239002000D02*
X212840000Y-238147000D01*
X175279685Y-160547685D02*
X175279685Y-161321600D01*
X155956000Y-154432000D02*
X166706605Y-154432000D01*
X139668895Y-187960000D02*
X137414000Y-185705105D01*
X214376000Y-241554000D02*
X214059000Y-241237000D01*
X137414000Y-185705105D02*
X137414000Y-183642000D01*
X166706605Y-154432000D02*
X172548605Y-160274000D01*
X174244000Y-195834000D02*
X175260000Y-195834000D01*
X175260000Y-195834000D02*
X175559085Y-196133085D01*
X213360001Y-241237000D02*
X213360001Y-240411001D01*
X214376000Y-243586000D02*
X214376000Y-241554000D01*
X153670000Y-156718000D02*
X155956000Y-154432000D01*
X172548605Y-160274000D02*
X173482000Y-160274000D01*
X175006000Y-160274000D02*
X175279685Y-160547685D01*
X209042000Y-188976000D02*
X209315685Y-189249685D01*
X213360001Y-240411001D02*
X212340000Y-239391000D01*
X214059000Y-241237000D02*
X213360001Y-241237000D01*
X142488285Y-189128390D02*
X141319895Y-187960000D01*
X212340000Y-239391000D02*
X212340000Y-238147000D01*
X208026000Y-188976000D02*
X209042000Y-188976000D01*
X141319895Y-187960000D02*
X139668895Y-187960000D01*
X175559085Y-196133085D02*
X175559085Y-196907000D01*
X209315685Y-189249685D02*
X209315685Y-190049000D01*
X142488285Y-190049000D02*
X142488285Y-189128390D01*
X173482000Y-160274000D02*
X175006000Y-160274000D01*
X133858000Y-169164000D02*
X133858000Y-167132000D01*
X135667600Y-169946000D02*
X134640000Y-169946000D01*
X132867400Y-166141400D02*
X132132700Y-166141400D01*
X133858000Y-167132000D02*
X132867400Y-166141400D01*
X134640000Y-169946000D02*
X133858000Y-169164000D01*
X139903200Y-165442400D02*
X139903200Y-166420800D01*
X138392789Y-167931211D02*
X138392789Y-169221000D01*
X139903200Y-166420800D02*
X138392789Y-167931211D01*
X138892915Y-169221000D02*
X138892915Y-168701085D01*
X141427200Y-166166800D02*
X141427200Y-165442400D01*
X138892915Y-168701085D02*
X141427200Y-166166800D01*
X137892663Y-169221000D02*
X137892663Y-167415337D01*
X138379200Y-166928800D02*
X138379200Y-165442400D01*
X137892663Y-167415337D02*
X138379200Y-166928800D01*
X141478000Y-172974000D02*
X141478000Y-174244000D01*
X140950000Y-172446000D02*
X141478000Y-172974000D01*
X141478000Y-174244000D02*
X141986000Y-174752000D01*
X142494000Y-176276000D02*
X143256000Y-176276000D01*
X141986000Y-175768000D02*
X142494000Y-176276000D01*
X139617600Y-172446000D02*
X140950000Y-172446000D01*
X141986000Y-174752000D02*
X141986000Y-175768000D01*
X143256000Y-174218600D02*
X142468600Y-174218600D01*
X141986000Y-172688894D02*
X141243107Y-171946001D01*
X142468600Y-174218600D02*
X141986000Y-173736000D01*
X141243107Y-171946001D02*
X139617600Y-171946001D01*
X141986000Y-173736000D02*
X141986000Y-172688894D01*
X142214600Y-172186600D02*
X141474000Y-171446000D01*
X141474000Y-171446000D02*
X139617600Y-171446000D01*
X143256000Y-172186600D02*
X142214600Y-172186600D01*
X138430000Y-175006000D02*
X139903200Y-176479200D01*
X138892915Y-174035085D02*
X138430000Y-174498000D01*
X138430000Y-174498000D02*
X138430000Y-175006000D01*
X138892915Y-173171000D02*
X138892915Y-174035085D01*
X139903200Y-176479200D02*
X139903200Y-177317400D01*
X139617600Y-170445999D02*
X141212001Y-170445999D01*
X141212001Y-170445999D02*
X141986000Y-169672000D01*
X141986000Y-169672000D02*
X141986000Y-168656000D01*
X141986000Y-168656000D02*
X142494000Y-168148000D01*
X142494000Y-168148000D02*
X143256000Y-168148000D01*
X143256000Y-170154600D02*
X142265400Y-170154600D01*
X141474000Y-170946000D02*
X139617600Y-170946000D01*
X142265400Y-170154600D02*
X141474000Y-170946000D01*
X141224000Y-169418000D02*
X140696000Y-169946000D01*
X142468600Y-166141400D02*
X141224000Y-167386000D01*
X143230600Y-166141400D02*
X142468600Y-166141400D01*
X141224000Y-167386000D02*
X141224000Y-169418000D01*
X140696000Y-169946000D02*
X139617600Y-169946000D01*
X137392537Y-173171000D02*
X137392537Y-174984537D01*
X137392537Y-174984537D02*
X137871200Y-175463200D01*
X137871200Y-175463200D02*
X137871200Y-177317400D01*
X135839200Y-176072800D02*
X135839200Y-177317400D01*
X136892411Y-175019589D02*
X135839200Y-176072800D01*
X136892411Y-173171000D02*
X136892411Y-175019589D01*
X135382000Y-175514000D02*
X134620000Y-175514000D01*
X134620000Y-175514000D02*
X133807200Y-176326800D01*
X136392285Y-174503715D02*
X135382000Y-175514000D01*
X133807200Y-176326800D02*
X133807200Y-177317400D01*
X136392285Y-173171000D02*
X136392285Y-174503715D01*
X135667600Y-171946001D02*
X132117399Y-171946001D01*
X132117399Y-171946001D02*
X132080000Y-171983400D01*
X133600000Y-171446000D02*
X132080000Y-169926000D01*
X135667600Y-171446000D02*
X133600000Y-171446000D01*
X135667600Y-170946000D02*
X134370000Y-170946000D01*
X133350000Y-169926000D02*
X133350000Y-168402000D01*
X133350000Y-168402000D02*
X132842000Y-167894000D01*
X132842000Y-167894000D02*
X132080000Y-167894000D01*
X134370000Y-170946000D02*
X133350000Y-169926000D01*
X133578600Y-174015400D02*
X132080000Y-174015400D01*
X135667600Y-172446000D02*
X134640000Y-172446000D01*
X134112000Y-173482000D02*
X133578600Y-174015400D01*
X134112000Y-172974000D02*
X134112000Y-173482000D01*
X134640000Y-172446000D02*
X134112000Y-172974000D01*
X158242000Y-178054000D02*
X160040000Y-179852000D01*
X157439500Y-178054000D02*
X158242000Y-178054000D01*
X160040000Y-179852000D02*
X161011000Y-179852000D01*
X163736189Y-176648811D02*
X164592000Y-175793000D01*
X163736189Y-179127000D02*
X163736189Y-176648811D01*
X164592000Y-175793000D02*
X164592000Y-175026000D01*
X166116000Y-176022000D02*
X166116000Y-175026000D01*
X164236315Y-179127000D02*
X164236315Y-177901685D01*
X164236315Y-177901685D02*
X166116000Y-176022000D01*
X163068000Y-176955874D02*
X163236063Y-177123937D01*
X163236063Y-177123937D02*
X163236063Y-179127000D01*
X163068000Y-175026000D02*
X163068000Y-176955874D01*
X166370000Y-182626000D02*
X166370000Y-184150000D01*
X166370000Y-184150000D02*
X167640000Y-185420000D01*
X164961000Y-182352000D02*
X166096000Y-182352000D01*
X166096000Y-182352000D02*
X166370000Y-182626000D01*
X167640000Y-185420000D02*
X168759500Y-185420000D01*
X166231001Y-181852001D02*
X164961000Y-181852001D01*
X167767000Y-183388000D02*
X166231001Y-181852001D01*
X168759500Y-183388000D02*
X167767000Y-183388000D01*
X168735500Y-181332000D02*
X168759500Y-181356000D01*
X168755500Y-181352000D02*
X168759500Y-181356000D01*
X164961000Y-181352000D02*
X168755500Y-181352000D01*
X164236315Y-183077000D02*
X164236315Y-184175315D01*
X164236315Y-184175315D02*
X165862000Y-185801000D01*
X165862000Y-185801000D02*
X165862000Y-186964000D01*
X166104001Y-180351999D02*
X166878000Y-179578000D01*
X166878000Y-178308000D02*
X167894000Y-177292000D01*
X166878000Y-179578000D02*
X166878000Y-178308000D01*
X164961000Y-180351999D02*
X166104001Y-180351999D01*
X167894000Y-177292000D02*
X168759500Y-177292000D01*
X167894000Y-179324000D02*
X168759500Y-179324000D01*
X164961000Y-180852000D02*
X166366000Y-180852000D01*
X166366000Y-180852000D02*
X167894000Y-179324000D01*
X167894000Y-175260000D02*
X166370000Y-176784000D01*
X166370000Y-179324000D02*
X165842000Y-179852000D01*
X165842000Y-179852000D02*
X164961000Y-179852000D01*
X166370000Y-176784000D02*
X166370000Y-179324000D01*
X168759500Y-175260000D02*
X167894000Y-175260000D01*
X162735937Y-183077000D02*
X162735937Y-184579937D01*
X162735937Y-184579937D02*
X163830000Y-185674000D01*
X163830000Y-185674000D02*
X163830000Y-186964000D01*
X162235811Y-184982189D02*
X161798000Y-185420000D01*
X162235811Y-183077000D02*
X162235811Y-184982189D01*
X161798000Y-185420000D02*
X161798000Y-186964000D01*
X159766000Y-185674000D02*
X159766000Y-186964000D01*
X160528000Y-184912000D02*
X159766000Y-185674000D01*
X161735685Y-183077000D02*
X161735685Y-184466315D01*
X161735685Y-184466315D02*
X161290000Y-184912000D01*
X161290000Y-184912000D02*
X160528000Y-184912000D01*
X161011000Y-181852001D02*
X159523999Y-181852001D01*
X158496000Y-183896000D02*
X157376500Y-183896000D01*
X159523999Y-181852001D02*
X159004000Y-182372000D01*
X159004000Y-183388000D02*
X158496000Y-183896000D01*
X159004000Y-182372000D02*
X159004000Y-183388000D01*
X161011000Y-181352000D02*
X159008000Y-181352000D01*
X158496000Y-181864000D02*
X157376500Y-181864000D01*
X159008000Y-181352000D02*
X158496000Y-181864000D01*
X158496000Y-179832000D02*
X157376500Y-179832000D01*
X161011000Y-180852000D02*
X159516000Y-180852000D01*
X159516000Y-180852000D02*
X158496000Y-179832000D01*
X159512000Y-184912000D02*
X158496000Y-185928000D01*
X159512000Y-182880000D02*
X159512000Y-184912000D01*
X160040000Y-182352000D02*
X159512000Y-182880000D01*
X158496000Y-185928000D02*
X157376500Y-185928000D01*
X161011000Y-182352000D02*
X160040000Y-182352000D01*
X158033400Y-212135400D02*
X157226000Y-211328000D01*
X155924400Y-209010400D02*
X155064963Y-209010400D01*
X159086400Y-212135400D02*
X158033400Y-212135400D01*
X157226000Y-210312000D02*
X155924400Y-209010400D01*
X157226000Y-211328000D02*
X157226000Y-210312000D01*
X161811589Y-210044411D02*
X161811589Y-211410400D01*
X163343463Y-208512537D02*
X161811589Y-210044411D01*
X163343463Y-207772000D02*
X163343463Y-208512537D01*
X162814000Y-209804000D02*
X163576000Y-209804000D01*
X164867463Y-208512537D02*
X164867463Y-207772000D01*
X163576000Y-209804000D02*
X164867463Y-208512537D01*
X162311715Y-211410400D02*
X162311715Y-210306285D01*
X162311715Y-210306285D02*
X162814000Y-209804000D01*
X161311463Y-209528537D02*
X161819463Y-209020537D01*
X161311463Y-211410400D02*
X161311463Y-209528537D01*
X161819463Y-209020537D02*
X161819463Y-207772000D01*
X154961463Y-212820400D02*
X156432400Y-212820400D01*
X157247400Y-213635400D02*
X159086400Y-213635400D01*
X156432400Y-212820400D02*
X157247400Y-213635400D01*
X158236600Y-214635400D02*
X159086400Y-214635400D01*
X154961463Y-216884400D02*
X155987600Y-216884400D01*
X155987600Y-216884400D02*
X158236600Y-214635400D01*
X156718000Y-211582000D02*
X155924400Y-210788400D01*
X155924400Y-210788400D02*
X154961463Y-210788400D01*
X157763400Y-213135400D02*
X156718000Y-212090000D01*
X159086400Y-213135400D02*
X157763400Y-213135400D01*
X156718000Y-212090000D02*
X156718000Y-211582000D01*
X159086400Y-214135401D02*
X157720599Y-214135401D01*
X157720599Y-214135401D02*
X157003600Y-214852400D01*
X157003600Y-214852400D02*
X154961463Y-214852400D01*
X160811337Y-216691337D02*
X161311463Y-217191463D01*
X161311463Y-217191463D02*
X161311463Y-218440000D01*
X160811337Y-215360400D02*
X160811337Y-216691337D01*
X159811085Y-215360400D02*
X159811085Y-216362915D01*
X159258000Y-216916000D02*
X157988000Y-216916000D01*
X159811085Y-216362915D02*
X159258000Y-216916000D01*
X157988000Y-216916000D02*
X157247463Y-217656537D01*
X157247463Y-217656537D02*
X157247463Y-218393000D01*
X160311211Y-216624789D02*
X159279463Y-217656537D01*
X160311211Y-215360400D02*
X160311211Y-216624789D01*
X159279463Y-217656537D02*
X159279463Y-218440000D01*
X165100000Y-211328000D02*
X165100000Y-210566000D01*
X163036400Y-212135400D02*
X164292600Y-212135400D01*
X165893600Y-209772400D02*
X167640000Y-209772400D01*
X164292600Y-212135400D02*
X165100000Y-211328000D01*
X165100000Y-210566000D02*
X165893600Y-209772400D01*
X164875400Y-213135400D02*
X165608000Y-213868000D01*
X163036400Y-213135400D02*
X164875400Y-213135400D01*
X165608000Y-213868000D02*
X167640000Y-213868000D01*
X166878000Y-215900000D02*
X167640000Y-215900000D01*
X163036400Y-213635400D02*
X164613400Y-213635400D01*
X164613400Y-213635400D02*
X166878000Y-215900000D01*
X165385600Y-211804400D02*
X167640000Y-211804400D01*
X164554601Y-212635399D02*
X165385600Y-211804400D01*
X163036400Y-212635399D02*
X164554601Y-212635399D01*
X163036400Y-214135401D02*
X164351401Y-214135401D01*
X165608000Y-215392000D02*
X165608000Y-216916000D01*
X166624000Y-217932000D02*
X167640000Y-217932000D01*
X164351401Y-214135401D02*
X165608000Y-215392000D01*
X165608000Y-216916000D02*
X166624000Y-217932000D01*
X163343463Y-217699463D02*
X163343463Y-218440000D01*
X162311715Y-216667715D02*
X163343463Y-217699463D01*
X162311715Y-215360400D02*
X162311715Y-216667715D01*
X164846000Y-215392000D02*
X164846000Y-217932000D01*
X164089400Y-214635400D02*
X164846000Y-215392000D01*
X163036400Y-214635400D02*
X164089400Y-214635400D01*
X166878000Y-219964000D02*
X167640000Y-219964000D01*
X164846000Y-217932000D02*
X166878000Y-219964000D01*
X135920600Y-208310600D02*
X137160000Y-209550000D01*
X137408600Y-212084600D02*
X138512400Y-212084600D01*
X135191000Y-208310600D02*
X135920600Y-208310600D01*
X137160000Y-211836000D02*
X137408600Y-212084600D01*
X137160000Y-209550000D02*
X137160000Y-211836000D01*
X142076200Y-207103600D02*
X142076200Y-207935800D01*
X142076200Y-207935800D02*
X141224000Y-208788000D01*
X141224000Y-209296000D02*
X141237589Y-209309589D01*
X141224000Y-208788000D02*
X141224000Y-209296000D01*
X141237589Y-209309589D02*
X141237589Y-211359600D01*
X141737715Y-210052285D02*
X141737715Y-211359600D01*
X143600200Y-207103600D02*
X143600200Y-208189800D01*
X143600200Y-208189800D02*
X141737715Y-210052285D01*
X140737463Y-207288863D02*
X140737463Y-211359600D01*
X140552200Y-207103600D02*
X140737463Y-207288863D01*
X161417000Y-238887000D02*
X161417000Y-239649000D01*
X150218800Y-243690800D02*
X146812000Y-240284000D01*
X161417000Y-239649000D02*
X157375200Y-243690800D01*
X147320000Y-231394000D02*
X154751000Y-231394000D01*
X146812000Y-231902000D02*
X147320000Y-231394000D01*
X157375200Y-243690800D02*
X150218800Y-243690800D01*
X146812000Y-240284000D02*
X146812000Y-231902000D01*
X149352000Y-244094000D02*
X157988000Y-244094000D01*
X146050000Y-240792000D02*
X149352000Y-244094000D01*
X146050000Y-231394000D02*
X146050000Y-240792000D01*
X154751000Y-230124000D02*
X147320000Y-230124000D01*
X157988000Y-244094000D02*
X161290000Y-240792000D01*
X147320000Y-230124000D02*
X146050000Y-231394000D01*
X145288000Y-230886000D02*
X147320000Y-228854000D01*
X148844000Y-244602000D02*
X145288000Y-241046000D01*
X147320000Y-228854000D02*
X154751000Y-228854000D01*
X145288000Y-241046000D02*
X145288000Y-230886000D01*
X161163000Y-242697000D02*
X159258000Y-244602000D01*
X159258000Y-244602000D02*
X148844000Y-244602000D01*
X205232000Y-188468000D02*
X207538000Y-190774000D01*
X207538000Y-190774000D02*
X208591000Y-190774000D01*
X204190600Y-188468000D02*
X205232000Y-188468000D01*
X212318600Y-187477400D02*
X212318600Y-186245000D01*
X211316189Y-190049000D02*
X211316189Y-188479811D01*
X211316189Y-188479811D02*
X212318600Y-187477400D01*
X213842600Y-186245000D02*
X213842600Y-186969400D01*
X211816315Y-188995685D02*
X211816315Y-190049000D01*
X213842600Y-186969400D02*
X211816315Y-188995685D01*
X210816063Y-186266463D02*
X210794600Y-186245000D01*
X210816063Y-190049000D02*
X210816063Y-186266463D01*
X214626000Y-192274000D02*
X215900000Y-193548000D01*
X215900000Y-193548000D02*
X216890600Y-193548000D01*
X212541000Y-192274000D02*
X214626000Y-192274000D01*
X212541000Y-191273999D02*
X214110001Y-191273999D01*
X214110001Y-191273999D02*
X215900000Y-189484000D01*
X215900000Y-189484000D02*
X216890600Y-189484000D01*
X212541000Y-191774000D02*
X215388000Y-191774000D01*
X215388000Y-191774000D02*
X215646000Y-191516000D01*
X215646000Y-191516000D02*
X216890600Y-191516000D01*
X213594000Y-190774000D02*
X214630000Y-189738000D01*
X215646000Y-187452000D02*
X216890600Y-187452000D01*
X212541000Y-190774000D02*
X213594000Y-190774000D01*
X214630000Y-188468000D02*
X215646000Y-187452000D01*
X214630000Y-189738000D02*
X214630000Y-188468000D01*
X215646000Y-197612000D02*
X216890600Y-197612000D01*
X212541000Y-193274000D02*
X213594000Y-193274000D01*
X214376000Y-194056000D02*
X214376000Y-196342000D01*
X214376000Y-196342000D02*
X215646000Y-197612000D01*
X213594000Y-193274000D02*
X214376000Y-194056000D01*
X215138000Y-194056000D02*
X215138000Y-195072000D01*
X213856001Y-192774001D02*
X215138000Y-194056000D01*
X215646000Y-195580000D02*
X216890600Y-195580000D01*
X215138000Y-195072000D02*
X215646000Y-195580000D01*
X212541000Y-192774001D02*
X213856001Y-192774001D01*
X211816315Y-193999000D02*
X211816315Y-196068315D01*
X213334600Y-197586600D02*
X213334600Y-198882000D01*
X211816315Y-196068315D02*
X213334600Y-197586600D01*
X210315937Y-196091937D02*
X211302600Y-197078600D01*
X210315937Y-193999000D02*
X210315937Y-196091937D01*
X211302600Y-197078600D02*
X211302600Y-198882000D01*
X209315685Y-193999000D02*
X209315685Y-195560315D01*
X207238600Y-197637400D02*
X207238600Y-198882000D01*
X209315685Y-195560315D02*
X207238600Y-197637400D01*
X209815811Y-193999000D02*
X209815811Y-196076189D01*
X209815811Y-196076189D02*
X209270600Y-196621400D01*
X209270600Y-196621400D02*
X209270600Y-198882000D01*
X205486000Y-196342000D02*
X206502000Y-195326000D01*
X207538000Y-193274000D02*
X208591000Y-193274000D01*
X206502000Y-194310000D02*
X207538000Y-193274000D01*
X206502000Y-195326000D02*
X206502000Y-194310000D01*
X204087100Y-196342000D02*
X205486000Y-196342000D01*
X208591000Y-192774001D02*
X207021999Y-192774001D01*
X207021999Y-192774001D02*
X205486000Y-194310000D01*
X205486000Y-194310000D02*
X204087100Y-194310000D01*
X207268000Y-191774000D02*
X205740000Y-190246000D01*
X205740000Y-190246000D02*
X204087100Y-190246000D01*
X208591000Y-191774000D02*
X207268000Y-191774000D01*
X204087100Y-192278000D02*
X208587000Y-192278000D01*
X208587000Y-192278000D02*
X208591000Y-192274000D01*
X172702685Y-162046600D02*
X170453685Y-159797600D01*
X174555000Y-162046600D02*
X172702685Y-162046600D01*
X177280189Y-160031811D02*
X178327685Y-158984315D01*
X177280189Y-161321600D02*
X177280189Y-160031811D01*
X178327685Y-158984315D02*
X178327685Y-158242000D01*
X179070000Y-159766000D02*
X178308000Y-159766000D01*
X177780315Y-160293685D02*
X177780315Y-161321600D01*
X179851685Y-158984315D02*
X179070000Y-159766000D01*
X179851685Y-158242000D02*
X179851685Y-158984315D01*
X178308000Y-159766000D02*
X177780315Y-160293685D01*
X176780063Y-161321600D02*
X176780063Y-158265622D01*
X176780063Y-158265622D02*
X176803685Y-158242000D01*
X180086000Y-165100000D02*
X180086000Y-167640000D01*
X180086000Y-167640000D02*
X181387600Y-168941600D01*
X178505000Y-164546600D02*
X179532600Y-164546600D01*
X179532600Y-164546600D02*
X180086000Y-165100000D01*
X181387600Y-168941600D02*
X182221500Y-168941600D01*
X180048601Y-164046601D02*
X180848000Y-164846000D01*
X181133600Y-166909600D02*
X182221500Y-166909600D01*
X180848000Y-166624000D02*
X181133600Y-166909600D01*
X180848000Y-164846000D02*
X180848000Y-166624000D01*
X178505000Y-164046601D02*
X180048601Y-164046601D01*
X180890500Y-163546600D02*
X182221500Y-164877600D01*
X178505000Y-163546600D02*
X180890500Y-163546600D01*
X180340000Y-168910000D02*
X180340000Y-169807100D01*
X177780315Y-166350315D02*
X180340000Y-168910000D01*
X177780315Y-165271600D02*
X177780315Y-166350315D01*
X180488501Y-162546599D02*
X182221500Y-160813600D01*
X178505000Y-162546599D02*
X180488501Y-162546599D01*
X178505000Y-163046600D02*
X182020500Y-163046600D01*
X182020500Y-163046600D02*
X182221500Y-162845600D01*
X181070400Y-158781600D02*
X182221500Y-158781600D01*
X179583400Y-162046600D02*
X180086000Y-161544000D01*
X180086000Y-159766000D02*
X181070400Y-158781600D01*
X180086000Y-161544000D02*
X180086000Y-159766000D01*
X178505000Y-162046600D02*
X179583400Y-162046600D01*
X178308000Y-168910000D02*
X178308000Y-169807100D01*
X176279937Y-166881937D02*
X178308000Y-168910000D01*
X176279937Y-165271600D02*
X176279937Y-166881937D01*
X175779811Y-165271600D02*
X175779811Y-168159811D01*
X175779811Y-168159811D02*
X176276000Y-168656000D01*
X176276000Y-168656000D02*
X176276000Y-169807100D01*
X174244000Y-167640000D02*
X174244000Y-169807100D01*
X175279685Y-166604315D02*
X174244000Y-167640000D01*
X175279685Y-165271600D02*
X175279685Y-166604315D01*
X170350185Y-165639600D02*
X171672400Y-165639600D01*
X171672400Y-165639600D02*
X173265399Y-164046601D01*
X173265399Y-164046601D02*
X174555000Y-164046601D01*
X174555000Y-163546600D02*
X170411185Y-163546600D01*
X170411185Y-163546600D02*
X170350185Y-163607600D01*
X174555000Y-163046600D02*
X171821185Y-163046600D01*
X171821185Y-163046600D02*
X170350185Y-161575600D01*
X172212000Y-167386000D02*
X171926400Y-167671600D01*
X171926400Y-167671600D02*
X170350185Y-167671600D01*
X172212000Y-166116000D02*
X172212000Y-167386000D01*
X174555000Y-164546600D02*
X173781400Y-164546600D01*
X173781400Y-164546600D02*
X172212000Y-166116000D01*
X201168000Y-243586000D02*
X200660000Y-243078000D01*
X210820000Y-240284000D02*
X209550000Y-240284000D01*
X200660000Y-240030000D02*
X201676000Y-239014000D01*
X209550000Y-240284000D02*
X206248000Y-243586000D01*
X211340000Y-238147000D02*
X211340000Y-239764000D01*
X211340000Y-239764000D02*
X210820000Y-240284000D01*
X200660000Y-243078000D02*
X200660000Y-240030000D01*
X206248000Y-243586000D02*
X201168000Y-243586000D01*
X207010000Y-240792000D02*
X208324400Y-239477600D01*
X201676000Y-240792000D02*
X207010000Y-240792000D01*
X210058000Y-239477600D02*
X210340000Y-239195600D01*
X208324400Y-239477600D02*
X210058000Y-239477600D01*
X210340000Y-239195600D02*
X210340000Y-238147000D01*
X206216894Y-242570000D02*
X208906094Y-239880800D01*
X208906094Y-239880800D02*
X210461200Y-239880800D01*
X210461200Y-239880800D02*
X210840001Y-239501999D01*
X201676000Y-242570000D02*
X206216894Y-242570000D01*
X210840001Y-239501999D02*
X210840001Y-238147000D01*
X174010000Y-197632000D02*
X174834400Y-197632000D01*
X170751000Y-195326000D02*
X171704000Y-195326000D01*
X174010000Y-197632000D02*
X171704000Y-195326000D01*
X177559589Y-196907000D02*
X177559589Y-195820411D01*
X177559589Y-195820411D02*
X179578000Y-193802000D01*
X179578000Y-193802000D02*
X179578000Y-192849000D01*
X178059715Y-196907000D02*
X178059715Y-196082285D01*
X178059715Y-196082285D02*
X178562000Y-195580000D01*
X181102000Y-194056000D02*
X181102000Y-192849000D01*
X179578000Y-195580000D02*
X181102000Y-194056000D01*
X178562000Y-195580000D02*
X179578000Y-195580000D01*
X178054000Y-194310000D02*
X178054000Y-192849000D01*
X177059463Y-195304537D02*
X178054000Y-194310000D01*
X177059463Y-196907000D02*
X177059463Y-195304537D01*
X187960000Y-235204000D02*
X185609000Y-235204000D01*
X188976000Y-236220000D02*
X187960000Y-235204000D01*
X190437000Y-236220000D02*
X188976000Y-236220000D01*
X190437000Y-234696000D02*
X188722000Y-234696000D01*
X188722000Y-234696000D02*
X187960000Y-233934000D01*
X187960000Y-233934000D02*
X185609000Y-233934000D01*
X188722000Y-233172000D02*
X188214000Y-232664000D01*
X188214000Y-232664000D02*
X185609000Y-232664000D01*
X190437000Y-233172000D02*
X188722000Y-233172000D01*
X211074000Y-168910000D02*
X211836000Y-168910000D01*
X187706000Y-231394000D02*
X185609000Y-231394000D01*
X190773685Y-211639000D02*
X190773685Y-210839685D01*
X188468000Y-231394000D02*
X187706000Y-231394000D01*
X188976000Y-177800000D02*
X187960000Y-177800000D01*
X211836000Y-168910000D02*
X212401000Y-169475000D01*
X188722000Y-231648000D02*
X188468000Y-231394000D01*
X189427400Y-178251400D02*
X188976000Y-177800000D01*
X187960000Y-210566000D02*
X186436000Y-209042000D01*
X189427400Y-179070000D02*
X189427400Y-178251400D01*
X207010000Y-208788000D02*
X208429200Y-210207200D01*
X190500000Y-210566000D02*
X187960000Y-210566000D01*
X212401000Y-169475000D02*
X213125685Y-169475000D01*
X210969200Y-210207200D02*
X211347685Y-210585685D01*
X208429200Y-210207200D02*
X210969200Y-210207200D01*
X190436999Y-231648000D02*
X188722000Y-231648000D01*
X211347685Y-210585685D02*
X211347685Y-211385000D01*
X205994000Y-208788000D02*
X207010000Y-208788000D01*
X190773685Y-210839685D02*
X190500000Y-210566000D01*
X208445208Y-167132000D02*
X207727604Y-166414396D01*
X206564210Y-207772000D02*
X208596210Y-209804000D01*
X213360000Y-168402000D02*
X212598000Y-168402000D01*
X190562210Y-210058000D02*
X191273811Y-210769601D01*
X211847811Y-210515600D02*
X211847811Y-211385000D01*
X213625811Y-168667811D02*
X213360000Y-168402000D01*
X189927526Y-179070000D02*
X189927526Y-177481526D01*
X211136211Y-209804000D02*
X211847811Y-210515600D01*
X186436000Y-207772000D02*
X188722000Y-210058000D01*
X189230000Y-176784000D02*
X187960000Y-176784000D01*
X211328000Y-167132000D02*
X208445208Y-167132000D01*
X212598000Y-168402000D02*
X211328000Y-167132000D01*
X188722000Y-210058000D02*
X190562210Y-210058000D01*
X187706000Y-230124000D02*
X185609000Y-230124000D01*
X213625811Y-169475000D02*
X213625811Y-168667811D01*
X208596210Y-209804000D02*
X211136211Y-209804000D01*
X189927526Y-177481526D02*
X189230000Y-176784000D01*
X191273811Y-210769601D02*
X191273811Y-211639000D01*
X190437000Y-230124000D02*
X187706000Y-230124000D01*
X210312000Y-169418000D02*
X210312000Y-168656000D01*
X209804000Y-168148000D02*
X209099600Y-168148000D01*
X212401000Y-170200000D02*
X211094000Y-170200000D01*
X210312000Y-168656000D02*
X209804000Y-168148000D01*
X211094000Y-170200000D02*
X210312000Y-169418000D01*
X215126189Y-167397811D02*
X215126189Y-169475000D01*
X215392000Y-166116000D02*
X215392000Y-167132000D01*
X215392000Y-167132000D02*
X215126189Y-167397811D01*
X216916000Y-167132000D02*
X215626315Y-168421685D01*
X216916000Y-166116000D02*
X216916000Y-167132000D01*
X215626315Y-168421685D02*
X215626315Y-169475000D01*
X213868000Y-166878000D02*
X214626063Y-167636063D01*
X213868000Y-166116000D02*
X213868000Y-166878000D01*
X214626063Y-167636063D02*
X214626063Y-169475000D01*
X210029200Y-169897200D02*
X209042000Y-169897200D01*
X212401000Y-171200000D02*
X211332000Y-171200000D01*
X211332000Y-171200000D02*
X210029200Y-169897200D01*
X209042000Y-171929200D02*
X209271200Y-171700000D01*
X209271200Y-171700000D02*
X212401000Y-171700000D01*
X211348000Y-172700000D02*
X212401000Y-172700000D01*
X210312000Y-174723200D02*
X210312000Y-173736000D01*
X209042000Y-175993200D02*
X210312000Y-174723200D01*
X210312000Y-173736000D02*
X211348000Y-172700000D01*
X210803199Y-172200001D02*
X209042000Y-173961200D01*
X212401000Y-172200001D02*
X210803199Y-172200001D01*
X217678000Y-175514000D02*
X218665200Y-176501200D01*
X217150000Y-172700000D02*
X217678000Y-173228000D01*
X216351000Y-172700000D02*
X217150000Y-172700000D01*
X218665200Y-176501200D02*
X219813500Y-176501200D01*
X217678000Y-173228000D02*
X217678000Y-175514000D01*
X217112400Y-176218400D02*
X217112400Y-177517200D01*
X215626315Y-174732315D02*
X217112400Y-176218400D01*
X215626315Y-173425000D02*
X215626315Y-174732315D01*
X218792200Y-174469200D02*
X219813500Y-174469200D01*
X216351000Y-172200001D02*
X217220212Y-172200001D01*
X217220212Y-172200001D02*
X218440000Y-173419789D01*
X218440000Y-173419789D02*
X218440000Y-174117000D01*
X218440000Y-174117000D02*
X218792200Y-174469200D01*
X218722800Y-170405200D02*
X217928000Y-171200000D01*
X219813500Y-170405200D02*
X218722800Y-170405200D01*
X217928000Y-171200000D02*
X216351000Y-171200000D01*
X218976800Y-168373200D02*
X218440000Y-168910000D01*
X218440000Y-168910000D02*
X218440000Y-169926000D01*
X219813500Y-168373200D02*
X218976800Y-168373200D01*
X217678000Y-170688000D02*
X217170000Y-170688000D01*
X217158001Y-170699999D02*
X216351000Y-170699999D01*
X218440000Y-169926000D02*
X217678000Y-170688000D01*
X217170000Y-170688000D02*
X217158001Y-170699999D01*
X218601700Y-172437200D02*
X219813500Y-172437200D01*
X216351000Y-171700000D02*
X217864500Y-171700000D01*
X217864500Y-171700000D02*
X218601700Y-172437200D01*
X216351000Y-170200000D02*
X217404000Y-170200000D01*
X217932000Y-167132000D02*
X218722800Y-166341200D01*
X217932000Y-169672000D02*
X217932000Y-167132000D01*
X218722800Y-166341200D02*
X219813500Y-166341200D01*
X217404000Y-170200000D02*
X217932000Y-169672000D01*
X213125685Y-174478315D02*
X211016400Y-176587600D01*
X213125685Y-173425000D02*
X213125685Y-174478315D01*
X211016400Y-176587600D02*
X211016400Y-177517200D01*
X213625811Y-173425000D02*
X213625811Y-175756189D01*
X213625811Y-175756189D02*
X213048400Y-176333600D01*
X213048400Y-176333600D02*
X213048400Y-177517200D01*
X215080400Y-176599400D02*
X215080400Y-177517200D01*
X214125937Y-175644937D02*
X215080400Y-176599400D01*
X214125937Y-173425000D02*
X214125937Y-175644937D01*
X187415000Y-179795000D02*
X186436000Y-178816000D01*
X186436000Y-178054000D02*
X185052000Y-176670000D01*
X185052000Y-176670000D02*
X183815778Y-176670000D01*
X188702715Y-179795000D02*
X187415000Y-179795000D01*
X186436000Y-178816000D02*
X186436000Y-178054000D01*
X192451778Y-175848222D02*
X191427904Y-176872096D01*
X192451778Y-174447000D02*
X192451778Y-175848222D01*
X191427904Y-176872096D02*
X191427904Y-179070000D01*
X191928030Y-179070000D02*
X191928030Y-177895970D01*
X193975778Y-175848222D02*
X193975778Y-174447000D01*
X191928030Y-177895970D02*
X193975778Y-175848222D01*
X190927778Y-174447000D02*
X190927778Y-179070000D01*
X188702715Y-180795000D02*
X187526000Y-180795000D01*
X187526000Y-180795000D02*
X185179000Y-178448000D01*
X185179000Y-178448000D02*
X183815778Y-178448000D01*
X186195000Y-180480000D02*
X183815778Y-180480000D01*
X187010000Y-181295000D02*
X186195000Y-180480000D01*
X188702715Y-181295000D02*
X187010000Y-181295000D01*
X185280000Y-184544000D02*
X183815778Y-184544000D01*
X188702715Y-182295000D02*
X187529000Y-182295000D01*
X187529000Y-182295000D02*
X185280000Y-184544000D01*
X188702715Y-181795001D02*
X187012999Y-181795001D01*
X187012999Y-181795001D02*
X186296000Y-182512000D01*
X186296000Y-182512000D02*
X183815778Y-182512000D01*
X194056000Y-185674000D02*
X195212000Y-186830000D01*
X194056000Y-182626000D02*
X194056000Y-185674000D01*
X195212000Y-186830000D02*
X196445500Y-186830000D01*
X193725000Y-182295000D02*
X194056000Y-182626000D01*
X192652715Y-182295000D02*
X193725000Y-182295000D01*
X191928030Y-184308030D02*
X192451778Y-184831778D01*
X191928030Y-183020000D02*
X191928030Y-184308030D01*
X192451778Y-184831778D02*
X192451778Y-186182000D01*
X192652715Y-181795001D02*
X193987001Y-181795001D01*
X193987001Y-181795001D02*
X194818000Y-182626000D01*
X194818000Y-184150000D02*
X195466000Y-184798000D01*
X195466000Y-184798000D02*
X196445500Y-184798000D01*
X194818000Y-182626000D02*
X194818000Y-184150000D01*
X196384500Y-180795000D02*
X196445500Y-180734000D01*
X192652715Y-180795000D02*
X196384500Y-180795000D01*
X193847001Y-180294999D02*
X195440000Y-178702000D01*
X192652715Y-180294999D02*
X193847001Y-180294999D01*
X195440000Y-178702000D02*
X196445500Y-178702000D01*
X195720000Y-182766000D02*
X196445500Y-182766000D01*
X192652715Y-181295000D02*
X194249000Y-181295000D01*
X194249000Y-181295000D02*
X195720000Y-182766000D01*
X192652715Y-179795000D02*
X193585000Y-179795000D01*
X193585000Y-179795000D02*
X194310000Y-179070000D01*
X194932000Y-176670000D02*
X196445500Y-176670000D01*
X194310000Y-177292000D02*
X194932000Y-176670000D01*
X194310000Y-179070000D02*
X194310000Y-177292000D01*
X189103000Y-184404000D02*
X187198000Y-184404000D01*
X189427400Y-183020000D02*
X189427400Y-184079600D01*
X189427400Y-184079600D02*
X189103000Y-184404000D01*
X187198000Y-184404000D02*
X186355778Y-185246222D01*
X186355778Y-185246222D02*
X186355778Y-186182000D01*
X189484000Y-184912000D02*
X189927526Y-184468474D01*
X188849000Y-184912000D02*
X189484000Y-184912000D01*
X188387778Y-185373222D02*
X188849000Y-184912000D01*
X189927526Y-184468474D02*
X189927526Y-183020000D01*
X188387778Y-186182000D02*
X188387778Y-185373222D01*
X190427652Y-183020000D02*
X190427652Y-186174126D01*
X190427652Y-186174126D02*
X190419778Y-186182000D01*
X173736000Y-234696000D02*
X173736000Y-232156000D01*
X179832000Y-238125000D02*
X177165000Y-238125000D01*
X173736000Y-232156000D02*
X174498000Y-231394000D01*
X174498000Y-231394000D02*
X180659000Y-231394000D01*
X177165000Y-238125000D02*
X173736000Y-234696000D01*
X172974000Y-231394000D02*
X174244000Y-230124000D01*
X178181000Y-239776000D02*
X175845355Y-239776000D01*
X174244000Y-230124000D02*
X180659000Y-230124000D01*
X175845355Y-239776000D02*
X172974000Y-236904645D01*
X172974000Y-236904645D02*
X172974000Y-231394000D01*
X179578000Y-241173000D02*
X178181000Y-239776000D01*
X171958000Y-236982000D02*
X171958000Y-230632000D01*
X173736000Y-228854000D02*
X180659000Y-228854000D01*
X177673000Y-242697000D02*
X171958000Y-236982000D01*
X179578000Y-242697000D02*
X177673000Y-242697000D01*
X171958000Y-230632000D02*
X173736000Y-228854000D01*
X188742000Y-212364000D02*
X190049000Y-212364000D01*
X185737000Y-210763000D02*
X187141000Y-210763000D01*
X187141000Y-210763000D02*
X188742000Y-212364000D01*
X193798063Y-209045937D02*
X192774189Y-210069811D01*
X192774189Y-210069811D02*
X192774189Y-211639000D01*
X193798063Y-208089000D02*
X193798063Y-209045937D01*
X194564000Y-209804000D02*
X193802000Y-209804000D01*
X193274315Y-210331685D02*
X193274315Y-211639000D01*
X193802000Y-209804000D02*
X193274315Y-210331685D01*
X195322063Y-208089000D02*
X195322063Y-209045937D01*
X195322063Y-209045937D02*
X194564000Y-209804000D01*
X192274063Y-208089000D02*
X192274063Y-211639000D01*
X207518000Y-210058000D02*
X206567579Y-210058000D01*
X210623000Y-212110000D02*
X209570000Y-212110000D01*
X209570000Y-212110000D02*
X207518000Y-210058000D01*
X213348189Y-211385000D02*
X213348189Y-209815811D01*
X214376000Y-208788000D02*
X214376000Y-207772000D01*
X213348189Y-209815811D02*
X214376000Y-208788000D01*
X215138000Y-209550000D02*
X216154000Y-208534000D01*
X216154000Y-208534000D02*
X216154000Y-207772000D01*
X213848315Y-210077685D02*
X214376000Y-209550000D01*
X213848315Y-211385000D02*
X213848315Y-210077685D01*
X214376000Y-209550000D02*
X215138000Y-209550000D01*
X212598000Y-207772000D02*
X212598000Y-209550000D01*
X212598000Y-209550000D02*
X212848063Y-209800063D01*
X212848063Y-209800063D02*
X212848063Y-211385000D01*
X208006325Y-211816325D02*
X206655079Y-211816325D01*
X210623000Y-213110000D02*
X209300000Y-213110000D01*
X209300000Y-213110000D02*
X208006325Y-211816325D01*
X209570000Y-214610000D02*
X209042000Y-215138000D01*
X210623000Y-214610000D02*
X209570000Y-214610000D01*
X208026000Y-217932000D02*
X206652500Y-217932000D01*
X209042000Y-216916000D02*
X208026000Y-217932000D01*
X209042000Y-215138000D02*
X209042000Y-216916000D01*
X209307999Y-214110001D02*
X207518000Y-215900000D01*
X210623000Y-214110001D02*
X209307999Y-214110001D01*
X207518000Y-215900000D02*
X206652500Y-215900000D01*
X206906175Y-213610000D02*
X206656924Y-213859251D01*
X210623000Y-213610000D02*
X206906175Y-213610000D01*
X212347937Y-216919937D02*
X213614000Y-218186000D01*
X213614000Y-218186000D02*
X213614000Y-220067500D01*
X212347937Y-215335000D02*
X212347937Y-216919937D01*
X211847811Y-215335000D02*
X211847811Y-219801689D01*
X211847811Y-219801689D02*
X211582000Y-220067500D01*
X211347685Y-215335000D02*
X211347685Y-216642315D01*
X209550000Y-218440000D02*
X209550000Y-220067500D01*
X211347685Y-216642315D02*
X209550000Y-218440000D01*
X215499000Y-212110000D02*
X216154000Y-211455000D01*
X217170000Y-209296000D02*
X218180062Y-209296000D01*
X216154000Y-210312000D02*
X217170000Y-209296000D01*
X214573000Y-212110000D02*
X215499000Y-212110000D01*
X216154000Y-211455000D02*
X216154000Y-210312000D01*
X214573000Y-212609999D02*
X215888001Y-212609999D01*
X215888001Y-212609999D02*
X217170000Y-211328000D01*
X217170000Y-211328000D02*
X218180062Y-211328000D01*
X217191372Y-217445372D02*
X218188362Y-217445372D01*
X216142001Y-214110001D02*
X216662000Y-214630000D01*
X214573000Y-214110001D02*
X216142001Y-214110001D01*
X216662000Y-214630000D02*
X216662000Y-216916000D01*
X216662000Y-216916000D02*
X217191372Y-217445372D01*
X216562105Y-213610000D02*
X217170000Y-214217895D01*
X217170000Y-214217895D02*
X217170000Y-215138000D01*
X217170000Y-215138000D02*
X217447661Y-215415661D01*
X217447661Y-215415661D02*
X218186000Y-215415661D01*
X214573000Y-213610000D02*
X216562105Y-213610000D01*
X217930062Y-213110000D02*
X218180062Y-213360000D01*
X214573000Y-213110000D02*
X217930062Y-213110000D01*
X215900000Y-218186000D02*
X217230980Y-219516980D01*
X217230980Y-219516980D02*
X218197702Y-219516980D01*
X215900000Y-214884000D02*
X215900000Y-218186000D01*
X215626000Y-214610000D02*
X215900000Y-214884000D01*
X214573000Y-214610000D02*
X215626000Y-214610000D01*
X213848315Y-215335000D02*
X213848315Y-217150315D01*
X215646000Y-218948000D02*
X215646000Y-220067500D01*
X213848315Y-217150315D02*
X215646000Y-218948000D01*
X165989000Y-193929000D02*
X165989000Y-200533000D01*
X149943500Y-201338500D02*
X146589600Y-201338500D01*
X165989000Y-200533000D02*
X165100000Y-201422000D01*
X165100000Y-201422000D02*
X161798000Y-201422000D01*
X153162000Y-195580000D02*
X153162000Y-198120000D01*
X156303600Y-192438400D02*
X153162000Y-195580000D01*
X160274000Y-199898000D02*
X160274000Y-193548000D01*
X160274000Y-193548000D02*
X159164400Y-192438400D01*
X168148000Y-191770000D02*
X165989000Y-193929000D01*
X153162000Y-198120000D02*
X149943500Y-201338500D01*
X159164400Y-192438400D02*
X156303600Y-192438400D01*
X161798000Y-201422000D02*
X160274000Y-199898000D01*
X159777200Y-192035200D02*
X155815220Y-192035200D01*
X161798000Y-199644000D02*
X161798000Y-194056000D01*
X155815220Y-192035200D02*
X152654000Y-195196420D01*
X152654000Y-196596000D02*
X152380000Y-196870000D01*
X165354000Y-200406000D02*
X164995200Y-200764800D01*
X168148000Y-189484000D02*
X165354000Y-192278000D01*
X165354000Y-192278000D02*
X165354000Y-200406000D01*
X162918800Y-200764800D02*
X161798000Y-199644000D01*
X152380000Y-196870000D02*
X151431000Y-196870000D01*
X164995200Y-200764800D02*
X162918800Y-200764800D01*
X152654000Y-195196420D02*
X152654000Y-196596000D01*
X161798000Y-194056000D02*
X159777200Y-192035200D01*
X161394800Y-191112800D02*
X155597200Y-191112800D01*
X164592000Y-194310000D02*
X161394800Y-191112800D01*
X155597200Y-191112800D02*
X153904000Y-192806000D01*
X164592000Y-199898000D02*
X164592000Y-194310000D01*
X153904000Y-192806000D02*
X151431000Y-192806000D01*
X160644000Y-191632000D02*
X155648210Y-191632000D01*
X162814000Y-193802000D02*
X160644000Y-191632000D01*
X155648210Y-191632000D02*
X152442210Y-194838000D01*
X162814000Y-196596000D02*
X162814000Y-193802000D01*
X152442210Y-194838000D02*
X151431000Y-194838000D01*
X151431000Y-186710000D02*
X153142000Y-186710000D01*
X153142000Y-186710000D02*
X153162000Y-186690000D01*
X152674000Y-188742000D02*
X151431000Y-188742000D01*
X153670000Y-189738000D02*
X152674000Y-188742000D01*
X168148000Y-187960000D02*
X168148000Y-188550605D01*
X171704000Y-192112791D02*
X171704000Y-189738000D01*
X171704000Y-189738000D02*
X169418000Y-187452000D01*
X169418000Y-187452000D02*
X168656000Y-187452000D01*
X168148000Y-188550605D02*
X165989005Y-190709600D01*
X151495400Y-190709600D02*
X151431000Y-190774000D01*
X165989005Y-190709600D02*
X151495400Y-190709600D01*
X168656000Y-187452000D02*
X168148000Y-187960000D01*
X137690200Y-202714200D02*
X151107800Y-202714200D01*
X151107800Y-202714200D02*
X153924000Y-199898000D01*
X135517100Y-200541100D02*
X137690200Y-202714200D01*
X135517100Y-196108000D02*
X135517100Y-200541100D01*
X153830400Y-198467600D02*
X153830400Y-195673600D01*
X153830400Y-195673600D02*
X156464000Y-193040000D01*
X140632500Y-201338500D02*
X141605000Y-202311000D01*
X149987000Y-202311000D02*
X153830400Y-198467600D01*
X140493600Y-201338500D02*
X140632500Y-201338500D01*
X156464000Y-193040000D02*
X157734000Y-193040000D01*
X141605000Y-202311000D02*
X149987000Y-202311000D01*
X134620000Y-185166000D02*
X133350000Y-186436000D01*
X134386000Y-192044000D02*
X135517100Y-192044000D01*
X133350000Y-191008000D02*
X134386000Y-192044000D01*
X133350000Y-186436000D02*
X133350000Y-191008000D01*
X136652000Y-185166000D02*
X134620000Y-185166000D01*
X134640000Y-190012000D02*
X135517100Y-190012000D01*
X134112000Y-186690000D02*
X134112000Y-189484000D01*
X136652000Y-185966003D02*
X134835997Y-185966003D01*
X134112000Y-189484000D02*
X134640000Y-190012000D01*
X134835997Y-185966003D02*
X134112000Y-186690000D01*
X154525600Y-200566400D02*
X151974600Y-203117400D01*
X134112000Y-195481100D02*
X135517100Y-194076000D01*
X136315400Y-203117400D02*
X134112000Y-200914000D01*
X134112000Y-200914000D02*
X134112000Y-195481100D01*
X154525600Y-196689600D02*
X154525600Y-200566400D01*
X151974600Y-203117400D02*
X136315400Y-203117400D01*
X138196000Y-188234000D02*
X137445600Y-188234000D01*
X140736000Y-190774000D02*
X138196000Y-188234000D01*
X141763600Y-190774000D02*
X140736000Y-190774000D01*
X145065600Y-187674400D02*
X145065600Y-185249000D01*
X144488789Y-188251211D02*
X145065600Y-187674400D01*
X144488789Y-190049000D02*
X144488789Y-188251211D01*
X144988915Y-188767085D02*
X146589600Y-187166400D01*
X144988915Y-190049000D02*
X144988915Y-188767085D01*
X146589600Y-187166400D02*
X146589600Y-185249000D01*
X143541600Y-187737600D02*
X143988663Y-188184663D01*
X143541600Y-185249000D02*
X143541600Y-187737600D01*
X143988663Y-188184663D02*
X143988663Y-190049000D01*
X144988915Y-193999000D02*
X144988915Y-195534915D01*
X146589600Y-197135600D02*
X146589600Y-199513500D01*
X144988915Y-195534915D02*
X146589600Y-197135600D01*
X145713600Y-193274000D02*
X146792000Y-193274000D01*
X147320000Y-193802000D02*
X147320000Y-195834000D01*
X148356000Y-196870000D02*
X149606000Y-196870000D01*
X147320000Y-195834000D02*
X148356000Y-196870000D01*
X146792000Y-193274000D02*
X147320000Y-193802000D01*
X147570000Y-192274000D02*
X145713600Y-192274000D01*
X149606000Y-192806000D02*
X148102000Y-192806000D01*
X148102000Y-192806000D02*
X147570000Y-192274000D01*
X149606000Y-194838000D02*
X148610000Y-194838000D01*
X148082000Y-193548000D02*
X147308001Y-192774001D01*
X148082000Y-194310000D02*
X148082000Y-193548000D01*
X148610000Y-194838000D02*
X148082000Y-194310000D01*
X147308001Y-192774001D02*
X145713600Y-192774001D01*
X147066000Y-190246000D02*
X147066000Y-187960000D01*
X145713600Y-190774000D02*
X146538000Y-190774000D01*
X147066000Y-187960000D02*
X148316000Y-186710000D01*
X148316000Y-186710000D02*
X149606000Y-186710000D01*
X146538000Y-190774000D02*
X147066000Y-190246000D01*
X146800001Y-191273999D02*
X145713600Y-191273999D01*
X148316000Y-188742000D02*
X147574000Y-189484000D01*
X147574000Y-189484000D02*
X147574000Y-190500000D01*
X147574000Y-190500000D02*
X146800001Y-191273999D01*
X149606000Y-188742000D02*
X148316000Y-188742000D01*
X145713600Y-191774000D02*
X147062000Y-191774000D01*
X148062000Y-190774000D02*
X149606000Y-190774000D01*
X147062000Y-191774000D02*
X148062000Y-190774000D01*
X140482000Y-193274000D02*
X141763600Y-193274000D01*
X137342100Y-196108000D02*
X138664000Y-196108000D01*
X139700000Y-194056000D02*
X140482000Y-193274000D01*
X138664000Y-196108000D02*
X139700000Y-195072000D01*
X139700000Y-195072000D02*
X139700000Y-194056000D01*
X142488285Y-196093715D02*
X142488285Y-193999000D01*
X140493600Y-199513500D02*
X140493600Y-198088400D01*
X140493600Y-198088400D02*
X142488285Y-196093715D01*
X142525600Y-197326400D02*
X142525600Y-199513500D01*
X142988411Y-196863589D02*
X142525600Y-197326400D01*
X142988411Y-193999000D02*
X142988411Y-196863589D01*
X143488537Y-196574537D02*
X143488537Y-193999000D01*
X144557600Y-197643600D02*
X143488537Y-196574537D01*
X144557600Y-199513500D02*
X144557600Y-197643600D01*
X137572100Y-192274000D02*
X137342100Y-192044000D01*
X141763600Y-192274000D02*
X137572100Y-192274000D01*
X140466000Y-191774000D02*
X138704000Y-190012000D01*
X138704000Y-190012000D02*
X137342100Y-190012000D01*
X141763600Y-191774000D02*
X140466000Y-191774000D01*
X141763600Y-192774001D02*
X140219999Y-192774001D01*
X140219999Y-192774001D02*
X138918000Y-194076000D01*
X138918000Y-194076000D02*
X137342100Y-194076000D01*
X139737211Y-216878789D02*
X138774200Y-217841800D01*
X138774200Y-217841800D02*
X138774200Y-218631000D01*
X139737211Y-215309600D02*
X139737211Y-216878789D01*
X145064600Y-214660600D02*
X145733000Y-214660600D01*
X143988600Y-213584600D02*
X145064600Y-214660600D01*
X142462400Y-213584600D02*
X143988600Y-213584600D01*
X140237337Y-218570137D02*
X140298200Y-218631000D01*
X140237337Y-215309600D02*
X140237337Y-218570137D01*
X137338388Y-212584599D02*
X136652000Y-211898211D01*
X136174600Y-210088600D02*
X135191000Y-210088600D01*
X136652000Y-210566000D02*
X136174600Y-210088600D01*
X136652000Y-211898211D02*
X136652000Y-210566000D01*
X138512400Y-212584599D02*
X137338388Y-212584599D01*
X135251000Y-213584600D02*
X138512400Y-213584600D01*
X135191000Y-213644600D02*
X135251000Y-213584600D01*
X141237589Y-216929589D02*
X141822200Y-217514200D01*
X141237589Y-215309600D02*
X141237589Y-216929589D01*
X141822200Y-217514200D02*
X141822200Y-218631000D01*
X137324399Y-214084601D02*
X135986400Y-215422600D01*
X138512400Y-214084601D02*
X137324399Y-214084601D01*
X135986400Y-215422600D02*
X135191000Y-215422600D01*
X142462400Y-214084601D02*
X143726601Y-214084601D01*
X143726601Y-214084601D02*
X144272000Y-214630000D01*
X144272000Y-214630000D02*
X144272000Y-215392000D01*
X145064600Y-216184600D02*
X145733000Y-216184600D01*
X144272000Y-215392000D02*
X145064600Y-216184600D01*
X142483800Y-213106000D02*
X142462400Y-213084600D01*
X145733000Y-213106000D02*
X142483800Y-213106000D01*
X135920600Y-211866600D02*
X135191000Y-211866600D01*
X138512400Y-213084600D02*
X137138600Y-213084600D01*
X137138600Y-213084600D02*
X135920600Y-211866600D01*
X144810600Y-217708600D02*
X145733000Y-217708600D01*
X143764000Y-214884000D02*
X143764000Y-216662000D01*
X143764000Y-216662000D02*
X144810600Y-217708600D01*
X143464600Y-214584600D02*
X143764000Y-214884000D01*
X142462400Y-214584600D02*
X143464600Y-214584600D01*
X141737715Y-216159715D02*
X143346200Y-217768200D01*
X143346200Y-217768200D02*
X143346200Y-218631000D01*
X141737715Y-215309600D02*
X141737715Y-216159715D01*
X139237085Y-216644115D02*
X137250200Y-218631000D01*
X139237085Y-215309600D02*
X139237085Y-216644115D01*
X137713400Y-214584600D02*
X137160000Y-215138000D01*
X138512400Y-214584600D02*
X137713400Y-214584600D01*
X136367400Y-217200600D02*
X135191000Y-217200600D01*
X137160000Y-216408000D02*
X136367400Y-217200600D01*
X137160000Y-215138000D02*
X137160000Y-216408000D01*
X142462400Y-212584599D02*
X143777401Y-212584599D01*
X144780000Y-211582000D02*
X145733000Y-211582000D01*
X143777401Y-212584599D02*
X144780000Y-211582000D01*
X144780000Y-210058000D02*
X145733000Y-210058000D01*
X144018000Y-210820000D02*
X144780000Y-210058000D01*
X143642400Y-212084600D02*
X144018000Y-211709000D01*
X144018000Y-211709000D02*
X144018000Y-210820000D01*
X142462400Y-212084600D02*
X143642400Y-212084600D01*
X175006000Y-203454000D02*
X176059211Y-202400789D01*
X175006000Y-204407000D02*
X175006000Y-203454000D01*
X176059211Y-202400789D02*
X176059211Y-200857000D01*
X180336000Y-199132000D02*
X181102000Y-199898000D01*
X178784400Y-199132000D02*
X180336000Y-199132000D01*
X181102000Y-199898000D02*
X182055000Y-199898000D01*
X176559337Y-204377663D02*
X176530000Y-204407000D01*
X176559337Y-200857000D02*
X176559337Y-204377663D01*
X171958000Y-196850000D02*
X170751000Y-196850000D01*
X174834400Y-198131999D02*
X173239999Y-198131999D01*
X173239999Y-198131999D02*
X171958000Y-196850000D01*
X171704000Y-199898000D02*
X170751000Y-199898000D01*
X174834400Y-199132000D02*
X172470000Y-199132000D01*
X172470000Y-199132000D02*
X171704000Y-199898000D01*
X178054000Y-203454000D02*
X178054000Y-204407000D01*
X177559589Y-200857000D02*
X177559589Y-202959589D01*
X177559589Y-202959589D02*
X178054000Y-203454000D01*
X172212000Y-200152000D02*
X172731999Y-199632001D01*
X172731999Y-199632001D02*
X174834400Y-199632001D01*
X170751000Y-201422000D02*
X171704000Y-201422000D01*
X172212000Y-200914000D02*
X172212000Y-200152000D01*
X171704000Y-201422000D02*
X172212000Y-200914000D01*
X181102000Y-201422000D02*
X182055000Y-201422000D01*
X180594000Y-200152000D02*
X180594000Y-200914000D01*
X178784400Y-199632001D02*
X180074001Y-199632001D01*
X180594000Y-200914000D02*
X181102000Y-201422000D01*
X180074001Y-199632001D02*
X180594000Y-200152000D01*
X180975000Y-198374000D02*
X182055000Y-198374000D01*
X180717000Y-198632000D02*
X180975000Y-198374000D01*
X178784400Y-198632000D02*
X180717000Y-198632000D01*
X172216000Y-198632000D02*
X174834400Y-198632000D01*
X170751000Y-198374000D02*
X171958000Y-198374000D01*
X171958000Y-198374000D02*
X172216000Y-198632000D01*
X181102000Y-202946000D02*
X182055000Y-202946000D01*
X180086000Y-200406000D02*
X180086000Y-201930000D01*
X179812000Y-200132000D02*
X180086000Y-200406000D01*
X178784400Y-200132000D02*
X179812000Y-200132000D01*
X180086000Y-201930000D02*
X181102000Y-202946000D01*
X178059715Y-200857000D02*
X178059715Y-202189715D01*
X179578000Y-203708000D02*
X179578000Y-204407000D01*
X178059715Y-202189715D02*
X179578000Y-203708000D01*
X173482000Y-203454000D02*
X173482000Y-204407000D01*
X175559085Y-201376915D02*
X173482000Y-203454000D01*
X175559085Y-200857000D02*
X175559085Y-201376915D01*
X170751000Y-202946000D02*
X171958000Y-202946000D01*
X172720000Y-202184000D02*
X172720000Y-200914000D01*
X173502000Y-200132000D02*
X174834400Y-200132000D01*
X171958000Y-202946000D02*
X172720000Y-202184000D01*
X172720000Y-200914000D02*
X173502000Y-200132000D01*
X178784400Y-198131999D02*
X179820001Y-198131999D01*
X181102000Y-196850000D02*
X182055000Y-196850000D01*
X179820001Y-198131999D02*
X181102000Y-196850000D01*
X181102000Y-195326000D02*
X182055000Y-195326000D01*
X180340000Y-196088000D02*
X181102000Y-195326000D01*
X180340000Y-196977000D02*
X180340000Y-196088000D01*
X178784400Y-197632000D02*
X179685000Y-197632000D01*
X179685000Y-197632000D02*
X180340000Y-196977000D01*
X196145000Y-210255000D02*
X197295000Y-210255000D01*
X193999000Y-212364000D02*
X195052000Y-212364000D01*
X195707000Y-210693000D02*
X196145000Y-210255000D01*
X195707000Y-211709000D02*
X195707000Y-210693000D01*
X195052000Y-212364000D02*
X195707000Y-211709000D01*
X196399000Y-211779000D02*
X197295000Y-211779000D01*
X193999000Y-212863999D02*
X195314001Y-212863999D01*
X195314001Y-212863999D02*
X196399000Y-211779000D01*
X197234000Y-213364000D02*
X193999000Y-213364000D01*
X197295000Y-213303000D02*
X197234000Y-213364000D01*
X188214000Y-216916000D02*
X188214000Y-215900000D01*
X186747000Y-218383000D02*
X188214000Y-216916000D01*
X188214000Y-215900000D02*
X189250000Y-214864000D01*
X185737000Y-218383000D02*
X186747000Y-218383000D01*
X189250000Y-214864000D02*
X190049000Y-214864000D01*
X197295000Y-217875000D02*
X196539000Y-217875000D01*
X195052000Y-214864000D02*
X193999000Y-214864000D01*
X196539000Y-217875000D02*
X195580000Y-216916000D01*
X195580000Y-215392000D02*
X195052000Y-214864000D01*
X195580000Y-216916000D02*
X195580000Y-215392000D01*
X187255000Y-213811000D02*
X185737000Y-213811000D01*
X187702000Y-213364000D02*
X187255000Y-213811000D01*
X190049000Y-213364000D02*
X187702000Y-213364000D01*
X189734063Y-220352000D02*
X189734063Y-218697937D01*
X189734063Y-218697937D02*
X191273811Y-217158189D01*
X191273811Y-217158189D02*
X191273811Y-215589000D01*
X190049000Y-214364001D02*
X188987999Y-214364001D01*
X186493000Y-216859000D02*
X185737000Y-216859000D01*
X188987999Y-214364001D02*
X186493000Y-216859000D01*
X185737000Y-215335000D02*
X187001000Y-215335000D01*
X187001000Y-215335000D02*
X188472000Y-213864000D01*
X188472000Y-213864000D02*
X190049000Y-213864000D01*
X193274315Y-215589000D02*
X193274315Y-217404315D01*
X193274315Y-217404315D02*
X194306063Y-218436063D01*
X194306063Y-218436063D02*
X194306063Y-220352000D01*
X188210063Y-219332937D02*
X188210063Y-220352000D01*
X190773685Y-215589000D02*
X190773685Y-216769315D01*
X190773685Y-216769315D02*
X188210063Y-219332937D01*
X197295000Y-216351000D02*
X196539000Y-216351000D01*
X196539000Y-216351000D02*
X196088000Y-215900000D01*
X196088000Y-215138000D02*
X195314001Y-214364001D01*
X195314001Y-214364001D02*
X193999000Y-214364001D01*
X196088000Y-215900000D02*
X196088000Y-215138000D01*
X190049000Y-212863999D02*
X187971999Y-212863999D01*
X187971999Y-212863999D02*
X187395000Y-212287000D01*
X187395000Y-212287000D02*
X185737000Y-212287000D01*
X191773937Y-217674063D02*
X191262000Y-218186000D01*
X191773937Y-215589000D02*
X191773937Y-217674063D01*
X191262000Y-218186000D02*
X191262000Y-218440000D01*
X191258063Y-218443937D02*
X191258063Y-220352000D01*
X191262000Y-218440000D02*
X191258063Y-218443937D01*
X192774189Y-220344126D02*
X192782063Y-220352000D01*
X192774189Y-215589000D02*
X192774189Y-220344126D01*
X195576000Y-213864000D02*
X196539000Y-214827000D01*
X196539000Y-214827000D02*
X197295000Y-214827000D01*
X193999000Y-213864000D02*
X195576000Y-213864000D01*
G04 #@! TA.AperFunction,Conductor*
G36*
X131261039Y-228873685D02*
G01*
X131306794Y-228926489D01*
X131318000Y-228978000D01*
X131318000Y-236220000D01*
X132930489Y-236220000D01*
X132986784Y-236233515D01*
X133173024Y-236328410D01*
X133173027Y-236328411D01*
X133221006Y-236344000D01*
X133416361Y-236407474D01*
X133669070Y-236447500D01*
X133669071Y-236447500D01*
X136174929Y-236447500D01*
X136174930Y-236447500D01*
X136427639Y-236407474D01*
X136670975Y-236328410D01*
X136857216Y-236233514D01*
X136913511Y-236220000D01*
X141100000Y-236220000D01*
X141167039Y-236239685D01*
X141212794Y-236292489D01*
X141224000Y-236344000D01*
X141224000Y-242018659D01*
X141204315Y-242085698D01*
X141151511Y-242131453D01*
X141140955Y-242135701D01*
X141059476Y-242164211D01*
X140906737Y-242260184D01*
X140779184Y-242387737D01*
X140683211Y-242540476D01*
X140623631Y-242710745D01*
X140623630Y-242710750D01*
X140603435Y-242889996D01*
X140603435Y-242890003D01*
X140623630Y-243069249D01*
X140623631Y-243069254D01*
X140683212Y-243239526D01*
X140781550Y-243396028D01*
X140800551Y-243463264D01*
X140780184Y-243530099D01*
X140726916Y-243575314D01*
X140676557Y-243586000D01*
X128394500Y-243586000D01*
X128327461Y-243566315D01*
X128281706Y-243513511D01*
X128270500Y-243462000D01*
X128270500Y-238269070D01*
X130296500Y-238269070D01*
X130296500Y-240774929D01*
X130336526Y-241027640D01*
X130415588Y-241270972D01*
X130415589Y-241270975D01*
X130531750Y-241498950D01*
X130682132Y-241705935D01*
X130682136Y-241705940D01*
X130863059Y-241886863D01*
X130863064Y-241886867D01*
X130920142Y-241928336D01*
X131070053Y-242037252D01*
X131202293Y-242104632D01*
X131298024Y-242153410D01*
X131298027Y-242153411D01*
X131331267Y-242164211D01*
X131541361Y-242232474D01*
X131794070Y-242272500D01*
X131794071Y-242272500D01*
X132049929Y-242272500D01*
X132049930Y-242272500D01*
X132302639Y-242232474D01*
X132545975Y-242153410D01*
X132773947Y-242037252D01*
X132980942Y-241886862D01*
X133161862Y-241705942D01*
X133312252Y-241498947D01*
X133428410Y-241270975D01*
X133507474Y-241027639D01*
X133547500Y-240774930D01*
X133547500Y-238269070D01*
X133529798Y-238157305D01*
X136172000Y-238157305D01*
X136172000Y-239272000D01*
X137422000Y-239272000D01*
X137422000Y-239772000D01*
X136172000Y-239772000D01*
X136172000Y-240886694D01*
X136172001Y-240886710D01*
X136201942Y-241114137D01*
X136261318Y-241335730D01*
X136349102Y-241547659D01*
X136349106Y-241547668D01*
X136463809Y-241746338D01*
X136603455Y-241928329D01*
X136603461Y-241928336D01*
X136765663Y-242090538D01*
X136765670Y-242090544D01*
X136947661Y-242230190D01*
X137146331Y-242344893D01*
X137146340Y-242344897D01*
X137358269Y-242432681D01*
X137579859Y-242492056D01*
X137579864Y-242492057D01*
X137671999Y-242504186D01*
X137672000Y-242504186D01*
X137672000Y-241205012D01*
X137729007Y-241237925D01*
X137856174Y-241272000D01*
X137987826Y-241272000D01*
X138114993Y-241237925D01*
X138172000Y-241205012D01*
X138172000Y-242504186D01*
X138264135Y-242492057D01*
X138264140Y-242492056D01*
X138485730Y-242432681D01*
X138697659Y-242344897D01*
X138697668Y-242344893D01*
X138896338Y-242230190D01*
X139078329Y-242090544D01*
X139078336Y-242090538D01*
X139240538Y-241928336D01*
X139240544Y-241928329D01*
X139380190Y-241746338D01*
X139494893Y-241547668D01*
X139494897Y-241547659D01*
X139582681Y-241335730D01*
X139642057Y-241114137D01*
X139671998Y-240886710D01*
X139672000Y-240886694D01*
X139672000Y-239772000D01*
X138422000Y-239772000D01*
X138422000Y-239272000D01*
X139672000Y-239272000D01*
X139672000Y-238157305D01*
X139671998Y-238157289D01*
X139642057Y-237929862D01*
X139582681Y-237708269D01*
X139494897Y-237496340D01*
X139494893Y-237496331D01*
X139380190Y-237297661D01*
X139240544Y-237115670D01*
X139240538Y-237115663D01*
X139078336Y-236953461D01*
X139078329Y-236953455D01*
X138896338Y-236813809D01*
X138697668Y-236699106D01*
X138697659Y-236699102D01*
X138485730Y-236611318D01*
X138264137Y-236551942D01*
X138172000Y-236539811D01*
X138172000Y-237838988D01*
X138114993Y-237806075D01*
X137987826Y-237772000D01*
X137856174Y-237772000D01*
X137729007Y-237806075D01*
X137672000Y-237838988D01*
X137672000Y-236539811D01*
X137671999Y-236539811D01*
X137579862Y-236551942D01*
X137358269Y-236611318D01*
X137146340Y-236699102D01*
X137146331Y-236699106D01*
X136947661Y-236813809D01*
X136765670Y-236953455D01*
X136765663Y-236953461D01*
X136603461Y-237115663D01*
X136603455Y-237115670D01*
X136463809Y-237297661D01*
X136349106Y-237496331D01*
X136349102Y-237496340D01*
X136261318Y-237708269D01*
X136201942Y-237929862D01*
X136172001Y-238157289D01*
X136172000Y-238157305D01*
X133529798Y-238157305D01*
X133507474Y-238016361D01*
X133467942Y-237894693D01*
X133428411Y-237773027D01*
X133428410Y-237773024D01*
X133388185Y-237694080D01*
X133312252Y-237545053D01*
X133276854Y-237496331D01*
X133161867Y-237338064D01*
X133161863Y-237338059D01*
X132980940Y-237157136D01*
X132980935Y-237157132D01*
X132773950Y-237006750D01*
X132773949Y-237006749D01*
X132773947Y-237006748D01*
X132669354Y-236953455D01*
X132545975Y-236890589D01*
X132545972Y-236890588D01*
X132302640Y-236811526D01*
X132176284Y-236791513D01*
X132049930Y-236771500D01*
X131794070Y-236771500D01*
X131709833Y-236784842D01*
X131541359Y-236811526D01*
X131298027Y-236890588D01*
X131298024Y-236890589D01*
X131070049Y-237006750D01*
X130863064Y-237157132D01*
X130863059Y-237157136D01*
X130682136Y-237338059D01*
X130682132Y-237338064D01*
X130531750Y-237545049D01*
X130415589Y-237773024D01*
X130415588Y-237773027D01*
X130336526Y-238016359D01*
X130296500Y-238269070D01*
X128270500Y-238269070D01*
X128270500Y-231598000D01*
X128290185Y-231530961D01*
X128342989Y-231485206D01*
X128394500Y-231474000D01*
X128528000Y-231474000D01*
X128528000Y-230557012D01*
X128585007Y-230589925D01*
X128712174Y-230624000D01*
X128843826Y-230624000D01*
X128970993Y-230589925D01*
X129028000Y-230557012D01*
X129028000Y-231474000D01*
X129675828Y-231474000D01*
X129675844Y-231473999D01*
X129735372Y-231467598D01*
X129735379Y-231467596D01*
X129870086Y-231417354D01*
X129870093Y-231417350D01*
X129985187Y-231331190D01*
X129985190Y-231331187D01*
X130071350Y-231216093D01*
X130071354Y-231216086D01*
X130121596Y-231081379D01*
X130121598Y-231081372D01*
X130127999Y-231021844D01*
X130128000Y-231021827D01*
X130128000Y-230374000D01*
X129211012Y-230374000D01*
X129243925Y-230316993D01*
X129278000Y-230189826D01*
X129278000Y-230058174D01*
X129243925Y-229931007D01*
X129211012Y-229874000D01*
X130128000Y-229874000D01*
X130128000Y-229226172D01*
X130127999Y-229226155D01*
X130121598Y-229166627D01*
X130121596Y-229166620D01*
X130068254Y-229023601D01*
X130071122Y-229022531D01*
X130059515Y-228969136D01*
X130083942Y-228903675D01*
X130139881Y-228861812D01*
X130183198Y-228854000D01*
X131194000Y-228854000D01*
X131261039Y-228873685D01*
G37*
G04 #@! TD.AperFunction*
M02*
