G04 #@! TF.GenerationSoftware,KiCad,Pcbnew,8.0.3*
G04 #@! TF.CreationDate,2024-07-11T15:41:43-04:00*
G04 #@! TF.ProjectId,_HW_Mini-Scoreboard,5f48575f-4d69-46e6-992d-53636f726562,v1.0*
G04 #@! TF.SameCoordinates,Original*
G04 #@! TF.FileFunction,Paste,Top*
G04 #@! TF.FilePolarity,Positive*
%FSLAX46Y46*%
G04 Gerber Fmt 4.6, Leading zero omitted, Abs format (unit mm)*
G04 Created by KiCad (PCBNEW 8.0.3) date 2024-07-11 15:41:43*
%MOMM*%
%LPD*%
G01*
G04 APERTURE LIST*
G04 Aperture macros list*
%AMRoundRect*
0 Rectangle with rounded corners*
0 $1 Rounding radius*
0 $2 $3 $4 $5 $6 $7 $8 $9 X,Y pos of 4 corners*
0 Add a 4 corners polygon primitive as box body*
4,1,4,$2,$3,$4,$5,$6,$7,$8,$9,$2,$3,0*
0 Add four circle primitives for the rounded corners*
1,1,$1+$1,$2,$3*
1,1,$1+$1,$4,$5*
1,1,$1+$1,$6,$7*
1,1,$1+$1,$8,$9*
0 Add four rect primitives between the rounded corners*
20,1,$1+$1,$2,$3,$4,$5,0*
20,1,$1+$1,$4,$5,$6,$7,0*
20,1,$1+$1,$6,$7,$8,$9,0*
20,1,$1+$1,$8,$9,$2,$3,0*%
G04 Aperture macros list end*
%ADD10RoundRect,0.243750X-0.243750X-0.456250X0.243750X-0.456250X0.243750X0.456250X-0.243750X0.456250X0*%
%ADD11RoundRect,0.243750X-0.456250X0.243750X-0.456250X-0.243750X0.456250X-0.243750X0.456250X0.243750X0*%
%ADD12RoundRect,0.200000X-0.200000X-0.275000X0.200000X-0.275000X0.200000X0.275000X-0.200000X0.275000X0*%
%ADD13RoundRect,0.150000X-0.825000X-0.150000X0.825000X-0.150000X0.825000X0.150000X-0.825000X0.150000X0*%
%ADD14RoundRect,0.250000X0.262500X0.450000X-0.262500X0.450000X-0.262500X-0.450000X0.262500X-0.450000X0*%
%ADD15RoundRect,0.225000X-0.225000X-0.250000X0.225000X-0.250000X0.225000X0.250000X-0.225000X0.250000X0*%
G04 APERTURE END LIST*
D10*
X209864000Y-228854000D03*
X211739000Y-228854000D03*
D11*
X148844000Y-193137002D03*
X148844000Y-195012004D03*
D10*
X202516500Y-160098499D03*
X204391500Y-160098499D03*
X183212500Y-191770000D03*
X185087500Y-191770000D03*
D11*
X169164000Y-165275501D03*
X169164000Y-167150503D03*
X190246000Y-196850000D03*
X190246000Y-198725002D03*
D10*
X209864000Y-231140000D03*
X211739000Y-231140000D03*
D11*
X151638000Y-161622499D03*
X151638000Y-163497501D03*
X217073000Y-225376499D03*
X217073000Y-227251501D03*
D10*
X147906500Y-169672000D03*
X149781500Y-169672000D03*
X202516500Y-169750499D03*
X204391500Y-169750499D03*
X158320500Y-209042000D03*
X160195500Y-209042000D03*
D11*
X217073000Y-221820499D03*
X217073000Y-223695501D03*
D10*
X165940500Y-236220000D03*
X167815500Y-236220000D03*
D12*
X182817000Y-240792000D03*
X184467000Y-240792000D03*
D11*
X190246000Y-193294000D03*
X190246000Y-195169002D03*
D12*
X182752000Y-242697000D03*
X184402000Y-242697000D03*
D10*
X171020500Y-173579002D03*
X172895500Y-173579002D03*
X202008500Y-183404000D03*
X203883500Y-183404000D03*
D13*
X188025000Y-238887000D03*
X188025000Y-240157000D03*
X188025000Y-241427000D03*
X188025000Y-242697000D03*
X192975000Y-242697000D03*
X192975000Y-241427000D03*
X192975000Y-240157000D03*
X192975000Y-238887000D03*
D12*
X202883000Y-240792000D03*
X204533000Y-240792000D03*
D10*
X141302500Y-197866000D03*
X143177500Y-197866000D03*
D11*
X154002500Y-225200998D03*
X154002500Y-227076000D03*
D10*
X192943000Y-217932000D03*
X194818000Y-217932000D03*
X150622000Y-183485002D03*
X152497000Y-183485002D03*
D12*
X202883000Y-242570000D03*
X204533000Y-242570000D03*
D10*
X217835000Y-177800000D03*
X219710000Y-177800000D03*
D11*
X133682500Y-210976998D03*
X133682500Y-212852000D03*
D10*
X132334000Y-182626000D03*
X134209000Y-182626000D03*
D11*
X196596000Y-196596000D03*
X196596000Y-198471002D03*
D10*
X180164500Y-173560499D03*
X182039500Y-173560499D03*
D11*
X212676500Y-174576499D03*
X212676500Y-176451501D03*
X196596000Y-184912000D03*
X196596000Y-186787002D03*
X167972500Y-225298000D03*
X167972500Y-227173002D03*
X187452000Y-221644998D03*
X187452000Y-223520000D03*
D10*
X193548000Y-203200000D03*
X195423002Y-203200000D03*
D11*
X178308000Y-165432499D03*
X178308000Y-167307501D03*
X145112500Y-214630000D03*
X145112500Y-216505002D03*
D10*
X181356000Y-203200000D03*
X183231002Y-203200000D03*
X137903500Y-217932000D03*
X139778500Y-217932000D03*
X141459500Y-217932000D03*
X143334500Y-217932000D03*
X132412500Y-197866000D03*
X134287500Y-197866000D03*
D11*
X157734000Y-184912000D03*
X157734000Y-186787002D03*
D10*
X171020500Y-163673002D03*
X172895500Y-163673002D03*
X202516500Y-164924499D03*
X204391500Y-164924499D03*
D11*
X156288500Y-225200998D03*
X156288500Y-227076000D03*
X165686500Y-210976998D03*
X165686500Y-212852000D03*
X171704000Y-196752998D03*
X171704000Y-198628000D03*
D12*
X162600500Y-238887000D03*
X164250500Y-238887000D03*
D11*
X162814000Y-196596000D03*
X162814000Y-198471002D03*
X205740000Y-196596000D03*
X205740000Y-198471002D03*
D10*
X213341500Y-217932000D03*
X215216500Y-217932000D03*
D11*
X154940000Y-166194499D03*
X154940000Y-168069501D03*
X185166000Y-225200998D03*
X185166000Y-227076000D03*
X176530000Y-187608998D03*
X176530000Y-189484000D03*
D10*
X154099500Y-183493002D03*
X155974500Y-183493002D03*
X141459500Y-206756000D03*
X143334500Y-206756000D03*
X141381000Y-231140000D03*
X143256000Y-231140000D03*
X156796500Y-164846000D03*
X158671500Y-164846000D03*
D11*
X196596000Y-221742000D03*
X196596000Y-223617002D03*
X200660000Y-166272998D03*
X200660000Y-168148000D03*
X196596000Y-210820000D03*
X196596000Y-212695002D03*
X198882000Y-221742000D03*
X198882000Y-223617002D03*
X156288500Y-221742000D03*
X156288500Y-223617002D03*
D10*
X189290000Y-217908000D03*
X191165000Y-217908000D03*
D11*
X144955500Y-179148499D03*
X144955500Y-181023501D03*
X162814000Y-184912000D03*
X162814000Y-186787002D03*
D10*
X167972500Y-199898000D03*
X169847500Y-199898000D03*
D11*
X130477500Y-174576499D03*
X130477500Y-176451501D03*
D10*
X151208500Y-236220000D03*
X153083500Y-236220000D03*
D11*
X196596000Y-225298000D03*
X196596000Y-227173002D03*
D10*
X192943000Y-206756000D03*
X194818000Y-206756000D03*
X192943000Y-209042000D03*
X194818000Y-209042000D03*
D14*
X176934500Y-242189000D03*
X175109500Y-242189000D03*
D10*
X186593000Y-200152000D03*
X188468000Y-200152000D03*
D11*
X157734000Y-196693002D03*
X157734000Y-198568004D03*
D10*
X183134000Y-183388000D03*
X185009000Y-183388000D03*
X158574499Y-203200000D03*
X160449501Y-203200000D03*
X168051000Y-191691501D03*
X169926000Y-191691501D03*
X150271000Y-199995002D03*
X152146000Y-199995002D03*
D11*
X139367500Y-179148499D03*
X139367500Y-181023501D03*
D10*
X213420000Y-231140000D03*
X215295000Y-231140000D03*
D11*
X200660000Y-161700998D03*
X200660000Y-163576000D03*
X176530000Y-194896499D03*
X176530000Y-196771501D03*
D10*
X156796500Y-160020000D03*
X158671500Y-160020000D03*
X137903500Y-209026000D03*
X139778500Y-209026000D03*
X219534500Y-167640000D03*
X221409500Y-167640000D03*
D11*
X207088500Y-179148499D03*
X207088500Y-181023501D03*
X135968500Y-214532998D03*
X135968500Y-216408000D03*
X145112500Y-221644998D03*
X145112500Y-223520000D03*
X154002500Y-221742000D03*
X154002500Y-223617002D03*
D10*
X147906500Y-164846000D03*
X149781500Y-164846000D03*
X213341500Y-220218000D03*
X215216500Y-220218000D03*
D11*
X215978500Y-179148499D03*
X215978500Y-181023501D03*
D10*
X208945000Y-172974000D03*
X210820000Y-172974000D03*
X161876500Y-220218000D03*
X163751500Y-220218000D03*
X215978500Y-194564000D03*
X217853500Y-194564000D03*
D11*
X185166000Y-214532998D03*
X185166000Y-216408000D03*
D10*
X186690000Y-183388000D03*
X188565000Y-183388000D03*
D11*
X176530000Y-223598499D03*
X176530000Y-225473501D03*
X160528000Y-166194499D03*
X160528000Y-168069501D03*
D10*
X209785500Y-217932000D03*
X211660500Y-217932000D03*
D11*
X205643000Y-214278998D03*
X205643000Y-216154000D03*
D10*
X141381000Y-228854000D03*
X143256000Y-228854000D03*
D11*
X147398500Y-221644998D03*
X147398500Y-223520000D03*
D10*
X138762500Y-162560000D03*
X140637500Y-162560000D03*
D11*
X219359000Y-210820000D03*
X219359000Y-212695002D03*
X167972500Y-214630000D03*
X167972500Y-216505002D03*
X205740000Y-193040000D03*
X205740000Y-194915002D03*
X154002500Y-211074000D03*
X154002500Y-212949002D03*
D10*
X219710000Y-197866000D03*
X221585000Y-197866000D03*
D15*
X175096500Y-238887000D03*
X176646500Y-238887000D03*
D11*
X212676500Y-179148499D03*
X212676500Y-181023501D03*
X181356000Y-184912000D03*
X181356000Y-186787002D03*
X198882000Y-225298000D03*
X198882000Y-227173002D03*
D12*
X182817000Y-239014000D03*
X184467000Y-239014000D03*
D10*
X180164500Y-163576000D03*
X182039500Y-163576000D03*
D13*
X208345000Y-238887000D03*
X208345000Y-240157000D03*
X208345000Y-241427000D03*
X208345000Y-242697000D03*
X213295000Y-242697000D03*
X213295000Y-241427000D03*
X213295000Y-240157000D03*
X213295000Y-238887000D03*
D10*
X200484500Y-179832000D03*
X202359500Y-179832000D03*
X164495000Y-199898000D03*
X166370000Y-199898000D03*
X158320500Y-220218000D03*
X160195500Y-220218000D03*
X132412500Y-167386000D03*
X134287500Y-167386000D03*
D11*
X181356000Y-193294000D03*
X181356000Y-195169002D03*
X198882000Y-214454499D03*
X198882000Y-216329501D03*
X196596000Y-193040000D03*
X196596000Y-194915002D03*
X130477500Y-179148499D03*
X130477500Y-181023501D03*
X205643000Y-225376499D03*
X205643000Y-227251501D03*
D10*
X185166000Y-236220000D03*
X187041000Y-236220000D03*
X198531000Y-191770000D03*
X200406000Y-191770000D03*
D11*
X207929000Y-225376499D03*
X207929000Y-227251501D03*
X154940000Y-161622499D03*
X154940000Y-163497501D03*
D10*
X141459500Y-209026000D03*
X143334500Y-209026000D03*
D11*
X221566500Y-179148499D03*
X221566500Y-181023501D03*
D10*
X197007000Y-236220000D03*
X198882000Y-236220000D03*
X200406000Y-203200000D03*
X202281002Y-203200000D03*
D13*
X167235500Y-238887000D03*
X167235500Y-240157000D03*
X167235500Y-241427000D03*
X167235500Y-242697000D03*
X172185500Y-242697000D03*
X172185500Y-241427000D03*
X172185500Y-240157000D03*
X172185500Y-238887000D03*
D10*
X171020500Y-168753002D03*
X172895500Y-168753002D03*
X137825000Y-231140000D03*
X139700000Y-231140000D03*
X161876500Y-209042000D03*
X163751500Y-209042000D03*
X136984500Y-194056000D03*
X138859500Y-194056000D03*
D11*
X162814000Y-193040000D03*
X162814000Y-194915002D03*
D10*
X168069500Y-183563501D03*
X169944500Y-183563501D03*
X147906500Y-160020000D03*
X149781500Y-160020000D03*
D11*
X133685206Y-221560894D03*
X133685206Y-223435896D03*
X196596000Y-214454499D03*
X196596000Y-216329501D03*
X139367500Y-174576499D03*
X139367500Y-176451501D03*
X148844000Y-196693002D03*
X148844000Y-198568004D03*
X196596000Y-188467999D03*
X196596000Y-190343001D03*
X207088500Y-174576499D03*
X207088500Y-176451501D03*
D10*
X137903500Y-220218000D03*
X139778500Y-220218000D03*
D15*
X196596000Y-240792000D03*
X198146000Y-240792000D03*
D11*
X145112500Y-211074000D03*
X145112500Y-212949002D03*
X165686500Y-214630000D03*
X165686500Y-216505002D03*
D10*
X151208500Y-179832000D03*
X153083500Y-179832000D03*
X189308500Y-206756000D03*
X191183500Y-206756000D03*
D11*
X133682500Y-225122499D03*
X133682500Y-226997501D03*
X144955500Y-174576499D03*
X144955500Y-176451501D03*
X217073000Y-214376000D03*
X217073000Y-216251002D03*
D10*
X141223999Y-172974000D03*
X143099001Y-172974000D03*
D15*
X196596000Y-239014000D03*
X198146000Y-239014000D03*
D11*
X136065500Y-174576499D03*
X136065500Y-176451501D03*
X205740000Y-184990499D03*
X205740000Y-186865501D03*
D10*
X186593000Y-191770000D03*
X188468000Y-191770000D03*
X193626500Y-164924499D03*
X195501500Y-164924499D03*
X158320500Y-217932000D03*
X160195500Y-217932000D03*
D11*
X217073000Y-210820000D03*
X217073000Y-212695002D03*
D10*
X158320500Y-228854000D03*
X160195500Y-228854000D03*
X198452500Y-183388000D03*
X200327500Y-183388000D03*
D12*
X141409000Y-242890000D03*
X143059000Y-242890000D03*
D11*
X171704000Y-188546499D03*
X171704000Y-190421501D03*
X207929000Y-210722998D03*
X207929000Y-212598000D03*
X151638000Y-166194499D03*
X151638000Y-168069501D03*
D10*
X156796500Y-169672000D03*
X158671500Y-169672000D03*
D11*
X207929000Y-214278998D03*
X207929000Y-216154000D03*
D10*
X161876500Y-228870000D03*
X163751500Y-228870000D03*
D11*
X146050000Y-161622499D03*
X146050000Y-163497501D03*
D10*
X211660500Y-162560000D03*
X213535500Y-162560000D03*
X215978500Y-191262000D03*
X217853500Y-191262000D03*
D11*
X206248000Y-166272998D03*
X206248000Y-168148000D03*
X219359000Y-221820499D03*
X219359000Y-223695501D03*
X205643000Y-210722998D03*
X205643000Y-212598000D03*
X176530000Y-212930499D03*
X176530000Y-214805501D03*
X215978500Y-174576499D03*
X215978500Y-176451501D03*
D10*
X137825000Y-228854000D03*
X139700000Y-228854000D03*
X192943000Y-228854000D03*
X194818000Y-228854000D03*
X136984500Y-191008000D03*
X138859500Y-191008000D03*
D11*
X185166000Y-210976998D03*
X185166000Y-212852000D03*
D10*
X217835000Y-172974000D03*
X219710000Y-172974000D03*
X193626500Y-156210000D03*
X195501500Y-156210000D03*
X161876500Y-231140000D03*
X163751500Y-231140000D03*
D11*
X160528000Y-161622499D03*
X160528000Y-163497501D03*
D10*
X132333999Y-172974000D03*
X134209001Y-172974000D03*
X211739000Y-197866000D03*
X213614000Y-197866000D03*
D11*
X197358000Y-161700998D03*
X197358000Y-163576000D03*
D10*
X181356000Y-179832000D03*
X183231000Y-179832000D03*
D11*
X133682500Y-214532998D03*
X133682500Y-216408000D03*
X178308000Y-170082998D03*
X178308000Y-171958000D03*
D10*
X141224000Y-182626000D03*
X143099000Y-182626000D03*
D11*
X135968500Y-225122499D03*
X135968500Y-226997501D03*
D10*
X132334000Y-177800000D03*
X134209000Y-177800000D03*
D11*
X171704000Y-184990499D03*
X171704000Y-186865501D03*
X135973594Y-221560894D03*
X135973594Y-223435896D03*
X148844000Y-184755002D03*
X148844000Y-186630004D03*
D10*
X219534500Y-162560000D03*
X221409500Y-162560000D03*
X208358500Y-236220000D03*
X210233500Y-236220000D03*
X183134000Y-200152000D03*
X185009000Y-200152000D03*
D14*
X219202000Y-242570000D03*
X217377000Y-242570000D03*
D10*
X192943000Y-220194000D03*
X194818000Y-220194000D03*
X164592000Y-183563501D03*
X166467000Y-183563501D03*
D11*
X205643000Y-221820499D03*
X205643000Y-223695501D03*
D10*
X161876500Y-206756000D03*
X163751500Y-206756000D03*
X189387000Y-228854000D03*
X191262000Y-228854000D03*
D14*
X157687500Y-242382000D03*
X155862500Y-242382000D03*
D10*
X158320500Y-206756000D03*
X160195500Y-206756000D03*
D11*
X147398500Y-211074000D03*
X147398500Y-212949002D03*
X157734000Y-188468000D03*
X157734000Y-190343002D03*
X136065500Y-179148499D03*
X136065500Y-181023501D03*
X221566500Y-174576499D03*
X221566500Y-176451501D03*
X148844000Y-188311002D03*
X148844000Y-190186004D03*
D10*
X192943000Y-231140000D03*
X194818000Y-231140000D03*
D11*
X190246000Y-184912000D03*
X190246000Y-186787002D03*
D10*
X209707000Y-209042000D03*
X211582000Y-209042000D03*
D11*
X156288500Y-211074000D03*
X156288500Y-212949002D03*
X207929000Y-221820499D03*
X207929000Y-223695501D03*
D12*
X141409000Y-239334000D03*
X143059000Y-239334000D03*
D11*
X181356000Y-188468000D03*
X181356000Y-190343002D03*
X154002500Y-214708499D03*
X154002500Y-216583501D03*
D10*
X141302500Y-188214000D03*
X143177500Y-188214000D03*
D11*
X169164000Y-170101501D03*
X169164000Y-171976503D03*
D10*
X202008500Y-199898000D03*
X203883500Y-199898000D03*
D11*
X185166000Y-221644998D03*
X185166000Y-223520000D03*
X174752000Y-165354000D03*
X174752000Y-167229002D03*
D10*
X153827000Y-199995002D03*
X155702000Y-199995002D03*
D11*
X135968500Y-210976998D03*
X135968500Y-212852000D03*
D10*
X164670500Y-191691501D03*
X166545500Y-191691501D03*
X169828998Y-203200000D03*
X171704000Y-203200000D03*
D11*
X190246000Y-188468000D03*
X190246000Y-190343002D03*
D15*
X217424000Y-240538000D03*
X218974000Y-240538000D03*
D10*
X211660500Y-167640000D03*
X213535500Y-167640000D03*
D11*
X191770000Y-166272998D03*
X191770000Y-168148000D03*
D10*
X213360000Y-209042000D03*
X215235000Y-209042000D03*
D11*
X165686500Y-221742000D03*
X165686500Y-223617002D03*
D10*
X137903500Y-206740000D03*
X139778500Y-206740000D03*
D11*
X219359000Y-225400499D03*
X219359000Y-227275501D03*
X183896000Y-170082998D03*
X183896000Y-171958000D03*
X145112500Y-225200998D03*
X145112500Y-227076000D03*
D15*
X155862500Y-240604000D03*
X157412500Y-240604000D03*
D10*
X219613000Y-188214000D03*
X221488000Y-188214000D03*
X151130000Y-203200000D03*
X153005002Y-203200000D03*
D11*
X181356000Y-196850000D03*
X181356000Y-198725002D03*
D10*
X208945000Y-177800000D03*
X210820000Y-177800000D03*
X198452500Y-199898000D03*
X200327500Y-199898000D03*
X189387000Y-231140000D03*
X191262000Y-231140000D03*
D15*
X217411000Y-238760000D03*
X218961000Y-238760000D03*
D12*
X141409000Y-241112000D03*
X143059000Y-241112000D03*
D14*
X198421000Y-242570000D03*
X196596000Y-242570000D03*
D11*
X156288500Y-214708499D03*
X156288500Y-216583501D03*
D10*
X193626500Y-169750499D03*
X195501500Y-169750499D03*
D11*
X183896000Y-165432499D03*
X183896000Y-167307501D03*
D10*
X193626500Y-160098499D03*
X195501500Y-160098499D03*
D11*
X171704000Y-193196998D03*
X171704000Y-195072000D03*
D10*
X161798000Y-217956000D03*
X163673000Y-217956000D03*
X219534500Y-236220000D03*
X221409500Y-236220000D03*
D11*
X165686500Y-225314000D03*
X165686500Y-227189002D03*
D10*
X132412500Y-188214000D03*
X134287500Y-188214000D03*
D12*
X162600500Y-242697000D03*
X164250500Y-242697000D03*
D11*
X157734000Y-193137002D03*
X157734000Y-195012004D03*
X167972500Y-210976998D03*
X167972500Y-212852000D03*
X187452000Y-225200998D03*
X187452000Y-227076000D03*
X197358000Y-166272998D03*
X197358000Y-168148000D03*
X147398500Y-225200998D03*
X147398500Y-227076000D03*
D10*
X154081000Y-191621002D03*
X155956000Y-191621002D03*
D11*
X146050000Y-166194499D03*
X146050000Y-168069501D03*
D10*
X189290000Y-220194000D03*
X191165000Y-220194000D03*
X141459500Y-220218000D03*
X143334500Y-220218000D03*
D11*
X147398500Y-214654000D03*
X147398500Y-216529002D03*
D12*
X162600500Y-240792000D03*
X164250500Y-240792000D03*
D10*
X209707000Y-206756000D03*
X211582000Y-206756000D03*
D11*
X167972500Y-221742000D03*
X167972500Y-223617002D03*
X205740000Y-188546499D03*
X205740000Y-190421501D03*
D10*
X158320500Y-231140000D03*
X160195500Y-231140000D03*
D15*
X155849500Y-239080000D03*
X157399500Y-239080000D03*
D12*
X202883000Y-239014000D03*
X204533000Y-239014000D03*
D11*
X162814000Y-188389501D03*
X162814000Y-190264503D03*
X174752000Y-170101501D03*
X174752000Y-171976503D03*
D10*
X208945000Y-182626000D03*
X210820000Y-182626000D03*
D11*
X187452000Y-214532998D03*
X187452000Y-216408000D03*
D10*
X156718000Y-156210000D03*
X158593000Y-156210000D03*
X141224000Y-177800000D03*
X143099000Y-177800000D03*
X147828000Y-156210000D03*
X149703000Y-156210000D03*
D11*
X206248000Y-161700998D03*
X206248000Y-163576000D03*
D10*
X132412500Y-162560000D03*
X134287500Y-162560000D03*
X189230000Y-209042000D03*
X191105000Y-209042000D03*
X158574499Y-179832000D03*
X160449501Y-179832000D03*
X169829000Y-179832000D03*
X171704000Y-179832000D03*
D15*
X175096500Y-240411000D03*
X176646500Y-240411000D03*
D11*
X198882000Y-210898499D03*
X198882000Y-212773501D03*
X191770000Y-161700998D03*
X191770000Y-163576000D03*
D10*
X180164500Y-168734499D03*
X182039500Y-168734499D03*
X211739000Y-188214000D03*
X213614000Y-188214000D03*
D13*
X146877000Y-239141000D03*
X146877000Y-240411000D03*
X146877000Y-241681000D03*
X146877000Y-242951000D03*
X151827000Y-242951000D03*
X151827000Y-241681000D03*
X151827000Y-240411000D03*
X151827000Y-239141000D03*
D10*
X193626500Y-179832000D03*
X195501500Y-179832000D03*
D11*
X219359000Y-214376000D03*
X219359000Y-216251002D03*
D10*
X213360000Y-206772000D03*
X215235000Y-206772000D03*
D11*
X187452000Y-210976998D03*
X187452000Y-212852000D03*
D10*
X217835000Y-182626000D03*
X219710000Y-182626000D03*
X138762500Y-167386000D03*
X140637500Y-167386000D03*
X158828500Y-236220000D03*
X160703500Y-236220000D03*
X202008500Y-191770000D03*
X203883500Y-191770000D03*
X143256000Y-236220000D03*
X145131000Y-236220000D03*
X202516500Y-156210000D03*
X204391500Y-156210000D03*
X150525000Y-191613002D03*
X152400000Y-191613002D03*
X209785500Y-220218000D03*
X211660500Y-220218000D03*
X213420000Y-228854000D03*
X215295000Y-228854000D03*
M02*
