G04 #@! TF.GenerationSoftware,KiCad,Pcbnew,8.0.3*
G04 #@! TF.CreationDate,2024-07-11T15:41:43-04:00*
G04 #@! TF.ProjectId,_HW_Mini-Scoreboard,5f48575f-4d69-46e6-992d-53636f726562,v1.0*
G04 #@! TF.SameCoordinates,Original*
G04 #@! TF.FileFunction,Legend,Top*
G04 #@! TF.FilePolarity,Positive*
%FSLAX46Y46*%
G04 Gerber Fmt 4.6, Leading zero omitted, Abs format (unit mm)*
G04 Created by KiCad (PCBNEW 8.0.3) date 2024-07-11 15:41:43*
%MOMM*%
%LPD*%
G01*
G04 APERTURE LIST*
G04 Aperture macros list*
%AMRoundRect*
0 Rectangle with rounded corners*
0 $1 Rounding radius*
0 $2 $3 $4 $5 $6 $7 $8 $9 X,Y pos of 4 corners*
0 Add a 4 corners polygon primitive as box body*
4,1,4,$2,$3,$4,$5,$6,$7,$8,$9,$2,$3,0*
0 Add four circle primitives for the rounded corners*
1,1,$1+$1,$2,$3*
1,1,$1+$1,$4,$5*
1,1,$1+$1,$6,$7*
1,1,$1+$1,$8,$9*
0 Add four rect primitives between the rounded corners*
20,1,$1+$1,$2,$3,$4,$5,0*
20,1,$1+$1,$4,$5,$6,$7,0*
20,1,$1+$1,$6,$7,$8,$9,0*
20,1,$1+$1,$8,$9,$2,$3,0*%
G04 Aperture macros list end*
%ADD10C,0.508000*%
%ADD11C,0.152400*%
%ADD12C,0.100000*%
%ADD13C,0.120000*%
%ADD14C,0.000000*%
%ADD15RoundRect,0.243750X-0.243750X-0.456250X0.243750X-0.456250X0.243750X0.456250X-0.243750X0.456250X0*%
%ADD16RoundRect,0.243750X-0.456250X0.243750X-0.456250X-0.243750X0.456250X-0.243750X0.456250X0.243750X0*%
%ADD17RoundRect,0.200000X-0.200000X-0.275000X0.200000X-0.275000X0.200000X0.275000X-0.200000X0.275000X0*%
%ADD18RoundRect,0.150000X-0.825000X-0.150000X0.825000X-0.150000X0.825000X0.150000X-0.825000X0.150000X0*%
%ADD19RoundRect,0.250000X0.262500X0.450000X-0.262500X0.450000X-0.262500X-0.450000X0.262500X-0.450000X0*%
%ADD20R,1.700000X1.700000*%
%ADD21O,1.700000X1.700000*%
%ADD22RoundRect,0.225000X-0.225000X-0.250000X0.225000X-0.250000X0.225000X0.250000X-0.225000X0.250000X0*%
%ADD23C,3.600000*%
%ADD24C,5.600000*%
%ADD25C,0.508000*%
%ADD26O,2.704000X5.204000*%
%ADD27O,2.454000X4.704000*%
%ADD28O,4.704000X2.454000*%
G04 APERTURE END LIST*
D10*
X131826000Y-204851000D02*
X169672000Y-204851000D01*
X169672000Y-232410000D01*
X131826000Y-232410000D01*
X131826000Y-204851000D01*
X144272000Y-158496000D02*
X149860000Y-158496000D01*
X151892000Y-158496000D02*
X157480000Y-158496000D01*
X159512000Y-158496000D02*
X162306000Y-158496000D01*
X162306000Y-158496000D02*
X162306000Y-164084000D01*
X162306000Y-166116000D02*
X162306000Y-171450000D01*
X162306000Y-171450000D02*
X156718000Y-171450000D01*
X154686000Y-171450000D02*
X149098000Y-171450000D01*
X147066000Y-171450000D02*
X144272000Y-171450000D01*
X144272000Y-171450000D02*
X144272000Y-165862000D01*
X144272000Y-163830000D02*
X144272000Y-158496000D01*
X165862000Y-160020000D02*
X171450000Y-160020000D01*
X173482000Y-160020000D02*
X173482000Y-160020000D01*
X175514000Y-160020000D02*
X181102000Y-160020000D01*
X183134000Y-160020000D02*
X183134000Y-160020000D01*
X185166000Y-160020000D02*
X186182000Y-160020000D01*
X186182000Y-160020000D02*
X186182000Y-165608000D01*
X186182000Y-167640000D02*
X186182000Y-167640000D01*
X186182000Y-169672000D02*
X186182000Y-175260000D01*
X186182000Y-176276000D02*
X180594000Y-176276000D01*
X178562000Y-176276000D02*
X178562000Y-176276000D01*
X176530000Y-176276000D02*
X170942000Y-176276000D01*
X168910000Y-176276000D02*
X168910000Y-176276000D01*
X166878000Y-176276000D02*
X165862000Y-176276000D01*
X165862000Y-176276000D02*
X165862000Y-170688000D01*
X165862000Y-168656000D02*
X165862000Y-168656000D01*
X165862000Y-166624000D02*
X165862000Y-161036000D01*
X128524000Y-171450000D02*
X134112000Y-171450000D01*
X136144000Y-171450000D02*
X141732000Y-171450000D01*
X143764000Y-171450000D02*
X146304000Y-171450000D01*
X146304000Y-171450000D02*
X146304000Y-177038000D01*
X146304000Y-179070000D02*
X146304000Y-184150000D01*
X146304000Y-184150000D02*
X140716000Y-184150000D01*
X138684000Y-184150000D02*
X133096000Y-184150000D01*
X131064000Y-184150000D02*
X128524000Y-184150000D01*
X128524000Y-184150000D02*
X128524000Y-178562000D01*
X128524000Y-176530000D02*
X128524000Y-171450000D01*
X205740000Y-170434000D02*
X211328000Y-170434000D01*
X213360000Y-170434000D02*
X218948000Y-170434000D01*
X220980000Y-170434000D02*
X223266000Y-170434000D01*
X223266000Y-170434000D02*
X223266000Y-176022000D01*
X223266000Y-178054000D02*
X223266000Y-183642000D01*
X223266000Y-183896000D02*
X217678000Y-183896000D01*
X215646000Y-183896000D02*
X210058000Y-183896000D01*
X208026000Y-183896000D02*
X205740000Y-183896000D01*
X205740000Y-183896000D02*
X205740000Y-178308000D01*
X205740000Y-176276000D02*
X205740000Y-170688000D01*
X189230000Y-158496000D02*
X194818000Y-158496000D01*
X196850000Y-158496000D02*
X202438000Y-158496000D01*
X204470000Y-158496000D02*
X208197500Y-158496000D01*
X208197500Y-158496000D02*
X208197500Y-164084000D01*
X208197500Y-166116000D02*
X208197500Y-171506000D01*
X208197500Y-171506000D02*
X202609500Y-171506000D01*
X200577500Y-171506000D02*
X194989500Y-171506000D01*
X192957500Y-171506000D02*
X189230000Y-171506000D01*
X189230000Y-171506000D02*
X189230000Y-165918000D01*
X189230000Y-163886000D02*
X189230000Y-158496000D01*
X182118000Y-204851000D02*
X221488000Y-204851000D01*
X221488000Y-232410000D01*
X182118000Y-232410000D01*
X182118000Y-204851000D01*
X147320000Y-181864000D02*
X152908000Y-181864000D01*
X154940000Y-181864000D02*
X154940000Y-181864000D01*
X156972000Y-181864000D02*
X162560000Y-181864000D01*
X164592000Y-181864000D02*
X164592000Y-181864000D01*
X166624000Y-181864000D02*
X172212000Y-181864000D01*
X174244000Y-181864000D02*
X174244000Y-181864000D01*
X176276000Y-181864000D02*
X181864000Y-181864000D01*
X183896000Y-181864000D02*
X183896000Y-181864000D01*
X185928000Y-181864000D02*
X191516000Y-181864000D01*
X193548000Y-181864000D02*
X193548000Y-181864000D01*
X195580000Y-181864000D02*
X201168000Y-181864000D01*
X203200000Y-181864000D02*
X203200000Y-181864000D01*
X205232000Y-181864000D02*
X207264000Y-181864000D01*
X207264000Y-181864000D02*
X207264000Y-187452000D01*
X207264000Y-189484000D02*
X207264000Y-189484000D01*
X207264000Y-191516000D02*
X207264000Y-197104000D01*
X207264000Y-199136000D02*
X207264000Y-199136000D01*
X207264000Y-201168000D02*
X207264000Y-201930000D01*
X207264000Y-201930000D02*
X201676000Y-201930000D01*
X199644000Y-201930000D02*
X199644000Y-201930000D01*
X197612000Y-201930000D02*
X192024000Y-201930000D01*
X189992000Y-201930000D02*
X189992000Y-201930000D01*
X187960000Y-201930000D02*
X182372000Y-201930000D01*
X180340000Y-201930000D02*
X180340000Y-201930000D01*
X178308000Y-201930000D02*
X172720000Y-201930000D01*
X170688000Y-201930000D02*
X170688000Y-201930000D01*
X168656000Y-201930000D02*
X163068000Y-201930000D01*
X161036000Y-201930000D02*
X161036000Y-201930000D01*
X159004000Y-201930000D02*
X153416000Y-201930000D01*
X151384000Y-201930000D02*
X151384000Y-201930000D01*
X149352000Y-201930000D02*
X147320000Y-201930000D01*
X147320000Y-201930000D02*
X147320000Y-196342000D01*
X147320000Y-194310000D02*
X147320000Y-194310000D01*
X147320000Y-192278000D02*
X147320000Y-186690000D01*
X147320000Y-184658000D02*
X147320000Y-184658000D01*
X147320000Y-182626000D02*
X147320000Y-181864000D01*
D11*
X140792072Y-244165601D02*
X140731596Y-244135363D01*
X140731596Y-244135363D02*
X140640882Y-244135363D01*
X140640882Y-244135363D02*
X140550167Y-244165601D01*
X140550167Y-244165601D02*
X140489691Y-244226077D01*
X140489691Y-244226077D02*
X140459453Y-244286553D01*
X140459453Y-244286553D02*
X140429215Y-244407505D01*
X140429215Y-244407505D02*
X140429215Y-244498220D01*
X140429215Y-244498220D02*
X140459453Y-244619172D01*
X140459453Y-244619172D02*
X140489691Y-244679648D01*
X140489691Y-244679648D02*
X140550167Y-244740125D01*
X140550167Y-244740125D02*
X140640882Y-244770363D01*
X140640882Y-244770363D02*
X140701358Y-244770363D01*
X140701358Y-244770363D02*
X140792072Y-244740125D01*
X140792072Y-244740125D02*
X140822310Y-244709886D01*
X140822310Y-244709886D02*
X140822310Y-244498220D01*
X140822310Y-244498220D02*
X140701358Y-244498220D01*
X141094453Y-244770363D02*
X141094453Y-244135363D01*
X141094453Y-244135363D02*
X141457310Y-244770363D01*
X141457310Y-244770363D02*
X141457310Y-244135363D01*
X141759691Y-244770363D02*
X141759691Y-244135363D01*
X141759691Y-244135363D02*
X141910881Y-244135363D01*
X141910881Y-244135363D02*
X142001596Y-244165601D01*
X142001596Y-244165601D02*
X142062072Y-244226077D01*
X142062072Y-244226077D02*
X142092310Y-244286553D01*
X142092310Y-244286553D02*
X142122548Y-244407505D01*
X142122548Y-244407505D02*
X142122548Y-244498220D01*
X142122548Y-244498220D02*
X142092310Y-244619172D01*
X142092310Y-244619172D02*
X142062072Y-244679648D01*
X142062072Y-244679648D02*
X142001596Y-244740125D01*
X142001596Y-244740125D02*
X141910881Y-244770363D01*
X141910881Y-244770363D02*
X141759691Y-244770363D01*
X143271597Y-244135363D02*
X143634454Y-244135363D01*
X143453025Y-244770363D02*
X143453025Y-244135363D01*
X143785645Y-244135363D02*
X144208978Y-244770363D01*
X144208978Y-244135363D02*
X143785645Y-244770363D01*
X146265170Y-244770363D02*
X146053503Y-244467982D01*
X145902313Y-244770363D02*
X145902313Y-244135363D01*
X145902313Y-244135363D02*
X146144218Y-244135363D01*
X146144218Y-244135363D02*
X146204694Y-244165601D01*
X146204694Y-244165601D02*
X146234932Y-244195839D01*
X146234932Y-244195839D02*
X146265170Y-244256315D01*
X146265170Y-244256315D02*
X146265170Y-244347029D01*
X146265170Y-244347029D02*
X146234932Y-244407505D01*
X146234932Y-244407505D02*
X146204694Y-244437744D01*
X146204694Y-244437744D02*
X146144218Y-244467982D01*
X146144218Y-244467982D02*
X145902313Y-244467982D01*
X146476837Y-244135363D02*
X146900170Y-244770363D01*
X146900170Y-244135363D02*
X146476837Y-244770363D01*
X148109695Y-244770363D02*
X148109695Y-244135363D01*
X148109695Y-244135363D02*
X148260885Y-244135363D01*
X148260885Y-244135363D02*
X148351600Y-244165601D01*
X148351600Y-244165601D02*
X148412076Y-244226077D01*
X148412076Y-244226077D02*
X148442314Y-244286553D01*
X148442314Y-244286553D02*
X148472552Y-244407505D01*
X148472552Y-244407505D02*
X148472552Y-244498220D01*
X148472552Y-244498220D02*
X148442314Y-244619172D01*
X148442314Y-244619172D02*
X148412076Y-244679648D01*
X148412076Y-244679648D02*
X148351600Y-244740125D01*
X148351600Y-244740125D02*
X148260885Y-244770363D01*
X148260885Y-244770363D02*
X148109695Y-244770363D01*
X148744695Y-244770363D02*
X148744695Y-244135363D01*
X149409933Y-244770363D02*
X149198266Y-244467982D01*
X149047076Y-244770363D02*
X149047076Y-244135363D01*
X149047076Y-244135363D02*
X149288981Y-244135363D01*
X149288981Y-244135363D02*
X149349457Y-244165601D01*
X149349457Y-244165601D02*
X149379695Y-244195839D01*
X149379695Y-244195839D02*
X149409933Y-244256315D01*
X149409933Y-244256315D02*
X149409933Y-244347029D01*
X149409933Y-244347029D02*
X149379695Y-244407505D01*
X149379695Y-244407505D02*
X149349457Y-244437744D01*
X149349457Y-244437744D02*
X149288981Y-244467982D01*
X149288981Y-244467982D02*
X149047076Y-244467982D01*
D12*
X184406265Y-230456800D02*
X184549122Y-230504419D01*
X184549122Y-230504419D02*
X184787217Y-230504419D01*
X184787217Y-230504419D02*
X184882455Y-230456800D01*
X184882455Y-230456800D02*
X184930074Y-230409180D01*
X184930074Y-230409180D02*
X184977693Y-230313942D01*
X184977693Y-230313942D02*
X184977693Y-230218704D01*
X184977693Y-230218704D02*
X184930074Y-230123466D01*
X184930074Y-230123466D02*
X184882455Y-230075847D01*
X184882455Y-230075847D02*
X184787217Y-230028228D01*
X184787217Y-230028228D02*
X184596741Y-229980609D01*
X184596741Y-229980609D02*
X184501503Y-229932990D01*
X184501503Y-229932990D02*
X184453884Y-229885371D01*
X184453884Y-229885371D02*
X184406265Y-229790133D01*
X184406265Y-229790133D02*
X184406265Y-229694895D01*
X184406265Y-229694895D02*
X184453884Y-229599657D01*
X184453884Y-229599657D02*
X184501503Y-229552038D01*
X184501503Y-229552038D02*
X184596741Y-229504419D01*
X184596741Y-229504419D02*
X184834836Y-229504419D01*
X184834836Y-229504419D02*
X184977693Y-229552038D01*
X185406265Y-230504419D02*
X185406265Y-229504419D01*
X185406265Y-229504419D02*
X185644360Y-229504419D01*
X185644360Y-229504419D02*
X185787217Y-229552038D01*
X185787217Y-229552038D02*
X185882455Y-229647276D01*
X185882455Y-229647276D02*
X185930074Y-229742514D01*
X185930074Y-229742514D02*
X185977693Y-229932990D01*
X185977693Y-229932990D02*
X185977693Y-230075847D01*
X185977693Y-230075847D02*
X185930074Y-230266323D01*
X185930074Y-230266323D02*
X185882455Y-230361561D01*
X185882455Y-230361561D02*
X185787217Y-230456800D01*
X185787217Y-230456800D02*
X185644360Y-230504419D01*
X185644360Y-230504419D02*
X185406265Y-230504419D01*
X186358646Y-230218704D02*
X186834836Y-230218704D01*
X186263408Y-230504419D02*
X186596741Y-229504419D01*
X186596741Y-229504419D02*
X186930074Y-230504419D01*
X170182265Y-231345800D02*
X170325122Y-231393419D01*
X170325122Y-231393419D02*
X170563217Y-231393419D01*
X170563217Y-231393419D02*
X170658455Y-231345800D01*
X170658455Y-231345800D02*
X170706074Y-231298180D01*
X170706074Y-231298180D02*
X170753693Y-231202942D01*
X170753693Y-231202942D02*
X170753693Y-231107704D01*
X170753693Y-231107704D02*
X170706074Y-231012466D01*
X170706074Y-231012466D02*
X170658455Y-230964847D01*
X170658455Y-230964847D02*
X170563217Y-230917228D01*
X170563217Y-230917228D02*
X170372741Y-230869609D01*
X170372741Y-230869609D02*
X170277503Y-230821990D01*
X170277503Y-230821990D02*
X170229884Y-230774371D01*
X170229884Y-230774371D02*
X170182265Y-230679133D01*
X170182265Y-230679133D02*
X170182265Y-230583895D01*
X170182265Y-230583895D02*
X170229884Y-230488657D01*
X170229884Y-230488657D02*
X170277503Y-230441038D01*
X170277503Y-230441038D02*
X170372741Y-230393419D01*
X170372741Y-230393419D02*
X170610836Y-230393419D01*
X170610836Y-230393419D02*
X170753693Y-230441038D01*
X171753693Y-231298180D02*
X171706074Y-231345800D01*
X171706074Y-231345800D02*
X171563217Y-231393419D01*
X171563217Y-231393419D02*
X171467979Y-231393419D01*
X171467979Y-231393419D02*
X171325122Y-231345800D01*
X171325122Y-231345800D02*
X171229884Y-231250561D01*
X171229884Y-231250561D02*
X171182265Y-231155323D01*
X171182265Y-231155323D02*
X171134646Y-230964847D01*
X171134646Y-230964847D02*
X171134646Y-230821990D01*
X171134646Y-230821990D02*
X171182265Y-230631514D01*
X171182265Y-230631514D02*
X171229884Y-230536276D01*
X171229884Y-230536276D02*
X171325122Y-230441038D01*
X171325122Y-230441038D02*
X171467979Y-230393419D01*
X171467979Y-230393419D02*
X171563217Y-230393419D01*
X171563217Y-230393419D02*
X171706074Y-230441038D01*
X171706074Y-230441038D02*
X171753693Y-230488657D01*
X172658455Y-231393419D02*
X172182265Y-231393419D01*
X172182265Y-231393419D02*
X172182265Y-230393419D01*
D11*
X196593453Y-247056363D02*
X196593453Y-246421363D01*
X196593453Y-246421363D02*
X196805120Y-246874934D01*
X196805120Y-246874934D02*
X197016786Y-246421363D01*
X197016786Y-246421363D02*
X197016786Y-247056363D01*
X197682024Y-246995886D02*
X197651786Y-247026125D01*
X197651786Y-247026125D02*
X197561072Y-247056363D01*
X197561072Y-247056363D02*
X197500596Y-247056363D01*
X197500596Y-247056363D02*
X197409881Y-247026125D01*
X197409881Y-247026125D02*
X197349405Y-246965648D01*
X197349405Y-246965648D02*
X197319167Y-246905172D01*
X197319167Y-246905172D02*
X197288929Y-246784220D01*
X197288929Y-246784220D02*
X197288929Y-246693505D01*
X197288929Y-246693505D02*
X197319167Y-246572553D01*
X197319167Y-246572553D02*
X197349405Y-246512077D01*
X197349405Y-246512077D02*
X197409881Y-246451601D01*
X197409881Y-246451601D02*
X197500596Y-246421363D01*
X197500596Y-246421363D02*
X197561072Y-246421363D01*
X197561072Y-246421363D02*
X197651786Y-246451601D01*
X197651786Y-246451601D02*
X197682024Y-246481839D01*
X198256548Y-247056363D02*
X197954167Y-247056363D01*
X197954167Y-247056363D02*
X197954167Y-246421363D01*
X198831072Y-247056363D02*
X198619405Y-246753982D01*
X198468215Y-247056363D02*
X198468215Y-246421363D01*
X198468215Y-246421363D02*
X198710120Y-246421363D01*
X198710120Y-246421363D02*
X198770596Y-246451601D01*
X198770596Y-246451601D02*
X198800834Y-246481839D01*
X198800834Y-246481839D02*
X198831072Y-246542315D01*
X198831072Y-246542315D02*
X198831072Y-246633029D01*
X198831072Y-246633029D02*
X198800834Y-246693505D01*
X198800834Y-246693505D02*
X198770596Y-246723744D01*
X198770596Y-246723744D02*
X198710120Y-246753982D01*
X198710120Y-246753982D02*
X198468215Y-246753982D01*
X196505763Y-246245075D02*
X198888525Y-246245075D01*
X199919644Y-246451601D02*
X199859168Y-246421363D01*
X199859168Y-246421363D02*
X199768454Y-246421363D01*
X199768454Y-246421363D02*
X199677739Y-246451601D01*
X199677739Y-246451601D02*
X199617263Y-246512077D01*
X199617263Y-246512077D02*
X199587025Y-246572553D01*
X199587025Y-246572553D02*
X199556787Y-246693505D01*
X199556787Y-246693505D02*
X199556787Y-246784220D01*
X199556787Y-246784220D02*
X199587025Y-246905172D01*
X199587025Y-246905172D02*
X199617263Y-246965648D01*
X199617263Y-246965648D02*
X199677739Y-247026125D01*
X199677739Y-247026125D02*
X199768454Y-247056363D01*
X199768454Y-247056363D02*
X199828930Y-247056363D01*
X199828930Y-247056363D02*
X199919644Y-247026125D01*
X199919644Y-247026125D02*
X199949882Y-246995886D01*
X199949882Y-246995886D02*
X199949882Y-246784220D01*
X199949882Y-246784220D02*
X199828930Y-246784220D01*
X200222025Y-247056363D02*
X200222025Y-246421363D01*
X200222025Y-246421363D02*
X200584882Y-247056363D01*
X200584882Y-247056363D02*
X200584882Y-246421363D01*
X200887263Y-247056363D02*
X200887263Y-246421363D01*
X200887263Y-246421363D02*
X201038453Y-246421363D01*
X201038453Y-246421363D02*
X201129168Y-246451601D01*
X201129168Y-246451601D02*
X201189644Y-246512077D01*
X201189644Y-246512077D02*
X201219882Y-246572553D01*
X201219882Y-246572553D02*
X201250120Y-246693505D01*
X201250120Y-246693505D02*
X201250120Y-246784220D01*
X201250120Y-246784220D02*
X201219882Y-246905172D01*
X201219882Y-246905172D02*
X201189644Y-246965648D01*
X201189644Y-246965648D02*
X201129168Y-247026125D01*
X201129168Y-247026125D02*
X201038453Y-247056363D01*
X201038453Y-247056363D02*
X200887263Y-247056363D01*
X202006073Y-247056363D02*
X202006073Y-246421363D01*
X202006073Y-246421363D02*
X202157263Y-246421363D01*
X202157263Y-246421363D02*
X202247978Y-246451601D01*
X202247978Y-246451601D02*
X202308454Y-246512077D01*
X202308454Y-246512077D02*
X202338692Y-246572553D01*
X202338692Y-246572553D02*
X202368930Y-246693505D01*
X202368930Y-246693505D02*
X202368930Y-246784220D01*
X202368930Y-246784220D02*
X202338692Y-246905172D01*
X202338692Y-246905172D02*
X202308454Y-246965648D01*
X202308454Y-246965648D02*
X202247978Y-247026125D01*
X202247978Y-247026125D02*
X202157263Y-247056363D01*
X202157263Y-247056363D02*
X202006073Y-247056363D01*
X202610835Y-246874934D02*
X202913216Y-246874934D01*
X202550359Y-247056363D02*
X202762025Y-246421363D01*
X202762025Y-246421363D02*
X202973692Y-247056363D01*
X203094645Y-246421363D02*
X203457502Y-246421363D01*
X203276073Y-247056363D02*
X203276073Y-246421363D01*
X204515836Y-246995886D02*
X204485598Y-247026125D01*
X204485598Y-247026125D02*
X204394884Y-247056363D01*
X204394884Y-247056363D02*
X204334408Y-247056363D01*
X204334408Y-247056363D02*
X204243693Y-247026125D01*
X204243693Y-247026125D02*
X204183217Y-246965648D01*
X204183217Y-246965648D02*
X204152979Y-246905172D01*
X204152979Y-246905172D02*
X204122741Y-246784220D01*
X204122741Y-246784220D02*
X204122741Y-246693505D01*
X204122741Y-246693505D02*
X204152979Y-246572553D01*
X204152979Y-246572553D02*
X204183217Y-246512077D01*
X204183217Y-246512077D02*
X204243693Y-246451601D01*
X204243693Y-246451601D02*
X204334408Y-246421363D01*
X204334408Y-246421363D02*
X204394884Y-246421363D01*
X204394884Y-246421363D02*
X204485598Y-246451601D01*
X204485598Y-246451601D02*
X204515836Y-246481839D01*
X205090360Y-247056363D02*
X204787979Y-247056363D01*
X204787979Y-247056363D02*
X204787979Y-246421363D01*
X205302027Y-247056363D02*
X205302027Y-246421363D01*
X205664884Y-247056363D02*
X205392741Y-246693505D01*
X205664884Y-246421363D02*
X205302027Y-246784220D01*
D12*
X128651580Y-234999884D02*
X129651580Y-234999884D01*
X129651580Y-234999884D02*
X129651580Y-235380836D01*
X129651580Y-235380836D02*
X129603961Y-235476074D01*
X129603961Y-235476074D02*
X129556342Y-235523693D01*
X129556342Y-235523693D02*
X129461104Y-235571312D01*
X129461104Y-235571312D02*
X129318247Y-235571312D01*
X129318247Y-235571312D02*
X129223009Y-235523693D01*
X129223009Y-235523693D02*
X129175390Y-235476074D01*
X129175390Y-235476074D02*
X129127771Y-235380836D01*
X129127771Y-235380836D02*
X129127771Y-234999884D01*
X129651580Y-235904646D02*
X128651580Y-236142741D01*
X128651580Y-236142741D02*
X129365866Y-236333217D01*
X129365866Y-236333217D02*
X128651580Y-236523693D01*
X128651580Y-236523693D02*
X129651580Y-236761789D01*
X128651580Y-237714169D02*
X129127771Y-237380836D01*
X128651580Y-237142741D02*
X129651580Y-237142741D01*
X129651580Y-237142741D02*
X129651580Y-237523693D01*
X129651580Y-237523693D02*
X129603961Y-237618931D01*
X129603961Y-237618931D02*
X129556342Y-237666550D01*
X129556342Y-237666550D02*
X129461104Y-237714169D01*
X129461104Y-237714169D02*
X129318247Y-237714169D01*
X129318247Y-237714169D02*
X129223009Y-237666550D01*
X129223009Y-237666550D02*
X129175390Y-237618931D01*
X129175390Y-237618931D02*
X129127771Y-237523693D01*
X129127771Y-237523693D02*
X129127771Y-237142741D01*
X128746819Y-238142741D02*
X128699200Y-238190360D01*
X128699200Y-238190360D02*
X128651580Y-238142741D01*
X128651580Y-238142741D02*
X128699200Y-238095122D01*
X128699200Y-238095122D02*
X128746819Y-238142741D01*
X128746819Y-238142741D02*
X128651580Y-238142741D01*
X129270628Y-238142741D02*
X129223009Y-238190360D01*
X129223009Y-238190360D02*
X129175390Y-238142741D01*
X129175390Y-238142741D02*
X129223009Y-238095122D01*
X129223009Y-238095122D02*
X129270628Y-238142741D01*
X129270628Y-238142741D02*
X129175390Y-238142741D01*
X129032533Y-239380836D02*
X129032533Y-240142741D01*
X128651580Y-239761788D02*
X129413485Y-239761788D01*
X129651580Y-241095121D02*
X129651580Y-240618931D01*
X129651580Y-240618931D02*
X129175390Y-240571312D01*
X129175390Y-240571312D02*
X129223009Y-240618931D01*
X129223009Y-240618931D02*
X129270628Y-240714169D01*
X129270628Y-240714169D02*
X129270628Y-240952264D01*
X129270628Y-240952264D02*
X129223009Y-241047502D01*
X129223009Y-241047502D02*
X129175390Y-241095121D01*
X129175390Y-241095121D02*
X129080152Y-241142740D01*
X129080152Y-241142740D02*
X128842057Y-241142740D01*
X128842057Y-241142740D02*
X128746819Y-241095121D01*
X128746819Y-241095121D02*
X128699200Y-241047502D01*
X128699200Y-241047502D02*
X128651580Y-240952264D01*
X128651580Y-240952264D02*
X128651580Y-240714169D01*
X128651580Y-240714169D02*
X128699200Y-240618931D01*
X128699200Y-240618931D02*
X128746819Y-240571312D01*
X129651580Y-241428455D02*
X128651580Y-241761788D01*
X128651580Y-241761788D02*
X129651580Y-242095121D01*
X128651580Y-242428455D02*
X129651580Y-242428455D01*
X129651580Y-242428455D02*
X129651580Y-242666550D01*
X129651580Y-242666550D02*
X129603961Y-242809407D01*
X129603961Y-242809407D02*
X129508723Y-242904645D01*
X129508723Y-242904645D02*
X129413485Y-242952264D01*
X129413485Y-242952264D02*
X129223009Y-242999883D01*
X129223009Y-242999883D02*
X129080152Y-242999883D01*
X129080152Y-242999883D02*
X128889676Y-242952264D01*
X128889676Y-242952264D02*
X128794438Y-242904645D01*
X128794438Y-242904645D02*
X128699200Y-242809407D01*
X128699200Y-242809407D02*
X128651580Y-242666550D01*
X128651580Y-242666550D02*
X128651580Y-242428455D01*
X128746819Y-243999883D02*
X128699200Y-243952264D01*
X128699200Y-243952264D02*
X128651580Y-243809407D01*
X128651580Y-243809407D02*
X128651580Y-243714169D01*
X128651580Y-243714169D02*
X128699200Y-243571312D01*
X128699200Y-243571312D02*
X128794438Y-243476074D01*
X128794438Y-243476074D02*
X128889676Y-243428455D01*
X128889676Y-243428455D02*
X129080152Y-243380836D01*
X129080152Y-243380836D02*
X129223009Y-243380836D01*
X129223009Y-243380836D02*
X129413485Y-243428455D01*
X129413485Y-243428455D02*
X129508723Y-243476074D01*
X129508723Y-243476074D02*
X129603961Y-243571312D01*
X129603961Y-243571312D02*
X129651580Y-243714169D01*
X129651580Y-243714169D02*
X129651580Y-243809407D01*
X129651580Y-243809407D02*
X129603961Y-243952264D01*
X129603961Y-243952264D02*
X129556342Y-243999883D01*
X170182265Y-229567800D02*
X170325122Y-229615419D01*
X170325122Y-229615419D02*
X170563217Y-229615419D01*
X170563217Y-229615419D02*
X170658455Y-229567800D01*
X170658455Y-229567800D02*
X170706074Y-229520180D01*
X170706074Y-229520180D02*
X170753693Y-229424942D01*
X170753693Y-229424942D02*
X170753693Y-229329704D01*
X170753693Y-229329704D02*
X170706074Y-229234466D01*
X170706074Y-229234466D02*
X170658455Y-229186847D01*
X170658455Y-229186847D02*
X170563217Y-229139228D01*
X170563217Y-229139228D02*
X170372741Y-229091609D01*
X170372741Y-229091609D02*
X170277503Y-229043990D01*
X170277503Y-229043990D02*
X170229884Y-228996371D01*
X170229884Y-228996371D02*
X170182265Y-228901133D01*
X170182265Y-228901133D02*
X170182265Y-228805895D01*
X170182265Y-228805895D02*
X170229884Y-228710657D01*
X170229884Y-228710657D02*
X170277503Y-228663038D01*
X170277503Y-228663038D02*
X170372741Y-228615419D01*
X170372741Y-228615419D02*
X170610836Y-228615419D01*
X170610836Y-228615419D02*
X170753693Y-228663038D01*
X171182265Y-229615419D02*
X171182265Y-228615419D01*
X171182265Y-228615419D02*
X171420360Y-228615419D01*
X171420360Y-228615419D02*
X171563217Y-228663038D01*
X171563217Y-228663038D02*
X171658455Y-228758276D01*
X171658455Y-228758276D02*
X171706074Y-228853514D01*
X171706074Y-228853514D02*
X171753693Y-229043990D01*
X171753693Y-229043990D02*
X171753693Y-229186847D01*
X171753693Y-229186847D02*
X171706074Y-229377323D01*
X171706074Y-229377323D02*
X171658455Y-229472561D01*
X171658455Y-229472561D02*
X171563217Y-229567800D01*
X171563217Y-229567800D02*
X171420360Y-229615419D01*
X171420360Y-229615419D02*
X171182265Y-229615419D01*
X172134646Y-229329704D02*
X172610836Y-229329704D01*
X172039408Y-229615419D02*
X172372741Y-228615419D01*
X172372741Y-228615419D02*
X172706074Y-229615419D01*
X150633360Y-244285831D02*
X150560789Y-244249545D01*
X150560789Y-244249545D02*
X150451931Y-244249545D01*
X150451931Y-244249545D02*
X150343074Y-244285831D01*
X150343074Y-244285831D02*
X150270503Y-244358402D01*
X150270503Y-244358402D02*
X150234217Y-244430974D01*
X150234217Y-244430974D02*
X150197931Y-244576117D01*
X150197931Y-244576117D02*
X150197931Y-244684974D01*
X150197931Y-244684974D02*
X150234217Y-244830117D01*
X150234217Y-244830117D02*
X150270503Y-244902688D01*
X150270503Y-244902688D02*
X150343074Y-244975260D01*
X150343074Y-244975260D02*
X150451931Y-245011545D01*
X150451931Y-245011545D02*
X150524503Y-245011545D01*
X150524503Y-245011545D02*
X150633360Y-244975260D01*
X150633360Y-244975260D02*
X150669646Y-244938974D01*
X150669646Y-244938974D02*
X150669646Y-244684974D01*
X150669646Y-244684974D02*
X150524503Y-244684974D01*
X150996217Y-245011545D02*
X150996217Y-244249545D01*
X150996217Y-244249545D02*
X151431646Y-245011545D01*
X151431646Y-245011545D02*
X151431646Y-244249545D01*
X151794503Y-245011545D02*
X151794503Y-244249545D01*
X151794503Y-244249545D02*
X151975932Y-244249545D01*
X151975932Y-244249545D02*
X152084789Y-244285831D01*
X152084789Y-244285831D02*
X152157360Y-244358402D01*
X152157360Y-244358402D02*
X152193646Y-244430974D01*
X152193646Y-244430974D02*
X152229932Y-244576117D01*
X152229932Y-244576117D02*
X152229932Y-244684974D01*
X152229932Y-244684974D02*
X152193646Y-244830117D01*
X152193646Y-244830117D02*
X152157360Y-244902688D01*
X152157360Y-244902688D02*
X152084789Y-244975260D01*
X152084789Y-244975260D02*
X151975932Y-245011545D01*
X151975932Y-245011545D02*
X151794503Y-245011545D01*
X158380360Y-244285831D02*
X158307789Y-244249545D01*
X158307789Y-244249545D02*
X158198931Y-244249545D01*
X158198931Y-244249545D02*
X158090074Y-244285831D01*
X158090074Y-244285831D02*
X158017503Y-244358402D01*
X158017503Y-244358402D02*
X157981217Y-244430974D01*
X157981217Y-244430974D02*
X157944931Y-244576117D01*
X157944931Y-244576117D02*
X157944931Y-244684974D01*
X157944931Y-244684974D02*
X157981217Y-244830117D01*
X157981217Y-244830117D02*
X158017503Y-244902688D01*
X158017503Y-244902688D02*
X158090074Y-244975260D01*
X158090074Y-244975260D02*
X158198931Y-245011545D01*
X158198931Y-245011545D02*
X158271503Y-245011545D01*
X158271503Y-245011545D02*
X158380360Y-244975260D01*
X158380360Y-244975260D02*
X158416646Y-244938974D01*
X158416646Y-244938974D02*
X158416646Y-244684974D01*
X158416646Y-244684974D02*
X158271503Y-244684974D01*
X158743217Y-245011545D02*
X158743217Y-244249545D01*
X158743217Y-244249545D02*
X159178646Y-245011545D01*
X159178646Y-245011545D02*
X159178646Y-244249545D01*
X159541503Y-245011545D02*
X159541503Y-244249545D01*
X159541503Y-244249545D02*
X159722932Y-244249545D01*
X159722932Y-244249545D02*
X159831789Y-244285831D01*
X159831789Y-244285831D02*
X159904360Y-244358402D01*
X159904360Y-244358402D02*
X159940646Y-244430974D01*
X159940646Y-244430974D02*
X159976932Y-244576117D01*
X159976932Y-244576117D02*
X159976932Y-244684974D01*
X159976932Y-244684974D02*
X159940646Y-244830117D01*
X159940646Y-244830117D02*
X159904360Y-244902688D01*
X159904360Y-244902688D02*
X159831789Y-244975260D01*
X159831789Y-244975260D02*
X159722932Y-245011545D01*
X159722932Y-245011545D02*
X159541503Y-245011545D01*
X145147312Y-239857531D02*
X144813979Y-239381340D01*
X144575884Y-239857531D02*
X144575884Y-238857531D01*
X144575884Y-238857531D02*
X144956836Y-238857531D01*
X144956836Y-238857531D02*
X145052074Y-238905150D01*
X145052074Y-238905150D02*
X145099693Y-238952769D01*
X145099693Y-238952769D02*
X145147312Y-239048007D01*
X145147312Y-239048007D02*
X145147312Y-239190864D01*
X145147312Y-239190864D02*
X145099693Y-239286102D01*
X145099693Y-239286102D02*
X145052074Y-239333721D01*
X145052074Y-239333721D02*
X144956836Y-239381340D01*
X144956836Y-239381340D02*
X144575884Y-239381340D01*
X144575884Y-241467475D02*
X144575884Y-240467475D01*
X144575884Y-240467475D02*
X144813979Y-240467475D01*
X144813979Y-240467475D02*
X144956836Y-240515094D01*
X144956836Y-240515094D02*
X145052074Y-240610332D01*
X145052074Y-240610332D02*
X145099693Y-240705570D01*
X145099693Y-240705570D02*
X145147312Y-240896046D01*
X145147312Y-240896046D02*
X145147312Y-241038903D01*
X145147312Y-241038903D02*
X145099693Y-241229379D01*
X145099693Y-241229379D02*
X145052074Y-241324617D01*
X145052074Y-241324617D02*
X144956836Y-241419856D01*
X144956836Y-241419856D02*
X144813979Y-241467475D01*
X144813979Y-241467475D02*
X144575884Y-241467475D01*
X144433027Y-242077419D02*
X145004455Y-242077419D01*
X144718741Y-243077419D02*
X144718741Y-242077419D01*
D11*
X130403179Y-224309691D02*
X131165179Y-224309691D01*
X131165179Y-224309691D02*
X130403179Y-224745120D01*
X130403179Y-224745120D02*
X131165179Y-224745120D01*
X130475750Y-225543406D02*
X130439465Y-225507120D01*
X130439465Y-225507120D02*
X130403179Y-225398263D01*
X130403179Y-225398263D02*
X130403179Y-225325691D01*
X130403179Y-225325691D02*
X130439465Y-225216834D01*
X130439465Y-225216834D02*
X130512036Y-225144263D01*
X130512036Y-225144263D02*
X130584607Y-225107977D01*
X130584607Y-225107977D02*
X130729750Y-225071691D01*
X130729750Y-225071691D02*
X130838607Y-225071691D01*
X130838607Y-225071691D02*
X130983750Y-225107977D01*
X130983750Y-225107977D02*
X131056322Y-225144263D01*
X131056322Y-225144263D02*
X131128893Y-225216834D01*
X131128893Y-225216834D02*
X131165179Y-225325691D01*
X131165179Y-225325691D02*
X131165179Y-225398263D01*
X131165179Y-225398263D02*
X131128893Y-225507120D01*
X131128893Y-225507120D02*
X131092607Y-225543406D01*
X130693465Y-226450548D02*
X130693465Y-227031120D01*
X130403179Y-226740834D02*
X130983750Y-226740834D01*
X131165179Y-227756834D02*
X131165179Y-227393977D01*
X131165179Y-227393977D02*
X130802322Y-227357691D01*
X130802322Y-227357691D02*
X130838607Y-227393977D01*
X130838607Y-227393977D02*
X130874893Y-227466549D01*
X130874893Y-227466549D02*
X130874893Y-227647977D01*
X130874893Y-227647977D02*
X130838607Y-227720549D01*
X130838607Y-227720549D02*
X130802322Y-227756834D01*
X130802322Y-227756834D02*
X130729750Y-227793120D01*
X130729750Y-227793120D02*
X130548322Y-227793120D01*
X130548322Y-227793120D02*
X130475750Y-227756834D01*
X130475750Y-227756834D02*
X130439465Y-227720549D01*
X130439465Y-227720549D02*
X130403179Y-227647977D01*
X130403179Y-227647977D02*
X130403179Y-227466549D01*
X130403179Y-227466549D02*
X130439465Y-227393977D01*
X130439465Y-227393977D02*
X130475750Y-227357691D01*
X131165179Y-228010834D02*
X130403179Y-228264834D01*
X130403179Y-228264834D02*
X131165179Y-228518834D01*
X130403179Y-229933976D02*
X131165179Y-229933976D01*
X130403179Y-230296833D02*
X131165179Y-230296833D01*
X131165179Y-230296833D02*
X130403179Y-230732262D01*
X130403179Y-230732262D02*
X131165179Y-230732262D01*
D12*
X170953360Y-244285831D02*
X170880789Y-244249545D01*
X170880789Y-244249545D02*
X170771931Y-244249545D01*
X170771931Y-244249545D02*
X170663074Y-244285831D01*
X170663074Y-244285831D02*
X170590503Y-244358402D01*
X170590503Y-244358402D02*
X170554217Y-244430974D01*
X170554217Y-244430974D02*
X170517931Y-244576117D01*
X170517931Y-244576117D02*
X170517931Y-244684974D01*
X170517931Y-244684974D02*
X170554217Y-244830117D01*
X170554217Y-244830117D02*
X170590503Y-244902688D01*
X170590503Y-244902688D02*
X170663074Y-244975260D01*
X170663074Y-244975260D02*
X170771931Y-245011545D01*
X170771931Y-245011545D02*
X170844503Y-245011545D01*
X170844503Y-245011545D02*
X170953360Y-244975260D01*
X170953360Y-244975260D02*
X170989646Y-244938974D01*
X170989646Y-244938974D02*
X170989646Y-244684974D01*
X170989646Y-244684974D02*
X170844503Y-244684974D01*
X171316217Y-245011545D02*
X171316217Y-244249545D01*
X171316217Y-244249545D02*
X171751646Y-245011545D01*
X171751646Y-245011545D02*
X171751646Y-244249545D01*
X172114503Y-245011545D02*
X172114503Y-244249545D01*
X172114503Y-244249545D02*
X172295932Y-244249545D01*
X172295932Y-244249545D02*
X172404789Y-244285831D01*
X172404789Y-244285831D02*
X172477360Y-244358402D01*
X172477360Y-244358402D02*
X172513646Y-244430974D01*
X172513646Y-244430974D02*
X172549932Y-244576117D01*
X172549932Y-244576117D02*
X172549932Y-244684974D01*
X172549932Y-244684974D02*
X172513646Y-244830117D01*
X172513646Y-244830117D02*
X172477360Y-244902688D01*
X172477360Y-244902688D02*
X172404789Y-244975260D01*
X172404789Y-244975260D02*
X172295932Y-245011545D01*
X172295932Y-245011545D02*
X172114503Y-245011545D01*
X206615312Y-239730531D02*
X206281979Y-239254340D01*
X206043884Y-239730531D02*
X206043884Y-238730531D01*
X206043884Y-238730531D02*
X206424836Y-238730531D01*
X206424836Y-238730531D02*
X206520074Y-238778150D01*
X206520074Y-238778150D02*
X206567693Y-238825769D01*
X206567693Y-238825769D02*
X206615312Y-238921007D01*
X206615312Y-238921007D02*
X206615312Y-239063864D01*
X206615312Y-239063864D02*
X206567693Y-239159102D01*
X206567693Y-239159102D02*
X206520074Y-239206721D01*
X206520074Y-239206721D02*
X206424836Y-239254340D01*
X206424836Y-239254340D02*
X206043884Y-239254340D01*
X206043884Y-241340475D02*
X206043884Y-240340475D01*
X206043884Y-240340475D02*
X206281979Y-240340475D01*
X206281979Y-240340475D02*
X206424836Y-240388094D01*
X206424836Y-240388094D02*
X206520074Y-240483332D01*
X206520074Y-240483332D02*
X206567693Y-240578570D01*
X206567693Y-240578570D02*
X206615312Y-240769046D01*
X206615312Y-240769046D02*
X206615312Y-240911903D01*
X206615312Y-240911903D02*
X206567693Y-241102379D01*
X206567693Y-241102379D02*
X206520074Y-241197617D01*
X206520074Y-241197617D02*
X206424836Y-241292856D01*
X206424836Y-241292856D02*
X206281979Y-241340475D01*
X206281979Y-241340475D02*
X206043884Y-241340475D01*
X205901027Y-241950419D02*
X206472455Y-241950419D01*
X206186741Y-242950419D02*
X206186741Y-241950419D01*
X212473265Y-245061800D02*
X212616122Y-245109419D01*
X212616122Y-245109419D02*
X212854217Y-245109419D01*
X212854217Y-245109419D02*
X212949455Y-245061800D01*
X212949455Y-245061800D02*
X212997074Y-245014180D01*
X212997074Y-245014180D02*
X213044693Y-244918942D01*
X213044693Y-244918942D02*
X213044693Y-244823704D01*
X213044693Y-244823704D02*
X212997074Y-244728466D01*
X212997074Y-244728466D02*
X212949455Y-244680847D01*
X212949455Y-244680847D02*
X212854217Y-244633228D01*
X212854217Y-244633228D02*
X212663741Y-244585609D01*
X212663741Y-244585609D02*
X212568503Y-244537990D01*
X212568503Y-244537990D02*
X212520884Y-244490371D01*
X212520884Y-244490371D02*
X212473265Y-244395133D01*
X212473265Y-244395133D02*
X212473265Y-244299895D01*
X212473265Y-244299895D02*
X212520884Y-244204657D01*
X212520884Y-244204657D02*
X212568503Y-244157038D01*
X212568503Y-244157038D02*
X212663741Y-244109419D01*
X212663741Y-244109419D02*
X212901836Y-244109419D01*
X212901836Y-244109419D02*
X213044693Y-244157038D01*
X214044693Y-245014180D02*
X213997074Y-245061800D01*
X213997074Y-245061800D02*
X213854217Y-245109419D01*
X213854217Y-245109419D02*
X213758979Y-245109419D01*
X213758979Y-245109419D02*
X213616122Y-245061800D01*
X213616122Y-245061800D02*
X213520884Y-244966561D01*
X213520884Y-244966561D02*
X213473265Y-244871323D01*
X213473265Y-244871323D02*
X213425646Y-244680847D01*
X213425646Y-244680847D02*
X213425646Y-244537990D01*
X213425646Y-244537990D02*
X213473265Y-244347514D01*
X213473265Y-244347514D02*
X213520884Y-244252276D01*
X213520884Y-244252276D02*
X213616122Y-244157038D01*
X213616122Y-244157038D02*
X213758979Y-244109419D01*
X213758979Y-244109419D02*
X213854217Y-244109419D01*
X213854217Y-244109419D02*
X213997074Y-244157038D01*
X213997074Y-244157038D02*
X214044693Y-244204657D01*
X214949455Y-245109419D02*
X214473265Y-245109419D01*
X214473265Y-245109419D02*
X214473265Y-244109419D01*
D11*
X186179453Y-247056363D02*
X186179453Y-246421363D01*
X186179453Y-246421363D02*
X186391120Y-246874934D01*
X186391120Y-246874934D02*
X186602786Y-246421363D01*
X186602786Y-246421363D02*
X186602786Y-247056363D01*
X187268024Y-246995886D02*
X187237786Y-247026125D01*
X187237786Y-247026125D02*
X187147072Y-247056363D01*
X187147072Y-247056363D02*
X187086596Y-247056363D01*
X187086596Y-247056363D02*
X186995881Y-247026125D01*
X186995881Y-247026125D02*
X186935405Y-246965648D01*
X186935405Y-246965648D02*
X186905167Y-246905172D01*
X186905167Y-246905172D02*
X186874929Y-246784220D01*
X186874929Y-246784220D02*
X186874929Y-246693505D01*
X186874929Y-246693505D02*
X186905167Y-246572553D01*
X186905167Y-246572553D02*
X186935405Y-246512077D01*
X186935405Y-246512077D02*
X186995881Y-246451601D01*
X186995881Y-246451601D02*
X187086596Y-246421363D01*
X187086596Y-246421363D02*
X187147072Y-246421363D01*
X187147072Y-246421363D02*
X187237786Y-246451601D01*
X187237786Y-246451601D02*
X187268024Y-246481839D01*
X187842548Y-247056363D02*
X187540167Y-247056363D01*
X187540167Y-247056363D02*
X187540167Y-246421363D01*
X188417072Y-247056363D02*
X188205405Y-246753982D01*
X188054215Y-247056363D02*
X188054215Y-246421363D01*
X188054215Y-246421363D02*
X188296120Y-246421363D01*
X188296120Y-246421363D02*
X188356596Y-246451601D01*
X188356596Y-246451601D02*
X188386834Y-246481839D01*
X188386834Y-246481839D02*
X188417072Y-246542315D01*
X188417072Y-246542315D02*
X188417072Y-246633029D01*
X188417072Y-246633029D02*
X188386834Y-246693505D01*
X188386834Y-246693505D02*
X188356596Y-246723744D01*
X188356596Y-246723744D02*
X188296120Y-246753982D01*
X188296120Y-246753982D02*
X188054215Y-246753982D01*
X186091763Y-246245075D02*
X188474525Y-246245075D01*
X189505644Y-246451601D02*
X189445168Y-246421363D01*
X189445168Y-246421363D02*
X189354454Y-246421363D01*
X189354454Y-246421363D02*
X189263739Y-246451601D01*
X189263739Y-246451601D02*
X189203263Y-246512077D01*
X189203263Y-246512077D02*
X189173025Y-246572553D01*
X189173025Y-246572553D02*
X189142787Y-246693505D01*
X189142787Y-246693505D02*
X189142787Y-246784220D01*
X189142787Y-246784220D02*
X189173025Y-246905172D01*
X189173025Y-246905172D02*
X189203263Y-246965648D01*
X189203263Y-246965648D02*
X189263739Y-247026125D01*
X189263739Y-247026125D02*
X189354454Y-247056363D01*
X189354454Y-247056363D02*
X189414930Y-247056363D01*
X189414930Y-247056363D02*
X189505644Y-247026125D01*
X189505644Y-247026125D02*
X189535882Y-246995886D01*
X189535882Y-246995886D02*
X189535882Y-246784220D01*
X189535882Y-246784220D02*
X189414930Y-246784220D01*
X189808025Y-247056363D02*
X189808025Y-246421363D01*
X189808025Y-246421363D02*
X190170882Y-247056363D01*
X190170882Y-247056363D02*
X190170882Y-246421363D01*
X190473263Y-247056363D02*
X190473263Y-246421363D01*
X190473263Y-246421363D02*
X190624453Y-246421363D01*
X190624453Y-246421363D02*
X190715168Y-246451601D01*
X190715168Y-246451601D02*
X190775644Y-246512077D01*
X190775644Y-246512077D02*
X190805882Y-246572553D01*
X190805882Y-246572553D02*
X190836120Y-246693505D01*
X190836120Y-246693505D02*
X190836120Y-246784220D01*
X190836120Y-246784220D02*
X190805882Y-246905172D01*
X190805882Y-246905172D02*
X190775644Y-246965648D01*
X190775644Y-246965648D02*
X190715168Y-247026125D01*
X190715168Y-247026125D02*
X190624453Y-247056363D01*
X190624453Y-247056363D02*
X190473263Y-247056363D01*
X191592073Y-247056363D02*
X191592073Y-246421363D01*
X191592073Y-246421363D02*
X191743263Y-246421363D01*
X191743263Y-246421363D02*
X191833978Y-246451601D01*
X191833978Y-246451601D02*
X191894454Y-246512077D01*
X191894454Y-246512077D02*
X191924692Y-246572553D01*
X191924692Y-246572553D02*
X191954930Y-246693505D01*
X191954930Y-246693505D02*
X191954930Y-246784220D01*
X191954930Y-246784220D02*
X191924692Y-246905172D01*
X191924692Y-246905172D02*
X191894454Y-246965648D01*
X191894454Y-246965648D02*
X191833978Y-247026125D01*
X191833978Y-247026125D02*
X191743263Y-247056363D01*
X191743263Y-247056363D02*
X191592073Y-247056363D01*
X192196835Y-246874934D02*
X192499216Y-246874934D01*
X192136359Y-247056363D02*
X192348025Y-246421363D01*
X192348025Y-246421363D02*
X192559692Y-247056363D01*
X192680645Y-246421363D02*
X193043502Y-246421363D01*
X192862073Y-247056363D02*
X192862073Y-246421363D01*
X194101836Y-246995886D02*
X194071598Y-247026125D01*
X194071598Y-247026125D02*
X193980884Y-247056363D01*
X193980884Y-247056363D02*
X193920408Y-247056363D01*
X193920408Y-247056363D02*
X193829693Y-247026125D01*
X193829693Y-247026125D02*
X193769217Y-246965648D01*
X193769217Y-246965648D02*
X193738979Y-246905172D01*
X193738979Y-246905172D02*
X193708741Y-246784220D01*
X193708741Y-246784220D02*
X193708741Y-246693505D01*
X193708741Y-246693505D02*
X193738979Y-246572553D01*
X193738979Y-246572553D02*
X193769217Y-246512077D01*
X193769217Y-246512077D02*
X193829693Y-246451601D01*
X193829693Y-246451601D02*
X193920408Y-246421363D01*
X193920408Y-246421363D02*
X193980884Y-246421363D01*
X193980884Y-246421363D02*
X194071598Y-246451601D01*
X194071598Y-246451601D02*
X194101836Y-246481839D01*
X194676360Y-247056363D02*
X194373979Y-247056363D01*
X194373979Y-247056363D02*
X194373979Y-246421363D01*
X194888027Y-247056363D02*
X194888027Y-246421363D01*
X195250884Y-247056363D02*
X194978741Y-246693505D01*
X195250884Y-246421363D02*
X194888027Y-246784220D01*
D12*
X176160360Y-244285831D02*
X176087789Y-244249545D01*
X176087789Y-244249545D02*
X175978931Y-244249545D01*
X175978931Y-244249545D02*
X175870074Y-244285831D01*
X175870074Y-244285831D02*
X175797503Y-244358402D01*
X175797503Y-244358402D02*
X175761217Y-244430974D01*
X175761217Y-244430974D02*
X175724931Y-244576117D01*
X175724931Y-244576117D02*
X175724931Y-244684974D01*
X175724931Y-244684974D02*
X175761217Y-244830117D01*
X175761217Y-244830117D02*
X175797503Y-244902688D01*
X175797503Y-244902688D02*
X175870074Y-244975260D01*
X175870074Y-244975260D02*
X175978931Y-245011545D01*
X175978931Y-245011545D02*
X176051503Y-245011545D01*
X176051503Y-245011545D02*
X176160360Y-244975260D01*
X176160360Y-244975260D02*
X176196646Y-244938974D01*
X176196646Y-244938974D02*
X176196646Y-244684974D01*
X176196646Y-244684974D02*
X176051503Y-244684974D01*
X176523217Y-245011545D02*
X176523217Y-244249545D01*
X176523217Y-244249545D02*
X176958646Y-245011545D01*
X176958646Y-245011545D02*
X176958646Y-244249545D01*
X177321503Y-245011545D02*
X177321503Y-244249545D01*
X177321503Y-244249545D02*
X177502932Y-244249545D01*
X177502932Y-244249545D02*
X177611789Y-244285831D01*
X177611789Y-244285831D02*
X177684360Y-244358402D01*
X177684360Y-244358402D02*
X177720646Y-244430974D01*
X177720646Y-244430974D02*
X177756932Y-244576117D01*
X177756932Y-244576117D02*
X177756932Y-244684974D01*
X177756932Y-244684974D02*
X177720646Y-244830117D01*
X177720646Y-244830117D02*
X177684360Y-244902688D01*
X177684360Y-244902688D02*
X177611789Y-244975260D01*
X177611789Y-244975260D02*
X177502932Y-245011545D01*
X177502932Y-245011545D02*
X177321503Y-245011545D01*
X189787884Y-245490419D02*
X189787884Y-244490419D01*
X189787884Y-244966609D02*
X190359312Y-244966609D01*
X190359312Y-245490419D02*
X190359312Y-244490419D01*
X190978360Y-245490419D02*
X190883122Y-245442800D01*
X190883122Y-245442800D02*
X190835503Y-245395180D01*
X190835503Y-245395180D02*
X190787884Y-245299942D01*
X190787884Y-245299942D02*
X190787884Y-245014228D01*
X190787884Y-245014228D02*
X190835503Y-244918990D01*
X190835503Y-244918990D02*
X190883122Y-244871371D01*
X190883122Y-244871371D02*
X190978360Y-244823752D01*
X190978360Y-244823752D02*
X191121217Y-244823752D01*
X191121217Y-244823752D02*
X191216455Y-244871371D01*
X191216455Y-244871371D02*
X191264074Y-244918990D01*
X191264074Y-244918990D02*
X191311693Y-245014228D01*
X191311693Y-245014228D02*
X191311693Y-245299942D01*
X191311693Y-245299942D02*
X191264074Y-245395180D01*
X191264074Y-245395180D02*
X191216455Y-245442800D01*
X191216455Y-245442800D02*
X191121217Y-245490419D01*
X191121217Y-245490419D02*
X190978360Y-245490419D01*
X191692646Y-245442800D02*
X191787884Y-245490419D01*
X191787884Y-245490419D02*
X191978360Y-245490419D01*
X191978360Y-245490419D02*
X192073598Y-245442800D01*
X192073598Y-245442800D02*
X192121217Y-245347561D01*
X192121217Y-245347561D02*
X192121217Y-245299942D01*
X192121217Y-245299942D02*
X192073598Y-245204704D01*
X192073598Y-245204704D02*
X191978360Y-245157085D01*
X191978360Y-245157085D02*
X191835503Y-245157085D01*
X191835503Y-245157085D02*
X191740265Y-245109466D01*
X191740265Y-245109466D02*
X191692646Y-245014228D01*
X191692646Y-245014228D02*
X191692646Y-244966609D01*
X191692646Y-244966609D02*
X191740265Y-244871371D01*
X191740265Y-244871371D02*
X191835503Y-244823752D01*
X191835503Y-244823752D02*
X191978360Y-244823752D01*
X191978360Y-244823752D02*
X192073598Y-244871371D01*
X192406932Y-244823752D02*
X192787884Y-244823752D01*
X192549789Y-244490419D02*
X192549789Y-245347561D01*
X192549789Y-245347561D02*
X192597408Y-245442800D01*
X192597408Y-245442800D02*
X192692646Y-245490419D01*
X192692646Y-245490419D02*
X192787884Y-245490419D01*
X200217693Y-244411038D02*
X200122455Y-244363419D01*
X200122455Y-244363419D02*
X199979598Y-244363419D01*
X199979598Y-244363419D02*
X199836741Y-244411038D01*
X199836741Y-244411038D02*
X199741503Y-244506276D01*
X199741503Y-244506276D02*
X199693884Y-244601514D01*
X199693884Y-244601514D02*
X199646265Y-244791990D01*
X199646265Y-244791990D02*
X199646265Y-244934847D01*
X199646265Y-244934847D02*
X199693884Y-245125323D01*
X199693884Y-245125323D02*
X199741503Y-245220561D01*
X199741503Y-245220561D02*
X199836741Y-245315800D01*
X199836741Y-245315800D02*
X199979598Y-245363419D01*
X199979598Y-245363419D02*
X200074836Y-245363419D01*
X200074836Y-245363419D02*
X200217693Y-245315800D01*
X200217693Y-245315800D02*
X200265312Y-245268180D01*
X200265312Y-245268180D02*
X200265312Y-244934847D01*
X200265312Y-244934847D02*
X200074836Y-244934847D01*
X201122455Y-244696752D02*
X201122455Y-245363419D01*
X200693884Y-244696752D02*
X200693884Y-245220561D01*
X200693884Y-245220561D02*
X200741503Y-245315800D01*
X200741503Y-245315800D02*
X200836741Y-245363419D01*
X200836741Y-245363419D02*
X200979598Y-245363419D01*
X200979598Y-245363419D02*
X201074836Y-245315800D01*
X201074836Y-245315800D02*
X201122455Y-245268180D01*
X201979598Y-245315800D02*
X201884360Y-245363419D01*
X201884360Y-245363419D02*
X201693884Y-245363419D01*
X201693884Y-245363419D02*
X201598646Y-245315800D01*
X201598646Y-245315800D02*
X201551027Y-245220561D01*
X201551027Y-245220561D02*
X201551027Y-244839609D01*
X201551027Y-244839609D02*
X201598646Y-244744371D01*
X201598646Y-244744371D02*
X201693884Y-244696752D01*
X201693884Y-244696752D02*
X201884360Y-244696752D01*
X201884360Y-244696752D02*
X201979598Y-244744371D01*
X201979598Y-244744371D02*
X202027217Y-244839609D01*
X202027217Y-244839609D02*
X202027217Y-244934847D01*
X202027217Y-244934847D02*
X201551027Y-245030085D01*
X202408170Y-245315800D02*
X202503408Y-245363419D01*
X202503408Y-245363419D02*
X202693884Y-245363419D01*
X202693884Y-245363419D02*
X202789122Y-245315800D01*
X202789122Y-245315800D02*
X202836741Y-245220561D01*
X202836741Y-245220561D02*
X202836741Y-245172942D01*
X202836741Y-245172942D02*
X202789122Y-245077704D01*
X202789122Y-245077704D02*
X202693884Y-245030085D01*
X202693884Y-245030085D02*
X202551027Y-245030085D01*
X202551027Y-245030085D02*
X202455789Y-244982466D01*
X202455789Y-244982466D02*
X202408170Y-244887228D01*
X202408170Y-244887228D02*
X202408170Y-244839609D01*
X202408170Y-244839609D02*
X202455789Y-244744371D01*
X202455789Y-244744371D02*
X202551027Y-244696752D01*
X202551027Y-244696752D02*
X202693884Y-244696752D01*
X202693884Y-244696752D02*
X202789122Y-244744371D01*
X203122456Y-244696752D02*
X203503408Y-244696752D01*
X203265313Y-244363419D02*
X203265313Y-245220561D01*
X203265313Y-245220561D02*
X203312932Y-245315800D01*
X203312932Y-245315800D02*
X203408170Y-245363419D01*
X203408170Y-245363419D02*
X203503408Y-245363419D01*
X165848312Y-239730531D02*
X165514979Y-239254340D01*
X165276884Y-239730531D02*
X165276884Y-238730531D01*
X165276884Y-238730531D02*
X165657836Y-238730531D01*
X165657836Y-238730531D02*
X165753074Y-238778150D01*
X165753074Y-238778150D02*
X165800693Y-238825769D01*
X165800693Y-238825769D02*
X165848312Y-238921007D01*
X165848312Y-238921007D02*
X165848312Y-239063864D01*
X165848312Y-239063864D02*
X165800693Y-239159102D01*
X165800693Y-239159102D02*
X165753074Y-239206721D01*
X165753074Y-239206721D02*
X165657836Y-239254340D01*
X165657836Y-239254340D02*
X165276884Y-239254340D01*
X165276884Y-241340475D02*
X165276884Y-240340475D01*
X165276884Y-240340475D02*
X165514979Y-240340475D01*
X165514979Y-240340475D02*
X165657836Y-240388094D01*
X165657836Y-240388094D02*
X165753074Y-240483332D01*
X165753074Y-240483332D02*
X165800693Y-240578570D01*
X165800693Y-240578570D02*
X165848312Y-240769046D01*
X165848312Y-240769046D02*
X165848312Y-240911903D01*
X165848312Y-240911903D02*
X165800693Y-241102379D01*
X165800693Y-241102379D02*
X165753074Y-241197617D01*
X165753074Y-241197617D02*
X165657836Y-241292856D01*
X165657836Y-241292856D02*
X165514979Y-241340475D01*
X165514979Y-241340475D02*
X165276884Y-241340475D01*
X165134027Y-241950419D02*
X165705455Y-241950419D01*
X165419741Y-242950419D02*
X165419741Y-241950419D01*
X184406265Y-231980800D02*
X184549122Y-232028419D01*
X184549122Y-232028419D02*
X184787217Y-232028419D01*
X184787217Y-232028419D02*
X184882455Y-231980800D01*
X184882455Y-231980800D02*
X184930074Y-231933180D01*
X184930074Y-231933180D02*
X184977693Y-231837942D01*
X184977693Y-231837942D02*
X184977693Y-231742704D01*
X184977693Y-231742704D02*
X184930074Y-231647466D01*
X184930074Y-231647466D02*
X184882455Y-231599847D01*
X184882455Y-231599847D02*
X184787217Y-231552228D01*
X184787217Y-231552228D02*
X184596741Y-231504609D01*
X184596741Y-231504609D02*
X184501503Y-231456990D01*
X184501503Y-231456990D02*
X184453884Y-231409371D01*
X184453884Y-231409371D02*
X184406265Y-231314133D01*
X184406265Y-231314133D02*
X184406265Y-231218895D01*
X184406265Y-231218895D02*
X184453884Y-231123657D01*
X184453884Y-231123657D02*
X184501503Y-231076038D01*
X184501503Y-231076038D02*
X184596741Y-231028419D01*
X184596741Y-231028419D02*
X184834836Y-231028419D01*
X184834836Y-231028419D02*
X184977693Y-231076038D01*
X185977693Y-231933180D02*
X185930074Y-231980800D01*
X185930074Y-231980800D02*
X185787217Y-232028419D01*
X185787217Y-232028419D02*
X185691979Y-232028419D01*
X185691979Y-232028419D02*
X185549122Y-231980800D01*
X185549122Y-231980800D02*
X185453884Y-231885561D01*
X185453884Y-231885561D02*
X185406265Y-231790323D01*
X185406265Y-231790323D02*
X185358646Y-231599847D01*
X185358646Y-231599847D02*
X185358646Y-231456990D01*
X185358646Y-231456990D02*
X185406265Y-231266514D01*
X185406265Y-231266514D02*
X185453884Y-231171276D01*
X185453884Y-231171276D02*
X185549122Y-231076038D01*
X185549122Y-231076038D02*
X185691979Y-231028419D01*
X185691979Y-231028419D02*
X185787217Y-231028419D01*
X185787217Y-231028419D02*
X185930074Y-231076038D01*
X185930074Y-231076038D02*
X185977693Y-231123657D01*
X186882455Y-232028419D02*
X186406265Y-232028419D01*
X186406265Y-232028419D02*
X186406265Y-231028419D01*
X186295312Y-239730531D02*
X185961979Y-239254340D01*
X185723884Y-239730531D02*
X185723884Y-238730531D01*
X185723884Y-238730531D02*
X186104836Y-238730531D01*
X186104836Y-238730531D02*
X186200074Y-238778150D01*
X186200074Y-238778150D02*
X186247693Y-238825769D01*
X186247693Y-238825769D02*
X186295312Y-238921007D01*
X186295312Y-238921007D02*
X186295312Y-239063864D01*
X186295312Y-239063864D02*
X186247693Y-239159102D01*
X186247693Y-239159102D02*
X186200074Y-239206721D01*
X186200074Y-239206721D02*
X186104836Y-239254340D01*
X186104836Y-239254340D02*
X185723884Y-239254340D01*
X185723884Y-241340475D02*
X185723884Y-240340475D01*
X185723884Y-240340475D02*
X185961979Y-240340475D01*
X185961979Y-240340475D02*
X186104836Y-240388094D01*
X186104836Y-240388094D02*
X186200074Y-240483332D01*
X186200074Y-240483332D02*
X186247693Y-240578570D01*
X186247693Y-240578570D02*
X186295312Y-240769046D01*
X186295312Y-240769046D02*
X186295312Y-240911903D01*
X186295312Y-240911903D02*
X186247693Y-241102379D01*
X186247693Y-241102379D02*
X186200074Y-241197617D01*
X186200074Y-241197617D02*
X186104836Y-241292856D01*
X186104836Y-241292856D02*
X185961979Y-241340475D01*
X185961979Y-241340475D02*
X185723884Y-241340475D01*
X185581027Y-241950419D02*
X186152455Y-241950419D01*
X185866741Y-242950419D02*
X185866741Y-241950419D01*
X216156265Y-245061800D02*
X216299122Y-245109419D01*
X216299122Y-245109419D02*
X216537217Y-245109419D01*
X216537217Y-245109419D02*
X216632455Y-245061800D01*
X216632455Y-245061800D02*
X216680074Y-245014180D01*
X216680074Y-245014180D02*
X216727693Y-244918942D01*
X216727693Y-244918942D02*
X216727693Y-244823704D01*
X216727693Y-244823704D02*
X216680074Y-244728466D01*
X216680074Y-244728466D02*
X216632455Y-244680847D01*
X216632455Y-244680847D02*
X216537217Y-244633228D01*
X216537217Y-244633228D02*
X216346741Y-244585609D01*
X216346741Y-244585609D02*
X216251503Y-244537990D01*
X216251503Y-244537990D02*
X216203884Y-244490371D01*
X216203884Y-244490371D02*
X216156265Y-244395133D01*
X216156265Y-244395133D02*
X216156265Y-244299895D01*
X216156265Y-244299895D02*
X216203884Y-244204657D01*
X216203884Y-244204657D02*
X216251503Y-244157038D01*
X216251503Y-244157038D02*
X216346741Y-244109419D01*
X216346741Y-244109419D02*
X216584836Y-244109419D01*
X216584836Y-244109419D02*
X216727693Y-244157038D01*
X217156265Y-245109419D02*
X217156265Y-244109419D01*
X217156265Y-244109419D02*
X217394360Y-244109419D01*
X217394360Y-244109419D02*
X217537217Y-244157038D01*
X217537217Y-244157038D02*
X217632455Y-244252276D01*
X217632455Y-244252276D02*
X217680074Y-244347514D01*
X217680074Y-244347514D02*
X217727693Y-244537990D01*
X217727693Y-244537990D02*
X217727693Y-244680847D01*
X217727693Y-244680847D02*
X217680074Y-244871323D01*
X217680074Y-244871323D02*
X217632455Y-244966561D01*
X217632455Y-244966561D02*
X217537217Y-245061800D01*
X217537217Y-245061800D02*
X217394360Y-245109419D01*
X217394360Y-245109419D02*
X217156265Y-245109419D01*
X218108646Y-244823704D02*
X218584836Y-244823704D01*
X218013408Y-245109419D02*
X218346741Y-244109419D01*
X218346741Y-244109419D02*
X218680074Y-245109419D01*
X208822027Y-244363419D02*
X209393455Y-244363419D01*
X209107741Y-245363419D02*
X209107741Y-244363419D01*
X209726789Y-245363419D02*
X209726789Y-244696752D01*
X209726789Y-244363419D02*
X209679170Y-244411038D01*
X209679170Y-244411038D02*
X209726789Y-244458657D01*
X209726789Y-244458657D02*
X209774408Y-244411038D01*
X209774408Y-244411038D02*
X209726789Y-244363419D01*
X209726789Y-244363419D02*
X209726789Y-244458657D01*
X210202979Y-245363419D02*
X210202979Y-244696752D01*
X210202979Y-244791990D02*
X210250598Y-244744371D01*
X210250598Y-244744371D02*
X210345836Y-244696752D01*
X210345836Y-244696752D02*
X210488693Y-244696752D01*
X210488693Y-244696752D02*
X210583931Y-244744371D01*
X210583931Y-244744371D02*
X210631550Y-244839609D01*
X210631550Y-244839609D02*
X210631550Y-245363419D01*
X210631550Y-244839609D02*
X210679169Y-244744371D01*
X210679169Y-244744371D02*
X210774407Y-244696752D01*
X210774407Y-244696752D02*
X210917264Y-244696752D01*
X210917264Y-244696752D02*
X211012503Y-244744371D01*
X211012503Y-244744371D02*
X211060122Y-244839609D01*
X211060122Y-244839609D02*
X211060122Y-245363419D01*
X211917264Y-245315800D02*
X211822026Y-245363419D01*
X211822026Y-245363419D02*
X211631550Y-245363419D01*
X211631550Y-245363419D02*
X211536312Y-245315800D01*
X211536312Y-245315800D02*
X211488693Y-245220561D01*
X211488693Y-245220561D02*
X211488693Y-244839609D01*
X211488693Y-244839609D02*
X211536312Y-244744371D01*
X211536312Y-244744371D02*
X211631550Y-244696752D01*
X211631550Y-244696752D02*
X211822026Y-244696752D01*
X211822026Y-244696752D02*
X211917264Y-244744371D01*
X211917264Y-244744371D02*
X211964883Y-244839609D01*
X211964883Y-244839609D02*
X211964883Y-244934847D01*
X211964883Y-244934847D02*
X211488693Y-245030085D01*
X154337295Y-240032265D02*
X154337295Y-240508455D01*
X154051580Y-239937027D02*
X155051580Y-240270360D01*
X155051580Y-240270360D02*
X154051580Y-240603693D01*
X154575390Y-242032265D02*
X154527771Y-242175122D01*
X154527771Y-242175122D02*
X154480152Y-242222741D01*
X154480152Y-242222741D02*
X154384914Y-242270360D01*
X154384914Y-242270360D02*
X154242057Y-242270360D01*
X154242057Y-242270360D02*
X154146819Y-242222741D01*
X154146819Y-242222741D02*
X154099200Y-242175122D01*
X154099200Y-242175122D02*
X154051580Y-242079884D01*
X154051580Y-242079884D02*
X154051580Y-241698932D01*
X154051580Y-241698932D02*
X155051580Y-241698932D01*
X155051580Y-241698932D02*
X155051580Y-242032265D01*
X155051580Y-242032265D02*
X155003961Y-242127503D01*
X155003961Y-242127503D02*
X154956342Y-242175122D01*
X154956342Y-242175122D02*
X154861104Y-242222741D01*
X154861104Y-242222741D02*
X154765866Y-242222741D01*
X154765866Y-242222741D02*
X154670628Y-242175122D01*
X154670628Y-242175122D02*
X154623009Y-242127503D01*
X154623009Y-242127503D02*
X154575390Y-242032265D01*
X154575390Y-242032265D02*
X154575390Y-241698932D01*
D11*
X207340072Y-246451601D02*
X207279596Y-246421363D01*
X207279596Y-246421363D02*
X207188882Y-246421363D01*
X207188882Y-246421363D02*
X207098167Y-246451601D01*
X207098167Y-246451601D02*
X207037691Y-246512077D01*
X207037691Y-246512077D02*
X207007453Y-246572553D01*
X207007453Y-246572553D02*
X206977215Y-246693505D01*
X206977215Y-246693505D02*
X206977215Y-246784220D01*
X206977215Y-246784220D02*
X207007453Y-246905172D01*
X207007453Y-246905172D02*
X207037691Y-246965648D01*
X207037691Y-246965648D02*
X207098167Y-247026125D01*
X207098167Y-247026125D02*
X207188882Y-247056363D01*
X207188882Y-247056363D02*
X207249358Y-247056363D01*
X207249358Y-247056363D02*
X207340072Y-247026125D01*
X207340072Y-247026125D02*
X207370310Y-246995886D01*
X207370310Y-246995886D02*
X207370310Y-246784220D01*
X207370310Y-246784220D02*
X207249358Y-246784220D01*
X207642453Y-247056363D02*
X207642453Y-246421363D01*
X207642453Y-246421363D02*
X208005310Y-247056363D01*
X208005310Y-247056363D02*
X208005310Y-246421363D01*
X208307691Y-247056363D02*
X208307691Y-246421363D01*
X208307691Y-246421363D02*
X208458881Y-246421363D01*
X208458881Y-246421363D02*
X208549596Y-246451601D01*
X208549596Y-246451601D02*
X208610072Y-246512077D01*
X208610072Y-246512077D02*
X208640310Y-246572553D01*
X208640310Y-246572553D02*
X208670548Y-246693505D01*
X208670548Y-246693505D02*
X208670548Y-246784220D01*
X208670548Y-246784220D02*
X208640310Y-246905172D01*
X208640310Y-246905172D02*
X208610072Y-246965648D01*
X208610072Y-246965648D02*
X208549596Y-247026125D01*
X208549596Y-247026125D02*
X208458881Y-247056363D01*
X208458881Y-247056363D02*
X208307691Y-247056363D01*
X209426501Y-247056363D02*
X209426501Y-246421363D01*
X209426501Y-246421363D02*
X209638168Y-246874934D01*
X209638168Y-246874934D02*
X209849834Y-246421363D01*
X209849834Y-246421363D02*
X209849834Y-247056363D01*
X210152215Y-247056363D02*
X210152215Y-246421363D01*
X210424358Y-247026125D02*
X210515072Y-247056363D01*
X210515072Y-247056363D02*
X210666263Y-247056363D01*
X210666263Y-247056363D02*
X210726739Y-247026125D01*
X210726739Y-247026125D02*
X210756977Y-246995886D01*
X210756977Y-246995886D02*
X210787215Y-246935410D01*
X210787215Y-246935410D02*
X210787215Y-246874934D01*
X210787215Y-246874934D02*
X210756977Y-246814458D01*
X210756977Y-246814458D02*
X210726739Y-246784220D01*
X210726739Y-246784220D02*
X210666263Y-246753982D01*
X210666263Y-246753982D02*
X210545310Y-246723744D01*
X210545310Y-246723744D02*
X210484834Y-246693505D01*
X210484834Y-246693505D02*
X210454596Y-246663267D01*
X210454596Y-246663267D02*
X210424358Y-246602791D01*
X210424358Y-246602791D02*
X210424358Y-246542315D01*
X210424358Y-246542315D02*
X210454596Y-246481839D01*
X210454596Y-246481839D02*
X210484834Y-246451601D01*
X210484834Y-246451601D02*
X210545310Y-246421363D01*
X210545310Y-246421363D02*
X210696501Y-246421363D01*
X210696501Y-246421363D02*
X210787215Y-246451601D01*
X211180310Y-246421363D02*
X211301263Y-246421363D01*
X211301263Y-246421363D02*
X211361739Y-246451601D01*
X211361739Y-246451601D02*
X211422215Y-246512077D01*
X211422215Y-246512077D02*
X211452453Y-246633029D01*
X211452453Y-246633029D02*
X211452453Y-246844696D01*
X211452453Y-246844696D02*
X211422215Y-246965648D01*
X211422215Y-246965648D02*
X211361739Y-247026125D01*
X211361739Y-247026125D02*
X211301263Y-247056363D01*
X211301263Y-247056363D02*
X211180310Y-247056363D01*
X211180310Y-247056363D02*
X211119834Y-247026125D01*
X211119834Y-247026125D02*
X211059358Y-246965648D01*
X211059358Y-246965648D02*
X211029120Y-246844696D01*
X211029120Y-246844696D02*
X211029120Y-246633029D01*
X211029120Y-246633029D02*
X211059358Y-246512077D01*
X211059358Y-246512077D02*
X211119834Y-246451601D01*
X211119834Y-246451601D02*
X211180310Y-246421363D01*
X212178168Y-247026125D02*
X212268882Y-247056363D01*
X212268882Y-247056363D02*
X212420073Y-247056363D01*
X212420073Y-247056363D02*
X212480549Y-247026125D01*
X212480549Y-247026125D02*
X212510787Y-246995886D01*
X212510787Y-246995886D02*
X212541025Y-246935410D01*
X212541025Y-246935410D02*
X212541025Y-246874934D01*
X212541025Y-246874934D02*
X212510787Y-246814458D01*
X212510787Y-246814458D02*
X212480549Y-246784220D01*
X212480549Y-246784220D02*
X212420073Y-246753982D01*
X212420073Y-246753982D02*
X212299120Y-246723744D01*
X212299120Y-246723744D02*
X212238644Y-246693505D01*
X212238644Y-246693505D02*
X212208406Y-246663267D01*
X212208406Y-246663267D02*
X212178168Y-246602791D01*
X212178168Y-246602791D02*
X212178168Y-246542315D01*
X212178168Y-246542315D02*
X212208406Y-246481839D01*
X212208406Y-246481839D02*
X212238644Y-246451601D01*
X212238644Y-246451601D02*
X212299120Y-246421363D01*
X212299120Y-246421363D02*
X212450311Y-246421363D01*
X212450311Y-246421363D02*
X212541025Y-246451601D01*
X213176025Y-246995886D02*
X213145787Y-247026125D01*
X213145787Y-247026125D02*
X213055073Y-247056363D01*
X213055073Y-247056363D02*
X212994597Y-247056363D01*
X212994597Y-247056363D02*
X212903882Y-247026125D01*
X212903882Y-247026125D02*
X212843406Y-246965648D01*
X212843406Y-246965648D02*
X212813168Y-246905172D01*
X212813168Y-246905172D02*
X212782930Y-246784220D01*
X212782930Y-246784220D02*
X212782930Y-246693505D01*
X212782930Y-246693505D02*
X212813168Y-246572553D01*
X212813168Y-246572553D02*
X212843406Y-246512077D01*
X212843406Y-246512077D02*
X212903882Y-246451601D01*
X212903882Y-246451601D02*
X212994597Y-246421363D01*
X212994597Y-246421363D02*
X213055073Y-246421363D01*
X213055073Y-246421363D02*
X213145787Y-246451601D01*
X213145787Y-246451601D02*
X213176025Y-246481839D01*
X213448168Y-247056363D02*
X213448168Y-246421363D01*
X213811025Y-247056363D02*
X213538882Y-246693505D01*
X213811025Y-246421363D02*
X213448168Y-246784220D01*
X214929835Y-247056363D02*
X214718168Y-246753982D01*
X214566978Y-247056363D02*
X214566978Y-246421363D01*
X214566978Y-246421363D02*
X214808883Y-246421363D01*
X214808883Y-246421363D02*
X214869359Y-246451601D01*
X214869359Y-246451601D02*
X214899597Y-246481839D01*
X214899597Y-246481839D02*
X214929835Y-246542315D01*
X214929835Y-246542315D02*
X214929835Y-246633029D01*
X214929835Y-246633029D02*
X214899597Y-246693505D01*
X214899597Y-246693505D02*
X214869359Y-246723744D01*
X214869359Y-246723744D02*
X214808883Y-246753982D01*
X214808883Y-246753982D02*
X214566978Y-246753982D01*
X215171740Y-247026125D02*
X215262454Y-247056363D01*
X215262454Y-247056363D02*
X215413645Y-247056363D01*
X215413645Y-247056363D02*
X215474121Y-247026125D01*
X215474121Y-247026125D02*
X215504359Y-246995886D01*
X215504359Y-246995886D02*
X215534597Y-246935410D01*
X215534597Y-246935410D02*
X215534597Y-246874934D01*
X215534597Y-246874934D02*
X215504359Y-246814458D01*
X215504359Y-246814458D02*
X215474121Y-246784220D01*
X215474121Y-246784220D02*
X215413645Y-246753982D01*
X215413645Y-246753982D02*
X215292692Y-246723744D01*
X215292692Y-246723744D02*
X215232216Y-246693505D01*
X215232216Y-246693505D02*
X215201978Y-246663267D01*
X215201978Y-246663267D02*
X215171740Y-246602791D01*
X215171740Y-246602791D02*
X215171740Y-246542315D01*
X215171740Y-246542315D02*
X215201978Y-246481839D01*
X215201978Y-246481839D02*
X215232216Y-246451601D01*
X215232216Y-246451601D02*
X215292692Y-246421363D01*
X215292692Y-246421363D02*
X215443883Y-246421363D01*
X215443883Y-246421363D02*
X215534597Y-246451601D01*
X215716026Y-246421363D02*
X216078883Y-246421363D01*
X215897454Y-247056363D02*
X215897454Y-246421363D01*
X216774360Y-247056363D02*
X216774360Y-246421363D01*
X216774360Y-246421363D02*
X216986027Y-246874934D01*
X216986027Y-246874934D02*
X217197693Y-246421363D01*
X217197693Y-246421363D02*
X217197693Y-247056363D01*
X217621026Y-246421363D02*
X217741979Y-246421363D01*
X217741979Y-246421363D02*
X217802455Y-246451601D01*
X217802455Y-246451601D02*
X217862931Y-246512077D01*
X217862931Y-246512077D02*
X217893169Y-246633029D01*
X217893169Y-246633029D02*
X217893169Y-246844696D01*
X217893169Y-246844696D02*
X217862931Y-246965648D01*
X217862931Y-246965648D02*
X217802455Y-247026125D01*
X217802455Y-247026125D02*
X217741979Y-247056363D01*
X217741979Y-247056363D02*
X217621026Y-247056363D01*
X217621026Y-247056363D02*
X217560550Y-247026125D01*
X217560550Y-247026125D02*
X217500074Y-246965648D01*
X217500074Y-246965648D02*
X217469836Y-246844696D01*
X217469836Y-246844696D02*
X217469836Y-246633029D01*
X217469836Y-246633029D02*
X217500074Y-246512077D01*
X217500074Y-246512077D02*
X217560550Y-246451601D01*
X217560550Y-246451601D02*
X217621026Y-246421363D01*
X218135074Y-247026125D02*
X218225788Y-247056363D01*
X218225788Y-247056363D02*
X218376979Y-247056363D01*
X218376979Y-247056363D02*
X218437455Y-247026125D01*
X218437455Y-247026125D02*
X218467693Y-246995886D01*
X218467693Y-246995886D02*
X218497931Y-246935410D01*
X218497931Y-246935410D02*
X218497931Y-246874934D01*
X218497931Y-246874934D02*
X218467693Y-246814458D01*
X218467693Y-246814458D02*
X218437455Y-246784220D01*
X218437455Y-246784220D02*
X218376979Y-246753982D01*
X218376979Y-246753982D02*
X218256026Y-246723744D01*
X218256026Y-246723744D02*
X218195550Y-246693505D01*
X218195550Y-246693505D02*
X218165312Y-246663267D01*
X218165312Y-246663267D02*
X218135074Y-246602791D01*
X218135074Y-246602791D02*
X218135074Y-246542315D01*
X218135074Y-246542315D02*
X218165312Y-246481839D01*
X218165312Y-246481839D02*
X218195550Y-246451601D01*
X218195550Y-246451601D02*
X218256026Y-246421363D01*
X218256026Y-246421363D02*
X218407217Y-246421363D01*
X218407217Y-246421363D02*
X218497931Y-246451601D01*
X218770074Y-247056363D02*
X218770074Y-246421363D01*
D13*
X209116500Y-227894000D02*
X209116500Y-229814000D01*
X209116500Y-229814000D02*
X211801500Y-229814000D01*
X211801500Y-227894000D02*
X209116500Y-227894000D01*
X147884000Y-192389504D02*
X147884000Y-195074503D01*
X149804000Y-192389504D02*
X147884000Y-192389504D01*
X149804000Y-195074503D02*
X149804000Y-192389504D01*
X201769000Y-159138499D02*
X201769000Y-161058499D01*
X201769000Y-161058499D02*
X204454000Y-161058499D01*
X204454000Y-159138499D02*
X201769000Y-159138499D01*
X182465000Y-190810000D02*
X182465000Y-192730000D01*
X182465000Y-192730000D02*
X185150000Y-192730000D01*
X185150000Y-190810000D02*
X182465000Y-190810000D01*
X168204000Y-164528003D02*
X168204000Y-167213002D01*
X170124000Y-164528003D02*
X168204000Y-164528003D01*
X170124000Y-167213002D02*
X170124000Y-164528003D01*
X189286000Y-196102502D02*
X189286000Y-198787501D01*
X191206000Y-196102502D02*
X189286000Y-196102502D01*
X191206000Y-198787501D02*
X191206000Y-196102502D01*
X209116500Y-230180000D02*
X209116500Y-232100000D01*
X209116500Y-232100000D02*
X211801500Y-232100000D01*
X211801500Y-230180000D02*
X209116500Y-230180000D01*
X150678000Y-160875001D02*
X150678000Y-163560000D01*
X152598000Y-160875001D02*
X150678000Y-160875001D01*
X152598000Y-163560000D02*
X152598000Y-160875001D01*
X216113000Y-224629001D02*
X216113000Y-227314000D01*
X218033000Y-224629001D02*
X216113000Y-224629001D01*
X218033000Y-227314000D02*
X218033000Y-224629001D01*
X147159000Y-168712000D02*
X147159000Y-170632000D01*
X147159000Y-170632000D02*
X149844000Y-170632000D01*
X149844000Y-168712000D02*
X147159000Y-168712000D01*
X201769000Y-168790499D02*
X201769000Y-170710499D01*
X201769000Y-170710499D02*
X204454000Y-170710499D01*
X204454000Y-168790499D02*
X201769000Y-168790499D01*
X157573000Y-208082000D02*
X157573000Y-210002000D01*
X157573000Y-210002000D02*
X160258000Y-210002000D01*
X160258000Y-208082000D02*
X157573000Y-208082000D01*
X216113000Y-221073001D02*
X216113000Y-223758000D01*
X218033000Y-221073001D02*
X216113000Y-221073001D01*
X218033000Y-223758000D02*
X218033000Y-221073001D01*
X165193000Y-235260000D02*
X165193000Y-237180000D01*
X165193000Y-237180000D02*
X167878000Y-237180000D01*
X167878000Y-235260000D02*
X165193000Y-235260000D01*
X183404742Y-240269500D02*
X183879258Y-240269500D01*
X183404742Y-241314500D02*
X183879258Y-241314500D01*
X189286000Y-192546502D02*
X189286000Y-195231501D01*
X191206000Y-192546502D02*
X189286000Y-192546502D01*
X191206000Y-195231501D02*
X191206000Y-192546502D01*
X183339742Y-242174500D02*
X183814258Y-242174500D01*
X183339742Y-243219500D02*
X183814258Y-243219500D01*
X170273000Y-172619002D02*
X170273000Y-174539002D01*
X170273000Y-174539002D02*
X172958000Y-174539002D01*
X172958000Y-172619002D02*
X170273000Y-172619002D01*
X201261000Y-182444000D02*
X201261000Y-184364000D01*
X201261000Y-184364000D02*
X203946000Y-184364000D01*
X203946000Y-182444000D02*
X201261000Y-182444000D01*
X190500000Y-238232000D02*
X188550000Y-238232000D01*
X190500000Y-238232000D02*
X192450000Y-238232000D01*
X190500000Y-243352000D02*
X188550000Y-243352000D01*
X190500000Y-243352000D02*
X192450000Y-243352000D01*
X187800000Y-238327000D02*
X187560000Y-237997000D01*
X188040000Y-237997000D01*
X187800000Y-238327000D01*
G36*
X187800000Y-238327000D02*
G01*
X187560000Y-237997000D01*
X188040000Y-237997000D01*
X187800000Y-238327000D01*
G37*
X203470742Y-240269500D02*
X203945258Y-240269500D01*
X203470742Y-241314500D02*
X203945258Y-241314500D01*
X140555000Y-196906000D02*
X140555000Y-198826000D01*
X140555000Y-198826000D02*
X143240000Y-198826000D01*
X143240000Y-196906000D02*
X140555000Y-196906000D01*
X153042500Y-224453500D02*
X153042500Y-227138499D01*
X154962500Y-224453500D02*
X153042500Y-224453500D01*
X154962500Y-227138499D02*
X154962500Y-224453500D01*
X192195500Y-216972000D02*
X192195500Y-218892000D01*
X192195500Y-218892000D02*
X194880500Y-218892000D01*
X194880500Y-216972000D02*
X192195500Y-216972000D01*
X149874500Y-182525002D02*
X149874500Y-184445002D01*
X149874500Y-184445002D02*
X152559500Y-184445002D01*
X152559500Y-182525002D02*
X149874500Y-182525002D01*
X203470742Y-242047500D02*
X203945258Y-242047500D01*
X203470742Y-243092500D02*
X203945258Y-243092500D01*
X217087500Y-176840000D02*
X217087500Y-178760000D01*
X217087500Y-178760000D02*
X219772500Y-178760000D01*
X219772500Y-176840000D02*
X217087500Y-176840000D01*
X132722500Y-210229500D02*
X132722500Y-212914499D01*
X134642500Y-210229500D02*
X132722500Y-210229500D01*
X134642500Y-212914499D02*
X134642500Y-210229500D01*
X131586500Y-181666000D02*
X131586500Y-183586000D01*
X131586500Y-183586000D02*
X134271500Y-183586000D01*
X134271500Y-181666000D02*
X131586500Y-181666000D01*
X195636000Y-195848502D02*
X195636000Y-198533501D01*
X197556000Y-195848502D02*
X195636000Y-195848502D01*
X197556000Y-198533501D02*
X197556000Y-195848502D01*
X179417000Y-172600499D02*
X179417000Y-174520499D01*
X179417000Y-174520499D02*
X182102000Y-174520499D01*
X182102000Y-172600499D02*
X179417000Y-172600499D01*
X211716500Y-173829001D02*
X211716500Y-176514000D01*
X213636500Y-173829001D02*
X211716500Y-173829001D01*
X213636500Y-176514000D02*
X213636500Y-173829001D01*
X195636000Y-184164502D02*
X195636000Y-186849501D01*
X197556000Y-184164502D02*
X195636000Y-184164502D01*
X197556000Y-186849501D02*
X197556000Y-184164502D01*
X167012500Y-224550502D02*
X167012500Y-227235501D01*
X168932500Y-224550502D02*
X167012500Y-224550502D01*
X168932500Y-227235501D02*
X168932500Y-224550502D01*
X186492000Y-220897500D02*
X186492000Y-223582499D01*
X188412000Y-220897500D02*
X186492000Y-220897500D01*
X188412000Y-223582499D02*
X188412000Y-220897500D01*
X192800502Y-202240000D02*
X192800502Y-204160000D01*
X192800502Y-204160000D02*
X195485501Y-204160000D01*
X195485501Y-202240000D02*
X192800502Y-202240000D01*
X177348000Y-164685001D02*
X177348000Y-167370000D01*
X179268000Y-164685001D02*
X177348000Y-164685001D01*
X179268000Y-167370000D02*
X179268000Y-164685001D01*
X144152500Y-213882502D02*
X144152500Y-216567501D01*
X146072500Y-213882502D02*
X144152500Y-213882502D01*
X146072500Y-216567501D02*
X146072500Y-213882502D01*
X180608502Y-202240000D02*
X180608502Y-204160000D01*
X180608502Y-204160000D02*
X183293501Y-204160000D01*
X183293501Y-202240000D02*
X180608502Y-202240000D01*
X137156000Y-216972000D02*
X137156000Y-218892000D01*
X137156000Y-218892000D02*
X139841000Y-218892000D01*
X139841000Y-216972000D02*
X137156000Y-216972000D01*
X140712000Y-216972000D02*
X140712000Y-218892000D01*
X140712000Y-218892000D02*
X143397000Y-218892000D01*
X143397000Y-216972000D02*
X140712000Y-216972000D01*
X131665000Y-196906000D02*
X131665000Y-198826000D01*
X131665000Y-198826000D02*
X134350000Y-198826000D01*
X134350000Y-196906000D02*
X131665000Y-196906000D01*
X156774000Y-184164502D02*
X156774000Y-186849501D01*
X158694000Y-184164502D02*
X156774000Y-184164502D01*
X158694000Y-186849501D02*
X158694000Y-184164502D01*
X170273000Y-162713002D02*
X170273000Y-164633002D01*
X170273000Y-164633002D02*
X172958000Y-164633002D01*
X172958000Y-162713002D02*
X170273000Y-162713002D01*
X201769000Y-163964499D02*
X201769000Y-165884499D01*
X201769000Y-165884499D02*
X204454000Y-165884499D01*
X204454000Y-163964499D02*
X201769000Y-163964499D01*
X155328500Y-224453500D02*
X155328500Y-227138499D01*
X157248500Y-224453500D02*
X155328500Y-224453500D01*
X157248500Y-227138499D02*
X157248500Y-224453500D01*
X164726500Y-210229500D02*
X164726500Y-212914499D01*
X166646500Y-210229500D02*
X164726500Y-210229500D01*
X166646500Y-212914499D02*
X166646500Y-210229500D01*
X170744000Y-196005500D02*
X170744000Y-198690499D01*
X172664000Y-196005500D02*
X170744000Y-196005500D01*
X172664000Y-198690499D02*
X172664000Y-196005500D01*
X163188242Y-238364500D02*
X163662758Y-238364500D01*
X163188242Y-239409500D02*
X163662758Y-239409500D01*
X161854000Y-195848502D02*
X161854000Y-198533501D01*
X163774000Y-195848502D02*
X161854000Y-195848502D01*
X163774000Y-198533501D02*
X163774000Y-195848502D01*
X204780000Y-195848502D02*
X204780000Y-198533501D01*
X206700000Y-195848502D02*
X204780000Y-195848502D01*
X206700000Y-198533501D02*
X206700000Y-195848502D01*
X212594000Y-216972000D02*
X212594000Y-218892000D01*
X212594000Y-218892000D02*
X215279000Y-218892000D01*
X215279000Y-216972000D02*
X212594000Y-216972000D01*
X153980000Y-165447001D02*
X153980000Y-168132000D01*
X155900000Y-165447001D02*
X153980000Y-165447001D01*
X155900000Y-168132000D02*
X155900000Y-165447001D01*
X184206000Y-224453500D02*
X184206000Y-227138499D01*
X186126000Y-224453500D02*
X184206000Y-224453500D01*
X186126000Y-227138499D02*
X186126000Y-224453500D01*
X175570000Y-186861500D02*
X175570000Y-189546499D01*
X177490000Y-186861500D02*
X175570000Y-186861500D01*
X177490000Y-189546499D02*
X177490000Y-186861500D01*
X153352000Y-182533002D02*
X153352000Y-184453002D01*
X153352000Y-184453002D02*
X156037000Y-184453002D01*
X156037000Y-182533002D02*
X153352000Y-182533002D01*
X140712000Y-205796000D02*
X140712000Y-207716000D01*
X140712000Y-207716000D02*
X143397000Y-207716000D01*
X143397000Y-205796000D02*
X140712000Y-205796000D01*
X140633500Y-230180000D02*
X140633500Y-232100000D01*
X140633500Y-232100000D02*
X143318500Y-232100000D01*
X143318500Y-230180000D02*
X140633500Y-230180000D01*
X156049000Y-163886000D02*
X156049000Y-165806000D01*
X156049000Y-165806000D02*
X158734000Y-165806000D01*
X158734000Y-163886000D02*
X156049000Y-163886000D01*
X195636000Y-220994502D02*
X195636000Y-223679501D01*
X197556000Y-220994502D02*
X195636000Y-220994502D01*
X197556000Y-223679501D02*
X197556000Y-220994502D01*
X199700000Y-165525500D02*
X199700000Y-168210499D01*
X201620000Y-165525500D02*
X199700000Y-165525500D01*
X201620000Y-168210499D02*
X201620000Y-165525500D01*
X195636000Y-210072502D02*
X195636000Y-212757501D01*
X197556000Y-210072502D02*
X195636000Y-210072502D01*
X197556000Y-212757501D02*
X197556000Y-210072502D01*
X197922000Y-220994502D02*
X197922000Y-223679501D01*
X199842000Y-220994502D02*
X197922000Y-220994502D01*
X199842000Y-223679501D02*
X199842000Y-220994502D01*
X155328500Y-220994502D02*
X155328500Y-223679501D01*
X157248500Y-220994502D02*
X155328500Y-220994502D01*
X157248500Y-223679501D02*
X157248500Y-220994502D01*
X188542500Y-216948000D02*
X188542500Y-218868000D01*
X188542500Y-218868000D02*
X191227500Y-218868000D01*
X191227500Y-216948000D02*
X188542500Y-216948000D01*
X143995500Y-178401001D02*
X143995500Y-181086000D01*
X145915500Y-178401001D02*
X143995500Y-178401001D01*
X145915500Y-181086000D02*
X145915500Y-178401001D01*
X161854000Y-184164502D02*
X161854000Y-186849501D01*
X163774000Y-184164502D02*
X161854000Y-184164502D01*
X163774000Y-186849501D02*
X163774000Y-184164502D01*
X167225000Y-198938000D02*
X167225000Y-200858000D01*
X167225000Y-200858000D02*
X169910000Y-200858000D01*
X169910000Y-198938000D02*
X167225000Y-198938000D01*
X129517500Y-173829001D02*
X129517500Y-176514000D01*
X131437500Y-173829001D02*
X129517500Y-173829001D01*
X131437500Y-176514000D02*
X131437500Y-173829001D01*
X150461000Y-235260000D02*
X150461000Y-237180000D01*
X150461000Y-237180000D02*
X153146000Y-237180000D01*
X153146000Y-235260000D02*
X150461000Y-235260000D01*
X195636000Y-224550502D02*
X195636000Y-227235501D01*
X197556000Y-224550502D02*
X195636000Y-224550502D01*
X197556000Y-227235501D02*
X197556000Y-224550502D01*
X192195500Y-205796000D02*
X192195500Y-207716000D01*
X192195500Y-207716000D02*
X194880500Y-207716000D01*
X194880500Y-205796000D02*
X192195500Y-205796000D01*
X192195500Y-208082000D02*
X192195500Y-210002000D01*
X192195500Y-210002000D02*
X194880500Y-210002000D01*
X194880500Y-208082000D02*
X192195500Y-208082000D01*
X176249064Y-241454000D02*
X175794936Y-241454000D01*
X176249064Y-242924000D02*
X175794936Y-242924000D01*
X185845500Y-199192000D02*
X185845500Y-201112000D01*
X185845500Y-201112000D02*
X188530500Y-201112000D01*
X188530500Y-199192000D02*
X185845500Y-199192000D01*
X156774000Y-195945504D02*
X156774000Y-198630503D01*
X158694000Y-195945504D02*
X156774000Y-195945504D01*
X158694000Y-198630503D02*
X158694000Y-195945504D01*
X182386500Y-182428000D02*
X182386500Y-184348000D01*
X182386500Y-184348000D02*
X185071500Y-184348000D01*
X185071500Y-182428000D02*
X182386500Y-182428000D01*
X157827001Y-202240000D02*
X157827001Y-204160000D01*
X157827001Y-204160000D02*
X160512000Y-204160000D01*
X160512000Y-202240000D02*
X157827001Y-202240000D01*
X167303500Y-190731501D02*
X167303500Y-192651501D01*
X167303500Y-192651501D02*
X169988500Y-192651501D01*
X169988500Y-190731501D02*
X167303500Y-190731501D01*
X149523500Y-199035002D02*
X149523500Y-200955002D01*
X149523500Y-200955002D02*
X152208500Y-200955002D01*
X152208500Y-199035002D02*
X149523500Y-199035002D01*
X138407500Y-178401001D02*
X138407500Y-181086000D01*
X140327500Y-178401001D02*
X138407500Y-178401001D01*
X140327500Y-181086000D02*
X140327500Y-178401001D01*
X212672500Y-230180000D02*
X212672500Y-232100000D01*
X212672500Y-232100000D02*
X215357500Y-232100000D01*
X215357500Y-230180000D02*
X212672500Y-230180000D01*
X199700000Y-160953500D02*
X199700000Y-163638499D01*
X201620000Y-160953500D02*
X199700000Y-160953500D01*
X201620000Y-163638499D02*
X201620000Y-160953500D01*
X175570000Y-194149001D02*
X175570000Y-196834000D01*
X177490000Y-194149001D02*
X175570000Y-194149001D01*
X177490000Y-196834000D02*
X177490000Y-194149001D01*
X156049000Y-159060000D02*
X156049000Y-160980000D01*
X156049000Y-160980000D02*
X158734000Y-160980000D01*
X158734000Y-159060000D02*
X156049000Y-159060000D01*
X137156000Y-208066000D02*
X137156000Y-209986000D01*
X137156000Y-209986000D02*
X139841000Y-209986000D01*
X139841000Y-208066000D02*
X137156000Y-208066000D01*
X218787000Y-166680000D02*
X218787000Y-168600000D01*
X218787000Y-168600000D02*
X221472000Y-168600000D01*
X221472000Y-166680000D02*
X218787000Y-166680000D01*
X206128500Y-178401001D02*
X206128500Y-181086000D01*
X208048500Y-178401001D02*
X206128500Y-178401001D01*
X208048500Y-181086000D02*
X208048500Y-178401001D01*
X135008500Y-213785500D02*
X135008500Y-216470499D01*
X136928500Y-213785500D02*
X135008500Y-213785500D01*
X136928500Y-216470499D02*
X136928500Y-213785500D01*
X144152500Y-220897500D02*
X144152500Y-223582499D01*
X146072500Y-220897500D02*
X144152500Y-220897500D01*
X146072500Y-223582499D02*
X146072500Y-220897500D01*
X153042500Y-220994502D02*
X153042500Y-223679501D01*
X154962500Y-220994502D02*
X153042500Y-220994502D01*
X154962500Y-223679501D02*
X154962500Y-220994502D01*
X147159000Y-163886000D02*
X147159000Y-165806000D01*
X147159000Y-165806000D02*
X149844000Y-165806000D01*
X149844000Y-163886000D02*
X147159000Y-163886000D01*
X212594000Y-219258000D02*
X212594000Y-221178000D01*
X212594000Y-221178000D02*
X215279000Y-221178000D01*
X215279000Y-219258000D02*
X212594000Y-219258000D01*
X215018500Y-178401001D02*
X215018500Y-181086000D01*
X216938500Y-178401001D02*
X215018500Y-178401001D01*
X216938500Y-181086000D02*
X216938500Y-178401001D01*
X208197500Y-172014000D02*
X208197500Y-173934000D01*
X208197500Y-173934000D02*
X210882500Y-173934000D01*
X210882500Y-172014000D02*
X208197500Y-172014000D01*
X161129000Y-219258000D02*
X161129000Y-221178000D01*
X161129000Y-221178000D02*
X163814000Y-221178000D01*
X163814000Y-219258000D02*
X161129000Y-219258000D01*
X215231000Y-193604000D02*
X215231000Y-195524000D01*
X215231000Y-195524000D02*
X217916000Y-195524000D01*
X217916000Y-193604000D02*
X215231000Y-193604000D01*
X184206000Y-213785500D02*
X184206000Y-216470499D01*
X186126000Y-213785500D02*
X184206000Y-213785500D01*
X186126000Y-216470499D02*
X186126000Y-213785500D01*
X185942500Y-182428000D02*
X185942500Y-184348000D01*
X185942500Y-184348000D02*
X188627500Y-184348000D01*
X188627500Y-182428000D02*
X185942500Y-182428000D01*
X175570000Y-222851001D02*
X175570000Y-225536000D01*
X177490000Y-222851001D02*
X175570000Y-222851001D01*
X177490000Y-225536000D02*
X177490000Y-222851001D01*
X159568000Y-165447001D02*
X159568000Y-168132000D01*
X161488000Y-165447001D02*
X159568000Y-165447001D01*
X161488000Y-168132000D02*
X161488000Y-165447001D01*
X209038000Y-216972000D02*
X209038000Y-218892000D01*
X209038000Y-218892000D02*
X211723000Y-218892000D01*
X211723000Y-216972000D02*
X209038000Y-216972000D01*
X204683000Y-213531500D02*
X204683000Y-216216499D01*
X206603000Y-213531500D02*
X204683000Y-213531500D01*
X206603000Y-216216499D02*
X206603000Y-213531500D01*
X140633500Y-227894000D02*
X140633500Y-229814000D01*
X140633500Y-229814000D02*
X143318500Y-229814000D01*
X143318500Y-227894000D02*
X140633500Y-227894000D01*
X146438500Y-220897500D02*
X146438500Y-223582499D01*
X148358500Y-220897500D02*
X146438500Y-220897500D01*
X148358500Y-223582499D02*
X148358500Y-220897500D01*
X138015000Y-161600000D02*
X138015000Y-163520000D01*
X138015000Y-163520000D02*
X140700000Y-163520000D01*
X140700000Y-161600000D02*
X138015000Y-161600000D01*
X218399000Y-210072502D02*
X218399000Y-212757501D01*
X220319000Y-210072502D02*
X218399000Y-210072502D01*
X220319000Y-212757501D02*
X220319000Y-210072502D01*
X167012500Y-213882502D02*
X167012500Y-216567501D01*
X168932500Y-213882502D02*
X167012500Y-213882502D01*
X168932500Y-216567501D02*
X168932500Y-213882502D01*
X204780000Y-192292502D02*
X204780000Y-194977501D01*
X206700000Y-192292502D02*
X204780000Y-192292502D01*
X206700000Y-194977501D02*
X206700000Y-192292502D01*
X127448000Y-228853999D02*
X127448000Y-223714001D01*
X130108000Y-223714001D02*
X127448000Y-223714001D01*
X130108000Y-228853999D02*
X127448000Y-228853999D01*
X130108000Y-228853999D02*
X130108000Y-223714001D01*
X130108000Y-230124000D02*
X130108000Y-231454000D01*
X130108000Y-231454000D02*
X128778000Y-231454000D01*
X153042500Y-210326502D02*
X153042500Y-213011501D01*
X154962500Y-210326502D02*
X153042500Y-210326502D01*
X154962500Y-213011501D02*
X154962500Y-210326502D01*
X218962500Y-196906000D02*
X218962500Y-198826000D01*
X218962500Y-198826000D02*
X221647500Y-198826000D01*
X221647500Y-196906000D02*
X218962500Y-196906000D01*
X175730920Y-238377000D02*
X176012080Y-238377000D01*
X175730920Y-239397000D02*
X176012080Y-239397000D01*
X211716500Y-178401001D02*
X211716500Y-181086000D01*
X213636500Y-178401001D02*
X211716500Y-178401001D01*
X213636500Y-181086000D02*
X213636500Y-178401001D01*
X180396000Y-184164502D02*
X180396000Y-186849501D01*
X182316000Y-184164502D02*
X180396000Y-184164502D01*
X182316000Y-186849501D02*
X182316000Y-184164502D01*
X197922000Y-224550502D02*
X197922000Y-227235501D01*
X199842000Y-224550502D02*
X197922000Y-224550502D01*
X199842000Y-227235501D02*
X199842000Y-224550502D01*
X183404742Y-238491500D02*
X183879258Y-238491500D01*
X183404742Y-239536500D02*
X183879258Y-239536500D01*
X179417000Y-162616000D02*
X179417000Y-164536000D01*
X179417000Y-164536000D02*
X182102000Y-164536000D01*
X182102000Y-162616000D02*
X179417000Y-162616000D01*
X210820000Y-238232000D02*
X208870000Y-238232000D01*
X210820000Y-238232000D02*
X212770000Y-238232000D01*
X210820000Y-243352000D02*
X208870000Y-243352000D01*
X210820000Y-243352000D02*
X212770000Y-243352000D01*
X208120000Y-238327000D02*
X207880000Y-237997000D01*
X208360000Y-237997000D01*
X208120000Y-238327000D01*
G36*
X208120000Y-238327000D02*
G01*
X207880000Y-237997000D01*
X208360000Y-237997000D01*
X208120000Y-238327000D01*
G37*
X199737000Y-178872000D02*
X199737000Y-180792000D01*
X199737000Y-180792000D02*
X202422000Y-180792000D01*
X202422000Y-178872000D02*
X199737000Y-178872000D01*
X163747500Y-198938000D02*
X163747500Y-200858000D01*
X163747500Y-200858000D02*
X166432500Y-200858000D01*
X166432500Y-198938000D02*
X163747500Y-198938000D01*
X157573000Y-219258000D02*
X157573000Y-221178000D01*
X157573000Y-221178000D02*
X160258000Y-221178000D01*
X160258000Y-219258000D02*
X157573000Y-219258000D01*
X131665000Y-166426000D02*
X131665000Y-168346000D01*
X131665000Y-168346000D02*
X134350000Y-168346000D01*
X134350000Y-166426000D02*
X131665000Y-166426000D01*
X180396000Y-192546502D02*
X180396000Y-195231501D01*
X182316000Y-192546502D02*
X180396000Y-192546502D01*
X182316000Y-195231501D02*
X182316000Y-192546502D01*
X197922000Y-213707001D02*
X197922000Y-216392000D01*
X199842000Y-213707001D02*
X197922000Y-213707001D01*
X199842000Y-216392000D02*
X199842000Y-213707001D01*
X195636000Y-192292502D02*
X195636000Y-194977501D01*
X197556000Y-192292502D02*
X195636000Y-192292502D01*
X197556000Y-194977501D02*
X197556000Y-192292502D01*
X129517500Y-178401001D02*
X129517500Y-181086000D01*
X131437500Y-178401001D02*
X129517500Y-178401001D01*
X131437500Y-181086000D02*
X131437500Y-178401001D01*
X204683000Y-224629001D02*
X204683000Y-227314000D01*
X206603000Y-224629001D02*
X204683000Y-224629001D01*
X206603000Y-227314000D02*
X206603000Y-224629001D01*
X184418500Y-235260000D02*
X184418500Y-237180000D01*
X184418500Y-237180000D02*
X187103500Y-237180000D01*
X187103500Y-235260000D02*
X184418500Y-235260000D01*
X197783500Y-190810000D02*
X197783500Y-192730000D01*
X197783500Y-192730000D02*
X200468500Y-192730000D01*
X200468500Y-190810000D02*
X197783500Y-190810000D01*
X206969000Y-224629001D02*
X206969000Y-227314000D01*
X208889000Y-224629001D02*
X206969000Y-224629001D01*
X208889000Y-227314000D02*
X208889000Y-224629001D01*
X153980000Y-160875001D02*
X153980000Y-163560000D01*
X155900000Y-160875001D02*
X153980000Y-160875001D01*
X155900000Y-163560000D02*
X155900000Y-160875001D01*
X140712000Y-208066000D02*
X140712000Y-209986000D01*
X140712000Y-209986000D02*
X143397000Y-209986000D01*
X143397000Y-208066000D02*
X140712000Y-208066000D01*
X220606500Y-178401001D02*
X220606500Y-181086000D01*
X222526500Y-178401001D02*
X220606500Y-178401001D01*
X222526500Y-181086000D02*
X222526500Y-178401001D01*
X196259500Y-235260000D02*
X196259500Y-237180000D01*
X196259500Y-237180000D02*
X198944500Y-237180000D01*
X198944500Y-235260000D02*
X196259500Y-235260000D01*
X199658502Y-202240000D02*
X199658502Y-204160000D01*
X199658502Y-204160000D02*
X202343501Y-204160000D01*
X202343501Y-202240000D02*
X199658502Y-202240000D01*
X169710500Y-238232000D02*
X167760500Y-238232000D01*
X169710500Y-238232000D02*
X171660500Y-238232000D01*
X169710500Y-243352000D02*
X167760500Y-243352000D01*
X169710500Y-243352000D02*
X171660500Y-243352000D01*
X167010500Y-238327000D02*
X166770500Y-237997000D01*
X167250500Y-237997000D01*
X167010500Y-238327000D01*
G36*
X167010500Y-238327000D02*
G01*
X166770500Y-237997000D01*
X167250500Y-237997000D01*
X167010500Y-238327000D01*
G37*
X170273000Y-167793002D02*
X170273000Y-169713002D01*
X170273000Y-169713002D02*
X172958000Y-169713002D01*
X172958000Y-167793002D02*
X170273000Y-167793002D01*
X137077500Y-230180000D02*
X137077500Y-232100000D01*
X137077500Y-232100000D02*
X139762500Y-232100000D01*
X139762500Y-230180000D02*
X137077500Y-230180000D01*
X161129000Y-208082000D02*
X161129000Y-210002000D01*
X161129000Y-210002000D02*
X163814000Y-210002000D01*
X163814000Y-208082000D02*
X161129000Y-208082000D01*
X136237000Y-193096000D02*
X136237000Y-195016000D01*
X136237000Y-195016000D02*
X138922000Y-195016000D01*
X138922000Y-193096000D02*
X136237000Y-193096000D01*
X161854000Y-192292502D02*
X161854000Y-194977501D01*
X163774000Y-192292502D02*
X161854000Y-192292502D01*
X163774000Y-194977501D02*
X163774000Y-192292502D01*
X167322000Y-182603501D02*
X167322000Y-184523501D01*
X167322000Y-184523501D02*
X170007000Y-184523501D01*
X170007000Y-182603501D02*
X167322000Y-182603501D01*
X147159000Y-159060000D02*
X147159000Y-160980000D01*
X147159000Y-160980000D02*
X149844000Y-160980000D01*
X149844000Y-159060000D02*
X147159000Y-159060000D01*
X132725206Y-220813396D02*
X132725206Y-223498395D01*
X134645206Y-220813396D02*
X132725206Y-220813396D01*
X134645206Y-223498395D02*
X134645206Y-220813396D01*
X195636000Y-213707001D02*
X195636000Y-216392000D01*
X197556000Y-213707001D02*
X195636000Y-213707001D01*
X197556000Y-216392000D02*
X197556000Y-213707001D01*
X138407500Y-173829001D02*
X138407500Y-176514000D01*
X140327500Y-173829001D02*
X138407500Y-173829001D01*
X140327500Y-176514000D02*
X140327500Y-173829001D01*
X147884000Y-195945504D02*
X147884000Y-198630503D01*
X149804000Y-195945504D02*
X147884000Y-195945504D01*
X149804000Y-198630503D02*
X149804000Y-195945504D01*
X195636000Y-187720501D02*
X195636000Y-190405500D01*
X197556000Y-187720501D02*
X195636000Y-187720501D01*
X197556000Y-190405500D02*
X197556000Y-187720501D01*
X206128500Y-173829001D02*
X206128500Y-176514000D01*
X208048500Y-173829001D02*
X206128500Y-173829001D01*
X208048500Y-176514000D02*
X208048500Y-173829001D01*
X137156000Y-219258000D02*
X137156000Y-221178000D01*
X137156000Y-221178000D02*
X139841000Y-221178000D01*
X139841000Y-219258000D02*
X137156000Y-219258000D01*
X197230420Y-240282000D02*
X197511580Y-240282000D01*
X197230420Y-241302000D02*
X197511580Y-241302000D01*
X144152500Y-210326502D02*
X144152500Y-213011501D01*
X146072500Y-210326502D02*
X144152500Y-210326502D01*
X146072500Y-213011501D02*
X146072500Y-210326502D01*
X164726500Y-213882502D02*
X164726500Y-216567501D01*
X166646500Y-213882502D02*
X164726500Y-213882502D01*
X166646500Y-216567501D02*
X166646500Y-213882502D01*
X150461000Y-178872000D02*
X150461000Y-180792000D01*
X150461000Y-180792000D02*
X153146000Y-180792000D01*
X153146000Y-178872000D02*
X150461000Y-178872000D01*
X188561000Y-205796000D02*
X188561000Y-207716000D01*
X188561000Y-207716000D02*
X191246000Y-207716000D01*
X191246000Y-205796000D02*
X188561000Y-205796000D01*
X132722500Y-224375001D02*
X132722500Y-227060000D01*
X134642500Y-224375001D02*
X132722500Y-224375001D01*
X134642500Y-227060000D02*
X134642500Y-224375001D01*
X143995500Y-173829001D02*
X143995500Y-176514000D01*
X145915500Y-173829001D02*
X143995500Y-173829001D01*
X145915500Y-176514000D02*
X145915500Y-173829001D01*
X216113000Y-213628502D02*
X216113000Y-216313501D01*
X218033000Y-213628502D02*
X216113000Y-213628502D01*
X218033000Y-216313501D02*
X218033000Y-213628502D01*
X140476501Y-172014000D02*
X140476501Y-173934000D01*
X140476501Y-173934000D02*
X143161500Y-173934000D01*
X143161500Y-172014000D02*
X140476501Y-172014000D01*
X197230420Y-238504000D02*
X197511580Y-238504000D01*
X197230420Y-239524000D02*
X197511580Y-239524000D01*
X135105500Y-173829001D02*
X135105500Y-176514000D01*
X137025500Y-173829001D02*
X135105500Y-173829001D01*
X137025500Y-176514000D02*
X137025500Y-173829001D01*
X204780000Y-184243001D02*
X204780000Y-186928000D01*
X206700000Y-184243001D02*
X204780000Y-184243001D01*
X206700000Y-186928000D02*
X206700000Y-184243001D01*
X185845500Y-190810000D02*
X185845500Y-192730000D01*
X185845500Y-192730000D02*
X188530500Y-192730000D01*
X188530500Y-190810000D02*
X185845500Y-190810000D01*
X192879000Y-163964499D02*
X192879000Y-165884499D01*
X192879000Y-165884499D02*
X195564000Y-165884499D01*
X195564000Y-163964499D02*
X192879000Y-163964499D01*
X157573000Y-216972000D02*
X157573000Y-218892000D01*
X157573000Y-218892000D02*
X160258000Y-218892000D01*
X160258000Y-216972000D02*
X157573000Y-216972000D01*
X216113000Y-210072502D02*
X216113000Y-212757501D01*
X218033000Y-210072502D02*
X216113000Y-210072502D01*
X218033000Y-212757501D02*
X218033000Y-210072502D01*
X157573000Y-227894000D02*
X157573000Y-229814000D01*
X157573000Y-229814000D02*
X160258000Y-229814000D01*
X160258000Y-227894000D02*
X157573000Y-227894000D01*
X197705000Y-182428000D02*
X197705000Y-184348000D01*
X197705000Y-184348000D02*
X200390000Y-184348000D01*
X200390000Y-182428000D02*
X197705000Y-182428000D01*
X141996742Y-242367500D02*
X142471258Y-242367500D01*
X141996742Y-243412500D02*
X142471258Y-243412500D01*
X170744000Y-187799001D02*
X170744000Y-190484000D01*
X172664000Y-187799001D02*
X170744000Y-187799001D01*
X172664000Y-190484000D02*
X172664000Y-187799001D01*
X206969000Y-209975500D02*
X206969000Y-212660499D01*
X208889000Y-209975500D02*
X206969000Y-209975500D01*
X208889000Y-212660499D02*
X208889000Y-209975500D01*
X150678000Y-165447001D02*
X150678000Y-168132000D01*
X152598000Y-165447001D02*
X150678000Y-165447001D01*
X152598000Y-168132000D02*
X152598000Y-165447001D01*
X156049000Y-168712000D02*
X156049000Y-170632000D01*
X156049000Y-170632000D02*
X158734000Y-170632000D01*
X158734000Y-168712000D02*
X156049000Y-168712000D01*
X206969000Y-213531500D02*
X206969000Y-216216499D01*
X208889000Y-213531500D02*
X206969000Y-213531500D01*
X208889000Y-216216499D02*
X208889000Y-213531500D01*
X161129000Y-227910000D02*
X161129000Y-229830000D01*
X161129000Y-229830000D02*
X163814000Y-229830000D01*
X163814000Y-227910000D02*
X161129000Y-227910000D01*
X145090000Y-160875001D02*
X145090000Y-163560000D01*
X147010000Y-160875001D02*
X145090000Y-160875001D01*
X147010000Y-163560000D02*
X147010000Y-160875001D01*
X210913000Y-161600000D02*
X210913000Y-163520000D01*
X210913000Y-163520000D02*
X213598000Y-163520000D01*
X213598000Y-161600000D02*
X210913000Y-161600000D01*
X215231000Y-190302000D02*
X215231000Y-192222000D01*
X215231000Y-192222000D02*
X217916000Y-192222000D01*
X217916000Y-190302000D02*
X215231000Y-190302000D01*
X205288000Y-165525500D02*
X205288000Y-168210499D01*
X207208000Y-165525500D02*
X205288000Y-165525500D01*
X207208000Y-168210499D02*
X207208000Y-165525500D01*
X218399000Y-221073001D02*
X218399000Y-223758000D01*
X220319000Y-221073001D02*
X218399000Y-221073001D01*
X220319000Y-223758000D02*
X220319000Y-221073001D01*
X204683000Y-209975500D02*
X204683000Y-212660499D01*
X206603000Y-209975500D02*
X204683000Y-209975500D01*
X206603000Y-212660499D02*
X206603000Y-209975500D01*
X175570000Y-212183001D02*
X175570000Y-214868000D01*
X177490000Y-212183001D02*
X175570000Y-212183001D01*
X177490000Y-214868000D02*
X177490000Y-212183001D01*
X215018500Y-173829001D02*
X215018500Y-176514000D01*
X216938500Y-173829001D02*
X215018500Y-173829001D01*
X216938500Y-176514000D02*
X216938500Y-173829001D01*
X137077500Y-227894000D02*
X137077500Y-229814000D01*
X137077500Y-229814000D02*
X139762500Y-229814000D01*
X139762500Y-227894000D02*
X137077500Y-227894000D01*
X192195500Y-227894000D02*
X192195500Y-229814000D01*
X192195500Y-229814000D02*
X194880500Y-229814000D01*
X194880500Y-227894000D02*
X192195500Y-227894000D01*
X136237000Y-190048000D02*
X136237000Y-191968000D01*
X136237000Y-191968000D02*
X138922000Y-191968000D01*
X138922000Y-190048000D02*
X136237000Y-190048000D01*
X184206000Y-210229500D02*
X184206000Y-212914499D01*
X186126000Y-210229500D02*
X184206000Y-210229500D01*
X186126000Y-212914499D02*
X186126000Y-210229500D01*
X217087500Y-172014000D02*
X217087500Y-173934000D01*
X217087500Y-173934000D02*
X219772500Y-173934000D01*
X219772500Y-172014000D02*
X217087500Y-172014000D01*
X192879000Y-155250000D02*
X192879000Y-157170000D01*
X192879000Y-157170000D02*
X195564000Y-157170000D01*
X195564000Y-155250000D02*
X192879000Y-155250000D01*
X161129000Y-230180000D02*
X161129000Y-232100000D01*
X161129000Y-232100000D02*
X163814000Y-232100000D01*
X163814000Y-230180000D02*
X161129000Y-230180000D01*
X159568000Y-160875001D02*
X159568000Y-163560000D01*
X161488000Y-160875001D02*
X159568000Y-160875001D01*
X161488000Y-163560000D02*
X161488000Y-160875001D01*
X131586501Y-172014000D02*
X131586501Y-173934000D01*
X131586501Y-173934000D02*
X134271500Y-173934000D01*
X134271500Y-172014000D02*
X131586501Y-172014000D01*
X210991500Y-196906000D02*
X210991500Y-198826000D01*
X210991500Y-198826000D02*
X213676500Y-198826000D01*
X213676500Y-196906000D02*
X210991500Y-196906000D01*
X196398000Y-160953500D02*
X196398000Y-163638499D01*
X198318000Y-160953500D02*
X196398000Y-160953500D01*
X198318000Y-163638499D02*
X198318000Y-160953500D01*
X180608500Y-178872000D02*
X180608500Y-180792000D01*
X180608500Y-180792000D02*
X183293500Y-180792000D01*
X183293500Y-178872000D02*
X180608500Y-178872000D01*
X132722500Y-213785500D02*
X132722500Y-216470499D01*
X134642500Y-213785500D02*
X132722500Y-213785500D01*
X134642500Y-216470499D02*
X134642500Y-213785500D01*
X177348000Y-169335500D02*
X177348000Y-172020499D01*
X179268000Y-169335500D02*
X177348000Y-169335500D01*
X179268000Y-172020499D02*
X179268000Y-169335500D01*
X140476500Y-181666000D02*
X140476500Y-183586000D01*
X140476500Y-183586000D02*
X143161500Y-183586000D01*
X143161500Y-181666000D02*
X140476500Y-181666000D01*
X135008500Y-224375001D02*
X135008500Y-227060000D01*
X136928500Y-224375001D02*
X135008500Y-224375001D01*
X136928500Y-227060000D02*
X136928500Y-224375001D01*
X131586500Y-176840000D02*
X131586500Y-178760000D01*
X131586500Y-178760000D02*
X134271500Y-178760000D01*
X134271500Y-176840000D02*
X131586500Y-176840000D01*
X170744000Y-184243001D02*
X170744000Y-186928000D01*
X172664000Y-184243001D02*
X170744000Y-184243001D01*
X172664000Y-186928000D02*
X172664000Y-184243001D01*
X135013594Y-220813396D02*
X135013594Y-223498395D01*
X136933594Y-220813396D02*
X135013594Y-220813396D01*
X136933594Y-223498395D02*
X136933594Y-220813396D01*
X147884000Y-184007504D02*
X147884000Y-186692503D01*
X149804000Y-184007504D02*
X147884000Y-184007504D01*
X149804000Y-186692503D02*
X149804000Y-184007504D01*
X218787000Y-161600000D02*
X218787000Y-163520000D01*
X218787000Y-163520000D02*
X221472000Y-163520000D01*
X221472000Y-161600000D02*
X218787000Y-161600000D01*
X207611000Y-235260000D02*
X207611000Y-237180000D01*
X207611000Y-237180000D02*
X210296000Y-237180000D01*
X210296000Y-235260000D02*
X207611000Y-235260000D01*
X182386500Y-199192000D02*
X182386500Y-201112000D01*
X182386500Y-201112000D02*
X185071500Y-201112000D01*
X185071500Y-199192000D02*
X182386500Y-199192000D01*
X218516564Y-241835000D02*
X218062436Y-241835000D01*
X218516564Y-243305000D02*
X218062436Y-243305000D01*
X192195500Y-219234000D02*
X192195500Y-221154000D01*
X192195500Y-221154000D02*
X194880500Y-221154000D01*
X194880500Y-219234000D02*
X192195500Y-219234000D01*
X163844500Y-182603501D02*
X163844500Y-184523501D01*
X163844500Y-184523501D02*
X166529500Y-184523501D01*
X166529500Y-182603501D02*
X163844500Y-182603501D01*
X204683000Y-221073001D02*
X204683000Y-223758000D01*
X206603000Y-221073001D02*
X204683000Y-221073001D01*
X206603000Y-223758000D02*
X206603000Y-221073001D01*
X161129000Y-205796000D02*
X161129000Y-207716000D01*
X161129000Y-207716000D02*
X163814000Y-207716000D01*
X163814000Y-205796000D02*
X161129000Y-205796000D01*
X188639500Y-227894000D02*
X188639500Y-229814000D01*
X188639500Y-229814000D02*
X191324500Y-229814000D01*
X191324500Y-227894000D02*
X188639500Y-227894000D01*
X157002064Y-241647000D02*
X156547936Y-241647000D01*
X157002064Y-243117000D02*
X156547936Y-243117000D01*
X157573000Y-205796000D02*
X157573000Y-207716000D01*
X157573000Y-207716000D02*
X160258000Y-207716000D01*
X160258000Y-205796000D02*
X157573000Y-205796000D01*
X146438500Y-210326502D02*
X146438500Y-213011501D01*
X148358500Y-210326502D02*
X146438500Y-210326502D01*
X148358500Y-213011501D02*
X148358500Y-210326502D01*
X156774000Y-187720502D02*
X156774000Y-190405501D01*
X158694000Y-187720502D02*
X156774000Y-187720502D01*
X158694000Y-190405501D02*
X158694000Y-187720502D01*
X135105500Y-178401001D02*
X135105500Y-181086000D01*
X137025500Y-178401001D02*
X135105500Y-178401001D01*
X137025500Y-181086000D02*
X137025500Y-178401001D01*
X220606500Y-173829001D02*
X220606500Y-176514000D01*
X222526500Y-173829001D02*
X220606500Y-173829001D01*
X222526500Y-176514000D02*
X222526500Y-173829001D01*
X147884000Y-187563504D02*
X147884000Y-190248503D01*
X149804000Y-187563504D02*
X147884000Y-187563504D01*
X149804000Y-190248503D02*
X149804000Y-187563504D01*
X192195500Y-230180000D02*
X192195500Y-232100000D01*
X192195500Y-232100000D02*
X194880500Y-232100000D01*
X194880500Y-230180000D02*
X192195500Y-230180000D01*
X189286000Y-184164502D02*
X189286000Y-186849501D01*
X191206000Y-184164502D02*
X189286000Y-184164502D01*
X191206000Y-186849501D02*
X191206000Y-184164502D01*
X208959500Y-208082000D02*
X208959500Y-210002000D01*
X208959500Y-210002000D02*
X211644500Y-210002000D01*
X211644500Y-208082000D02*
X208959500Y-208082000D01*
X155328500Y-210326502D02*
X155328500Y-213011501D01*
X157248500Y-210326502D02*
X155328500Y-210326502D01*
X157248500Y-213011501D02*
X157248500Y-210326502D01*
X206969000Y-221073001D02*
X206969000Y-223758000D01*
X208889000Y-221073001D02*
X206969000Y-221073001D01*
X208889000Y-223758000D02*
X208889000Y-221073001D01*
X141996742Y-238811500D02*
X142471258Y-238811500D01*
X141996742Y-239856500D02*
X142471258Y-239856500D01*
X180396000Y-187720502D02*
X180396000Y-190405501D01*
X182316000Y-187720502D02*
X180396000Y-187720502D01*
X182316000Y-190405501D02*
X182316000Y-187720502D01*
X153042500Y-213961001D02*
X153042500Y-216646000D01*
X154962500Y-213961001D02*
X153042500Y-213961001D01*
X154962500Y-216646000D02*
X154962500Y-213961001D01*
X140555000Y-187254000D02*
X140555000Y-189174000D01*
X140555000Y-189174000D02*
X143240000Y-189174000D01*
X143240000Y-187254000D02*
X140555000Y-187254000D01*
X168204000Y-169354003D02*
X168204000Y-172039002D01*
X170124000Y-169354003D02*
X168204000Y-169354003D01*
X170124000Y-172039002D02*
X170124000Y-169354003D01*
X201261000Y-198938000D02*
X201261000Y-200858000D01*
X201261000Y-200858000D02*
X203946000Y-200858000D01*
X203946000Y-198938000D02*
X201261000Y-198938000D01*
X184206000Y-220897500D02*
X184206000Y-223582499D01*
X186126000Y-220897500D02*
X184206000Y-220897500D01*
X186126000Y-223582499D02*
X186126000Y-220897500D01*
X173792000Y-164606502D02*
X173792000Y-167291501D01*
X175712000Y-164606502D02*
X173792000Y-164606502D01*
X175712000Y-167291501D02*
X175712000Y-164606502D01*
X153079500Y-199035002D02*
X153079500Y-200955002D01*
X153079500Y-200955002D02*
X155764500Y-200955002D01*
X155764500Y-199035002D02*
X153079500Y-199035002D01*
X135008500Y-210229500D02*
X135008500Y-212914499D01*
X136928500Y-210229500D02*
X135008500Y-210229500D01*
X136928500Y-212914499D02*
X136928500Y-210229500D01*
X163923000Y-190731501D02*
X163923000Y-192651501D01*
X163923000Y-192651501D02*
X166608000Y-192651501D01*
X166608000Y-190731501D02*
X163923000Y-190731501D01*
X169081500Y-202240000D02*
X169081500Y-204160000D01*
X169081500Y-204160000D02*
X171766499Y-204160000D01*
X171766499Y-202240000D02*
X169081500Y-202240000D01*
X189286000Y-187720502D02*
X189286000Y-190405501D01*
X191206000Y-187720502D02*
X189286000Y-187720502D01*
X191206000Y-190405501D02*
X191206000Y-187720502D01*
X218058420Y-240028000D02*
X218339580Y-240028000D01*
X218058420Y-241048000D02*
X218339580Y-241048000D01*
X210913000Y-166680000D02*
X210913000Y-168600000D01*
X210913000Y-168600000D02*
X213598000Y-168600000D01*
X213598000Y-166680000D02*
X210913000Y-166680000D01*
X190810000Y-165525500D02*
X190810000Y-168210499D01*
X192730000Y-165525500D02*
X190810000Y-165525500D01*
X192730000Y-168210499D02*
X192730000Y-165525500D01*
X212612500Y-208082000D02*
X212612500Y-210002000D01*
X212612500Y-210002000D02*
X215297500Y-210002000D01*
X215297500Y-208082000D02*
X212612500Y-208082000D01*
X164726500Y-220994502D02*
X164726500Y-223679501D01*
X166646500Y-220994502D02*
X164726500Y-220994502D01*
X166646500Y-223679501D02*
X166646500Y-220994502D01*
X137156000Y-205780000D02*
X137156000Y-207700000D01*
X137156000Y-207700000D02*
X139841000Y-207700000D01*
X139841000Y-205780000D02*
X137156000Y-205780000D01*
X218399000Y-224653001D02*
X218399000Y-227338000D01*
X220319000Y-224653001D02*
X218399000Y-224653001D01*
X220319000Y-227338000D02*
X220319000Y-224653001D01*
X182936000Y-169335500D02*
X182936000Y-172020499D01*
X184856000Y-169335500D02*
X182936000Y-169335500D01*
X184856000Y-172020499D02*
X184856000Y-169335500D01*
X144152500Y-224453500D02*
X144152500Y-227138499D01*
X146072500Y-224453500D02*
X144152500Y-224453500D01*
X146072500Y-227138499D02*
X146072500Y-224453500D01*
X156496920Y-240094000D02*
X156778080Y-240094000D01*
X156496920Y-241114000D02*
X156778080Y-241114000D01*
X218865500Y-187254000D02*
X218865500Y-189174000D01*
X218865500Y-189174000D02*
X221550500Y-189174000D01*
X221550500Y-187254000D02*
X218865500Y-187254000D01*
X150382502Y-202240000D02*
X150382502Y-204160000D01*
X150382502Y-204160000D02*
X153067501Y-204160000D01*
X153067501Y-202240000D02*
X150382502Y-202240000D01*
X180396000Y-196102502D02*
X180396000Y-198787501D01*
X182316000Y-196102502D02*
X180396000Y-196102502D01*
X182316000Y-198787501D02*
X182316000Y-196102502D01*
X208197500Y-176840000D02*
X208197500Y-178760000D01*
X208197500Y-178760000D02*
X210882500Y-178760000D01*
X210882500Y-176840000D02*
X208197500Y-176840000D01*
X197705000Y-198938000D02*
X197705000Y-200858000D01*
X197705000Y-200858000D02*
X200390000Y-200858000D01*
X200390000Y-198938000D02*
X197705000Y-198938000D01*
X188639500Y-230180000D02*
X188639500Y-232100000D01*
X188639500Y-232100000D02*
X191324500Y-232100000D01*
X191324500Y-230180000D02*
X188639500Y-230180000D01*
X218045420Y-238250000D02*
X218326580Y-238250000D01*
X218045420Y-239270000D02*
X218326580Y-239270000D01*
X141996742Y-240589500D02*
X142471258Y-240589500D01*
X141996742Y-241634500D02*
X142471258Y-241634500D01*
X197735564Y-241835000D02*
X197281436Y-241835000D01*
X197735564Y-243305000D02*
X197281436Y-243305000D01*
X155328500Y-213961001D02*
X155328500Y-216646000D01*
X157248500Y-213961001D02*
X155328500Y-213961001D01*
X157248500Y-216646000D02*
X157248500Y-213961001D01*
X192879000Y-168790499D02*
X192879000Y-170710499D01*
X192879000Y-170710499D02*
X195564000Y-170710499D01*
X195564000Y-168790499D02*
X192879000Y-168790499D01*
X182936000Y-164685001D02*
X182936000Y-167370000D01*
X184856000Y-164685001D02*
X182936000Y-164685001D01*
X184856000Y-167370000D02*
X184856000Y-164685001D01*
X192879000Y-159138499D02*
X192879000Y-161058499D01*
X192879000Y-161058499D02*
X195564000Y-161058499D01*
X195564000Y-159138499D02*
X192879000Y-159138499D01*
X170744000Y-192449500D02*
X170744000Y-195134499D01*
X172664000Y-192449500D02*
X170744000Y-192449500D01*
X172664000Y-195134499D02*
X172664000Y-192449500D01*
X161050500Y-216996000D02*
X161050500Y-218916000D01*
X161050500Y-218916000D02*
X163735500Y-218916000D01*
X163735500Y-216996000D02*
X161050500Y-216996000D01*
X218787000Y-235260000D02*
X218787000Y-237180000D01*
X218787000Y-237180000D02*
X221472000Y-237180000D01*
X221472000Y-235260000D02*
X218787000Y-235260000D01*
X164726500Y-224566502D02*
X164726500Y-227251501D01*
X166646500Y-224566502D02*
X164726500Y-224566502D01*
X166646500Y-227251501D02*
X166646500Y-224566502D01*
X131665000Y-187254000D02*
X131665000Y-189174000D01*
X131665000Y-189174000D02*
X134350000Y-189174000D01*
X134350000Y-187254000D02*
X131665000Y-187254000D01*
X163188242Y-242174500D02*
X163662758Y-242174500D01*
X163188242Y-243219500D02*
X163662758Y-243219500D01*
X156774000Y-192389504D02*
X156774000Y-195074503D01*
X158694000Y-192389504D02*
X156774000Y-192389504D01*
X158694000Y-195074503D02*
X158694000Y-192389504D01*
X167012500Y-210229500D02*
X167012500Y-212914499D01*
X168932500Y-210229500D02*
X167012500Y-210229500D01*
X168932500Y-212914499D02*
X168932500Y-210229500D01*
X186492000Y-224453500D02*
X186492000Y-227138499D01*
X188412000Y-224453500D02*
X186492000Y-224453500D01*
X188412000Y-227138499D02*
X188412000Y-224453500D01*
X196398000Y-165525500D02*
X196398000Y-168210499D01*
X198318000Y-165525500D02*
X196398000Y-165525500D01*
X198318000Y-168210499D02*
X198318000Y-165525500D01*
X146438500Y-224453500D02*
X146438500Y-227138499D01*
X148358500Y-224453500D02*
X146438500Y-224453500D01*
X148358500Y-227138499D02*
X148358500Y-224453500D01*
X153333500Y-190661002D02*
X153333500Y-192581002D01*
X153333500Y-192581002D02*
X156018500Y-192581002D01*
X156018500Y-190661002D02*
X153333500Y-190661002D01*
X145090000Y-165447001D02*
X145090000Y-168132000D01*
X147010000Y-165447001D02*
X145090000Y-165447001D01*
X147010000Y-168132000D02*
X147010000Y-165447001D01*
X188542500Y-219234000D02*
X188542500Y-221154000D01*
X188542500Y-221154000D02*
X191227500Y-221154000D01*
X191227500Y-219234000D02*
X188542500Y-219234000D01*
D14*
G36*
X175992247Y-231104100D02*
G01*
X176049250Y-231123534D01*
X176127763Y-231153316D01*
X176196201Y-231180566D01*
X176279203Y-231213866D01*
X176341465Y-231239456D01*
X176385248Y-231259919D01*
X176412810Y-231277839D01*
X176426413Y-231295798D01*
X176428316Y-231316381D01*
X176420781Y-231342169D01*
X176406066Y-231375747D01*
X176392738Y-231405193D01*
X176370124Y-231448935D01*
X176350436Y-231470133D01*
X176339538Y-231472966D01*
X176320972Y-231468014D01*
X176283312Y-231454933D01*
X176230729Y-231435278D01*
X176167390Y-231410604D01*
X176103325Y-231384857D01*
X176034553Y-231356456D01*
X175973672Y-231330617D01*
X175924624Y-231309067D01*
X175891352Y-231293537D01*
X175878010Y-231286002D01*
X175876214Y-231269182D01*
X175882321Y-231236691D01*
X175893955Y-231195863D01*
X175908738Y-231154032D01*
X175924296Y-231118535D01*
X175938251Y-231096706D01*
X175939788Y-231095285D01*
X175956008Y-231094767D01*
X175992247Y-231104100D01*
G37*
G36*
X175854626Y-229477857D02*
G01*
X175889319Y-229488896D01*
X175938230Y-229506516D01*
X175997017Y-229528949D01*
X176061334Y-229554429D01*
X176126837Y-229581188D01*
X176189180Y-229607460D01*
X176244021Y-229631476D01*
X176287014Y-229651470D01*
X176313813Y-229665675D01*
X176320625Y-229671264D01*
X176318527Y-229689027D01*
X176308724Y-229723132D01*
X176293240Y-229766679D01*
X176290686Y-229773259D01*
X176267371Y-229825881D01*
X176248096Y-229854342D01*
X176236061Y-229860218D01*
X176218508Y-229855281D01*
X176181669Y-229842232D01*
X176129548Y-229822580D01*
X176066147Y-229797835D01*
X175995471Y-229769509D01*
X175993083Y-229768539D01*
X175923076Y-229739858D01*
X175861189Y-229714028D01*
X175811190Y-229692660D01*
X175776848Y-229677366D01*
X175761929Y-229669757D01*
X175761756Y-229669602D01*
X175761772Y-229654376D01*
X175770122Y-229623443D01*
X175784072Y-229583733D01*
X175800885Y-229542176D01*
X175817828Y-229505702D01*
X175832164Y-229481241D01*
X175838499Y-229475165D01*
X175854626Y-229477857D01*
G37*
G36*
X176936698Y-230141703D02*
G01*
X176976520Y-230155912D01*
X177017873Y-230173497D01*
X177053946Y-230191615D01*
X177077930Y-230207422D01*
X177083878Y-230216184D01*
X177078493Y-230237291D01*
X177065412Y-230275636D01*
X177046350Y-230327019D01*
X177023020Y-230387239D01*
X176997134Y-230452097D01*
X176970406Y-230517391D01*
X176944549Y-230578922D01*
X176921276Y-230632490D01*
X176902301Y-230673895D01*
X176889336Y-230698935D01*
X176884710Y-230704476D01*
X176866955Y-230699332D01*
X176833309Y-230686823D01*
X176790987Y-230669634D01*
X176790132Y-230669274D01*
X176749066Y-230650330D01*
X176718367Y-230633112D01*
X176704495Y-230621254D01*
X176704401Y-230621005D01*
X176707441Y-230605860D01*
X176718244Y-230571736D01*
X176735148Y-230523021D01*
X176756485Y-230464104D01*
X176780590Y-230399373D01*
X176805800Y-230333216D01*
X176830448Y-230270022D01*
X176852869Y-230214179D01*
X176871399Y-230170076D01*
X176884372Y-230142102D01*
X176888891Y-230134785D01*
X176905219Y-230133713D01*
X176936698Y-230141703D01*
G37*
G36*
X175310059Y-230263587D02*
G01*
X175343328Y-230272608D01*
X175386846Y-230288105D01*
X175398873Y-230292897D01*
X175445430Y-230312668D01*
X175472502Y-230327117D01*
X175484309Y-230339459D01*
X175485076Y-230352909D01*
X175483807Y-230357566D01*
X175476693Y-230377375D01*
X175461941Y-230416440D01*
X175441157Y-230470573D01*
X175415948Y-230535590D01*
X175387923Y-230607304D01*
X175387701Y-230607868D01*
X175354422Y-230691147D01*
X175328273Y-230752795D01*
X175308183Y-230795007D01*
X175293080Y-230819979D01*
X175281895Y-230829908D01*
X175279215Y-230830286D01*
X175257375Y-230825070D01*
X175220609Y-230812633D01*
X175179718Y-230796801D01*
X175140042Y-230778661D01*
X175111730Y-230762123D01*
X175100914Y-230750773D01*
X175105347Y-230733436D01*
X175117558Y-230697652D01*
X175135831Y-230647772D01*
X175158447Y-230588147D01*
X175183690Y-230523128D01*
X175209843Y-230457067D01*
X175235188Y-230394316D01*
X175258009Y-230339225D01*
X175276587Y-230296147D01*
X175289207Y-230269432D01*
X175293452Y-230262867D01*
X175310059Y-230263587D01*
G37*
G36*
X177018666Y-232031050D02*
G01*
X177087602Y-232058698D01*
X177145023Y-232102981D01*
X177159966Y-232120522D01*
X177201118Y-232193076D01*
X177227858Y-232280765D01*
X177238994Y-232377274D01*
X177233336Y-232476287D01*
X177230409Y-232494064D01*
X177204533Y-232588953D01*
X177165049Y-232662976D01*
X177111474Y-232716776D01*
X177043326Y-232750997D01*
X177036158Y-232753229D01*
X176967872Y-232768194D01*
X176906353Y-232767850D01*
X176838940Y-232752332D01*
X176769090Y-232719340D01*
X176715026Y-232667985D01*
X176676467Y-232597745D01*
X176653135Y-232508094D01*
X176644751Y-232398508D01*
X176644720Y-232387506D01*
X176644777Y-232386452D01*
X176828291Y-232386452D01*
X176829628Y-232448225D01*
X176832743Y-232475956D01*
X176849167Y-232529085D01*
X176877752Y-232568517D01*
X176914086Y-232591789D01*
X176953756Y-232596438D01*
X176992348Y-232580002D01*
X177002788Y-232570859D01*
X177027526Y-232531340D01*
X177043857Y-232475236D01*
X177051307Y-232409880D01*
X177049406Y-232342606D01*
X177037678Y-232280744D01*
X177023781Y-232245379D01*
X176993597Y-232210517D01*
X176953399Y-232194152D01*
X176910495Y-232196695D01*
X176872195Y-232218554D01*
X176857568Y-232236066D01*
X176843109Y-232272177D01*
X176833068Y-232325038D01*
X176828291Y-232386452D01*
X176644777Y-232386452D01*
X176649739Y-232294277D01*
X176665465Y-232219066D01*
X176693754Y-232156300D01*
X176736464Y-232100404D01*
X176742481Y-232094065D01*
X176800123Y-232051542D01*
X176869192Y-232027108D01*
X176943951Y-232020398D01*
X177018666Y-232031050D01*
G37*
G36*
X178373105Y-232024672D02*
G01*
X178448457Y-232051690D01*
X178517868Y-232100922D01*
X178518471Y-232101485D01*
X178555560Y-232150760D01*
X178584332Y-232218187D01*
X178603474Y-232297715D01*
X178611671Y-232383290D01*
X178607609Y-232468860D01*
X178603723Y-232494064D01*
X178577847Y-232588953D01*
X178538362Y-232662976D01*
X178484787Y-232716776D01*
X178416639Y-232750997D01*
X178409471Y-232753229D01*
X178341026Y-232768211D01*
X178279490Y-232767824D01*
X178212977Y-232752389D01*
X178149928Y-232722975D01*
X178099086Y-232676198D01*
X178056857Y-232608600D01*
X178051083Y-232596534D01*
X178035811Y-232560477D01*
X178026130Y-232526912D01*
X178020810Y-232488239D01*
X178018621Y-232436857D01*
X178018297Y-232393806D01*
X178018629Y-232367792D01*
X178202204Y-232367792D01*
X178202286Y-232429898D01*
X178210942Y-232488911D01*
X178228480Y-232539372D01*
X178255208Y-232575825D01*
X178259893Y-232579644D01*
X178297419Y-232593933D01*
X178340077Y-232590837D01*
X178375679Y-232571279D01*
X178376102Y-232570859D01*
X178401875Y-232530176D01*
X178418768Y-232471885D01*
X178425300Y-232402465D01*
X178423927Y-232361739D01*
X178411488Y-232285699D01*
X178388029Y-232232304D01*
X178353526Y-232201527D01*
X178307955Y-232193340D01*
X178281457Y-232197597D01*
X178250323Y-232217496D01*
X178226531Y-232256133D01*
X178210389Y-232308051D01*
X178202204Y-232367792D01*
X178018629Y-232367792D01*
X178019124Y-232329023D01*
X178022491Y-232281881D01*
X178029521Y-232244863D01*
X178041341Y-232210452D01*
X178048070Y-232194820D01*
X178092764Y-232122754D01*
X178151639Y-232068907D01*
X178220671Y-232034079D01*
X178295834Y-232019067D01*
X178373105Y-232024672D01*
G37*
G36*
X175401557Y-232239919D02*
G01*
X175427928Y-232251189D01*
X175439864Y-232263103D01*
X175461562Y-232289891D01*
X175497277Y-232263875D01*
X175543147Y-232244167D01*
X175600777Y-232239028D01*
X175661379Y-232248435D01*
X175702147Y-232264324D01*
X175738641Y-232290101D01*
X175775068Y-232326386D01*
X175787630Y-232342420D01*
X175802762Y-232364578D01*
X175813197Y-232384233D01*
X175819807Y-232406581D01*
X175823466Y-232436813D01*
X175825045Y-232480123D01*
X175825420Y-232541704D01*
X175825427Y-232567243D01*
X175825427Y-232738603D01*
X175784480Y-232749253D01*
X175741673Y-232753665D01*
X175702585Y-232749338D01*
X175661638Y-232738772D01*
X175655338Y-232596660D01*
X175652162Y-232534184D01*
X175648474Y-232491778D01*
X175643163Y-232464319D01*
X175635118Y-232446688D01*
X175623228Y-232433761D01*
X175619294Y-232430477D01*
X175576535Y-232409239D01*
X175531477Y-232408286D01*
X175491987Y-232427103D01*
X175479863Y-232439602D01*
X175467417Y-232458910D01*
X175459615Y-232482470D01*
X175455441Y-232516366D01*
X175453875Y-232566678D01*
X175453751Y-232595550D01*
X175452422Y-232660802D01*
X175448199Y-232703874D01*
X175440722Y-232727657D01*
X175436801Y-232732367D01*
X175406162Y-232746339D01*
X175363141Y-232753211D01*
X175320008Y-232751100D01*
X175317630Y-232750636D01*
X175290762Y-232734322D01*
X175275873Y-232711171D01*
X175270994Y-232685200D01*
X175267826Y-232641104D01*
X175266255Y-232584041D01*
X175266162Y-232519171D01*
X175267432Y-232451653D01*
X175269948Y-232386645D01*
X175273592Y-232329307D01*
X175278248Y-232284797D01*
X175283800Y-232258274D01*
X175286219Y-232253883D01*
X175307308Y-232244499D01*
X175342800Y-232238488D01*
X175359771Y-232237538D01*
X175401557Y-232239919D01*
G37*
G36*
X177701485Y-232236538D02*
G01*
X177761535Y-232237449D01*
X177804101Y-232239418D01*
X177833037Y-232242812D01*
X177852199Y-232248000D01*
X177865443Y-232255350D01*
X177871458Y-232260317D01*
X177892338Y-232292383D01*
X177897997Y-232319898D01*
X177894890Y-232337522D01*
X177883647Y-232357499D01*
X177861387Y-232383136D01*
X177825228Y-232417741D01*
X177772287Y-232464621D01*
X177770716Y-232465986D01*
X177643435Y-232576494D01*
X177761267Y-232582794D01*
X177814558Y-232586597D01*
X177859015Y-232591529D01*
X177888102Y-232596785D01*
X177894847Y-232599287D01*
X177904540Y-232617767D01*
X177909988Y-232653337D01*
X177910596Y-232672044D01*
X177909066Y-232710451D01*
X177902206Y-232731621D01*
X177886611Y-232743440D01*
X177878278Y-232746896D01*
X177852760Y-232751600D01*
X177807871Y-232755030D01*
X177748866Y-232757220D01*
X177680998Y-232758203D01*
X177609520Y-232758013D01*
X177539687Y-232756686D01*
X177476752Y-232754254D01*
X177425970Y-232750753D01*
X177392594Y-232746216D01*
X177384305Y-232743684D01*
X177356638Y-232717525D01*
X177344961Y-232677774D01*
X177348667Y-232642640D01*
X177361700Y-232623242D01*
X177391840Y-232591840D01*
X177435869Y-232551324D01*
X177490569Y-232504585D01*
X177552721Y-232454513D01*
X177591099Y-232424943D01*
X177600063Y-232416194D01*
X177596199Y-232410842D01*
X177575865Y-232408043D01*
X177535423Y-232406953D01*
X177512979Y-232406806D01*
X177448315Y-232404440D01*
X177404870Y-232396462D01*
X177378891Y-232380640D01*
X177366628Y-232354746D01*
X177364273Y-232318431D01*
X177368506Y-232281864D01*
X177377358Y-232255349D01*
X177380458Y-232251136D01*
X177397422Y-232245030D01*
X177435230Y-232240597D01*
X177495147Y-232237759D01*
X177578436Y-232236438D01*
X177620094Y-232236316D01*
X177701485Y-232236538D01*
G37*
G36*
X174982411Y-232237659D02*
G01*
X175047846Y-232260278D01*
X175099086Y-232299865D01*
X175122649Y-232329715D01*
X175145192Y-232379104D01*
X175152500Y-232432366D01*
X175144591Y-232481442D01*
X175122209Y-232517602D01*
X175107449Y-232529445D01*
X175089744Y-232537298D01*
X175063915Y-232541968D01*
X175024784Y-232544257D01*
X174967171Y-232544970D01*
X174945821Y-232544996D01*
X174881435Y-232545509D01*
X174838386Y-232547368D01*
X174812823Y-232551061D01*
X174800900Y-232557073D01*
X174798592Y-232563572D01*
X174809748Y-232583078D01*
X174837876Y-232601801D01*
X174874969Y-232615655D01*
X174910398Y-232620592D01*
X174944862Y-232617703D01*
X174990149Y-232610361D01*
X175013428Y-232605457D01*
X175052170Y-232597416D01*
X175074992Y-232597045D01*
X175090361Y-232605671D01*
X175102583Y-232619452D01*
X175124988Y-232660330D01*
X175123334Y-232696347D01*
X175098502Y-232726235D01*
X175051372Y-232748731D01*
X175005070Y-232759487D01*
X174937588Y-232768447D01*
X174883628Y-232769684D01*
X174832646Y-232762935D01*
X174796685Y-232754296D01*
X174718328Y-232722437D01*
X174659276Y-232674493D01*
X174619891Y-232610896D01*
X174600538Y-232532079D01*
X174599458Y-232519994D01*
X174600713Y-232454216D01*
X174791510Y-232454216D01*
X174792327Y-232456858D01*
X174810038Y-232465394D01*
X174843661Y-232469072D01*
X174884441Y-232468193D01*
X174923623Y-232463053D01*
X174952454Y-232453953D01*
X174956824Y-232451240D01*
X174973101Y-232429389D01*
X174967270Y-232408349D01*
X174942253Y-232391836D01*
X174903742Y-232383754D01*
X174862650Y-232385745D01*
X174830456Y-232402496D01*
X174819272Y-232412158D01*
X174798706Y-232435915D01*
X174791510Y-232454216D01*
X174600713Y-232454216D01*
X174600926Y-232443030D01*
X174619048Y-232380557D01*
X174655705Y-232326653D01*
X174663434Y-232318410D01*
X174718407Y-232272950D01*
X174780532Y-232244897D01*
X174855887Y-232231985D01*
X174899386Y-232230500D01*
X174982411Y-232237659D01*
G37*
G36*
X176456725Y-231990872D02*
G01*
X176477878Y-231993349D01*
X176494113Y-232000699D01*
X176506081Y-232015557D01*
X176514431Y-232040559D01*
X176519814Y-232078340D01*
X176522882Y-232131536D01*
X176524283Y-232202781D01*
X176524669Y-232294713D01*
X176524683Y-232374264D01*
X176524667Y-232481461D01*
X176524163Y-232566117D01*
X176522487Y-232630890D01*
X176518954Y-232678438D01*
X176512880Y-232711418D01*
X176503581Y-232732487D01*
X176490373Y-232744304D01*
X176472571Y-232749525D01*
X176449492Y-232750807D01*
X176427734Y-232750784D01*
X176383430Y-232746586D01*
X176357370Y-232732824D01*
X176353204Y-232727915D01*
X176336902Y-232712729D01*
X176319965Y-232718817D01*
X176317547Y-232720762D01*
X176280236Y-232739164D01*
X176229050Y-232748458D01*
X176174207Y-232746923D01*
X176168008Y-232745954D01*
X176107636Y-232724662D01*
X176049615Y-232685171D01*
X176002261Y-232633767D01*
X175987034Y-232609161D01*
X175961685Y-232536356D01*
X175960741Y-232494600D01*
X176146707Y-232494600D01*
X176157338Y-232535696D01*
X176184883Y-232565051D01*
X176222825Y-232580182D01*
X176264644Y-232578612D01*
X176303821Y-232557859D01*
X176306535Y-232555399D01*
X176331227Y-232518420D01*
X176331346Y-232478862D01*
X176306935Y-232439543D01*
X176304770Y-232437331D01*
X176266418Y-232413206D01*
X176225082Y-232408775D01*
X176187124Y-232421732D01*
X176158906Y-232449772D01*
X176146790Y-232490591D01*
X176146707Y-232494600D01*
X175960741Y-232494600D01*
X175960022Y-232462821D01*
X175980968Y-232392481D01*
X176023446Y-232329261D01*
X176076404Y-232283563D01*
X176118739Y-232258251D01*
X176156470Y-232246024D01*
X176203285Y-232242632D01*
X176208323Y-232242616D01*
X176262526Y-232246844D01*
X176301517Y-232258533D01*
X176307693Y-232262229D01*
X176335695Y-232281842D01*
X176335695Y-232164239D01*
X176337499Y-232094104D01*
X176344226Y-232045358D01*
X176357854Y-232014363D01*
X176380357Y-231997481D01*
X176413712Y-231991076D01*
X176430004Y-231990631D01*
X176456725Y-231990872D01*
G37*
G36*
X176978280Y-229450566D02*
G01*
X176999793Y-229460174D01*
X177055937Y-229499278D01*
X177089569Y-229549386D01*
X177101461Y-229611867D01*
X177100482Y-229638668D01*
X177085284Y-229703980D01*
X177051083Y-229753932D01*
X176995515Y-229791972D01*
X176995317Y-229792070D01*
X176944394Y-229817268D01*
X176781786Y-230231219D01*
X176743956Y-230327537D01*
X176709078Y-230416371D01*
X176678216Y-230495010D01*
X176652433Y-230560740D01*
X176632794Y-230610850D01*
X176620361Y-230642628D01*
X176616220Y-230653292D01*
X176625895Y-230661005D01*
X176654366Y-230675509D01*
X176696916Y-230694543D01*
X176735913Y-230710704D01*
X176788483Y-230732358D01*
X176833061Y-230751699D01*
X176863921Y-230766186D01*
X176874311Y-230772093D01*
X176888394Y-230798536D01*
X176885040Y-230842171D01*
X176865309Y-230899755D01*
X176847067Y-230935982D01*
X176829826Y-230952967D01*
X176811763Y-230956166D01*
X176790935Y-230950983D01*
X176751457Y-230937475D01*
X176697810Y-230917310D01*
X176634475Y-230892159D01*
X176583534Y-230871121D01*
X176517296Y-230842495D01*
X176459163Y-230815815D01*
X176413179Y-230793064D01*
X176383392Y-230776222D01*
X176374028Y-230768508D01*
X176371283Y-230761693D01*
X176370328Y-230752635D01*
X176371889Y-230739292D01*
X176376689Y-230719619D01*
X176385452Y-230691573D01*
X176398903Y-230653110D01*
X176417767Y-230602187D01*
X176442767Y-230536760D01*
X176474628Y-230454786D01*
X176514075Y-230354219D01*
X176561831Y-230233018D01*
X176581364Y-230183515D01*
X176755064Y-229743413D01*
X176739834Y-229683988D01*
X176736039Y-229648479D01*
X176818889Y-229648479D01*
X176843890Y-229690593D01*
X176852580Y-229699831D01*
X176892184Y-229727023D01*
X176931788Y-229729103D01*
X176971791Y-229706043D01*
X176987704Y-229690099D01*
X177011981Y-229648317D01*
X177011085Y-229605601D01*
X176986548Y-229563887D01*
X176947718Y-229535096D01*
X176904456Y-229529293D01*
X176862653Y-229546478D01*
X176843969Y-229563887D01*
X176818940Y-229606634D01*
X176818889Y-229648479D01*
X176736039Y-229648479D01*
X176732102Y-229611650D01*
X176747712Y-229547775D01*
X176786321Y-229493603D01*
X176794723Y-229485820D01*
X176852519Y-229449102D01*
X176913755Y-229437345D01*
X176978280Y-229450566D01*
G37*
G36*
X175813562Y-230754404D02*
G01*
X175839828Y-230760042D01*
X175877769Y-230771332D01*
X175929273Y-230788923D01*
X175996229Y-230813466D01*
X176080527Y-230845608D01*
X176184055Y-230886000D01*
X176308703Y-230935292D01*
X176328501Y-230943160D01*
X176806376Y-231133183D01*
X176895465Y-231125945D01*
X176944636Y-231122988D01*
X176977558Y-231124889D01*
X177002950Y-231133130D01*
X177028651Y-231148596D01*
X177078644Y-231195679D01*
X177107335Y-231251743D01*
X177114739Y-231312332D01*
X177100872Y-231372992D01*
X177065748Y-231429266D01*
X177027561Y-231464379D01*
X176983309Y-231485234D01*
X176929525Y-231494447D01*
X176878816Y-231490357D01*
X176864862Y-231485787D01*
X176816890Y-231455465D01*
X176775605Y-231411327D01*
X176750976Y-231365476D01*
X176743865Y-231348143D01*
X176732806Y-231333799D01*
X176713773Y-231320031D01*
X176691482Y-231308824D01*
X176827465Y-231308824D01*
X176839443Y-231354363D01*
X176874437Y-231390093D01*
X176883761Y-231395850D01*
X176920061Y-231409534D01*
X176955007Y-231403420D01*
X176969633Y-231396411D01*
X177009640Y-231363481D01*
X177027330Y-231321851D01*
X177021738Y-231276023D01*
X177002539Y-231242678D01*
X176967841Y-231215664D01*
X176927103Y-231208259D01*
X176886601Y-231218091D01*
X176852614Y-231242788D01*
X176831421Y-231279978D01*
X176827465Y-231308824D01*
X176691482Y-231308824D01*
X176682740Y-231304429D01*
X176635680Y-231284581D01*
X176577445Y-231261545D01*
X176514327Y-231236825D01*
X176434646Y-231205554D01*
X176345279Y-231170433D01*
X176253100Y-231134164D01*
X176164986Y-231099450D01*
X176163340Y-231098801D01*
X175909090Y-230998553D01*
X175856610Y-231126065D01*
X175829214Y-231191825D01*
X175808148Y-231237200D01*
X175790121Y-231265093D01*
X175771843Y-231278408D01*
X175750023Y-231280051D01*
X175721372Y-231272924D01*
X175698758Y-231265384D01*
X175658545Y-231248974D01*
X175628144Y-231231553D01*
X175616629Y-231220377D01*
X175615680Y-231203812D01*
X175623203Y-231171509D01*
X175639802Y-231121619D01*
X175666079Y-231052292D01*
X175694780Y-230980847D01*
X175723074Y-230911904D01*
X175748149Y-230851382D01*
X175768447Y-230803000D01*
X175782407Y-230770471D01*
X175788471Y-230757513D01*
X175788496Y-230757484D01*
X175797081Y-230753768D01*
X175813562Y-230754404D01*
G37*
G36*
X174410026Y-232034220D02*
G01*
X174443011Y-232048042D01*
X174451636Y-232054723D01*
X174458279Y-232063237D01*
X174463199Y-232076676D01*
X174466654Y-232098133D01*
X174468903Y-232130702D01*
X174470204Y-232177475D01*
X174470817Y-232241546D01*
X174471001Y-232326007D01*
X174471013Y-232382750D01*
X174470500Y-232481838D01*
X174469029Y-232567448D01*
X174466700Y-232636909D01*
X174463614Y-232687554D01*
X174459871Y-232716711D01*
X174458260Y-232721671D01*
X174434119Y-232743025D01*
X174395782Y-232754119D01*
X174352723Y-232753341D01*
X174324044Y-232744492D01*
X174288324Y-232727400D01*
X174282024Y-232532255D01*
X174275725Y-232337110D01*
X174193830Y-232440122D01*
X174155968Y-232485060D01*
X174119808Y-232523305D01*
X174090389Y-232549754D01*
X174077287Y-232558193D01*
X174046170Y-232566017D01*
X174015185Y-232560109D01*
X173981144Y-232538443D01*
X173940860Y-232498995D01*
X173891449Y-232440122D01*
X173809554Y-232337110D01*
X173803255Y-232532053D01*
X173800741Y-232605998D01*
X173798274Y-232658758D01*
X173795133Y-232694338D01*
X173790603Y-232716740D01*
X173783965Y-232729966D01*
X173774503Y-232738020D01*
X173765457Y-232742904D01*
X173732125Y-232755315D01*
X173697676Y-232755561D01*
X173670963Y-232750359D01*
X173654283Y-232745288D01*
X173641235Y-232736902D01*
X173631374Y-232722346D01*
X173624256Y-232698766D01*
X173619438Y-232663305D01*
X173616475Y-232613108D01*
X173614923Y-232545320D01*
X173614338Y-232457086D01*
X173614267Y-232385813D01*
X173614322Y-232288191D01*
X173614659Y-232212691D01*
X173615532Y-232156237D01*
X173617196Y-232115752D01*
X173619907Y-232088161D01*
X173623919Y-232070386D01*
X173629487Y-232059353D01*
X173636867Y-232051984D01*
X173642268Y-232048042D01*
X173687049Y-232030750D01*
X173738629Y-232032264D01*
X173768014Y-232042185D01*
X173786128Y-232056565D01*
X173816268Y-232086754D01*
X173854777Y-232128838D01*
X173897994Y-232178906D01*
X173915273Y-232199675D01*
X173957449Y-232250209D01*
X173994235Y-232292968D01*
X174022601Y-232324529D01*
X174039514Y-232341468D01*
X174042585Y-232343409D01*
X174053334Y-232334209D01*
X174077031Y-232308843D01*
X174110687Y-232270668D01*
X174151315Y-232223039D01*
X174174437Y-232195368D01*
X174218607Y-232143180D01*
X174258559Y-232097892D01*
X174290958Y-232063140D01*
X174312468Y-232042564D01*
X174318008Y-232038764D01*
X174362563Y-232029822D01*
X174410026Y-232034220D01*
G37*
G36*
X175326608Y-229457881D02*
G01*
X175365357Y-229475715D01*
X175403601Y-229505059D01*
X175434726Y-229539400D01*
X175452118Y-229572227D01*
X175453751Y-229583079D01*
X175461690Y-229609756D01*
X175469500Y-229619261D01*
X175487059Y-229628899D01*
X175523950Y-229645751D01*
X175576905Y-229668526D01*
X175642656Y-229695936D01*
X175717934Y-229726690D01*
X175799472Y-229759499D01*
X175884002Y-229793073D01*
X175968255Y-229826123D01*
X176048964Y-229857359D01*
X176122861Y-229885491D01*
X176186677Y-229909230D01*
X176237145Y-229927286D01*
X176270996Y-229938369D01*
X176284963Y-229941190D01*
X176285068Y-229941105D01*
X176293558Y-229925584D01*
X176308883Y-229892236D01*
X176328543Y-229846638D01*
X176342000Y-229814200D01*
X176364052Y-229763034D01*
X176384673Y-229720056D01*
X176400930Y-229691147D01*
X176407413Y-229682966D01*
X176429418Y-229678132D01*
X176465397Y-229682280D01*
X176506805Y-229693089D01*
X176545097Y-229708235D01*
X176571725Y-229725397D01*
X176574494Y-229728367D01*
X176577895Y-229739498D01*
X176575329Y-229760130D01*
X176565889Y-229793107D01*
X176548665Y-229841271D01*
X176522750Y-229907464D01*
X176497047Y-229970689D01*
X176464666Y-230048924D01*
X176439854Y-230106783D01*
X176420938Y-230147335D01*
X176406249Y-230173647D01*
X176394116Y-230188787D01*
X176382867Y-230195822D01*
X176373425Y-230197674D01*
X176341258Y-230196681D01*
X176323096Y-230192609D01*
X176307526Y-230186290D01*
X176271301Y-230171514D01*
X176217085Y-230149368D01*
X176147542Y-230120943D01*
X176065337Y-230087328D01*
X175973134Y-230049611D01*
X175873597Y-230008881D01*
X175856925Y-230002058D01*
X175409653Y-229819003D01*
X175300452Y-229818135D01*
X175246051Y-229817000D01*
X175210130Y-229813629D01*
X175185985Y-229806504D01*
X175166909Y-229794105D01*
X175157514Y-229785770D01*
X175112058Y-229729641D01*
X175090549Y-229667712D01*
X175088604Y-229640879D01*
X175176568Y-229640879D01*
X175186695Y-229689458D01*
X175213369Y-229723687D01*
X175251030Y-229741311D01*
X175294117Y-229740072D01*
X175337070Y-229717714D01*
X175346027Y-229709661D01*
X175364762Y-229676098D01*
X175370199Y-229632946D01*
X175361713Y-229592354D01*
X175352845Y-229577748D01*
X175313810Y-229548728D01*
X175266255Y-229542211D01*
X175239770Y-229548202D01*
X175199637Y-229572414D01*
X175179573Y-229611141D01*
X175176568Y-229640879D01*
X175088604Y-229640879D01*
X175088421Y-229638355D01*
X175097633Y-229588744D01*
X175121233Y-229536876D01*
X175153297Y-229494873D01*
X175162414Y-229486966D01*
X175211037Y-229462757D01*
X175269957Y-229452403D01*
X175326608Y-229457881D01*
G37*
G36*
X175396706Y-230004811D02*
G01*
X175435567Y-230018045D01*
X175487390Y-230037667D01*
X175547444Y-230061685D01*
X175610996Y-230088106D01*
X175673312Y-230114937D01*
X175729660Y-230140187D01*
X175775307Y-230161863D01*
X175805521Y-230177973D01*
X175815028Y-230184964D01*
X175819198Y-230189948D01*
X175822318Y-230194956D01*
X175823665Y-230202049D01*
X175822516Y-230213288D01*
X175818148Y-230230731D01*
X175809840Y-230256440D01*
X175796867Y-230292474D01*
X175778509Y-230340894D01*
X175754040Y-230403760D01*
X175722740Y-230483131D01*
X175683886Y-230581069D01*
X175636753Y-230699634D01*
X175617457Y-230748174D01*
X175571880Y-230862945D01*
X175534867Y-230956655D01*
X175505653Y-231031649D01*
X175483471Y-231090271D01*
X175467556Y-231134868D01*
X175457141Y-231167784D01*
X175451460Y-231191366D01*
X175449747Y-231207957D01*
X175451235Y-231219904D01*
X175455158Y-231229552D01*
X175458346Y-231235187D01*
X175477151Y-231289428D01*
X175477895Y-231350697D01*
X175462340Y-231411150D01*
X175432243Y-231462945D01*
X175400805Y-231491641D01*
X175362854Y-231507464D01*
X175313379Y-231517239D01*
X175265744Y-231518886D01*
X175245864Y-231515766D01*
X175187197Y-231487946D01*
X175144842Y-231442461D01*
X175120707Y-231382324D01*
X175118935Y-231351920D01*
X175201468Y-231351920D01*
X175216832Y-231391111D01*
X175234964Y-231410153D01*
X175279145Y-231433045D01*
X175322514Y-231430903D01*
X175350949Y-231416096D01*
X175383243Y-231381023D01*
X175395578Y-231339897D01*
X175389755Y-231298772D01*
X175367574Y-231263697D01*
X175330836Y-231240724D01*
X175297073Y-231235080D01*
X175254241Y-231245257D01*
X175222487Y-231272471D01*
X175204125Y-231310199D01*
X175201468Y-231351920D01*
X175118935Y-231351920D01*
X175116596Y-231311779D01*
X175121276Y-231272507D01*
X175130584Y-231244639D01*
X175149353Y-231219250D01*
X175182417Y-231187415D01*
X175185410Y-231184698D01*
X175202548Y-231168763D01*
X175217473Y-231153041D01*
X175231469Y-231134882D01*
X175245822Y-231111635D01*
X175261815Y-231080650D01*
X175280732Y-231039278D01*
X175303858Y-230984869D01*
X175332477Y-230914773D01*
X175367873Y-230826340D01*
X175407782Y-230725864D01*
X175445348Y-230630730D01*
X175479759Y-230542740D01*
X175509942Y-230464705D01*
X175534823Y-230399438D01*
X175553328Y-230349751D01*
X175564383Y-230318454D01*
X175567143Y-230308620D01*
X175556237Y-230297721D01*
X175526659Y-230280013D01*
X175483116Y-230258079D01*
X175438002Y-230237766D01*
X175380533Y-230212464D01*
X175342539Y-230193526D01*
X175319969Y-230178287D01*
X175308771Y-230164082D01*
X175305109Y-230150339D01*
X175307581Y-230115843D01*
X175319469Y-230075965D01*
X175337216Y-230038299D01*
X175357267Y-230010435D01*
X175375542Y-229999957D01*
X175396706Y-230004811D01*
G37*
D13*
X140712000Y-219258000D02*
X140712000Y-221178000D01*
X140712000Y-221178000D02*
X143397000Y-221178000D01*
X143397000Y-219258000D02*
X140712000Y-219258000D01*
X146438500Y-213906502D02*
X146438500Y-216591501D01*
X148358500Y-213906502D02*
X146438500Y-213906502D01*
X148358500Y-216591501D02*
X148358500Y-213906502D01*
X163188242Y-240269500D02*
X163662758Y-240269500D01*
X163188242Y-241314500D02*
X163662758Y-241314500D01*
X208959500Y-205796000D02*
X208959500Y-207716000D01*
X208959500Y-207716000D02*
X211644500Y-207716000D01*
X211644500Y-205796000D02*
X208959500Y-205796000D01*
X167012500Y-220994502D02*
X167012500Y-223679501D01*
X168932500Y-220994502D02*
X167012500Y-220994502D01*
X168932500Y-223679501D02*
X168932500Y-220994502D01*
X204780000Y-187799001D02*
X204780000Y-190484000D01*
X206700000Y-187799001D02*
X204780000Y-187799001D01*
X206700000Y-190484000D02*
X206700000Y-187799001D01*
X157573000Y-230180000D02*
X157573000Y-232100000D01*
X157573000Y-232100000D02*
X160258000Y-232100000D01*
X160258000Y-230180000D02*
X157573000Y-230180000D01*
X156483920Y-238570000D02*
X156765080Y-238570000D01*
X156483920Y-239590000D02*
X156765080Y-239590000D01*
X203470742Y-238491500D02*
X203945258Y-238491500D01*
X203470742Y-239536500D02*
X203945258Y-239536500D01*
X161854000Y-187642003D02*
X161854000Y-190327002D01*
X163774000Y-187642003D02*
X161854000Y-187642003D01*
X163774000Y-190327002D02*
X163774000Y-187642003D01*
X173792000Y-169354003D02*
X173792000Y-172039002D01*
X175712000Y-169354003D02*
X173792000Y-169354003D01*
X175712000Y-172039002D02*
X175712000Y-169354003D01*
X208197500Y-181666000D02*
X208197500Y-183586000D01*
X208197500Y-183586000D02*
X210882500Y-183586000D01*
X210882500Y-181666000D02*
X208197500Y-181666000D01*
X186492000Y-213785500D02*
X186492000Y-216470499D01*
X188412000Y-213785500D02*
X186492000Y-213785500D01*
X188412000Y-216470499D02*
X188412000Y-213785500D01*
X155970500Y-155250000D02*
X155970500Y-157170000D01*
X155970500Y-157170000D02*
X158655500Y-157170000D01*
X158655500Y-155250000D02*
X155970500Y-155250000D01*
X140476500Y-176840000D02*
X140476500Y-178760000D01*
X140476500Y-178760000D02*
X143161500Y-178760000D01*
X143161500Y-176840000D02*
X140476500Y-176840000D01*
X147080500Y-155250000D02*
X147080500Y-157170000D01*
X147080500Y-157170000D02*
X149765500Y-157170000D01*
X149765500Y-155250000D02*
X147080500Y-155250000D01*
X205288000Y-160953500D02*
X205288000Y-163638499D01*
X207208000Y-160953500D02*
X205288000Y-160953500D01*
X207208000Y-163638499D02*
X207208000Y-160953500D01*
X131665000Y-161600000D02*
X131665000Y-163520000D01*
X131665000Y-163520000D02*
X134350000Y-163520000D01*
X134350000Y-161600000D02*
X131665000Y-161600000D01*
X188482500Y-208082000D02*
X188482500Y-210002000D01*
X188482500Y-210002000D02*
X191167500Y-210002000D01*
X191167500Y-208082000D02*
X188482500Y-208082000D01*
X157827001Y-178872000D02*
X157827001Y-180792000D01*
X157827001Y-180792000D02*
X160512000Y-180792000D01*
X160512000Y-178872000D02*
X157827001Y-178872000D01*
X169081500Y-178872000D02*
X169081500Y-180792000D01*
X169081500Y-180792000D02*
X171766500Y-180792000D01*
X171766500Y-178872000D02*
X169081500Y-178872000D01*
X175730920Y-239901000D02*
X176012080Y-239901000D01*
X175730920Y-240921000D02*
X176012080Y-240921000D01*
X197922000Y-210151001D02*
X197922000Y-212836000D01*
X199842000Y-210151001D02*
X197922000Y-210151001D01*
X199842000Y-212836000D02*
X199842000Y-210151001D01*
X190810000Y-160953500D02*
X190810000Y-163638499D01*
X192730000Y-160953500D02*
X190810000Y-160953500D01*
X192730000Y-163638499D02*
X192730000Y-160953500D01*
X179417000Y-167774499D02*
X179417000Y-169694499D01*
X179417000Y-169694499D02*
X182102000Y-169694499D01*
X182102000Y-167774499D02*
X179417000Y-167774499D01*
X210991500Y-187254000D02*
X210991500Y-189174000D01*
X210991500Y-189174000D02*
X213676500Y-189174000D01*
X213676500Y-187254000D02*
X210991500Y-187254000D01*
X149352000Y-238486000D02*
X147402000Y-238486000D01*
X149352000Y-238486000D02*
X151302000Y-238486000D01*
X149352000Y-243606000D02*
X147402000Y-243606000D01*
X149352000Y-243606000D02*
X151302000Y-243606000D01*
X146652000Y-238581000D02*
X146412000Y-238251000D01*
X146892000Y-238251000D01*
X146652000Y-238581000D01*
G36*
X146652000Y-238581000D02*
G01*
X146412000Y-238251000D01*
X146892000Y-238251000D01*
X146652000Y-238581000D01*
G37*
X192879000Y-178872000D02*
X192879000Y-180792000D01*
X192879000Y-180792000D02*
X195564000Y-180792000D01*
X195564000Y-178872000D02*
X192879000Y-178872000D01*
X218399000Y-213628502D02*
X218399000Y-216313501D01*
X220319000Y-213628502D02*
X218399000Y-213628502D01*
X220319000Y-216313501D02*
X220319000Y-213628502D01*
X212612500Y-205812000D02*
X212612500Y-207732000D01*
X212612500Y-207732000D02*
X215297500Y-207732000D01*
X215297500Y-205812000D02*
X212612500Y-205812000D01*
X186492000Y-210229500D02*
X186492000Y-212914499D01*
X188412000Y-210229500D02*
X186492000Y-210229500D01*
X188412000Y-212914499D02*
X188412000Y-210229500D01*
X217087500Y-181666000D02*
X217087500Y-183586000D01*
X217087500Y-183586000D02*
X219772500Y-183586000D01*
X219772500Y-181666000D02*
X217087500Y-181666000D01*
X138015000Y-166426000D02*
X138015000Y-168346000D01*
X138015000Y-168346000D02*
X140700000Y-168346000D01*
X140700000Y-166426000D02*
X138015000Y-166426000D01*
X158081000Y-235260000D02*
X158081000Y-237180000D01*
X158081000Y-237180000D02*
X160766000Y-237180000D01*
X160766000Y-235260000D02*
X158081000Y-235260000D01*
X201261000Y-190810000D02*
X201261000Y-192730000D01*
X201261000Y-192730000D02*
X203946000Y-192730000D01*
X203946000Y-190810000D02*
X201261000Y-190810000D01*
X142508500Y-235260000D02*
X142508500Y-237180000D01*
X142508500Y-237180000D02*
X145193500Y-237180000D01*
X145193500Y-235260000D02*
X142508500Y-235260000D01*
X201769000Y-155250000D02*
X201769000Y-157170000D01*
X201769000Y-157170000D02*
X204454000Y-157170000D01*
X204454000Y-155250000D02*
X201769000Y-155250000D01*
X149777500Y-190653002D02*
X149777500Y-192573002D01*
X149777500Y-192573002D02*
X152462500Y-192573002D01*
X152462500Y-190653002D02*
X149777500Y-190653002D01*
X209038000Y-219258000D02*
X209038000Y-221178000D01*
X209038000Y-221178000D02*
X211723000Y-221178000D01*
X211723000Y-219258000D02*
X209038000Y-219258000D01*
X212672500Y-227894000D02*
X212672500Y-229814000D01*
X212672500Y-229814000D02*
X215357500Y-229814000D01*
X215357500Y-227894000D02*
X212672500Y-227894000D01*
%LPC*%
D15*
X209864000Y-228854000D03*
X211739000Y-228854000D03*
D16*
X148844000Y-193137002D03*
X148844000Y-195012004D03*
D15*
X202516500Y-160098499D03*
X204391500Y-160098499D03*
X183212500Y-191770000D03*
X185087500Y-191770000D03*
D16*
X169164000Y-165275501D03*
X169164000Y-167150503D03*
X190246000Y-196850000D03*
X190246000Y-198725002D03*
D15*
X209864000Y-231140000D03*
X211739000Y-231140000D03*
D16*
X151638000Y-161622499D03*
X151638000Y-163497501D03*
X217073000Y-225376499D03*
X217073000Y-227251501D03*
D15*
X147906500Y-169672000D03*
X149781500Y-169672000D03*
X202516500Y-169750499D03*
X204391500Y-169750499D03*
X158320500Y-209042000D03*
X160195500Y-209042000D03*
D16*
X217073000Y-221820499D03*
X217073000Y-223695501D03*
D15*
X165940500Y-236220000D03*
X167815500Y-236220000D03*
D17*
X182817000Y-240792000D03*
X184467000Y-240792000D03*
D16*
X190246000Y-193294000D03*
X190246000Y-195169002D03*
D17*
X182752000Y-242697000D03*
X184402000Y-242697000D03*
D15*
X171020500Y-173579002D03*
X172895500Y-173579002D03*
X202008500Y-183404000D03*
X203883500Y-183404000D03*
D18*
X188025000Y-238887000D03*
X188025000Y-240157000D03*
X188025000Y-241427000D03*
X188025000Y-242697000D03*
X192975000Y-242697000D03*
X192975000Y-241427000D03*
X192975000Y-240157000D03*
X192975000Y-238887000D03*
D17*
X202883000Y-240792000D03*
X204533000Y-240792000D03*
D15*
X141302500Y-197866000D03*
X143177500Y-197866000D03*
D16*
X154002500Y-225200998D03*
X154002500Y-227076000D03*
D15*
X192943000Y-217932000D03*
X194818000Y-217932000D03*
X150622000Y-183485002D03*
X152497000Y-183485002D03*
D17*
X202883000Y-242570000D03*
X204533000Y-242570000D03*
D15*
X217835000Y-177800000D03*
X219710000Y-177800000D03*
D16*
X133682500Y-210976998D03*
X133682500Y-212852000D03*
D15*
X132334000Y-182626000D03*
X134209000Y-182626000D03*
D16*
X196596000Y-196596000D03*
X196596000Y-198471002D03*
D15*
X180164500Y-173560499D03*
X182039500Y-173560499D03*
D16*
X212676500Y-174576499D03*
X212676500Y-176451501D03*
X196596000Y-184912000D03*
X196596000Y-186787002D03*
X167972500Y-225298000D03*
X167972500Y-227173002D03*
X187452000Y-221644998D03*
X187452000Y-223520000D03*
D15*
X193548000Y-203200000D03*
X195423002Y-203200000D03*
D16*
X178308000Y-165432499D03*
X178308000Y-167307501D03*
X145112500Y-214630000D03*
X145112500Y-216505002D03*
D15*
X181356000Y-203200000D03*
X183231002Y-203200000D03*
X137903500Y-217932000D03*
X139778500Y-217932000D03*
X141459500Y-217932000D03*
X143334500Y-217932000D03*
X132412500Y-197866000D03*
X134287500Y-197866000D03*
D16*
X157734000Y-184912000D03*
X157734000Y-186787002D03*
D15*
X171020500Y-163673002D03*
X172895500Y-163673002D03*
X202516500Y-164924499D03*
X204391500Y-164924499D03*
D16*
X156288500Y-225200998D03*
X156288500Y-227076000D03*
X165686500Y-210976998D03*
X165686500Y-212852000D03*
X171704000Y-196752998D03*
X171704000Y-198628000D03*
D17*
X162600500Y-238887000D03*
X164250500Y-238887000D03*
D16*
X162814000Y-196596000D03*
X162814000Y-198471002D03*
X205740000Y-196596000D03*
X205740000Y-198471002D03*
D15*
X213341500Y-217932000D03*
X215216500Y-217932000D03*
D16*
X154940000Y-166194499D03*
X154940000Y-168069501D03*
X185166000Y-225200998D03*
X185166000Y-227076000D03*
X176530000Y-187608998D03*
X176530000Y-189484000D03*
D15*
X154099500Y-183493002D03*
X155974500Y-183493002D03*
X141459500Y-206756000D03*
X143334500Y-206756000D03*
X141381000Y-231140000D03*
X143256000Y-231140000D03*
X156796500Y-164846000D03*
X158671500Y-164846000D03*
D16*
X196596000Y-221742000D03*
X196596000Y-223617002D03*
X200660000Y-166272998D03*
X200660000Y-168148000D03*
X196596000Y-210820000D03*
X196596000Y-212695002D03*
X198882000Y-221742000D03*
X198882000Y-223617002D03*
X156288500Y-221742000D03*
X156288500Y-223617002D03*
D15*
X189290000Y-217908000D03*
X191165000Y-217908000D03*
D16*
X144955500Y-179148499D03*
X144955500Y-181023501D03*
X162814000Y-184912000D03*
X162814000Y-186787002D03*
D15*
X167972500Y-199898000D03*
X169847500Y-199898000D03*
D16*
X130477500Y-174576499D03*
X130477500Y-176451501D03*
D15*
X151208500Y-236220000D03*
X153083500Y-236220000D03*
D16*
X196596000Y-225298000D03*
X196596000Y-227173002D03*
D15*
X192943000Y-206756000D03*
X194818000Y-206756000D03*
X192943000Y-209042000D03*
X194818000Y-209042000D03*
D19*
X176934500Y-242189000D03*
X175109500Y-242189000D03*
D15*
X186593000Y-200152000D03*
X188468000Y-200152000D03*
D16*
X157734000Y-196693002D03*
X157734000Y-198568004D03*
D15*
X183134000Y-183388000D03*
X185009000Y-183388000D03*
X158574499Y-203200000D03*
X160449501Y-203200000D03*
X168051000Y-191691501D03*
X169926000Y-191691501D03*
X150271000Y-199995002D03*
X152146000Y-199995002D03*
D16*
X139367500Y-179148499D03*
X139367500Y-181023501D03*
D15*
X213420000Y-231140000D03*
X215295000Y-231140000D03*
D16*
X200660000Y-161700998D03*
X200660000Y-163576000D03*
X176530000Y-194896499D03*
X176530000Y-196771501D03*
D15*
X156796500Y-160020000D03*
X158671500Y-160020000D03*
X137903500Y-209026000D03*
X139778500Y-209026000D03*
X219534500Y-167640000D03*
X221409500Y-167640000D03*
D16*
X207088500Y-179148499D03*
X207088500Y-181023501D03*
X135968500Y-214532998D03*
X135968500Y-216408000D03*
X145112500Y-221644998D03*
X145112500Y-223520000D03*
X154002500Y-221742000D03*
X154002500Y-223617002D03*
D15*
X147906500Y-164846000D03*
X149781500Y-164846000D03*
X213341500Y-220218000D03*
X215216500Y-220218000D03*
D16*
X215978500Y-179148499D03*
X215978500Y-181023501D03*
D15*
X208945000Y-172974000D03*
X210820000Y-172974000D03*
X161876500Y-220218000D03*
X163751500Y-220218000D03*
X215978500Y-194564000D03*
X217853500Y-194564000D03*
D16*
X185166000Y-214532998D03*
X185166000Y-216408000D03*
D15*
X186690000Y-183388000D03*
X188565000Y-183388000D03*
D16*
X176530000Y-223598499D03*
X176530000Y-225473501D03*
X160528000Y-166194499D03*
X160528000Y-168069501D03*
D15*
X209785500Y-217932000D03*
X211660500Y-217932000D03*
D16*
X205643000Y-214278998D03*
X205643000Y-216154000D03*
D15*
X141381000Y-228854000D03*
X143256000Y-228854000D03*
D16*
X147398500Y-221644998D03*
X147398500Y-223520000D03*
D15*
X138762500Y-162560000D03*
X140637500Y-162560000D03*
D16*
X219359000Y-210820000D03*
X219359000Y-212695002D03*
X167972500Y-214630000D03*
X167972500Y-216505002D03*
X205740000Y-193040000D03*
X205740000Y-194915002D03*
D20*
X128778000Y-230124000D03*
D21*
X128778000Y-227584000D03*
X128778000Y-225044001D03*
D16*
X154002500Y-211074000D03*
X154002500Y-212949002D03*
D15*
X219710000Y-197866000D03*
X221585000Y-197866000D03*
D22*
X175096500Y-238887000D03*
X176646500Y-238887000D03*
D16*
X212676500Y-179148499D03*
X212676500Y-181023501D03*
X181356000Y-184912000D03*
X181356000Y-186787002D03*
X198882000Y-225298000D03*
X198882000Y-227173002D03*
D17*
X182817000Y-239014000D03*
X184467000Y-239014000D03*
D15*
X180164500Y-163576000D03*
X182039500Y-163576000D03*
D18*
X208345000Y-238887000D03*
X208345000Y-240157000D03*
X208345000Y-241427000D03*
X208345000Y-242697000D03*
X213295000Y-242697000D03*
X213295000Y-241427000D03*
X213295000Y-240157000D03*
X213295000Y-238887000D03*
D15*
X200484500Y-179832000D03*
X202359500Y-179832000D03*
X164495000Y-199898000D03*
X166370000Y-199898000D03*
X158320500Y-220218000D03*
X160195500Y-220218000D03*
X132412500Y-167386000D03*
X134287500Y-167386000D03*
D16*
X181356000Y-193294000D03*
X181356000Y-195169002D03*
X198882000Y-214454499D03*
X198882000Y-216329501D03*
X196596000Y-193040000D03*
X196596000Y-194915002D03*
X130477500Y-179148499D03*
X130477500Y-181023501D03*
X205643000Y-225376499D03*
X205643000Y-227251501D03*
D15*
X185166000Y-236220000D03*
X187041000Y-236220000D03*
X198531000Y-191770000D03*
X200406000Y-191770000D03*
D16*
X207929000Y-225376499D03*
X207929000Y-227251501D03*
X154940000Y-161622499D03*
X154940000Y-163497501D03*
D15*
X141459500Y-209026000D03*
X143334500Y-209026000D03*
D16*
X221566500Y-179148499D03*
X221566500Y-181023501D03*
D15*
X197007000Y-236220000D03*
X198882000Y-236220000D03*
X200406000Y-203200000D03*
X202281002Y-203200000D03*
D18*
X167235500Y-238887000D03*
X167235500Y-240157000D03*
X167235500Y-241427000D03*
X167235500Y-242697000D03*
X172185500Y-242697000D03*
X172185500Y-241427000D03*
X172185500Y-240157000D03*
X172185500Y-238887000D03*
D15*
X171020500Y-168753002D03*
X172895500Y-168753002D03*
X137825000Y-231140000D03*
X139700000Y-231140000D03*
X161876500Y-209042000D03*
X163751500Y-209042000D03*
X136984500Y-194056000D03*
X138859500Y-194056000D03*
D16*
X162814000Y-193040000D03*
X162814000Y-194915002D03*
D15*
X168069500Y-183563501D03*
X169944500Y-183563501D03*
X147906500Y-160020000D03*
X149781500Y-160020000D03*
D23*
X222250000Y-156210000D03*
D24*
X222250000Y-156210000D03*
D16*
X133685206Y-221560894D03*
X133685206Y-223435896D03*
X196596000Y-214454499D03*
X196596000Y-216329501D03*
X139367500Y-174576499D03*
X139367500Y-176451501D03*
X148844000Y-196693002D03*
X148844000Y-198568004D03*
X196596000Y-188467999D03*
X196596000Y-190343001D03*
X207088500Y-174576499D03*
X207088500Y-176451501D03*
D15*
X137903500Y-220218000D03*
X139778500Y-220218000D03*
D22*
X196596000Y-240792000D03*
X198146000Y-240792000D03*
D16*
X145112500Y-211074000D03*
X145112500Y-212949002D03*
X165686500Y-214630000D03*
X165686500Y-216505002D03*
D15*
X151208500Y-179832000D03*
X153083500Y-179832000D03*
X189308500Y-206756000D03*
X191183500Y-206756000D03*
D16*
X133682500Y-225122499D03*
X133682500Y-226997501D03*
X144955500Y-174576499D03*
X144955500Y-176451501D03*
X217073000Y-214376000D03*
X217073000Y-216251002D03*
D15*
X141223999Y-172974000D03*
X143099001Y-172974000D03*
D22*
X196596000Y-239014000D03*
X198146000Y-239014000D03*
D16*
X136065500Y-174576499D03*
X136065500Y-176451501D03*
X205740000Y-184990499D03*
X205740000Y-186865501D03*
D15*
X186593000Y-191770000D03*
X188468000Y-191770000D03*
X193626500Y-164924499D03*
X195501500Y-164924499D03*
X158320500Y-217932000D03*
X160195500Y-217932000D03*
D16*
X217073000Y-210820000D03*
X217073000Y-212695002D03*
D15*
X158320500Y-228854000D03*
X160195500Y-228854000D03*
X198452500Y-183388000D03*
X200327500Y-183388000D03*
D17*
X141409000Y-242890000D03*
X143059000Y-242890000D03*
D16*
X171704000Y-188546499D03*
X171704000Y-190421501D03*
X207929000Y-210722998D03*
X207929000Y-212598000D03*
X151638000Y-166194499D03*
X151638000Y-168069501D03*
D15*
X156796500Y-169672000D03*
X158671500Y-169672000D03*
D16*
X207929000Y-214278998D03*
X207929000Y-216154000D03*
D15*
X161876500Y-228870000D03*
X163751500Y-228870000D03*
D16*
X146050000Y-161622499D03*
X146050000Y-163497501D03*
D15*
X211660500Y-162560000D03*
X213535500Y-162560000D03*
D23*
X130810000Y-247650000D03*
D24*
X130810000Y-247650000D03*
D15*
X215978500Y-191262000D03*
X217853500Y-191262000D03*
D16*
X206248000Y-166272998D03*
X206248000Y-168148000D03*
X219359000Y-221820499D03*
X219359000Y-223695501D03*
X205643000Y-210722998D03*
X205643000Y-212598000D03*
X176530000Y-212930499D03*
X176530000Y-214805501D03*
X215978500Y-174576499D03*
X215978500Y-176451501D03*
D15*
X137825000Y-228854000D03*
X139700000Y-228854000D03*
X192943000Y-228854000D03*
X194818000Y-228854000D03*
X136984500Y-191008000D03*
X138859500Y-191008000D03*
D16*
X185166000Y-210976998D03*
X185166000Y-212852000D03*
D15*
X217835000Y-172974000D03*
X219710000Y-172974000D03*
X193626500Y-156210000D03*
X195501500Y-156210000D03*
X161876500Y-231140000D03*
X163751500Y-231140000D03*
D16*
X160528000Y-161622499D03*
X160528000Y-163497501D03*
D15*
X132333999Y-172974000D03*
X134209001Y-172974000D03*
X211739000Y-197866000D03*
X213614000Y-197866000D03*
D16*
X197358000Y-161700998D03*
X197358000Y-163576000D03*
D15*
X181356000Y-179832000D03*
X183231000Y-179832000D03*
D16*
X133682500Y-214532998D03*
X133682500Y-216408000D03*
X178308000Y-170082998D03*
X178308000Y-171958000D03*
D15*
X141224000Y-182626000D03*
X143099000Y-182626000D03*
D16*
X135968500Y-225122499D03*
X135968500Y-226997501D03*
D15*
X132334000Y-177800000D03*
X134209000Y-177800000D03*
D16*
X171704000Y-184990499D03*
X171704000Y-186865501D03*
X135973594Y-221560894D03*
X135973594Y-223435896D03*
X148844000Y-184755002D03*
X148844000Y-186630004D03*
D15*
X219534500Y-162560000D03*
X221409500Y-162560000D03*
X208358500Y-236220000D03*
X210233500Y-236220000D03*
X183134000Y-200152000D03*
X185009000Y-200152000D03*
D19*
X219202000Y-242570000D03*
X217377000Y-242570000D03*
D15*
X192943000Y-220194000D03*
X194818000Y-220194000D03*
X164592000Y-183563501D03*
X166467000Y-183563501D03*
D16*
X205643000Y-221820499D03*
X205643000Y-223695501D03*
D15*
X161876500Y-206756000D03*
X163751500Y-206756000D03*
X189387000Y-228854000D03*
X191262000Y-228854000D03*
D19*
X157687500Y-242382000D03*
X155862500Y-242382000D03*
D15*
X158320500Y-206756000D03*
X160195500Y-206756000D03*
D23*
X222250000Y-247650000D03*
D24*
X222250000Y-247650000D03*
D16*
X147398500Y-211074000D03*
X147398500Y-212949002D03*
X157734000Y-188468000D03*
X157734000Y-190343002D03*
X136065500Y-179148499D03*
X136065500Y-181023501D03*
X221566500Y-174576499D03*
X221566500Y-176451501D03*
X148844000Y-188311002D03*
X148844000Y-190186004D03*
D15*
X192943000Y-231140000D03*
X194818000Y-231140000D03*
D16*
X190246000Y-184912000D03*
X190246000Y-186787002D03*
D15*
X209707000Y-209042000D03*
X211582000Y-209042000D03*
D16*
X156288500Y-211074000D03*
X156288500Y-212949002D03*
X207929000Y-221820499D03*
X207929000Y-223695501D03*
D17*
X141409000Y-239334000D03*
X143059000Y-239334000D03*
D16*
X181356000Y-188468000D03*
X181356000Y-190343002D03*
X154002500Y-214708499D03*
X154002500Y-216583501D03*
D15*
X141302500Y-188214000D03*
X143177500Y-188214000D03*
D16*
X169164000Y-170101501D03*
X169164000Y-171976503D03*
D15*
X202008500Y-199898000D03*
X203883500Y-199898000D03*
D16*
X185166000Y-221644998D03*
X185166000Y-223520000D03*
X174752000Y-165354000D03*
X174752000Y-167229002D03*
D15*
X153827000Y-199995002D03*
X155702000Y-199995002D03*
D16*
X135968500Y-210976998D03*
X135968500Y-212852000D03*
D15*
X164670500Y-191691501D03*
X166545500Y-191691501D03*
X169828998Y-203200000D03*
X171704000Y-203200000D03*
D16*
X190246000Y-188468000D03*
X190246000Y-190343002D03*
D22*
X217424000Y-240538000D03*
X218974000Y-240538000D03*
D15*
X211660500Y-167640000D03*
X213535500Y-167640000D03*
D16*
X191770000Y-166272998D03*
X191770000Y-168148000D03*
D15*
X213360000Y-209042000D03*
X215235000Y-209042000D03*
D16*
X165686500Y-221742000D03*
X165686500Y-223617002D03*
D15*
X137903500Y-206740000D03*
X139778500Y-206740000D03*
D16*
X219359000Y-225400499D03*
X219359000Y-227275501D03*
X183896000Y-170082998D03*
X183896000Y-171958000D03*
X145112500Y-225200998D03*
X145112500Y-227076000D03*
D22*
X155862500Y-240604000D03*
X157412500Y-240604000D03*
D15*
X219613000Y-188214000D03*
X221488000Y-188214000D03*
X151130000Y-203200000D03*
X153005002Y-203200000D03*
D16*
X181356000Y-196850000D03*
X181356000Y-198725002D03*
D15*
X208945000Y-177800000D03*
X210820000Y-177800000D03*
X198452500Y-199898000D03*
X200327500Y-199898000D03*
X189387000Y-231140000D03*
X191262000Y-231140000D03*
D22*
X217411000Y-238760000D03*
X218961000Y-238760000D03*
D17*
X141409000Y-241112000D03*
X143059000Y-241112000D03*
D19*
X198421000Y-242570000D03*
X196596000Y-242570000D03*
D16*
X156288500Y-214708499D03*
X156288500Y-216583501D03*
D15*
X193626500Y-169750499D03*
X195501500Y-169750499D03*
D16*
X183896000Y-165432499D03*
X183896000Y-167307501D03*
D15*
X193626500Y-160098499D03*
X195501500Y-160098499D03*
D16*
X171704000Y-193196998D03*
X171704000Y-195072000D03*
D15*
X161798000Y-217956000D03*
X163673000Y-217956000D03*
X219534500Y-236220000D03*
X221409500Y-236220000D03*
D16*
X165686500Y-225314000D03*
X165686500Y-227189002D03*
D15*
X132412500Y-188214000D03*
X134287500Y-188214000D03*
D17*
X162600500Y-242697000D03*
X164250500Y-242697000D03*
D16*
X157734000Y-193137002D03*
X157734000Y-195012004D03*
X167972500Y-210976998D03*
X167972500Y-212852000D03*
X187452000Y-225200998D03*
X187452000Y-227076000D03*
X197358000Y-166272998D03*
X197358000Y-168148000D03*
X147398500Y-225200998D03*
X147398500Y-227076000D03*
D15*
X154081000Y-191621002D03*
X155956000Y-191621002D03*
D16*
X146050000Y-166194499D03*
X146050000Y-168069501D03*
D15*
X189290000Y-220194000D03*
X191165000Y-220194000D03*
X141459500Y-220218000D03*
X143334500Y-220218000D03*
D16*
X147398500Y-214654000D03*
X147398500Y-216529002D03*
D17*
X162600500Y-240792000D03*
X164250500Y-240792000D03*
D15*
X209707000Y-206756000D03*
X211582000Y-206756000D03*
D16*
X167972500Y-221742000D03*
X167972500Y-223617002D03*
X205740000Y-188546499D03*
X205740000Y-190421501D03*
D15*
X158320500Y-231140000D03*
X160195500Y-231140000D03*
D22*
X155849500Y-239080000D03*
X157399500Y-239080000D03*
D17*
X202883000Y-239014000D03*
X204533000Y-239014000D03*
D16*
X162814000Y-188389501D03*
X162814000Y-190264503D03*
X174752000Y-170101501D03*
X174752000Y-171976503D03*
D15*
X208945000Y-182626000D03*
X210820000Y-182626000D03*
D16*
X187452000Y-214532998D03*
X187452000Y-216408000D03*
D15*
X156718000Y-156210000D03*
X158593000Y-156210000D03*
X141224000Y-177800000D03*
X143099000Y-177800000D03*
D23*
X130810000Y-156210000D03*
D24*
X130810000Y-156210000D03*
D15*
X147828000Y-156210000D03*
X149703000Y-156210000D03*
D16*
X206248000Y-161700998D03*
X206248000Y-163576000D03*
D15*
X132412500Y-162560000D03*
X134287500Y-162560000D03*
X189230000Y-209042000D03*
X191105000Y-209042000D03*
X158574499Y-179832000D03*
X160449501Y-179832000D03*
X169829000Y-179832000D03*
X171704000Y-179832000D03*
D22*
X175096500Y-240411000D03*
X176646500Y-240411000D03*
D16*
X198882000Y-210898499D03*
X198882000Y-212773501D03*
X191770000Y-161700998D03*
X191770000Y-163576000D03*
D15*
X180164500Y-168734499D03*
X182039500Y-168734499D03*
X211739000Y-188214000D03*
X213614000Y-188214000D03*
D18*
X146877000Y-239141000D03*
X146877000Y-240411000D03*
X146877000Y-241681000D03*
X146877000Y-242951000D03*
X151827000Y-242951000D03*
X151827000Y-241681000D03*
X151827000Y-240411000D03*
X151827000Y-239141000D03*
D15*
X193626500Y-179832000D03*
X195501500Y-179832000D03*
D16*
X219359000Y-214376000D03*
X219359000Y-216251002D03*
D15*
X213360000Y-206772000D03*
X215235000Y-206772000D03*
D16*
X187452000Y-210976998D03*
X187452000Y-212852000D03*
D15*
X217835000Y-182626000D03*
X219710000Y-182626000D03*
X138762500Y-167386000D03*
X140637500Y-167386000D03*
X158828500Y-236220000D03*
X160703500Y-236220000D03*
X202008500Y-191770000D03*
X203883500Y-191770000D03*
X143256000Y-236220000D03*
X145131000Y-236220000D03*
X202516500Y-156210000D03*
X204391500Y-156210000D03*
X150525000Y-191613002D03*
X152400000Y-191613002D03*
X209785500Y-220218000D03*
X211660500Y-220218000D03*
X213420000Y-228854000D03*
X215295000Y-228854000D03*
D25*
X213385400Y-214147400D03*
X213385400Y-213360000D03*
X213385400Y-212572600D03*
X212598000Y-214147400D03*
X212598000Y-213360000D03*
X212598000Y-212572600D03*
X211810600Y-214147400D03*
X211810600Y-213360000D03*
X211810600Y-212572600D03*
X144526000Y-192811400D03*
X144526000Y-192024000D03*
X144526000Y-191236600D03*
X143738600Y-192811400D03*
X143738600Y-192024000D03*
X143738600Y-191236600D03*
X142951200Y-192811400D03*
X142951200Y-192024000D03*
X142951200Y-191236600D03*
X191465115Y-181832400D03*
X191465115Y-181045000D03*
X191465115Y-180257600D03*
X190677715Y-181832400D03*
X190677715Y-181045000D03*
X190677715Y-180257600D03*
X189890315Y-181832400D03*
X189890315Y-181045000D03*
X189890315Y-180257600D03*
D20*
X135950000Y-248960000D03*
D21*
X135950000Y-246420000D03*
X138490000Y-248960000D03*
X138490000Y-246420000D03*
X141029999Y-248960000D03*
X141030000Y-246420000D03*
X143570000Y-248960000D03*
X143570000Y-246420000D03*
X146110000Y-248960000D03*
X146110000Y-246420000D03*
X148650000Y-248960000D03*
X148650000Y-246420000D03*
X151190000Y-248960000D03*
X151190000Y-246420000D03*
X153730001Y-248960000D03*
X153730000Y-246420000D03*
X156270000Y-248960000D03*
X156270000Y-246420000D03*
X158810000Y-248960000D03*
X158810000Y-246420000D03*
X161350000Y-248960000D03*
X161350000Y-246420000D03*
X163889999Y-248960000D03*
X163890000Y-246420000D03*
X166430000Y-248960000D03*
X166430000Y-246420000D03*
X168970000Y-248960000D03*
X168970000Y-246420000D03*
X171510000Y-248960000D03*
X171510000Y-246420000D03*
X174049999Y-248960000D03*
X174050000Y-246420000D03*
X176590001Y-248960000D03*
X176590000Y-246420000D03*
X179130000Y-248960000D03*
X179130000Y-246420000D03*
X181670000Y-248960000D03*
X181670000Y-246420000D03*
X184210000Y-248960000D03*
X184210000Y-246420000D03*
D20*
X207772000Y-248920000D03*
D21*
X210312000Y-248920000D03*
X212851999Y-248920000D03*
X215392000Y-248920000D03*
X217932000Y-248920000D03*
D25*
X163773400Y-181889400D03*
X163773400Y-181102000D03*
X163773400Y-180314600D03*
X162986000Y-181889400D03*
X162986000Y-181102000D03*
X162986000Y-180314600D03*
X162198600Y-181889400D03*
X162198600Y-181102000D03*
X162198600Y-180314600D03*
X138430000Y-171983400D03*
X138430000Y-171196000D03*
X138430000Y-170408600D03*
X137642600Y-171983400D03*
X137642600Y-171196000D03*
X137642600Y-170408600D03*
X136855200Y-171983400D03*
X136855200Y-171196000D03*
X136855200Y-170408600D03*
D20*
X197612000Y-248920000D03*
D21*
X200152000Y-248920000D03*
X202691999Y-248920000D03*
X205232000Y-248920000D03*
D26*
X137922000Y-239522000D03*
D27*
X131922000Y-239522000D03*
D28*
X134922000Y-234822000D03*
D25*
X215163400Y-172237400D03*
X215163400Y-171450000D03*
X215163400Y-170662600D03*
X214376000Y-172237400D03*
X214376000Y-171450000D03*
X214376000Y-170662600D03*
X213588600Y-172237400D03*
X213588600Y-171450000D03*
X213588600Y-170662600D03*
X177596800Y-199669400D03*
X177596800Y-198882000D03*
X177596800Y-198094600D03*
X176809400Y-199669400D03*
X176809400Y-198882000D03*
X176809400Y-198094600D03*
X176022000Y-199669400D03*
X176022000Y-198882000D03*
X176022000Y-198094600D03*
D20*
X187442000Y-248920000D03*
D21*
X189982000Y-248920000D03*
X192521999Y-248920000D03*
X195062000Y-248920000D03*
D25*
X141274800Y-214122000D03*
X141274800Y-213334600D03*
X141274800Y-212547200D03*
X140487400Y-214122000D03*
X140487400Y-213334600D03*
X140487400Y-212547200D03*
X139700000Y-214122000D03*
X139700000Y-213334600D03*
X139700000Y-212547200D03*
X161848800Y-214172800D03*
X161848800Y-213385400D03*
X161848800Y-212598000D03*
X161061400Y-214172800D03*
X161061400Y-213385400D03*
X161061400Y-212598000D03*
X160274000Y-214172800D03*
X160274000Y-213385400D03*
X160274000Y-212598000D03*
X211353400Y-192811400D03*
X211353400Y-192024000D03*
X211353400Y-191236600D03*
X210566000Y-192811400D03*
X210566000Y-192024000D03*
X210566000Y-191236600D03*
X209778600Y-192811400D03*
X209778600Y-192024000D03*
X209778600Y-191236600D03*
X192811400Y-214401400D03*
X192811400Y-213614000D03*
X192811400Y-212826600D03*
X192024000Y-214401400D03*
X192024000Y-213614000D03*
X192024000Y-212826600D03*
X191236600Y-214401400D03*
X191236600Y-213614000D03*
X191236600Y-212826600D03*
X177317400Y-164084000D03*
X177317400Y-163296600D03*
X177317400Y-162509200D03*
X176530000Y-164084000D03*
X176530000Y-163296600D03*
X176530000Y-162509200D03*
X175742600Y-164084000D03*
X175742600Y-163296600D03*
X175742600Y-162509200D03*
%LPD*%
M02*
