%TF.GenerationSoftware,KiCad,Pcbnew,8.0.3*%
%TF.CreationDate,2024-07-11T15:42:11-04:00*%
%TF.ProjectId,_HW_Mini-Scoreboard,5f48575f-4d69-46e6-992d-53636f726562,v1.0*%
%TF.SameCoordinates,Original*%
%TF.FileFunction,Drillmap*%
%TF.FilePolarity,Positive*%
%FSLAX45Y45*%
G04 Gerber Fmt 4.5, Leading zero omitted, Abs format (unit mm)*
G04 Created by KiCad (PCBNEW 8.0.3) date 2024-07-11 15:42:11*
%MOMM*%
%LPD*%
G01*
G04 APERTURE LIST*
%ADD10C,0.050000*%
%ADD11C,0.200000*%
%ADD12C,0.100000*%
%ADD13C,0.320000*%
G04 APERTURE END LIST*
D10*
X12700000Y-15740000D02*
G75*
G02*
X13200000Y-15240000I500000J0D01*
G01*
X13200000Y-25146000D02*
G75*
G02*
X12700000Y-24646000I0J500000D01*
G01*
X22606000Y-24646000D02*
G75*
G02*
X22106000Y-25146000I-500000J0D01*
G01*
X22606000Y-15740000D02*
X22606000Y-24646000D01*
X22106000Y-25146000D02*
X13200000Y-25146000D01*
X13200000Y-15240000D02*
X22106000Y-15240000D01*
X12700000Y-24646000D02*
X12700000Y-15740000D01*
X22106000Y-15240000D02*
G75*
G02*
X22606000Y-15740000I0J-500000D01*
G01*
D11*
D12*
X13672820Y-17028160D02*
X13698220Y-17053560D01*
X13698220Y-17028160D02*
X13672820Y-17053560D01*
X13672820Y-17106900D02*
X13698220Y-17132300D01*
X13698220Y-17106900D02*
X13672820Y-17132300D01*
X13672820Y-17185640D02*
X13698220Y-17211040D01*
X13698220Y-17185640D02*
X13672820Y-17211040D01*
X13751560Y-17028160D02*
X13776960Y-17053560D01*
X13776960Y-17028160D02*
X13751560Y-17053560D01*
X13751560Y-17106900D02*
X13776960Y-17132300D01*
X13776960Y-17106900D02*
X13751560Y-17132300D01*
X13751560Y-17185640D02*
X13776960Y-17211040D01*
X13776960Y-17185640D02*
X13751560Y-17211040D01*
X13830300Y-17028160D02*
X13855700Y-17053560D01*
X13855700Y-17028160D02*
X13830300Y-17053560D01*
X13830300Y-17106900D02*
X13855700Y-17132300D01*
X13855700Y-17106900D02*
X13830300Y-17132300D01*
X13830300Y-17185640D02*
X13855700Y-17211040D01*
X13855700Y-17185640D02*
X13830300Y-17211040D01*
X13957300Y-21242020D02*
X13982700Y-21267420D01*
X13982700Y-21242020D02*
X13957300Y-21267420D01*
X13957300Y-21320760D02*
X13982700Y-21346160D01*
X13982700Y-21320760D02*
X13957300Y-21346160D01*
X13957300Y-21399500D02*
X13982700Y-21424900D01*
X13982700Y-21399500D02*
X13957300Y-21424900D01*
X14036040Y-21242020D02*
X14061440Y-21267420D01*
X14061440Y-21242020D02*
X14036040Y-21267420D01*
X14036040Y-21320760D02*
X14061440Y-21346160D01*
X14061440Y-21320760D02*
X14036040Y-21346160D01*
X14036040Y-21399500D02*
X14061440Y-21424900D01*
X14061440Y-21399500D02*
X14036040Y-21424900D01*
X14114780Y-21242020D02*
X14140180Y-21267420D01*
X14140180Y-21242020D02*
X14114780Y-21267420D01*
X14114780Y-21320760D02*
X14140180Y-21346160D01*
X14140180Y-21320760D02*
X14114780Y-21346160D01*
X14114780Y-21399500D02*
X14140180Y-21424900D01*
X14140180Y-21399500D02*
X14114780Y-21424900D01*
X14282420Y-19110960D02*
X14307820Y-19136360D01*
X14307820Y-19110960D02*
X14282420Y-19136360D01*
X14282420Y-19189700D02*
X14307820Y-19215100D01*
X14307820Y-19189700D02*
X14282420Y-19215100D01*
X14282420Y-19268440D02*
X14307820Y-19293840D01*
X14307820Y-19268440D02*
X14282420Y-19293840D01*
X14361160Y-19110960D02*
X14386560Y-19136360D01*
X14386560Y-19110960D02*
X14361160Y-19136360D01*
X14361160Y-19189700D02*
X14386560Y-19215100D01*
X14386560Y-19189700D02*
X14361160Y-19215100D01*
X14361160Y-19268440D02*
X14386560Y-19293840D01*
X14386560Y-19268440D02*
X14361160Y-19293840D01*
X14439900Y-19110960D02*
X14465300Y-19136360D01*
X14465300Y-19110960D02*
X14439900Y-19136360D01*
X14439900Y-19189700D02*
X14465300Y-19215100D01*
X14465300Y-19189700D02*
X14439900Y-19215100D01*
X14439900Y-19268440D02*
X14465300Y-19293840D01*
X14465300Y-19268440D02*
X14439900Y-19293840D01*
X16014700Y-21247100D02*
X16040100Y-21272500D01*
X16040100Y-21247100D02*
X16014700Y-21272500D01*
X16014700Y-21325840D02*
X16040100Y-21351240D01*
X16040100Y-21325840D02*
X16014700Y-21351240D01*
X16014700Y-21404580D02*
X16040100Y-21429980D01*
X16040100Y-21404580D02*
X16014700Y-21429980D01*
X16093440Y-21247100D02*
X16118840Y-21272500D01*
X16118840Y-21247100D02*
X16093440Y-21272500D01*
X16093440Y-21325840D02*
X16118840Y-21351240D01*
X16118840Y-21325840D02*
X16093440Y-21351240D01*
X16093440Y-21404580D02*
X16118840Y-21429980D01*
X16118840Y-21404580D02*
X16093440Y-21429980D01*
X16172180Y-21247100D02*
X16197580Y-21272500D01*
X16197580Y-21247100D02*
X16172180Y-21272500D01*
X16172180Y-21325840D02*
X16197580Y-21351240D01*
X16197580Y-21325840D02*
X16172180Y-21351240D01*
X16172180Y-21404580D02*
X16197580Y-21429980D01*
X16197580Y-21404580D02*
X16172180Y-21429980D01*
X16207160Y-18018760D02*
X16232560Y-18044160D01*
X16232560Y-18018760D02*
X16207160Y-18044160D01*
X16207160Y-18097500D02*
X16232560Y-18122900D01*
X16232560Y-18097500D02*
X16207160Y-18122900D01*
X16207160Y-18176240D02*
X16232560Y-18201640D01*
X16232560Y-18176240D02*
X16207160Y-18201640D01*
X16285900Y-18018760D02*
X16311300Y-18044160D01*
X16311300Y-18018760D02*
X16285900Y-18044160D01*
X16285900Y-18097500D02*
X16311300Y-18122900D01*
X16311300Y-18097500D02*
X16285900Y-18122900D01*
X16285900Y-18176240D02*
X16311300Y-18201640D01*
X16311300Y-18176240D02*
X16285900Y-18201640D01*
X16364640Y-18018760D02*
X16390040Y-18044160D01*
X16390040Y-18018760D02*
X16364640Y-18044160D01*
X16364640Y-18097500D02*
X16390040Y-18122900D01*
X16390040Y-18097500D02*
X16364640Y-18122900D01*
X16364640Y-18176240D02*
X16390040Y-18201640D01*
X16390040Y-18176240D02*
X16364640Y-18201640D01*
X17561560Y-16238220D02*
X17586960Y-16263620D01*
X17586960Y-16238220D02*
X17561560Y-16263620D01*
X17561560Y-16316960D02*
X17586960Y-16342360D01*
X17586960Y-16316960D02*
X17561560Y-16342360D01*
X17561560Y-16395700D02*
X17586960Y-16421100D01*
X17586960Y-16395700D02*
X17561560Y-16421100D01*
X17589500Y-19796760D02*
X17614900Y-19822160D01*
X17614900Y-19796760D02*
X17589500Y-19822160D01*
X17589500Y-19875500D02*
X17614900Y-19900900D01*
X17614900Y-19875500D02*
X17589500Y-19900900D01*
X17589500Y-19954240D02*
X17614900Y-19979640D01*
X17614900Y-19954240D02*
X17589500Y-19979640D01*
X17640300Y-16238220D02*
X17665700Y-16263620D01*
X17665700Y-16238220D02*
X17640300Y-16263620D01*
X17640300Y-16316960D02*
X17665700Y-16342360D01*
X17665700Y-16316960D02*
X17640300Y-16342360D01*
X17640300Y-16395700D02*
X17665700Y-16421100D01*
X17665700Y-16395700D02*
X17640300Y-16421100D01*
X17668240Y-19796760D02*
X17693640Y-19822160D01*
X17693640Y-19796760D02*
X17668240Y-19822160D01*
X17668240Y-19875500D02*
X17693640Y-19900900D01*
X17693640Y-19875500D02*
X17668240Y-19900900D01*
X17668240Y-19954240D02*
X17693640Y-19979640D01*
X17693640Y-19954240D02*
X17668240Y-19979640D01*
X17719040Y-16238220D02*
X17744440Y-16263620D01*
X17744440Y-16238220D02*
X17719040Y-16263620D01*
X17719040Y-16316960D02*
X17744440Y-16342360D01*
X17744440Y-16316960D02*
X17719040Y-16342360D01*
X17719040Y-16395700D02*
X17744440Y-16421100D01*
X17744440Y-16395700D02*
X17719040Y-16421100D01*
X17746980Y-19796760D02*
X17772380Y-19822160D01*
X17772380Y-19796760D02*
X17746980Y-19822160D01*
X17746980Y-19875500D02*
X17772380Y-19900900D01*
X17772380Y-19875500D02*
X17746980Y-19900900D01*
X17746980Y-19954240D02*
X17772380Y-19979640D01*
X17772380Y-19954240D02*
X17746980Y-19979640D01*
X18976332Y-18013060D02*
X19001732Y-18038460D01*
X19001732Y-18013060D02*
X18976332Y-18038460D01*
X18976332Y-18091800D02*
X19001732Y-18117200D01*
X19001732Y-18091800D02*
X18976332Y-18117200D01*
X18976332Y-18170540D02*
X19001732Y-18195940D01*
X19001732Y-18170540D02*
X18976332Y-18195940D01*
X19055072Y-18013060D02*
X19080472Y-18038460D01*
X19080472Y-18013060D02*
X19055072Y-18038460D01*
X19055072Y-18091800D02*
X19080472Y-18117200D01*
X19080472Y-18091800D02*
X19055072Y-18117200D01*
X19055072Y-18170540D02*
X19080472Y-18195940D01*
X19080472Y-18170540D02*
X19055072Y-18195940D01*
X19110960Y-21269960D02*
X19136360Y-21295360D01*
X19136360Y-21269960D02*
X19110960Y-21295360D01*
X19110960Y-21348700D02*
X19136360Y-21374100D01*
X19136360Y-21348700D02*
X19110960Y-21374100D01*
X19110960Y-21427440D02*
X19136360Y-21452840D01*
X19136360Y-21427440D02*
X19110960Y-21452840D01*
X19133812Y-18013060D02*
X19159212Y-18038460D01*
X19159212Y-18013060D02*
X19133812Y-18038460D01*
X19133812Y-18091800D02*
X19159212Y-18117200D01*
X19159212Y-18091800D02*
X19133812Y-18117200D01*
X19133812Y-18170540D02*
X19159212Y-18195940D01*
X19159212Y-18170540D02*
X19133812Y-18195940D01*
X19189700Y-21269960D02*
X19215100Y-21295360D01*
X19215100Y-21269960D02*
X19189700Y-21295360D01*
X19189700Y-21348700D02*
X19215100Y-21374100D01*
X19215100Y-21348700D02*
X19189700Y-21374100D01*
X19189700Y-21427440D02*
X19215100Y-21452840D01*
X19215100Y-21427440D02*
X19189700Y-21452840D01*
X19268440Y-21269960D02*
X19293840Y-21295360D01*
X19293840Y-21269960D02*
X19268440Y-21295360D01*
X19268440Y-21348700D02*
X19293840Y-21374100D01*
X19293840Y-21348700D02*
X19268440Y-21374100D01*
X19268440Y-21427440D02*
X19293840Y-21452840D01*
X19293840Y-21427440D02*
X19268440Y-21452840D01*
X20965160Y-19110960D02*
X20990560Y-19136360D01*
X20990560Y-19110960D02*
X20965160Y-19136360D01*
X20965160Y-19189700D02*
X20990560Y-19215100D01*
X20990560Y-19189700D02*
X20965160Y-19215100D01*
X20965160Y-19268440D02*
X20990560Y-19293840D01*
X20990560Y-19268440D02*
X20965160Y-19293840D01*
X21043900Y-19110960D02*
X21069300Y-19136360D01*
X21069300Y-19110960D02*
X21043900Y-19136360D01*
X21043900Y-19189700D02*
X21069300Y-19215100D01*
X21069300Y-19189700D02*
X21043900Y-19215100D01*
X21043900Y-19268440D02*
X21069300Y-19293840D01*
X21069300Y-19268440D02*
X21043900Y-19293840D01*
X21122640Y-19110960D02*
X21148040Y-19136360D01*
X21148040Y-19110960D02*
X21122640Y-19136360D01*
X21122640Y-19189700D02*
X21148040Y-19215100D01*
X21148040Y-19189700D02*
X21122640Y-19215100D01*
X21122640Y-19268440D02*
X21148040Y-19293840D01*
X21148040Y-19268440D02*
X21122640Y-19293840D01*
X21168360Y-21244560D02*
X21193760Y-21269960D01*
X21193760Y-21244560D02*
X21168360Y-21269960D01*
X21168360Y-21323300D02*
X21193760Y-21348700D01*
X21193760Y-21323300D02*
X21168360Y-21348700D01*
X21168360Y-21402040D02*
X21193760Y-21427440D01*
X21193760Y-21402040D02*
X21168360Y-21427440D01*
X21247100Y-21244560D02*
X21272500Y-21269960D01*
X21272500Y-21244560D02*
X21247100Y-21269960D01*
X21247100Y-21323300D02*
X21272500Y-21348700D01*
X21272500Y-21323300D02*
X21247100Y-21348700D01*
X21247100Y-21402040D02*
X21272500Y-21427440D01*
X21272500Y-21402040D02*
X21247100Y-21427440D01*
X21325840Y-21244560D02*
X21351240Y-21269960D01*
X21351240Y-21244560D02*
X21325840Y-21269960D01*
X21325840Y-21323300D02*
X21351240Y-21348700D01*
X21351240Y-21323300D02*
X21325840Y-21348700D01*
X21325840Y-21402040D02*
X21351240Y-21427440D01*
X21351240Y-21402040D02*
X21325840Y-21427440D01*
X21346160Y-17053560D02*
X21371560Y-17078960D01*
X21371560Y-17053560D02*
X21346160Y-17078960D01*
X21346160Y-17132300D02*
X21371560Y-17157700D01*
X21371560Y-17132300D02*
X21346160Y-17157700D01*
X21346160Y-17211040D02*
X21371560Y-17236440D01*
X21371560Y-17211040D02*
X21346160Y-17236440D01*
X21424900Y-17053560D02*
X21450300Y-17078960D01*
X21450300Y-17053560D02*
X21424900Y-17078960D01*
X21424900Y-17132300D02*
X21450300Y-17157700D01*
X21450300Y-17132300D02*
X21424900Y-17157700D01*
X21424900Y-17211040D02*
X21450300Y-17236440D01*
X21450300Y-17211040D02*
X21424900Y-17236440D01*
X21503640Y-17053560D02*
X21529040Y-17078960D01*
X21529040Y-17053560D02*
X21503640Y-17078960D01*
X21503640Y-17132300D02*
X21529040Y-17157700D01*
X21529040Y-17132300D02*
X21503640Y-17157700D01*
X21503640Y-17211040D02*
X21529040Y-17236440D01*
X21529040Y-17211040D02*
X21503640Y-17236440D01*
X12943600Y-16611600D02*
G75*
G02*
X12913600Y-16611600I-15000J0D01*
G01*
X12913600Y-16611600D02*
G75*
G02*
X12943600Y-16611600I15000J0D01*
G01*
X12960810Y-17914850D02*
G75*
G02*
X12930810Y-17914850I-15000J0D01*
G01*
X12930810Y-17914850D02*
G75*
G02*
X12960810Y-17914850I15000J0D01*
G01*
X13146800Y-16459200D02*
G75*
G02*
X13116800Y-16459200I-15000J0D01*
G01*
X13116800Y-16459200D02*
G75*
G02*
X13146800Y-16459200I15000J0D01*
G01*
X13146800Y-17780000D02*
G75*
G02*
X13116800Y-17780000I-15000J0D01*
G01*
X13116800Y-17780000D02*
G75*
G02*
X13146800Y-17780000I15000J0D01*
G01*
X13146800Y-21107400D02*
G75*
G02*
X13116800Y-21107400I-15000J0D01*
G01*
X13116800Y-21107400D02*
G75*
G02*
X13146800Y-21107400I15000J0D01*
G01*
X13223000Y-17551400D02*
G75*
G02*
X13193000Y-17551400I-15000J0D01*
G01*
X13193000Y-17551400D02*
G75*
G02*
X13223000Y-17551400I15000J0D01*
G01*
X13223000Y-21005800D02*
G75*
G02*
X13193000Y-21005800I-15000J0D01*
G01*
X13193000Y-21005800D02*
G75*
G02*
X13223000Y-21005800I15000J0D01*
G01*
X13223000Y-21183600D02*
G75*
G02*
X13193000Y-21183600I-15000J0D01*
G01*
X13193000Y-21183600D02*
G75*
G02*
X13223000Y-21183600I15000J0D01*
G01*
X13223000Y-21361400D02*
G75*
G02*
X13193000Y-21361400I-15000J0D01*
G01*
X13193000Y-21361400D02*
G75*
G02*
X13223000Y-21361400I15000J0D01*
G01*
X13223000Y-21539200D02*
G75*
G02*
X13193000Y-21539200I-15000J0D01*
G01*
X13193000Y-21539200D02*
G75*
G02*
X13223000Y-21539200I15000J0D01*
G01*
X13223000Y-21717000D02*
G75*
G02*
X13193000Y-21717000I-15000J0D01*
G01*
X13193000Y-21717000D02*
G75*
G02*
X13223000Y-21717000I15000J0D01*
G01*
X13248400Y-16052800D02*
G75*
G02*
X13218400Y-16052800I-15000J0D01*
G01*
X13218400Y-16052800D02*
G75*
G02*
X13248400Y-16052800I15000J0D01*
G01*
X13248400Y-18262600D02*
G75*
G02*
X13218400Y-18262600I-15000J0D01*
G01*
X13218400Y-18262600D02*
G75*
G02*
X13248400Y-18262600I15000J0D01*
G01*
X13248400Y-18821400D02*
G75*
G02*
X13218400Y-18821400I-15000J0D01*
G01*
X13218400Y-18821400D02*
G75*
G02*
X13248400Y-18821400I15000J0D01*
G01*
X13248400Y-19786600D02*
G75*
G02*
X13218400Y-19786600I-15000J0D01*
G01*
X13218400Y-19786600D02*
G75*
G02*
X13248400Y-19786600I15000J0D01*
G01*
X13248400Y-20828000D02*
G75*
G02*
X13218400Y-20828000I-15000J0D01*
G01*
X13218400Y-20828000D02*
G75*
G02*
X13248400Y-20828000I15000J0D01*
G01*
X13308560Y-16484600D02*
G75*
G02*
X13278560Y-16484600I-15000J0D01*
G01*
X13278560Y-16484600D02*
G75*
G02*
X13308560Y-16484600I15000J0D01*
G01*
X13350000Y-17475200D02*
G75*
G02*
X13320000Y-17475200I-15000J0D01*
G01*
X13320000Y-17475200D02*
G75*
G02*
X13350000Y-17475200I15000J0D01*
G01*
X13350000Y-19253200D02*
G75*
G02*
X13320000Y-19253200I-15000J0D01*
G01*
X13320000Y-19253200D02*
G75*
G02*
X13350000Y-19253200I15000J0D01*
G01*
X13350000Y-19405600D02*
G75*
G02*
X13320000Y-19405600I-15000J0D01*
G01*
X13320000Y-19405600D02*
G75*
G02*
X13350000Y-19405600I15000J0D01*
G01*
X13375400Y-16408400D02*
G75*
G02*
X13345400Y-16408400I-15000J0D01*
G01*
X13345400Y-16408400D02*
G75*
G02*
X13375400Y-16408400I15000J0D01*
G01*
X13383521Y-22156089D02*
G75*
G02*
X13353521Y-22156089I-15000J0D01*
G01*
X13353521Y-22156089D02*
G75*
G02*
X13383521Y-22156089I15000J0D01*
G01*
X13435560Y-16535400D02*
G75*
G02*
X13405560Y-16535400I-15000J0D01*
G01*
X13405560Y-16535400D02*
G75*
G02*
X13435560Y-16535400I15000J0D01*
G01*
X13451600Y-18034000D02*
G75*
G02*
X13421600Y-18034000I-15000J0D01*
G01*
X13421600Y-18034000D02*
G75*
G02*
X13451600Y-18034000I15000J0D01*
G01*
X13494550Y-17457650D02*
G75*
G02*
X13464550Y-17457650I-15000J0D01*
G01*
X13464550Y-17457650D02*
G75*
G02*
X13494550Y-17457650I15000J0D01*
G01*
X13502400Y-20523200D02*
G75*
G02*
X13472400Y-20523200I-15000J0D01*
G01*
X13472400Y-20523200D02*
G75*
G02*
X13502400Y-20523200I15000J0D01*
G01*
X13535737Y-20733560D02*
G75*
G02*
X13505737Y-20733560I-15000J0D01*
G01*
X13505737Y-20733560D02*
G75*
G02*
X13535737Y-20733560I15000J0D01*
G01*
X13548120Y-16382940D02*
G75*
G02*
X13518120Y-16382940I-15000J0D01*
G01*
X13518120Y-16382940D02*
G75*
G02*
X13548120Y-16382940I15000J0D01*
G01*
X13581682Y-20666240D02*
G75*
G02*
X13551682Y-20666240I-15000J0D01*
G01*
X13551682Y-20666240D02*
G75*
G02*
X13581682Y-20666240I15000J0D01*
G01*
X13604000Y-22021800D02*
G75*
G02*
X13574000Y-22021800I-15000J0D01*
G01*
X13574000Y-22021800D02*
G75*
G02*
X13604000Y-22021800I15000J0D01*
G01*
X13654800Y-16027400D02*
G75*
G02*
X13624800Y-16027400I-15000J0D01*
G01*
X13624800Y-16027400D02*
G75*
G02*
X13654800Y-16027400I15000J0D01*
G01*
X13654800Y-20599400D02*
G75*
G02*
X13624800Y-20599400I-15000J0D01*
G01*
X13624800Y-20599400D02*
G75*
G02*
X13654800Y-20599400I15000J0D01*
G01*
X13680200Y-18516600D02*
G75*
G02*
X13650200Y-18516600I-15000J0D01*
G01*
X13650200Y-18516600D02*
G75*
G02*
X13680200Y-18516600I15000J0D01*
G01*
X13680200Y-18596600D02*
G75*
G02*
X13650200Y-18596600I-15000J0D01*
G01*
X13650200Y-18596600D02*
G75*
G02*
X13680200Y-18596600I15000J0D01*
G01*
X13680200Y-18676601D02*
G75*
G02*
X13650200Y-18676601I-15000J0D01*
G01*
X13650200Y-18676601D02*
G75*
G02*
X13680200Y-18676601I15000J0D01*
G01*
X13700520Y-16382940D02*
G75*
G02*
X13670520Y-16382940I-15000J0D01*
G01*
X13670520Y-16382940D02*
G75*
G02*
X13700520Y-16382940I15000J0D01*
G01*
X13756400Y-18364200D02*
G75*
G02*
X13726400Y-18364200I-15000J0D01*
G01*
X13726400Y-18364200D02*
G75*
G02*
X13756400Y-18364200I15000J0D01*
G01*
X13765420Y-20430620D02*
G75*
G02*
X13735420Y-20430620I-15000J0D01*
G01*
X13735420Y-20430620D02*
G75*
G02*
X13765420Y-20430620I15000J0D01*
G01*
X13807200Y-22199600D02*
G75*
G02*
X13777200Y-22199600I-15000J0D01*
G01*
X13777200Y-22199600D02*
G75*
G02*
X13807200Y-22199600I15000J0D01*
G01*
X13807200Y-22885400D02*
G75*
G02*
X13777200Y-22885400I-15000J0D01*
G01*
X13777200Y-22885400D02*
G75*
G02*
X13807200Y-22885400I15000J0D01*
G01*
X13852920Y-16379240D02*
G75*
G02*
X13822920Y-16379240I-15000J0D01*
G01*
X13822920Y-16379240D02*
G75*
G02*
X13852920Y-16379240I15000J0D01*
G01*
X13870700Y-18326100D02*
G75*
G02*
X13840700Y-18326100I-15000J0D01*
G01*
X13840700Y-18326100D02*
G75*
G02*
X13870700Y-18326100I15000J0D01*
G01*
X13883400Y-16027400D02*
G75*
G02*
X13853400Y-16027400I-15000J0D01*
G01*
X13853400Y-16027400D02*
G75*
G02*
X13883400Y-16027400I15000J0D01*
G01*
X13896100Y-22161500D02*
G75*
G02*
X13866100Y-22161500I-15000J0D01*
G01*
X13866100Y-22161500D02*
G75*
G02*
X13896100Y-22161500I15000J0D01*
G01*
X13917820Y-20430960D02*
G75*
G02*
X13887820Y-20430960I-15000J0D01*
G01*
X13887820Y-20430960D02*
G75*
G02*
X13917820Y-20430960I15000J0D01*
G01*
X13934200Y-19786600D02*
G75*
G02*
X13904200Y-19786600I-15000J0D01*
G01*
X13904200Y-19786600D02*
G75*
G02*
X13934200Y-19786600I15000J0D01*
G01*
X13943560Y-18500560D02*
G75*
G02*
X13913560Y-18500560I-15000J0D01*
G01*
X13913560Y-18500560D02*
G75*
G02*
X13943560Y-18500560I15000J0D01*
G01*
X13951750Y-17457650D02*
G75*
G02*
X13921750Y-17457650I-15000J0D01*
G01*
X13921750Y-17457650D02*
G75*
G02*
X13951750Y-17457650I15000J0D01*
G01*
X14001040Y-16379240D02*
G75*
G02*
X13971040Y-16379240I-15000J0D01*
G01*
X13971040Y-16379240D02*
G75*
G02*
X14001040Y-16379240I15000J0D01*
G01*
X14044820Y-22157820D02*
G75*
G02*
X14014820Y-22157820I-15000J0D01*
G01*
X14014820Y-22157820D02*
G75*
G02*
X14044820Y-22157820I15000J0D01*
G01*
X14063690Y-18364415D02*
G75*
G02*
X14033690Y-18364415I-15000J0D01*
G01*
X14033690Y-18364415D02*
G75*
G02*
X14063690Y-18364415I15000J0D01*
G01*
X14070220Y-20434300D02*
G75*
G02*
X14040220Y-20434300I-15000J0D01*
G01*
X14040220Y-20434300D02*
G75*
G02*
X14070220Y-20434300I15000J0D01*
G01*
X14137400Y-17500600D02*
G75*
G02*
X14107400Y-17500600I-15000J0D01*
G01*
X14107400Y-17500600D02*
G75*
G02*
X14137400Y-17500600I15000J0D01*
G01*
X14137400Y-17780000D02*
G75*
G02*
X14107400Y-17780000I-15000J0D01*
G01*
X14107400Y-17780000D02*
G75*
G02*
X14137400Y-17780000I15000J0D01*
G01*
X14137400Y-18135600D02*
G75*
G02*
X14107400Y-18135600I-15000J0D01*
G01*
X14107400Y-18135600D02*
G75*
G02*
X14137400Y-18135600I15000J0D01*
G01*
X14137400Y-18973800D02*
G75*
G02*
X14107400Y-18973800I-15000J0D01*
G01*
X14107400Y-18973800D02*
G75*
G02*
X14137400Y-18973800I15000J0D01*
G01*
X14155900Y-24289000D02*
G75*
G02*
X14125900Y-24289000I-15000J0D01*
G01*
X14125900Y-24289000D02*
G75*
G02*
X14155900Y-24289000I15000J0D01*
G01*
X14162800Y-17957800D02*
G75*
G02*
X14132800Y-17957800I-15000J0D01*
G01*
X14132800Y-17957800D02*
G75*
G02*
X14162800Y-17957800I15000J0D01*
G01*
X14197220Y-22165180D02*
G75*
G02*
X14167220Y-22165180I-15000J0D01*
G01*
X14167220Y-22165180D02*
G75*
G02*
X14197220Y-22165180I15000J0D01*
G01*
X14216760Y-18363600D02*
G75*
G02*
X14186760Y-18363600I-15000J0D01*
G01*
X14186760Y-18363600D02*
G75*
G02*
X14216760Y-18363600I15000J0D01*
G01*
X14222620Y-20431960D02*
G75*
G02*
X14192620Y-20431960I-15000J0D01*
G01*
X14192620Y-20431960D02*
G75*
G02*
X14222620Y-20431960I15000J0D01*
G01*
X14264400Y-16383000D02*
G75*
G02*
X14234400Y-16383000I-15000J0D01*
G01*
X14234400Y-16383000D02*
G75*
G02*
X14264400Y-16383000I15000J0D01*
G01*
X14267560Y-20133850D02*
G75*
G02*
X14237560Y-20133850I-15000J0D01*
G01*
X14237560Y-20133850D02*
G75*
G02*
X14267560Y-20133850I15000J0D01*
G01*
X14340600Y-23622000D02*
G75*
G02*
X14310600Y-23622000I-15000J0D01*
G01*
X14310600Y-23622000D02*
G75*
G02*
X14340600Y-23622000I15000J0D01*
G01*
X14349620Y-22165180D02*
G75*
G02*
X14319620Y-22165180I-15000J0D01*
G01*
X14319620Y-22165180D02*
G75*
G02*
X14349620Y-22165180I15000J0D01*
G01*
X14366000Y-16433800D02*
G75*
G02*
X14336000Y-16433800I-15000J0D01*
G01*
X14336000Y-16433800D02*
G75*
G02*
X14366000Y-16433800I15000J0D01*
G01*
X14369160Y-18359900D02*
G75*
G02*
X14339160Y-18359900I-15000J0D01*
G01*
X14339160Y-18359900D02*
G75*
G02*
X14369160Y-18359900I15000J0D01*
G01*
X14375020Y-20430960D02*
G75*
G02*
X14345020Y-20430960I-15000J0D01*
G01*
X14345020Y-20430960D02*
G75*
G02*
X14375020Y-20430960I15000J0D01*
G01*
X14470760Y-20133850D02*
G75*
G02*
X14440760Y-20133850I-15000J0D01*
G01*
X14440760Y-20133850D02*
G75*
G02*
X14470760Y-20133850I15000J0D01*
G01*
X14518400Y-17907000D02*
G75*
G02*
X14488400Y-17907000I-15000J0D01*
G01*
X14488400Y-17907000D02*
G75*
G02*
X14518400Y-17907000I15000J0D01*
G01*
X14521560Y-18359900D02*
G75*
G02*
X14491560Y-18359900I-15000J0D01*
G01*
X14491560Y-18359900D02*
G75*
G02*
X14521560Y-18359900I15000J0D01*
G01*
X14620000Y-16154400D02*
G75*
G02*
X14590000Y-16154400I-15000J0D01*
G01*
X14590000Y-16154400D02*
G75*
G02*
X14620000Y-16154400I15000J0D01*
G01*
X14645400Y-16611600D02*
G75*
G02*
X14615400Y-16611600I-15000J0D01*
G01*
X14615400Y-16611600D02*
G75*
G02*
X14645400Y-16611600I15000J0D01*
G01*
X14673960Y-18359900D02*
G75*
G02*
X14643960Y-18359900I-15000J0D01*
G01*
X14643960Y-18359900D02*
G75*
G02*
X14673960Y-18359900I15000J0D01*
G01*
X14753300Y-20859700D02*
G75*
G02*
X14723300Y-20859700I-15000J0D01*
G01*
X14723300Y-20859700D02*
G75*
G02*
X14753300Y-20859700I15000J0D01*
G01*
X14754850Y-22164500D02*
G75*
G02*
X14724850Y-22164500I-15000J0D01*
G01*
X14724850Y-22164500D02*
G75*
G02*
X14754850Y-22164500I15000J0D01*
G01*
X14797800Y-15621000D02*
G75*
G02*
X14767800Y-15621000I-15000J0D01*
G01*
X14767800Y-15621000D02*
G75*
G02*
X14797800Y-15621000I15000J0D01*
G01*
X14797800Y-16002000D02*
G75*
G02*
X14767800Y-16002000I-15000J0D01*
G01*
X14767800Y-16002000D02*
G75*
G02*
X14797800Y-16002000I15000J0D01*
G01*
X14797800Y-16484600D02*
G75*
G02*
X14767800Y-16484600I-15000J0D01*
G01*
X14767800Y-16484600D02*
G75*
G02*
X14797800Y-16484600I15000J0D01*
G01*
X14797800Y-16967200D02*
G75*
G02*
X14767800Y-16967200I-15000J0D01*
G01*
X14767800Y-16967200D02*
G75*
G02*
X14797800Y-16967200I15000J0D01*
G01*
X14797800Y-16967200D02*
G75*
G02*
X14767800Y-16967200I-15000J0D01*
G01*
X14767800Y-16967200D02*
G75*
G02*
X14797800Y-16967200I15000J0D01*
G01*
X14861200Y-23406000D02*
G75*
G02*
X14831200Y-23406000I-15000J0D01*
G01*
X14831200Y-23406000D02*
G75*
G02*
X14861200Y-23406000I15000J0D01*
G01*
X14874000Y-17322800D02*
G75*
G02*
X14844000Y-17322800I-15000J0D01*
G01*
X14844000Y-17322800D02*
G75*
G02*
X14874000Y-17322800I15000J0D01*
G01*
X14899400Y-21209000D02*
G75*
G02*
X14869400Y-21209000I-15000J0D01*
G01*
X14869400Y-21209000D02*
G75*
G02*
X14899400Y-21209000I15000J0D01*
G01*
X14899400Y-21310600D02*
G75*
G02*
X14869400Y-21310600I-15000J0D01*
G01*
X14869400Y-21310600D02*
G75*
G02*
X14899400Y-21310600I15000J0D01*
G01*
X14899400Y-21412200D02*
G75*
G02*
X14869400Y-21412200I-15000J0D01*
G01*
X14869400Y-21412200D02*
G75*
G02*
X14899400Y-21412200I15000J0D01*
G01*
X14899400Y-21615400D02*
G75*
G02*
X14869400Y-21615400I-15000J0D01*
G01*
X14869400Y-21615400D02*
G75*
G02*
X14899400Y-21615400I15000J0D01*
G01*
X14899400Y-21767800D02*
G75*
G02*
X14869400Y-21767800I-15000J0D01*
G01*
X14869400Y-21767800D02*
G75*
G02*
X14899400Y-21767800I15000J0D01*
G01*
X14924800Y-17983200D02*
G75*
G02*
X14894800Y-17983200I-15000J0D01*
G01*
X14894800Y-17983200D02*
G75*
G02*
X14924800Y-17983200I15000J0D01*
G01*
X14924800Y-21107400D02*
G75*
G02*
X14894800Y-21107400I-15000J0D01*
G01*
X14894800Y-21107400D02*
G75*
G02*
X14924800Y-21107400I15000J0D01*
G01*
X15077200Y-18338800D02*
G75*
G02*
X15047200Y-18338800I-15000J0D01*
G01*
X15047200Y-18338800D02*
G75*
G02*
X15077200Y-18338800I15000J0D01*
G01*
X15128000Y-20472400D02*
G75*
G02*
X15098000Y-20472400I-15000J0D01*
G01*
X15098000Y-20472400D02*
G75*
G02*
X15128000Y-20472400I15000J0D01*
G01*
X15128000Y-23622000D02*
G75*
G02*
X15098000Y-23622000I-15000J0D01*
G01*
X15098000Y-23622000D02*
G75*
G02*
X15128000Y-23622000I15000J0D01*
G01*
X15178800Y-16154400D02*
G75*
G02*
X15148800Y-16154400I-15000J0D01*
G01*
X15148800Y-16154400D02*
G75*
G02*
X15178800Y-16154400I15000J0D01*
G01*
X15178800Y-16619450D02*
G75*
G02*
X15148800Y-16619450I-15000J0D01*
G01*
X15148800Y-16619450D02*
G75*
G02*
X15178800Y-16619450I15000J0D01*
G01*
X15197700Y-24295100D02*
G75*
G02*
X15167700Y-24295100I-15000J0D01*
G01*
X15167700Y-24295100D02*
G75*
G02*
X15197700Y-24295100I15000J0D01*
G01*
X15232760Y-20901040D02*
G75*
G02*
X15202760Y-20901040I-15000J0D01*
G01*
X15202760Y-20901040D02*
G75*
G02*
X15232760Y-20901040I15000J0D01*
G01*
X15280400Y-15655760D02*
G75*
G02*
X15250400Y-15655760I-15000J0D01*
G01*
X15250400Y-15655760D02*
G75*
G02*
X15280400Y-15655760I15000J0D01*
G01*
X15331200Y-18669000D02*
G75*
G02*
X15301200Y-18669000I-15000J0D01*
G01*
X15301200Y-18669000D02*
G75*
G02*
X15331200Y-18669000I15000J0D01*
G01*
X15369300Y-24041100D02*
G75*
G02*
X15339300Y-24041100I-15000J0D01*
G01*
X15339300Y-24041100D02*
G75*
G02*
X15369300Y-24041100I15000J0D01*
G01*
X15369300Y-24168100D02*
G75*
G02*
X15339300Y-24168100I-15000J0D01*
G01*
X15339300Y-24168100D02*
G75*
G02*
X15369300Y-24168100I15000J0D01*
G01*
X15372300Y-18831100D02*
G75*
G02*
X15342300Y-18831100I-15000J0D01*
G01*
X15342300Y-18831100D02*
G75*
G02*
X15372300Y-18831100I15000J0D01*
G01*
X15382000Y-15671800D02*
G75*
G02*
X15352000Y-15671800I-15000J0D01*
G01*
X15352000Y-15671800D02*
G75*
G02*
X15382000Y-15671800I15000J0D01*
G01*
X15382000Y-18973800D02*
G75*
G02*
X15352000Y-18973800I-15000J0D01*
G01*
X15352000Y-18973800D02*
G75*
G02*
X15382000Y-18973800I15000J0D01*
G01*
X15407400Y-19989800D02*
G75*
G02*
X15377400Y-19989800I-15000J0D01*
G01*
X15377400Y-19989800D02*
G75*
G02*
X15407400Y-19989800I15000J0D01*
G01*
X15407400Y-20675600D02*
G75*
G02*
X15377400Y-20675600I-15000J0D01*
G01*
X15377400Y-20675600D02*
G75*
G02*
X15407400Y-20675600I15000J0D01*
G01*
X15407400Y-22174200D02*
G75*
G02*
X15377400Y-22174200I-15000J0D01*
G01*
X15377400Y-22174200D02*
G75*
G02*
X15407400Y-22174200I15000J0D01*
G01*
X15432800Y-19151600D02*
G75*
G02*
X15402800Y-19151600I-15000J0D01*
G01*
X15402800Y-19151600D02*
G75*
G02*
X15432800Y-19151600I15000J0D01*
G01*
X15432800Y-23799800D02*
G75*
G02*
X15402800Y-23799800I-15000J0D01*
G01*
X15402800Y-23799800D02*
G75*
G02*
X15432800Y-23799800I15000J0D01*
G01*
X15467560Y-19668960D02*
G75*
G02*
X15437560Y-19668960I-15000J0D01*
G01*
X15437560Y-19668960D02*
G75*
G02*
X15467560Y-19668960I15000J0D01*
G01*
X15483600Y-17805400D02*
G75*
G02*
X15453600Y-17805400I-15000J0D01*
G01*
X15453600Y-17805400D02*
G75*
G02*
X15483600Y-17805400I15000J0D01*
G01*
X15509000Y-16154400D02*
G75*
G02*
X15479000Y-16154400I-15000J0D01*
G01*
X15479000Y-16154400D02*
G75*
G02*
X15509000Y-16154400I15000J0D01*
G01*
X15509000Y-16611600D02*
G75*
G02*
X15479000Y-16611600I-15000J0D01*
G01*
X15479000Y-16611600D02*
G75*
G02*
X15509000Y-16611600I15000J0D01*
G01*
X15509000Y-20751800D02*
G75*
G02*
X15479000Y-20751800I-15000J0D01*
G01*
X15479000Y-20751800D02*
G75*
G02*
X15509000Y-20751800I15000J0D01*
G01*
X15678540Y-20887060D02*
G75*
G02*
X15648540Y-20887060I-15000J0D01*
G01*
X15648540Y-20887060D02*
G75*
G02*
X15678540Y-20887060I15000J0D01*
G01*
X15686800Y-15621000D02*
G75*
G02*
X15656800Y-15621000I-15000J0D01*
G01*
X15656800Y-15621000D02*
G75*
G02*
X15686800Y-15621000I15000J0D01*
G01*
X15686800Y-16002000D02*
G75*
G02*
X15656800Y-16002000I-15000J0D01*
G01*
X15656800Y-16002000D02*
G75*
G02*
X15686800Y-16002000I15000J0D01*
G01*
X15686800Y-16484600D02*
G75*
G02*
X15656800Y-16484600I-15000J0D01*
G01*
X15656800Y-16484600D02*
G75*
G02*
X15686800Y-16484600I15000J0D01*
G01*
X15686800Y-16967200D02*
G75*
G02*
X15656800Y-16967200I-15000J0D01*
G01*
X15656800Y-16967200D02*
G75*
G02*
X15686800Y-16967200I15000J0D01*
G01*
X15709190Y-20624800D02*
G75*
G02*
X15679190Y-20624800I-15000J0D01*
G01*
X15679190Y-20624800D02*
G75*
G02*
X15709190Y-20624800I15000J0D01*
G01*
X15745300Y-20772200D02*
G75*
G02*
X15715300Y-20772200I-15000J0D01*
G01*
X15715300Y-20772200D02*
G75*
G02*
X15745300Y-20772200I15000J0D01*
G01*
X15763000Y-20320000D02*
G75*
G02*
X15733000Y-20320000I-15000J0D01*
G01*
X15733000Y-20320000D02*
G75*
G02*
X15763000Y-20320000I15000J0D01*
G01*
X15763000Y-23495000D02*
G75*
G02*
X15733000Y-23495000I-15000J0D01*
G01*
X15733000Y-23495000D02*
G75*
G02*
X15763000Y-23495000I15000J0D01*
G01*
X15788400Y-18846800D02*
G75*
G02*
X15758400Y-18846800I-15000J0D01*
G01*
X15758400Y-18846800D02*
G75*
G02*
X15788400Y-18846800I15000J0D01*
G01*
X15788400Y-19304000D02*
G75*
G02*
X15758400Y-19304000I-15000J0D01*
G01*
X15758400Y-19304000D02*
G75*
G02*
X15788400Y-19304000I15000J0D01*
G01*
X15839200Y-22326600D02*
G75*
G02*
X15809200Y-22326600I-15000J0D01*
G01*
X15809200Y-22326600D02*
G75*
G02*
X15839200Y-22326600I15000J0D01*
G01*
X15872450Y-17695950D02*
G75*
G02*
X15842450Y-17695950I-15000J0D01*
G01*
X15842450Y-17695950D02*
G75*
G02*
X15872450Y-17695950I15000J0D01*
G01*
X15892146Y-20509306D02*
G75*
G02*
X15862146Y-20509306I-15000J0D01*
G01*
X15862146Y-20509306D02*
G75*
G02*
X15892146Y-20509306I15000J0D01*
G01*
X15894400Y-17496200D02*
G75*
G02*
X15864400Y-17496200I-15000J0D01*
G01*
X15864400Y-17496200D02*
G75*
G02*
X15894400Y-17496200I15000J0D01*
G01*
X15966200Y-22631400D02*
G75*
G02*
X15936200Y-22631400I-15000J0D01*
G01*
X15936200Y-22631400D02*
G75*
G02*
X15966200Y-22631400I15000J0D01*
G01*
X15966200Y-23825200D02*
G75*
G02*
X15936200Y-23825200I-15000J0D01*
G01*
X15936200Y-23825200D02*
G75*
G02*
X15966200Y-23825200I15000J0D01*
G01*
X15966200Y-24003000D02*
G75*
G02*
X15936200Y-24003000I-15000J0D01*
G01*
X15936200Y-24003000D02*
G75*
G02*
X15966200Y-24003000I15000J0D01*
G01*
X15991600Y-17805400D02*
G75*
G02*
X15961600Y-17805400I-15000J0D01*
G01*
X15961600Y-17805400D02*
G75*
G02*
X15991600Y-17805400I15000J0D01*
G01*
X16009331Y-17341200D02*
G75*
G02*
X15979331Y-17341200I-15000J0D01*
G01*
X15979331Y-17341200D02*
G75*
G02*
X16009331Y-17341200I15000J0D01*
G01*
X16044546Y-20509306D02*
G75*
G02*
X16014546Y-20509306I-15000J0D01*
G01*
X16014546Y-20509306D02*
G75*
G02*
X16044546Y-20509306I15000J0D01*
G01*
X16067800Y-16154400D02*
G75*
G02*
X16037800Y-16154400I-15000J0D01*
G01*
X16037800Y-16154400D02*
G75*
G02*
X16067800Y-16154400I15000J0D01*
G01*
X16067800Y-16611600D02*
G75*
G02*
X16037800Y-16611600I-15000J0D01*
G01*
X16037800Y-16611600D02*
G75*
G02*
X16067800Y-16611600I15000J0D01*
G01*
X16131300Y-24269700D02*
G75*
G02*
X16101300Y-24269700I-15000J0D01*
G01*
X16101300Y-24269700D02*
G75*
G02*
X16131300Y-24269700I15000J0D01*
G01*
X16144000Y-24079200D02*
G75*
G02*
X16114000Y-24079200I-15000J0D01*
G01*
X16114000Y-24079200D02*
G75*
G02*
X16144000Y-24079200I15000J0D01*
G01*
X16156700Y-23888700D02*
G75*
G02*
X16126700Y-23888700I-15000J0D01*
G01*
X16126700Y-23888700D02*
G75*
G02*
X16156700Y-23888700I15000J0D01*
G01*
X16161731Y-17341200D02*
G75*
G02*
X16131731Y-17341200I-15000J0D01*
G01*
X16131731Y-17341200D02*
G75*
G02*
X16161731Y-17341200I15000J0D01*
G01*
X16196946Y-20509306D02*
G75*
G02*
X16166946Y-20509306I-15000J0D01*
G01*
X16166946Y-20509306D02*
G75*
G02*
X16196946Y-20509306I15000J0D01*
G01*
X16199992Y-17776313D02*
G75*
G02*
X16169992Y-17776313I-15000J0D01*
G01*
X16169992Y-17776313D02*
G75*
G02*
X16199992Y-17776313I15000J0D01*
G01*
X16296400Y-19659600D02*
G75*
G02*
X16266400Y-19659600I-15000J0D01*
G01*
X16266400Y-19659600D02*
G75*
G02*
X16296400Y-19659600I15000J0D01*
G01*
X16321800Y-17337600D02*
G75*
G02*
X16291800Y-17337600I-15000J0D01*
G01*
X16291800Y-17337600D02*
G75*
G02*
X16321800Y-17337600I15000J0D01*
G01*
X16349346Y-20509306D02*
G75*
G02*
X16319346Y-20509306I-15000J0D01*
G01*
X16319346Y-20509306D02*
G75*
G02*
X16349346Y-20509306I15000J0D01*
G01*
X16474200Y-17337600D02*
G75*
G02*
X16444200Y-17337600I-15000J0D01*
G01*
X16444200Y-17337600D02*
G75*
G02*
X16474200Y-17337600I15000J0D01*
G01*
X16474200Y-19989800D02*
G75*
G02*
X16444200Y-19989800I-15000J0D01*
G01*
X16444200Y-19989800D02*
G75*
G02*
X16474200Y-19989800I15000J0D01*
G01*
X16501746Y-20509306D02*
G75*
G02*
X16471746Y-20509306I-15000J0D01*
G01*
X16471746Y-20509306D02*
G75*
G02*
X16501746Y-20509306I15000J0D01*
G01*
X16550400Y-16586200D02*
G75*
G02*
X16520400Y-16586200I-15000J0D01*
G01*
X16520400Y-16586200D02*
G75*
G02*
X16550400Y-16586200I15000J0D01*
G01*
X16575800Y-22174200D02*
G75*
G02*
X16545800Y-22174200I-15000J0D01*
G01*
X16545800Y-22174200D02*
G75*
G02*
X16575800Y-22174200I15000J0D01*
G01*
X16626600Y-16662400D02*
G75*
G02*
X16596600Y-16662400I-15000J0D01*
G01*
X16596600Y-16662400D02*
G75*
G02*
X16626600Y-16662400I15000J0D01*
G01*
X16626600Y-16764000D02*
G75*
G02*
X16596600Y-16764000I-15000J0D01*
G01*
X16596600Y-16764000D02*
G75*
G02*
X16626600Y-16764000I15000J0D01*
G01*
X16626600Y-17337600D02*
G75*
G02*
X16596600Y-17337600I-15000J0D01*
G01*
X16596600Y-17337600D02*
G75*
G02*
X16626600Y-17337600I15000J0D01*
G01*
X16693440Y-20243800D02*
G75*
G02*
X16663440Y-20243800I-15000J0D01*
G01*
X16663440Y-20243800D02*
G75*
G02*
X16693440Y-20243800I15000J0D01*
G01*
X16753600Y-16357600D02*
G75*
G02*
X16723600Y-16357600I-15000J0D01*
G01*
X16723600Y-16357600D02*
G75*
G02*
X16753600Y-16357600I15000J0D01*
G01*
X16753600Y-23012400D02*
G75*
G02*
X16723600Y-23012400I-15000J0D01*
G01*
X16723600Y-23012400D02*
G75*
G02*
X16753600Y-23012400I15000J0D01*
G01*
X16753600Y-23190200D02*
G75*
G02*
X16723600Y-23190200I-15000J0D01*
G01*
X16723600Y-23190200D02*
G75*
G02*
X16753600Y-23190200I15000J0D01*
G01*
X16779000Y-15976600D02*
G75*
G02*
X16749000Y-15976600I-15000J0D01*
G01*
X16749000Y-15976600D02*
G75*
G02*
X16779000Y-15976600I15000J0D01*
G01*
X16829800Y-18948400D02*
G75*
G02*
X16799800Y-18948400I-15000J0D01*
G01*
X16799800Y-18948400D02*
G75*
G02*
X16829800Y-18948400I15000J0D01*
G01*
X16829800Y-19177000D02*
G75*
G02*
X16799800Y-19177000I-15000J0D01*
G01*
X16799800Y-19177000D02*
G75*
G02*
X16829800Y-19177000I15000J0D01*
G01*
X16829800Y-19837400D02*
G75*
G02*
X16799800Y-19837400I-15000J0D01*
G01*
X16799800Y-19837400D02*
G75*
G02*
X16829800Y-19837400I15000J0D01*
G01*
X16842940Y-23100860D02*
G75*
G02*
X16812940Y-23100860I-15000J0D01*
G01*
X16812940Y-23100860D02*
G75*
G02*
X16842940Y-23100860I15000J0D01*
G01*
X16843292Y-22910800D02*
G75*
G02*
X16813292Y-22910800I-15000J0D01*
G01*
X16813292Y-22910800D02*
G75*
G02*
X16843292Y-22910800I15000J0D01*
G01*
X16906000Y-18846800D02*
G75*
G02*
X16876000Y-18846800I-15000J0D01*
G01*
X16876000Y-18846800D02*
G75*
G02*
X16906000Y-18846800I15000J0D01*
G01*
X16925100Y-19532600D02*
G75*
G02*
X16895100Y-19532600I-15000J0D01*
G01*
X16895100Y-19532600D02*
G75*
G02*
X16925100Y-19532600I15000J0D01*
G01*
X16948950Y-23198050D02*
G75*
G02*
X16918950Y-23198050I-15000J0D01*
G01*
X16918950Y-23198050D02*
G75*
G02*
X16948950Y-23198050I15000J0D01*
G01*
X16997900Y-20462700D02*
G75*
G02*
X16967900Y-20462700I-15000J0D01*
G01*
X16967900Y-20462700D02*
G75*
G02*
X16997900Y-20462700I15000J0D01*
G01*
X17058400Y-23495000D02*
G75*
G02*
X17028400Y-23495000I-15000J0D01*
G01*
X17028400Y-23495000D02*
G75*
G02*
X17058400Y-23495000I15000J0D01*
G01*
X17109200Y-21183600D02*
G75*
G02*
X17079200Y-21183600I-15000J0D01*
G01*
X17079200Y-21183600D02*
G75*
G02*
X17109200Y-21183600I15000J0D01*
G01*
X17117050Y-15562350D02*
G75*
G02*
X17087050Y-15562350I-15000J0D01*
G01*
X17087050Y-15562350D02*
G75*
G02*
X17117050Y-15562350I15000J0D01*
G01*
X17134600Y-20497800D02*
G75*
G02*
X17104600Y-20497800I-15000J0D01*
G01*
X17104600Y-20497800D02*
G75*
G02*
X17134600Y-20497800I15000J0D01*
G01*
X17185400Y-18846800D02*
G75*
G02*
X17155400Y-18846800I-15000J0D01*
G01*
X17155400Y-18846800D02*
G75*
G02*
X17185400Y-18846800I15000J0D01*
G01*
X17185400Y-19211279D02*
G75*
G02*
X17155400Y-19211279I-15000J0D01*
G01*
X17155400Y-19211279D02*
G75*
G02*
X17185400Y-19211279I15000J0D01*
G01*
X17233550Y-24269700D02*
G75*
G02*
X17203550Y-24269700I-15000J0D01*
G01*
X17203550Y-24269700D02*
G75*
G02*
X17233550Y-24269700I15000J0D01*
G01*
X17261600Y-15824200D02*
G75*
G02*
X17231600Y-15824200I-15000J0D01*
G01*
X17231600Y-15824200D02*
G75*
G02*
X17261600Y-15824200I15000J0D01*
G01*
X17261600Y-15925800D02*
G75*
G02*
X17231600Y-15925800I-15000J0D01*
G01*
X17231600Y-15925800D02*
G75*
G02*
X17261600Y-15925800I15000J0D01*
G01*
X17287000Y-17068800D02*
G75*
G02*
X17257000Y-17068800I-15000J0D01*
G01*
X17257000Y-17068800D02*
G75*
G02*
X17287000Y-17068800I15000J0D01*
G01*
X17337800Y-16662400D02*
G75*
G02*
X17307800Y-16662400I-15000J0D01*
G01*
X17307800Y-16662400D02*
G75*
G02*
X17337800Y-16662400I15000J0D01*
G01*
X17363200Y-16027400D02*
G75*
G02*
X17333200Y-16027400I-15000J0D01*
G01*
X17333200Y-16027400D02*
G75*
G02*
X17363200Y-16027400I15000J0D01*
G01*
X17363200Y-20726400D02*
G75*
G02*
X17333200Y-20726400I-15000J0D01*
G01*
X17333200Y-20726400D02*
G75*
G02*
X17363200Y-20726400I15000J0D01*
G01*
X17388600Y-15554160D02*
G75*
G02*
X17358600Y-15554160I-15000J0D01*
G01*
X17358600Y-15554160D02*
G75*
G02*
X17388600Y-15554160I15000J0D01*
G01*
X17388600Y-19329400D02*
G75*
G02*
X17358600Y-19329400I-15000J0D01*
G01*
X17358600Y-19329400D02*
G75*
G02*
X17388600Y-19329400I15000J0D01*
G01*
X17388600Y-19431000D02*
G75*
G02*
X17358600Y-19431000I-15000J0D01*
G01*
X17358600Y-19431000D02*
G75*
G02*
X17388600Y-19431000I15000J0D01*
G01*
X17401300Y-24015700D02*
G75*
G02*
X17371300Y-24015700I-15000J0D01*
G01*
X17371300Y-24015700D02*
G75*
G02*
X17401300Y-24015700I15000J0D01*
G01*
X17401300Y-24142700D02*
G75*
G02*
X17371300Y-24142700I-15000J0D01*
G01*
X17371300Y-24142700D02*
G75*
G02*
X17401300Y-24142700I15000J0D01*
G01*
X17439400Y-19583400D02*
G75*
G02*
X17409400Y-19583400I-15000J0D01*
G01*
X17409400Y-19583400D02*
G75*
G02*
X17439400Y-19583400I15000J0D01*
G01*
X17464800Y-17957800D02*
G75*
G02*
X17434800Y-17957800I-15000J0D01*
G01*
X17434800Y-17957800D02*
G75*
G02*
X17464800Y-17957800I15000J0D01*
G01*
X17509300Y-23393400D02*
G75*
G02*
X17479300Y-23393400I-15000J0D01*
G01*
X17479300Y-23393400D02*
G75*
G02*
X17509300Y-23393400I15000J0D01*
G01*
X17515600Y-18760900D02*
G75*
G02*
X17485600Y-18760900I-15000J0D01*
G01*
X17485600Y-18760900D02*
G75*
G02*
X17515600Y-18760900I15000J0D01*
G01*
X17515600Y-19124900D02*
G75*
G02*
X17485600Y-19124900I-15000J0D01*
G01*
X17485600Y-19124900D02*
G75*
G02*
X17515600Y-19124900I15000J0D01*
G01*
X17515600Y-19507200D02*
G75*
G02*
X17485600Y-19507200I-15000J0D01*
G01*
X17485600Y-19507200D02*
G75*
G02*
X17515600Y-19507200I15000J0D01*
G01*
X17515600Y-20726400D02*
G75*
G02*
X17485600Y-20726400I-15000J0D01*
G01*
X17485600Y-20726400D02*
G75*
G02*
X17515600Y-20726400I15000J0D01*
G01*
X17531640Y-17856200D02*
G75*
G02*
X17501640Y-17856200I-15000J0D01*
G01*
X17501640Y-17856200D02*
G75*
G02*
X17531640Y-17856200I15000J0D01*
G01*
X17531640Y-18516600D02*
G75*
G02*
X17501640Y-18516600I-15000J0D01*
G01*
X17501640Y-18516600D02*
G75*
G02*
X17531640Y-18516600I15000J0D01*
G01*
X17541000Y-15554160D02*
G75*
G02*
X17511000Y-15554160I-15000J0D01*
G01*
X17511000Y-15554160D02*
G75*
G02*
X17541000Y-15554160I15000J0D01*
G01*
X17591800Y-17729200D02*
G75*
G02*
X17561800Y-17729200I-15000J0D01*
G01*
X17561800Y-17729200D02*
G75*
G02*
X17591800Y-17729200I15000J0D01*
G01*
X17591800Y-20929600D02*
G75*
G02*
X17561800Y-20929600I-15000J0D01*
G01*
X17561800Y-20929600D02*
G75*
G02*
X17591800Y-20929600I15000J0D01*
G01*
X17607840Y-20751800D02*
G75*
G02*
X17577840Y-20751800I-15000J0D01*
G01*
X17577840Y-20751800D02*
G75*
G02*
X17607840Y-20751800I15000J0D01*
G01*
X17668000Y-19124900D02*
G75*
G02*
X17638000Y-19124900I-15000J0D01*
G01*
X17638000Y-19124900D02*
G75*
G02*
X17668000Y-19124900I15000J0D01*
G01*
X17668000Y-21293050D02*
G75*
G02*
X17638000Y-21293050I-15000J0D01*
G01*
X17638000Y-21293050D02*
G75*
G02*
X17668000Y-21293050I15000J0D01*
G01*
X17668000Y-22359850D02*
G75*
G02*
X17638000Y-22359850I-15000J0D01*
G01*
X17638000Y-22359850D02*
G75*
G02*
X17668000Y-22359850I15000J0D01*
G01*
X17679650Y-23888700D02*
G75*
G02*
X17649650Y-23888700I-15000J0D01*
G01*
X17649650Y-23888700D02*
G75*
G02*
X17679650Y-23888700I15000J0D01*
G01*
X17679650Y-24041100D02*
G75*
G02*
X17649650Y-24041100I-15000J0D01*
G01*
X17649650Y-24041100D02*
G75*
G02*
X17679650Y-24041100I15000J0D01*
G01*
X17693400Y-15554160D02*
G75*
G02*
X17663400Y-15554160I-15000J0D01*
G01*
X17663400Y-15554160D02*
G75*
G02*
X17693400Y-15554160I15000J0D01*
G01*
X17820400Y-19119900D02*
G75*
G02*
X17790400Y-19119900I-15000J0D01*
G01*
X17790400Y-19119900D02*
G75*
G02*
X17820400Y-19119900I15000J0D01*
G01*
X17820400Y-20726400D02*
G75*
G02*
X17790400Y-20726400I-15000J0D01*
G01*
X17790400Y-20726400D02*
G75*
G02*
X17820400Y-20726400I15000J0D01*
G01*
X17845800Y-15554160D02*
G75*
G02*
X17815800Y-15554160I-15000J0D01*
G01*
X17815800Y-15554160D02*
G75*
G02*
X17845800Y-15554160I15000J0D01*
G01*
X17972800Y-18110200D02*
G75*
G02*
X17942800Y-18110200I-15000J0D01*
G01*
X17942800Y-18110200D02*
G75*
G02*
X17972800Y-18110200I15000J0D01*
G01*
X17972800Y-18973800D02*
G75*
G02*
X17942800Y-18973800I-15000J0D01*
G01*
X17942800Y-18973800D02*
G75*
G02*
X17972800Y-18973800I15000J0D01*
G01*
X17972800Y-19119900D02*
G75*
G02*
X17942800Y-19119900I-15000J0D01*
G01*
X17942800Y-19119900D02*
G75*
G02*
X17972800Y-19119900I15000J0D01*
G01*
X17972800Y-24117300D02*
G75*
G02*
X17942800Y-24117300I-15000J0D01*
G01*
X17942800Y-24117300D02*
G75*
G02*
X17972800Y-24117300I15000J0D01*
G01*
X17972800Y-24269700D02*
G75*
G02*
X17942800Y-24269700I-15000J0D01*
G01*
X17942800Y-24269700D02*
G75*
G02*
X17972800Y-24269700I15000J0D01*
G01*
X17998200Y-15554160D02*
G75*
G02*
X17968200Y-15554160I-15000J0D01*
G01*
X17968200Y-15554160D02*
G75*
G02*
X17998200Y-15554160I15000J0D01*
G01*
X17998200Y-23812500D02*
G75*
G02*
X17968200Y-23812500I-15000J0D01*
G01*
X17968200Y-23812500D02*
G75*
G02*
X17998200Y-23812500I15000J0D01*
G01*
X18150600Y-18846800D02*
G75*
G02*
X18120600Y-18846800I-15000J0D01*
G01*
X18120600Y-18846800D02*
G75*
G02*
X18150600Y-18846800I15000J0D01*
G01*
X18150600Y-20447000D02*
G75*
G02*
X18120600Y-20447000I-15000J0D01*
G01*
X18120600Y-20447000D02*
G75*
G02*
X18150600Y-20447000I15000J0D01*
G01*
X18150600Y-23977600D02*
G75*
G02*
X18120600Y-23977600I-15000J0D01*
G01*
X18120600Y-23977600D02*
G75*
G02*
X18150600Y-23977600I15000J0D01*
G01*
X18201400Y-17043400D02*
G75*
G02*
X18171400Y-17043400I-15000J0D01*
G01*
X18171400Y-17043400D02*
G75*
G02*
X18201400Y-17043400I15000J0D01*
G01*
X18231578Y-17667000D02*
G75*
G02*
X18201578Y-17667000I-15000J0D01*
G01*
X18201578Y-17667000D02*
G75*
G02*
X18231578Y-17667000I15000J0D01*
G01*
X18252200Y-21234400D02*
G75*
G02*
X18222200Y-21234400I-15000J0D01*
G01*
X18222200Y-21234400D02*
G75*
G02*
X18252200Y-21234400I15000J0D01*
G01*
X18252200Y-21386800D02*
G75*
G02*
X18222200Y-21386800I-15000J0D01*
G01*
X18222200Y-21386800D02*
G75*
G02*
X18252200Y-21386800I15000J0D01*
G01*
X18252200Y-21539200D02*
G75*
G02*
X18222200Y-21539200I-15000J0D01*
G01*
X18222200Y-21539200D02*
G75*
G02*
X18252200Y-21539200I15000J0D01*
G01*
X18252200Y-21691600D02*
G75*
G02*
X18222200Y-21691600I-15000J0D01*
G01*
X18222200Y-21691600D02*
G75*
G02*
X18252200Y-21691600I15000J0D01*
G01*
X18252200Y-22301200D02*
G75*
G02*
X18222200Y-22301200I-15000J0D01*
G01*
X18222200Y-22301200D02*
G75*
G02*
X18252200Y-22301200I15000J0D01*
G01*
X18252800Y-22200200D02*
G75*
G02*
X18222800Y-22200200I-15000J0D01*
G01*
X18222800Y-22200200D02*
G75*
G02*
X18252800Y-22200200I15000J0D01*
G01*
X18257900Y-21838300D02*
G75*
G02*
X18227900Y-21838300I-15000J0D01*
G01*
X18227900Y-21838300D02*
G75*
G02*
X18257900Y-21838300I15000J0D01*
G01*
X18308700Y-21076300D02*
G75*
G02*
X18278700Y-21076300I-15000J0D01*
G01*
X18278700Y-21076300D02*
G75*
G02*
X18308700Y-21076300I15000J0D01*
G01*
X18328400Y-23469600D02*
G75*
G02*
X18298400Y-23469600I-15000J0D01*
G01*
X18298400Y-23469600D02*
G75*
G02*
X18328400Y-23469600I15000J0D01*
G01*
X18404600Y-18948400D02*
G75*
G02*
X18374600Y-18948400I-15000J0D01*
G01*
X18374600Y-18948400D02*
G75*
G02*
X18404600Y-18948400I15000J0D01*
G01*
X18425000Y-19177000D02*
G75*
G02*
X18395000Y-19177000I-15000J0D01*
G01*
X18395000Y-19177000D02*
G75*
G02*
X18425000Y-19177000I15000J0D01*
G01*
X18506200Y-19761200D02*
G75*
G02*
X18476200Y-19761200I-15000J0D01*
G01*
X18476200Y-19761200D02*
G75*
G02*
X18506200Y-19761200I15000J0D01*
G01*
X18506200Y-20269200D02*
G75*
G02*
X18476200Y-20269200I-15000J0D01*
G01*
X18476200Y-20269200D02*
G75*
G02*
X18506200Y-20269200I15000J0D01*
G01*
X18524050Y-19540150D02*
G75*
G02*
X18494050Y-19540150I-15000J0D01*
G01*
X18494050Y-19540150D02*
G75*
G02*
X18524050Y-19540150I15000J0D01*
G01*
X18531600Y-20929600D02*
G75*
G02*
X18501600Y-20929600I-15000J0D01*
G01*
X18501600Y-20929600D02*
G75*
G02*
X18531600Y-20929600I15000J0D01*
G01*
X18557000Y-23774400D02*
G75*
G02*
X18527000Y-23774400I-15000J0D01*
G01*
X18527000Y-23774400D02*
G75*
G02*
X18557000Y-23774400I15000J0D01*
G01*
X18582400Y-15875000D02*
G75*
G02*
X18552400Y-15875000I-15000J0D01*
G01*
X18552400Y-15875000D02*
G75*
G02*
X18582400Y-15875000I15000J0D01*
G01*
X18607800Y-16078200D02*
G75*
G02*
X18577800Y-16078200I-15000J0D01*
G01*
X18577800Y-16078200D02*
G75*
G02*
X18607800Y-16078200I15000J0D01*
G01*
X18607800Y-16306800D02*
G75*
G02*
X18577800Y-16306800I-15000J0D01*
G01*
X18577800Y-16306800D02*
G75*
G02*
X18607800Y-16306800I15000J0D01*
G01*
X18607800Y-16459200D02*
G75*
G02*
X18577800Y-16459200I-15000J0D01*
G01*
X18577800Y-16459200D02*
G75*
G02*
X18607800Y-16459200I15000J0D01*
G01*
X18607800Y-16586200D02*
G75*
G02*
X18577800Y-16586200I-15000J0D01*
G01*
X18577800Y-16586200D02*
G75*
G02*
X18607800Y-16586200I15000J0D01*
G01*
X18607800Y-16713200D02*
G75*
G02*
X18577800Y-16713200I-15000J0D01*
G01*
X18577800Y-16713200D02*
G75*
G02*
X18607800Y-16713200I15000J0D01*
G01*
X18658600Y-20777200D02*
G75*
G02*
X18628600Y-20777200I-15000J0D01*
G01*
X18628600Y-20777200D02*
G75*
G02*
X18658600Y-20777200I15000J0D01*
G01*
X18658600Y-20904200D02*
G75*
G02*
X18628600Y-20904200I-15000J0D01*
G01*
X18628600Y-20904200D02*
G75*
G02*
X18658600Y-20904200I15000J0D01*
G01*
X18658600Y-23825200D02*
G75*
G02*
X18628600Y-23825200I-15000J0D01*
G01*
X18628600Y-23825200D02*
G75*
G02*
X18658600Y-23825200I15000J0D01*
G01*
X18672600Y-17438400D02*
G75*
G02*
X18642600Y-17438400I-15000J0D01*
G01*
X18642600Y-17438400D02*
G75*
G02*
X18672600Y-17438400I15000J0D01*
G01*
X18709400Y-19405600D02*
G75*
G02*
X18679400Y-19405600I-15000J0D01*
G01*
X18679400Y-19405600D02*
G75*
G02*
X18709400Y-19405600I15000J0D01*
G01*
X18760200Y-19812000D02*
G75*
G02*
X18730200Y-19812000I-15000J0D01*
G01*
X18730200Y-19812000D02*
G75*
G02*
X18760200Y-19812000I15000J0D01*
G01*
X18785600Y-20218400D02*
G75*
G02*
X18755600Y-20218400I-15000J0D01*
G01*
X18755600Y-20218400D02*
G75*
G02*
X18785600Y-20218400I15000J0D01*
G01*
X18785600Y-21844000D02*
G75*
G02*
X18755600Y-21844000I-15000J0D01*
G01*
X18755600Y-21844000D02*
G75*
G02*
X18785600Y-21844000I15000J0D01*
G01*
X18785600Y-23012400D02*
G75*
G02*
X18755600Y-23012400I-15000J0D01*
G01*
X18755600Y-23012400D02*
G75*
G02*
X18785600Y-23012400I15000J0D01*
G01*
X18785600Y-23139400D02*
G75*
G02*
X18755600Y-23139400I-15000J0D01*
G01*
X18755600Y-23139400D02*
G75*
G02*
X18785600Y-23139400I15000J0D01*
G01*
X18802978Y-17283400D02*
G75*
G02*
X18772978Y-17283400I-15000J0D01*
G01*
X18772978Y-17283400D02*
G75*
G02*
X18802978Y-17283400I15000J0D01*
G01*
X18811000Y-17678400D02*
G75*
G02*
X18781000Y-17678400I-15000J0D01*
G01*
X18781000Y-17678400D02*
G75*
G02*
X18811000Y-17678400I15000J0D01*
G01*
X18811000Y-17780000D02*
G75*
G02*
X18781000Y-17780000I-15000J0D01*
G01*
X18781000Y-17780000D02*
G75*
G02*
X18811000Y-17780000I15000J0D01*
G01*
X18811000Y-20751800D02*
G75*
G02*
X18781000Y-20751800I-15000J0D01*
G01*
X18781000Y-20751800D02*
G75*
G02*
X18811000Y-20751800I15000J0D01*
G01*
X18938000Y-20523200D02*
G75*
G02*
X18908000Y-20523200I-15000J0D01*
G01*
X18908000Y-20523200D02*
G75*
G02*
X18938000Y-20523200I15000J0D01*
G01*
X18938000Y-20904200D02*
G75*
G02*
X18908000Y-20904200I-15000J0D01*
G01*
X18908000Y-20904200D02*
G75*
G02*
X18938000Y-20904200I15000J0D01*
G01*
X18955378Y-17283400D02*
G75*
G02*
X18925378Y-17283400I-15000J0D01*
G01*
X18925378Y-17283400D02*
G75*
G02*
X18955378Y-17283400I15000J0D01*
G01*
X18963400Y-22453600D02*
G75*
G02*
X18933400Y-22453600I-15000J0D01*
G01*
X18933400Y-22453600D02*
G75*
G02*
X18963400Y-22453600I15000J0D01*
G01*
X19039600Y-19329400D02*
G75*
G02*
X19009600Y-19329400I-15000J0D01*
G01*
X19009600Y-19329400D02*
G75*
G02*
X19039600Y-19329400I15000J0D01*
G01*
X19065000Y-22682200D02*
G75*
G02*
X19035000Y-22682200I-15000J0D01*
G01*
X19035000Y-22682200D02*
G75*
G02*
X19065000Y-22682200I15000J0D01*
G01*
X19090400Y-20523200D02*
G75*
G02*
X19060400Y-20523200I-15000J0D01*
G01*
X19060400Y-20523200D02*
G75*
G02*
X19090400Y-20523200I15000J0D01*
G01*
X19107778Y-17279700D02*
G75*
G02*
X19077778Y-17279700I-15000J0D01*
G01*
X19077778Y-17279700D02*
G75*
G02*
X19107778Y-17279700I15000J0D01*
G01*
X19140806Y-22326206D02*
G75*
G02*
X19110806Y-22326206I-15000J0D01*
G01*
X19110806Y-22326206D02*
G75*
G02*
X19140806Y-22326206I15000J0D01*
G01*
X19192000Y-16170100D02*
G75*
G02*
X19162000Y-16170100I-15000J0D01*
G01*
X19162000Y-16170100D02*
G75*
G02*
X19192000Y-16170100I15000J0D01*
G01*
X19192000Y-16627300D02*
G75*
G02*
X19162000Y-16627300I-15000J0D01*
G01*
X19162000Y-16627300D02*
G75*
G02*
X19192000Y-16627300I15000J0D01*
G01*
X19242800Y-18973800D02*
G75*
G02*
X19212800Y-18973800I-15000J0D01*
G01*
X19212800Y-18973800D02*
G75*
G02*
X19242800Y-18973800I15000J0D01*
G01*
X19242800Y-20523200D02*
G75*
G02*
X19212800Y-20523200I-15000J0D01*
G01*
X19212800Y-20523200D02*
G75*
G02*
X19242800Y-20523200I15000J0D01*
G01*
X19260178Y-17279700D02*
G75*
G02*
X19230178Y-17279700I-15000J0D01*
G01*
X19230178Y-17279700D02*
G75*
G02*
X19260178Y-17279700I15000J0D01*
G01*
X19272640Y-20197440D02*
G75*
G02*
X19242640Y-20197440I-15000J0D01*
G01*
X19242640Y-20197440D02*
G75*
G02*
X19272640Y-20197440I15000J0D01*
G01*
X19293600Y-22326600D02*
G75*
G02*
X19263600Y-22326600I-15000J0D01*
G01*
X19263600Y-22326600D02*
G75*
G02*
X19293600Y-22326600I15000J0D01*
G01*
X19313840Y-24271040D02*
G75*
G02*
X19283840Y-24271040I-15000J0D01*
G01*
X19283840Y-24271040D02*
G75*
G02*
X19313840Y-24271040I15000J0D01*
G01*
X19369800Y-17830800D02*
G75*
G02*
X19339800Y-17830800I-15000J0D01*
G01*
X19339800Y-17830800D02*
G75*
G02*
X19369800Y-17830800I15000J0D01*
G01*
X19377650Y-15621000D02*
G75*
G02*
X19347650Y-15621000I-15000J0D01*
G01*
X19347650Y-15621000D02*
G75*
G02*
X19377650Y-15621000I15000J0D01*
G01*
X19377650Y-16009850D02*
G75*
G02*
X19347650Y-16009850I-15000J0D01*
G01*
X19347650Y-16009850D02*
G75*
G02*
X19377650Y-16009850I15000J0D01*
G01*
X19377650Y-16492450D02*
G75*
G02*
X19347650Y-16492450I-15000J0D01*
G01*
X19347650Y-16492450D02*
G75*
G02*
X19377650Y-16492450I15000J0D01*
G01*
X19377650Y-16975050D02*
G75*
G02*
X19347650Y-16975050I-15000J0D01*
G01*
X19347650Y-16975050D02*
G75*
G02*
X19377650Y-16975050I15000J0D01*
G01*
X19394806Y-20523594D02*
G75*
G02*
X19364806Y-20523594I-15000J0D01*
G01*
X19364806Y-20523594D02*
G75*
G02*
X19394806Y-20523594I15000J0D01*
G01*
X19412578Y-17279700D02*
G75*
G02*
X19382578Y-17279700I-15000J0D01*
G01*
X19382578Y-17279700D02*
G75*
G02*
X19412578Y-17279700I15000J0D01*
G01*
X19446000Y-22326600D02*
G75*
G02*
X19416000Y-22326600I-15000J0D01*
G01*
X19416000Y-22326600D02*
G75*
G02*
X19446000Y-22326600I15000J0D01*
G01*
X19471400Y-20015200D02*
G75*
G02*
X19441400Y-20015200I-15000J0D01*
G01*
X19441400Y-20015200D02*
G75*
G02*
X19471400Y-20015200I15000J0D01*
G01*
X19496800Y-24015700D02*
G75*
G02*
X19466800Y-24015700I-15000J0D01*
G01*
X19466800Y-24015700D02*
G75*
G02*
X19496800Y-24015700I15000J0D01*
G01*
X19496800Y-24142700D02*
G75*
G02*
X19466800Y-24142700I-15000J0D01*
G01*
X19466800Y-24142700D02*
G75*
G02*
X19496800Y-24142700I15000J0D01*
G01*
X19547600Y-20523200D02*
G75*
G02*
X19517600Y-20523200I-15000J0D01*
G01*
X19517600Y-20523200D02*
G75*
G02*
X19547600Y-20523200I15000J0D01*
G01*
X19623800Y-23012400D02*
G75*
G02*
X19593800Y-23012400I-15000J0D01*
G01*
X19593800Y-23012400D02*
G75*
G02*
X19623800Y-23012400I15000J0D01*
G01*
X19623800Y-23164800D02*
G75*
G02*
X19593800Y-23164800I-15000J0D01*
G01*
X19593800Y-23164800D02*
G75*
G02*
X19623800Y-23164800I15000J0D01*
G01*
X19674600Y-18860860D02*
G75*
G02*
X19644600Y-18860860I-15000J0D01*
G01*
X19644600Y-18860860D02*
G75*
G02*
X19674600Y-18860860I15000J0D01*
G01*
X19674600Y-19304000D02*
G75*
G02*
X19644600Y-19304000I-15000J0D01*
G01*
X19644600Y-19304000D02*
G75*
G02*
X19674600Y-19304000I15000J0D01*
G01*
X19715700Y-23622000D02*
G75*
G02*
X19685700Y-23622000I-15000J0D01*
G01*
X19685700Y-23622000D02*
G75*
G02*
X19715700Y-23622000I15000J0D01*
G01*
X19725400Y-23317200D02*
G75*
G02*
X19695400Y-23317200I-15000J0D01*
G01*
X19695400Y-23317200D02*
G75*
G02*
X19725400Y-23317200I15000J0D01*
G01*
X19750800Y-16170100D02*
G75*
G02*
X19720800Y-16170100I-15000J0D01*
G01*
X19720800Y-16170100D02*
G75*
G02*
X19750800Y-16170100I15000J0D01*
G01*
X19750800Y-16627300D02*
G75*
G02*
X19720800Y-16627300I-15000J0D01*
G01*
X19720800Y-16627300D02*
G75*
G02*
X19750800Y-16627300I15000J0D01*
G01*
X19827000Y-23901400D02*
G75*
G02*
X19797000Y-23901400I-15000J0D01*
G01*
X19797000Y-23901400D02*
G75*
G02*
X19827000Y-23901400I15000J0D01*
G01*
X19827000Y-24079200D02*
G75*
G02*
X19797000Y-24079200I-15000J0D01*
G01*
X19797000Y-24079200D02*
G75*
G02*
X19827000Y-24079200I15000J0D01*
G01*
X19860250Y-19989800D02*
G75*
G02*
X19830250Y-19989800I-15000J0D01*
G01*
X19830250Y-19989800D02*
G75*
G02*
X19860250Y-19989800I15000J0D01*
G01*
X19868100Y-19177000D02*
G75*
G02*
X19838100Y-19177000I-15000J0D01*
G01*
X19838100Y-19177000D02*
G75*
G02*
X19868100Y-19177000I15000J0D01*
G01*
X19903200Y-20878800D02*
G75*
G02*
X19873200Y-20878800I-15000J0D01*
G01*
X19873200Y-20878800D02*
G75*
G02*
X19903200Y-20878800I15000J0D01*
G01*
X19903200Y-22174200D02*
G75*
G02*
X19873200Y-22174200I-15000J0D01*
G01*
X19873200Y-22174200D02*
G75*
G02*
X19903200Y-22174200I15000J0D01*
G01*
X19928600Y-20218400D02*
G75*
G02*
X19898600Y-20218400I-15000J0D01*
G01*
X19898600Y-20218400D02*
G75*
G02*
X19928600Y-20218400I15000J0D01*
G01*
X20055600Y-21183600D02*
G75*
G02*
X20025600Y-21183600I-15000J0D01*
G01*
X20025600Y-21183600D02*
G75*
G02*
X20055600Y-21183600I15000J0D01*
G01*
X20055600Y-21336000D02*
G75*
G02*
X20025600Y-21336000I-15000J0D01*
G01*
X20025600Y-21336000D02*
G75*
G02*
X20055600Y-21336000I15000J0D01*
G01*
X20055600Y-21488400D02*
G75*
G02*
X20025600Y-21488400I-15000J0D01*
G01*
X20025600Y-21488400D02*
G75*
G02*
X20055600Y-21488400I15000J0D01*
G01*
X20055600Y-21640800D02*
G75*
G02*
X20025600Y-21640800I-15000J0D01*
G01*
X20025600Y-21640800D02*
G75*
G02*
X20055600Y-21640800I15000J0D01*
G01*
X20055600Y-21742400D02*
G75*
G02*
X20025600Y-21742400I-15000J0D01*
G01*
X20025600Y-21742400D02*
G75*
G02*
X20055600Y-21742400I15000J0D01*
G01*
X20064960Y-17830800D02*
G75*
G02*
X20034960Y-17830800I-15000J0D01*
G01*
X20034960Y-17830800D02*
G75*
G02*
X20064960Y-17830800I15000J0D01*
G01*
X20081000Y-16170100D02*
G75*
G02*
X20051000Y-16170100I-15000J0D01*
G01*
X20051000Y-16170100D02*
G75*
G02*
X20081000Y-16170100I15000J0D01*
G01*
X20081000Y-16627300D02*
G75*
G02*
X20051000Y-16627300I-15000J0D01*
G01*
X20051000Y-16627300D02*
G75*
G02*
X20081000Y-16627300I15000J0D01*
G01*
X20182600Y-20802600D02*
G75*
G02*
X20152600Y-20802600I-15000J0D01*
G01*
X20152600Y-20802600D02*
G75*
G02*
X20182600Y-20802600I15000J0D01*
G01*
X20182600Y-23901400D02*
G75*
G02*
X20152600Y-23901400I-15000J0D01*
G01*
X20152600Y-23901400D02*
G75*
G02*
X20182600Y-23901400I15000J0D01*
G01*
X20182600Y-24079200D02*
G75*
G02*
X20152600Y-24079200I-15000J0D01*
G01*
X20152600Y-24079200D02*
G75*
G02*
X20182600Y-24079200I15000J0D01*
G01*
X20182600Y-24257000D02*
G75*
G02*
X20152600Y-24257000I-15000J0D01*
G01*
X20152600Y-24257000D02*
G75*
G02*
X20182600Y-24257000I15000J0D01*
G01*
X20215850Y-18340400D02*
G75*
G02*
X20185850Y-18340400I-15000J0D01*
G01*
X20185850Y-18340400D02*
G75*
G02*
X20215850Y-18340400I15000J0D01*
G01*
X20266650Y-15621000D02*
G75*
G02*
X20236650Y-15621000I-15000J0D01*
G01*
X20236650Y-15621000D02*
G75*
G02*
X20266650Y-15621000I15000J0D01*
G01*
X20266650Y-16009850D02*
G75*
G02*
X20236650Y-16009850I-15000J0D01*
G01*
X20236650Y-16009850D02*
G75*
G02*
X20266650Y-16009850I15000J0D01*
G01*
X20266650Y-16492450D02*
G75*
G02*
X20236650Y-16492450I-15000J0D01*
G01*
X20236650Y-16492450D02*
G75*
G02*
X20266650Y-16492450I15000J0D01*
G01*
X20266650Y-16975050D02*
G75*
G02*
X20236650Y-16975050I-15000J0D01*
G01*
X20236650Y-16975050D02*
G75*
G02*
X20266650Y-16975050I15000J0D01*
G01*
X20269060Y-18846800D02*
G75*
G02*
X20239060Y-18846800I-15000J0D01*
G01*
X20239060Y-18846800D02*
G75*
G02*
X20269060Y-18846800I15000J0D01*
G01*
X20309600Y-23444200D02*
G75*
G02*
X20279600Y-23444200I-15000J0D01*
G01*
X20279600Y-23444200D02*
G75*
G02*
X20309600Y-23444200I15000J0D01*
G01*
X20309600Y-23596600D02*
G75*
G02*
X20279600Y-23596600I-15000J0D01*
G01*
X20279600Y-23596600D02*
G75*
G02*
X20309600Y-23596600I15000J0D01*
G01*
X20385800Y-21005800D02*
G75*
G02*
X20355800Y-21005800I-15000J0D01*
G01*
X20355800Y-21005800D02*
G75*
G02*
X20385800Y-21005800I15000J0D01*
G01*
X20411200Y-17297400D02*
G75*
G02*
X20381200Y-17297400I-15000J0D01*
G01*
X20381200Y-17297400D02*
G75*
G02*
X20411200Y-17297400I15000J0D01*
G01*
X20487400Y-20853400D02*
G75*
G02*
X20457400Y-20853400I-15000J0D01*
G01*
X20457400Y-20853400D02*
G75*
G02*
X20487400Y-20853400I15000J0D01*
G01*
X20563600Y-17449800D02*
G75*
G02*
X20533600Y-17449800I-15000J0D01*
G01*
X20533600Y-17449800D02*
G75*
G02*
X20563600Y-17449800I15000J0D01*
G01*
X20563600Y-22174200D02*
G75*
G02*
X20533600Y-22174200I-15000J0D01*
G01*
X20533600Y-22174200D02*
G75*
G02*
X20563600Y-22174200I15000J0D01*
G01*
X20589000Y-18499050D02*
G75*
G02*
X20559000Y-18499050I-15000J0D01*
G01*
X20559000Y-18499050D02*
G75*
G02*
X20589000Y-18499050I15000J0D01*
G01*
X20614400Y-20878800D02*
G75*
G02*
X20584400Y-20878800I-15000J0D01*
G01*
X20584400Y-20878800D02*
G75*
G02*
X20614400Y-20878800I15000J0D01*
G01*
X20614400Y-23291800D02*
G75*
G02*
X20584400Y-23291800I-15000J0D01*
G01*
X20584400Y-23291800D02*
G75*
G02*
X20614400Y-23291800I15000J0D01*
G01*
X20639800Y-16170100D02*
G75*
G02*
X20609800Y-16170100I-15000J0D01*
G01*
X20609800Y-16170100D02*
G75*
G02*
X20639800Y-16170100I15000J0D01*
G01*
X20639800Y-16627300D02*
G75*
G02*
X20609800Y-16627300I-15000J0D01*
G01*
X20609800Y-16627300D02*
G75*
G02*
X20639800Y-16627300I15000J0D01*
G01*
X20671421Y-20777200D02*
G75*
G02*
X20641421Y-20777200I-15000J0D01*
G01*
X20641421Y-20777200D02*
G75*
G02*
X20671421Y-20777200I15000J0D01*
G01*
X20716000Y-17907000D02*
G75*
G02*
X20686000Y-17907000I-15000J0D01*
G01*
X20686000Y-17907000D02*
G75*
G02*
X20716000Y-17907000I15000J0D01*
G01*
X20716000Y-23647400D02*
G75*
G02*
X20686000Y-23647400I-15000J0D01*
G01*
X20686000Y-23647400D02*
G75*
G02*
X20716000Y-23647400I15000J0D01*
G01*
X20759960Y-16814800D02*
G75*
G02*
X20729960Y-16814800I-15000J0D01*
G01*
X20729960Y-16814800D02*
G75*
G02*
X20759960Y-16814800I15000J0D01*
G01*
X20764260Y-18464500D02*
G75*
G02*
X20734260Y-18464500I-15000J0D01*
G01*
X20734260Y-18464500D02*
G75*
G02*
X20764260Y-18464500I15000J0D01*
G01*
X20766800Y-18745200D02*
G75*
G02*
X20736800Y-18745200I-15000J0D01*
G01*
X20736800Y-18745200D02*
G75*
G02*
X20766800Y-18745200I15000J0D01*
G01*
X20787760Y-16641440D02*
G75*
G02*
X20757760Y-16641440I-15000J0D01*
G01*
X20757760Y-16641440D02*
G75*
G02*
X20787760Y-16641440I15000J0D01*
G01*
X20792200Y-17780000D02*
G75*
G02*
X20762200Y-17780000I-15000J0D01*
G01*
X20762200Y-17780000D02*
G75*
G02*
X20792200Y-17780000I15000J0D01*
G01*
X20792200Y-23444200D02*
G75*
G02*
X20762200Y-23444200I-15000J0D01*
G01*
X20762200Y-23444200D02*
G75*
G02*
X20792200Y-23444200I15000J0D01*
G01*
X20801560Y-20675600D02*
G75*
G02*
X20771560Y-20675600I-15000J0D01*
G01*
X20771560Y-20675600D02*
G75*
G02*
X20801560Y-20675600I15000J0D01*
G01*
X20817600Y-18897600D02*
G75*
G02*
X20787600Y-18897600I-15000J0D01*
G01*
X20787600Y-18897600D02*
G75*
G02*
X20817600Y-18897600I15000J0D01*
G01*
X20868400Y-16078200D02*
G75*
G02*
X20838400Y-16078200I-15000J0D01*
G01*
X20838400Y-16078200D02*
G75*
G02*
X20868400Y-16078200I15000J0D01*
G01*
X20909500Y-18119900D02*
G75*
G02*
X20879500Y-18119900I-15000J0D01*
G01*
X20879500Y-18119900D02*
G75*
G02*
X20909500Y-18119900I15000J0D01*
G01*
X20919200Y-18821400D02*
G75*
G02*
X20889200Y-18821400I-15000J0D01*
G01*
X20889200Y-18821400D02*
G75*
G02*
X20919200Y-18821400I15000J0D01*
G01*
X20919200Y-20523200D02*
G75*
G02*
X20889200Y-20523200I-15000J0D01*
G01*
X20889200Y-20523200D02*
G75*
G02*
X20919200Y-20523200I15000J0D01*
G01*
X20927060Y-18464500D02*
G75*
G02*
X20897060Y-18464500I-15000J0D01*
G01*
X20897060Y-18464500D02*
G75*
G02*
X20927060Y-18464500I15000J0D01*
G01*
X20976300Y-16605300D02*
G75*
G02*
X20946300Y-16605300I-15000J0D01*
G01*
X20946300Y-16605300D02*
G75*
G02*
X20976300Y-16605300I15000J0D01*
G01*
X20985700Y-20904200D02*
G75*
G02*
X20955700Y-20904200I-15000J0D01*
G01*
X20955700Y-20904200D02*
G75*
G02*
X20985700Y-20904200I15000J0D01*
G01*
X21046200Y-24282400D02*
G75*
G02*
X21016200Y-24282400I-15000J0D01*
G01*
X21016200Y-24282400D02*
G75*
G02*
X21046200Y-24282400I15000J0D01*
G01*
X21071600Y-22656800D02*
G75*
G02*
X21041600Y-22656800I-15000J0D01*
G01*
X21041600Y-22656800D02*
G75*
G02*
X21071600Y-22656800I15000J0D01*
G01*
X21094460Y-18459500D02*
G75*
G02*
X21064460Y-18459500I-15000J0D01*
G01*
X21064460Y-18459500D02*
G75*
G02*
X21094460Y-18459500I15000J0D01*
G01*
X21097000Y-16450300D02*
G75*
G02*
X21067000Y-16450300I-15000J0D01*
G01*
X21067000Y-16450300D02*
G75*
G02*
X21097000Y-16450300I15000J0D01*
G01*
X21097000Y-17526000D02*
G75*
G02*
X21067000Y-17526000I-15000J0D01*
G01*
X21067000Y-17526000D02*
G75*
G02*
X21097000Y-17526000I15000J0D01*
G01*
X21097000Y-20535900D02*
G75*
G02*
X21067000Y-20535900I-15000J0D01*
G01*
X21067000Y-20535900D02*
G75*
G02*
X21097000Y-20535900I15000J0D01*
G01*
X21116640Y-18053640D02*
G75*
G02*
X21086640Y-18053640I-15000J0D01*
G01*
X21086640Y-18053640D02*
G75*
G02*
X21116640Y-18053640I15000J0D01*
G01*
X21122400Y-16891000D02*
G75*
G02*
X21092400Y-16891000I-15000J0D01*
G01*
X21092400Y-16891000D02*
G75*
G02*
X21122400Y-16891000I15000J0D01*
G01*
X21181050Y-16060650D02*
G75*
G02*
X21151050Y-16060650I-15000J0D01*
G01*
X21151050Y-16060650D02*
G75*
G02*
X21181050Y-16060650I15000J0D01*
G01*
X21198600Y-24283700D02*
G75*
G02*
X21168600Y-24283700I-15000J0D01*
G01*
X21168600Y-24283700D02*
G75*
G02*
X21198600Y-24283700I15000J0D01*
G01*
X21224000Y-23469600D02*
G75*
G02*
X21194000Y-23469600I-15000J0D01*
G01*
X21194000Y-23469600D02*
G75*
G02*
X21224000Y-23469600I15000J0D01*
G01*
X21224000Y-23571200D02*
G75*
G02*
X21194000Y-23571200I-15000J0D01*
G01*
X21194000Y-23571200D02*
G75*
G02*
X21224000Y-23571200I15000J0D01*
G01*
X21224000Y-23672800D02*
G75*
G02*
X21194000Y-23672800I-15000J0D01*
G01*
X21194000Y-23672800D02*
G75*
G02*
X21224000Y-23672800I15000J0D01*
G01*
X21246860Y-18459500D02*
G75*
G02*
X21216860Y-18459500I-15000J0D01*
G01*
X21216860Y-18459500D02*
G75*
G02*
X21246860Y-18459500I15000J0D01*
G01*
X21249400Y-16450300D02*
G75*
G02*
X21219400Y-16450300I-15000J0D01*
G01*
X21219400Y-16450300D02*
G75*
G02*
X21249400Y-16450300I15000J0D01*
G01*
X21274800Y-20523200D02*
G75*
G02*
X21244800Y-20523200I-15000J0D01*
G01*
X21244800Y-20523200D02*
G75*
G02*
X21274800Y-20523200I15000J0D01*
G01*
X21325600Y-23469600D02*
G75*
G02*
X21295600Y-23469600I-15000J0D01*
G01*
X21295600Y-23469600D02*
G75*
G02*
X21325600Y-23469600I15000J0D01*
G01*
X21325600Y-23571200D02*
G75*
G02*
X21295600Y-23571200I-15000J0D01*
G01*
X21295600Y-23571200D02*
G75*
G02*
X21325600Y-23571200I15000J0D01*
G01*
X21325600Y-23672800D02*
G75*
G02*
X21295600Y-23672800I-15000J0D01*
G01*
X21295600Y-23672800D02*
G75*
G02*
X21325600Y-23672800I15000J0D01*
G01*
X21351000Y-19507200D02*
G75*
G02*
X21321000Y-19507200I-15000J0D01*
G01*
X21321000Y-19507200D02*
G75*
G02*
X21351000Y-19507200I15000J0D01*
G01*
X21351000Y-24384000D02*
G75*
G02*
X21321000Y-24384000I-15000J0D01*
G01*
X21321000Y-24384000D02*
G75*
G02*
X21351000Y-24384000I15000J0D01*
G01*
X21399260Y-18459500D02*
G75*
G02*
X21369260Y-18459500I-15000J0D01*
G01*
X21369260Y-18459500D02*
G75*
G02*
X21399260Y-18459500I15000J0D01*
G01*
X21401800Y-16446600D02*
G75*
G02*
X21371800Y-16446600I-15000J0D01*
G01*
X21371800Y-16446600D02*
G75*
G02*
X21401800Y-16446600I15000J0D01*
G01*
X21452600Y-20523200D02*
G75*
G02*
X21422600Y-20523200I-15000J0D01*
G01*
X21422600Y-20523200D02*
G75*
G02*
X21452600Y-20523200I15000J0D01*
G01*
X21452600Y-24358600D02*
G75*
G02*
X21422600Y-24358600I-15000J0D01*
G01*
X21422600Y-24358600D02*
G75*
G02*
X21452600Y-24358600I15000J0D01*
G01*
X21528800Y-19989800D02*
G75*
G02*
X21498800Y-19989800I-15000J0D01*
G01*
X21498800Y-19989800D02*
G75*
G02*
X21528800Y-19989800I15000J0D01*
G01*
X21528800Y-22402800D02*
G75*
G02*
X21498800Y-22402800I-15000J0D01*
G01*
X21498800Y-22402800D02*
G75*
G02*
X21528800Y-22402800I15000J0D01*
G01*
X21554200Y-16446600D02*
G75*
G02*
X21524200Y-16446600I-15000J0D01*
G01*
X21524200Y-16446600D02*
G75*
G02*
X21554200Y-16446600I15000J0D01*
G01*
X21554200Y-24384000D02*
G75*
G02*
X21524200Y-24384000I-15000J0D01*
G01*
X21524200Y-24384000D02*
G75*
G02*
X21554200Y-24384000I15000J0D01*
G01*
X21630400Y-20535900D02*
G75*
G02*
X21600400Y-20535900I-15000J0D01*
G01*
X21600400Y-20535900D02*
G75*
G02*
X21630400Y-20535900I15000J0D01*
G01*
X21655800Y-23596600D02*
G75*
G02*
X21625800Y-23596600I-15000J0D01*
G01*
X21625800Y-23596600D02*
G75*
G02*
X21655800Y-23596600I15000J0D01*
G01*
X21655800Y-23952200D02*
G75*
G02*
X21625800Y-23952200I-15000J0D01*
G01*
X21625800Y-23952200D02*
G75*
G02*
X21655800Y-23952200I15000J0D01*
G01*
X21655800Y-24053800D02*
G75*
G02*
X21625800Y-24053800I-15000J0D01*
G01*
X21625800Y-24053800D02*
G75*
G02*
X21655800Y-24053800I15000J0D01*
G01*
X21655800Y-24358600D02*
G75*
G02*
X21625800Y-24358600I-15000J0D01*
G01*
X21625800Y-24358600D02*
G75*
G02*
X21655800Y-24358600I15000J0D01*
G01*
X21706600Y-16446600D02*
G75*
G02*
X21676600Y-16446600I-15000J0D01*
G01*
X21676600Y-16446600D02*
G75*
G02*
X21706600Y-16446600I15000J0D01*
G01*
X21706600Y-18542000D02*
G75*
G02*
X21676600Y-18542000I-15000J0D01*
G01*
X21676600Y-18542000D02*
G75*
G02*
X21706600Y-18542000I15000J0D01*
G01*
X21706600Y-24688800D02*
G75*
G02*
X21676600Y-24688800I-15000J0D01*
G01*
X21676600Y-24688800D02*
G75*
G02*
X21706600Y-24688800I15000J0D01*
G01*
X21782800Y-23723600D02*
G75*
G02*
X21752800Y-23723600I-15000J0D01*
G01*
X21752800Y-23723600D02*
G75*
G02*
X21782800Y-23723600I15000J0D01*
G01*
X21798500Y-18262600D02*
G75*
G02*
X21768500Y-18262600I-15000J0D01*
G01*
X21768500Y-18262600D02*
G75*
G02*
X21798500Y-18262600I15000J0D01*
G01*
X21808200Y-18084800D02*
G75*
G02*
X21778200Y-18084800I-15000J0D01*
G01*
X21778200Y-18084800D02*
G75*
G02*
X21808200Y-18084800I15000J0D01*
G01*
X21886220Y-17934220D02*
G75*
G02*
X21856220Y-17934220I-15000J0D01*
G01*
X21856220Y-17934220D02*
G75*
G02*
X21886220Y-17934220I15000J0D01*
G01*
X21909800Y-23876000D02*
G75*
G02*
X21879800Y-23876000I-15000J0D01*
G01*
X21879800Y-23876000D02*
G75*
G02*
X21909800Y-23876000I15000J0D01*
G01*
X21909800Y-24053800D02*
G75*
G02*
X21879800Y-24053800I-15000J0D01*
G01*
X21879800Y-24053800D02*
G75*
G02*
X21909800Y-24053800I15000J0D01*
G01*
X21968450Y-16256000D02*
G75*
G02*
X21938450Y-16256000I-15000J0D01*
G01*
X21938450Y-16256000D02*
G75*
G02*
X21968450Y-16256000I15000J0D01*
G01*
X21968450Y-16467050D02*
G75*
G02*
X21938450Y-16467050I-15000J0D01*
G01*
X21938450Y-16467050D02*
G75*
G02*
X21968450Y-16467050I15000J0D01*
G01*
X21986000Y-19939000D02*
G75*
G02*
X21956000Y-19939000I-15000J0D01*
G01*
X21956000Y-19939000D02*
G75*
G02*
X21986000Y-19939000I15000J0D01*
G01*
X22062200Y-19608800D02*
G75*
G02*
X22032200Y-19608800I-15000J0D01*
G01*
X22032200Y-19608800D02*
G75*
G02*
X22062200Y-19608800I15000J0D01*
G01*
X22062200Y-23444200D02*
G75*
G02*
X22032200Y-23444200I-15000J0D01*
G01*
X22032200Y-23444200D02*
G75*
G02*
X22062200Y-23444200I15000J0D01*
G01*
X22062200Y-23774400D02*
G75*
G02*
X22032200Y-23774400I-15000J0D01*
G01*
X22032200Y-23774400D02*
G75*
G02*
X22062200Y-23774400I15000J0D01*
G01*
X22087600Y-19024600D02*
G75*
G02*
X22057600Y-19024600I-15000J0D01*
G01*
X22057600Y-19024600D02*
G75*
G02*
X22087600Y-19024600I15000J0D01*
G01*
X22113000Y-22225000D02*
G75*
G02*
X22083000Y-22225000I-15000J0D01*
G01*
X22083000Y-22225000D02*
G75*
G02*
X22113000Y-22225000I15000J0D01*
G01*
X22129040Y-19380200D02*
G75*
G02*
X22099040Y-19380200I-15000J0D01*
G01*
X22099040Y-19380200D02*
G75*
G02*
X22129040Y-19380200I15000J0D01*
G01*
X22163800Y-17907000D02*
G75*
G02*
X22133800Y-17907000I-15000J0D01*
G01*
X22133800Y-17907000D02*
G75*
G02*
X22163800Y-17907000I15000J0D01*
G01*
X22163800Y-21132800D02*
G75*
G02*
X22133800Y-21132800I-15000J0D01*
G01*
X22133800Y-21132800D02*
G75*
G02*
X22163800Y-21132800I15000J0D01*
G01*
X22189200Y-19177000D02*
G75*
G02*
X22159200Y-19177000I-15000J0D01*
G01*
X22159200Y-19177000D02*
G75*
G02*
X22189200Y-19177000I15000J0D01*
G01*
X22189200Y-20116800D02*
G75*
G02*
X22159200Y-20116800I-15000J0D01*
G01*
X22159200Y-20116800D02*
G75*
G02*
X22189200Y-20116800I15000J0D01*
G01*
X22290800Y-19608800D02*
G75*
G02*
X22260800Y-19608800I-15000J0D01*
G01*
X22260800Y-19608800D02*
G75*
G02*
X22290800Y-19608800I15000J0D01*
G01*
X22316200Y-17650120D02*
G75*
G02*
X22286200Y-17650120I-15000J0D01*
G01*
X22286200Y-17650120D02*
G75*
G02*
X22316200Y-17650120I15000J0D01*
G01*
X22417800Y-17297400D02*
G75*
G02*
X22387800Y-17297400I-15000J0D01*
G01*
X22387800Y-17297400D02*
G75*
G02*
X22417800Y-17297400I15000J0D01*
G01*
X22423680Y-17124040D02*
G75*
G02*
X22393680Y-17124040I-15000J0D01*
G01*
X22393680Y-17124040D02*
G75*
G02*
X22423680Y-17124040I15000J0D01*
G01*
X12877800Y-22454400D02*
X12877800Y-22554400D01*
X12827800Y-22504400D02*
X12927800Y-22504400D01*
X12877800Y-22708400D02*
X12877800Y-22808400D01*
X12827800Y-22758400D02*
X12927800Y-22758400D01*
X12877800Y-22962400D02*
X12877800Y-23062400D01*
X12827800Y-23012400D02*
X12927800Y-23012400D01*
X13192200Y-23902200D02*
X13192200Y-24002200D01*
X13142200Y-23952200D02*
X13242200Y-23952200D01*
X13242200Y-24052200D02*
X13242200Y-23852200D01*
X13142200Y-23852200D02*
G75*
G02*
X13242200Y-23852200I50000J0D01*
G01*
X13142200Y-23852200D02*
X13142200Y-24052200D01*
X13142200Y-24052200D02*
G75*
G03*
X13242200Y-24052200I50000J0D01*
G01*
X13492200Y-23432200D02*
X13492200Y-23532200D01*
X13442200Y-23482200D02*
X13542200Y-23482200D01*
X13592200Y-23432200D02*
X13392200Y-23432200D01*
X13392200Y-23532200D02*
G75*
G02*
X13392200Y-23432200I0J50000D01*
G01*
X13392200Y-23532200D02*
X13592200Y-23532200D01*
X13592200Y-23532200D02*
G75*
G03*
X13592200Y-23432200I0J50000D01*
G01*
X13595000Y-24592000D02*
X13595000Y-24692000D01*
X13545000Y-24642000D02*
X13645000Y-24642000D01*
X13595000Y-24846000D02*
X13595000Y-24946000D01*
X13545000Y-24896000D02*
X13645000Y-24896000D01*
X13792200Y-23902200D02*
X13792200Y-24002200D01*
X13742200Y-23952200D02*
X13842200Y-23952200D01*
X13842200Y-24077200D02*
X13842200Y-23827200D01*
X13742200Y-23827200D02*
G75*
G02*
X13842200Y-23827200I50000J0D01*
G01*
X13742200Y-23827200D02*
X13742200Y-24077200D01*
X13742200Y-24077200D02*
G75*
G03*
X13842200Y-24077200I50000J0D01*
G01*
X13849000Y-24592000D02*
X13849000Y-24692000D01*
X13799000Y-24642000D02*
X13899000Y-24642000D01*
X13849000Y-24846000D02*
X13849000Y-24946000D01*
X13799000Y-24896000D02*
X13899000Y-24896000D01*
X14103000Y-24846000D02*
X14103000Y-24946000D01*
X14053000Y-24896000D02*
X14153000Y-24896000D01*
X14103000Y-24592000D02*
X14103000Y-24692000D01*
X14053000Y-24642000D02*
X14153000Y-24642000D01*
X14357000Y-24592000D02*
X14357000Y-24692000D01*
X14307000Y-24642000D02*
X14407000Y-24642000D01*
X14357000Y-24846000D02*
X14357000Y-24946000D01*
X14307000Y-24896000D02*
X14407000Y-24896000D01*
X14611000Y-24592000D02*
X14611000Y-24692000D01*
X14561000Y-24642000D02*
X14661000Y-24642000D01*
X14611000Y-24846000D02*
X14611000Y-24946000D01*
X14561000Y-24896000D02*
X14661000Y-24896000D01*
X14865000Y-24592000D02*
X14865000Y-24692000D01*
X14815000Y-24642000D02*
X14915000Y-24642000D01*
X14865000Y-24846000D02*
X14865000Y-24946000D01*
X14815000Y-24896000D02*
X14915000Y-24896000D01*
X15119000Y-24592000D02*
X15119000Y-24692000D01*
X15069000Y-24642000D02*
X15169000Y-24642000D01*
X15119000Y-24846000D02*
X15119000Y-24946000D01*
X15069000Y-24896000D02*
X15169000Y-24896000D01*
X15373000Y-24592000D02*
X15373000Y-24692000D01*
X15323000Y-24642000D02*
X15423000Y-24642000D01*
X15373000Y-24846000D02*
X15373000Y-24946000D01*
X15323000Y-24896000D02*
X15423000Y-24896000D01*
X15627000Y-24592000D02*
X15627000Y-24692000D01*
X15577000Y-24642000D02*
X15677000Y-24642000D01*
X15627000Y-24846000D02*
X15627000Y-24946000D01*
X15577000Y-24896000D02*
X15677000Y-24896000D01*
X15881000Y-24592000D02*
X15881000Y-24692000D01*
X15831000Y-24642000D02*
X15931000Y-24642000D01*
X15881000Y-24846000D02*
X15881000Y-24946000D01*
X15831000Y-24896000D02*
X15931000Y-24896000D01*
X16135000Y-24592000D02*
X16135000Y-24692000D01*
X16085000Y-24642000D02*
X16185000Y-24642000D01*
X16135000Y-24846000D02*
X16135000Y-24946000D01*
X16085000Y-24896000D02*
X16185000Y-24896000D01*
X16389000Y-24846000D02*
X16389000Y-24946000D01*
X16339000Y-24896000D02*
X16439000Y-24896000D01*
X16389000Y-24592000D02*
X16389000Y-24692000D01*
X16339000Y-24642000D02*
X16439000Y-24642000D01*
X16643000Y-24592000D02*
X16643000Y-24692000D01*
X16593000Y-24642000D02*
X16693000Y-24642000D01*
X16643000Y-24846000D02*
X16643000Y-24946000D01*
X16593000Y-24896000D02*
X16693000Y-24896000D01*
X16897000Y-24592000D02*
X16897000Y-24692000D01*
X16847000Y-24642000D02*
X16947000Y-24642000D01*
X16897000Y-24846000D02*
X16897000Y-24946000D01*
X16847000Y-24896000D02*
X16947000Y-24896000D01*
X17151000Y-24592000D02*
X17151000Y-24692000D01*
X17101000Y-24642000D02*
X17201000Y-24642000D01*
X17151000Y-24846000D02*
X17151000Y-24946000D01*
X17101000Y-24896000D02*
X17201000Y-24896000D01*
X17405000Y-24846000D02*
X17405000Y-24946000D01*
X17355000Y-24896000D02*
X17455000Y-24896000D01*
X17405000Y-24592000D02*
X17405000Y-24692000D01*
X17355000Y-24642000D02*
X17455000Y-24642000D01*
X17659000Y-24592000D02*
X17659000Y-24692000D01*
X17609000Y-24642000D02*
X17709000Y-24642000D01*
X17659000Y-24846000D02*
X17659000Y-24946000D01*
X17609000Y-24896000D02*
X17709000Y-24896000D01*
X17913000Y-24592000D02*
X17913000Y-24692000D01*
X17863000Y-24642000D02*
X17963000Y-24642000D01*
X17913000Y-24846000D02*
X17913000Y-24946000D01*
X17863000Y-24896000D02*
X17963000Y-24896000D01*
X18167000Y-24592000D02*
X18167000Y-24692000D01*
X18117000Y-24642000D02*
X18217000Y-24642000D01*
X18167000Y-24846000D02*
X18167000Y-24946000D01*
X18117000Y-24896000D02*
X18217000Y-24896000D01*
X18421000Y-24592000D02*
X18421000Y-24692000D01*
X18371000Y-24642000D02*
X18471000Y-24642000D01*
X18421000Y-24846000D02*
X18421000Y-24946000D01*
X18371000Y-24896000D02*
X18471000Y-24896000D01*
X18744200Y-24842000D02*
X18744200Y-24942000D01*
X18694200Y-24892000D02*
X18794200Y-24892000D01*
X18998200Y-24842000D02*
X18998200Y-24942000D01*
X18948200Y-24892000D02*
X19048200Y-24892000D01*
X19252200Y-24842000D02*
X19252200Y-24942000D01*
X19202200Y-24892000D02*
X19302200Y-24892000D01*
X19506200Y-24842000D02*
X19506200Y-24942000D01*
X19456200Y-24892000D02*
X19556200Y-24892000D01*
X19761200Y-24842000D02*
X19761200Y-24942000D01*
X19711200Y-24892000D02*
X19811200Y-24892000D01*
X20015200Y-24842000D02*
X20015200Y-24942000D01*
X19965200Y-24892000D02*
X20065200Y-24892000D01*
X20269200Y-24842000D02*
X20269200Y-24942000D01*
X20219200Y-24892000D02*
X20319200Y-24892000D01*
X20523200Y-24842000D02*
X20523200Y-24942000D01*
X20473200Y-24892000D02*
X20573200Y-24892000D01*
X20777200Y-24842000D02*
X20777200Y-24942000D01*
X20727200Y-24892000D02*
X20827200Y-24892000D01*
X21031200Y-24842000D02*
X21031200Y-24942000D01*
X20981200Y-24892000D02*
X21081200Y-24892000D01*
X21285200Y-24842000D02*
X21285200Y-24942000D01*
X21235200Y-24892000D02*
X21335200Y-24892000D01*
X21539200Y-24842000D02*
X21539200Y-24942000D01*
X21489200Y-24892000D02*
X21589200Y-24892000D01*
X21793200Y-24842000D02*
X21793200Y-24942000D01*
X21743200Y-24892000D02*
X21843200Y-24892000D01*
D13*
X13194138Y-15734138D02*
X13194138Y-15507862D01*
X12967862Y-15507862D01*
X12967862Y-15734138D01*
X13194138Y-15734138D01*
X13194138Y-24878138D02*
X13194138Y-24651862D01*
X12967862Y-24651862D01*
X12967862Y-24878138D01*
X13194138Y-24878138D01*
X22338138Y-15734138D02*
X22338138Y-15507862D01*
X22111862Y-15507862D01*
X22111862Y-15734138D01*
X22338138Y-15734138D01*
X22338138Y-24878138D02*
X22338138Y-24651862D01*
X22111862Y-24651862D01*
X22111862Y-24878138D01*
X22338138Y-24878138D01*
D11*
X12958277Y-25459984D02*
X12958277Y-25259984D01*
X12958277Y-25259984D02*
X13005896Y-25259984D01*
X13005896Y-25259984D02*
X13034467Y-25269508D01*
X13034467Y-25269508D02*
X13053515Y-25288555D01*
X13053515Y-25288555D02*
X13063039Y-25307603D01*
X13063039Y-25307603D02*
X13072562Y-25345698D01*
X13072562Y-25345698D02*
X13072562Y-25374269D01*
X13072562Y-25374269D02*
X13063039Y-25412365D01*
X13063039Y-25412365D02*
X13053515Y-25431412D01*
X13053515Y-25431412D02*
X13034467Y-25450460D01*
X13034467Y-25450460D02*
X13005896Y-25459984D01*
X13005896Y-25459984D02*
X12958277Y-25459984D01*
X13158277Y-25459984D02*
X13158277Y-25326650D01*
X13158277Y-25364746D02*
X13167801Y-25345698D01*
X13167801Y-25345698D02*
X13177324Y-25336174D01*
X13177324Y-25336174D02*
X13196372Y-25326650D01*
X13196372Y-25326650D02*
X13215420Y-25326650D01*
X13282086Y-25459984D02*
X13282086Y-25326650D01*
X13282086Y-25259984D02*
X13272562Y-25269508D01*
X13272562Y-25269508D02*
X13282086Y-25279031D01*
X13282086Y-25279031D02*
X13291610Y-25269508D01*
X13291610Y-25269508D02*
X13282086Y-25259984D01*
X13282086Y-25259984D02*
X13282086Y-25279031D01*
X13405896Y-25459984D02*
X13386848Y-25450460D01*
X13386848Y-25450460D02*
X13377324Y-25431412D01*
X13377324Y-25431412D02*
X13377324Y-25259984D01*
X13510658Y-25459984D02*
X13491610Y-25450460D01*
X13491610Y-25450460D02*
X13482086Y-25431412D01*
X13482086Y-25431412D02*
X13482086Y-25259984D01*
X13739229Y-25459984D02*
X13739229Y-25259984D01*
X13739229Y-25259984D02*
X13805896Y-25402841D01*
X13805896Y-25402841D02*
X13872562Y-25259984D01*
X13872562Y-25259984D02*
X13872562Y-25459984D01*
X14053515Y-25459984D02*
X14053515Y-25355222D01*
X14053515Y-25355222D02*
X14043991Y-25336174D01*
X14043991Y-25336174D02*
X14024943Y-25326650D01*
X14024943Y-25326650D02*
X13986848Y-25326650D01*
X13986848Y-25326650D02*
X13967801Y-25336174D01*
X14053515Y-25450460D02*
X14034467Y-25459984D01*
X14034467Y-25459984D02*
X13986848Y-25459984D01*
X13986848Y-25459984D02*
X13967801Y-25450460D01*
X13967801Y-25450460D02*
X13958277Y-25431412D01*
X13958277Y-25431412D02*
X13958277Y-25412365D01*
X13958277Y-25412365D02*
X13967801Y-25393317D01*
X13967801Y-25393317D02*
X13986848Y-25383793D01*
X13986848Y-25383793D02*
X14034467Y-25383793D01*
X14034467Y-25383793D02*
X14053515Y-25374269D01*
X14148753Y-25326650D02*
X14148753Y-25526650D01*
X14148753Y-25336174D02*
X14167801Y-25326650D01*
X14167801Y-25326650D02*
X14205896Y-25326650D01*
X14205896Y-25326650D02*
X14224943Y-25336174D01*
X14224943Y-25336174D02*
X14234467Y-25345698D01*
X14234467Y-25345698D02*
X14243991Y-25364746D01*
X14243991Y-25364746D02*
X14243991Y-25421888D01*
X14243991Y-25421888D02*
X14234467Y-25440936D01*
X14234467Y-25440936D02*
X14224943Y-25450460D01*
X14224943Y-25450460D02*
X14205896Y-25459984D01*
X14205896Y-25459984D02*
X14167801Y-25459984D01*
X14167801Y-25459984D02*
X14148753Y-25450460D01*
X14329705Y-25440936D02*
X14339229Y-25450460D01*
X14339229Y-25450460D02*
X14329705Y-25459984D01*
X14329705Y-25459984D02*
X14320182Y-25450460D01*
X14320182Y-25450460D02*
X14329705Y-25440936D01*
X14329705Y-25440936D02*
X14329705Y-25459984D01*
X14329705Y-25336174D02*
X14339229Y-25345698D01*
X14339229Y-25345698D02*
X14329705Y-25355222D01*
X14329705Y-25355222D02*
X14320182Y-25345698D01*
X14320182Y-25345698D02*
X14329705Y-25336174D01*
X14329705Y-25336174D02*
X14329705Y-25355222D01*
D12*
X12672100Y-25775800D02*
X12697500Y-25801200D01*
X12697500Y-25775800D02*
X12672100Y-25801200D01*
D11*
X12996372Y-25679984D02*
X13015420Y-25679984D01*
X13015420Y-25679984D02*
X13034467Y-25689508D01*
X13034467Y-25689508D02*
X13043991Y-25699031D01*
X13043991Y-25699031D02*
X13053515Y-25718079D01*
X13053515Y-25718079D02*
X13063039Y-25756174D01*
X13063039Y-25756174D02*
X13063039Y-25803793D01*
X13063039Y-25803793D02*
X13053515Y-25841888D01*
X13053515Y-25841888D02*
X13043991Y-25860936D01*
X13043991Y-25860936D02*
X13034467Y-25870460D01*
X13034467Y-25870460D02*
X13015420Y-25879984D01*
X13015420Y-25879984D02*
X12996372Y-25879984D01*
X12996372Y-25879984D02*
X12977324Y-25870460D01*
X12977324Y-25870460D02*
X12967801Y-25860936D01*
X12967801Y-25860936D02*
X12958277Y-25841888D01*
X12958277Y-25841888D02*
X12948753Y-25803793D01*
X12948753Y-25803793D02*
X12948753Y-25756174D01*
X12948753Y-25756174D02*
X12958277Y-25718079D01*
X12958277Y-25718079D02*
X12967801Y-25699031D01*
X12967801Y-25699031D02*
X12977324Y-25689508D01*
X12977324Y-25689508D02*
X12996372Y-25679984D01*
X13148753Y-25860936D02*
X13158277Y-25870460D01*
X13158277Y-25870460D02*
X13148753Y-25879984D01*
X13148753Y-25879984D02*
X13139229Y-25870460D01*
X13139229Y-25870460D02*
X13148753Y-25860936D01*
X13148753Y-25860936D02*
X13148753Y-25879984D01*
X13234467Y-25699031D02*
X13243991Y-25689508D01*
X13243991Y-25689508D02*
X13263039Y-25679984D01*
X13263039Y-25679984D02*
X13310658Y-25679984D01*
X13310658Y-25679984D02*
X13329705Y-25689508D01*
X13329705Y-25689508D02*
X13339229Y-25699031D01*
X13339229Y-25699031D02*
X13348753Y-25718079D01*
X13348753Y-25718079D02*
X13348753Y-25737127D01*
X13348753Y-25737127D02*
X13339229Y-25765698D01*
X13339229Y-25765698D02*
X13224943Y-25879984D01*
X13224943Y-25879984D02*
X13348753Y-25879984D01*
X13529705Y-25679984D02*
X13434467Y-25679984D01*
X13434467Y-25679984D02*
X13424943Y-25775222D01*
X13424943Y-25775222D02*
X13434467Y-25765698D01*
X13434467Y-25765698D02*
X13453515Y-25756174D01*
X13453515Y-25756174D02*
X13501134Y-25756174D01*
X13501134Y-25756174D02*
X13520182Y-25765698D01*
X13520182Y-25765698D02*
X13529705Y-25775222D01*
X13529705Y-25775222D02*
X13539229Y-25794269D01*
X13539229Y-25794269D02*
X13539229Y-25841888D01*
X13539229Y-25841888D02*
X13529705Y-25860936D01*
X13529705Y-25860936D02*
X13520182Y-25870460D01*
X13520182Y-25870460D02*
X13501134Y-25879984D01*
X13501134Y-25879984D02*
X13453515Y-25879984D01*
X13453515Y-25879984D02*
X13434467Y-25870460D01*
X13434467Y-25870460D02*
X13424943Y-25860936D01*
X13710658Y-25746650D02*
X13710658Y-25879984D01*
X13663039Y-25670460D02*
X13615420Y-25813317D01*
X13615420Y-25813317D02*
X13739229Y-25813317D01*
X13815420Y-25879984D02*
X13815420Y-25746650D01*
X13815420Y-25765698D02*
X13824943Y-25756174D01*
X13824943Y-25756174D02*
X13843991Y-25746650D01*
X13843991Y-25746650D02*
X13872563Y-25746650D01*
X13872563Y-25746650D02*
X13891610Y-25756174D01*
X13891610Y-25756174D02*
X13901134Y-25775222D01*
X13901134Y-25775222D02*
X13901134Y-25879984D01*
X13901134Y-25775222D02*
X13910658Y-25756174D01*
X13910658Y-25756174D02*
X13929705Y-25746650D01*
X13929705Y-25746650D02*
X13958277Y-25746650D01*
X13958277Y-25746650D02*
X13977324Y-25756174D01*
X13977324Y-25756174D02*
X13986848Y-25775222D01*
X13986848Y-25775222D02*
X13986848Y-25879984D01*
X14082086Y-25879984D02*
X14082086Y-25746650D01*
X14082086Y-25765698D02*
X14091610Y-25756174D01*
X14091610Y-25756174D02*
X14110658Y-25746650D01*
X14110658Y-25746650D02*
X14139229Y-25746650D01*
X14139229Y-25746650D02*
X14158277Y-25756174D01*
X14158277Y-25756174D02*
X14167801Y-25775222D01*
X14167801Y-25775222D02*
X14167801Y-25879984D01*
X14167801Y-25775222D02*
X14177324Y-25756174D01*
X14177324Y-25756174D02*
X14196372Y-25746650D01*
X14196372Y-25746650D02*
X14224943Y-25746650D01*
X14224943Y-25746650D02*
X14243991Y-25756174D01*
X14243991Y-25756174D02*
X14253515Y-25775222D01*
X14253515Y-25775222D02*
X14253515Y-25879984D01*
X14643991Y-25670460D02*
X14472563Y-25927603D01*
X14901134Y-25679984D02*
X14920182Y-25679984D01*
X14920182Y-25679984D02*
X14939229Y-25689508D01*
X14939229Y-25689508D02*
X14948753Y-25699031D01*
X14948753Y-25699031D02*
X14958277Y-25718079D01*
X14958277Y-25718079D02*
X14967801Y-25756174D01*
X14967801Y-25756174D02*
X14967801Y-25803793D01*
X14967801Y-25803793D02*
X14958277Y-25841888D01*
X14958277Y-25841888D02*
X14948753Y-25860936D01*
X14948753Y-25860936D02*
X14939229Y-25870460D01*
X14939229Y-25870460D02*
X14920182Y-25879984D01*
X14920182Y-25879984D02*
X14901134Y-25879984D01*
X14901134Y-25879984D02*
X14882086Y-25870460D01*
X14882086Y-25870460D02*
X14872563Y-25860936D01*
X14872563Y-25860936D02*
X14863039Y-25841888D01*
X14863039Y-25841888D02*
X14853515Y-25803793D01*
X14853515Y-25803793D02*
X14853515Y-25756174D01*
X14853515Y-25756174D02*
X14863039Y-25718079D01*
X14863039Y-25718079D02*
X14872563Y-25699031D01*
X14872563Y-25699031D02*
X14882086Y-25689508D01*
X14882086Y-25689508D02*
X14901134Y-25679984D01*
X15053515Y-25860936D02*
X15063039Y-25870460D01*
X15063039Y-25870460D02*
X15053515Y-25879984D01*
X15053515Y-25879984D02*
X15043991Y-25870460D01*
X15043991Y-25870460D02*
X15053515Y-25860936D01*
X15053515Y-25860936D02*
X15053515Y-25879984D01*
X15186848Y-25679984D02*
X15205896Y-25679984D01*
X15205896Y-25679984D02*
X15224944Y-25689508D01*
X15224944Y-25689508D02*
X15234467Y-25699031D01*
X15234467Y-25699031D02*
X15243991Y-25718079D01*
X15243991Y-25718079D02*
X15253515Y-25756174D01*
X15253515Y-25756174D02*
X15253515Y-25803793D01*
X15253515Y-25803793D02*
X15243991Y-25841888D01*
X15243991Y-25841888D02*
X15234467Y-25860936D01*
X15234467Y-25860936D02*
X15224944Y-25870460D01*
X15224944Y-25870460D02*
X15205896Y-25879984D01*
X15205896Y-25879984D02*
X15186848Y-25879984D01*
X15186848Y-25879984D02*
X15167801Y-25870460D01*
X15167801Y-25870460D02*
X15158277Y-25860936D01*
X15158277Y-25860936D02*
X15148753Y-25841888D01*
X15148753Y-25841888D02*
X15139229Y-25803793D01*
X15139229Y-25803793D02*
X15139229Y-25756174D01*
X15139229Y-25756174D02*
X15148753Y-25718079D01*
X15148753Y-25718079D02*
X15158277Y-25699031D01*
X15158277Y-25699031D02*
X15167801Y-25689508D01*
X15167801Y-25689508D02*
X15186848Y-25679984D01*
X15443991Y-25879984D02*
X15329706Y-25879984D01*
X15386848Y-25879984D02*
X15386848Y-25679984D01*
X15386848Y-25679984D02*
X15367801Y-25708555D01*
X15367801Y-25708555D02*
X15348753Y-25727603D01*
X15348753Y-25727603D02*
X15329706Y-25737127D01*
X15567801Y-25679984D02*
X15586848Y-25679984D01*
X15586848Y-25679984D02*
X15605896Y-25689508D01*
X15605896Y-25689508D02*
X15615420Y-25699031D01*
X15615420Y-25699031D02*
X15624944Y-25718079D01*
X15624944Y-25718079D02*
X15634467Y-25756174D01*
X15634467Y-25756174D02*
X15634467Y-25803793D01*
X15634467Y-25803793D02*
X15624944Y-25841888D01*
X15624944Y-25841888D02*
X15615420Y-25860936D01*
X15615420Y-25860936D02*
X15605896Y-25870460D01*
X15605896Y-25870460D02*
X15586848Y-25879984D01*
X15586848Y-25879984D02*
X15567801Y-25879984D01*
X15567801Y-25879984D02*
X15548753Y-25870460D01*
X15548753Y-25870460D02*
X15539229Y-25860936D01*
X15539229Y-25860936D02*
X15529706Y-25841888D01*
X15529706Y-25841888D02*
X15520182Y-25803793D01*
X15520182Y-25803793D02*
X15520182Y-25756174D01*
X15520182Y-25756174D02*
X15529706Y-25718079D01*
X15529706Y-25718079D02*
X15539229Y-25699031D01*
X15539229Y-25699031D02*
X15548753Y-25689508D01*
X15548753Y-25689508D02*
X15567801Y-25679984D01*
X15758277Y-25679984D02*
X15777325Y-25679984D01*
X15777325Y-25679984D02*
X15796372Y-25689508D01*
X15796372Y-25689508D02*
X15805896Y-25699031D01*
X15805896Y-25699031D02*
X15815420Y-25718079D01*
X15815420Y-25718079D02*
X15824944Y-25756174D01*
X15824944Y-25756174D02*
X15824944Y-25803793D01*
X15824944Y-25803793D02*
X15815420Y-25841888D01*
X15815420Y-25841888D02*
X15805896Y-25860936D01*
X15805896Y-25860936D02*
X15796372Y-25870460D01*
X15796372Y-25870460D02*
X15777325Y-25879984D01*
X15777325Y-25879984D02*
X15758277Y-25879984D01*
X15758277Y-25879984D02*
X15739229Y-25870460D01*
X15739229Y-25870460D02*
X15729706Y-25860936D01*
X15729706Y-25860936D02*
X15720182Y-25841888D01*
X15720182Y-25841888D02*
X15710658Y-25803793D01*
X15710658Y-25803793D02*
X15710658Y-25756174D01*
X15710658Y-25756174D02*
X15720182Y-25718079D01*
X15720182Y-25718079D02*
X15729706Y-25699031D01*
X15729706Y-25699031D02*
X15739229Y-25689508D01*
X15739229Y-25689508D02*
X15758277Y-25679984D01*
X15901134Y-25679984D02*
X15901134Y-25718079D01*
X15977325Y-25679984D02*
X15977325Y-25718079D01*
X16272563Y-25956174D02*
X16263039Y-25946650D01*
X16263039Y-25946650D02*
X16243991Y-25918079D01*
X16243991Y-25918079D02*
X16234468Y-25899031D01*
X16234468Y-25899031D02*
X16224944Y-25870460D01*
X16224944Y-25870460D02*
X16215420Y-25822841D01*
X16215420Y-25822841D02*
X16215420Y-25784746D01*
X16215420Y-25784746D02*
X16224944Y-25737127D01*
X16224944Y-25737127D02*
X16234468Y-25708555D01*
X16234468Y-25708555D02*
X16243991Y-25689508D01*
X16243991Y-25689508D02*
X16263039Y-25660936D01*
X16263039Y-25660936D02*
X16272563Y-25651412D01*
X16453515Y-25879984D02*
X16339229Y-25879984D01*
X16396372Y-25879984D02*
X16396372Y-25679984D01*
X16396372Y-25679984D02*
X16377325Y-25708555D01*
X16377325Y-25708555D02*
X16358277Y-25727603D01*
X16358277Y-25727603D02*
X16339229Y-25737127D01*
X16577325Y-25679984D02*
X16596372Y-25679984D01*
X16596372Y-25679984D02*
X16615420Y-25689508D01*
X16615420Y-25689508D02*
X16624944Y-25699031D01*
X16624944Y-25699031D02*
X16634468Y-25718079D01*
X16634468Y-25718079D02*
X16643991Y-25756174D01*
X16643991Y-25756174D02*
X16643991Y-25803793D01*
X16643991Y-25803793D02*
X16634468Y-25841888D01*
X16634468Y-25841888D02*
X16624944Y-25860936D01*
X16624944Y-25860936D02*
X16615420Y-25870460D01*
X16615420Y-25870460D02*
X16596372Y-25879984D01*
X16596372Y-25879984D02*
X16577325Y-25879984D01*
X16577325Y-25879984D02*
X16558277Y-25870460D01*
X16558277Y-25870460D02*
X16548753Y-25860936D01*
X16548753Y-25860936D02*
X16539229Y-25841888D01*
X16539229Y-25841888D02*
X16529706Y-25803793D01*
X16529706Y-25803793D02*
X16529706Y-25756174D01*
X16529706Y-25756174D02*
X16539229Y-25718079D01*
X16539229Y-25718079D02*
X16548753Y-25699031D01*
X16548753Y-25699031D02*
X16558277Y-25689508D01*
X16558277Y-25689508D02*
X16577325Y-25679984D01*
X16758277Y-25765698D02*
X16739229Y-25756174D01*
X16739229Y-25756174D02*
X16729706Y-25746650D01*
X16729706Y-25746650D02*
X16720182Y-25727603D01*
X16720182Y-25727603D02*
X16720182Y-25718079D01*
X16720182Y-25718079D02*
X16729706Y-25699031D01*
X16729706Y-25699031D02*
X16739229Y-25689508D01*
X16739229Y-25689508D02*
X16758277Y-25679984D01*
X16758277Y-25679984D02*
X16796372Y-25679984D01*
X16796372Y-25679984D02*
X16815420Y-25689508D01*
X16815420Y-25689508D02*
X16824944Y-25699031D01*
X16824944Y-25699031D02*
X16834468Y-25718079D01*
X16834468Y-25718079D02*
X16834468Y-25727603D01*
X16834468Y-25727603D02*
X16824944Y-25746650D01*
X16824944Y-25746650D02*
X16815420Y-25756174D01*
X16815420Y-25756174D02*
X16796372Y-25765698D01*
X16796372Y-25765698D02*
X16758277Y-25765698D01*
X16758277Y-25765698D02*
X16739229Y-25775222D01*
X16739229Y-25775222D02*
X16729706Y-25784746D01*
X16729706Y-25784746D02*
X16720182Y-25803793D01*
X16720182Y-25803793D02*
X16720182Y-25841888D01*
X16720182Y-25841888D02*
X16729706Y-25860936D01*
X16729706Y-25860936D02*
X16739229Y-25870460D01*
X16739229Y-25870460D02*
X16758277Y-25879984D01*
X16758277Y-25879984D02*
X16796372Y-25879984D01*
X16796372Y-25879984D02*
X16815420Y-25870460D01*
X16815420Y-25870460D02*
X16824944Y-25860936D01*
X16824944Y-25860936D02*
X16834468Y-25841888D01*
X16834468Y-25841888D02*
X16834468Y-25803793D01*
X16834468Y-25803793D02*
X16824944Y-25784746D01*
X16824944Y-25784746D02*
X16815420Y-25775222D01*
X16815420Y-25775222D02*
X16796372Y-25765698D01*
X17072563Y-25879984D02*
X17072563Y-25679984D01*
X17158277Y-25879984D02*
X17158277Y-25775222D01*
X17158277Y-25775222D02*
X17148753Y-25756174D01*
X17148753Y-25756174D02*
X17129706Y-25746650D01*
X17129706Y-25746650D02*
X17101134Y-25746650D01*
X17101134Y-25746650D02*
X17082087Y-25756174D01*
X17082087Y-25756174D02*
X17072563Y-25765698D01*
X17282087Y-25879984D02*
X17263039Y-25870460D01*
X17263039Y-25870460D02*
X17253515Y-25860936D01*
X17253515Y-25860936D02*
X17243992Y-25841888D01*
X17243992Y-25841888D02*
X17243992Y-25784746D01*
X17243992Y-25784746D02*
X17253515Y-25765698D01*
X17253515Y-25765698D02*
X17263039Y-25756174D01*
X17263039Y-25756174D02*
X17282087Y-25746650D01*
X17282087Y-25746650D02*
X17310658Y-25746650D01*
X17310658Y-25746650D02*
X17329706Y-25756174D01*
X17329706Y-25756174D02*
X17339230Y-25765698D01*
X17339230Y-25765698D02*
X17348753Y-25784746D01*
X17348753Y-25784746D02*
X17348753Y-25841888D01*
X17348753Y-25841888D02*
X17339230Y-25860936D01*
X17339230Y-25860936D02*
X17329706Y-25870460D01*
X17329706Y-25870460D02*
X17310658Y-25879984D01*
X17310658Y-25879984D02*
X17282087Y-25879984D01*
X17463039Y-25879984D02*
X17443992Y-25870460D01*
X17443992Y-25870460D02*
X17434468Y-25851412D01*
X17434468Y-25851412D02*
X17434468Y-25679984D01*
X17615420Y-25870460D02*
X17596373Y-25879984D01*
X17596373Y-25879984D02*
X17558277Y-25879984D01*
X17558277Y-25879984D02*
X17539230Y-25870460D01*
X17539230Y-25870460D02*
X17529706Y-25851412D01*
X17529706Y-25851412D02*
X17529706Y-25775222D01*
X17529706Y-25775222D02*
X17539230Y-25756174D01*
X17539230Y-25756174D02*
X17558277Y-25746650D01*
X17558277Y-25746650D02*
X17596373Y-25746650D01*
X17596373Y-25746650D02*
X17615420Y-25756174D01*
X17615420Y-25756174D02*
X17624944Y-25775222D01*
X17624944Y-25775222D02*
X17624944Y-25794269D01*
X17624944Y-25794269D02*
X17529706Y-25813317D01*
X17701134Y-25870460D02*
X17720182Y-25879984D01*
X17720182Y-25879984D02*
X17758277Y-25879984D01*
X17758277Y-25879984D02*
X17777325Y-25870460D01*
X17777325Y-25870460D02*
X17786849Y-25851412D01*
X17786849Y-25851412D02*
X17786849Y-25841888D01*
X17786849Y-25841888D02*
X17777325Y-25822841D01*
X17777325Y-25822841D02*
X17758277Y-25813317D01*
X17758277Y-25813317D02*
X17729706Y-25813317D01*
X17729706Y-25813317D02*
X17710658Y-25803793D01*
X17710658Y-25803793D02*
X17701134Y-25784746D01*
X17701134Y-25784746D02*
X17701134Y-25775222D01*
X17701134Y-25775222D02*
X17710658Y-25756174D01*
X17710658Y-25756174D02*
X17729706Y-25746650D01*
X17729706Y-25746650D02*
X17758277Y-25746650D01*
X17758277Y-25746650D02*
X17777325Y-25756174D01*
X17853515Y-25956174D02*
X17863039Y-25946650D01*
X17863039Y-25946650D02*
X17882087Y-25918079D01*
X17882087Y-25918079D02*
X17891611Y-25899031D01*
X17891611Y-25899031D02*
X17901134Y-25870460D01*
X17901134Y-25870460D02*
X17910658Y-25822841D01*
X17910658Y-25822841D02*
X17910658Y-25784746D01*
X17910658Y-25784746D02*
X17901134Y-25737127D01*
X17901134Y-25737127D02*
X17891611Y-25708555D01*
X17891611Y-25708555D02*
X17882087Y-25689508D01*
X17882087Y-25689508D02*
X17863039Y-25660936D01*
X17863039Y-25660936D02*
X17853515Y-25651412D01*
D12*
X12697500Y-26052500D02*
G75*
G02*
X12667500Y-26052500I-15000J0D01*
G01*
X12667500Y-26052500D02*
G75*
G02*
X12697500Y-26052500I15000J0D01*
G01*
D11*
X12996372Y-25943984D02*
X13015420Y-25943984D01*
X13015420Y-25943984D02*
X13034467Y-25953508D01*
X13034467Y-25953508D02*
X13043991Y-25963031D01*
X13043991Y-25963031D02*
X13053515Y-25982079D01*
X13053515Y-25982079D02*
X13063039Y-26020174D01*
X13063039Y-26020174D02*
X13063039Y-26067793D01*
X13063039Y-26067793D02*
X13053515Y-26105888D01*
X13053515Y-26105888D02*
X13043991Y-26124936D01*
X13043991Y-26124936D02*
X13034467Y-26134460D01*
X13034467Y-26134460D02*
X13015420Y-26143984D01*
X13015420Y-26143984D02*
X12996372Y-26143984D01*
X12996372Y-26143984D02*
X12977324Y-26134460D01*
X12977324Y-26134460D02*
X12967801Y-26124936D01*
X12967801Y-26124936D02*
X12958277Y-26105888D01*
X12958277Y-26105888D02*
X12948753Y-26067793D01*
X12948753Y-26067793D02*
X12948753Y-26020174D01*
X12948753Y-26020174D02*
X12958277Y-25982079D01*
X12958277Y-25982079D02*
X12967801Y-25963031D01*
X12967801Y-25963031D02*
X12977324Y-25953508D01*
X12977324Y-25953508D02*
X12996372Y-25943984D01*
X13148753Y-26124936D02*
X13158277Y-26134460D01*
X13158277Y-26134460D02*
X13148753Y-26143984D01*
X13148753Y-26143984D02*
X13139229Y-26134460D01*
X13139229Y-26134460D02*
X13148753Y-26124936D01*
X13148753Y-26124936D02*
X13148753Y-26143984D01*
X13224943Y-25943984D02*
X13348753Y-25943984D01*
X13348753Y-25943984D02*
X13282086Y-26020174D01*
X13282086Y-26020174D02*
X13310658Y-26020174D01*
X13310658Y-26020174D02*
X13329705Y-26029698D01*
X13329705Y-26029698D02*
X13339229Y-26039222D01*
X13339229Y-26039222D02*
X13348753Y-26058269D01*
X13348753Y-26058269D02*
X13348753Y-26105888D01*
X13348753Y-26105888D02*
X13339229Y-26124936D01*
X13339229Y-26124936D02*
X13329705Y-26134460D01*
X13329705Y-26134460D02*
X13310658Y-26143984D01*
X13310658Y-26143984D02*
X13253515Y-26143984D01*
X13253515Y-26143984D02*
X13234467Y-26134460D01*
X13234467Y-26134460D02*
X13224943Y-26124936D01*
X13472562Y-25943984D02*
X13491610Y-25943984D01*
X13491610Y-25943984D02*
X13510658Y-25953508D01*
X13510658Y-25953508D02*
X13520182Y-25963031D01*
X13520182Y-25963031D02*
X13529705Y-25982079D01*
X13529705Y-25982079D02*
X13539229Y-26020174D01*
X13539229Y-26020174D02*
X13539229Y-26067793D01*
X13539229Y-26067793D02*
X13529705Y-26105888D01*
X13529705Y-26105888D02*
X13520182Y-26124936D01*
X13520182Y-26124936D02*
X13510658Y-26134460D01*
X13510658Y-26134460D02*
X13491610Y-26143984D01*
X13491610Y-26143984D02*
X13472562Y-26143984D01*
X13472562Y-26143984D02*
X13453515Y-26134460D01*
X13453515Y-26134460D02*
X13443991Y-26124936D01*
X13443991Y-26124936D02*
X13434467Y-26105888D01*
X13434467Y-26105888D02*
X13424943Y-26067793D01*
X13424943Y-26067793D02*
X13424943Y-26020174D01*
X13424943Y-26020174D02*
X13434467Y-25982079D01*
X13434467Y-25982079D02*
X13443991Y-25963031D01*
X13443991Y-25963031D02*
X13453515Y-25953508D01*
X13453515Y-25953508D02*
X13472562Y-25943984D01*
X13663039Y-25943984D02*
X13682086Y-25943984D01*
X13682086Y-25943984D02*
X13701134Y-25953508D01*
X13701134Y-25953508D02*
X13710658Y-25963031D01*
X13710658Y-25963031D02*
X13720182Y-25982079D01*
X13720182Y-25982079D02*
X13729705Y-26020174D01*
X13729705Y-26020174D02*
X13729705Y-26067793D01*
X13729705Y-26067793D02*
X13720182Y-26105888D01*
X13720182Y-26105888D02*
X13710658Y-26124936D01*
X13710658Y-26124936D02*
X13701134Y-26134460D01*
X13701134Y-26134460D02*
X13682086Y-26143984D01*
X13682086Y-26143984D02*
X13663039Y-26143984D01*
X13663039Y-26143984D02*
X13643991Y-26134460D01*
X13643991Y-26134460D02*
X13634467Y-26124936D01*
X13634467Y-26124936D02*
X13624943Y-26105888D01*
X13624943Y-26105888D02*
X13615420Y-26067793D01*
X13615420Y-26067793D02*
X13615420Y-26020174D01*
X13615420Y-26020174D02*
X13624943Y-25982079D01*
X13624943Y-25982079D02*
X13634467Y-25963031D01*
X13634467Y-25963031D02*
X13643991Y-25953508D01*
X13643991Y-25953508D02*
X13663039Y-25943984D01*
X13815420Y-26143984D02*
X13815420Y-26010650D01*
X13815420Y-26029698D02*
X13824943Y-26020174D01*
X13824943Y-26020174D02*
X13843991Y-26010650D01*
X13843991Y-26010650D02*
X13872563Y-26010650D01*
X13872563Y-26010650D02*
X13891610Y-26020174D01*
X13891610Y-26020174D02*
X13901134Y-26039222D01*
X13901134Y-26039222D02*
X13901134Y-26143984D01*
X13901134Y-26039222D02*
X13910658Y-26020174D01*
X13910658Y-26020174D02*
X13929705Y-26010650D01*
X13929705Y-26010650D02*
X13958277Y-26010650D01*
X13958277Y-26010650D02*
X13977324Y-26020174D01*
X13977324Y-26020174D02*
X13986848Y-26039222D01*
X13986848Y-26039222D02*
X13986848Y-26143984D01*
X14082086Y-26143984D02*
X14082086Y-26010650D01*
X14082086Y-26029698D02*
X14091610Y-26020174D01*
X14091610Y-26020174D02*
X14110658Y-26010650D01*
X14110658Y-26010650D02*
X14139229Y-26010650D01*
X14139229Y-26010650D02*
X14158277Y-26020174D01*
X14158277Y-26020174D02*
X14167801Y-26039222D01*
X14167801Y-26039222D02*
X14167801Y-26143984D01*
X14167801Y-26039222D02*
X14177324Y-26020174D01*
X14177324Y-26020174D02*
X14196372Y-26010650D01*
X14196372Y-26010650D02*
X14224943Y-26010650D01*
X14224943Y-26010650D02*
X14243991Y-26020174D01*
X14243991Y-26020174D02*
X14253515Y-26039222D01*
X14253515Y-26039222D02*
X14253515Y-26143984D01*
X14643991Y-25934460D02*
X14472563Y-26191603D01*
X14901134Y-25943984D02*
X14920182Y-25943984D01*
X14920182Y-25943984D02*
X14939229Y-25953508D01*
X14939229Y-25953508D02*
X14948753Y-25963031D01*
X14948753Y-25963031D02*
X14958277Y-25982079D01*
X14958277Y-25982079D02*
X14967801Y-26020174D01*
X14967801Y-26020174D02*
X14967801Y-26067793D01*
X14967801Y-26067793D02*
X14958277Y-26105888D01*
X14958277Y-26105888D02*
X14948753Y-26124936D01*
X14948753Y-26124936D02*
X14939229Y-26134460D01*
X14939229Y-26134460D02*
X14920182Y-26143984D01*
X14920182Y-26143984D02*
X14901134Y-26143984D01*
X14901134Y-26143984D02*
X14882086Y-26134460D01*
X14882086Y-26134460D02*
X14872563Y-26124936D01*
X14872563Y-26124936D02*
X14863039Y-26105888D01*
X14863039Y-26105888D02*
X14853515Y-26067793D01*
X14853515Y-26067793D02*
X14853515Y-26020174D01*
X14853515Y-26020174D02*
X14863039Y-25982079D01*
X14863039Y-25982079D02*
X14872563Y-25963031D01*
X14872563Y-25963031D02*
X14882086Y-25953508D01*
X14882086Y-25953508D02*
X14901134Y-25943984D01*
X15053515Y-26124936D02*
X15063039Y-26134460D01*
X15063039Y-26134460D02*
X15053515Y-26143984D01*
X15053515Y-26143984D02*
X15043991Y-26134460D01*
X15043991Y-26134460D02*
X15053515Y-26124936D01*
X15053515Y-26124936D02*
X15053515Y-26143984D01*
X15186848Y-25943984D02*
X15205896Y-25943984D01*
X15205896Y-25943984D02*
X15224944Y-25953508D01*
X15224944Y-25953508D02*
X15234467Y-25963031D01*
X15234467Y-25963031D02*
X15243991Y-25982079D01*
X15243991Y-25982079D02*
X15253515Y-26020174D01*
X15253515Y-26020174D02*
X15253515Y-26067793D01*
X15253515Y-26067793D02*
X15243991Y-26105888D01*
X15243991Y-26105888D02*
X15234467Y-26124936D01*
X15234467Y-26124936D02*
X15224944Y-26134460D01*
X15224944Y-26134460D02*
X15205896Y-26143984D01*
X15205896Y-26143984D02*
X15186848Y-26143984D01*
X15186848Y-26143984D02*
X15167801Y-26134460D01*
X15167801Y-26134460D02*
X15158277Y-26124936D01*
X15158277Y-26124936D02*
X15148753Y-26105888D01*
X15148753Y-26105888D02*
X15139229Y-26067793D01*
X15139229Y-26067793D02*
X15139229Y-26020174D01*
X15139229Y-26020174D02*
X15148753Y-25982079D01*
X15148753Y-25982079D02*
X15158277Y-25963031D01*
X15158277Y-25963031D02*
X15167801Y-25953508D01*
X15167801Y-25953508D02*
X15186848Y-25943984D01*
X15443991Y-26143984D02*
X15329706Y-26143984D01*
X15386848Y-26143984D02*
X15386848Y-25943984D01*
X15386848Y-25943984D02*
X15367801Y-25972555D01*
X15367801Y-25972555D02*
X15348753Y-25991603D01*
X15348753Y-25991603D02*
X15329706Y-26001127D01*
X15634467Y-26143984D02*
X15520182Y-26143984D01*
X15577325Y-26143984D02*
X15577325Y-25943984D01*
X15577325Y-25943984D02*
X15558277Y-25972555D01*
X15558277Y-25972555D02*
X15539229Y-25991603D01*
X15539229Y-25991603D02*
X15520182Y-26001127D01*
X15748753Y-26029698D02*
X15729706Y-26020174D01*
X15729706Y-26020174D02*
X15720182Y-26010650D01*
X15720182Y-26010650D02*
X15710658Y-25991603D01*
X15710658Y-25991603D02*
X15710658Y-25982079D01*
X15710658Y-25982079D02*
X15720182Y-25963031D01*
X15720182Y-25963031D02*
X15729706Y-25953508D01*
X15729706Y-25953508D02*
X15748753Y-25943984D01*
X15748753Y-25943984D02*
X15786848Y-25943984D01*
X15786848Y-25943984D02*
X15805896Y-25953508D01*
X15805896Y-25953508D02*
X15815420Y-25963031D01*
X15815420Y-25963031D02*
X15824944Y-25982079D01*
X15824944Y-25982079D02*
X15824944Y-25991603D01*
X15824944Y-25991603D02*
X15815420Y-26010650D01*
X15815420Y-26010650D02*
X15805896Y-26020174D01*
X15805896Y-26020174D02*
X15786848Y-26029698D01*
X15786848Y-26029698D02*
X15748753Y-26029698D01*
X15748753Y-26029698D02*
X15729706Y-26039222D01*
X15729706Y-26039222D02*
X15720182Y-26048746D01*
X15720182Y-26048746D02*
X15710658Y-26067793D01*
X15710658Y-26067793D02*
X15710658Y-26105888D01*
X15710658Y-26105888D02*
X15720182Y-26124936D01*
X15720182Y-26124936D02*
X15729706Y-26134460D01*
X15729706Y-26134460D02*
X15748753Y-26143984D01*
X15748753Y-26143984D02*
X15786848Y-26143984D01*
X15786848Y-26143984D02*
X15805896Y-26134460D01*
X15805896Y-26134460D02*
X15815420Y-26124936D01*
X15815420Y-26124936D02*
X15824944Y-26105888D01*
X15824944Y-26105888D02*
X15824944Y-26067793D01*
X15824944Y-26067793D02*
X15815420Y-26048746D01*
X15815420Y-26048746D02*
X15805896Y-26039222D01*
X15805896Y-26039222D02*
X15786848Y-26029698D01*
X15901134Y-25943984D02*
X15901134Y-25982079D01*
X15977325Y-25943984D02*
X15977325Y-25982079D01*
X16272563Y-26220174D02*
X16263039Y-26210650D01*
X16263039Y-26210650D02*
X16243991Y-26182079D01*
X16243991Y-26182079D02*
X16234468Y-26163031D01*
X16234468Y-26163031D02*
X16224944Y-26134460D01*
X16224944Y-26134460D02*
X16215420Y-26086841D01*
X16215420Y-26086841D02*
X16215420Y-26048746D01*
X16215420Y-26048746D02*
X16224944Y-26001127D01*
X16224944Y-26001127D02*
X16234468Y-25972555D01*
X16234468Y-25972555D02*
X16243991Y-25953508D01*
X16243991Y-25953508D02*
X16263039Y-25924936D01*
X16263039Y-25924936D02*
X16272563Y-25915412D01*
X16434468Y-26010650D02*
X16434468Y-26143984D01*
X16386848Y-25934460D02*
X16339229Y-26077317D01*
X16339229Y-26077317D02*
X16463039Y-26077317D01*
X16577325Y-25943984D02*
X16596372Y-25943984D01*
X16596372Y-25943984D02*
X16615420Y-25953508D01*
X16615420Y-25953508D02*
X16624944Y-25963031D01*
X16624944Y-25963031D02*
X16634468Y-25982079D01*
X16634468Y-25982079D02*
X16643991Y-26020174D01*
X16643991Y-26020174D02*
X16643991Y-26067793D01*
X16643991Y-26067793D02*
X16634468Y-26105888D01*
X16634468Y-26105888D02*
X16624944Y-26124936D01*
X16624944Y-26124936D02*
X16615420Y-26134460D01*
X16615420Y-26134460D02*
X16596372Y-26143984D01*
X16596372Y-26143984D02*
X16577325Y-26143984D01*
X16577325Y-26143984D02*
X16558277Y-26134460D01*
X16558277Y-26134460D02*
X16548753Y-26124936D01*
X16548753Y-26124936D02*
X16539229Y-26105888D01*
X16539229Y-26105888D02*
X16529706Y-26067793D01*
X16529706Y-26067793D02*
X16529706Y-26020174D01*
X16529706Y-26020174D02*
X16539229Y-25982079D01*
X16539229Y-25982079D02*
X16548753Y-25963031D01*
X16548753Y-25963031D02*
X16558277Y-25953508D01*
X16558277Y-25953508D02*
X16577325Y-25943984D01*
X16758277Y-26029698D02*
X16739229Y-26020174D01*
X16739229Y-26020174D02*
X16729706Y-26010650D01*
X16729706Y-26010650D02*
X16720182Y-25991603D01*
X16720182Y-25991603D02*
X16720182Y-25982079D01*
X16720182Y-25982079D02*
X16729706Y-25963031D01*
X16729706Y-25963031D02*
X16739229Y-25953508D01*
X16739229Y-25953508D02*
X16758277Y-25943984D01*
X16758277Y-25943984D02*
X16796372Y-25943984D01*
X16796372Y-25943984D02*
X16815420Y-25953508D01*
X16815420Y-25953508D02*
X16824944Y-25963031D01*
X16824944Y-25963031D02*
X16834468Y-25982079D01*
X16834468Y-25982079D02*
X16834468Y-25991603D01*
X16834468Y-25991603D02*
X16824944Y-26010650D01*
X16824944Y-26010650D02*
X16815420Y-26020174D01*
X16815420Y-26020174D02*
X16796372Y-26029698D01*
X16796372Y-26029698D02*
X16758277Y-26029698D01*
X16758277Y-26029698D02*
X16739229Y-26039222D01*
X16739229Y-26039222D02*
X16729706Y-26048746D01*
X16729706Y-26048746D02*
X16720182Y-26067793D01*
X16720182Y-26067793D02*
X16720182Y-26105888D01*
X16720182Y-26105888D02*
X16729706Y-26124936D01*
X16729706Y-26124936D02*
X16739229Y-26134460D01*
X16739229Y-26134460D02*
X16758277Y-26143984D01*
X16758277Y-26143984D02*
X16796372Y-26143984D01*
X16796372Y-26143984D02*
X16815420Y-26134460D01*
X16815420Y-26134460D02*
X16824944Y-26124936D01*
X16824944Y-26124936D02*
X16834468Y-26105888D01*
X16834468Y-26105888D02*
X16834468Y-26067793D01*
X16834468Y-26067793D02*
X16824944Y-26048746D01*
X16824944Y-26048746D02*
X16815420Y-26039222D01*
X16815420Y-26039222D02*
X16796372Y-26029698D01*
X17072563Y-26143984D02*
X17072563Y-25943984D01*
X17158277Y-26143984D02*
X17158277Y-26039222D01*
X17158277Y-26039222D02*
X17148753Y-26020174D01*
X17148753Y-26020174D02*
X17129706Y-26010650D01*
X17129706Y-26010650D02*
X17101134Y-26010650D01*
X17101134Y-26010650D02*
X17082087Y-26020174D01*
X17082087Y-26020174D02*
X17072563Y-26029698D01*
X17282087Y-26143984D02*
X17263039Y-26134460D01*
X17263039Y-26134460D02*
X17253515Y-26124936D01*
X17253515Y-26124936D02*
X17243992Y-26105888D01*
X17243992Y-26105888D02*
X17243992Y-26048746D01*
X17243992Y-26048746D02*
X17253515Y-26029698D01*
X17253515Y-26029698D02*
X17263039Y-26020174D01*
X17263039Y-26020174D02*
X17282087Y-26010650D01*
X17282087Y-26010650D02*
X17310658Y-26010650D01*
X17310658Y-26010650D02*
X17329706Y-26020174D01*
X17329706Y-26020174D02*
X17339230Y-26029698D01*
X17339230Y-26029698D02*
X17348753Y-26048746D01*
X17348753Y-26048746D02*
X17348753Y-26105888D01*
X17348753Y-26105888D02*
X17339230Y-26124936D01*
X17339230Y-26124936D02*
X17329706Y-26134460D01*
X17329706Y-26134460D02*
X17310658Y-26143984D01*
X17310658Y-26143984D02*
X17282087Y-26143984D01*
X17463039Y-26143984D02*
X17443992Y-26134460D01*
X17443992Y-26134460D02*
X17434468Y-26115412D01*
X17434468Y-26115412D02*
X17434468Y-25943984D01*
X17615420Y-26134460D02*
X17596373Y-26143984D01*
X17596373Y-26143984D02*
X17558277Y-26143984D01*
X17558277Y-26143984D02*
X17539230Y-26134460D01*
X17539230Y-26134460D02*
X17529706Y-26115412D01*
X17529706Y-26115412D02*
X17529706Y-26039222D01*
X17529706Y-26039222D02*
X17539230Y-26020174D01*
X17539230Y-26020174D02*
X17558277Y-26010650D01*
X17558277Y-26010650D02*
X17596373Y-26010650D01*
X17596373Y-26010650D02*
X17615420Y-26020174D01*
X17615420Y-26020174D02*
X17624944Y-26039222D01*
X17624944Y-26039222D02*
X17624944Y-26058269D01*
X17624944Y-26058269D02*
X17529706Y-26077317D01*
X17701134Y-26134460D02*
X17720182Y-26143984D01*
X17720182Y-26143984D02*
X17758277Y-26143984D01*
X17758277Y-26143984D02*
X17777325Y-26134460D01*
X17777325Y-26134460D02*
X17786849Y-26115412D01*
X17786849Y-26115412D02*
X17786849Y-26105888D01*
X17786849Y-26105888D02*
X17777325Y-26086841D01*
X17777325Y-26086841D02*
X17758277Y-26077317D01*
X17758277Y-26077317D02*
X17729706Y-26077317D01*
X17729706Y-26077317D02*
X17710658Y-26067793D01*
X17710658Y-26067793D02*
X17701134Y-26048746D01*
X17701134Y-26048746D02*
X17701134Y-26039222D01*
X17701134Y-26039222D02*
X17710658Y-26020174D01*
X17710658Y-26020174D02*
X17729706Y-26010650D01*
X17729706Y-26010650D02*
X17758277Y-26010650D01*
X17758277Y-26010650D02*
X17777325Y-26020174D01*
X17853515Y-26220174D02*
X17863039Y-26210650D01*
X17863039Y-26210650D02*
X17882087Y-26182079D01*
X17882087Y-26182079D02*
X17891611Y-26163031D01*
X17891611Y-26163031D02*
X17901134Y-26134460D01*
X17901134Y-26134460D02*
X17910658Y-26086841D01*
X17910658Y-26086841D02*
X17910658Y-26048746D01*
X17910658Y-26048746D02*
X17901134Y-26001127D01*
X17901134Y-26001127D02*
X17891611Y-25972555D01*
X17891611Y-25972555D02*
X17882087Y-25953508D01*
X17882087Y-25953508D02*
X17863039Y-25924936D01*
X17863039Y-25924936D02*
X17853515Y-25915412D01*
D12*
X12647500Y-26266500D02*
X12647500Y-26366500D01*
X12597500Y-26316500D02*
X12697500Y-26316500D01*
D11*
X13063039Y-26407984D02*
X12948753Y-26407984D01*
X13005896Y-26407984D02*
X13005896Y-26207984D01*
X13005896Y-26207984D02*
X12986848Y-26236555D01*
X12986848Y-26236555D02*
X12967801Y-26255603D01*
X12967801Y-26255603D02*
X12948753Y-26265127D01*
X13148753Y-26388936D02*
X13158277Y-26398460D01*
X13158277Y-26398460D02*
X13148753Y-26407984D01*
X13148753Y-26407984D02*
X13139229Y-26398460D01*
X13139229Y-26398460D02*
X13148753Y-26388936D01*
X13148753Y-26388936D02*
X13148753Y-26407984D01*
X13282086Y-26207984D02*
X13301134Y-26207984D01*
X13301134Y-26207984D02*
X13320182Y-26217508D01*
X13320182Y-26217508D02*
X13329705Y-26227031D01*
X13329705Y-26227031D02*
X13339229Y-26246079D01*
X13339229Y-26246079D02*
X13348753Y-26284174D01*
X13348753Y-26284174D02*
X13348753Y-26331793D01*
X13348753Y-26331793D02*
X13339229Y-26369888D01*
X13339229Y-26369888D02*
X13329705Y-26388936D01*
X13329705Y-26388936D02*
X13320182Y-26398460D01*
X13320182Y-26398460D02*
X13301134Y-26407984D01*
X13301134Y-26407984D02*
X13282086Y-26407984D01*
X13282086Y-26407984D02*
X13263039Y-26398460D01*
X13263039Y-26398460D02*
X13253515Y-26388936D01*
X13253515Y-26388936D02*
X13243991Y-26369888D01*
X13243991Y-26369888D02*
X13234467Y-26331793D01*
X13234467Y-26331793D02*
X13234467Y-26284174D01*
X13234467Y-26284174D02*
X13243991Y-26246079D01*
X13243991Y-26246079D02*
X13253515Y-26227031D01*
X13253515Y-26227031D02*
X13263039Y-26217508D01*
X13263039Y-26217508D02*
X13282086Y-26207984D01*
X13472562Y-26207984D02*
X13491610Y-26207984D01*
X13491610Y-26207984D02*
X13510658Y-26217508D01*
X13510658Y-26217508D02*
X13520182Y-26227031D01*
X13520182Y-26227031D02*
X13529705Y-26246079D01*
X13529705Y-26246079D02*
X13539229Y-26284174D01*
X13539229Y-26284174D02*
X13539229Y-26331793D01*
X13539229Y-26331793D02*
X13529705Y-26369888D01*
X13529705Y-26369888D02*
X13520182Y-26388936D01*
X13520182Y-26388936D02*
X13510658Y-26398460D01*
X13510658Y-26398460D02*
X13491610Y-26407984D01*
X13491610Y-26407984D02*
X13472562Y-26407984D01*
X13472562Y-26407984D02*
X13453515Y-26398460D01*
X13453515Y-26398460D02*
X13443991Y-26388936D01*
X13443991Y-26388936D02*
X13434467Y-26369888D01*
X13434467Y-26369888D02*
X13424943Y-26331793D01*
X13424943Y-26331793D02*
X13424943Y-26284174D01*
X13424943Y-26284174D02*
X13434467Y-26246079D01*
X13434467Y-26246079D02*
X13443991Y-26227031D01*
X13443991Y-26227031D02*
X13453515Y-26217508D01*
X13453515Y-26217508D02*
X13472562Y-26207984D01*
X13663039Y-26207984D02*
X13682086Y-26207984D01*
X13682086Y-26207984D02*
X13701134Y-26217508D01*
X13701134Y-26217508D02*
X13710658Y-26227031D01*
X13710658Y-26227031D02*
X13720182Y-26246079D01*
X13720182Y-26246079D02*
X13729705Y-26284174D01*
X13729705Y-26284174D02*
X13729705Y-26331793D01*
X13729705Y-26331793D02*
X13720182Y-26369888D01*
X13720182Y-26369888D02*
X13710658Y-26388936D01*
X13710658Y-26388936D02*
X13701134Y-26398460D01*
X13701134Y-26398460D02*
X13682086Y-26407984D01*
X13682086Y-26407984D02*
X13663039Y-26407984D01*
X13663039Y-26407984D02*
X13643991Y-26398460D01*
X13643991Y-26398460D02*
X13634467Y-26388936D01*
X13634467Y-26388936D02*
X13624943Y-26369888D01*
X13624943Y-26369888D02*
X13615420Y-26331793D01*
X13615420Y-26331793D02*
X13615420Y-26284174D01*
X13615420Y-26284174D02*
X13624943Y-26246079D01*
X13624943Y-26246079D02*
X13634467Y-26227031D01*
X13634467Y-26227031D02*
X13643991Y-26217508D01*
X13643991Y-26217508D02*
X13663039Y-26207984D01*
X13815420Y-26407984D02*
X13815420Y-26274650D01*
X13815420Y-26293698D02*
X13824943Y-26284174D01*
X13824943Y-26284174D02*
X13843991Y-26274650D01*
X13843991Y-26274650D02*
X13872563Y-26274650D01*
X13872563Y-26274650D02*
X13891610Y-26284174D01*
X13891610Y-26284174D02*
X13901134Y-26303222D01*
X13901134Y-26303222D02*
X13901134Y-26407984D01*
X13901134Y-26303222D02*
X13910658Y-26284174D01*
X13910658Y-26284174D02*
X13929705Y-26274650D01*
X13929705Y-26274650D02*
X13958277Y-26274650D01*
X13958277Y-26274650D02*
X13977324Y-26284174D01*
X13977324Y-26284174D02*
X13986848Y-26303222D01*
X13986848Y-26303222D02*
X13986848Y-26407984D01*
X14082086Y-26407984D02*
X14082086Y-26274650D01*
X14082086Y-26293698D02*
X14091610Y-26284174D01*
X14091610Y-26284174D02*
X14110658Y-26274650D01*
X14110658Y-26274650D02*
X14139229Y-26274650D01*
X14139229Y-26274650D02*
X14158277Y-26284174D01*
X14158277Y-26284174D02*
X14167801Y-26303222D01*
X14167801Y-26303222D02*
X14167801Y-26407984D01*
X14167801Y-26303222D02*
X14177324Y-26284174D01*
X14177324Y-26284174D02*
X14196372Y-26274650D01*
X14196372Y-26274650D02*
X14224943Y-26274650D01*
X14224943Y-26274650D02*
X14243991Y-26284174D01*
X14243991Y-26284174D02*
X14253515Y-26303222D01*
X14253515Y-26303222D02*
X14253515Y-26407984D01*
X14643991Y-26198460D02*
X14472563Y-26455603D01*
X14901134Y-26207984D02*
X14920182Y-26207984D01*
X14920182Y-26207984D02*
X14939229Y-26217508D01*
X14939229Y-26217508D02*
X14948753Y-26227031D01*
X14948753Y-26227031D02*
X14958277Y-26246079D01*
X14958277Y-26246079D02*
X14967801Y-26284174D01*
X14967801Y-26284174D02*
X14967801Y-26331793D01*
X14967801Y-26331793D02*
X14958277Y-26369888D01*
X14958277Y-26369888D02*
X14948753Y-26388936D01*
X14948753Y-26388936D02*
X14939229Y-26398460D01*
X14939229Y-26398460D02*
X14920182Y-26407984D01*
X14920182Y-26407984D02*
X14901134Y-26407984D01*
X14901134Y-26407984D02*
X14882086Y-26398460D01*
X14882086Y-26398460D02*
X14872563Y-26388936D01*
X14872563Y-26388936D02*
X14863039Y-26369888D01*
X14863039Y-26369888D02*
X14853515Y-26331793D01*
X14853515Y-26331793D02*
X14853515Y-26284174D01*
X14853515Y-26284174D02*
X14863039Y-26246079D01*
X14863039Y-26246079D02*
X14872563Y-26227031D01*
X14872563Y-26227031D02*
X14882086Y-26217508D01*
X14882086Y-26217508D02*
X14901134Y-26207984D01*
X15053515Y-26388936D02*
X15063039Y-26398460D01*
X15063039Y-26398460D02*
X15053515Y-26407984D01*
X15053515Y-26407984D02*
X15043991Y-26398460D01*
X15043991Y-26398460D02*
X15053515Y-26388936D01*
X15053515Y-26388936D02*
X15053515Y-26407984D01*
X15186848Y-26207984D02*
X15205896Y-26207984D01*
X15205896Y-26207984D02*
X15224944Y-26217508D01*
X15224944Y-26217508D02*
X15234467Y-26227031D01*
X15234467Y-26227031D02*
X15243991Y-26246079D01*
X15243991Y-26246079D02*
X15253515Y-26284174D01*
X15253515Y-26284174D02*
X15253515Y-26331793D01*
X15253515Y-26331793D02*
X15243991Y-26369888D01*
X15243991Y-26369888D02*
X15234467Y-26388936D01*
X15234467Y-26388936D02*
X15224944Y-26398460D01*
X15224944Y-26398460D02*
X15205896Y-26407984D01*
X15205896Y-26407984D02*
X15186848Y-26407984D01*
X15186848Y-26407984D02*
X15167801Y-26398460D01*
X15167801Y-26398460D02*
X15158277Y-26388936D01*
X15158277Y-26388936D02*
X15148753Y-26369888D01*
X15148753Y-26369888D02*
X15139229Y-26331793D01*
X15139229Y-26331793D02*
X15139229Y-26284174D01*
X15139229Y-26284174D02*
X15148753Y-26246079D01*
X15148753Y-26246079D02*
X15158277Y-26227031D01*
X15158277Y-26227031D02*
X15167801Y-26217508D01*
X15167801Y-26217508D02*
X15186848Y-26207984D01*
X15320182Y-26207984D02*
X15443991Y-26207984D01*
X15443991Y-26207984D02*
X15377325Y-26284174D01*
X15377325Y-26284174D02*
X15405896Y-26284174D01*
X15405896Y-26284174D02*
X15424944Y-26293698D01*
X15424944Y-26293698D02*
X15434467Y-26303222D01*
X15434467Y-26303222D02*
X15443991Y-26322269D01*
X15443991Y-26322269D02*
X15443991Y-26369888D01*
X15443991Y-26369888D02*
X15434467Y-26388936D01*
X15434467Y-26388936D02*
X15424944Y-26398460D01*
X15424944Y-26398460D02*
X15405896Y-26407984D01*
X15405896Y-26407984D02*
X15348753Y-26407984D01*
X15348753Y-26407984D02*
X15329706Y-26398460D01*
X15329706Y-26398460D02*
X15320182Y-26388936D01*
X15539229Y-26407984D02*
X15577325Y-26407984D01*
X15577325Y-26407984D02*
X15596372Y-26398460D01*
X15596372Y-26398460D02*
X15605896Y-26388936D01*
X15605896Y-26388936D02*
X15624944Y-26360365D01*
X15624944Y-26360365D02*
X15634467Y-26322269D01*
X15634467Y-26322269D02*
X15634467Y-26246079D01*
X15634467Y-26246079D02*
X15624944Y-26227031D01*
X15624944Y-26227031D02*
X15615420Y-26217508D01*
X15615420Y-26217508D02*
X15596372Y-26207984D01*
X15596372Y-26207984D02*
X15558277Y-26207984D01*
X15558277Y-26207984D02*
X15539229Y-26217508D01*
X15539229Y-26217508D02*
X15529706Y-26227031D01*
X15529706Y-26227031D02*
X15520182Y-26246079D01*
X15520182Y-26246079D02*
X15520182Y-26293698D01*
X15520182Y-26293698D02*
X15529706Y-26312746D01*
X15529706Y-26312746D02*
X15539229Y-26322269D01*
X15539229Y-26322269D02*
X15558277Y-26331793D01*
X15558277Y-26331793D02*
X15596372Y-26331793D01*
X15596372Y-26331793D02*
X15615420Y-26322269D01*
X15615420Y-26322269D02*
X15624944Y-26312746D01*
X15624944Y-26312746D02*
X15634467Y-26293698D01*
X15805896Y-26274650D02*
X15805896Y-26407984D01*
X15758277Y-26198460D02*
X15710658Y-26341317D01*
X15710658Y-26341317D02*
X15834467Y-26341317D01*
X15901134Y-26207984D02*
X15901134Y-26246079D01*
X15977325Y-26207984D02*
X15977325Y-26246079D01*
X16272563Y-26484174D02*
X16263039Y-26474650D01*
X16263039Y-26474650D02*
X16243991Y-26446079D01*
X16243991Y-26446079D02*
X16234468Y-26427031D01*
X16234468Y-26427031D02*
X16224944Y-26398460D01*
X16224944Y-26398460D02*
X16215420Y-26350841D01*
X16215420Y-26350841D02*
X16215420Y-26312746D01*
X16215420Y-26312746D02*
X16224944Y-26265127D01*
X16224944Y-26265127D02*
X16234468Y-26236555D01*
X16234468Y-26236555D02*
X16243991Y-26217508D01*
X16243991Y-26217508D02*
X16263039Y-26188936D01*
X16263039Y-26188936D02*
X16272563Y-26179412D01*
X16443991Y-26207984D02*
X16348753Y-26207984D01*
X16348753Y-26207984D02*
X16339229Y-26303222D01*
X16339229Y-26303222D02*
X16348753Y-26293698D01*
X16348753Y-26293698D02*
X16367801Y-26284174D01*
X16367801Y-26284174D02*
X16415420Y-26284174D01*
X16415420Y-26284174D02*
X16434468Y-26293698D01*
X16434468Y-26293698D02*
X16443991Y-26303222D01*
X16443991Y-26303222D02*
X16453515Y-26322269D01*
X16453515Y-26322269D02*
X16453515Y-26369888D01*
X16453515Y-26369888D02*
X16443991Y-26388936D01*
X16443991Y-26388936D02*
X16434468Y-26398460D01*
X16434468Y-26398460D02*
X16415420Y-26407984D01*
X16415420Y-26407984D02*
X16367801Y-26407984D01*
X16367801Y-26407984D02*
X16348753Y-26398460D01*
X16348753Y-26398460D02*
X16339229Y-26388936D01*
X16624944Y-26207984D02*
X16586848Y-26207984D01*
X16586848Y-26207984D02*
X16567801Y-26217508D01*
X16567801Y-26217508D02*
X16558277Y-26227031D01*
X16558277Y-26227031D02*
X16539229Y-26255603D01*
X16539229Y-26255603D02*
X16529706Y-26293698D01*
X16529706Y-26293698D02*
X16529706Y-26369888D01*
X16529706Y-26369888D02*
X16539229Y-26388936D01*
X16539229Y-26388936D02*
X16548753Y-26398460D01*
X16548753Y-26398460D02*
X16567801Y-26407984D01*
X16567801Y-26407984D02*
X16605896Y-26407984D01*
X16605896Y-26407984D02*
X16624944Y-26398460D01*
X16624944Y-26398460D02*
X16634468Y-26388936D01*
X16634468Y-26388936D02*
X16643991Y-26369888D01*
X16643991Y-26369888D02*
X16643991Y-26322269D01*
X16643991Y-26322269D02*
X16634468Y-26303222D01*
X16634468Y-26303222D02*
X16624944Y-26293698D01*
X16624944Y-26293698D02*
X16605896Y-26284174D01*
X16605896Y-26284174D02*
X16567801Y-26284174D01*
X16567801Y-26284174D02*
X16548753Y-26293698D01*
X16548753Y-26293698D02*
X16539229Y-26303222D01*
X16539229Y-26303222D02*
X16529706Y-26322269D01*
X16882087Y-26407984D02*
X16882087Y-26207984D01*
X16967801Y-26407984D02*
X16967801Y-26303222D01*
X16967801Y-26303222D02*
X16958277Y-26284174D01*
X16958277Y-26284174D02*
X16939230Y-26274650D01*
X16939230Y-26274650D02*
X16910658Y-26274650D01*
X16910658Y-26274650D02*
X16891611Y-26284174D01*
X16891611Y-26284174D02*
X16882087Y-26293698D01*
X17091611Y-26407984D02*
X17072563Y-26398460D01*
X17072563Y-26398460D02*
X17063039Y-26388936D01*
X17063039Y-26388936D02*
X17053515Y-26369888D01*
X17053515Y-26369888D02*
X17053515Y-26312746D01*
X17053515Y-26312746D02*
X17063039Y-26293698D01*
X17063039Y-26293698D02*
X17072563Y-26284174D01*
X17072563Y-26284174D02*
X17091611Y-26274650D01*
X17091611Y-26274650D02*
X17120182Y-26274650D01*
X17120182Y-26274650D02*
X17139230Y-26284174D01*
X17139230Y-26284174D02*
X17148753Y-26293698D01*
X17148753Y-26293698D02*
X17158277Y-26312746D01*
X17158277Y-26312746D02*
X17158277Y-26369888D01*
X17158277Y-26369888D02*
X17148753Y-26388936D01*
X17148753Y-26388936D02*
X17139230Y-26398460D01*
X17139230Y-26398460D02*
X17120182Y-26407984D01*
X17120182Y-26407984D02*
X17091611Y-26407984D01*
X17272563Y-26407984D02*
X17253515Y-26398460D01*
X17253515Y-26398460D02*
X17243992Y-26379412D01*
X17243992Y-26379412D02*
X17243992Y-26207984D01*
X17424944Y-26398460D02*
X17405896Y-26407984D01*
X17405896Y-26407984D02*
X17367801Y-26407984D01*
X17367801Y-26407984D02*
X17348753Y-26398460D01*
X17348753Y-26398460D02*
X17339230Y-26379412D01*
X17339230Y-26379412D02*
X17339230Y-26303222D01*
X17339230Y-26303222D02*
X17348753Y-26284174D01*
X17348753Y-26284174D02*
X17367801Y-26274650D01*
X17367801Y-26274650D02*
X17405896Y-26274650D01*
X17405896Y-26274650D02*
X17424944Y-26284174D01*
X17424944Y-26284174D02*
X17434468Y-26303222D01*
X17434468Y-26303222D02*
X17434468Y-26322269D01*
X17434468Y-26322269D02*
X17339230Y-26341317D01*
X17510658Y-26398460D02*
X17529706Y-26407984D01*
X17529706Y-26407984D02*
X17567801Y-26407984D01*
X17567801Y-26407984D02*
X17586849Y-26398460D01*
X17586849Y-26398460D02*
X17596373Y-26379412D01*
X17596373Y-26379412D02*
X17596373Y-26369888D01*
X17596373Y-26369888D02*
X17586849Y-26350841D01*
X17586849Y-26350841D02*
X17567801Y-26341317D01*
X17567801Y-26341317D02*
X17539230Y-26341317D01*
X17539230Y-26341317D02*
X17520182Y-26331793D01*
X17520182Y-26331793D02*
X17510658Y-26312746D01*
X17510658Y-26312746D02*
X17510658Y-26303222D01*
X17510658Y-26303222D02*
X17520182Y-26284174D01*
X17520182Y-26284174D02*
X17539230Y-26274650D01*
X17539230Y-26274650D02*
X17567801Y-26274650D01*
X17567801Y-26274650D02*
X17586849Y-26284174D01*
X17834468Y-26331793D02*
X17986849Y-26331793D01*
X17910658Y-26407984D02*
X17910658Y-26255603D01*
X18215420Y-26207984D02*
X18339230Y-26207984D01*
X18339230Y-26207984D02*
X18272563Y-26284174D01*
X18272563Y-26284174D02*
X18301135Y-26284174D01*
X18301135Y-26284174D02*
X18320182Y-26293698D01*
X18320182Y-26293698D02*
X18329706Y-26303222D01*
X18329706Y-26303222D02*
X18339230Y-26322269D01*
X18339230Y-26322269D02*
X18339230Y-26369888D01*
X18339230Y-26369888D02*
X18329706Y-26388936D01*
X18329706Y-26388936D02*
X18320182Y-26398460D01*
X18320182Y-26398460D02*
X18301135Y-26407984D01*
X18301135Y-26407984D02*
X18243992Y-26407984D01*
X18243992Y-26407984D02*
X18224944Y-26398460D01*
X18224944Y-26398460D02*
X18215420Y-26388936D01*
X18567801Y-26398460D02*
X18586849Y-26407984D01*
X18586849Y-26407984D02*
X18624944Y-26407984D01*
X18624944Y-26407984D02*
X18643992Y-26398460D01*
X18643992Y-26398460D02*
X18653516Y-26379412D01*
X18653516Y-26379412D02*
X18653516Y-26369888D01*
X18653516Y-26369888D02*
X18643992Y-26350841D01*
X18643992Y-26350841D02*
X18624944Y-26341317D01*
X18624944Y-26341317D02*
X18596373Y-26341317D01*
X18596373Y-26341317D02*
X18577325Y-26331793D01*
X18577325Y-26331793D02*
X18567801Y-26312746D01*
X18567801Y-26312746D02*
X18567801Y-26303222D01*
X18567801Y-26303222D02*
X18577325Y-26284174D01*
X18577325Y-26284174D02*
X18596373Y-26274650D01*
X18596373Y-26274650D02*
X18624944Y-26274650D01*
X18624944Y-26274650D02*
X18643992Y-26284174D01*
X18767801Y-26407984D02*
X18748754Y-26398460D01*
X18748754Y-26398460D02*
X18739230Y-26379412D01*
X18739230Y-26379412D02*
X18739230Y-26207984D01*
X18872563Y-26407984D02*
X18853516Y-26398460D01*
X18853516Y-26398460D02*
X18843992Y-26388936D01*
X18843992Y-26388936D02*
X18834468Y-26369888D01*
X18834468Y-26369888D02*
X18834468Y-26312746D01*
X18834468Y-26312746D02*
X18843992Y-26293698D01*
X18843992Y-26293698D02*
X18853516Y-26284174D01*
X18853516Y-26284174D02*
X18872563Y-26274650D01*
X18872563Y-26274650D02*
X18901135Y-26274650D01*
X18901135Y-26274650D02*
X18920182Y-26284174D01*
X18920182Y-26284174D02*
X18929706Y-26293698D01*
X18929706Y-26293698D02*
X18939230Y-26312746D01*
X18939230Y-26312746D02*
X18939230Y-26369888D01*
X18939230Y-26369888D02*
X18929706Y-26388936D01*
X18929706Y-26388936D02*
X18920182Y-26398460D01*
X18920182Y-26398460D02*
X18901135Y-26407984D01*
X18901135Y-26407984D02*
X18872563Y-26407984D01*
X18996373Y-26274650D02*
X19072563Y-26274650D01*
X19024944Y-26207984D02*
X19024944Y-26379412D01*
X19024944Y-26379412D02*
X19034468Y-26398460D01*
X19034468Y-26398460D02*
X19053516Y-26407984D01*
X19053516Y-26407984D02*
X19072563Y-26407984D01*
X19129706Y-26398460D02*
X19148754Y-26407984D01*
X19148754Y-26407984D02*
X19186849Y-26407984D01*
X19186849Y-26407984D02*
X19205897Y-26398460D01*
X19205897Y-26398460D02*
X19215420Y-26379412D01*
X19215420Y-26379412D02*
X19215420Y-26369888D01*
X19215420Y-26369888D02*
X19205897Y-26350841D01*
X19205897Y-26350841D02*
X19186849Y-26341317D01*
X19186849Y-26341317D02*
X19158277Y-26341317D01*
X19158277Y-26341317D02*
X19139230Y-26331793D01*
X19139230Y-26331793D02*
X19129706Y-26312746D01*
X19129706Y-26312746D02*
X19129706Y-26303222D01*
X19129706Y-26303222D02*
X19139230Y-26284174D01*
X19139230Y-26284174D02*
X19158277Y-26274650D01*
X19158277Y-26274650D02*
X19186849Y-26274650D01*
X19186849Y-26274650D02*
X19205897Y-26284174D01*
X19282087Y-26484174D02*
X19291611Y-26474650D01*
X19291611Y-26474650D02*
X19310658Y-26446079D01*
X19310658Y-26446079D02*
X19320182Y-26427031D01*
X19320182Y-26427031D02*
X19329706Y-26398460D01*
X19329706Y-26398460D02*
X19339230Y-26350841D01*
X19339230Y-26350841D02*
X19339230Y-26312746D01*
X19339230Y-26312746D02*
X19329706Y-26265127D01*
X19329706Y-26265127D02*
X19320182Y-26236555D01*
X19320182Y-26236555D02*
X19310658Y-26217508D01*
X19310658Y-26217508D02*
X19291611Y-26188936D01*
X19291611Y-26188936D02*
X19282087Y-26179412D01*
X12668211Y-26651211D02*
X12668211Y-26509789D01*
X12526789Y-26509789D01*
X12526789Y-26651211D01*
X12668211Y-26651211D01*
X12939229Y-26471984D02*
X13063039Y-26471984D01*
X13063039Y-26471984D02*
X12996372Y-26548174D01*
X12996372Y-26548174D02*
X13024943Y-26548174D01*
X13024943Y-26548174D02*
X13043991Y-26557698D01*
X13043991Y-26557698D02*
X13053515Y-26567222D01*
X13053515Y-26567222D02*
X13063039Y-26586269D01*
X13063039Y-26586269D02*
X13063039Y-26633888D01*
X13063039Y-26633888D02*
X13053515Y-26652936D01*
X13053515Y-26652936D02*
X13043991Y-26662460D01*
X13043991Y-26662460D02*
X13024943Y-26671984D01*
X13024943Y-26671984D02*
X12967801Y-26671984D01*
X12967801Y-26671984D02*
X12948753Y-26662460D01*
X12948753Y-26662460D02*
X12939229Y-26652936D01*
X13148753Y-26652936D02*
X13158277Y-26662460D01*
X13158277Y-26662460D02*
X13148753Y-26671984D01*
X13148753Y-26671984D02*
X13139229Y-26662460D01*
X13139229Y-26662460D02*
X13148753Y-26652936D01*
X13148753Y-26652936D02*
X13148753Y-26671984D01*
X13234467Y-26491031D02*
X13243991Y-26481508D01*
X13243991Y-26481508D02*
X13263039Y-26471984D01*
X13263039Y-26471984D02*
X13310658Y-26471984D01*
X13310658Y-26471984D02*
X13329705Y-26481508D01*
X13329705Y-26481508D02*
X13339229Y-26491031D01*
X13339229Y-26491031D02*
X13348753Y-26510079D01*
X13348753Y-26510079D02*
X13348753Y-26529127D01*
X13348753Y-26529127D02*
X13339229Y-26557698D01*
X13339229Y-26557698D02*
X13224943Y-26671984D01*
X13224943Y-26671984D02*
X13348753Y-26671984D01*
X13472562Y-26471984D02*
X13491610Y-26471984D01*
X13491610Y-26471984D02*
X13510658Y-26481508D01*
X13510658Y-26481508D02*
X13520182Y-26491031D01*
X13520182Y-26491031D02*
X13529705Y-26510079D01*
X13529705Y-26510079D02*
X13539229Y-26548174D01*
X13539229Y-26548174D02*
X13539229Y-26595793D01*
X13539229Y-26595793D02*
X13529705Y-26633888D01*
X13529705Y-26633888D02*
X13520182Y-26652936D01*
X13520182Y-26652936D02*
X13510658Y-26662460D01*
X13510658Y-26662460D02*
X13491610Y-26671984D01*
X13491610Y-26671984D02*
X13472562Y-26671984D01*
X13472562Y-26671984D02*
X13453515Y-26662460D01*
X13453515Y-26662460D02*
X13443991Y-26652936D01*
X13443991Y-26652936D02*
X13434467Y-26633888D01*
X13434467Y-26633888D02*
X13424943Y-26595793D01*
X13424943Y-26595793D02*
X13424943Y-26548174D01*
X13424943Y-26548174D02*
X13434467Y-26510079D01*
X13434467Y-26510079D02*
X13443991Y-26491031D01*
X13443991Y-26491031D02*
X13453515Y-26481508D01*
X13453515Y-26481508D02*
X13472562Y-26471984D01*
X13663039Y-26471984D02*
X13682086Y-26471984D01*
X13682086Y-26471984D02*
X13701134Y-26481508D01*
X13701134Y-26481508D02*
X13710658Y-26491031D01*
X13710658Y-26491031D02*
X13720182Y-26510079D01*
X13720182Y-26510079D02*
X13729705Y-26548174D01*
X13729705Y-26548174D02*
X13729705Y-26595793D01*
X13729705Y-26595793D02*
X13720182Y-26633888D01*
X13720182Y-26633888D02*
X13710658Y-26652936D01*
X13710658Y-26652936D02*
X13701134Y-26662460D01*
X13701134Y-26662460D02*
X13682086Y-26671984D01*
X13682086Y-26671984D02*
X13663039Y-26671984D01*
X13663039Y-26671984D02*
X13643991Y-26662460D01*
X13643991Y-26662460D02*
X13634467Y-26652936D01*
X13634467Y-26652936D02*
X13624943Y-26633888D01*
X13624943Y-26633888D02*
X13615420Y-26595793D01*
X13615420Y-26595793D02*
X13615420Y-26548174D01*
X13615420Y-26548174D02*
X13624943Y-26510079D01*
X13624943Y-26510079D02*
X13634467Y-26491031D01*
X13634467Y-26491031D02*
X13643991Y-26481508D01*
X13643991Y-26481508D02*
X13663039Y-26471984D01*
X13815420Y-26671984D02*
X13815420Y-26538650D01*
X13815420Y-26557698D02*
X13824943Y-26548174D01*
X13824943Y-26548174D02*
X13843991Y-26538650D01*
X13843991Y-26538650D02*
X13872563Y-26538650D01*
X13872563Y-26538650D02*
X13891610Y-26548174D01*
X13891610Y-26548174D02*
X13901134Y-26567222D01*
X13901134Y-26567222D02*
X13901134Y-26671984D01*
X13901134Y-26567222D02*
X13910658Y-26548174D01*
X13910658Y-26548174D02*
X13929705Y-26538650D01*
X13929705Y-26538650D02*
X13958277Y-26538650D01*
X13958277Y-26538650D02*
X13977324Y-26548174D01*
X13977324Y-26548174D02*
X13986848Y-26567222D01*
X13986848Y-26567222D02*
X13986848Y-26671984D01*
X14082086Y-26671984D02*
X14082086Y-26538650D01*
X14082086Y-26557698D02*
X14091610Y-26548174D01*
X14091610Y-26548174D02*
X14110658Y-26538650D01*
X14110658Y-26538650D02*
X14139229Y-26538650D01*
X14139229Y-26538650D02*
X14158277Y-26548174D01*
X14158277Y-26548174D02*
X14167801Y-26567222D01*
X14167801Y-26567222D02*
X14167801Y-26671984D01*
X14167801Y-26567222D02*
X14177324Y-26548174D01*
X14177324Y-26548174D02*
X14196372Y-26538650D01*
X14196372Y-26538650D02*
X14224943Y-26538650D01*
X14224943Y-26538650D02*
X14243991Y-26548174D01*
X14243991Y-26548174D02*
X14253515Y-26567222D01*
X14253515Y-26567222D02*
X14253515Y-26671984D01*
X14643991Y-26462460D02*
X14472563Y-26719603D01*
X14901134Y-26471984D02*
X14920182Y-26471984D01*
X14920182Y-26471984D02*
X14939229Y-26481508D01*
X14939229Y-26481508D02*
X14948753Y-26491031D01*
X14948753Y-26491031D02*
X14958277Y-26510079D01*
X14958277Y-26510079D02*
X14967801Y-26548174D01*
X14967801Y-26548174D02*
X14967801Y-26595793D01*
X14967801Y-26595793D02*
X14958277Y-26633888D01*
X14958277Y-26633888D02*
X14948753Y-26652936D01*
X14948753Y-26652936D02*
X14939229Y-26662460D01*
X14939229Y-26662460D02*
X14920182Y-26671984D01*
X14920182Y-26671984D02*
X14901134Y-26671984D01*
X14901134Y-26671984D02*
X14882086Y-26662460D01*
X14882086Y-26662460D02*
X14872563Y-26652936D01*
X14872563Y-26652936D02*
X14863039Y-26633888D01*
X14863039Y-26633888D02*
X14853515Y-26595793D01*
X14853515Y-26595793D02*
X14853515Y-26548174D01*
X14853515Y-26548174D02*
X14863039Y-26510079D01*
X14863039Y-26510079D02*
X14872563Y-26491031D01*
X14872563Y-26491031D02*
X14882086Y-26481508D01*
X14882086Y-26481508D02*
X14901134Y-26471984D01*
X15053515Y-26652936D02*
X15063039Y-26662460D01*
X15063039Y-26662460D02*
X15053515Y-26671984D01*
X15053515Y-26671984D02*
X15043991Y-26662460D01*
X15043991Y-26662460D02*
X15053515Y-26652936D01*
X15053515Y-26652936D02*
X15053515Y-26671984D01*
X15253515Y-26671984D02*
X15139229Y-26671984D01*
X15196372Y-26671984D02*
X15196372Y-26471984D01*
X15196372Y-26471984D02*
X15177325Y-26500555D01*
X15177325Y-26500555D02*
X15158277Y-26519603D01*
X15158277Y-26519603D02*
X15139229Y-26529127D01*
X15329706Y-26491031D02*
X15339229Y-26481508D01*
X15339229Y-26481508D02*
X15358277Y-26471984D01*
X15358277Y-26471984D02*
X15405896Y-26471984D01*
X15405896Y-26471984D02*
X15424944Y-26481508D01*
X15424944Y-26481508D02*
X15434467Y-26491031D01*
X15434467Y-26491031D02*
X15443991Y-26510079D01*
X15443991Y-26510079D02*
X15443991Y-26529127D01*
X15443991Y-26529127D02*
X15434467Y-26557698D01*
X15434467Y-26557698D02*
X15320182Y-26671984D01*
X15320182Y-26671984D02*
X15443991Y-26671984D01*
X15615420Y-26471984D02*
X15577325Y-26471984D01*
X15577325Y-26471984D02*
X15558277Y-26481508D01*
X15558277Y-26481508D02*
X15548753Y-26491031D01*
X15548753Y-26491031D02*
X15529706Y-26519603D01*
X15529706Y-26519603D02*
X15520182Y-26557698D01*
X15520182Y-26557698D02*
X15520182Y-26633888D01*
X15520182Y-26633888D02*
X15529706Y-26652936D01*
X15529706Y-26652936D02*
X15539229Y-26662460D01*
X15539229Y-26662460D02*
X15558277Y-26671984D01*
X15558277Y-26671984D02*
X15596372Y-26671984D01*
X15596372Y-26671984D02*
X15615420Y-26662460D01*
X15615420Y-26662460D02*
X15624944Y-26652936D01*
X15624944Y-26652936D02*
X15634467Y-26633888D01*
X15634467Y-26633888D02*
X15634467Y-26586269D01*
X15634467Y-26586269D02*
X15624944Y-26567222D01*
X15624944Y-26567222D02*
X15615420Y-26557698D01*
X15615420Y-26557698D02*
X15596372Y-26548174D01*
X15596372Y-26548174D02*
X15558277Y-26548174D01*
X15558277Y-26548174D02*
X15539229Y-26557698D01*
X15539229Y-26557698D02*
X15529706Y-26567222D01*
X15529706Y-26567222D02*
X15520182Y-26586269D01*
X15758277Y-26471984D02*
X15777325Y-26471984D01*
X15777325Y-26471984D02*
X15796372Y-26481508D01*
X15796372Y-26481508D02*
X15805896Y-26491031D01*
X15805896Y-26491031D02*
X15815420Y-26510079D01*
X15815420Y-26510079D02*
X15824944Y-26548174D01*
X15824944Y-26548174D02*
X15824944Y-26595793D01*
X15824944Y-26595793D02*
X15815420Y-26633888D01*
X15815420Y-26633888D02*
X15805896Y-26652936D01*
X15805896Y-26652936D02*
X15796372Y-26662460D01*
X15796372Y-26662460D02*
X15777325Y-26671984D01*
X15777325Y-26671984D02*
X15758277Y-26671984D01*
X15758277Y-26671984D02*
X15739229Y-26662460D01*
X15739229Y-26662460D02*
X15729706Y-26652936D01*
X15729706Y-26652936D02*
X15720182Y-26633888D01*
X15720182Y-26633888D02*
X15710658Y-26595793D01*
X15710658Y-26595793D02*
X15710658Y-26548174D01*
X15710658Y-26548174D02*
X15720182Y-26510079D01*
X15720182Y-26510079D02*
X15729706Y-26491031D01*
X15729706Y-26491031D02*
X15739229Y-26481508D01*
X15739229Y-26481508D02*
X15758277Y-26471984D01*
X15901134Y-26471984D02*
X15901134Y-26510079D01*
X15977325Y-26471984D02*
X15977325Y-26510079D01*
X16272563Y-26748174D02*
X16263039Y-26738650D01*
X16263039Y-26738650D02*
X16243991Y-26710079D01*
X16243991Y-26710079D02*
X16234468Y-26691031D01*
X16234468Y-26691031D02*
X16224944Y-26662460D01*
X16224944Y-26662460D02*
X16215420Y-26614841D01*
X16215420Y-26614841D02*
X16215420Y-26576746D01*
X16215420Y-26576746D02*
X16224944Y-26529127D01*
X16224944Y-26529127D02*
X16234468Y-26500555D01*
X16234468Y-26500555D02*
X16243991Y-26481508D01*
X16243991Y-26481508D02*
X16263039Y-26452936D01*
X16263039Y-26452936D02*
X16272563Y-26443412D01*
X16434468Y-26538650D02*
X16434468Y-26671984D01*
X16386848Y-26462460D02*
X16339229Y-26605317D01*
X16339229Y-26605317D02*
X16463039Y-26605317D01*
X16691610Y-26671984D02*
X16691610Y-26471984D01*
X16777325Y-26671984D02*
X16777325Y-26567222D01*
X16777325Y-26567222D02*
X16767801Y-26548174D01*
X16767801Y-26548174D02*
X16748753Y-26538650D01*
X16748753Y-26538650D02*
X16720182Y-26538650D01*
X16720182Y-26538650D02*
X16701134Y-26548174D01*
X16701134Y-26548174D02*
X16691610Y-26557698D01*
X16901134Y-26671984D02*
X16882087Y-26662460D01*
X16882087Y-26662460D02*
X16872563Y-26652936D01*
X16872563Y-26652936D02*
X16863039Y-26633888D01*
X16863039Y-26633888D02*
X16863039Y-26576746D01*
X16863039Y-26576746D02*
X16872563Y-26557698D01*
X16872563Y-26557698D02*
X16882087Y-26548174D01*
X16882087Y-26548174D02*
X16901134Y-26538650D01*
X16901134Y-26538650D02*
X16929706Y-26538650D01*
X16929706Y-26538650D02*
X16948753Y-26548174D01*
X16948753Y-26548174D02*
X16958277Y-26557698D01*
X16958277Y-26557698D02*
X16967801Y-26576746D01*
X16967801Y-26576746D02*
X16967801Y-26633888D01*
X16967801Y-26633888D02*
X16958277Y-26652936D01*
X16958277Y-26652936D02*
X16948753Y-26662460D01*
X16948753Y-26662460D02*
X16929706Y-26671984D01*
X16929706Y-26671984D02*
X16901134Y-26671984D01*
X17082087Y-26671984D02*
X17063039Y-26662460D01*
X17063039Y-26662460D02*
X17053515Y-26643412D01*
X17053515Y-26643412D02*
X17053515Y-26471984D01*
X17234468Y-26662460D02*
X17215420Y-26671984D01*
X17215420Y-26671984D02*
X17177325Y-26671984D01*
X17177325Y-26671984D02*
X17158277Y-26662460D01*
X17158277Y-26662460D02*
X17148753Y-26643412D01*
X17148753Y-26643412D02*
X17148753Y-26567222D01*
X17148753Y-26567222D02*
X17158277Y-26548174D01*
X17158277Y-26548174D02*
X17177325Y-26538650D01*
X17177325Y-26538650D02*
X17215420Y-26538650D01*
X17215420Y-26538650D02*
X17234468Y-26548174D01*
X17234468Y-26548174D02*
X17243992Y-26567222D01*
X17243992Y-26567222D02*
X17243992Y-26586269D01*
X17243992Y-26586269D02*
X17148753Y-26605317D01*
X17320182Y-26662460D02*
X17339230Y-26671984D01*
X17339230Y-26671984D02*
X17377325Y-26671984D01*
X17377325Y-26671984D02*
X17396373Y-26662460D01*
X17396373Y-26662460D02*
X17405896Y-26643412D01*
X17405896Y-26643412D02*
X17405896Y-26633888D01*
X17405896Y-26633888D02*
X17396373Y-26614841D01*
X17396373Y-26614841D02*
X17377325Y-26605317D01*
X17377325Y-26605317D02*
X17348753Y-26605317D01*
X17348753Y-26605317D02*
X17329706Y-26595793D01*
X17329706Y-26595793D02*
X17320182Y-26576746D01*
X17320182Y-26576746D02*
X17320182Y-26567222D01*
X17320182Y-26567222D02*
X17329706Y-26548174D01*
X17329706Y-26548174D02*
X17348753Y-26538650D01*
X17348753Y-26538650D02*
X17377325Y-26538650D01*
X17377325Y-26538650D02*
X17396373Y-26548174D01*
X17472563Y-26748174D02*
X17482087Y-26738650D01*
X17482087Y-26738650D02*
X17501134Y-26710079D01*
X17501134Y-26710079D02*
X17510658Y-26691031D01*
X17510658Y-26691031D02*
X17520182Y-26662460D01*
X17520182Y-26662460D02*
X17529706Y-26614841D01*
X17529706Y-26614841D02*
X17529706Y-26576746D01*
X17529706Y-26576746D02*
X17520182Y-26529127D01*
X17520182Y-26529127D02*
X17510658Y-26500555D01*
X17510658Y-26500555D02*
X17501134Y-26481508D01*
X17501134Y-26481508D02*
X17482087Y-26452936D01*
X17482087Y-26452936D02*
X17472563Y-26443412D01*
M02*
