%TF.GenerationSoftware,KiCad,Pcbnew,8.0.3*%
%TF.CreationDate,2024-07-11T15:42:11-04:00*%
%TF.ProjectId,_HW_Mini-Scoreboard,5f48575f-4d69-46e6-992d-53636f726562,v1.0*%
%TF.SameCoordinates,Original*%
%TF.FileFunction,Drillmap*%
%TF.FilePolarity,Positive*%
%FSLAX45Y45*%
G04 Gerber Fmt 4.5, Leading zero omitted, Abs format (unit mm)*
G04 Created by KiCad (PCBNEW 8.0.3) date 2024-07-11 15:42:11*
%MOMM*%
%LPD*%
G01*
G04 APERTURE LIST*
%ADD10C,0.050000*%
%ADD11C,0.200000*%
G04 APERTURE END LIST*
D10*
X12700000Y-15740000D02*
G75*
G02*
X13200000Y-15240000I500000J0D01*
G01*
X13200000Y-25146000D02*
G75*
G02*
X12700000Y-24646000I0J500000D01*
G01*
X22606000Y-24646000D02*
G75*
G02*
X22106000Y-25146000I-500000J0D01*
G01*
X22606000Y-15740000D02*
X22606000Y-24646000D01*
X22106000Y-25146000D02*
X13200000Y-25146000D01*
X13200000Y-15240000D02*
X22106000Y-15240000D01*
X12700000Y-24646000D02*
X12700000Y-15740000D01*
X22106000Y-15240000D02*
G75*
G02*
X22606000Y-15740000I0J-500000D01*
G01*
D11*
X12958277Y-25459984D02*
X12958277Y-25259984D01*
X12958277Y-25259984D02*
X13005896Y-25259984D01*
X13005896Y-25259984D02*
X13034467Y-25269508D01*
X13034467Y-25269508D02*
X13053515Y-25288555D01*
X13053515Y-25288555D02*
X13063039Y-25307603D01*
X13063039Y-25307603D02*
X13072562Y-25345698D01*
X13072562Y-25345698D02*
X13072562Y-25374269D01*
X13072562Y-25374269D02*
X13063039Y-25412365D01*
X13063039Y-25412365D02*
X13053515Y-25431412D01*
X13053515Y-25431412D02*
X13034467Y-25450460D01*
X13034467Y-25450460D02*
X13005896Y-25459984D01*
X13005896Y-25459984D02*
X12958277Y-25459984D01*
X13158277Y-25459984D02*
X13158277Y-25326650D01*
X13158277Y-25364746D02*
X13167801Y-25345698D01*
X13167801Y-25345698D02*
X13177324Y-25336174D01*
X13177324Y-25336174D02*
X13196372Y-25326650D01*
X13196372Y-25326650D02*
X13215420Y-25326650D01*
X13282086Y-25459984D02*
X13282086Y-25326650D01*
X13282086Y-25259984D02*
X13272562Y-25269508D01*
X13272562Y-25269508D02*
X13282086Y-25279031D01*
X13282086Y-25279031D02*
X13291610Y-25269508D01*
X13291610Y-25269508D02*
X13282086Y-25259984D01*
X13282086Y-25259984D02*
X13282086Y-25279031D01*
X13405896Y-25459984D02*
X13386848Y-25450460D01*
X13386848Y-25450460D02*
X13377324Y-25431412D01*
X13377324Y-25431412D02*
X13377324Y-25259984D01*
X13510658Y-25459984D02*
X13491610Y-25450460D01*
X13491610Y-25450460D02*
X13482086Y-25431412D01*
X13482086Y-25431412D02*
X13482086Y-25259984D01*
X13739229Y-25459984D02*
X13739229Y-25259984D01*
X13739229Y-25259984D02*
X13805896Y-25402841D01*
X13805896Y-25402841D02*
X13872562Y-25259984D01*
X13872562Y-25259984D02*
X13872562Y-25459984D01*
X14053515Y-25459984D02*
X14053515Y-25355222D01*
X14053515Y-25355222D02*
X14043991Y-25336174D01*
X14043991Y-25336174D02*
X14024943Y-25326650D01*
X14024943Y-25326650D02*
X13986848Y-25326650D01*
X13986848Y-25326650D02*
X13967801Y-25336174D01*
X14053515Y-25450460D02*
X14034467Y-25459984D01*
X14034467Y-25459984D02*
X13986848Y-25459984D01*
X13986848Y-25459984D02*
X13967801Y-25450460D01*
X13967801Y-25450460D02*
X13958277Y-25431412D01*
X13958277Y-25431412D02*
X13958277Y-25412365D01*
X13958277Y-25412365D02*
X13967801Y-25393317D01*
X13967801Y-25393317D02*
X13986848Y-25383793D01*
X13986848Y-25383793D02*
X14034467Y-25383793D01*
X14034467Y-25383793D02*
X14053515Y-25374269D01*
X14148753Y-25326650D02*
X14148753Y-25526650D01*
X14148753Y-25336174D02*
X14167801Y-25326650D01*
X14167801Y-25326650D02*
X14205896Y-25326650D01*
X14205896Y-25326650D02*
X14224943Y-25336174D01*
X14224943Y-25336174D02*
X14234467Y-25345698D01*
X14234467Y-25345698D02*
X14243991Y-25364746D01*
X14243991Y-25364746D02*
X14243991Y-25421888D01*
X14243991Y-25421888D02*
X14234467Y-25440936D01*
X14234467Y-25440936D02*
X14224943Y-25450460D01*
X14224943Y-25450460D02*
X14205896Y-25459984D01*
X14205896Y-25459984D02*
X14167801Y-25459984D01*
X14167801Y-25459984D02*
X14148753Y-25450460D01*
X14329705Y-25440936D02*
X14339229Y-25450460D01*
X14339229Y-25450460D02*
X14329705Y-25459984D01*
X14329705Y-25459984D02*
X14320182Y-25450460D01*
X14320182Y-25450460D02*
X14329705Y-25440936D01*
X14329705Y-25440936D02*
X14329705Y-25459984D01*
X14329705Y-25336174D02*
X14339229Y-25345698D01*
X14339229Y-25345698D02*
X14329705Y-25355222D01*
X14329705Y-25355222D02*
X14320182Y-25345698D01*
X14320182Y-25345698D02*
X14329705Y-25336174D01*
X14329705Y-25336174D02*
X14329705Y-25355222D01*
M02*
