M48
; DRILL file {KiCad 8.0.3} date 2024-07-11T15:42:11-0400
; FORMAT={-:-/ absolute / metric / decimal}
; #@! TF.CreationDate,2024-07-11T15:42:11-04:00
; #@! TF.GenerationSoftware,Kicad,Pcbnew,8.0.3
; #@! TF.FileFunction,Plated,1,4,PTH
FMAT,2
METRIC
; #@! TA.AperFunction,Plated,PTH,ComponentDrill
T1C0.254
; #@! TA.AperFunction,Plated,PTH,ViaDrill
T2C0.300
; #@! TA.AperFunction,Plated,PTH,ComponentDrill
T3C1.000
; #@! TA.AperFunction,Plated,PTH,ComponentDrill
T4C3.200
%
G90
G05
T1
X136.855Y-170.409
X136.855Y-171.196
X136.855Y-171.983
X137.643Y-170.409
X137.643Y-171.196
X137.643Y-171.983
X138.43Y-170.409
X138.43Y-171.196
X138.43Y-171.983
X139.7Y-212.547
X139.7Y-213.335
X139.7Y-214.122
X140.487Y-212.547
X140.487Y-213.335
X140.487Y-214.122
X141.275Y-212.547
X141.275Y-213.335
X141.275Y-214.122
X142.951Y-191.237
X142.951Y-192.024
X142.951Y-192.811
X143.739Y-191.237
X143.739Y-192.024
X143.739Y-192.811
X144.526Y-191.237
X144.526Y-192.024
X144.526Y-192.811
X160.274Y-212.598
X160.274Y-213.385
X160.274Y-214.173
X161.061Y-212.598
X161.061Y-213.385
X161.061Y-214.173
X161.849Y-212.598
X161.849Y-213.385
X161.849Y-214.173
X162.199Y-180.315
X162.199Y-181.102
X162.199Y-181.889
X162.986Y-180.315
X162.986Y-181.102
X162.986Y-181.889
X163.773Y-180.315
X163.773Y-181.102
X163.773Y-181.889
X175.743Y-162.509
X175.743Y-163.297
X175.743Y-164.084
X176.022Y-198.095
X176.022Y-198.882
X176.022Y-199.669
X176.53Y-162.509
X176.53Y-163.297
X176.53Y-164.084
X176.809Y-198.095
X176.809Y-198.882
X176.809Y-199.669
X177.317Y-162.509
X177.317Y-163.297
X177.317Y-164.084
X177.597Y-198.095
X177.597Y-198.882
X177.597Y-199.669
X189.89Y-180.258
X189.89Y-181.045
X189.89Y-181.832
X190.678Y-180.258
X190.678Y-181.045
X190.678Y-181.832
X191.237Y-212.827
X191.237Y-213.614
X191.237Y-214.401
X191.465Y-180.258
X191.465Y-181.045
X191.465Y-181.832
X192.024Y-212.827
X192.024Y-213.614
X192.024Y-214.401
X192.811Y-212.827
X192.811Y-213.614
X192.811Y-214.401
X209.779Y-191.237
X209.779Y-192.024
X209.779Y-192.811
X210.566Y-191.237
X210.566Y-192.024
X210.566Y-192.811
X211.353Y-191.237
X211.353Y-192.024
X211.353Y-192.811
X211.811Y-212.573
X211.811Y-213.36
X211.811Y-214.147
X212.598Y-212.573
X212.598Y-213.36
X212.598Y-214.147
X213.385Y-212.573
X213.385Y-213.36
X213.385Y-214.147
X213.589Y-170.663
X213.589Y-171.45
X213.589Y-172.237
X214.376Y-170.663
X214.376Y-171.45
X214.376Y-172.237
X215.163Y-170.663
X215.163Y-171.45
X215.163Y-172.237
T2
X129.286Y-166.116
X129.458Y-179.148
X131.318Y-164.592
X131.318Y-177.8
X131.318Y-211.074
X132.08Y-175.514
X132.08Y-210.058
X132.08Y-211.836
X132.08Y-213.614
X132.08Y-215.392
X132.08Y-217.17
X132.334Y-160.528
X132.334Y-182.626
X132.334Y-188.214
X132.334Y-197.866
X132.334Y-208.28
X132.936Y-164.846
X133.35Y-174.752
X133.35Y-192.532
X133.35Y-194.056
X133.604Y-164.084
X133.685Y-221.561
X134.206Y-165.354
X134.366Y-180.34
X134.796Y-174.576
X134.874Y-205.232
X135.207Y-207.336
X135.331Y-163.829
X135.667Y-206.662
X135.89Y-220.218
X136.398Y-160.274
X136.398Y-205.994
X136.652Y-185.166
X136.652Y-185.966
X136.652Y-186.766
X136.855Y-163.829
X137.414Y-183.642
X137.504Y-204.306
X137.922Y-221.996
X137.922Y-228.854
X138.379Y-163.792
X138.557Y-183.261
X138.684Y-160.274
X138.811Y-221.615
X139.028Y-204.31
X139.192Y-197.866
X139.286Y-185.006
X139.368Y-174.576
X139.86Y-163.792
X140.298Y-221.578
X140.487Y-183.644
X140.552Y-204.343
X141.224Y-175.006
X141.224Y-177.8
X141.224Y-181.356
X141.224Y-189.738
X141.409Y-242.89
X141.478Y-179.578
X141.822Y-221.652
X142.018Y-183.636
X142.076Y-204.32
X142.494Y-163.83
X142.526Y-201.338
X143.256Y-236.22
X143.346Y-221.652
X143.51Y-164.338
X143.542Y-183.599
X143.6Y-204.31
X144.558Y-201.338
X145.034Y-179.07
X145.066Y-183.599
X146.05Y-161.544
X146.304Y-166.116
X146.59Y-183.599
X147.383Y-208.597
X147.398Y-221.645
X147.828Y-156.21
X147.828Y-160.02
X147.828Y-164.846
X147.828Y-169.672
X147.828Y-169.672
X148.462Y-234.06
X148.59Y-173.228
X148.844Y-212.09
X148.844Y-213.106
X148.844Y-214.122
X148.844Y-216.154
X148.844Y-217.678
X149.098Y-179.832
X149.098Y-211.074
X150.622Y-183.388
X151.13Y-204.724
X151.13Y-236.22
X151.638Y-161.544
X151.638Y-166.194
X151.827Y-242.951
X152.178Y-209.01
X152.654Y-156.558
X153.162Y-186.69
X153.543Y-240.411
X153.543Y-241.681
X153.573Y-188.311
X153.67Y-156.718
X153.67Y-189.738
X153.924Y-199.898
X153.924Y-206.756
X153.924Y-221.742
X154.178Y-191.516
X154.178Y-237.998
X154.526Y-196.69
X154.686Y-178.054
X154.94Y-161.544
X154.94Y-166.116
X154.94Y-207.518
X156.635Y-208.871
X156.718Y-156.21
X156.718Y-160.02
X156.718Y-164.846
X156.718Y-169.672
X156.942Y-206.248
X157.303Y-207.722
X157.48Y-203.2
X157.48Y-234.95
X157.734Y-188.468
X157.734Y-193.04
X158.242Y-223.266
X158.574Y-176.96
X158.771Y-205.093
X158.794Y-174.962
X159.512Y-226.314
X159.512Y-238.252
X159.512Y-240.03
X159.766Y-178.054
X159.943Y-173.412
X160.295Y-205.093
X160.528Y-161.544
X160.528Y-166.116
X161.163Y-242.697
X161.29Y-240.792
X161.417Y-238.887
X161.467Y-173.412
X161.819Y-205.093
X161.85Y-177.763
X162.814Y-196.596
X163.068Y-173.376
X163.343Y-205.093
X164.592Y-173.376
X164.592Y-199.898
X164.867Y-205.093
X165.354Y-165.862
X165.608Y-221.742
X166.116Y-166.624
X166.116Y-167.64
X166.116Y-173.376
X166.784Y-202.438
X167.386Y-163.576
X167.386Y-230.124
X167.386Y-231.902
X167.64Y-159.766
X168.148Y-189.484
X168.148Y-191.77
X168.148Y-198.374
X168.279Y-231.009
X168.283Y-229.108
X168.91Y-188.468
X169.101Y-195.326
X169.34Y-231.98
X169.829Y-204.627
X170.434Y-234.95
X170.942Y-211.836
X171.02Y-155.624
X171.196Y-204.978
X171.704Y-188.468
X171.704Y-192.113
X172.185Y-242.697
X172.466Y-158.242
X172.466Y-159.258
X172.72Y-170.688
X173.228Y-166.624
X173.482Y-160.274
X173.482Y-207.264
X173.736Y-155.542
X173.736Y-193.294
X173.736Y-194.31
X173.863Y-240.157
X173.863Y-241.427
X174.244Y-195.834
X174.498Y-179.578
X174.943Y-233.934
X175.006Y-187.609
X175.006Y-191.249
X175.006Y-195.072
X175.006Y-207.264
X175.166Y-178.562
X175.166Y-185.166
X175.26Y-155.542
X175.768Y-177.292
X175.768Y-209.296
X175.928Y-207.518
X176.53Y-191.249
X176.53Y-212.93
X176.53Y-223.598
X176.647Y-238.887
X176.647Y-240.411
X176.784Y-155.542
X178.054Y-191.199
X178.054Y-207.264
X178.308Y-155.542
X179.578Y-181.102
X179.578Y-189.738
X179.578Y-191.199
X179.578Y-241.173
X179.578Y-242.697
X179.832Y-155.542
X179.832Y-238.125
X181.356Y-188.468
X181.356Y-204.47
X181.356Y-239.776
X181.864Y-170.434
X182.166Y-176.67
X182.372Y-212.344
X182.372Y-213.868
X182.372Y-215.392
X182.372Y-216.916
X182.372Y-223.012
X182.378Y-222.002
X182.429Y-218.383
X182.937Y-210.763
X183.134Y-234.696
X183.896Y-189.484
X184.1Y-191.77
X184.912Y-197.612
X184.912Y-202.692
X185.09Y-195.402
X185.166Y-209.296
X185.42Y-237.744
X185.674Y-158.75
X185.928Y-160.782
X185.928Y-163.068
X185.928Y-164.592
X185.928Y-165.862
X185.928Y-167.132
X186.436Y-207.772
X186.436Y-209.042
X186.436Y-238.252
X186.576Y-174.384
X186.944Y-194.056
X187.452Y-198.12
X187.706Y-202.184
X187.706Y-218.44
X187.706Y-230.124
X187.706Y-231.394
X187.88Y-172.834
X187.96Y-176.784
X187.96Y-177.8
X187.96Y-207.518
X189.23Y-205.232
X189.23Y-209.042
X189.404Y-172.834
X189.484Y-224.536
X190.246Y-193.294
X190.5Y-226.822
X190.754Y-205.232
X190.928Y-172.797
X191.258Y-223.262
X191.77Y-161.701
X191.77Y-166.273
X192.278Y-189.738
X192.278Y-205.232
X192.452Y-172.797
X192.576Y-201.974
X192.786Y-223.266
X192.988Y-242.71
X193.548Y-178.308
X193.626Y-156.21
X193.626Y-160.098
X193.626Y-164.924
X193.626Y-169.75
X193.798Y-205.236
X193.976Y-172.797
X194.31Y-223.266
X194.564Y-200.152
X194.818Y-240.157
X194.818Y-241.427
X195.326Y-205.232
X196.088Y-230.124
X196.088Y-231.648
X196.596Y-188.609
X196.596Y-193.04
X197.007Y-236.22
X197.104Y-233.172
X197.358Y-161.701
X197.358Y-166.273
X198.12Y-239.014
X198.12Y-240.792
X198.452Y-199.898
X198.531Y-191.77
X198.882Y-208.788
X198.882Y-221.742
X199.136Y-202.184
X200.406Y-211.836
X200.406Y-213.36
X200.406Y-214.884
X200.406Y-216.408
X200.406Y-217.424
X200.5Y-178.308
X200.66Y-161.701
X200.66Y-166.273
X201.676Y-208.026
X201.676Y-239.014
X201.676Y-240.792
X201.676Y-242.57
X202.008Y-183.404
X202.516Y-156.21
X202.516Y-160.098
X202.516Y-164.924
X202.516Y-169.75
X202.541Y-188.468
X202.946Y-234.442
X202.946Y-235.966
X203.708Y-210.058
X203.962Y-172.974
X204.724Y-208.534
X205.486Y-174.498
X205.486Y-221.742
X205.74Y-184.99
X205.994Y-208.788
X205.994Y-232.918
X206.248Y-161.701
X206.248Y-166.273
X206.564Y-207.772
X207.01Y-179.07
X207.01Y-236.474
X207.45Y-168.148
X207.493Y-184.645
X207.518Y-187.452
X207.728Y-166.414
X207.772Y-177.8
X207.772Y-234.442
X207.866Y-206.756
X208.026Y-188.976
X208.534Y-160.782
X208.945Y-181.199
X209.042Y-188.214
X209.042Y-205.232
X209.121Y-184.645
X209.613Y-166.053
X209.707Y-209.042
X210.312Y-242.824
X210.566Y-226.568
X210.795Y-184.595
X210.82Y-164.503
X210.82Y-175.26
X210.82Y-205.359
X211.016Y-180.536
X211.074Y-168.91
X211.66Y-160.606
X211.836Y-242.837
X212.09Y-234.696
X212.09Y-235.712
X212.09Y-236.728
X212.319Y-184.595
X212.344Y-164.503
X212.598Y-205.232
X213.106Y-234.696
X213.106Y-235.712
X213.106Y-236.728
X213.36Y-195.072
X213.36Y-243.84
X213.843Y-184.595
X213.868Y-164.466
X214.376Y-205.232
X214.376Y-243.586
X215.138Y-199.898
X215.138Y-224.028
X215.392Y-164.466
X215.392Y-243.84
X216.154Y-205.359
X216.408Y-235.966
X216.408Y-239.522
X216.408Y-240.538
X216.408Y-243.586
X216.916Y-164.466
X216.916Y-185.42
X216.916Y-246.888
X217.678Y-237.236
X217.835Y-182.626
X217.932Y-180.848
X218.712Y-179.342
X218.948Y-238.76
X218.948Y-240.538
X219.534Y-162.56
X219.534Y-164.671
X219.71Y-199.39
X220.472Y-196.088
X220.472Y-234.442
X220.472Y-237.744
X220.726Y-190.246
X220.98Y-222.25
X221.14Y-193.802
X221.488Y-179.07
X221.488Y-211.328
X221.742Y-191.77
X221.742Y-201.168
X222.758Y-196.088
X223.012Y-176.501
X224.028Y-172.974
X224.087Y-171.24
T3
X128.778Y-225.044
X128.778Y-227.584
X128.778Y-230.124
X135.95Y-246.42
X135.95Y-248.96
X138.49Y-246.42
X138.49Y-248.96
X141.03Y-248.96
X141.03Y-246.42
X143.57Y-246.42
X143.57Y-248.96
X146.11Y-246.42
X146.11Y-248.96
X148.65Y-246.42
X148.65Y-248.96
X151.19Y-246.42
X151.19Y-248.96
X153.73Y-246.42
X153.73Y-248.96
X156.27Y-246.42
X156.27Y-248.96
X158.81Y-246.42
X158.81Y-248.96
X161.35Y-246.42
X161.35Y-248.96
X163.89Y-248.96
X163.89Y-246.42
X166.43Y-246.42
X166.43Y-248.96
X168.97Y-246.42
X168.97Y-248.96
X171.51Y-246.42
X171.51Y-248.96
X174.05Y-248.96
X174.05Y-246.42
X176.59Y-246.42
X176.59Y-248.96
X179.13Y-246.42
X179.13Y-248.96
X181.67Y-246.42
X181.67Y-248.96
X184.21Y-246.42
X184.21Y-248.96
X187.442Y-248.92
X189.982Y-248.92
X192.522Y-248.92
X195.062Y-248.92
X197.612Y-248.92
X200.152Y-248.92
X202.692Y-248.92
X205.232Y-248.92
X207.772Y-248.92
X210.312Y-248.92
X212.852Y-248.92
X215.392Y-248.92
X217.932Y-248.92
T4
X130.81Y-156.21
X130.81Y-247.65
X222.25Y-156.21
X222.25Y-247.65
T3
X131.922Y-240.522G85X131.922Y-238.522
G05
X135.922Y-234.822G85X133.922Y-234.822
G05
X137.922Y-240.772G85X137.922Y-238.272
G05
M30
